#N canvas 63 86 664 672 10;
#X obj 104 56 inlet;
#X obj 162 56 inlet;
#X obj 104 88 pack;
#X obj 396 95 inlet;
#X text 389 75 center frequency \, radians;
#X obj 104 123 t l l;
#X obj 104 224 pack;
#X obj 104 248 t l l;
#X obj 104 294 expr $f1 * cos($f2);
#X obj 134 270 expr $f1 * sin($f2);
#X obj 104 327 pack 0 0 1 0;
#X obj 104 520 t f f;
#X obj 104 554 pack 0 0 0 0;
#X obj 104 577 unpack 0 0 0 0;
#X obj 182 523 * -1;
#X obj 104 614 outlet;
#X obj 151 614 outlet;
#X obj 198 614 outlet;
#X obj 245 614 outlet;
#X text 101 32 original pole or zero;
#X floatatom 37 526 5 0 0 0 - - -;
#X floatatom 29 501 7 0 0 0 - - -;
#X floatatom 35 353 7 0 0 0 - - -;
#X floatatom 27 328 5 0 0 0 - - -;
#X floatatom 40 184 5 0 0 0 - - -;
#X obj 104 198 expr sqrt(sqrt($f1*$f1 + $f2*$f2));
#X obj 134 145 expr 1.5708 + 0.5*atan2($f2 \, $f1);
#X obj 398 127 expr 3.14159*0.25 - 0.5*$f1;
#X floatatom 367 343 5 0 0 0 - - -;
#X floatatom 359 318 5 0 0 0 - - -;
#X obj 122 459 expr (($f4*$f4-$f3*$f3)*$f2)*$f6;
#X floatatom 190 421 5 0 0 0 - - -;
#X obj 104 350 t l l l;
#X obj 208 388 expr 1/(($f4+$f3*$f1)*($f4+$f3*$f1)+$f3*$f3*$f2*$f2)
;
#X obj 362 276 sin;
#X obj 388 276 cos;
#X obj 104 484 expr ($f3*$f4*(1+$f1*$f1+$f2*$f2) + ($f3*$f3+$f4*$f4)*$f1)*$f6
;
#X connect 0 0 2 0;
#X connect 1 0 2 1;
#X connect 2 0 5 0;
#X connect 3 0 27 0;
#X connect 5 0 25 0;
#X connect 5 1 26 0;
#X connect 6 0 7 0;
#X connect 7 0 8 0;
#X connect 7 1 9 0;
#X connect 8 0 10 0;
#X connect 8 0 22 0;
#X connect 9 0 10 1;
#X connect 9 0 23 0;
#X connect 10 0 32 0;
#X connect 11 0 12 0;
#X connect 11 1 12 2;
#X connect 12 0 13 0;
#X connect 13 0 15 0;
#X connect 13 1 16 0;
#X connect 13 2 17 0;
#X connect 13 3 18 0;
#X connect 14 0 12 3;
#X connect 25 0 6 0;
#X connect 26 0 24 0;
#X connect 26 0 6 1;
#X connect 27 0 34 0;
#X connect 27 0 35 0;
#X connect 30 0 12 1;
#X connect 30 0 14 0;
#X connect 30 0 21 0;
#X connect 32 0 36 0;
#X connect 32 1 30 0;
#X connect 32 2 33 0;
#X connect 33 0 30 5;
#X connect 33 0 31 0;
#X connect 33 0 36 5;
#X connect 34 0 10 2;
#X connect 34 0 29 0;
#X connect 35 0 10 3;
#X connect 35 0 28 0;
#X connect 36 0 11 0;
#X connect 36 0 20 0;
