#N canvas 207 145 656 598 10;
#X obj 396 475 print;
#X obj 145 245 rpole~;
#X floatatom 161 175 5 0 0 0 - - -;
#X obj 144 311 cpole~;
#X obj 144 344 cpole~;
#X obj 144 283 *~;
#X msg 84 278 clear;
#X obj 161 61 loadbang;
#X floatatom 247 349 5 0 0 0 - - -;
#X obj 191 406 rzero~;
#X obj 191 457 czero~;
#X obj 191 490 czero~;
#X obj 191 435 /~;
#X obj 431 187 tgl 15 0 empty empty empty 0 -6 0 8 -262144 -1 -1 50
50;
#X obj 145 221 *~;
#X obj 191 384 /~;
#X floatatom 256 264 5 0 0 0 - - -;
#X floatatom 296 264 5 0 0 0 - - -;
#X floatatom 335 264 5 0 0 0 - - -;
#X floatatom 288 438 5 0 0 0 - - -;
#X floatatom 328 438 5 0 0 0 - - -;
#X floatatom 367 438 5 0 0 0 - - -;
#X obj 247 367 buttercoef-3;
#X obj 161 194 buttercoef-3;
#X obj 207 108 samplerate~;
#X obj 207 129 / 2;
#X obj 161 151 / 22050;
#X obj 161 109 f \$1;
#X obj 161 129 t f b;
#X obj 169 82 inlet;
#X obj 431 76 loadbang;
#X obj 439 97 inlet;
#X obj 297 68 loadbang;
#X obj 343 115 samplerate~;
#X obj 343 136 / 2;
#X obj 297 158 / 22050;
#X obj 297 136 t f b;
#X obj 305 89 inlet;
#X obj 70 85 inlet~;
#X obj 557 263 inlet;
#X obj 191 527 outlet~;
#X text 68 11 3-pole \, 3-zero butterworth lp/hp/shelving filter. Args:
lp freq \, hp freq \, normalize-hi. Inlets: input signal \, lo freq
\, hi freq \, hi norm \, reset;
#X obj 297 116 f \$2;
#X obj 431 124 f \$3;
#X connect 1 0 5 0;
#X connect 2 0 23 0;
#X connect 3 0 4 0;
#X connect 3 1 4 1;
#X connect 4 0 15 0;
#X connect 5 0 3 0;
#X connect 6 0 1 0;
#X connect 6 0 3 0;
#X connect 6 0 4 0;
#X connect 7 0 27 0;
#X connect 8 0 22 0;
#X connect 9 0 12 0;
#X connect 10 0 11 0;
#X connect 10 1 11 1;
#X connect 11 0 40 0;
#X connect 12 0 10 0;
#X connect 13 0 22 1;
#X connect 13 0 23 1;
#X connect 14 0 1 0;
#X connect 15 0 9 0;
#X connect 22 0 15 1;
#X connect 22 1 12 1;
#X connect 22 2 9 1;
#X connect 22 2 19 0;
#X connect 22 3 10 2;
#X connect 22 3 11 2;
#X connect 22 3 20 0;
#X connect 22 4 10 3;
#X connect 22 4 21 0;
#X connect 22 5 11 3;
#X connect 23 0 14 1;
#X connect 23 1 5 1;
#X connect 23 2 1 1;
#X connect 23 2 16 0;
#X connect 23 3 3 2;
#X connect 23 3 4 2;
#X connect 23 3 17 0;
#X connect 23 4 3 3;
#X connect 23 4 18 0;
#X connect 23 5 4 3;
#X connect 24 0 25 0;
#X connect 25 0 26 1;
#X connect 26 0 2 0;
#X connect 27 0 28 0;
#X connect 28 0 26 0;
#X connect 28 1 24 0;
#X connect 29 0 27 0;
#X connect 30 0 43 0;
#X connect 31 0 43 0;
#X connect 32 0 42 0;
#X connect 33 0 34 0;
#X connect 34 0 35 1;
#X connect 35 0 8 0;
#X connect 36 0 35 0;
#X connect 36 1 33 0;
#X connect 37 0 42 0;
#X connect 38 0 14 0;
#X connect 39 0 6 0;
#X connect 42 0 36 0;
#X connect 43 0 13 0;
