#N canvas 345 34 714 532 10;
#X obj 63 51 inlet;
#X floatatom 505 107 5 0 0 0 - - -;
#X obj 101 153 t f f;
#X msg 101 108 0.667;
#X msg 82 283 0;
#X obj 517 270 loadbang;
#X obj 528 298 inlet;
#X obj 517 322 f;
#X obj 517 346 expr 1 - 2*$f1;
#X obj 63 79 t b b b f;
#X obj 173 225 * -1;
#X obj 131 225 t f f;
#X obj 63 391 f;
#X obj 63 468 outlet;
#X text 515 250 1 to normalize at Nyquist;
#X text 59 30 characteristic frequency \, 0(DC) to 1(Nyquist);
#X obj 263 468 outlet;
#X obj 419 470 outlet;
#X text 419 492 imag2a;
#X text 263 490 real1;
#X text 354 492 real2;
#X obj 480 471 outlet;
#X text 480 493 imag2b;
#X obj 353 468 outlet;
#X text 184 9 3-pole Butterworth filter designer;
#X text 60 490 normalizer1;
#X obj 153 468 outlet;
#X text 150 490 normalizer2;
#X obj 136 434 expr (($f2-$f1)*($f2-$f1)+$f3*$f3);
#X obj 63 412 t f f;
#X obj 44 437 expr $f2-$f1;
#X obj 101 176 expr (1 - $f2*$f2) / (1 + $f2*$f2 + 2*$f2*cos($f1))
;
#X obj 131 202 expr 2*$f2*sin($f1) / (1 + $f2*$f2 + 2*$f2*cos($f1))
;
#X obj 82 307 expr (1 - $f2*$f2) / (1 + $f2*$f2 + 2*$f2*cos($f1));
#X obj 505 31 clip 0 1;
#X obj 505 60 expr tan($f1*1.57);
#X obj 101 131 expr $f1*1.5708;
#X connect 0 0 9 0;
#X connect 1 0 31 1;
#X connect 1 0 32 1;
#X connect 1 0 33 1;
#X connect 2 0 31 0;
#X connect 2 1 32 0;
#X connect 3 0 36 0;
#X connect 4 0 33 0;
#X connect 5 0 7 0;
#X connect 6 0 7 0;
#X connect 7 0 8 0;
#X connect 8 0 12 1;
#X connect 9 0 12 0;
#X connect 9 1 4 0;
#X connect 9 2 3 0;
#X connect 9 3 34 0;
#X connect 10 0 21 0;
#X connect 11 0 17 0;
#X connect 11 0 28 2;
#X connect 11 1 10 0;
#X connect 12 0 29 0;
#X connect 28 0 26 0;
#X connect 29 0 30 0;
#X connect 29 1 28 0;
#X connect 30 0 13 0;
#X connect 31 0 23 0;
#X connect 31 0 28 1;
#X connect 32 0 11 0;
#X connect 33 0 16 0;
#X connect 33 0 30 1;
#X connect 34 0 35 0;
#X connect 35 0 1 0;
#X connect 36 0 2 0;
