#N canvas 272 88 597 268 10;
#X obj 100 33 inlet;
#X obj 101 55 abs;
#X obj 101 80 moses 0.01;
#X obj 101 103 t b;
#X obj 101 156 outlet;
#X obj 101 125 \$1;
#X obj 143 123 expr sin(3.14159 * $f1) / sin(3.14159 * $f1 / \$1 )
;
#X text 185 30 dirichlet kernel - give N as argument. In "bin" units.
;
#X connect 0 0 1 0;
#X connect 1 0 2 0;
#X connect 2 0 3 0;
#X connect 2 1 6 0;
#X connect 3 0 5 0;
#X connect 5 0 4 0;
#X connect 6 0 4 0;
