#N struct haxis float x float y float w float w-3;
#N struct vaxis float x float y float h float h-3;
#N struct rect float x float y float w float h;
#N canvas 601 124 567 323 10;
#N canvas 128 309 985 491 buildit 0;
#X msg 23 17 \; pd-fig clear;
#X obj 35 173 until;
#X obj 37 148 t b b;
#X obj 38 203 f;
#X msg 89 164 0;
#X obj 124 184 + 1;
#X obj 38 427 print;
#X obj 38 242 t f f;
#X obj 38 268 expr 75 + 5 * $f1;
#X obj 38 294 pack;
#X msg 24 62 \; start pd-fig \;;
#X obj 37 125 bng 15 250 50 0 empty empty empty 0 -6 0 8 -262144 -1
-1;
#X obj 206 174 until;
#X obj 208 149 t b b;
#X obj 209 204 f;
#X msg 260 165 0;
#X obj 295 185 + 1;
#X obj 209 243 t f f;
#X obj 209 269 expr 75 + 5 * $f1;
#X obj 209 295 pack;
#X obj 208 126 bng 15 250 50 0 empty empty empty 0 -6 0 8 -262144 -1
-1;
#X obj 295 208 sel 49;
#X msg 789 68 \; add-haxis 50 75 300 297 \; add-vaxis 75 30 90 87;
#X msg 699 15 \; add-haxis 50 175 300 297 \; add-vaxis 75 130 90 87
;
#X msg 507 12 \; add-haxis 50 275 300 297 \; add-vaxis 75 230 90 87
;
#X msg 323 18 \; add-haxis 50 375 300 297 \; add-vaxis 75 330 90 87
;
#X msg 137 18 \; add-haxis 50 475 300 297 \; add-vaxis 75 430 90 87
;
#X obj 384 175 until;
#X obj 386 150 t b b;
#X obj 387 205 f;
#X msg 438 166 0;
#X obj 473 186 + 1;
#X obj 387 244 t f f;
#X obj 387 270 expr 75 + 5 * $f1;
#X obj 387 296 pack;
#X obj 386 127 bng 15 250 50 0 empty empty empty 0 -6 0 8 -262144 -1
-1;
#X obj 473 209 sel 49;
#X msg 387 327 \; add-rect \$1 275 2 \$2 \;;
#X obj 572 176 until;
#X obj 574 151 t b b;
#X obj 575 206 f;
#X msg 626 167 0;
#X obj 661 187 + 1;
#X obj 575 245 t f f;
#X obj 575 271 expr 75 + 5 * $f1;
#X obj 575 297 pack;
#X obj 574 128 bng 15 250 50 0 empty empty empty 0 -6 0 8 -262144 -1
-1;
#X obj 661 210 sel 49;
#X obj 750 177 until;
#X obj 752 152 t b b;
#X obj 753 207 f;
#X msg 804 168 0;
#X obj 839 188 + 1;
#X obj 753 246 t f f;
#X obj 753 272 expr 75 + 5 * $f1;
#X obj 753 298 pack;
#X obj 752 129 bng 15 250 50 0 empty empty empty 0 -6 0 8 -262144 -1
-1;
#X obj 839 211 sel 49;
#X msg 38 324 \; add-rect \$1 475 2 \$2 \;;
#X msg 209 326 \; add-rect \$1 375 2 \$2 \;;
#X msg 574 328 \; add-rect \$1 175 2 \$2 \;;
#X msg 753 329 \; add-rect \$1 75 2 \$2 \;;
#X obj 92 296 * 40;
#X obj 263 297 / 1.5;
#X obj 441 298 * 40;
#X obj 629 299 / 1.5;
#X obj 807 300 * 40;
#X obj 124 207 sel 39;
#X obj 92 242 tabread table1;
#X obj 264 243 tabread table2;
#X obj 441 244 tabread table3;
#X obj 629 245 tabread table4;
#X obj 807 246 tabread table5;
#X connect 1 0 3 0;
#X connect 2 0 1 0;
#X connect 2 1 4 0;
#X connect 3 0 5 0;
#X connect 3 0 7 0;
#X connect 4 0 3 1;
#X connect 5 0 3 1;
#X connect 5 0 67 0;
#X connect 7 0 8 0;
#X connect 7 1 68 0;
#X connect 8 0 9 0;
#X connect 9 0 58 0;
#X connect 11 0 2 0;
#X connect 12 0 14 0;
#X connect 13 0 12 0;
#X connect 13 1 15 0;
#X connect 14 0 16 0;
#X connect 14 0 17 0;
#X connect 15 0 14 1;
#X connect 16 0 14 1;
#X connect 16 0 21 0;
#X connect 17 0 18 0;
#X connect 17 1 69 0;
#X connect 18 0 19 0;
#X connect 19 0 59 0;
#X connect 20 0 13 0;
#X connect 21 0 12 1;
#X connect 27 0 29 0;
#X connect 28 0 27 0;
#X connect 28 1 30 0;
#X connect 29 0 31 0;
#X connect 29 0 32 0;
#X connect 30 0 29 1;
#X connect 31 0 29 1;
#X connect 31 0 36 0;
#X connect 32 0 33 0;
#X connect 32 1 70 0;
#X connect 33 0 34 0;
#X connect 34 0 37 0;
#X connect 35 0 28 0;
#X connect 36 0 27 1;
#X connect 38 0 40 0;
#X connect 39 0 38 0;
#X connect 39 1 41 0;
#X connect 40 0 42 0;
#X connect 40 0 43 0;
#X connect 41 0 40 1;
#X connect 42 0 40 1;
#X connect 42 0 47 0;
#X connect 43 0 44 0;
#X connect 43 1 71 0;
#X connect 44 0 45 0;
#X connect 45 0 60 0;
#X connect 46 0 39 0;
#X connect 47 0 38 1;
#X connect 48 0 50 0;
#X connect 49 0 48 0;
#X connect 49 1 51 0;
#X connect 50 0 52 0;
#X connect 50 0 53 0;
#X connect 51 0 50 1;
#X connect 52 0 50 1;
#X connect 52 0 57 0;
#X connect 53 0 54 0;
#X connect 53 1 72 0;
#X connect 54 0 55 0;
#X connect 55 0 61 0;
#X connect 56 0 49 0;
#X connect 57 0 48 1;
#X connect 62 0 9 1;
#X connect 63 0 19 1;
#X connect 64 0 34 1;
#X connect 65 0 45 1;
#X connect 66 0 55 1;
#X connect 67 0 1 1;
#X connect 68 0 62 0;
#X connect 69 0 63 0;
#X connect 70 0 64 0;
#X connect 71 0 65 0;
#X connect 72 0 66 0;
#X restore 288 62 pd buildit;
#N canvas 44 163 371 579 fig 0;
#X scalar haxis 13 511 300 297 \;;
#X scalar vaxis 38 466 90 87 \;;
#X scalar haxis 13 411 300 297 \;;
#X scalar vaxis 38 366 90 87 \;;
#X scalar haxis 13 311 300 297 \;;
#X scalar vaxis 38 266 90 87 \;;
#X scalar haxis 13 211 300 297 \;;
#X scalar vaxis 38 166 90 87 \;;
#X scalar haxis 13 111 300 297 \;;
#X scalar vaxis 38 66 90 87 \;;
#X scalar rect 38 511 2 31.4286 \;;
#X scalar rect 43 511 2 28 \;;
#X scalar rect 48 511 2 25.7143 \;;
#X scalar rect 53 511 2 22.2857 \;;
#X scalar rect 58 511 2 20 \;;
#X scalar rect 63 511 2 17.1428 \;;
#X scalar rect 68 511 2 14.2857 \;;
#X scalar rect 73 511 2 11.4286 \;;
#X scalar rect 78 511 2 9.14284 \;;
#X scalar rect 83 511 2 6.28572 \;;
#X scalar rect 88 511 2 4.57144 \;;
#X scalar rect 93 511 2 1.14286 \;;
#X scalar rect 98 511 2 -2.85714 \;;
#X scalar rect 103 511 2 -6.28572 \;;
#X scalar rect 108 511 2 -9.14284 \;;
#X scalar rect 113 511 2 -12 \;;
#X scalar rect 118 511 2 -14.8571 \;;
#X scalar rect 123 511 2 -17.7143 \;;
#X scalar rect 128 511 2 -19.4286 \;;
#X scalar rect 133 511 2 -21.7143 \;;
#X scalar rect 138 511 2 -20 \;;
#X scalar rect 143 511 2 -17.7143 \;;
#X scalar rect 148 511 2 -16 \;;
#X scalar rect 153 511 2 -14.2857 \;;
#X scalar rect 158 511 2 -12.5714 \;;
#X scalar rect 163 511 2 -10.8571 \;;
#X scalar rect 168 511 2 -8.5714 \;;
#X scalar rect 173 511 2 -7.42856 \;;
#X scalar rect 178 511 2 -5.14284 \;;
#X scalar rect 183 511 2 -4.5714 \;;
#X scalar rect 188 511 2 -9.14284 \;;
#X scalar rect 193 511 2 -12.5714 \;;
#X scalar rect 198 511 2 -15.4286 \;;
#X scalar rect 203 511 2 -18.2857 \;;
#X scalar rect 208 511 2 -21.1428 \;;
#X scalar rect 213 511 2 -24 \;;
#X scalar rect 218 511 2 -26.2857 \;;
#X scalar rect 223 511 2 -28.5714 \;;
#X scalar rect 228 511 2 -32 \;;
#X scalar rect 38 411 2 0 \;;
#X scalar rect 43 411 2 1.33333 \;;
#X scalar rect 48 411 2 2.66667 \;;
#X scalar rect 53 411 2 4 \;;
#X scalar rect 58 411 2 5.33333 \;;
#X scalar rect 63 411 2 6.66667 \;;
#X scalar rect 68 411 2 8 \;;
#X scalar rect 73 411 2 9.33333 \;;
#X scalar rect 78 411 2 10.6667 \;;
#X scalar rect 83 411 2 12 \;;
#X scalar rect 88 411 2 13.3333 \;;
#X scalar rect 93 411 2 14.6667 \;;
#X scalar rect 98 411 2 16 \;;
#X scalar rect 103 411 2 17.3333 \;;
#X scalar rect 108 411 2 18.6667 \;;
#X scalar rect 113 411 2 20 \;;
#X scalar rect 118 411 2 21.3333 \;;
#X scalar rect 123 411 2 22.6667 \;;
#X scalar rect 128 411 2 24 \;;
#X scalar rect 133 411 2 25.3333 \;;
#X scalar rect 138 411 2 0 \;;
#X scalar rect 143 411 2 1.33333 \;;
#X scalar rect 148 411 2 2.66667 \;;
#X scalar rect 153 411 2 4 \;;
#X scalar rect 158 411 2 5.33333 \;;
#X scalar rect 163 411 2 6.66667 \;;
#X scalar rect 168 411 2 8 \;;
#X scalar rect 173 411 2 9.33333 \;;
#X scalar rect 178 411 2 10.6667 \;;
#X scalar rect 183 411 2 12 \;;
#X scalar rect 188 411 2 13.3333 \;;
#X scalar rect 193 411 2 14.6667 \;;
#X scalar rect 198 411 2 16 \;;
#X scalar rect 203 411 2 17.3333 \;;
#X scalar rect 208 411 2 18.6667 \;;
#X scalar rect 213 411 2 20 \;;
#X scalar rect 218 411 2 21.3333 \;;
#X scalar rect 223 411 2 22.6667 \;;
#X scalar rect 228 411 2 24 \;;
#X scalar rect 233 411 2 25.3333 \;;
#X scalar rect 238 411 2 0 \;;
#X scalar rect 243 411 2 1.33333 \;;
#X scalar rect 248 411 2 2.66666 \;;
#X scalar rect 253 411 2 4 \;;
#X scalar rect 258 411 2 5.33333 \;;
#X scalar rect 263 411 2 6.66667 \;;
#X scalar rect 268 411 2 8 \;;
#X scalar rect 273 411 2 9.33333 \;;
#X scalar rect 278 411 2 10.6667 \;;
#X scalar rect 38 311 2 28 \;;
#X scalar rect 43 311 2 25.7143 \;;
#X scalar rect 48 311 2 20 \;;
#X scalar rect 53 311 2 14.2857 \;;
#X scalar rect 58 311 2 9.14284 \;;
#X scalar rect 63 311 2 4.57144 \;;
#X scalar rect 68 311 2 -2.85714 \;;
#X scalar rect 73 311 2 -9.14284 \;;
#X scalar rect 78 311 2 -14.8571 \;;
#X scalar rect 83 311 2 -19.4286 \;;
#X scalar rect 88 311 2 -20 \;;
#X scalar rect 93 311 2 -16 \;;
#X scalar rect 98 311 2 -12.5714 \;;
#X scalar rect 103 311 2 -8.5714 \;;
#X scalar rect 108 311 2 -5.14284 \;;
#X scalar rect 113 311 2 -9.14284 \;;
#X scalar rect 118 311 2 -15.4285 \;;
#X scalar rect 123 311 2 -21.1428 \;;
#X scalar rect 128 311 2 -26.2857 \;;
#X scalar rect 133 311 2 -32 \;;
#X scalar rect 138 311 2 28 \;;
#X scalar rect 143 311 2 25.7143 \;;
#X scalar rect 148 311 2 20 \;;
#X scalar rect 153 311 2 14.2857 \;;
#X scalar rect 158 311 2 9.14284 \;;
#X scalar rect 163 311 2 4.57144 \;;
#X scalar rect 168 311 2 -2.85713 \;;
#X scalar rect 173 311 2 -9.14284 \;;
#X scalar rect 178 311 2 -14.8571 \;;
#X scalar rect 183 311 2 -19.4286 \;;
#X scalar rect 188 311 2 -20 \;;
#X scalar rect 193 311 2 -16 \;;
#X scalar rect 198 311 2 -12.5714 \;;
#X scalar rect 203 311 2 -8.5714 \;;
#X scalar rect 208 311 2 -5.14284 \;;
#X scalar rect 213 311 2 -9.14284 \;;
#X scalar rect 218 311 2 -15.4286 \;;
#X scalar rect 223 311 2 -21.1428 \;;
#X scalar rect 228 311 2 -26.2857 \;;
#X scalar rect 233 311 2 -32 \;;
#X scalar rect 238 311 2 28 \;;
#X scalar rect 243 311 2 25.7143 \;;
#X scalar rect 248 311 2 20 \;;
#X scalar rect 253 311 2 14.2857 \;;
#X scalar rect 258 311 2 9.14284 \;;
#X scalar rect 263 311 2 4.57144 \;;
#X scalar rect 268 311 2 -2.85713 \;;
#X scalar rect 273 311 2 -9.14284 \;;
#X scalar rect 278 311 2 -14.8571 \;;
#X scalar rect 38 211 2 0 \;;
#X scalar rect 43 211 2 1.06667 \;;
#X scalar rect 48 211 2 2.13333 \;;
#X scalar rect 53 211 2 3.2 \;;
#X scalar rect 58 211 2 4.26667 \;;
#X scalar rect 63 211 2 5.33333 \;;
#X scalar rect 68 211 2 6.4 \;;
#X scalar rect 73 211 2 7.46667 \;;
#X scalar rect 78 211 2 8.53333 \;;
#X scalar rect 83 211 2 9.6 \;;
#X scalar rect 88 211 2 10.6667 \;;
#X scalar rect 93 211 2 11.7333 \;;
#X scalar rect 98 211 2 12.8 \;;
#X scalar rect 103 211 2 13.8667 \;;
#X scalar rect 108 211 2 14.9333 \;;
#X scalar rect 113 211 2 16 \;;
#X scalar rect 118 211 2 17.0667 \;;
#X scalar rect 123 211 2 18.1333 \;;
#X scalar rect 128 211 2 19.2 \;;
#X scalar rect 133 211 2 20.2667 \;;
#X scalar rect 138 211 2 21.3333 \;;
#X scalar rect 143 211 2 22.4 \;;
#X scalar rect 148 211 2 23.4667 \;;
#X scalar rect 153 211 2 24.5333 \;;
#X scalar rect 158 211 2 25.6 \;;
#X scalar rect 163 211 2 26.6667 \;;
#X scalar rect 168 211 2 26.6667 \;;
#X scalar rect 173 211 2 26.6667 \;;
#X scalar rect 178 211 2 26.6667 \;;
#X scalar rect 183 211 2 26.6667 \;;
#X scalar rect 188 211 2 26.6667 \;;
#X scalar rect 193 211 2 26.6667 \;;
#X scalar rect 198 211 2 26.6667 \;;
#X scalar rect 203 211 2 26.6667 \;;
#X scalar rect 208 211 2 26.6667 \;;
#X scalar rect 213 211 2 26.6667 \;;
#X scalar rect 218 211 2 26.6667 \;;
#X scalar rect 223 211 2 26.1224 \;;
#X scalar rect 228 211 2 23.9456 \;;
#X scalar rect 233 211 2 21.7687 \;;
#X scalar rect 238 211 2 19.5918 \;;
#X scalar rect 243 211 2 17.415 \;;
#X scalar rect 248 211 2 15.2381 \;;
#X scalar rect 253 211 2 13.0612 \;;
#X scalar rect 258 211 2 10.8844 \;;
#X scalar rect 263 211 2 8.70749 \;;
#X scalar rect 268 211 2 6.53061 \;;
#X scalar rect 273 211 2 4.35374 \;;
#X scalar rect 278 211 2 2.17687 \;;
#X scalar rect 38 111 2 28 \;;
#X scalar rect 43 111 2 26.656 \;;
#X scalar rect 48 111 2 21.7646 \;;
#X scalar rect 53 111 2 17.7234 \;;
#X scalar rect 58 111 2 13.1154 \;;
#X scalar rect 63 111 2 9.14284 \;;
#X scalar rect 68 111 2 5.32572 \;;
#X scalar rect 73 111 2 0.370287 \;;
#X scalar rect 78 111 2 -5.64572 \;;
#X scalar rect 83 111 2 -10.2857 \;;
#X scalar rect 88 111 2 -14.8571 \;;
#X scalar rect 93 111 2 -18.7566 \;;
#X scalar rect 98 111 2 -21.6366 \;;
#X scalar rect 103 111 2 -18.144 \;;
#X scalar rect 108 111 2 -15.3143 \;;
#X scalar rect 113 111 2 -12.5714 \;;
#X scalar rect 118 111 2 -9.43084 \;;
#X scalar rect 123 111 2 -7.01712 \;;
#X scalar rect 128 111 2 -4.32912 \;;
#X scalar rect 133 111 2 -10.624 \;;
#X scalar rect 138 111 2 -15.4286 \;;
#X scalar rect 143 111 2 -20 \;;
#X scalar rect 148 111 2 -24.4937 \;;
#X scalar rect 153 111 2 -28.0411 \;;
#X scalar rect 158 111 2 -32 \;;
#X scalar rect 163 111 2 -32 \;;
#X scalar rect 168 111 2 -32 \;;
#X scalar rect 173 111 2 -32 \;;
#X scalar rect 178 111 2 -32 \;;
#X scalar rect 183 111 2 -32 \;;
#X scalar rect 188 111 2 -32 \;;
#X scalar rect 193 111 2 -32 \;;
#X scalar rect 198 111 2 -32 \;;
#X scalar rect 203 111 2 -32 \;;
#X scalar rect 208 111 2 -32 \;;
#X scalar rect 213 111 2 -32 \;;
#X scalar rect 218 111 2 -32 \;;
#X scalar rect 223 111 2 -32 \;;
#X scalar rect 228 111 2 -26.1008 \;;
#X scalar rect 233 111 2 -17.2944 \;;
#X scalar rect 238 111 2 -6.02284 \;;
#X scalar rect 243 111 2 -8.38512 \;;
#X scalar rect 248 111 2 -14.5306 \;;
#X scalar rect 253 111 2 -20.9377 \;;
#X scalar rect 258 111 2 -15.8311 \;;
#X scalar rect 263 111 2 -6.47608 \;;
#X scalar rect 268 111 2 5.01316 \;;
#X scalar rect 273 111 2 12.7319 \;;
#X scalar rect 278 111 2 21.6122 \;;
#X text 27 30 1;
#X text 20 90 -1;
#X text 314 68 n;
#X text 40 70 0;
#X text 62 29 x[n];
#X text 236 71 40;
#X text 276 172 50;
#X text 27 155 0;
#X text 20 131 40;
#X text 26 231 1;
#X text 19 291 -1;
#X text 26 430 1;
#X text 19 490 -1;
#X text 27 354 0;
#X text 20 330 40;
#X text 56 134 y[n];
#X text 54 228 z[n];
#X text 62 332 y2[n];
#X text 60 431 z2[n];
#X text 338 61 (a);
#X text 337 159 (b);
#X text 332 261 (c);
#X text 331 357 (d);
#X text 330 462 (e);
#X coords 0 579 1 578 0 0 0;
#X restore 51 61 pd fig;
#N canvas 534 0 457 928 labels 0;
#X text 27 30 1;
#X text 20 90 -1;
#X text 314 68 n;
#X text 40 70 0;
#X text 62 29 x[n];
#X text 236 71 40;
#X text 276 172 50;
#X text 27 155 0;
#X text 20 131 40;
#X text 26 231 1;
#X text 19 291 -1;
#X text 26 430 1;
#X text 19 490 -1;
#X text 27 354 0;
#X text 20 330 40;
#X text 56 134 y[n];
#X text 54 228 z[n];
#X text 62 332 y2[n];
#X text 60 431 z2[n];
#X text 338 61 (a);
#X text 337 159 (b);
#X text 332 261 (c);
#X text 331 357 (d);
#X text 330 462 (e);
#X coords 0 928 1 927 0 0 0;
#X restore 291 109 pd labels;
#N canvas 394 229 907 586 tables 0;
#N canvas 0 0 450 300 graph1 0;
#X array table1 40 float 1;
#A 0 0.785714 0.699999 0.642857 0.557142 0.5 0.428571 0.357143 0.285714
0.228571 0.157143 0.114286 0.0285714 -0.0714285 -0.157143 -0.228571
-0.3 -0.371428 -0.442857 -0.485714 -0.542857 -0.5 -0.442857 -0.4 -0.357142
-0.314285 -0.271428 -0.214285 -0.185714 -0.128571 -0.114285 -0.228571
-0.314285 -0.385714 -0.457142 -0.528571 -0.599999 -0.657142 -0.714285
-0.799999 -0.885713;
#X coords 0 1 39 -1 200 140 1;
#X restore 100 20 graph;
#N canvas 0 0 450 300 graph2 0;
#X array table2 50 float 1;
#A 0 0 2 4 6 8 10 12 14 16 18 20 22 24 26 28 30 32 34 36 38 0 2 4 6
8 10 12 14 16 18 20 22 24 26 28 30 32 34 36 38 0 2 4 6 8 10 12 14 16
18;
#X coords 0 50 49 0 200 140 1;
#X restore 102 169 graph;
#N canvas 0 0 450 300 graph2 0;
#X array table3 50 float 1;
#A 0 0.699999 0.642857 0.5 0.357143 0.228571 0.114286 -0.0714284 -0.228571
-0.371428 -0.485714 -0.5 -0.4 -0.314285 -0.214285 -0.128571 -0.228571
-0.385713 -0.528571 -0.657142 -0.799999 0.699999 0.642857 0.5 0.357143
0.228571 0.114286 -0.0714283 -0.228571 -0.371428 -0.485714 -0.5 -0.4
-0.314285 -0.214285 -0.128571 -0.228571 -0.385714 -0.528571 -0.657142
-0.799999 0.699999 0.642857 0.5 0.357142 0.228571 0.114286 -0.0714283
-0.228571 -0.371428 -0.485714;
#X coords 0 1 49 -1 200 140 1;
#X restore 356 173 graph;
#N canvas 0 0 450 300 graph2 0;
#X array table4 50 float 1;
#A 0 0 1.6 3.2 4.8 6.4 8 9.6 11.2 12.8 14.4 16 17.6 19.2 20.8 22.4
24 25.6 27.2 28.8 30.4 32 33.6 35.2 36.8 38.4 40 40 40 40 40 40 40
40 40 40 40 40 39.1837 35.9184 32.6531 29.3878 26.1224 22.8571 19.5918
16.3265 13.0612 9.79591 6.53061 3.2653 0;
#X coords 0 50 49 0 200 140 1;
#X restore 103 351 graph;
#N canvas 0 0 450 300 graph2 0;
#X array table5 50 float 1;
#A 0 0.699999 0.666399 0.544114 0.443085 0.327885 0.228571 0.133143
0.00925718 -0.141143 -0.257143 -0.371428 -0.468914 -0.540914 -0.4536
-0.382857 -0.314285 -0.235771 -0.175428 -0.108228 -0.265599 -0.385714
-0.499999 -0.612342 -0.701027 -0.799999 -0.799999 -0.799999 -0.799999
-0.799999 -0.799999 -0.799999 -0.799999 -0.799999 -0.799999 -0.799999
-0.799999 -0.799999 -0.799999 -0.652521 -0.432361 -0.150571 -0.209628
-0.363265 -0.523443 -0.395778 -0.161902 0.125329 0.318298 0.540306
0.699999;
#X coords 0 1 49 -1 200 140 1;
#X restore 357 355 graph;
#X obj 653 103 until;
#X obj 655 78 t b b;
#X obj 656 133 f;
#X msg 707 94 0;
#X obj 742 114 + 1;
#X obj 742 137 sel 50;
#X obj 679 158 t f f;
#X obj 655 55 bng 15 250 50 0 empty empty empty 0 -6 0 8 -262144 -1
-1;
#X obj 681 311 tabwrite table2;
#X obj 676 187 / 50;
#X obj 677 215 * 2.5;
#X obj 679 243 t f f;
#X obj 722 242 i;
#X obj 680 268 -;
#X obj 678 348 t f f f f;
#X obj 670 401 + 1;
#X obj 622 449 min;
#X msg 716 436 1;
#X obj 626 476 min;
#X obj 665 551 tabwrite table4;
#X obj 625 419 * 4;
#X obj 670 423 * 4;
#X obj 666 381 / -49;
#X obj 351 49 tabplay~ table2;
#X obj 351 75 tabread4~ table1;
#X obj 338 25 bng 15 250 50 0 empty empty empty 0 -6 0 8 -262144 -1
-1;
#X obj 499 77 tabread4~ table1;
#X obj 486 27 bng 15 250 50 0 empty empty empty 0 -6 0 8 -262144 -1
-1;
#X obj 499 51 tabplay~ table4;
#X obj 340 104 tabwrite~ table3;
#X obj 488 106 tabwrite~ table5;
#X obj 627 378 / 100;
#X obj 681 289 * 40;
#X obj 663 523 * 40;
#X obj 807 276 pack;
#X obj 810 300 print;
#X connect 5 0 7 0;
#X connect 6 0 5 0;
#X connect 6 1 8 0;
#X connect 7 0 9 0;
#X connect 7 0 11 0;
#X connect 7 0 19 0;
#X connect 8 0 7 1;
#X connect 9 0 10 0;
#X connect 9 0 7 1;
#X connect 10 0 5 1;
#X connect 11 0 14 0;
#X connect 11 1 13 1;
#X connect 11 1 39 1;
#X connect 12 0 6 0;
#X connect 14 0 15 0;
#X connect 15 0 16 0;
#X connect 16 0 18 0;
#X connect 16 1 17 0;
#X connect 17 0 18 1;
#X connect 18 0 37 0;
#X connect 19 0 36 0;
#X connect 19 1 27 0;
#X connect 19 2 22 0;
#X connect 19 3 24 1;
#X connect 20 0 26 0;
#X connect 21 0 23 0;
#X connect 22 0 23 1;
#X connect 23 0 38 0;
#X connect 25 0 21 0;
#X connect 26 0 21 1;
#X connect 27 0 20 0;
#X connect 28 0 29 0;
#X connect 29 0 34 0;
#X connect 30 0 28 0;
#X connect 30 0 34 0;
#X connect 31 0 35 0;
#X connect 32 0 33 0;
#X connect 32 0 35 0;
#X connect 33 0 31 0;
#X connect 36 0 25 0;
#X connect 37 0 13 0;
#X connect 37 0 39 0;
#X connect 38 0 24 0;
#X connect 39 0 40 0;
#X restore 288 85 pd tables;
