#N struct frame float x float y float w float h;
#N struct y-plot float x float y float w array z y-point;
#N struct y-point float y;
#N struct d-arrow float x float y float z;
#N struct l-arrow float x float y float z;
#N struct haxis float x float y float w float w-3;
#N struct vaxis float x float y float h float h-3;
#N struct rect float x float y float w float h;
#N struct r-curve-arrow float x float y float z float z2 float z3 float
h;
#N struct plus float x float y;
#N struct xy-curve float x float y float w array z xy-point;
#N struct xy-point float x float y;
#N struct seg float x float y float dx float dy float w;
#N struct l-curve-arrow float x float y float z float z2 float z3 float
h;
#N struct circle2 float x float y float h float h2 float mh float mh2
;
#N struct xy-plot float x float y float w array z xy-point;
#N struct d-curve-arrow float x float y float z float z2 float z3 float
h;
#N struct circle float x float y float color float h float h2;
#N struct u-curve-arrow float x float y float z float z2 float z3 float
h;
#N struct r-arrow float x float y float z;
#N struct u-arrow float x float y float z;
#N struct v-seg float x float y float z float w;
#N struct h-seg float x float y float z float w;
#N struct thickcircle float x float y float color float h float h2
;
#N struct divide float x float y;
#N struct minus float x float y;
#N struct times float x float y;
#N canvas 661 100 349 191 10;
#N canvas 350 244 467 318 fig 1;
#X scalar frame 18 211 60 60 \;;
#X scalar y-plot 23 216 1 \; 0 \; 2.25 \; 4.5 \; 6.75 \; 9 \; 11.25
\; 13.5 \; 15.75 \; 18 \; 20.25 \; 22.5 \; 24.75 \; 27 \; 29.25 \;
31.5 \; 33.75 \; 36 \; 38.25 \; 40.5 \; 42.75 \; 0 \; 2.25 \; 4.5 \;
6.75 \; 9 \; 11.25 \; 13.5 \; 15.75 \; 18 \; 20.25 \; 22.5 \; 24.75
\; 27 \; 29.25 \; 31.5 \; 33.75 \; 36 \; 38.25 \; 40.5 \; 42.75 \;
0 \; 2.25 \; 4.5 \; 6.75 \; 9 \; 11.25 \; 13.5 \; 15.75 \; 18 \; 20.25
\; \;;
#X text 5 93 0;
#X scalar d-arrow 47 272 13 \;;
#X scalar d-arrow 47 74 32 \;;
#X text 35 246 OUT;
#X text 13 13 frequency;
#X scalar d-arrow 47 173 38 \;;
#X text 4 46 1;
#X scalar l-arrow 58 162 18 \;;
#X scalar d-arrow 47 125 27 \;;
#X scalar haxis 152 220 300 297 \;;
#X scalar vaxis 177 205 90 87 \;;
#X scalar rect 177 220 2 0 \;;
#X scalar rect 182 220 2 2 \;;
#X scalar rect 187 220 2 4 \;;
#X scalar rect 192 220 2 6 \;;
#X scalar rect 197 220 2 8 \;;
#X scalar rect 202 220 2 10 \;;
#X scalar rect 207 220 2 12 \;;
#X scalar rect 212 220 2 14 \;;
#X scalar rect 217 220 2 16 \;;
#X scalar rect 222 220 2 18 \;;
#X scalar rect 227 220 2 20 \;;
#X scalar rect 232 220 2 22 \;;
#X scalar rect 237 220 2 24 \;;
#X scalar rect 242 220 2 26 \;;
#X scalar rect 247 220 2 28 \;;
#X scalar rect 252 220 2 30 \;;
#X scalar rect 257 220 2 32 \;;
#X scalar rect 262 220 2 34 \;;
#X scalar rect 267 220 2 36 \;;
#X scalar rect 272 220 2 38 \;;
#X scalar rect 277 220 2 0 \;;
#X scalar rect 282 220 2 2 \;;
#X scalar rect 287 220 2 4 \;;
#X scalar rect 292 220 2 6 \;;
#X scalar rect 297 220 2 8 \;;
#X scalar rect 302 220 2 10 \;;
#X scalar rect 307 220 2 12 \;;
#X scalar rect 312 220 2 14 \;;
#X scalar rect 317 220 2 16 \;;
#X scalar rect 322 220 2 18 \;;
#X scalar rect 327 220 2 20 \;;
#X scalar rect 332 220 2 22 \;;
#X scalar rect 337 220 2 24 \;;
#X scalar rect 342 220 2 26 \;;
#X scalar rect 347 220 2 28 \;;
#X scalar rect 352 220 2 30 \;;
#X scalar rect 357 220 2 32 \;;
#X scalar rect 362 220 2 34 \;;
#X scalar rect 367 220 2 36 \;;
#X scalar rect 372 220 2 38 \;;
#X scalar rect 377 220 2 0 \;;
#X scalar rect 382 220 2 2 \;;
#X scalar rect 387 220 2 4 \;;
#X scalar rect 392 220 2 6 \;;
#X scalar rect 397 220 2 8 \;;
#X scalar rect 402 220 2 10 \;;
#X scalar rect 407 220 2 12 \;;
#X scalar rect 412 220 2 14 \;;
#X scalar rect 417 220 2 16 \;;
#X scalar haxis 152 120 300 297 \;;
#X scalar vaxis 177 105 90 87 \;;
#X scalar rect 177 120 2 12 \;;
#X scalar rect 182 120 2 14 \;;
#X scalar rect 187 120 2 16 \;;
#X scalar rect 192 120 2 18 \;;
#X scalar rect 197 120 2 20 \;;
#X scalar rect 202 120 2 22 \;;
#X scalar rect 207 120 2 24 \;;
#X scalar rect 212 120 2 26 \;;
#X scalar rect 217 120 2 28 \;;
#X scalar rect 222 120 2 30 \;;
#X scalar rect 227 120 2 32 \;;
#X scalar rect 232 120 2 34 \;;
#X scalar rect 237 120 2 36 \;;
#X scalar rect 242 120 2 38 \;;
#X scalar rect 247 120 2 40 \;;
#X scalar rect 252 120 2 42 \;;
#X scalar rect 257 120 2 44 \;;
#X scalar rect 262 120 2 46 \;;
#X scalar rect 267 120 2 48 \;;
#X scalar rect 272 120 2 50 \;;
#X scalar rect 277 120 2 12 \;;
#X scalar rect 282 120 2 14 \;;
#X scalar rect 287 120 2 16 \;;
#X scalar rect 292 120 2 18 \;;
#X scalar rect 297 120 2 20 \;;
#X scalar rect 302 120 2 22 \;;
#X scalar rect 307 120 2 24 \;;
#X scalar rect 312 120 2 26 \;;
#X scalar rect 317 120 2 28 \;;
#X scalar rect 322 120 2 30 \;;
#X scalar rect 327 120 2 32 \;;
#X scalar rect 332 120 2 34 \;;
#X scalar rect 337 120 2 36 \;;
#X scalar rect 342 120 2 38 \;;
#X scalar rect 347 120 2 40 \;;
#X scalar rect 352 120 2 42 \;;
#X scalar rect 357 120 2 44 \;;
#X scalar rect 362 120 2 46 \;;
#X scalar rect 367 120 2 48 \;;
#X scalar rect 372 120 2 50 \;;
#X scalar rect 377 120 2 12 \;;
#X scalar rect 382 120 2 14 \;;
#X scalar rect 387 120 2 16 \;;
#X scalar rect 392 120 2 18 \;;
#X scalar rect 397 120 2 20 \;;
#X scalar rect 402 120 2 22 \;;
#X scalar rect 407 120 2 24 \;;
#X scalar rect 412 120 2 26 \;;
#X scalar rect 417 120 2 28 \;;
#X scalar haxis 152 20 300 297 \;;
#X scalar vaxis 177 5 90 87 \;;
#X scalar rect 177 20 2 12 \;;
#X scalar rect 182 20 2 14 \;;
#X scalar rect 187 20 2 16 \;;
#X scalar rect 192 20 2 18 \;;
#X scalar rect 197 20 2 20 \;;
#X scalar rect 202 20 2 22 \;;
#X scalar rect 207 20 2 24 \;;
#X scalar rect 212 20 2 26 \;;
#X scalar rect 217 20 2 28 \;;
#X scalar rect 222 20 2 30 \;;
#X scalar rect 227 20 2 32 \;;
#X scalar rect 232 20 2 34 \;;
#X scalar rect 237 20 2 36 \;;
#X scalar rect 242 20 2 38 \;;
#X scalar rect 247 20 2 0 \;;
#X scalar rect 252 20 2 2 \;;
#X scalar rect 257 20 2 4 \;;
#X scalar rect 262 20 2 6 \;;
#X scalar rect 267 20 2 8 \;;
#X scalar rect 272 20 2 10 \;;
#X scalar rect 277 20 2 12 \;;
#X scalar rect 282 20 2 14 \;;
#X scalar rect 287 20 2 16 \;;
#X scalar rect 292 20 2 18 \;;
#X scalar rect 297 20 2 20 \;;
#X scalar rect 302 20 2 22 \;;
#X scalar rect 307 20 2 24 \;;
#X scalar rect 312 20 2 26 \;;
#X scalar rect 317 20 2 28 \;;
#X scalar rect 322 20 2 30 \;;
#X scalar rect 327 20 2 32 \;;
#X scalar rect 332 20 2 34 \;;
#X scalar rect 337 20 2 36 \;;
#X scalar rect 342 20 2 38 \;;
#X scalar rect 347 20 2 0 \;;
#X scalar rect 352 20 2 2 \;;
#X scalar rect 357 20 2 4 \;;
#X scalar rect 362 20 2 6 \;;
#X scalar rect 367 20 2 8 \;;
#X scalar rect 372 20 2 10 \;;
#X scalar rect 377 20 2 12 \;;
#X scalar rect 382 20 2 14 \;;
#X scalar rect 387 20 2 16 \;;
#X scalar rect 392 20 2 18 \;;
#X scalar rect 397 20 2 20 \;;
#X scalar rect 402 20 2 22 \;;
#X scalar rect 407 20 2 24 \;;
#X scalar rect 412 20 2 26 \;;
#X scalar rect 417 20 2 28 \;;
#X text 80 149 a;
#X scalar frame 30 106 35 19 \;;
#X text 33 195 WRAP;
#X scalar r-curve-arrow 158 231 -54 -58 -102 -41 \;;
#X scalar r-curve-arrow 160 149 -40 -58 -100 -14 \;;
#X scalar r-curve-arrow 145 53 -40 -58 -89 41 \;;
#X text 164 52 1;
#X text 150 178 0.3;
#X text 150 140 1.3;
#X text 164 256 1;
#X text 151 278 0.3;
#X scalar frame 37 153 20 19 \;;
#X scalar plus 42 157 \;;
#X coords 0 318 1 317 0 0 0;
#X restore 57 26 pd fig;
#N canvas 562 93 841 424 buildit 0;
#X obj 183 158 until;
#X obj 185 133 t b b;
#X obj 186 188 f;
#X msg 237 149 0;
#X obj 272 169 + 1;
#X obj 186 227 t f f;
#X obj 185 295 expr 75 + 5 * $f1;
#X obj 185 321 pack;
#X obj 185 110 bng 15 250 50 0 empty empty empty 0 -6 0 8 -262144 -1
-1;
#X obj 272 192 sel 49;
#X obj 361 159 until;
#X obj 363 134 t b b;
#X obj 364 189 f;
#X msg 415 150 0;
#X obj 450 170 + 1;
#X obj 364 228 t f f;
#X obj 364 289 expr 75 + 5 * $f1;
#X obj 364 315 pack;
#X obj 363 111 bng 15 250 50 0 empty empty empty 0 -6 0 8 -262144 -1
-1;
#X obj 450 193 sel 49;
#X obj 418 318 * 40;
#X msg 23 17 \; pd-tmp clear;
#X msg 24 62 \; start pd-tmp \;;
#X obj 571 163 until;
#X obj 573 138 t b b;
#X obj 574 193 f;
#X msg 625 154 0;
#X obj 660 174 + 1;
#X obj 574 232 t f f;
#X obj 576 298 expr 75 + 5 * $f1;
#X obj 576 324 pack;
#X obj 573 115 bng 15 250 50 0 empty empty empty 0 -6 0 8 -262144 -1
-1;
#X obj 660 197 sel 49;
#X msg 576 355 \; add-rect \$1 75 2 \$2 \;;
#X obj 630 327 * 40;
#X obj 200 259 expr $f1 - int($f1);
#X obj 377 262 expr 0.3 + $f1 - int($f1);
#X obj 592 265 expr 0.3 + $f1 - int(0.3 + $f1);
#X msg 184 352 \; add-rect \$1 275 2 \$2 \;;
#X msg 364 346 \; add-rect \$1 175 2 \$2 \;;
#X msg 151 37 \; add-haxis 50 275 300 297 \; add-vaxis 75 260 90 87
;
#X msg 357 39 \; add-haxis 50 175 300 297 \; add-vaxis 75 160 90 87
;
#X msg 577 41 \; add-haxis 50 75 300 297 \; add-vaxis 75 60 90 87;
#X obj 240 322 * 40;
#X obj 240 227 / 20;
#X obj 418 229 / 20;
#X obj 627 233 / 20;
#X connect 0 0 2 0;
#X connect 1 0 0 0;
#X connect 1 1 3 0;
#X connect 2 0 4 0;
#X connect 2 0 5 0;
#X connect 3 0 2 1;
#X connect 4 0 2 1;
#X connect 4 0 9 0;
#X connect 5 0 6 0;
#X connect 5 1 44 0;
#X connect 6 0 7 0;
#X connect 7 0 38 0;
#X connect 8 0 1 0;
#X connect 9 0 0 1;
#X connect 10 0 12 0;
#X connect 11 0 10 0;
#X connect 11 1 13 0;
#X connect 12 0 14 0;
#X connect 12 0 15 0;
#X connect 13 0 12 1;
#X connect 14 0 12 1;
#X connect 14 0 19 0;
#X connect 15 0 16 0;
#X connect 15 1 45 0;
#X connect 16 0 17 0;
#X connect 17 0 39 0;
#X connect 18 0 11 0;
#X connect 19 0 10 1;
#X connect 20 0 17 1;
#X connect 23 0 25 0;
#X connect 24 0 23 0;
#X connect 24 1 26 0;
#X connect 25 0 27 0;
#X connect 25 0 28 0;
#X connect 26 0 25 1;
#X connect 27 0 25 1;
#X connect 27 0 32 0;
#X connect 28 0 29 0;
#X connect 28 1 46 0;
#X connect 29 0 30 0;
#X connect 30 0 33 0;
#X connect 31 0 24 0;
#X connect 32 0 23 1;
#X connect 34 0 30 1;
#X connect 35 0 43 0;
#X connect 36 0 20 0;
#X connect 37 0 34 0;
#X connect 43 0 7 1;
#X connect 44 0 35 0;
#X connect 45 0 36 0;
#X connect 46 0 37 0;
#X restore 199 60 pd buildit;
#N canvas 139 25 640 644 tmp 0;
#X scalar haxis 329 318 300 297 \;;
#X scalar vaxis 354 303 90 87 \;;
#X scalar rect 354 318 2 0 \;;
#X scalar rect 359 318 2 2 \;;
#X scalar rect 364 318 2 4 \;;
#X scalar rect 369 318 2 6 \;;
#X scalar rect 374 318 2 8 \;;
#X scalar rect 379 318 2 10 \;;
#X scalar rect 384 318 2 12 \;;
#X scalar rect 389 318 2 14 \;;
#X scalar rect 394 318 2 16 \;;
#X scalar rect 399 318 2 18 \;;
#X scalar rect 404 318 2 20 \;;
#X scalar rect 409 318 2 22 \;;
#X scalar rect 414 318 2 24 \;;
#X scalar rect 419 318 2 26 \;;
#X scalar rect 424 318 2 28 \;;
#X scalar rect 429 318 2 30 \;;
#X scalar rect 434 318 2 32 \;;
#X scalar rect 439 318 2 34 \;;
#X scalar rect 444 318 2 36 \;;
#X scalar rect 449 318 2 38 \;;
#X scalar rect 454 318 2 0 \;;
#X scalar rect 459 318 2 2 \;;
#X scalar rect 464 318 2 4 \;;
#X scalar rect 469 318 2 6 \;;
#X scalar rect 474 318 2 8 \;;
#X scalar rect 479 318 2 10 \;;
#X scalar rect 484 318 2 12 \;;
#X scalar rect 489 318 2 14 \;;
#X scalar rect 494 318 2 16 \;;
#X scalar rect 499 318 2 18 \;;
#X scalar rect 504 318 2 20 \;;
#X scalar rect 509 318 2 22 \;;
#X scalar rect 514 318 2 24 \;;
#X scalar rect 519 318 2 26 \;;
#X scalar rect 524 318 2 28 \;;
#X scalar rect 529 318 2 30 \;;
#X scalar rect 534 318 2 32 \;;
#X scalar rect 539 318 2 34 \;;
#X scalar rect 544 318 2 36 \;;
#X scalar rect 549 318 2 38 \;;
#X scalar rect 554 318 2 0 \;;
#X scalar rect 559 318 2 2 \;;
#X scalar rect 564 318 2 4 \;;
#X scalar rect 569 318 2 6 \;;
#X scalar rect 574 318 2 8 \;;
#X scalar rect 579 318 2 10 \;;
#X scalar rect 584 318 2 12 \;;
#X scalar rect 589 318 2 14 \;;
#X scalar rect 594 318 2 16 \;;
#X scalar haxis 329 218 300 297 \;;
#X scalar vaxis 354 203 90 87 \;;
#X scalar rect 354 218 2 12 \;;
#X scalar rect 359 218 2 14 \;;
#X scalar rect 364 218 2 16 \;;
#X scalar rect 369 218 2 18 \;;
#X scalar rect 374 218 2 20 \;;
#X scalar rect 379 218 2 22 \;;
#X scalar rect 384 218 2 24 \;;
#X scalar rect 389 218 2 26 \;;
#X scalar rect 394 218 2 28 \;;
#X scalar rect 399 218 2 30 \;;
#X scalar rect 404 218 2 32 \;;
#X scalar rect 409 218 2 34 \;;
#X scalar rect 414 218 2 36 \;;
#X scalar rect 419 218 2 38 \;;
#X scalar rect 424 218 2 40 \;;
#X scalar rect 429 218 2 42 \;;
#X scalar rect 434 218 2 44 \;;
#X scalar rect 439 218 2 46 \;;
#X scalar rect 444 218 2 48 \;;
#X scalar rect 449 218 2 50 \;;
#X scalar rect 454 218 2 12 \;;
#X scalar rect 459 218 2 14 \;;
#X scalar rect 464 218 2 16 \;;
#X scalar rect 469 218 2 18 \;;
#X scalar rect 474 218 2 20 \;;
#X scalar rect 479 218 2 22 \;;
#X scalar rect 484 218 2 24 \;;
#X scalar rect 489 218 2 26 \;;
#X scalar rect 494 218 2 28 \;;
#X scalar rect 499 218 2 30 \;;
#X scalar rect 504 218 2 32 \;;
#X scalar rect 509 218 2 34 \;;
#X scalar rect 514 218 2 36 \;;
#X scalar rect 519 218 2 38 \;;
#X scalar rect 524 218 2 40 \;;
#X scalar rect 529 218 2 42 \;;
#X scalar rect 534 218 2 44 \;;
#X scalar rect 539 218 2 46 \;;
#X scalar rect 544 218 2 48 \;;
#X scalar rect 549 218 2 50 \;;
#X scalar rect 554 218 2 12 \;;
#X scalar rect 559 218 2 14 \;;
#X scalar rect 564 218 2 16 \;;
#X scalar rect 569 218 2 18 \;;
#X scalar rect 574 218 2 20 \;;
#X scalar rect 579 218 2 22 \;;
#X scalar rect 584 218 2 24 \;;
#X scalar rect 589 218 2 26 \;;
#X scalar rect 594 218 2 28 \;;
#X scalar haxis 329 118 300 297 \;;
#X scalar vaxis 354 103 90 87 \;;
#X scalar rect 354 118 2 12 \;;
#X scalar rect 359 118 2 14 \;;
#X scalar rect 364 118 2 16 \;;
#X scalar rect 369 118 2 18 \;;
#X scalar rect 374 118 2 20 \;;
#X scalar rect 379 118 2 22 \;;
#X scalar rect 384 118 2 24 \;;
#X scalar rect 389 118 2 26 \;;
#X scalar rect 394 118 2 28 \;;
#X scalar rect 399 118 2 30 \;;
#X scalar rect 404 118 2 32 \;;
#X scalar rect 409 118 2 34 \;;
#X scalar rect 414 118 2 36 \;;
#X scalar rect 419 118 2 38 \;;
#X scalar rect 424 118 2 0 \;;
#X scalar rect 429 118 2 2 \;;
#X scalar rect 434 118 2 4 \;;
#X scalar rect 439 118 2 6 \;;
#X scalar rect 444 118 2 8 \;;
#X scalar rect 449 118 2 10 \;;
#X scalar rect 454 118 2 12 \;;
#X scalar rect 459 118 2 14 \;;
#X scalar rect 464 118 2 16 \;;
#X scalar rect 469 118 2 18 \;;
#X scalar rect 474 118 2 20 \;;
#X scalar rect 479 118 2 22 \;;
#X scalar rect 484 118 2 24 \;;
#X scalar rect 489 118 2 26 \;;
#X scalar rect 494 118 2 28 \;;
#X scalar rect 499 118 2 30 \;;
#X scalar rect 504 118 2 32 \;;
#X scalar rect 509 118 2 34 \;;
#X scalar rect 514 118 2 36 \;;
#X scalar rect 519 118 2 38 \;;
#X scalar rect 524 118 2 0 \;;
#X scalar rect 529 118 2 2 \;;
#X scalar rect 534 118 2 4 \;;
#X scalar rect 539 118 2 6 \;;
#X scalar rect 544 118 2 8 \;;
#X scalar rect 549 118 2 10 \;;
#X scalar rect 554 118 2 12 \;;
#X scalar rect 559 118 2 14 \;;
#X scalar rect 564 118 2 16 \;;
#X scalar rect 569 118 2 18 \;;
#X scalar rect 574 118 2 20 \;;
#X scalar rect 579 118 2 22 \;;
#X scalar rect 584 118 2 24 \;;
#X scalar rect 589 118 2 26 \;;
#X scalar rect 594 118 2 28 \;;
#X coords 0 644 1 643 0 0 0;
#X restore 55 50 pd tmp;
#X obj 200 35 templates;
