#N canvas 110 17 405 297 10;
#X obj 22 54 fiddle~ 2048;
#X obj 74 75 unpack;
#X obj 74 96 moses 1;
#X obj 136 77 mtof;
#N canvas 414 195 613 302 looper 0;
#N canvas 0 0 450 300 (subpatch) 0;
#X array E03-table 44103 float 0;
#X coords 0 1.02 44103 -1.02 200 130 1;
#X restore 297 19 graph;
#X text 295 137 ---- 44103 samples ----;
#X obj 30 65 +~ 1;
#X obj 30 21 phasor~ 1;
#X obj 30 43 *~ 44100;
#X obj 30 90 tabread4~ E03-table;
#X obj 30 112 outlet~;
#X text 39 202 one-second sample reader loop. You can replace this
with an adc~ if you want to go live.;
#X connect 2 0 5 0;
#X connect 3 0 4 0;
#X connect 4 0 2 0;
#X connect 5 0 6 0;
#X restore 23 12 pd looper;
#X obj 179 118 samplerate~;
#X obj 136 118 t f b;
#X obj 38 34 delwrite~ G06-del 100;
#X obj 34 192 delread~ G06-del;
#X obj 50 233 vd~ G06-del;
#X obj 34 253 +~;
#X obj 163 176 +;
#X obj 136 96 expr 500/$f1;
#X obj 179 141 expr 2048000/$f1;
#X obj 163 216 line~;
#X obj 163 196 pack 0 20;
#X text 174 77 fundamental frequency;
#X text 231 96 1/2 period \, in msec;
#X text 210 158 estimate fiddle~ delay;
#X text 31 266 |;
#X text 210 171 as one window (in msec);
#X text 17 277 (OUT);
#X connect 0 2 1 0;
#X connect 1 0 2 0;
#X connect 2 1 3 0;
#X connect 3 0 12 0;
#X connect 4 0 0 0;
#X connect 4 0 7 0;
#X connect 5 0 13 0;
#X connect 6 0 11 0;
#X connect 6 1 5 0;
#X connect 8 0 10 0;
#X connect 9 0 10 1;
#X connect 11 0 15 0;
#X connect 12 0 6 0;
#X connect 13 0 11 1;
#X connect 13 0 8 0;
#X connect 14 0 9 0;
#X connect 15 0 14 0;
