#N struct haxis float x float y float w float w-3;
#N struct vaxis float x float y float h float h-3;
#N struct seg float x float y float dx float dy float w;
#N struct rect float x float y float w float h;
#N struct xy-curve float x float y float w array z xy-point;
#N struct xy-point float x float y;
#N struct l-curve-arrow float x float y float z float z2 float z3 float
h;
#N struct circle2 float x float y float h float h2 float mh float mh2
;
#N struct xy-plot float x float y float w array z xy-point;
#N struct d-curve-arrow float x float y float z float z2 float z3 float
h;
#N struct circle float x float y float color float h float h2;
#N struct u-curve-arrow float x float y float z float z2 float z3 float
h;
#N struct r-curve-arrow float x float y float z float z2 float z3 float
h;
#N struct r-arrow float x float y float z;
#N struct l-arrow float x float y float z;
#N struct u-arrow float x float y float z;
#N struct d-arrow float x float y float z;
#N struct v-seg float x float y float z float w;
#N struct h-seg float x float y float z float w;
#N struct frame float x float y float w float h;
#N struct y-plot float x float y float w array z y-point;
#N struct y-point float y;
#N struct thickcircle float x float y float color float h float h2
;
#N struct times float x float y;
#N struct plus float x float y;
#N struct minus float x float y;
#N struct divide float x float y;
#N canvas 568 87 482 287 10;
#N canvas 0 519 280 287 fig 1;
#X scalar haxis 13 67 240 237 \;;
#X scalar vaxis 27 14 250 247 \;;
#X text 29 33 input;
#X text 31 49 time;
#X text 132 224 output time;
#X scalar seg 27 67 200 200 1 \;;
#X scalar seg 27 20 200 200 1 \;;
#X scalar rect 26 20 2 2 \;;
#X scalar rect 31 30 2 2 \;;
#X scalar rect 36 40 2 2 \;;
#X scalar rect 41 50 2 2 \;;
#X scalar rect 46 60 2 2 \;;
#X scalar rect 51 70 2 2 \;;
#X scalar rect 56 80 2 2 \;;
#X scalar rect 61 90 2 2 \;;
#X scalar rect 66 100 2 2 \;;
#X scalar rect 71 110 2 2 \;;
#X scalar rect 76 70 2 2 \;;
#X scalar rect 81 80 2 2 \;;
#X scalar rect 86 90 2 2 \;;
#X scalar rect 91 100 2 2 \;;
#X scalar rect 96 110 2 2 \;;
#X scalar rect 101 120 2 2 \;;
#X scalar rect 106 130 2 2 \;;
#X scalar rect 111 140 2 2 \;;
#X scalar rect 116 150 2 2 \;;
#X scalar rect 121 160 2 2 \;;
#X scalar rect 126 120 2 2 \;;
#X scalar rect 131 130 2 2 \;;
#X scalar rect 136 140 2 2 \;;
#X scalar rect 141 150 2 2 \;;
#X scalar rect 146 160 2 2 \;;
#X scalar rect 151 170 2 2 \;;
#X scalar rect 156 180 2 2 \;;
#X scalar rect 161 190 2 2 \;;
#X scalar rect 166 200 2 2 \;;
#X scalar rect 171 210 2 2 \;;
#X scalar rect 176 170 2 2 \;;
#X scalar rect 181 180 2 2 \;;
#X scalar rect 186 190 2 2 \;;
#X scalar rect 191 200 2 2 \;;
#X scalar rect 196 210 2 2 \;;
#X scalar rect 201 220 2 2 \;;
#X scalar rect 206 230 2 2 \;;
#X scalar rect 211 240 2 2 \;;
#X scalar rect 216 250 2 2 \;;
#X scalar rect 221 260 2 2 \;;
#X scalar seg 25 43 4 4 1 \;;
#X scalar seg 25 46 4 -4 1 \;;
#X scalar seg 30 53 4 4 1 \;;
#X scalar seg 30 56 4 -4 1 \;;
#X scalar seg 35 63 4 4 1 \;;
#X scalar seg 35 66 4 -4 1 \;;
#X scalar seg 40 73 4 4 1 \;;
#X scalar seg 40 76 4 -4 1 \;;
#X scalar seg 45 83 4 4 1 \;;
#X scalar seg 45 86 4 -4 1 \;;
#X scalar seg 50 43 4 4 1 \;;
#X scalar seg 50 46 4 -4 1 \;;
#X scalar seg 55 53 4 4 1 \;;
#X scalar seg 55 56 4 -4 1 \;;
#X scalar seg 60 63 4 4 1 \;;
#X scalar seg 60 66 4 -4 1 \;;
#X scalar seg 65 73 4 4 1 \;;
#X scalar seg 65 76 4 -4 1 \;;
#X scalar seg 70 83 4 4 1 \;;
#X scalar seg 70 86 4 -4 1 \;;
#X scalar seg 75 93 4 4 1 \;;
#X scalar seg 75 96 4 -4 1 \;;
#X scalar seg 80 103 4 4 1 \;;
#X scalar seg 80 106 4 -4 1 \;;
#X scalar seg 85 113 4 4 1 \;;
#X scalar seg 85 116 4 -4 1 \;;
#X scalar seg 90 123 4 4 1 \;;
#X scalar seg 90 126 4 -4 1 \;;
#X scalar seg 95 133 4 4 1 \;;
#X scalar seg 95 136 4 -4 1 \;;
#X scalar seg 100 93 4 4 1 \;;
#X scalar seg 100 96 4 -4 1 \;;
#X scalar seg 105 103 4 4 1 \;;
#X scalar seg 105 106 4 -4 1 \;;
#X scalar seg 110 113 4 4 1 \;;
#X scalar seg 110 116 4 -4 1 \;;
#X scalar seg 115 123 4 4 1 \;;
#X scalar seg 115 126 4 -4 1 \;;
#X scalar seg 120 133 4 4 1 \;;
#X scalar seg 120 136 4 -4 1 \;;
#X scalar seg 125 143 4 4 1 \;;
#X scalar seg 125 146 4 -4 1 \;;
#X scalar seg 130 153 4 4 1 \;;
#X scalar seg 130 156 4 -4 1 \;;
#X scalar seg 135 163 4 4 1 \;;
#X scalar seg 135 166 4 -4 1 \;;
#X scalar seg 140 173 4 4 1 \;;
#X scalar seg 140 176 4 -4 1 \;;
#X scalar seg 145 183 4 4 1 \;;
#X scalar seg 145 186 4 -4 1 \;;
#X scalar seg 150 143 4 4 1 \;;
#X scalar seg 150 146 4 -4 1 \;;
#X scalar seg 155 153 4 4 1 \;;
#X scalar seg 155 156 4 -4 1 \;;
#X scalar seg 160 163 4 4 1 \;;
#X scalar seg 160 166 4 -4 1 \;;
#X scalar seg 165 173 4 4 1 \;;
#X scalar seg 165 176 4 -4 1 \;;
#X scalar seg 170 183 4 4 1 \;;
#X scalar seg 170 186 4 -4 1 \;;
#X scalar seg 175 193 4 4 1 \;;
#X scalar seg 175 196 4 -4 1 \;;
#X scalar seg 180 203 4 4 1 \;;
#X scalar seg 180 206 4 -4 1 \;;
#X scalar seg 185 213 4 4 1 \;;
#X scalar seg 185 216 4 -4 1 \;;
#X scalar seg 190 223 4 4 1 \;;
#X scalar seg 190 226 4 -4 1 \;;
#X scalar seg 195 233 4 4 1 \;;
#X scalar seg 195 236 4 -4 1 \;;
#X scalar seg 200 193 4 4 1 \;;
#X scalar seg 200 196 4 -4 1 \;;
#X scalar seg 205 203 4 4 1 \;;
#X scalar seg 205 206 4 -4 1 \;;
#X scalar seg 210 213 4 4 1 \;;
#X scalar seg 210 216 4 -4 1 \;;
#X scalar seg 215 223 4 4 1 \;;
#X scalar seg 215 226 4 -4 1 \;;
#X scalar seg 220 233 4 4 1 \;;
#X scalar seg 220 236 4 -4 1 \;;
#X coords 0 287 1 286 0 0 0;
#X restore 29 21 pd fig;
#X obj 27 47 templates;
#N canvas 23 64 474 361 xxx 0;
#X scalar rect 20 10 2 2 \;;
#X scalar rect 25 20 2 2 \;;
#X scalar rect 30 30 2 2 \;;
#X scalar rect 35 40 2 2 \;;
#X scalar rect 40 50 2 2 \;;
#X scalar rect 45 60 2 2 \;;
#X scalar rect 50 70 2 2 \;;
#X scalar rect 55 80 2 2 \;;
#X scalar rect 60 90 2 2 \;;
#X scalar rect 65 100 2 2 \;;
#X scalar rect 70 60 2 2 \;;
#X scalar rect 75 70 2 2 \;;
#X scalar rect 80 80 2 2 \;;
#X scalar rect 85 90 2 2 \;;
#X scalar rect 90 100 2 2 \;;
#X scalar rect 95 110 2 2 \;;
#X scalar rect 100 120 2 2 \;;
#X scalar rect 105 130 2 2 \;;
#X scalar rect 110 140 2 2 \;;
#X scalar rect 115 150 2 2 \;;
#X scalar rect 120 110 2 2 \;;
#X scalar rect 125 120 2 2 \;;
#X scalar rect 130 130 2 2 \;;
#X scalar rect 135 140 2 2 \;;
#X scalar rect 140 150 2 2 \;;
#X scalar rect 145 160 2 2 \;;
#X scalar rect 150 170 2 2 \;;
#X scalar rect 155 180 2 2 \;;
#X scalar rect 160 190 2 2 \;;
#X scalar rect 165 200 2 2 \;;
#X scalar rect 170 160 2 2 \;;
#X scalar rect 175 170 2 2 \;;
#X scalar rect 180 180 2 2 \;;
#X scalar rect 185 190 2 2 \;;
#X scalar rect 190 200 2 2 \;;
#X scalar rect 195 210 2 2 \;;
#X scalar rect 200 220 2 2 \;;
#X scalar rect 205 230 2 2 \;;
#X scalar rect 210 240 2 2 \;;
#X scalar rect 215 250 2 2 \;;
#X coords 0 361 1 360 0 0 0;
#X restore 31 83 pd xxx;
#N canvas 153 167 1065 555 put-in-graph 0;
#X obj 19 141 until;
#X obj 77 155 f;
#X obj 123 156 + 1;
#X obj 17 89 bng 15 250 50 0 empty empty empty 0 -6 0 8 -262144 -1
-1;
#X obj 18 113 t b b;
#X msg 87 107 0;
#X obj 82 212 sel 1;
#X msg 17 7 \; pd-xxx clear \; start pd-xxx;
#X msg 36 384 \; add-rect \$1 \$2 2 2;
#X obj 33 354 pack 0 0;
#X obj 35 240 t f f;
#X obj 81 184 >= 60;
#X obj 35 269 expr $f1*5+20;
#X obj 46 303 expr 10 + 5 * ($f1 + 10 * ($f1/10 - int($f1/10)));
#X obj 493 131 until;
#X obj 551 145 f;
#X obj 597 146 + 1;
#X obj 491 79 bng 15 250 50 0 empty empty empty 0 -6 0 8 -262144 -1
-1;
#X obj 492 103 t b b;
#X msg 561 97 0;
#X obj 556 202 sel 1;
#X obj 509 230 t f f;
#X obj 555 174 >= 120;
#X obj 496 409 pack 0 0 0;
#X obj 509 259 expr $f1*5+20;
#X obj 523 296 expr 10 + 5 * ($f1 + 10 * ($f1/10 - int($f1/10)));
#X obj 525 332 expr 30 * abs(sin(3.1416 * (($f1+0.5)/10 - int($f1/10))))
;
#X msg 499 439 \; add-rect \$1 \$2 0.6 \$3;
#X connect 0 0 1 0;
#X connect 1 0 2 0;
#X connect 1 0 10 0;
#X connect 1 0 11 0;
#X connect 2 0 1 1;
#X connect 3 0 4 0;
#X connect 4 0 0 0;
#X connect 4 1 5 0;
#X connect 5 0 1 1;
#X connect 6 0 0 1;
#X connect 9 0 8 0;
#X connect 10 0 12 0;
#X connect 10 1 13 0;
#X connect 11 0 6 0;
#X connect 12 0 9 0;
#X connect 13 0 9 1;
#X connect 14 0 15 0;
#X connect 15 0 16 0;
#X connect 15 0 21 0;
#X connect 15 0 22 0;
#X connect 16 0 15 1;
#X connect 17 0 18 0;
#X connect 18 0 14 0;
#X connect 18 1 19 0;
#X connect 19 0 15 1;
#X connect 20 0 14 1;
#X connect 21 0 24 0;
#X connect 21 1 25 0;
#X connect 21 1 26 0;
#X connect 22 0 20 0;
#X connect 23 0 27 0;
#X connect 24 0 23 0;
#X connect 25 0 23 1;
#X connect 26 0 23 2;
#X restore 31 108 pd put-in-graph;
#N canvas 421 231 624 542 put-in-graph-2 0;
#X obj 19 141 until;
#X obj 77 155 f;
#X obj 123 156 + 1;
#X obj 17 89 bng 15 250 50 0 empty empty empty 0 -6 0 8 -262144 -1
-1;
#X obj 18 113 t b b;
#X msg 87 107 0;
#X obj 82 212 sel 1;
#X msg 17 7 \; pd-xxx clear \; start pd-xxx;
#X obj 33 382 pack 0 0;
#X obj 35 240 t f f;
#X obj 81 184 >= 60;
#X obj 35 269 expr $f1*5+20;
#X obj 117 303 expr 10 + 5 * ($f1 + 10 * ($f1/10 - int($f1/10)));
#X obj 133 384 pack 0 0;
#X msg 22 455 \; add-seg \$1 \$2 4 4 1;
#X msg 211 455 \; add-seg \$1 \$2 4 -4 1;
#X obj 55 356 + 2;
#X obj 116 338 - 2;
#X obj 181 337 + 1;
#X connect 0 0 1 0;
#X connect 1 0 2 0;
#X connect 1 0 9 0;
#X connect 1 0 10 0;
#X connect 2 0 1 1;
#X connect 3 0 4 0;
#X connect 4 0 0 0;
#X connect 4 1 5 0;
#X connect 5 0 1 1;
#X connect 6 0 0 1;
#X connect 8 0 14 0;
#X connect 9 0 11 0;
#X connect 9 1 12 0;
#X connect 10 0 6 0;
#X connect 11 0 16 0;
#X connect 12 0 17 0;
#X connect 12 0 18 0;
#X connect 13 0 15 0;
#X connect 16 0 8 0;
#X connect 16 0 13 0;
#X connect 17 0 8 1;
#X connect 18 0 13 1;
#X restore 30 130 pd put-in-graph-2;
#N canvas 0 0 450 300 yyy 0;
#X scalar seg 47 58 4 4 1 \;;
#X scalar seg 47 61 4 -4 1 \;;
#X scalar seg 52 68 4 4 1 \;;
#X scalar seg 52 71 4 -4 1 \;;
#X scalar seg 57 78 4 4 1 \;;
#X scalar seg 57 81 4 -4 1 \;;
#X scalar seg 62 88 4 4 1 \;;
#X scalar seg 62 91 4 -4 1 \;;
#X scalar seg 67 98 4 4 1 \;;
#X scalar seg 67 101 4 -4 1 \;;
#X scalar seg 72 58 4 4 1 \;;
#X scalar seg 72 61 4 -4 1 \;;
#X scalar seg 77 68 4 4 1 \;;
#X scalar seg 77 71 4 -4 1 \;;
#X scalar seg 82 78 4 4 1 \;;
#X scalar seg 82 81 4 -4 1 \;;
#X scalar seg 87 88 4 4 1 \;;
#X scalar seg 87 91 4 -4 1 \;;
#X scalar seg 92 98 4 4 1 \;;
#X scalar seg 92 101 4 -4 1 \;;
#X scalar seg 97 108 4 4 1 \;;
#X scalar seg 97 111 4 -4 1 \;;
#X scalar seg 102 118 4 4 1 \;;
#X scalar seg 102 121 4 -4 1 \;;
#X scalar seg 107 128 4 4 1 \;;
#X scalar seg 107 131 4 -4 1 \;;
#X scalar seg 112 138 4 4 1 \;;
#X scalar seg 112 141 4 -4 1 \;;
#X scalar seg 117 148 4 4 1 \;;
#X scalar seg 117 151 4 -4 1 \;;
#X scalar seg 122 108 4 4 1 \;;
#X scalar seg 122 111 4 -4 1 \;;
#X scalar seg 127 118 4 4 1 \;;
#X scalar seg 127 121 4 -4 1 \;;
#X scalar seg 132 128 4 4 1 \;;
#X scalar seg 132 131 4 -4 1 \;;
#X scalar seg 137 138 4 4 1 \;;
#X scalar seg 137 141 4 -4 1 \;;
#X scalar seg 142 148 4 4 1 \;;
#X scalar seg 142 151 4 -4 1 \;;
#X scalar seg 147 158 4 4 1 \;;
#X scalar seg 147 161 4 -4 1 \;;
#X scalar seg 152 168 4 4 1 \;;
#X scalar seg 152 171 4 -4 1 \;;
#X scalar seg 157 178 4 4 1 \;;
#X scalar seg 157 181 4 -4 1 \;;
#X scalar seg 162 188 4 4 1 \;;
#X scalar seg 162 191 4 -4 1 \;;
#X scalar seg 167 198 4 4 1 \;;
#X scalar seg 167 201 4 -4 1 \;;
#X scalar seg 172 158 4 4 1 \;;
#X scalar seg 172 161 4 -4 1 \;;
#X scalar seg 177 168 4 4 1 \;;
#X scalar seg 177 171 4 -4 1 \;;
#X scalar seg 182 178 4 4 1 \;;
#X scalar seg 182 181 4 -4 1 \;;
#X scalar seg 187 188 4 4 1 \;;
#X scalar seg 187 191 4 -4 1 \;;
#X scalar seg 192 198 4 4 1 \;;
#X scalar seg 192 201 4 -4 1 \;;
#X scalar seg 197 208 4 4 1 \;;
#X scalar seg 197 211 4 -4 1 \;;
#X scalar seg 202 218 4 4 1 \;;
#X scalar seg 202 221 4 -4 1 \;;
#X scalar seg 207 228 4 4 1 \;;
#X scalar seg 207 231 4 -4 1 \;;
#X scalar seg 212 238 4 4 1 \;;
#X scalar seg 212 241 4 -4 1 \;;
#X scalar seg 217 248 4 4 1 \;;
#X scalar seg 217 251 4 -4 1 \;;
#X scalar seg 222 208 4 4 1 \;;
#X scalar seg 222 211 4 -4 1 \;;
#X scalar seg 227 218 4 4 1 \;;
#X scalar seg 227 221 4 -4 1 \;;
#X scalar seg 232 228 4 4 1 \;;
#X scalar seg 232 231 4 -4 1 \;;
#X scalar seg 237 238 4 4 1 \;;
#X scalar seg 237 241 4 -4 1 \;;
#X scalar seg 242 248 4 4 1 \;;
#X scalar seg 242 251 4 -4 1 \;;
#X coords 0 300 1 299 0 0 0;
#X restore 91 83 pd yyy;
