#N canvas 62 53 413 419 10;
#X obj 4 209 hip~ 5;
#X floatatom 5 21 0 0 0 0 - - -;
#X floatatom 73 75 0 0 0 0 - - -;
#X obj 73 96 * 441;
#X obj 57 141 +~ 1;
#X obj 4 120 -~ 0.5;
#X obj 4 164 cos~;
#X obj 4 187 *~;
#X obj 5 43 phasor~;
#X obj 4 142 *~ 0.5;
#X obj 57 119 *~;
#X obj 57 164 tabread4~ table18;
#X obj 211 360 hip~ 5;
#X floatatom 335 20 0 0 0 0 - - -;
#X floatatom 340 95 0 0 0 0 - - -;
#X obj 340 117 * 441;
#X obj 227 172 +~ 1;
#X obj 335 41 phasor~ 0;
#X obj 211 336 *~;
#X obj 249 239 line~;
#X obj 337 190 * 441;
#X floatatom 337 169 0 0 0 0 - - -;
#X obj 238 215 pack 0 100;
#X obj 228 287 +~;
#X obj 249 263 samphold~;
#X obj 255 140 samphold~;
#X obj 228 148 *~;
#X obj 210 59 -~ 0.5;
#X obj 210 83 *~ 0.5;
#X obj 210 106 cos~;
#X obj 228 312 tabread4~ table20;
#X text 4 3 frequency (Hz.);
#X text 73 31 chunk size;
#X text 72 59 second);
#X text 71 45 (hundredths of a;
#X text 335 1 frequency;
#X text 338 79 chunk size;
#X text 335 153 read point;
#X text 19 299 (a);
#X text 281 396 (b);
#X text 2 222 |;
#X text 209 373 |;
#X text 0 236 (OUT);
#X text 198 386 (OUT);
#X connect 1 0 8 0;
#X connect 2 0 3 0;
#X connect 3 0 10 1;
#X connect 4 0 11 0;
#X connect 5 0 9 0;
#X connect 6 0 7 0;
#X connect 7 0 0 0;
#X connect 8 0 5 0;
#X connect 8 0 10 0;
#X connect 9 0 6 0;
#X connect 10 0 4 0;
#X connect 11 0 7 1;
#X connect 13 0 17 0;
#X connect 14 0 15 0;
#X connect 15 0 25 0;
#X connect 16 0 23 0;
#X connect 17 0 24 1;
#X connect 17 0 25 1;
#X connect 17 0 26 0;
#X connect 17 0 27 0;
#X connect 18 0 12 0;
#X connect 19 0 24 0;
#X connect 20 0 22 0;
#X connect 21 0 20 0;
#X connect 22 0 19 0;
#X connect 23 0 30 0;
#X connect 24 0 23 1;
#X connect 25 0 26 1;
#X connect 26 0 16 0;
#X connect 27 0 28 0;
#X connect 28 0 29 0;
#X connect 29 0 18 0;
#X connect 30 0 18 1;
