#N struct haxis float x float y float w float w-3;
#N struct h-seg float x float y float z float w;
#N struct v-seg float x float y float z float w;
#N struct xy-curve float x float y float w array z xy-point;
#N struct xy-point float x float y;
#N struct seg float x float y float dx float dy float w;
#N struct l-curve-arrow float x float y float z float z2 float z3 float
h;
#N struct circle2 float x float y float h float h2 float mh float mh2
;
#N struct vaxis float x float y float h float h-3;
#N struct xy-plot float x float y float w array z xy-point;
#N struct d-curve-arrow float x float y float z float z2 float z3 float
h;
#N struct circle float x float y float color float h float h2;
#N struct u-curve-arrow float x float y float z float z2 float z3 float
h;
#N struct r-curve-arrow float x float y float z float z2 float z3 float
h;
#N struct r-arrow float x float y float z;
#N struct l-arrow float x float y float z;
#N struct u-arrow float x float y float z;
#N struct d-arrow float x float y float z;
#N struct rect float x float y float w float h;
#N struct frame float x float y float w float h;
#N struct y-plot float x float y float w array z y-point;
#N struct y-point float y;
#N struct thickcircle float x float y float color float h float h2
;
#N canvas 552 55 330 171 10;
#N canvas 143 309 991 593 buildit 0;
#X obj 37 220 until;
#X obj 37 195 t b b;
#X obj 68 249 f;
#X msg 84 195 0;
#X obj 142 249 + 1;
#X obj 142 276 sel 50;
#X obj 37 172 r add-pts-1;
#X obj 68 353 expr 75 + 5 * $f1;
#X msg 33 10 \; pd-x1 clear;
#X obj 68 279 t f f f;
#X obj 91 377 t f f;
#X obj 68 404 swap;
#X obj 68 429 pack 0 0 0;
#X obj 68 451 route 1 0;
#X obj 136 388 expr $f1 > 1 || $f1 < -1;
#X obj 91 330 * 500;
#X obj 91 307 expr 0.1 * exp(log(0.9) * ($f1));
#X msg 68 510 \; add-v-seg \$1 50 \$2 2;
#X msg 97 473 \; add-v-seg \$1 50 1 2;
#X msg 37 50 \; start pd-x1 \; add-haxis 50 50 300 297 \; add-h-seg
60 100 40 \; add-h-seg 60 68 80 \; add-pts-1 bang;
#X obj 307 220 until;
#X obj 307 195 t b b;
#X obj 338 249 f;
#X msg 354 195 0;
#X obj 412 249 + 1;
#X obj 412 276 sel 50;
#X obj 338 353 expr 75 + 5 * $f1;
#X obj 338 279 t f f f;
#X obj 361 377 t f f;
#X obj 338 404 swap;
#X obj 338 429 pack 0 0 0;
#X obj 338 451 route 1 0;
#X obj 406 388 expr $f1 > 1 || $f1 < -1;
#X obj 361 330 * 500;
#X msg 338 510 \; add-v-seg \$1 50 \$2 2;
#X msg 367 473 \; add-v-seg \$1 50 1 2;
#X obj 361 307 expr 0.2 * exp(log(0.8) * ($f1));
#X obj 307 172 r add-pts-2;
#X msg 302 51 \; start pd-x1 \; add-haxis 50 50 300 297 \; add-h-seg
60 150 40 \; add-h-seg 60 87 60 \; add-pts-2 bang;
#X obj 570 224 until;
#X obj 570 199 t b b;
#X obj 601 253 f;
#X msg 617 199 0;
#X obj 635 220 + 1;
#X obj 635 245 sel 50;
#X obj 601 357 expr 75 + 5 * $f1;
#X obj 601 283 t f f f;
#X obj 624 381 t f f;
#X obj 601 408 swap;
#X obj 601 433 pack 0 0 0;
#X obj 601 455 route 1 0;
#X obj 669 392 expr $f1 > 1 || $f1 < -1;
#X obj 624 334 * 500;
#X msg 601 514 \; add-v-seg \$1 50 \$2 2;
#X msg 630 477 \; add-v-seg \$1 50 1 2;
#X obj 570 176 r add-pts-3;
#X obj 624 309 expr 0.1 * exp(log(0.9)*$f1) * cos(0.6283*$f1);
#X msg 564 59 \; start pd-x1 \; add-haxis 50 50 300 297 \; add-h-seg
60 100 40 \; add-h-seg 60 68 80 \; add-pts-3 bang;
#X connect 0 0 2 0;
#X connect 1 0 0 0;
#X connect 1 1 3 0;
#X connect 2 0 4 0;
#X connect 2 0 9 0;
#X connect 3 0 2 1;
#X connect 4 0 5 0;
#X connect 4 0 2 1;
#X connect 5 0 0 1;
#X connect 6 0 1 0;
#X connect 7 0 11 0;
#X connect 9 0 7 0;
#X connect 9 1 16 0;
#X connect 10 0 12 2;
#X connect 10 1 14 0;
#X connect 11 0 12 0;
#X connect 11 1 12 1;
#X connect 12 0 13 0;
#X connect 13 0 17 0;
#X connect 13 1 18 0;
#X connect 14 0 11 1;
#X connect 15 0 10 0;
#X connect 16 0 15 0;
#X connect 20 0 22 0;
#X connect 21 0 20 0;
#X connect 21 1 23 0;
#X connect 22 0 24 0;
#X connect 22 0 27 0;
#X connect 23 0 22 1;
#X connect 24 0 25 0;
#X connect 24 0 22 1;
#X connect 25 0 20 1;
#X connect 26 0 29 0;
#X connect 27 0 26 0;
#X connect 27 1 36 0;
#X connect 28 0 30 2;
#X connect 28 1 32 0;
#X connect 29 0 30 0;
#X connect 29 1 30 1;
#X connect 30 0 31 0;
#X connect 31 0 34 0;
#X connect 31 1 35 0;
#X connect 32 0 29 1;
#X connect 33 0 28 0;
#X connect 36 0 33 0;
#X connect 37 0 21 0;
#X connect 39 0 41 0;
#X connect 40 0 39 0;
#X connect 40 1 42 0;
#X connect 41 0 43 0;
#X connect 41 0 46 0;
#X connect 42 0 41 1;
#X connect 43 0 44 0;
#X connect 43 0 41 1;
#X connect 44 0 39 1;
#X connect 45 0 48 0;
#X connect 46 0 45 0;
#X connect 46 1 56 0;
#X connect 47 0 49 2;
#X connect 47 1 51 0;
#X connect 48 0 49 0;
#X connect 48 1 49 1;
#X connect 49 0 50 0;
#X connect 50 0 53 0;
#X connect 50 1 54 0;
#X connect 51 0 48 1;
#X connect 52 0 47 0;
#X connect 55 0 40 0;
#X connect 56 0 52 0;
#X restore 140 55 pd buildit;
#N canvas 62 389 364 391 fig 1;
#X scalar haxis 38 167 300 297 \;;
#X scalar h-seg 48 217 40 0 \;;
#X scalar h-seg 48 185 80 0 \;;
#X scalar v-seg 63 167 50 2 \;;
#X scalar v-seg 68 167 45 2 \;;
#X scalar v-seg 73 167 40.5 2 \;;
#X scalar v-seg 78 167 36.45 2 \;;
#X scalar v-seg 83 167 32.805 2 \;;
#X scalar v-seg 88 167 29.5245 2 \;;
#X scalar v-seg 93 167 26.572 2 \;;
#X scalar v-seg 98 167 23.9148 2 \;;
#X scalar v-seg 103 167 21.5234 2 \;;
#X scalar v-seg 108 167 19.371 2 \;;
#X scalar v-seg 113 167 17.4339 2 \;;
#X scalar v-seg 118 167 15.6905 2 \;;
#X scalar v-seg 123 167 14.1215 2 \;;
#X scalar v-seg 128 167 12.7093 2 \;;
#X scalar v-seg 133 167 11.4384 2 \;;
#X scalar v-seg 138 167 10.2946 2 \;;
#X scalar v-seg 143 167 9.2651 2 \;;
#X scalar v-seg 148 167 8.33859 2 \;;
#X scalar v-seg 153 167 7.50473 2 \;;
#X scalar v-seg 158 167 6.75425 2 \;;
#X scalar v-seg 163 167 6.07883 2 \;;
#X scalar v-seg 168 167 5.47095 2 \;;
#X scalar v-seg 173 167 4.92385 2 \;;
#X scalar v-seg 178 167 4.43147 2 \;;
#X scalar v-seg 183 167 3.98832 2 \;;
#X scalar v-seg 188 167 3.58949 2 \;;
#X scalar v-seg 193 167 3.23054 2 \;;
#X scalar v-seg 198 167 2.90748 2 \;;
#X scalar v-seg 203 167 2.61674 2 \;;
#X scalar v-seg 208 167 2.35506 2 \;;
#X scalar v-seg 213 167 2.11956 2 \;;
#X scalar v-seg 218 167 1.9076 2 \;;
#X scalar v-seg 223 167 1.71684 2 \;;
#X scalar v-seg 228 167 1.54516 2 \;;
#X scalar v-seg 233 167 1.39064 2 \;;
#X scalar v-seg 238 167 1.25158 2 \;;
#X scalar v-seg 243 167 1.12642 2 \;;
#X scalar v-seg 248 167 1.01378 2 \;;
#X scalar v-seg 253 167 1 2 \;;
#X scalar v-seg 258 167 1 2 \;;
#X scalar v-seg 263 167 1 2 \;;
#X scalar v-seg 268 167 1 2 \;;
#X scalar v-seg 273 167 1 2 \;;
#X scalar v-seg 278 167 1 2 \;;
#X scalar v-seg 283 167 1 2 \;;
#X scalar v-seg 288 167 1 2 \;;
#X scalar v-seg 293 167 1 2 \;;
#X scalar v-seg 298 167 1 2 \;;
#X scalar v-seg 303 167 1 2 \;;
#X scalar v-seg 308 167 1 2 \;;
#X scalar haxis 36 274 300 297 \;;
#X scalar h-seg 46 374 40 0 \;;
#X scalar h-seg 46 311 60 0 \;;
#X scalar v-seg 61 274 100 2 \;;
#X scalar v-seg 66 274 80 2 \;;
#X scalar v-seg 71 274 64 2 \;;
#X scalar v-seg 76 274 51.2 2 \;;
#X scalar v-seg 81 274 40.96 2 \;;
#X scalar v-seg 86 274 32.768 2 \;;
#X scalar v-seg 91 274 26.2144 2 \;;
#X scalar v-seg 96 274 20.9715 2 \;;
#X scalar v-seg 101 274 16.7772 2 \;;
#X scalar v-seg 106 274 13.4218 2 \;;
#X scalar v-seg 111 274 10.7374 2 \;;
#X scalar v-seg 116 274 8.58994 2 \;;
#X scalar v-seg 121 274 6.87195 2 \;;
#X scalar v-seg 126 274 5.49756 2 \;;
#X scalar v-seg 131 274 4.39805 2 \;;
#X scalar v-seg 136 274 3.51844 2 \;;
#X scalar v-seg 141 274 2.81475 2 \;;
#X scalar v-seg 146 274 2.2518 2 \;;
#X scalar v-seg 151 274 1.80144 2 \;;
#X scalar v-seg 156 274 1.44115 2 \;;
#X scalar v-seg 161 274 1.15292 2 \;;
#X scalar v-seg 166 274 1 2 \;;
#X scalar v-seg 171 274 1 2 \;;
#X scalar v-seg 176 274 1 2 \;;
#X scalar v-seg 181 274 1 2 \;;
#X scalar v-seg 186 274 1 2 \;;
#X scalar v-seg 191 274 1 2 \;;
#X scalar v-seg 196 274 1 2 \;;
#X scalar v-seg 201 274 1 2 \;;
#X scalar v-seg 206 274 1 2 \;;
#X scalar v-seg 211 274 1 2 \;;
#X scalar v-seg 216 274 1 2 \;;
#X scalar v-seg 221 274 1 2 \;;
#X scalar v-seg 226 274 1 2 \;;
#X scalar v-seg 231 274 1 2 \;;
#X scalar v-seg 236 274 1 2 \;;
#X scalar v-seg 241 274 1 2 \;;
#X text 91 10 1/5;
#X text 110 71 1/(5e);
#X text 90 167 1/10;
#X text 132 196 1/(10e);
#X text 269 123 n;
#X text 13 47 (a);
#X text 9 184 (b);
#X scalar haxis 40 44 300 297 \;;
#X scalar h-seg 50 94 40 0 \;;
#X scalar h-seg 50 62 80 0 \;;
#X scalar v-seg 65 44 50 2 \;;
#X scalar v-seg 70 44 36.4063 2 \;;
#X scalar v-seg 75 44 12.5166 2 \;;
#X scalar v-seg 80 44 -11.2617 2 \;;
#X scalar v-seg 85 44 -26.5384 2 \;;
#X scalar v-seg 90 44 -29.5245 2 \;;
#X scalar v-seg 95 44 -21.499 2 \;;
#X scalar v-seg 100 44 -7.39304 2 \;;
#X scalar v-seg 105 44 6.64805 2 \;;
#X scalar v-seg 110 44 15.6696 2 \;;
#X scalar v-seg 115 44 17.4339 2 \;;
#X scalar v-seg 120 44 12.6958 2 \;;
#X scalar v-seg 125 44 4.36676 2 \;;
#X scalar v-seg 130 44 -3.92449 2 \;;
#X scalar v-seg 135 44 -9.25211 2 \;;
#X scalar v-seg 140 44 -10.2946 2 \;;
#X scalar v-seg 145 44 -7.49723 2 \;;
#X scalar v-seg 150 44 -2.57926 2 \;;
#X scalar v-seg 155 44 2.31671 2 \;;
#X scalar v-seg 160 44 5.46291 2 \;;
#X scalar v-seg 165 44 6.07883 2 \;;
#X scalar v-seg 170 44 4.42734 2 \;;
#X scalar v-seg 175 44 1.52346 2 \;;
#X scalar v-seg 180 44 -1.3676 2 \;;
#X scalar v-seg 185 44 -3.22558 2 \;;
#X scalar v-seg 190 44 -3.58949 2 \;;
#X scalar v-seg 195 44 -2.61448 2 \;;
#X scalar v-seg 200 44 1 2 \;;
#X scalar v-seg 205 44 1 2 \;;
#X scalar v-seg 210 44 1.90454 2 \;;
#X scalar v-seg 215 44 2.11956 2 \;;
#X scalar v-seg 220 44 1.54392 2 \;;
#X scalar v-seg 225 44 1 2 \;;
#X scalar v-seg 230 44 1 2 \;;
#X scalar v-seg 235 44 -1.12454 2 \;;
#X scalar v-seg 240 44 -1.25158 2 \;;
#X scalar v-seg 245 44 1 2 \;;
#X scalar v-seg 250 44 1 2 \;;
#X scalar v-seg 255 44 1 2 \;;
#X scalar v-seg 260 44 1 2 \;;
#X scalar v-seg 265 44 1 2 \;;
#X scalar v-seg 270 44 1 2 \;;
#X scalar v-seg 275 44 1 2 \;;
#X scalar v-seg 280 44 1 2 \;;
#X scalar v-seg 285 44 1 2 \;;
#X scalar v-seg 290 44 1 2 \;;
#X scalar v-seg 295 44 1 2 \;;
#X scalar v-seg 300 44 1 2 \;;
#X scalar v-seg 305 44 1 2 \;;
#X scalar v-seg 310 44 1 2 \;;
#X text 11 318 (c);
#X text 92 289 1/10;
#X text 131 320 1/(10e);
#X text 82 122 5;
#X text 105 228 10;
#X scalar v-seg 86 269 5 1 \;;
#X scalar v-seg 113 162 5 1 \;;
#X text 107 351 10;
#X scalar v-seg 115 39 5 1 \;;
#X coords 0 391 1 390 0 0 0;
#X restore 51 61 pd fig;
#X obj 140 81 templates;
#N canvas 35 57 408 221 x1 0;
#X scalar haxis 50 50 300 297 \;;
#X scalar h-seg 60 100 40 0 \;;
#X scalar h-seg 60 68 80 0 \;;
#X scalar v-seg 75 50 50 2 \;;
#X scalar v-seg 80 50 36.4063 2 \;;
#X scalar v-seg 85 50 12.5166 2 \;;
#X scalar v-seg 90 50 -11.2617 2 \;;
#X scalar v-seg 95 50 -26.5384 2 \;;
#X scalar v-seg 100 50 -29.5245 2 \;;
#X scalar v-seg 105 50 -21.499 2 \;;
#X scalar v-seg 110 50 -7.39304 2 \;;
#X scalar v-seg 115 50 6.64805 2 \;;
#X scalar v-seg 120 50 15.6696 2 \;;
#X scalar v-seg 125 50 17.4339 2 \;;
#X scalar v-seg 130 50 12.6958 2 \;;
#X scalar v-seg 135 50 4.36676 2 \;;
#X scalar v-seg 140 50 -3.92449 2 \;;
#X scalar v-seg 145 50 -9.25211 2 \;;
#X scalar v-seg 150 50 -10.2946 2 \;;
#X scalar v-seg 155 50 -7.49723 2 \;;
#X scalar v-seg 160 50 -2.57926 2 \;;
#X scalar v-seg 165 50 2.31671 2 \;;
#X scalar v-seg 170 50 5.46291 2 \;;
#X scalar v-seg 175 50 6.07883 2 \;;
#X scalar v-seg 180 50 4.42734 2 \;;
#X scalar v-seg 185 50 1.52346 2 \;;
#X scalar v-seg 190 50 -1.3676 2 \;;
#X scalar v-seg 195 50 -3.22558 2 \;;
#X scalar v-seg 200 50 -3.58949 2 \;;
#X scalar v-seg 205 50 -2.61448 2 \;;
#X scalar v-seg 210 50 1 2 \;;
#X scalar v-seg 215 50 1 2 \;;
#X scalar v-seg 220 50 1.90454 2 \;;
#X scalar v-seg 225 50 2.11956 2 \;;
#X scalar v-seg 230 50 1.54392 2 \;;
#X scalar v-seg 235 50 1 2 \;;
#X scalar v-seg 240 50 1 2 \;;
#X scalar v-seg 245 50 -1.12454 2 \;;
#X scalar v-seg 250 50 -1.25158 2 \;;
#X scalar v-seg 255 50 1 2 \;;
#X scalar v-seg 260 50 1 2 \;;
#X scalar v-seg 265 50 1 2 \;;
#X scalar v-seg 270 50 1 2 \;;
#X scalar v-seg 275 50 1 2 \;;
#X scalar v-seg 280 50 1 2 \;;
#X scalar v-seg 285 50 1 2 \;;
#X scalar v-seg 290 50 1 2 \;;
#X scalar v-seg 295 50 1 2 \;;
#X scalar v-seg 300 50 1 2 \;;
#X scalar v-seg 305 50 1 2 \;;
#X scalar v-seg 310 50 1 2 \;;
#X scalar v-seg 315 50 1 2 \;;
#X scalar v-seg 320 50 1 2 \;;
#X coords 0 221 1 220 0 0 0;
#X restore 48 87 pd x1;
