#N struct haxis float x float y float w float w-3;
#N struct vaxis float x float y float h float h-3;
#N struct seg float x float y float dx float dy float w;
#N struct rect float x float y float w float h;
#N struct xy-curve float x float y float w array z xy-point;
#N struct xy-point float x float y;
#N struct l-curve-arrow float x float y float z float z2 float z3 float
h;
#N struct circle2 float x float y float h float h2 float mh float mh2
;
#N struct xy-plot float x float y float w array z xy-point;
#N struct d-curve-arrow float x float y float z float z2 float z3 float
h;
#N struct circle float x float y float color float h float h2;
#N struct u-curve-arrow float x float y float z float z2 float z3 float
h;
#N struct r-curve-arrow float x float y float z float z2 float z3 float
h;
#N struct r-arrow float x float y float z;
#N struct l-arrow float x float y float z;
#N struct u-arrow float x float y float z;
#N struct d-arrow float x float y float z;
#N struct v-seg float x float y float z float w;
#N struct h-seg float x float y float z float w;
#N struct frame float x float y float w float h;
#N struct y-plot float x float y float w array z y-point;
#N struct y-point float y;
#N struct thickcircle float x float y float color float h float h2
;
#N struct times float x float y;
#N struct plus float x float y;
#N struct minus float x float y;
#N struct divide float x float y;
#N canvas 568 87 482 287 10;
#N canvas 0 519 304 293 fig 1;
#X scalar haxis 7 68 240 237 \;;
#X scalar vaxis 21 15 250 247 \;;
#X text 29 39 input;
#X text 31 55 time;
#X text 132 230 output time;
#X scalar seg 21 68 200 200 1 \;;
#X scalar seg 21 21 200 200 1 \;;
#X scalar rect 21 22 2 2 \;;
#X scalar rect 26 32 2 2 \;;
#X scalar rect 31 42 2 2 \;;
#X scalar rect 36 52 2 2 \;;
#X scalar rect 41 62 2 2 \;;
#X scalar rect 46 72 2 2 \;;
#X scalar rect 51 82 2 2 \;;
#X scalar rect 56 92 2 2 \;;
#X scalar rect 61 102 2 2 \;;
#X scalar rect 66 112 2 2 \;;
#X scalar rect 71 72 2 2 \;;
#X scalar rect 76 82 2 2 \;;
#X scalar rect 81 92 2 2 \;;
#X scalar rect 86 102 2 2 \;;
#X scalar rect 91 112 2 2 \;;
#X scalar rect 96 122 2 2 \;;
#X scalar rect 101 132 2 2 \;;
#X scalar rect 106 142 2 2 \;;
#X scalar rect 111 152 2 2 \;;
#X scalar rect 116 162 2 2 \;;
#X scalar rect 121 122 2 2 \;;
#X scalar rect 126 132 2 2 \;;
#X scalar rect 131 142 2 2 \;;
#X scalar rect 136 152 2 2 \;;
#X scalar rect 141 162 2 2 \;;
#X scalar rect 146 172 2 2 \;;
#X scalar rect 151 182 2 2 \;;
#X scalar rect 156 192 2 2 \;;
#X scalar rect 161 202 2 2 \;;
#X scalar rect 166 212 2 2 \;;
#X scalar rect 171 172 2 2 \;;
#X scalar rect 176 182 2 2 \;;
#X scalar rect 181 192 2 2 \;;
#X scalar rect 186 202 2 2 \;;
#X scalar rect 191 212 2 2 \;;
#X scalar rect 196 222 2 2 \;;
#X scalar rect 201 232 2 2 \;;
#X scalar rect 206 242 2 2 \;;
#X scalar rect 211 252 2 2 \;;
#X scalar rect 216 262 2 2 \;;
#X scalar rect 22 25 0.6 4.69304 \;;
#X scalar rect 27 35 0.6 13.6197 \;;
#X scalar rect 32 45 0.6 21.2132 \;;
#X scalar rect 37 55 0.6 26.7302 \;;
#X scalar rect 42 65 0.6 29.6307 \;;
#X scalar rect 47 75 0.6 29.6306 \;;
#X scalar rect 52 85 0.6 26.7301 \;;
#X scalar rect 57 95 0.6 21.2131 \;;
#X scalar rect 62 105 0.6 13.6195 \;;
#X scalar rect 67 115 0.6 4.69283 \;;
#X scalar rect 72 75 0.6 4.69304 \;;
#X scalar rect 77 85 0.6 13.6197 \;;
#X scalar rect 82 95 0.6 21.2132 \;;
#X scalar rect 87 105 0.6 26.7302 \;;
#X scalar rect 92 115 0.6 29.6307 \;;
#X scalar rect 97 125 0.6 29.6306 \;;
#X scalar rect 102 135 0.6 26.7301 \;;
#X scalar rect 107 145 0.6 21.2131 \;;
#X scalar rect 112 155 0.6 13.6195 \;;
#X scalar rect 117 165 0.6 4.69283 \;;
#X scalar rect 122 125 0.6 4.69304 \;;
#X scalar rect 127 135 0.6 13.6198 \;;
#X scalar rect 132 145 0.6 21.2132 \;;
#X scalar rect 137 155 0.6 26.7302 \;;
#X scalar rect 142 165 0.6 29.6307 \;;
#X scalar rect 147 175 0.6 29.6306 \;;
#X scalar rect 152 185 0.6 26.7301 \;;
#X scalar rect 157 195 0.6 21.2131 \;;
#X scalar rect 162 205 0.6 13.6196 \;;
#X scalar rect 167 215 0.6 4.69283 \;;
#X scalar rect 172 175 0.6 4.69304 \;;
#X scalar rect 177 185 0.6 13.6198 \;;
#X scalar rect 182 195 0.6 21.2132 \;;
#X scalar rect 187 205 0.6 26.7302 \;;
#X scalar rect 192 215 0.6 29.6307 \;;
#X scalar rect 197 225 0.6 29.6306 \;;
#X scalar rect 202 235 0.6 26.7301 \;;
#X scalar rect 207 245 0.6 21.2131 \;;
#X scalar rect 212 255 0.6 13.6196 \;;
#X scalar rect 217 265 0.6 4.69283 \;;
#X coords 0 293 1 292 0 0 0;
#X restore 29 21 pd fig;
#X obj 27 47 templates;
#N canvas 23 64 474 361 xxx 0;
#X scalar rect 20 10 0.6 4.69304 \;;
#X scalar rect 25 20 0.6 13.6197 \;;
#X scalar rect 30 30 0.6 21.2132 \;;
#X scalar rect 35 40 0.6 26.7302 \;;
#X scalar rect 40 50 0.6 29.6307 \;;
#X scalar rect 45 60 0.6 29.6306 \;;
#X scalar rect 50 70 0.6 26.7301 \;;
#X scalar rect 55 80 0.6 21.2131 \;;
#X scalar rect 60 90 0.6 13.6195 \;;
#X scalar rect 65 100 0.6 4.69283 \;;
#X scalar rect 70 60 0.6 4.69304 \;;
#X scalar rect 75 70 0.6 13.6197 \;;
#X scalar rect 80 80 0.6 21.2132 \;;
#X scalar rect 85 90 0.6 26.7302 \;;
#X scalar rect 90 100 0.6 29.6307 \;;
#X scalar rect 95 110 0.6 29.6306 \;;
#X scalar rect 100 120 0.6 26.7301 \;;
#X scalar rect 105 130 0.6 21.2131 \;;
#X scalar rect 110 140 0.6 13.6195 \;;
#X scalar rect 115 150 0.6 4.69283 \;;
#X scalar rect 120 110 0.6 4.69304 \;;
#X scalar rect 125 120 0.6 13.6198 \;;
#X scalar rect 130 130 0.6 21.2132 \;;
#X scalar rect 135 140 0.6 26.7302 \;;
#X scalar rect 140 150 0.6 29.6307 \;;
#X scalar rect 145 160 0.6 29.6306 \;;
#X scalar rect 150 170 0.6 26.7301 \;;
#X scalar rect 155 180 0.6 21.2131 \;;
#X scalar rect 160 190 0.6 13.6196 \;;
#X scalar rect 165 200 0.6 4.69283 \;;
#X scalar rect 170 160 0.6 4.69304 \;;
#X scalar rect 175 170 0.6 13.6198 \;;
#X scalar rect 180 180 0.6 21.2132 \;;
#X scalar rect 185 190 0.6 26.7302 \;;
#X scalar rect 190 200 0.6 29.6307 \;;
#X scalar rect 195 210 0.6 29.6306 \;;
#X scalar rect 200 220 0.6 26.7301 \;;
#X scalar rect 205 230 0.6 21.2131 \;;
#X scalar rect 210 240 0.6 13.6196 \;;
#X scalar rect 215 250 0.6 4.69283 \;;
#X scalar rect 220 210 0.6 4.69306 \;;
#X scalar rect 225 220 0.6 13.6198 \;;
#X scalar rect 230 230 0.6 21.2132 \;;
#X scalar rect 235 240 0.6 26.7302 \;;
#X scalar rect 240 250 0.6 29.6307 \;;
#X scalar rect 245 260 0.6 29.6306 \;;
#X scalar rect 250 270 0.6 26.7301 \;;
#X scalar rect 255 280 0.6 21.2131 \;;
#X scalar rect 260 290 0.6 13.6196 \;;
#X scalar rect 265 300 0.6 4.69285 \;;
#X scalar rect 270 260 0.6 4.69306 \;;
#X scalar rect 275 270 0.6 13.6198 \;;
#X scalar rect 280 280 0.6 21.2132 \;;
#X scalar rect 285 290 0.6 26.7302 \;;
#X scalar rect 290 300 0.6 29.6307 \;;
#X scalar rect 295 310 0.6 29.6306 \;;
#X scalar rect 300 320 0.6 26.7301 \;;
#X scalar rect 305 330 0.6 21.2131 \;;
#X scalar rect 310 340 0.6 13.6196 \;;
#X scalar rect 315 350 0.6 4.69285 \;;
#X scalar rect 320 310 0.6 4.69306 \;;
#X scalar rect 325 320 0.6 13.6198 \;;
#X scalar rect 330 330 0.6 21.2132 \;;
#X scalar rect 335 340 0.6 26.7302 \;;
#X scalar rect 340 350 0.6 29.6307 \;;
#X scalar rect 345 360 0.6 29.6306 \;;
#X scalar rect 350 370 0.6 26.7301 \;;
#X scalar rect 355 380 0.6 21.2131 \;;
#X scalar rect 360 390 0.6 13.6196 \;;
#X scalar rect 365 400 0.6 4.69285 \;;
#X scalar rect 370 360 0.6 4.69306 \;;
#X scalar rect 375 370 0.6 13.6198 \;;
#X scalar rect 380 380 0.6 21.2132 \;;
#X scalar rect 385 390 0.6 26.7302 \;;
#X scalar rect 390 400 0.6 29.6307 \;;
#X scalar rect 395 410 0.6 29.6306 \;;
#X scalar rect 400 420 0.6 26.7301 \;;
#X scalar rect 405 430 0.6 21.2131 \;;
#X scalar rect 410 440 0.6 13.6196 \;;
#X scalar rect 415 450 0.6 4.69285 \;;
#X scalar rect 420 410 0.6 4.69306 \;;
#X scalar rect 425 420 0.6 13.6197 \;;
#X scalar rect 430 430 0.6 21.2132 \;;
#X scalar rect 435 440 0.6 26.7302 \;;
#X scalar rect 440 450 0.6 29.6307 \;;
#X scalar rect 445 460 0.6 29.6306 \;;
#X scalar rect 450 470 0.6 26.7302 \;;
#X scalar rect 455 480 0.6 21.2131 \;;
#X scalar rect 460 490 0.6 13.6195 \;;
#X scalar rect 465 500 0.6 4.69285 \;;
#X scalar rect 470 460 0.6 4.69306 \;;
#X scalar rect 475 470 0.6 13.6197 \;;
#X scalar rect 480 480 0.6 21.2132 \;;
#X scalar rect 485 490 0.6 26.7302 \;;
#X scalar rect 490 500 0.6 29.6307 \;;
#X scalar rect 495 510 0.6 29.6306 \;;
#X scalar rect 500 520 0.6 26.7302 \;;
#X scalar rect 505 530 0.6 21.2131 \;;
#X scalar rect 510 540 0.6 13.6195 \;;
#X scalar rect 515 550 0.6 4.69285 \;;
#X scalar rect 520 510 0.6 4.69306 \;;
#X scalar rect 525 520 0.6 13.6197 \;;
#X scalar rect 530 530 0.6 21.2132 \;;
#X scalar rect 535 540 0.6 26.7302 \;;
#X scalar rect 540 550 0.6 29.6307 \;;
#X scalar rect 545 560 0.6 29.6306 \;;
#X scalar rect 550 570 0.6 26.7302 \;;
#X scalar rect 555 580 0.6 21.2131 \;;
#X scalar rect 560 590 0.6 13.6195 \;;
#X scalar rect 565 600 0.6 4.69285 \;;
#X scalar rect 570 560 0.6 4.69306 \;;
#X scalar rect 575 570 0.6 13.6197 \;;
#X scalar rect 580 580 0.6 21.2132 \;;
#X scalar rect 585 590 0.6 26.7302 \;;
#X scalar rect 590 600 0.6 29.6307 \;;
#X scalar rect 595 610 0.6 29.6306 \;;
#X scalar rect 600 620 0.6 26.7302 \;;
#X scalar rect 605 630 0.6 21.2131 \;;
#X scalar rect 610 640 0.6 13.6195 \;;
#X scalar rect 615 650 0.6 4.69285 \;;
#X scalar rect 620 610 0.6 4.69306 \;;
#X coords 0 361 1 360 0 0 0;
#X restore 31 83 pd xxx;
#N canvas 303 284 1083 602 put-in-graph 0;
#X obj 19 141 until;
#X obj 77 155 f;
#X obj 123 156 + 1;
#X obj 17 89 bng 15 250 50 0 empty empty empty 0 -6 0 8 -262144 -1
-1;
#X obj 18 113 t b b;
#X msg 87 107 0;
#X obj 82 212 sel 1;
#X msg 17 7 \; pd-xxx clear \; start pd-xxx;
#X msg 36 384 \; add-rect \$1 \$2 2 2;
#X obj 33 354 pack 0 0;
#X obj 35 240 t f f;
#X obj 81 184 >= 60;
#X obj 35 269 expr $f1*5+20;
#X obj 44 309 expr 10 + 5 * ($f1 + 10 * ($f1/10 - int($f1/10)));
#X obj 513 138 until;
#X obj 571 152 f;
#X obj 617 153 + 1;
#X obj 511 86 bng 15 250 50 0 empty empty empty 0 -6 0 8 -262144 -1
-1;
#X obj 512 110 t b b;
#X msg 581 104 0;
#X obj 576 209 sel 1;
#X obj 529 237 t f f;
#X obj 575 181 >= 120;
#X obj 516 416 pack 0 0 0;
#X obj 529 266 expr $f1*5+20;
#X obj 538 306 expr 10 + 5 * ($f1 + 10 * ($f1/10 - int($f1/10)));
#X obj 573 351 expr 30 * abs(sin(3.1416 * (($f1+0.5)/10 - int($f1/10))))
;
#X msg 519 446 \; add-rect \$1 \$2 0.6 \$3;
#X connect 0 0 1 0;
#X connect 1 0 2 0;
#X connect 1 0 10 0;
#X connect 1 0 11 0;
#X connect 2 0 1 1;
#X connect 3 0 4 0;
#X connect 4 0 0 0;
#X connect 4 1 5 0;
#X connect 5 0 1 1;
#X connect 6 0 0 1;
#X connect 9 0 8 0;
#X connect 10 0 12 0;
#X connect 10 1 13 0;
#X connect 11 0 6 0;
#X connect 12 0 9 0;
#X connect 13 0 9 1;
#X connect 14 0 15 0;
#X connect 15 0 16 0;
#X connect 15 0 21 0;
#X connect 15 0 22 0;
#X connect 16 0 15 1;
#X connect 17 0 18 0;
#X connect 18 0 14 0;
#X connect 18 1 19 0;
#X connect 19 0 15 1;
#X connect 20 0 14 1;
#X connect 21 0 24 0;
#X connect 21 1 25 0;
#X connect 21 1 26 0;
#X connect 22 0 20 0;
#X connect 23 0 27 0;
#X connect 24 0 23 0;
#X connect 25 0 23 1;
#X connect 26 0 23 2;
#X restore 31 108 pd put-in-graph;
