#N struct rect float x float y float w float h;
#N struct haxis float x float y float w float w-3;
#N struct vaxis float x float y float h float h-3;
#N struct y-plot float x float y float w array z y-point;
#N struct y-point float y;
#N struct xy-curve float x float y float w array z xy-point;
#N struct xy-point float x float y;
#N struct seg float x float y float dx float dy float w;
#N struct l-curve-arrow float x float y float z float z2 float z3 float
h;
#N struct circle2 float x float y float h float h2 float mh float mh2
;
#N struct xy-plot float x float y float w array z xy-point;
#N struct d-curve-arrow float x float y float z float z2 float z3 float
h;
#N struct circle float x float y float color float h float h2;
#N struct u-curve-arrow float x float y float z float z2 float z3 float
h;
#N struct r-curve-arrow float x float y float z float z2 float z3 float
h;
#N struct r-arrow float x float y float z;
#N struct l-arrow float x float y float z;
#N struct u-arrow float x float y float z;
#N struct d-arrow float x float y float z;
#N struct v-seg float x float y float z float w;
#N struct h-seg float x float y float z float w;
#N struct frame float x float y float w float h;
#N struct thickcircle float x float y float color float h float h2
;
#N canvas 144 404 329 179 10;
#N canvas 14 283 373 145 fig 1;
#X scalar rect 141 66 2 4 \;;
#X scalar rect 241 66 2 4 \;;
#X scalar haxis 16 68 300 297 \;;
#X scalar vaxis 41 18 100 97 \;;
#X scalar y-plot 41 68 1 \; 40 \; 39.8225 \; 39.2915 \; 38.4118 \;
37.1911 \; 35.6403 \; 33.7731 \; 31.6062 \; 29.1588 \; 26.4525 \; 23.5114
\; 20.3617 \; 17.0312 \; 13.5496 \; 9.94764 \; 6.25742 \; 2.51167 \;
-1.25638 \; -5.01328 \; -8.72567 \; -12.3606 \; -15.8859 \; -19.2701
\; -22.4833 \; -25.4969 \; -28.2842 \; -30.8205 \; -33.0832 \; -35.0522
\; -36.7102 \; -38.0422 \; -39.0367 \; -39.6846 \; -39.9803 \; -39.9211
\; -39.5075 \; -38.7434 \; -37.6353 \; -36.1931 \; -34.4297 \; -32.3608
\; -30.0045 \; -27.382 \; -24.5164 \; -21.4332 \; -18.1597 \; -14.7251
\; -11.1598 \; -7.49541 \; -3.76447 \; -0.000152111 \; 3.76416 \; 7.49509
\; 11.1595 \; 14.7248 \; 18.1595 \; 21.4329 \; 24.5161 \; 27.3818 \;
30.0043 \; 32.3606 \; 34.4296 \; 36.193 \; 37.6352 \; 38.7433 \; 39.5075
\; 39.9211 \; 39.9803 \; 39.6846 \; 39.0367 \; 38.0423 \; 36.7103 \;
35.0524 \; 33.0833 \; 30.8207 \; 28.2844 \; 25.4971 \; 22.4836 \; 19.2704
\; 15.8861 \; 12.3609 \; 8.72598 \; 5.01358 \; 1.25668 \; -2.51135
\; -6.25713 \; -9.94735 \; -13.5493 \; -17.0309 \; -20.3614 \; -23.5112
\; -26.4523 \; -29.1586 \; -31.606 \; -33.773 \; -35.6401 \; -37.1909
\; -38.4117 \; -39.2914 \; -39.8224 \; -40 \; \;;
#X scalar y-plot 141 68 1 \; 40 \; 39.8225 \; 39.2915 \; 38.4118 \;
37.1911 \; 35.6403 \; 33.7731 \; 31.6062 \; 29.1588 \; 26.4525 \; 23.5114
\; 20.3617 \; 17.0312 \; 13.5496 \; 9.94764 \; 6.25742 \; 2.51167 \;
-1.25638 \; -5.01328 \; -8.72567 \; -12.3606 \; -15.8859 \; -19.2701
\; -22.4833 \; -25.4969 \; -28.2842 \; -30.8205 \; -33.0832 \; -35.0522
\; -36.7102 \; -38.0422 \; -39.0367 \; -39.6846 \; -39.9803 \; -39.9211
\; -39.5075 \; -38.7434 \; -37.6353 \; -36.1931 \; -34.4297 \; -32.3608
\; -30.0045 \; -27.382 \; -24.5164 \; -21.4332 \; -18.1597 \; -14.7251
\; -11.1598 \; -7.49541 \; -3.76447 \; -0.000152111 \; 3.76416 \; 7.49509
\; 11.1595 \; 14.7248 \; 18.1595 \; 21.4329 \; 24.5161 \; 27.3818 \;
30.0043 \; 32.3606 \; 34.4296 \; 36.193 \; 37.6352 \; 38.7433 \; 39.5075
\; 39.9211 \; 39.9803 \; 39.6846 \; 39.0367 \; 38.0423 \; 36.7103 \;
35.0524 \; 33.0833 \; 30.8207 \; 28.2844 \; 25.4971 \; 22.4836 \; 19.2704
\; 15.8861 \; 12.3609 \; 8.72598 \; 5.01358 \; 1.25668 \; -2.51135
\; -6.25713 \; -9.94735 \; -13.5493 \; -17.0309 \; -20.3614 \; -23.5112
\; -26.4523 \; -29.1586 \; -31.606 \; -33.773 \; -35.6401 \; -37.1909
\; -38.4117 \; -39.2914 \; -39.8224 \; -40 \; \;;
#X scalar y-plot 241 68 1 \; 40 \; 39.8225 \; 39.2915 \; 38.4118 \;
37.1911 \; 35.6403 \; 33.7731 \; 31.6062 \; 29.1588 \; 26.4525 \; 23.5114
\; 20.3617 \; 17.0312 \; 13.5496 \; 9.94764 \; 6.25742 \; 2.51167 \;
-1.25638 \; -5.01328 \; -8.72567 \; -12.3606 \; -15.8859 \; -19.2701
\; -22.4833 \; -25.4969 \; -28.2842 \; -30.8205 \; -33.0832 \; -35.0522
\; -36.7102 \; -38.0422 \; -39.0367 \; -39.6846 \; -39.9803 \; -39.9211
\; -39.5075 \; -38.7434 \; -37.6353 \; -36.1931 \; -34.4297 \; -32.3608
\; -30.0045 \; -27.382 \; -24.5164 \; -21.4332 \; -18.1597 \; -14.7251
\; -11.1598 \; -7.49541 \; -3.76447 \; -0.000152111 \; 3.76416 \; 7.49509
\; 11.1595 \; 14.7248 \; 18.1595 \; 21.4329 \; 24.5161 \; 27.3818 \;
30.0043 \; 32.3606 \; 34.4296 \; 36.193 \; 37.6352 \; 38.7433 \; 39.5075
\; 39.9211 \; 39.9803 \; 39.6846 \; 39.0367 \; 38.0423 \; 36.7103 \;
35.0524 \; 33.0833 \; 30.8207 \; 28.2844 \; 25.4971 \; 22.4836 \; 19.2704
\; 15.8861 \; 12.3609 \; 8.72598 \; 5.01358 \; 1.25668 \; -2.51135
\; -6.25713 \; -9.94735 \; -13.5493 \; -17.0309 \; -20.3614 \; -23.5112
\; -26.4523 \; -29.1586 \; -31.606 \; -33.773 \; -35.6401 \; -37.1909
\; -38.4117 \; -39.2914 \; -39.8224 \; -40 \; \;;
#X text 133 82 100;
#X text 46 80 0;
#X text 234 82 200;
#X coords 0 145 1 144 0 0 0;
#X restore 51 61 pd fig;
#X obj 170 42 templates;
#N canvas 31 324 468 394 z 1;
#X scalar rect 175 98 2 4 \;;
#X scalar rect 275 98 2 4 \;;
#X scalar haxis 50 100 300 297 \;;
#X scalar vaxis 75 50 100 97 \;;
#X scalar y-plot 75 100 1 \; 40 \; 39.8225 \; 39.2915 \; 38.4118 \;
37.1911 \; 35.6403 \; 33.7731 \; 31.6062 \; 29.1588 \; 26.4525 \; 23.5114
\; 20.3617 \; 17.0312 \; 13.5496 \; 9.94764 \; 6.25742 \; 2.51167 \;
-1.25638 \; -5.01328 \; -8.72567 \; -12.3606 \; -15.8859 \; -19.2701
\; -22.4833 \; -25.4969 \; -28.2842 \; -30.8205 \; -33.0832 \; -35.0522
\; -36.7102 \; -38.0422 \; -39.0367 \; -39.6846 \; -39.9803 \; -39.9211
\; -39.5075 \; -38.7434 \; -37.6353 \; -36.1931 \; -34.4297 \; -32.3608
\; -30.0045 \; -27.382 \; -24.5164 \; -21.4332 \; -18.1597 \; -14.7251
\; -11.1598 \; -7.49541 \; -3.76447 \; -0.000152111 \; 3.76416 \; 7.49509
\; 11.1595 \; 14.7248 \; 18.1595 \; 21.4329 \; 24.5161 \; 27.3818 \;
30.0043 \; 32.3606 \; 34.4296 \; 36.193 \; 37.6352 \; 38.7433 \; 39.5075
\; 39.9211 \; 39.9803 \; 39.6846 \; 39.0367 \; 38.0423 \; 36.7103 \;
35.0524 \; 33.0833 \; 30.8207 \; 28.2844 \; 25.4971 \; 22.4836 \; 19.2704
\; 15.8861 \; 12.3609 \; 8.72598 \; 5.01358 \; 1.25668 \; -2.51135
\; -6.25713 \; -9.94735 \; -13.5493 \; -17.0309 \; -20.3614 \; -23.5112
\; -26.4523 \; -29.1586 \; -31.606 \; -33.773 \; -35.6401 \; -37.1909
\; -38.4117 \; -39.2914 \; -39.8224 \; -40 \; \;;
#X scalar y-plot 175 100 1 \; 40 \; 39.8225 \; 39.2915 \; 38.4118 \;
37.1911 \; 35.6403 \; 33.7731 \; 31.6062 \; 29.1588 \; 26.4525 \; 23.5114
\; 20.3617 \; 17.0312 \; 13.5496 \; 9.94764 \; 6.25742 \; 2.51167 \;
-1.25638 \; -5.01328 \; -8.72567 \; -12.3606 \; -15.8859 \; -19.2701
\; -22.4833 \; -25.4969 \; -28.2842 \; -30.8205 \; -33.0832 \; -35.0522
\; -36.7102 \; -38.0422 \; -39.0367 \; -39.6846 \; -39.9803 \; -39.9211
\; -39.5075 \; -38.7434 \; -37.6353 \; -36.1931 \; -34.4297 \; -32.3608
\; -30.0045 \; -27.382 \; -24.5164 \; -21.4332 \; -18.1597 \; -14.7251
\; -11.1598 \; -7.49541 \; -3.76447 \; -0.000152111 \; 3.76416 \; 7.49509
\; 11.1595 \; 14.7248 \; 18.1595 \; 21.4329 \; 24.5161 \; 27.3818 \;
30.0043 \; 32.3606 \; 34.4296 \; 36.193 \; 37.6352 \; 38.7433 \; 39.5075
\; 39.9211 \; 39.9803 \; 39.6846 \; 39.0367 \; 38.0423 \; 36.7103 \;
35.0524 \; 33.0833 \; 30.8207 \; 28.2844 \; 25.4971 \; 22.4836 \; 19.2704
\; 15.8861 \; 12.3609 \; 8.72598 \; 5.01358 \; 1.25668 \; -2.51135
\; -6.25713 \; -9.94735 \; -13.5493 \; -17.0309 \; -20.3614 \; -23.5112
\; -26.4523 \; -29.1586 \; -31.606 \; -33.773 \; -35.6401 \; -37.1909
\; -38.4117 \; -39.2914 \; -39.8224 \; -40 \; \;;
#X scalar y-plot 275 100 1 \; 40 \; 39.8225 \; 39.2915 \; 38.4118 \;
37.1911 \; 35.6403 \; 33.7731 \; 31.6062 \; 29.1588 \; 26.4525 \; 23.5114
\; 20.3617 \; 17.0312 \; 13.5496 \; 9.94764 \; 6.25742 \; 2.51167 \;
-1.25638 \; -5.01328 \; -8.72567 \; -12.3606 \; -15.8859 \; -19.2701
\; -22.4833 \; -25.4969 \; -28.2842 \; -30.8205 \; -33.0832 \; -35.0522
\; -36.7102 \; -38.0422 \; -39.0367 \; -39.6846 \; -39.9803 \; -39.9211
\; -39.5075 \; -38.7434 \; -37.6353 \; -36.1931 \; -34.4297 \; -32.3608
\; -30.0045 \; -27.382 \; -24.5164 \; -21.4332 \; -18.1597 \; -14.7251
\; -11.1598 \; -7.49541 \; -3.76447 \; -0.000152111 \; 3.76416 \; 7.49509
\; 11.1595 \; 14.7248 \; 18.1595 \; 21.4329 \; 24.5161 \; 27.3818 \;
30.0043 \; 32.3606 \; 34.4296 \; 36.193 \; 37.6352 \; 38.7433 \; 39.5075
\; 39.9211 \; 39.9803 \; 39.6846 \; 39.0367 \; 38.0423 \; 36.7103 \;
35.0524 \; 33.0833 \; 30.8207 \; 28.2844 \; 25.4971 \; 22.4836 \; 19.2704
\; 15.8861 \; 12.3609 \; 8.72598 \; 5.01358 \; 1.25668 \; -2.51135
\; -6.25713 \; -9.94735 \; -13.5493 \; -17.0309 \; -20.3614 \; -23.5112
\; -26.4523 \; -29.1586 \; -31.606 \; -33.773 \; -35.6401 \; -37.1909
\; -38.4117 \; -39.2914 \; -39.8224 \; -40 \; \;;
#X coords 0 394 1 393 0 0 0;
#X restore 54 89 pd z;
#N canvas 320 183 953 630 make-fig 1;
#X msg 24 62 \; start pd-z \;;
#X obj 96 360 pack;
#X msg 96 391 \; y-plot-point \$1 \$2 \;;
#X msg 161 29 \; pd-z clear \; start pd-z;
#X msg 123 97 \; add-haxis 50 100 300 297 \; add-vaxis 75 50 100 97
;
#X obj 142 309 cos;
#X obj 96 243 scanner 100 3.14159;
#X obj 143 288 * 3;
#X msg 97 200 \; add-y-plot 101 75 100 1 \;;
#X obj 142 333 * 40;
#X msg 282 200 \; add-y-plot 101 175 100 1 \;;
#X msg 287 247 \; add-y-plot 101 275 100 1 \;;
#X msg 267 394 \; add-rect 175 98 2 4 \;;
#X msg 272 441 \; add-rect 275 98 2 4 \;;
#X connect 1 0 2 0;
#X connect 5 0 9 0;
#X connect 6 0 1 0;
#X connect 6 1 7 0;
#X connect 7 0 5 0;
#X connect 9 0 1 1;
#X restore 170 83 pd make-fig;
