#N struct h-seg float x float y float z float w;
#N struct v-seg float x float y float z float w;
#N struct d-curve-arrow float x float y float z float z2 float z3 float
h;
#N struct d-arrow float x float y float z;
#N struct frame float x float y float w float h;
#N struct xy-plot float x float y float w array z xy-point;
#N struct xy-point float x float y;
#N struct haxis float x float y float w float w-3;
#N struct rect float x float y float w float h;
#N struct seg float x float y float dx float dy float w;
#N struct vaxis float x float y float h float h-3;
#N struct xy-curve float x float y float w array z xy-point;
#N struct l-curve-arrow float x float y float z float z2 float z3 float
h;
#N struct circle2 float x float y float h float h2 float mh float mh2
;
#N struct circle float x float y float color float h float h2;
#N struct u-curve-arrow float x float y float z float z2 float z3 float
h;
#N struct r-curve-arrow float x float y float z float z2 float z3 float
h;
#N struct r-arrow float x float y float z;
#N struct l-arrow float x float y float z;
#N struct u-arrow float x float y float z;
#N struct y-plot float x float y float w array z y-point;
#N struct y-point float y;
#N struct thickcircle float x float y float color float h float h2
;
#N struct times float x float y;
#N struct plus float x float y;
#N struct minus float x float y;
#N struct divide float x float y;
#N canvas 94 461 329 179 10;
#N canvas 512 102 355 505 fig 1;
#X scalar h-seg 88 388 75 1 \;;
#X scalar v-seg 88 388 30 1 \;;
#X scalar v-seg 163 388 30 1 \;;
#X scalar h-seg 107 383 75 1 \;;
#X scalar v-seg 107 383 5 1 \;;
#X scalar v-seg 182 383 30 1 \;;
#X text 212 113 ...;
#X scalar d-curve-arrow 75 350 20 15 38 22 \;;
#X scalar d-arrow 73 308 12 \;;
#X scalar frame 43 320 62 29 \;;
#X text 69 172 FT;
#X scalar h-seg 126 378 75 1 \;;
#X scalar v-seg 126 378 5 1 \;;
#X scalar v-seg 201 378 30 1 \;;
#X scalar xy-plot 31 418 1 \; 0 0 \; 0 35 \; 3.535 31.465 \; 0 35 \;
-3.535 31.465 \; \;;
#X scalar xy-plot 32 419 1 \; 0 0 \; -19 -25 \; -19.6755 -20.0466 \;
-19 -25 \; -14.0466 -24.3245 \; \;;
#X scalar haxis 21 418 320 317 \;;
#X text 124 50 incoming sinusoid;
#X text 21 37 real;
#X text 8 113 imaginary;
#X scalar d-curve-arrow 184 349 17 11 33 -66 \;;
#X text 47 158 windowed;
#X scalar h-seg 144 282 75 1 \;;
#X scalar xy-plot 144 282 1 \; -3.558e-10 -1.98822e-09 \; 0.247086
-0.0131458 \; 0.492756 -0.0277054 \; 0.736986 -0.0435322 \; 0.979772
-0.0604538 \; 1.22114 -0.0782681 \; 1.46112 -0.0967575 \; 1.69978 -0.11568
\; 1.93721 -0.134779 \; 2.17352 -0.153784 \; 2.40883 -0.172411 \; 2.6433
-0.190369 \; 2.87711 -0.207368 \; 3.11043 -0.223119 \; 3.34347 -0.237337
\; 3.57645 -0.249749 \; 3.8096 -0.260099 \; 4.04314 -0.26815 \; 4.27733
-0.27369 \; 4.51239 -0.276537 \; 4.74857 -0.276544 \; 4.9861 -0.2736
\; 5.22519 -0.267638 \; 5.46605 -0.258632 \; 5.70886 -0.246608 \; 5.9538
-0.23164 \; 6.20099 -0.213855 \; 6.45055 -0.193431 \; 6.70256 -0.1706
\; 6.95703 -0.145647 \; 7.21399 -0.118907 \; 7.47339 -0.0907668 \;
7.73513 -0.0616588 \; 7.9991 -0.0320588 \; 8.26512 -0.00248167 \; 8.53296
0.0265237 \; 8.80236 0.0543807 \; 9.07301 0.0804907 \; 9.34455 0.104241
\; 9.6166 0.125013 \; 9.88871 0.142189 \; 10.1604 0.155162 \; 10.4312
0.163345 \; 10.7006 0.166181 \; 10.968 0.163151 \; 11.2329 0.153783
\; 11.4947 0.137667 \; 11.7529 0.114456 \; 12.0069 0.0838821 \; 12.2561
0.0457593 \; 12.5 -1.97955e-09 \; 12.7382 -0.0533873 \; 12.9701 -0.114287
\; 13.1954 -0.182467 \; 13.4138 -0.257579 \; 13.6249 -0.339158 \; 13.8286
-0.426608 \; 14.0246 -0.519214 \; 14.213 -0.616134 \; 14.3937 -0.716407
\; 14.5669 -0.818944 \; 14.7329 -0.922555 \; 14.892 -1.02593 \; 15.0446
-1.12765 \; 15.1913 -1.22624 \; 15.3327 -1.3201 \; 15.4696 -1.40759
\; 15.6029 -1.48701 \; 15.7335 -1.55661 \; 15.8627 -1.61462 \; 15.9914
-1.65927 \; 16.1211 -1.68878 \; 16.253 -1.70141 \; 16.3885 -1.69548
\; 16.5292 -1.66935 \; 16.6766 -1.62149 \; 16.8322 -1.55045 \; 16.9977
-1.45494 \; 17.1745 -1.33379 \; 17.3644 -1.18599 \; 17.5689 -1.01072
\; 17.7896 -0.807355 \; 18.0279 -0.575491 \; 18.2853 -0.314941 \; 18.5631
-0.0257583 \; 18.8625 0.29175 \; 19.1848 0.637017 \; 19.5308 1.00921
\; 19.9015 1.40724 \; 20.2975 1.82972 \; 20.7193 2.275 \; 21.1673 2.74117
\; 21.6417 3.22604 \; 22.1423 3.72718 \; 22.6689 4.24189 \; 23.2209
4.76727 \; 23.7978 5.30016 \; 24.3985 5.83724 \; 25.0219 6.37498 \;
25.6666 6.90971 \; 26.331 7.43761 \; 27.0132 7.95477 \; 27.7113 8.4572
\; 28.4229 8.94084 \; 29.1458 9.40165 \; 29.8772 9.83557 \; 30.6145
10.2386 \; 31.3548 10.6068 \; 32.095 10.9364 \; 32.832 11.2237 \; 33.5627
11.4652 \; 34.2838 11.6577 \; 34.9919 11.7981 \; 35.6839 11.8837 \;
36.3563 11.912 \; 37.006 11.8809 \; 37.6298 11.7886 \; 38.2245 11.6337
\; 38.7873 11.4152 \; 39.3153 11.1324 \; 39.8057 10.7852 \; 40.2562
10.3739 \; 40.6645 9.89913 \; 41.0285 9.362 \; 41.3465 8.76411 \; 41.617
8.10746 \; 41.8387 7.3945 \; 42.0107 6.62812 \; 42.1324 5.81155 \;
42.2036 4.94847 \; 42.2243 4.04292 \; 42.1948 3.09925 \; 42.1159 2.12218
\; 41.9885 1.11666 \; 41.8142 0.0879307 \; 41.5945 -0.958557 \; 41.3315
-2.01718 \; 41.0275 -3.08215 \; 40.6852 -4.14761 \; 40.3073 -5.20761
\; 39.897 -6.25621 \; 39.4577 -7.28745 \; 38.9929 -8.29548 \; 38.5065
-9.27455 \; 38.0023 -10.2191 \; 37.4845 -11.1236 \; 36.9572 -11.983
\; 36.4246 -12.7922 \; 35.891 -13.5468 \; 35.3607 -14.2424 \; 34.8381
-14.8752 \; 34.3274 -15.4416 \; 33.8327 -15.9385 \; 33.3581 -16.3634
\; 32.9076 -16.714 \; 32.4848 -16.9887 \; 32.0935 -17.1862 \; 31.737
-17.3058 \; 31.4183 -17.3474 \; 31.1405 -17.3111 \; 30.906 -17.1979
\; 30.7171 -17.0088 \; 30.576 -16.7458 \; 30.4842 -16.4109 \; 30.4431
-16.0068 \; 30.4537 -15.5366 \; 30.5166 -15.0037 \; 30.6323 -14.4119
\; 30.8006 -13.7654 \; 31.0212 -13.0685 \; 31.2935 -12.326 \; 31.6163
-11.5428 \; 31.9885 -10.7241 \; 32.4083 -9.87502 \; 32.8739 -9.00101
\; 33.383 -8.10749 \; 33.9334 -7.19995 \; 34.5223 -6.28382 \; 35.147
-5.36453 \; 35.8043 -4.44738 \; 36.4912 -3.53757 \; 37.2044 -2.64013
\; 37.9405 -1.75988 \; 38.696 -0.90142 \; 39.4674 -0.0691214 \; 40.2512
0.732982 \; 41.044 1.50112 \; 41.8421 2.23187 \; 42.6423 2.92215 \;
43.4411 3.56924 \; 44.2353 4.17078 \; 45.0219 4.72481 \; 45.7979 5.22973
\; 46.5605 5.68438 \; 47.3071 6.08793 \; 48.0353 6.43995 \; 48.7428
6.74039 \; 49.4278 6.98954 \; 50.0884 7.18808 \; 50.7232 7.33699 \;
51.3309 7.43758 \; 51.9105 7.49146 \; 52.4611 7.50048 \; 52.9822 7.4668
\; 53.4736 7.39274 \; 53.9351 7.28087 \; 54.3668 7.13389 \; 54.7692
6.95468 \; 55.1429 6.74621 \; 55.4884 6.51153 \; 55.8069 6.25377 \;
56.0994 5.97608 \; 56.3671 5.68161 \; 56.6114 5.37348 \; 56.8338 5.05479
\; 57.0358 4.72854 \; 57.2193 4.39764 \; 57.3858 4.0649 \; 57.5371
3.73299 \; 57.6751 3.4044 \; 57.8016 3.08151 \; 57.9184 2.76647 \;
58.0272 2.46127 \; 58.1299 2.16769 \; 58.2281 1.88731 \; 58.3234 1.62151
\; 58.4174 1.37142 \; 58.5117 1.13802 \; 58.6076 0.922035 \; 58.7063
0.724001 \; 58.809 0.54425 \; 58.9169 0.382926 \; 59.0308 0.23999 \;
59.1516 0.115225 \; 59.28 0.00825727 \; 59.4165 -0.0814401 \; 59.5617
-0.154525 \; 59.7157 -0.211782 \; 59.8789 -0.254098 \; 60.0514 -0.282456
\; 60.2332 -0.297911 \; 60.4241 -0.301582 \; 60.6241 -0.294632 \; 60.8327
-0.278256 \; 61.0497 -0.253663 \; 61.2746 -0.222066 \; 61.507 -0.184667
\; 61.7464 -0.142644 \; 61.992 -0.0971367 \; 62.2435 -0.049241 \; 62.5
-1.97954e-09 \; 62.761 0.0496117 \; 63.0258 0.0986913 \; 63.2938 0.146408
\; 63.5642 0.192019 \; 63.8366 0.234867 \; 64.1103 0.274381 \; 64.3846
0.310082 \; 64.6591 0.341579 \; 64.9333 0.368577 \; 65.2067 0.390861
\; 65.4788 0.408304 \; 65.7494 0.420859 \; 66.0181 0.428561 \; 66.2846
0.431507 \; 66.5487 0.429868 \; 66.8103 0.423871 \; 67.0692 0.413794
\; 67.3254 0.399964 \; 67.5789 0.382745 \; 67.8296 0.362532 \; 68.0777
0.339743 \; 68.3232 0.314815 \; 68.5664 0.288192 \; 68.8073 0.26032
\; 69.0462 0.231645 \; 69.2833 0.202598 \; 69.5187 0.173598 \; 69.7529
0.145041 \; 69.9859 0.117297 \; 70.2182 0.0907093 \; 70.4499 0.065585
\; 70.6813 0.0421969 \; 70.9126 0.0207791 \; 71.1441 0.00152653 \;
71.3761 -0.0154068 \; 71.6087 -0.0299073 \; 71.8421 -0.0419026 \; 72.0766
-0.0513598 \; 72.3122 -0.0582842 \; 72.5491 -0.0627176 \; 72.7874 -0.064737
\; 73.0271 -0.0644506 \; 73.2684 -0.0619947 \; 73.5113 -0.0575317 \;
73.7557 -0.0512466 \; 74.0017 -0.0433408 \; 74.2491 -0.0340313 \; 74.4981
-0.0235477 \; 74.7484 -0.0121248 \; 75 -1.9882e-09 \; \;;
#X scalar rect 144 280 2 4 \;;
#X scalar rect 156 280 2 4 \;;
#X scalar rect 169 280 2 4 \;;
#X scalar rect 181 280 2 4 \;;
#X scalar rect 194 280 2 4 \;;
#X scalar rect 206 280 2 4 \;;
#X scalar rect 219 280 2 4 \;;
#X scalar seg 182 282 -2.6619 -14.8752 2 \;;
#X scalar h-seg 36 282 75 1 \;;
#X scalar xy-plot 36 282 1 \; -1.40588e-09 -2.30859e-09 \; 0.240704
-0.0144702 \; 0.480409 -0.0289367 \; 0.719218 -0.0431588 \; 0.957253
-0.0568881 \; 1.19466 -0.0698674 \; 1.43158 -0.0818462 \; 1.6682 -0.092573
\; 1.9047 -0.101808 \; 2.14126 -0.109319 \; 2.37809 -0.114892 \; 2.61539
-0.118331 \; 2.85337 -0.119466 \; 3.09223 -0.118153 \; 3.33218 -0.114277
\; 3.5734 -0.107761 \; 3.81608 -0.0985627 \; 4.06039 -0.0866789 \;
4.30647 -0.0721484 \; 4.55446 -0.0550528 \; 4.80445 -0.0355179 \; 5.05654
-0.0137131 \; 5.31075 0.010148 \; 5.56712 0.0358088 \; 5.82562 0.0629717
\; 6.08621 0.0912996 \; 6.34878 0.12042 \; 6.61322 0.149926 \; 6.87937
0.179385 \; 7.14701 0.20834 \; 7.41592 0.236316 \; 7.68582 0.262826
\; 7.9564 0.28738 \; 8.22733 0.309486 \; 8.49825 0.328665 \; 8.76875
0.344453 \; 9.03845 0.356411 \; 9.30692 0.364132 \; 9.57371 0.367253
\; 9.8384 0.365455 \; 10.1005 0.358478 \; 10.3597 0.346125 \; 10.6155
0.328269 \; 10.8675 0.304862 \; 11.1154 0.275938 \; 11.3587 0.241617
\; 11.5973 0.202117 \; 11.8309 0.157747 \; 12.0593 0.108915 \; 12.2824
0.0561288 \; 12.5 -2.29853e-09 \; 12.7122 -0.0587659 \; 12.9192 -0.119367
\; 13.121 -0.180902 \; 13.3179 -0.242387 \; 13.5102 -0.302756 \; 13.6983
-0.360864 \; 13.8829 -0.415504 \; 14.0643 -0.465407 \; 14.2434 -0.509267
\; 14.4209 -0.545736 \; 14.5977 -0.573453 \; 14.7746 -0.591045 \; 14.9526
-0.597151 \; 15.1329 -0.590434 \; 15.3165 -0.569598 \; 15.5047 -0.533401
\; 15.6985 -0.480676 \; 15.8993 -0.410347 \; 16.1083 -0.321442 \; 16.3267
-0.213112 \; 16.5559 -0.0846496 \; 16.7969 0.0645049 \; 17.0511 0.23474
\; 17.3196 0.426262 \; 17.6034 0.639089 \; 17.9037 0.873033 \; 18.2212
1.12769 \; 18.5569 1.40246 \; 18.9114 1.69647 \; 19.2853 2.00868 \;
19.6791 2.33776 \; 20.0931 2.6822 \; 20.5273 3.04023 \; 20.9818 3.40989
\; 21.4563 3.78897 \; 21.9504 4.17508 \; 22.4636 4.56565 \; 22.9951
4.9579 \; 23.5438 5.34891 \; 24.1087 5.73563 \; 24.6883 6.11485 \;
25.2812 6.48329 \; 25.8855 6.8376 \; 26.4995 7.17436 \; 27.121 7.49014
\; 27.7478 7.7815 \; 28.3775 8.04506 \; 29.0078 8.27749 \; 29.6359
8.47554 \; 30.2592 8.6361 \; 30.8749 8.75621 \; 31.4801 8.8331 \; 32.0721
8.86419 \; 32.648 8.84716 \; 33.2048 8.77994 \; 33.7398 8.66076 \;
34.2501 8.48816 \; 34.7332 8.26101 \; 35.1864 7.97854 \; 35.6071 7.64033
\; 35.9933 7.24638 \; 36.3426 6.79704 \; 36.6531 6.29308 \; 36.9231
5.73567 \; 37.1511 5.12642 \; 37.3358 4.46727 \; 37.4763 3.76062 \;
37.5717 3.00924 \; 37.6218 2.21628 \; 37.6263 1.38527 \; 37.5855 0.520026
\; 37.4997 -0.375265 \; 37.3699 -1.29613 \; 37.1972 -2.23784 \; 36.9828
-3.19541 \; 36.7287 -4.16366 \; 36.4368 -5.13724 \; 36.1094 -6.11067
\; 35.7491 -7.07834 \; 35.3588 -8.03466 \; 34.9415 -8.97394 \; 34.5006
-9.89056 \; 34.0396 -10.779 \; 33.5622 -11.6337 \; 33.0722 -12.4494
\; 32.5736 -13.2211 \; 32.0706 -13.9437 \; 31.5672 -14.6127 \; 31.0677
-15.2238 \; 30.5762 -15.773 \; 30.097 -16.2565 \; 29.6342 -16.6713
\; 29.1919 -17.0145 \; 28.774 -17.2837 \; 28.3844 -17.477 \; 28.0268
-17.593 \; 27.7045 -17.6307 \; 27.421 -17.5897 \; 27.1791 -17.47 \;
26.9817 -17.2722 \; 26.8312 -16.9974 \; 26.7297 -16.647 \; 26.6793
-16.2232 \; 26.6814 -15.7283 \; 26.7372 -15.1654 \; 26.8475 -14.5377
\; 27.0129 -13.8491 \; 27.2335 -13.1037 \; 27.5092 -12.3059 \; 27.8393
-11.4605 \; 28.2229 -10.5726 \; 28.659 -9.64742 \; 29.1458 -8.69046
\; 29.6815 -7.70733 \; 30.264 -6.7038 \; 30.8908 -5.68564 \; 31.5592
-4.65871 \; 32.2664 -3.62883 \; 33.0092 -2.60176 \; 33.7842 -1.58319
\; 34.588 -0.578645 \; 35.4169 0.406497 \; 36.2673 1.36711 \; 37.1353
2.29828 \; 38.0171 3.19537 \; 38.9089 4.05405 \; 39.8067 4.87034 \;
40.7067 5.64058 \; 41.6052 6.36153 \; 42.4986 7.0303 \; 43.3831 7.64445
\; 44.2556 8.20191 \; 45.1126 8.70108 \; 45.9511 9.14073 \; 46.7683
9.52013 \; 47.5614 9.83891 \; 48.3282 10.0972 \; 49.0663 10.2953 \;
49.7738 10.4343 \; 50.4492 10.5153 \; 51.0909 10.5399 \; 51.698 10.5102
\; 52.2695 10.4282 \; 52.8048 10.2967 \; 53.3037 10.1183 \; 53.7662
9.89604 \; 54.1924 9.63325 \; 54.5827 9.33329 \; 54.938 8.99969 \;
55.2592 8.63611 \; 55.5473 8.24625 \; 55.8036 7.83389 \; 56.0298 7.40281
\; 56.2275 6.95676 \; 56.3983 6.49946 \; 56.5444 6.03454 \; 56.6677
5.56555 \; 56.7703 5.0959 \; 56.8543 4.62884 \; 56.9221 4.16748 \;
56.9757 3.71472 \; 57.0175 3.27326 \; 57.0496 2.84557 \; 57.0743 2.43392
\; 57.0936 2.04031 \; 57.1096 1.66649 \; 57.1243 1.31401 \; 57.1396
0.9841 \; 57.1573 0.677781 \; 57.179 0.395808 \; 57.2062 0.138693 \;
57.2404 -0.0932852 \; 57.2828 -0.300089 \; 57.3345 -0.48189 \; 57.3966
-0.639067 \; 57.4697 -0.772194 \; 57.5547 -0.882024 \; 57.652 -0.96947
\; 57.7619 -1.03559 \; 57.8848 -1.08158 \; 58.0208 -1.10873 \; 58.1697
-1.11844 \; 58.3315 -1.11216 \; 58.5058 -1.09143 \; 58.6924 -1.05779
\; 58.8907 -1.01283 \; 59.1002 -0.958122 \; 59.3203 -0.895243 \; 59.5503
-0.825733 \; 59.7893 -0.751091 \; 60.0368 -0.672762 \; 60.2917 -0.592121
\; 60.5532 -0.510472 \; 60.8206 -0.429028 \; 61.093 -0.348904 \; 61.3694
-0.271124 \; 61.6491 -0.196597 \; 61.9313 -0.126126 \; 62.2152 -0.0604001
\; 62.5 -2.29854e-09 \; 62.7851 0.0546105 \; 63.0698 0.103078 \; 63.3535
0.145154 \; 63.6358 0.180695 \; 63.9161 0.209661 \; 64.194 0.232099
\; 64.4693 0.248147 \; 64.7415 0.258021 \; 65.0106 0.26201 \; 65.2764
0.260469 \; 65.5387 0.253801 \; 65.7976 0.242464 \; 66.053 0.226948
\; 66.3051 0.207774 \; 66.554 0.185483 \; 66.7997 0.160628 \; 67.0426
0.133762 \; 67.2828 0.105441 \; 67.5206 0.076202 \; 67.7563 0.0465674
\; 67.9902 0.0170341 \; 68.2226 -0.0119307 \; 68.4538 -0.0398953 \;
68.6841 -0.0664666 \; 68.9138 -0.0912943 \; 69.1433 -0.114073 \; 69.3727
-0.134545 \; 69.6026 -0.1525 \; 69.8329 -0.167777 \; 70.0641 -0.180263
\; 70.2964 -0.189893 \; 70.5298 -0.196649 \; 70.7647 -0.200554 \; 71.0011
-0.201677 \; 71.2391 -0.200123 \; 71.4789 -0.196031 \; 71.7204 -0.189575
\; 71.9637 -0.180954 \; 72.2088 -0.17039 \; 72.4557 -0.158125 \; 72.7042
-0.144414 \; 72.9544 -0.129527 \; 73.2062 -0.113732 \; 73.4593 -0.0973052
\; 73.7138 -0.0805174 \; 73.9694 -0.063632 \; 74.2259 -0.0469034 \;
74.4834 -0.0305754 \; 74.7414 -0.0148726 \; 75 -2.30859e-09 \; \;;
#X scalar rect 36 280 2 4 \;;
#X scalar rect 48 280 2 4 \;;
#X scalar rect 61 280 2 4 \;;
#X scalar rect 73 280 2 4 \;;
#X scalar rect 86 280 2 4 \;;
#X scalar rect 98 280 2 4 \;;
#X scalar rect 111 280 2 4 \;;
#X scalar seg 74 282 -10.5183 -17.2722 2 \;;
#X scalar h-seg 244 281 75 1 \;;
#X scalar xy-plot 244 281 1 \; 9.02704e-10 -5.03178e-10 \; 0.255175
-0.00412081 \; 0.509346 -0.0102447 \; 0.762377 -0.0184051 \; 1.01414
-0.0286066 \; 1.26452 -0.0408204 \; 1.51343 -0.0549897 \; 1.76077 -0.071023
\; 2.0065 -0.0887994 \; 2.25058 -0.108164 \; 2.49298 -0.128933 \; 2.73372
-0.150891 \; 2.97283 -0.173797 \; 3.21038 -0.197385 \; 3.44645 -0.221368
\; 3.68116 -0.245437 \; 3.91464 -0.269273 \; 4.14707 -0.292543 \; 4.37862
-0.314908 \; 4.60951 -0.33603 \; 4.83997 -0.355575 \; 5.07025 -0.373216
\; 5.3006 -0.388645 \; 5.53131 -0.40157 \; 5.76265 -0.411728 \; 5.99491
-0.418889 \; 6.22836 -0.422857 \; 6.4633 -0.423479 \; 6.69998 -0.42065
\; 6.93867 -0.414316 \; 7.1796 -0.404476 \; 7.42299 -0.39119 \; 7.66902
-0.374578 \; 7.91785 -0.354824 \; 8.16958 -0.332174 \; 8.4243 -0.306942
\; 8.68204 -0.279505 \; 8.94278 -0.250301 \; 9.20646 -0.219833 \; 9.47294
-0.18866 \; 9.74206 -0.157393 \; 10.0136 -0.126693 \; 10.2872 -0.0972643
\; 10.5626 -0.0698467 \; 10.8394 -0.0452077 \; 11.1171 -0.0241348 \;
11.3952 -0.00742637 \; 11.6732 0.00411894 \; 11.9504 0.00971219 \;
12.2262 0.00858461 \; 12.5 -5.00981e-10 \; 12.771 -0.0167352 \; 13.0386
-0.0422599 \; 13.3019 -0.0771451 \; 13.5603 -0.121885 \; 13.8129 -0.176886
\; 14.0592 -0.242451 \; 14.2984 -0.318777 \; 14.5297 -0.405939 \; 14.7527
-0.503885 \; 14.9667 -0.612427 \; 15.1711 -0.731237 \; 15.3656 -0.859834
\; 15.5498 -0.997593 \; 15.7234 -1.14373 \; 15.8861 -1.29731 \; 16.0381
-1.45724 \; 16.1792 -1.62228 \; 16.3097 -1.79104 \; 16.4297 -1.96198
\; 16.5398 -2.13344 \; 16.6405 -2.30364 \; 16.7324 -2.47066 \; 16.8164
-2.63251 \; 16.8933 -2.78708 \; 16.9643 -2.93222 \; 17.0306 -3.06571
\; 17.0935 -3.1853 \; 17.1544 -3.28872 \; 17.2149 -3.37371 \; 17.2766
-3.43805 \; 17.3414 -3.47953 \; 17.4109 -3.49607 \; 17.4871 -3.48563
\; 17.5719 -3.44631 \; 17.6673 -3.37637 \; 17.7754 -3.2742 \; 17.898
-3.1384 \; 18.0372 -2.96776 \; 18.1949 -2.7613 \; 18.373 -2.51829 \;
18.5735 -2.23825 \; 18.7979 -1.92098 \; 19.0479 -1.56658 \; 19.3251
-1.17542 \; 19.6308 -0.748199 \; 19.9663 -0.285939 \; 20.3325 0.210043
\; 20.7303 0.738099 \; 21.1604 1.29627 \; 21.6231 1.88227 \; 22.1187
2.49354 \; 22.647 3.12719 \; 23.2079 3.78008 \; 23.8008 4.44879 \;
24.4249 5.12966 \; 25.079 5.8188 \; 25.762 6.51213 \; 26.4722 7.2054
\; 27.2078 7.89418 \; 27.9668 8.57397 \; 28.7469 9.24015 \; 29.5455
9.88807 \; 30.36 10.5131 \; 31.1874 11.1105 \; 32.0247 11.6758 \; 32.8686
12.2044 \; 33.7157 12.6919 \; 34.5625 13.1342 \; 35.4055 13.5273 \;
36.2411 13.8674 \; 37.0655 14.1509 \; 37.875 14.3748 \; 38.6661 14.536
\; 39.435 14.6322 \; 40.1783 14.6611 \; 40.8924 14.6211 \; 41.574 14.5108
\; 42.2201 14.3294 \; 42.8275 14.0765 \; 43.3934 13.7522 \; 43.9155
13.357 \; 44.3912 12.8918 \; 44.8186 12.3582 \; 45.1959 11.758 \; 45.5216
11.0938 \; 45.7947 10.3683 \; 46.0143 9.58488 \; 46.1799 8.74712 \;
46.2915 7.85913 \; 46.3492 6.92535 \; 46.3535 5.95053 \; 46.3055 4.93972
\; 46.2064 3.89827 \; 46.0577 2.83173 \; 45.8614 1.74585 \; 45.6197
0.646515 \; 45.3352 -0.460263 \; 45.0106 -1.56842 \; 44.6491 -2.67185
\; 44.2539 -3.7645 \; 43.8285 -4.84036 \; 43.3767 -5.89351 \; 42.9025
-6.91823 \; 42.4097 -7.90892 \; 41.9025 -8.86028 \; 41.3852 -9.76724
\; 40.862 -10.625 \; 40.3372 -11.4292 \; 39.8151 -12.1757 \; 39.2998
-12.8609 \; 38.7955 -13.4815 \; 38.3064 -14.0347 \; 37.8362 -14.518
\; 37.3888 -14.9297 \; 36.9677 -15.2683 \; 36.5764 -15.5328 \; 36.2179
-15.7228 \; 35.8952 -15.8383 \; 35.6109 -15.8799 \; 35.3674 -15.8484
\; 35.1666 -15.7454 \; 35.0104 -15.5727 \; 34.9002 -15.3325 \; 34.837
-15.0276 \; 34.8218 -14.6611 \; 34.8548 -14.2363 \; 34.9363 -13.757
\; 35.0661 -13.2272 \; 35.2437 -12.6511 \; 35.4682 -12.0332 \; 35.7387
-11.3782 \; 36.0537 -10.6908 \; 36.4115 -9.97588 \; 36.8104 -9.23849
\; 37.2482 -8.48354 \; 37.7225 -7.716 \; 38.231 -6.9408 \; 38.771 -6.16277
\; 39.3395 -5.38662 \; 39.9339 -4.61692 \; 40.551 -3.85805 \; 41.1878
-3.1142 \; 41.8412 -2.38929 \; 42.5082 -1.68702 \; 43.1855 -1.01078
\; 43.8701 -0.36369 \; 44.5591 0.251459 \; 45.2495 0.832197 \; 45.9383
1.37639 \; 46.6231 1.88223 \; 47.301 2.34827 \; 47.9698 2.7734 \; 48.627
3.15684 \; 49.2707 3.49816 \; 49.8989 3.79725 \; 50.5099 4.05431 \;
51.1022 4.26986 \; 51.6744 4.44468 \; 52.2255 4.57985 \; 52.7546 4.67669
\; 53.261 4.73673 \; 53.7443 4.76175 \; 54.2041 4.75369 \; 54.6404
4.71464 \; 55.0533 4.64687 \; 55.4431 4.55272 \; 55.8103 4.43464 \;
56.1555 4.29514 \; 56.4795 4.13678 \; 56.7832 3.96211 \; 57.0675 3.77369
\; 57.3337 3.57405 \; 57.5829 3.36567 \; 57.8164 3.15096 \; 58.0356
2.93222 \; 58.2419 2.71168 \; 58.4367 2.49143 \; 58.6214 2.27342 \;
58.7975 2.05948 \; 58.9664 1.85127 \; 59.1295 1.65027 \; 59.2881 1.45784
\; 59.4436 1.27512 \; 59.5973 1.10311 \; 59.7502 0.942615 \; 59.9036
0.794295 \; 60.0584 0.658618 \; 60.2156 0.535894 \; 60.376 0.42628
\; 60.5404 0.329782 \; 60.7095 0.24626 \; 60.8838 0.175448 \; 61.0637
0.116959 \; 61.2497 0.0702931 \; 61.4419 0.0348549 \; 61.6405 0.00996453
\; 61.8457 -0.00513133 \; 62.0574 -0.0112457 \; 62.2756 -0.00923725
\; 62.5 -5.00958e-10 \; 62.7305 0.0155512 \; 62.9667 0.0364921 \; 63.2084
0.0618986 \; 63.4551 0.0908606 \; 63.7064 0.122492 \; 63.9619 0.155935
\; 64.2211 0.190376 \; 64.4835 0.225046 \; 64.7486 0.259237 \; 65.0159
0.292293 \; 65.2849 0.323628 \; 65.5551 0.352721 \; 65.8261 0.379129
\; 66.0974 0.402469 \; 66.3685 0.422442 \; 66.6391 0.438816 \; 66.9088
0.45143 \; 67.1774 0.460194 \; 67.4444 0.465082 \; 67.7098 0.466131
\; 67.9732 0.463436 \; 68.2345 0.457147 \; 68.4937 0.447461 \; 68.7505
0.434616 \; 69.0051 0.41889 \; 69.2573 0.40059 \; 69.5073 0.38005 \;
69.7551 0.357619 \; 70.0007 0.33366 \; 70.2444 0.308545 \; 70.4863
0.282644 \; 70.7265 0.256324 \; 70.9652 0.22994 \; 71.2028 0.203837
\; 71.4392 0.178335 \; 71.6749 0.153736 \; 71.9099 0.130316 \; 72.1446
0.10832 \; 72.3792 0.0879638 \; 72.6138 0.0694286 \; 72.8486 0.0528623
\; 73.084 0.0383797 \; 73.3199 0.0260587 \; 73.5566 0.0159431 \; 73.7943
0.00804384 \; 74.033 0.00233887 \; 74.2728 -0.0012241 \; 74.5139 -0.00272608
\; 74.7563 -0.0022745 \; 75 -5.03143e-10 \; \;;
#X scalar rect 244 279 2 4 \;;
#X scalar rect 256 279 2 4 \;;
#X scalar rect 269 279 2 4 \;;
#X scalar rect 281 279 2 4 \;;
#X scalar rect 294 279 2 4 \;;
#X scalar rect 306 279 2 4 \;;
#X scalar rect 319 279 2 4 \;;
#X scalar seg 282 281 6.75385 -3.7645 2 \;;
#X scalar xy-plot 37 282 1 \; 0 0 \; 0 14 \; 2.828 11.172 \; 0 14 \;
-2.828 11.172 \; \;;
#X scalar xy-plot 245 281 1 \; 0 0 \; -10 -10 \; -10 -6.0006 \; -10
-10 \; -6.0006 -10 \; \;;
#X scalar xy-plot 145 282 1 \; 0 0 \; 0 14 \; 2.828 11.172 \; 0 14
\; -2.828 11.172 \; \;;
#X scalar xy-plot 245 282 1 \; 0 0 \; 0 14 \; 2.828 11.172 \; 0 14
\; -2.828 11.172 \; \;;
#X scalar d-arrow 179 308 12 \;;
#X scalar frame 149 320 62 29 \;;
#X text 175 172 FT;
#X text 153 158 windowed;
#X scalar d-arrow 281 307 12 \;;
#X scalar frame 251 319 62 29 \;;
#X text 277 173 FT;
#X text 255 159 windowed;
#X scalar d-curve-arrow 285 348 22 20 30 -145 \;;
#X scalar haxis 81 115 180 177 \;;
#X scalar vaxis 171 25 180 177 \;;
#X scalar xy-plot 171 115 1 \; 0 0 \; -70 -20 \; -67.5722 -15.6299
\; -70 -20 \; -65.6299 -22.4278 \; \;;
#X scalar xy-plot 171 115 1 \; 0 0 \; -35 -63 \; -36.3734 -58.1931
\; -35 -63 \; -30.1931 -61.6266 \; \;;
#X scalar xy-plot 171 115 1 \; 0 0 \; 20 -70 \; 15.6299 -67.5722 \;
20 -70 \; 22.4278 -65.6299 \; \;;
#X text 269 378 real;
#X text 178 306 imaginary;
#X text 162 246 S[1 \, 3];
#X text 266 246 S[2 \, 3];
#X text 57 244 S[0 \, 3];
#X text 48 404 S[0 \, 3];
#X text 78 448 S[1 \, 3];
#X text 191 463 S[2 \, 3];
#X scalar xy-curve 132 89 1 \; 0 -9.33 \; 0 -9.33 \; -6 0 \; -6 -12
\; 0 -1.66 \; \;;
#X text 133 414 H;
#X scalar xy-curve 194 111 1 \; -58.5317 -9.27043 \; -56.7302 -13.6196
\; -54.2706 -17.6335 \; -51.2133 -21.2131 \; -47.6336 -24.2704 \; -43.6198
-26.7301 \; \;;
#X text 67 16 (a);
#X text 64 293 (b);
#X scalar xy-plot 31 419 1 \; 0 10 \; 3.50632 12.1871 \; 6.85265 13.5963
\; 9.88921 14.1376 \; 12.486 13.7764 \; 14.5411 12.5357 \; 15.9871
10.4948 \; 16.7956 7.78404 \; 16.9788 4.57634 \; 16.5888 1.07651 \;
15.7144 -2.49204 \; 14.4752 -5.90151 \; 13.0142 -8.93426 \; 11.4884
-11.3967 \; 10.0591 -13.1316 \; 8.88142 -14.0283 \; 8.09429 -14.0294
\; 7.81182 -13.135 \; 8.11589 -11.4021 \; 9.05091 -8.94136 \; 10.621
-5.90984 \; 12.7899 -2.50106 \; 15.4828 1.06737 \; 18.5917 4.56767
\; 21.9821 7.77639 \; 25.5013 10.4887 \; 28.9884 12.5315 \; 32.2848
13.7743 \; 35.2439 14.1378 \; 37.7405 13.5988 \; 39.6792 12.1918 \;
41 10.0065 \; 41.6824 7.1824 \; 41.7468 3.89983 \; 41.2528 0.368306
\; 40.2958 -3.18672 \; 39.0008 -6.53832 \; 37.5142 -9.47255 \; 35.9948
-11.8021 \; 34.6034 -13.3782 \; 33.4926 -14.1004 \; 32.7973 -13.9224
\; 32.6255 -12.8558 \; 33.0522 -10.9684 \; 34.1139 -8.38089 \; 35.8067
-5.25837 \; 38.0864 -1.80019 \; 40.8712 1.77291 \; 44.0472 5.23283
\; 47.4756 8.35872 \; 51.0013 10.951 \; 54.4631 12.8443 \; 57.7038
13.9176 \; 60.5804 14.1025 \; 62.9731 13.3871 \; 64.793 11.8172 \;
65.9877 9.49296 \; 66.545 6.5627 \; 66.4929 3.21352 \; 65.8986 -0.340816
\; 64.864 -3.87338 \; 63.5189 -7.15869 \; 62.013 -9.98702 \; 60.5062
-12.1778 \; 59.1587 -13.5913 \; 58.1202 -14.1371 \; 57.5209 -13.7805
\; 57.4628 -12.5442 \; 58.0136 -10.5071 \; 59.2018 -7.79935 \; 61.0155
-4.59369 \; 63.4027 -1.09481 \; 66.275 2.47399 \; 69.5126 5.88485 \;
72.9729 8.92003 \; 76.4988 11.3858 \; 79.929 13.1248 \; 83.1083 14.0259
\; 85.8978 14.0317 \; 88.183 13.1418 \; 89.8821 11.4129 \; 90.9504
8.95556 \; 91.3835 5.92648 \; 91.2175 2.51911 \; 90.527 -1.04909 \;
89.4199 -4.5503 \; 88.0306 -7.76107 \; 86.5117 -10.4764 \; 85.0239
-12.523 \; 83.7262 -13.7701 \; 82.765 -14.1382 \; 82.2658 -13.6039
\; 82.3241 -12.2011 \; 83 -10.0194 \; 84.3143 -7.19819 \; 86.2469 -3.91747
\; 88.7383 -0.386645 \; 91.6931 3.16883 \; 94.9868 6.52205 \; 98.4728
9.45895 \; 101.993 11.792 \; 105.385 13.3723 \; 108.498 14.099 \; 111.195
13.9257 \; 113.37 12.8634 \; 114.946 10.98 \; 115.888 8.39566 \; 116.198
5.2754 \; 115.922 1.81837 \; 115.139 -1.75473 \; 113.965 -5.2158 \;
112.537 -8.34393 \; 111.012 -10.9394 \; 109.549 -12.8366 \; 108.307
-13.9143 \; 107.428 -14.1038 \; 107.033 -13.3931 \; 107.21 -11.8273
\; 108.012 -9.50654 \; 109.451 -6.57893 \; 111.5 -3.23137 \; 114.092
0.322488 \; 117.125 3.85573 \; 120.469 7.14287 \; 123.974 9.97402 \;
127.481 12.1685 \; 130.83 13.5862 \; 133.87 14.1366 \; 136.472 13.7846
\; 138.533 12.5526 \; 139.986 10.5194 \; 140.801 7.81461 \; 140.99
4.61105 \; 140.606 1.11308 \; 139.736 -2.45593 \; 138.5 -5.86818 \;
137.04 -8.90582 \; 135.514 -11.375 \; 134.083 -13.1179 \; 132.902 -14.0236
\; 132.11 -14.034 \; 131.822 -13.1485 \; 132.12 -11.4238 \; 133.048
-8.96976 \; 134.612 -5.94315 \; 136.775 -2.53715 \; 139.463 1.03081
\; 142.568 4.53297 \; 145.957 7.74571 \; 149.475 10.4641 \; 152.964
12.5144 \; 156.263 13.7659 \; 159.226 14.1387 \; 161.728 13.6089 \;
163.673 12.2103 \; 165 10.0324 \; 165.689 7.21401 \; 165.759 3.9351
\; 165.271 0.404998 \; 164.318 -3.15096 \; 163.026 -6.50582 \; 161.54
-9.44529 \; 160.02 -11.7819 \; 158.627 -13.3663 \; 157.512 -14.0975
\; 156.812 -13.9288 \; 156.635 -12.871 \; 157.055 -10.9915 \; 158.11
-8.41039 \; 159.797 -5.29243 \; 162.071 -1.83658 \; 164.851 1.73651
\; 168.023 5.19875 \; 171.45 8.32908 \; 174.975 10.9278 \; 178.439
12.8289 \; 181.682 13.911 \; 184.563 14.1052 \; 186.962 13.3989 \;
188.788 11.8373 \; 189.989 9.52008 \; 190.553 6.59512 \; 190.507 3.24922
\; 189.917 -0.304159 \; 188.887 -3.83812 \; 187.544 -7.12707 \; 186.039
-9.96102 \; 184.531 -12.1591 \; 183.181 -13.5811 \; 182.139 -14.1361
\; 181.535 -13.7887 \; 181.471 -12.5611 \; 182.015 -10.5316 \; 183.197
-7.82991 \; 185.004 -4.6284 \; 187.386 -1.13138 \; 190.254 2.43785
\; 193.488 5.85151 \; 196.947 8.89159 \; 200.473 11.364 \; 203.905
13.1111 \; 207.088 14.0212 \; 209.882 14.0362 \; 212.173 13.1553 \;
213.878 11.4346 \; 214.953 8.98391 \; 215.392 5.95975 \; 215.232 2.55521
\; 214.547 -1.0125 \; 213.443 -4.51557 \; 212.056 -7.73039 \; 210.538
-10.4517 \; 209.049 -12.5059 \; 207.748 -13.7617 \; 206.783 -14.1391
\; 206.278 -13.6139 \; 206.331 -12.2196 \; 207 -10.0453 \; 208.308
-7.2297 \; 210.234 -3.95263 \; 212.72 -0.423296 \; 215.671 3.13311
\; 218.962 6.48952 \; 222.447 9.43162 \; 225.967 11.7717 \; 229.362
13.3603 \; 232.478 14.0961 \; 235.18 13.932 \; 237.361 12.8786 \; 238.944
11.0031 \; 239.892 8.42514 \; 240.209 5.30945 \; 239.937 1.85478 \;
239.16 -1.71829 \; 237.988 -5.18167 \; 236.563 -8.31432 \; 235.037
-10.9161 \; 233.573 -12.8212 \; 232.328 -13.9077 \; 231.445 -14.1065
\; 231.044 -13.4048 \; 231.215 -11.8474 \; 232.01 -9.53365 \; 233.444
-6.61136 \; 235.487 -3.26708 \; 238.073 0.285803 \; 241.102 3.82044
\; 244.444 7.1112 \; 247.948 9.94798 \; 251.456 12.1498 \; 254.807
13.576 \; 257.852 14.1355 \; 260.458 13.7927 \; 262.525 12.5695 \;
263.984 10.5438 \; 264.806 7.84519 \; 265.001 4.64569 \; 264.622 1.14963
\; 263.757 -2.41982 \; 262.524 -5.83479 \; 261.066 -8.87731 \; 259.54
-11.3531 \; 258.107 -13.1042 \; 256.923 -14.0188 \; 256.126 -14.0385
\; 255.832 -13.162 \; 256.124 -11.4454 \; 257.046 -8.99808 \; 258.603
-5.9764 \; 260.76 -2.57321 \; 263.444 0.994238 \; 266.545 4.49812 \;
269.931 7.71505 \; 273.449 10.4394 \; 276.939 12.4973 \; 280.241 13.7575
\; 283.208 14.1394 \; 285.715 13.6188 \; 287.666 12.2288 \; 289 10.0582
\; 289.695 7.24547 \; 289.772 3.97026 \; 289.288 0.441593 \; 288.34
-3.11526 \; 287.05 -6.47315 \; 285.566 -9.41793 \; 284.046 -11.7615
\; 282.65 -13.3543 \; 281.532 -14.0946 \; 280.827 -13.9351 \; 280.644
-12.8861 \; 281.058 -11.0145 \; 282.106 -8.43984 \; 283.786 -5.32636
\; 286.055 -1.87287 \; 288.83 1.70017 \; 292 5.16459 \; 295.424 8.29942
\; 298.95 10.9045 \; 302.414 12.8134 \; 305.661 13.9044 \; \;;
#X scalar xy-plot 37 282 1 \; 0 0 \; -10 -10 \; -10 -6.0006 \; -10
-10 \; -6.0006 -10 \; \;;
#X scalar xy-plot 145 282 1 \; 0 0 \; -10 -10 \; -10 -6.0006 \; -10
-10 \; -6.0006 -10 \; \;;
#X coords 0 505 1 504 0 0 0;
#X restore 51 61 pd fig;
#X obj 170 42 templates;
#N canvas 89 327 439 332 z 0;
#X scalar haxis 40 100 320 317 \;;
#X scalar xy-plot 50 100 1 \; 0 10 \; 3.50632 12.1871 \; 6.85265 13.5963
\; 9.88921 14.1376 \; 12.486 13.7764 \; 14.5411 12.5357 \; 15.9871
10.4948 \; 16.7956 7.78404 \; 16.9788 4.57634 \; 16.5888 1.07651 \;
15.7144 -2.49204 \; 14.4752 -5.90151 \; 13.0142 -8.93426 \; 11.4884
-11.3967 \; 10.0591 -13.1316 \; 8.88142 -14.0283 \; 8.09429 -14.0294
\; 7.81182 -13.135 \; 8.11589 -11.4021 \; 9.05091 -8.94136 \; 10.621
-5.90984 \; 12.7899 -2.50106 \; 15.4828 1.06737 \; 18.5917 4.56767
\; 21.9821 7.77639 \; 25.5013 10.4887 \; 28.9884 12.5315 \; 32.2848
13.7743 \; 35.2439 14.1378 \; 37.7405 13.5988 \; 39.6792 12.1918 \;
41 10.0065 \; 41.6824 7.1824 \; 41.7468 3.89983 \; 41.2528 0.368306
\; 40.2958 -3.18672 \; 39.0008 -6.53832 \; 37.5142 -9.47255 \; 35.9948
-11.8021 \; 34.6034 -13.3782 \; 33.4926 -14.1004 \; 32.7973 -13.9224
\; 32.6255 -12.8558 \; 33.0522 -10.9684 \; 34.1139 -8.38089 \; 35.8067
-5.25837 \; 38.0864 -1.80019 \; 40.8712 1.77291 \; 44.0472 5.23283
\; 47.4756 8.35872 \; 51.0013 10.951 \; 54.4631 12.8443 \; 57.7038
13.9176 \; 60.5804 14.1025 \; 62.9731 13.3871 \; 64.793 11.8172 \;
65.9877 9.49296 \; 66.545 6.5627 \; 66.4929 3.21352 \; 65.8986 -0.340816
\; 64.864 -3.87338 \; 63.5189 -7.15869 \; 62.013 -9.98702 \; 60.5062
-12.1778 \; 59.1587 -13.5913 \; 58.1202 -14.1371 \; 57.5209 -13.7805
\; 57.4628 -12.5442 \; 58.0136 -10.5071 \; 59.2018 -7.79935 \; 61.0155
-4.59369 \; 63.4027 -1.09481 \; 66.275 2.47399 \; 69.5126 5.88485 \;
72.9729 8.92003 \; 76.4988 11.3858 \; 79.929 13.1248 \; 83.1083 14.0259
\; 85.8978 14.0317 \; 88.183 13.1418 \; 89.8821 11.4129 \; 90.9504
8.95556 \; 91.3835 5.92648 \; 91.2175 2.51911 \; 90.527 -1.04909 \;
89.4199 -4.5503 \; 88.0306 -7.76107 \; 86.5117 -10.4764 \; 85.0239
-12.523 \; 83.7262 -13.7701 \; 82.765 -14.1382 \; 82.2658 -13.6039
\; 82.3241 -12.2011 \; 83 -10.0194 \; 84.3143 -7.19819 \; 86.2469 -3.91747
\; 88.7383 -0.386645 \; 91.6931 3.16883 \; 94.9868 6.52205 \; 98.4728
9.45895 \; 101.993 11.792 \; 105.385 13.3723 \; 108.498 14.099 \; 111.195
13.9257 \; 113.37 12.8634 \; 114.946 10.98 \; 115.888 8.39566 \; 116.198
5.2754 \; 115.922 1.81837 \; 115.139 -1.75473 \; 113.965 -5.2158 \;
112.537 -8.34393 \; 111.012 -10.9394 \; 109.549 -12.8366 \; 108.307
-13.9143 \; 107.428 -14.1038 \; 107.033 -13.3931 \; 107.21 -11.8273
\; 108.012 -9.50654 \; 109.451 -6.57893 \; 111.5 -3.23137 \; 114.092
0.322488 \; 117.125 3.85573 \; 120.469 7.14287 \; 123.974 9.97402 \;
127.481 12.1685 \; 130.83 13.5862 \; 133.87 14.1366 \; 136.472 13.7846
\; 138.533 12.5526 \; 139.986 10.5194 \; 140.801 7.81461 \; 140.99
4.61105 \; 140.606 1.11308 \; 139.736 -2.45593 \; 138.5 -5.86818 \;
137.04 -8.90582 \; 135.514 -11.375 \; 134.083 -13.1179 \; 132.902 -14.0236
\; 132.11 -14.034 \; 131.822 -13.1485 \; 132.12 -11.4238 \; 133.048
-8.96976 \; 134.612 -5.94315 \; 136.775 -2.53715 \; 139.463 1.03081
\; 142.568 4.53297 \; 145.957 7.74571 \; 149.475 10.4641 \; 152.964
12.5144 \; 156.263 13.7659 \; 159.226 14.1387 \; 161.728 13.6089 \;
163.673 12.2103 \; 165 10.0324 \; 165.689 7.21401 \; 165.759 3.9351
\; 165.271 0.404998 \; 164.318 -3.15096 \; 163.026 -6.50582 \; 161.54
-9.44529 \; 160.02 -11.7819 \; 158.627 -13.3663 \; 157.512 -14.0975
\; 156.812 -13.9288 \; 156.635 -12.871 \; 157.055 -10.9915 \; 158.11
-8.41039 \; 159.797 -5.29243 \; 162.071 -1.83658 \; 164.851 1.73651
\; 168.023 5.19875 \; 171.45 8.32908 \; 174.975 10.9278 \; 178.439
12.8289 \; 181.682 13.911 \; 184.563 14.1052 \; 186.962 13.3989 \;
188.788 11.8373 \; 189.989 9.52008 \; 190.553 6.59512 \; 190.507 3.24922
\; 189.917 -0.304159 \; 188.887 -3.83812 \; 187.544 -7.12707 \; 186.039
-9.96102 \; 184.531 -12.1591 \; 183.181 -13.5811 \; 182.139 -14.1361
\; 181.535 -13.7887 \; 181.471 -12.5611 \; 182.015 -10.5316 \; 183.197
-7.82991 \; 185.004 -4.6284 \; 187.386 -1.13138 \; 190.254 2.43785
\; 193.488 5.85151 \; 196.947 8.89159 \; 200.473 11.364 \; 203.905
13.1111 \; 207.088 14.0212 \; 209.882 14.0362 \; 212.173 13.1553 \;
213.878 11.4346 \; 214.953 8.98391 \; 215.392 5.95975 \; 215.232 2.55521
\; 214.547 -1.0125 \; 213.443 -4.51557 \; 212.056 -7.73039 \; 210.538
-10.4517 \; 209.049 -12.5059 \; 207.748 -13.7617 \; 206.783 -14.1391
\; 206.278 -13.6139 \; 206.331 -12.2196 \; 207 -10.0453 \; 208.308
-7.2297 \; 210.234 -3.95263 \; 212.72 -0.423296 \; 215.671 3.13311
\; 218.962 6.48952 \; 222.447 9.43162 \; 225.967 11.7717 \; 229.362
13.3603 \; 232.478 14.0961 \; 235.18 13.932 \; 237.361 12.8786 \; 238.944
11.0031 \; 239.892 8.42514 \; 240.209 5.30945 \; 239.937 1.85478 \;
239.16 -1.71829 \; 237.988 -5.18167 \; 236.563 -8.31432 \; 235.037
-10.9161 \; 233.573 -12.8212 \; 232.328 -13.9077 \; 231.445 -14.1065
\; 231.044 -13.4048 \; 231.215 -11.8474 \; 232.01 -9.53365 \; 233.444
-6.61136 \; 235.487 -3.26708 \; 238.073 0.285803 \; 241.102 3.82044
\; 244.444 7.1112 \; 247.948 9.94798 \; 251.456 12.1498 \; 254.807
13.576 \; 257.852 14.1355 \; 260.458 13.7927 \; 262.525 12.5695 \;
263.984 10.5438 \; 264.806 7.84519 \; 265.001 4.64569 \; 264.622 1.14963
\; 263.757 -2.41982 \; 262.524 -5.83479 \; 261.066 -8.87731 \; 259.54
-11.3531 \; 258.107 -13.1042 \; 256.923 -14.0188 \; 256.126 -14.0385
\; 255.832 -13.162 \; 256.124 -11.4454 \; 257.046 -8.99808 \; 258.603
-5.9764 \; 260.76 -2.57321 \; 263.444 0.994238 \; 266.545 4.49812 \;
269.931 7.71505 \; 273.449 10.4394 \; 276.939 12.4973 \; 280.241 13.7575
\; 283.208 14.1394 \; 285.715 13.6188 \; 287.666 12.2288 \; 289 10.0582
\; 289.695 7.24547 \; 289.772 3.97026 \; 289.288 0.441593 \; 288.34
-3.11526 \; 287.05 -6.47315 \; 285.566 -9.41793 \; 284.046 -11.7615
\; 282.65 -13.3543 \; 281.532 -14.0946 \; 280.827 -13.9351 \; 280.644
-12.8861 \; 281.058 -11.0145 \; 282.106 -8.43984 \; 283.786 -5.32636
\; 286.055 -1.87287 \; 288.83 1.70017 \; 292 5.16459 \; 295.424 8.29942
\; 298.95 10.9045 \; 302.414 12.8134 \; 305.661 13.9044 \; \;;
#X coords 0 332 1 331 0 0 0;
#X restore 54 89 pd z;
#N canvas 0 111 922 797 make-fig 0;
#X msg 129 15 \; start pd-z \;;
#X msg 26 22 \; pd-z clear \; start pd-z;
#X msg 175 600 \; add-y-plot 101 175 100 1 \;;
#X msg 174 633 \; add-y-plot 101 275 100 1 \;;
#X msg 17 575 \; add-rect 175 98 2 4 \;;
#X msg 16 610 \; add-rect 275 98 2 4 \;;
#X msg 18 132 \; add-y-plot 301 50 100 1 \;;
#X msg 20 99 \; add-haxis 40 100 320 317;
#X msg 220 66 \; add-y-plot 76 50 100 1 \;;
#X msg 220 27 \; add-h-seg 50 100 75 1 \;;
#X msg 404 25 \; add-v-seg 50 100 30 1 \;;
#X msg 404 62 \; add-v-seg 125 100 30 1 \;;
#X text 206 468 window function;
#X obj 209 398 pack;
#X msg 209 423 \; y-plot-point \$1 \$2 \;;
#X obj 261 331 cos;
#X msg 209 250 \; add-y-plot 26 50 100 1 \;;
#X obj 209 283 scanner 25 6.283;
#X obj 261 353 * -0.5;
#X obj 261 373 + 0.5;
#X obj 260 398 * 10;
#X msg 25 171 \; add-xy-plot 301 50 100 1 \;;
#X msg 424 433 \; xy-plot-point \$1 \$2 \$3 \;;
#X obj 424 411 pack 0 0 0;
#X obj 425 335 t f f;
#X obj 455 362 +;
#X obj 487 364 +;
#N canvas 286 170 395 455 function 0;
#X obj 93 46 inlet;
#X obj 29 382 outlet;
#X obj 96 384 outlet;
#X obj 31 239 t f f;
#X obj 31 266 cos;
#X obj 61 266 sin;
#X obj 30 298 *;
#X obj 78 302 *;
#X obj 122 298 dirichlet 100;
#X obj 220 297 dirichlet 100;
#X obj 219 244 dirichlet 100;
#X obj 27 161 t f f f;
#X obj 30 340 +;
#X obj 62 342 +;
#X obj 81 94 t f f;
#X obj 31 210 expr 1+3.14159*$f1;
#X obj 31 188 - 13;
#X obj 122 322 expr 0.5*($f2+0.5*($f1+$f3));
#X obj 241 96 inlet;
#X obj 122 277 - 4;
#X obj 217 276 - 3;
#X obj 219 221 - 2;
#X connect 0 0 14 0;
#X connect 3 0 4 0;
#X connect 3 1 5 0;
#X connect 4 0 6 0;
#X connect 5 0 7 0;
#X connect 6 0 12 0;
#X connect 7 0 13 0;
#X connect 8 0 17 0;
#X connect 9 0 17 1;
#X connect 10 0 17 2;
#X connect 11 0 16 0;
#X connect 11 1 19 0;
#X connect 11 2 20 0;
#X connect 11 2 21 0;
#X connect 12 0 1 0;
#X connect 13 0 2 0;
#X connect 14 0 11 0;
#X connect 15 0 3 0;
#X connect 16 0 15 0;
#X connect 17 0 6 1;
#X connect 17 0 7 1;
#X connect 18 0 16 1;
#X connect 19 0 8 0;
#X connect 20 0 9 0;
#X connect 21 0 10 0;
#X restore 448 301 pd function;
#X msg 23 392 \; xy-plot-point \$1 \$2 \$3 \;;
#X obj 22 370 pack 0 0 0;
#X obj 23 294 t f f;
#X obj 53 321 +;
#X obj 85 323 +;
#X text 17 431 incoming complex waveform;
#X obj 51 262 expr 10*cos($f1);
#X obj 74 287 expr 10*sin($f1);
#X msg 16 487 \; add-vector 50 100 0 35 5;
#X msg 16 524 \; add-vector 50 100 19 25 5;
#X msg 424 209 \; add-xy-plot 301 50 100 1 \;;
#X floatatom 542 338 5 0 0 0 - - -;
#X msg 542 303 0;
#X msg 570 303 0.25;
#X msg 603 303 0.5;
#X obj 458 387 * 0.25;
#X obj 507 388 * 0.25;
#X obj 425 251 scanner 300 6;
#X msg 424 170 \; add-h-seg 50 100 75 1 \;;
#X obj 439 644 +;
#N canvas 286 170 395 455 function 0;
#X obj 93 46 inlet;
#X obj 29 382 outlet;
#X obj 96 384 outlet;
#X obj 31 239 t f f;
#X obj 31 266 cos;
#X obj 61 266 sin;
#X obj 30 298 *;
#X obj 78 302 *;
#X obj 122 298 dirichlet 100;
#X obj 220 297 dirichlet 100;
#X obj 219 244 dirichlet 100;
#X obj 27 161 t f f f;
#X obj 30 340 +;
#X obj 62 342 +;
#X obj 81 94 t f f;
#X obj 31 210 expr 1+3.14159*$f1;
#X obj 31 188 - 13;
#X obj 122 322 expr 0.5*($f2+0.5*($f1+$f3));
#X obj 241 96 inlet;
#X obj 122 277 - 4;
#X obj 217 276 - 3;
#X obj 219 221 - 2;
#X connect 0 0 14 0;
#X connect 3 0 4 0;
#X connect 3 1 5 0;
#X connect 4 0 6 0;
#X connect 5 0 7 0;
#X connect 6 0 12 0;
#X connect 7 0 13 0;
#X connect 8 0 17 0;
#X connect 9 0 17 1;
#X connect 10 0 17 2;
#X connect 11 0 16 0;
#X connect 11 1 19 0;
#X connect 11 2 20 0;
#X connect 11 2 21 0;
#X connect 12 0 1 0;
#X connect 13 0 2 0;
#X connect 14 0 11 0;
#X connect 15 0 3 0;
#X connect 16 0 15 0;
#X connect 17 0 6 1;
#X connect 17 0 7 1;
#X connect 18 0 16 1;
#X connect 19 0 8 0;
#X connect 20 0 9 0;
#X connect 21 0 10 0;
#X restore 400 614 pd function;
#X floatatom 500 634 5 0 0 0 - - -;
#X msg 500 599 0;
#X msg 528 599 0.25;
#X msg 561 599 0.5;
#X obj 410 667 * 0.25;
#X obj 459 668 * 0.25;
#X obj 412 703 pack 0 0;
#X msg 376 571 3;
#X obj 399 643 + 0;
#X msg 122 62 \; pd-z vis 1;
#X msg 421 472 \; add-rect 50 98 2 4 \; add-rect 62 98 2 4 \; add-rect
75 98 2 4 \; add-rect 87 98 2 4 \; add-rect 100 98 2 4 \; add-rect
112 98 2 4 \; add-rect 125 98 2 4;
#X msg 412 725 \; add-seg 88 100 \$2 \$1 2 \;;
#X msg 421 99 \; add-vector 50 100 0 14 4;
#X msg 421 136 \; add-vector 50 100 10 10 4;
#X msg 693 272 \; add-vector 100 100 -70 -20 5;
#X msg 686 377 \; add-vector 100 100 20 -70 5;
#X msg 688 322 \; add-vector 100 100 -35 -63 5;
#X msg 693 183 \; add-haxis 10 100 180 177;
#X msg 693 224 \; add-vaxis 100 10 180 177;
#X msg 695 536 \; add-arc 6 30 22;
#X obj 23 213 scanner 300 76;
#X connect 13 0 14 0;
#X connect 15 0 18 0;
#X connect 17 0 13 0;
#X connect 17 1 15 0;
#X connect 18 0 19 0;
#X connect 19 0 20 0;
#X connect 20 0 13 1;
#X connect 23 0 22 0;
#X connect 24 0 23 0;
#X connect 24 1 25 0;
#X connect 25 0 43 0;
#X connect 26 0 44 0;
#X connect 27 0 26 0;
#X connect 27 1 25 1;
#X connect 27 1 26 1;
#X connect 29 0 28 0;
#X connect 30 0 29 0;
#X connect 30 1 31 0;
#X connect 31 0 29 1;
#X connect 32 0 29 2;
#X connect 34 0 32 0;
#X connect 35 0 31 1;
#X connect 35 0 32 1;
#X connect 39 0 27 1;
#X connect 40 0 39 0;
#X connect 41 0 39 0;
#X connect 42 0 39 0;
#X connect 43 0 23 1;
#X connect 44 0 23 2;
#X connect 45 0 24 0;
#X connect 45 1 27 0;
#X connect 47 0 54 0;
#X connect 48 0 47 0;
#X connect 48 1 47 1;
#X connect 48 1 57 0;
#X connect 49 0 48 1;
#X connect 50 0 49 0;
#X connect 51 0 49 0;
#X connect 52 0 49 0;
#X connect 53 0 55 1;
#X connect 54 0 55 0;
#X connect 55 0 60 0;
#X connect 56 0 48 0;
#X connect 57 0 53 0;
#X connect 69 0 30 0;
#X connect 69 1 34 0;
#X connect 69 2 35 0;
#X restore 170 83 pd make-fig;
