#N canvas 0 0 291 178 10;
#X obj 68 56 *~;
#X obj 68 103 cos~;
#X obj 68 83 +~ 0.1;
#X msg 153 103 0;
#X msg 153 83 0.1;
#X msg 153 123 0.25;
#X obj 123 38 osc~;
#X text 152 64 symmetry;
#X text 198 101 even;
#X text 206 122 odd;
#X text 188 82 mixed;
#X text 114 13 (frequency);
#X text 121 26 |;
#X text 66 44 |;
#X text 51 32 (index);
#X text 51 130 (OUT);
#X text 66 117 |;
#X connect 0 0 2 0;
#X connect 2 0 1 0;
#X connect 3 0 2 1;
#X connect 4 0 2 1;
#X connect 5 0 2 1;
#X connect 6 0 0 1;
