#N struct haxis float x float y float w float w-3;
#N struct vaxis float x float y float h float h-3;
#N struct v-seg float x float y float z float w;
#N struct y-plot float x float y float w array z y-point;
#N struct y-point float y;
#N struct xy-curve float x float y float w array z xy-point;
#N struct xy-point float x float y;
#N struct h-seg float x float y float z float w;
#N struct rect float x float y float w float h;
#N struct xy-plot float x float y float w array z xy-point;
#N struct d-curve-arrow float x float y float z float z2 float z3 float
h;
#N struct circle float x float y float color float h float h2;
#N struct u-curve-arrow float x float y float z float z2 float z3 float
h;
#N struct r-curve-arrow float x float y float z float z2 float z3 float
h;
#N struct r-arrow float x float y float z;
#N struct l-arrow float x float y float z;
#N struct u-arrow float x float y float z;
#N struct d-arrow float x float y float z;
#N struct frame float x float y float w float h;
#N canvas 457 116 329 179 10;
#N canvas 54 304 356 320 fig 1;
#X scalar haxis 24 251 300 297 \;;
#X scalar vaxis 177 221 90 87 \;;
#X scalar v-seg 137 246 10 3 \;;
#X scalar v-seg 219 246 10 3 \;;
#X scalar y-plot 49 252 1 \; 0 \; 0 \; 0 \; 0 \; 0 \; 0 \; 0 \; 0 \;
0 \; 0 \; 0 \; 0 \; 0 \; 0 \; 0 \; 0 \; 0 \; 0 \; 0 \; 0 \; 0 \; 0
\; 0 \; 0 \; 0 \; 0 \; 0 \; 0 \; 0 \; 0 \; 0 \; 0 \; 0 \; 0 \; 0 \;
0 \; 0 \; 0 \; 0 \; 0 \; 0 \; 0 \; 0 \; 0 \; 0 \; 0 \; 0 \; 0 \; 0
\; 0 \; 0 \; 0 \; 0 \; 0 \; 0 \; 0 \; 0 \; 0 \; 0 \; 0 \; 0 \; 0 \;
0 \; 0 \; 0 \; 0 \; 0 \; 0 \; 0 \; 0 \; 0 \; 0 \; 0 \; 0 \; 0 \; 0
\; 0 \; 0 \; 0 \; 0 \; 0 \; 0 \; 0 \; 0 \; 0 \; 0 \; 0.00656843 \;
0.0413346 \; 0.107237 \; 0.206641 \; 0.342916 \; 0.520328 \; 0.74391
\; 1.0193 \; 1.35256 \; 1.75001 \; 2.21796 \; 2.76254 \; 3.38948 \;
4.10386 \; 4.90991 \; 5.81083 \; 6.80858 \; 7.90376 \; 9.09543 \; 10.381
\; 11.7563 \; 13.2154 \; 14.7505 \; 16.3522 \; 18.0096 \; 19.7102 \;
21.44 \; 23.1841 \; 24.9264 \; 26.6501 \; 28.3379 \; 29.9724 \; 31.536
\; 33.0115 \; 34.3825 \; 35.6332 \; 36.7491 \; 37.717 \; 38.5254 \;
39.1646 \; 39.6268 \; 39.9064 \; 40 \; 39.9064 \; 39.6268 \; 39.1646
\; 38.5254 \; 37.7169 \; 36.749 \; 35.6331 \; 34.3824 \; 33.0114 \;
31.5358 \; 29.9722 \; 28.3378 \; 26.6499 \; 24.9262 \; 23.1839 \; 21.4398
\; 19.71 \; 18.0094 \; 16.352 \; 14.7503 \; 13.2152 \; 11.7562 \; 10.3809
\; 9.09527 \; 7.90361 \; 6.80844 \; 5.8107 \; 4.90979 \; 4.10375 \;
3.38938 \; 2.76244 \; 2.21786 \; 1.74992 \; 1.35249 \; 1.01923 \; 0.743854
\; 0.520283 \; 0.34288 \; 0.206615 \; 0.107218 \; 0.0413239 \; 0.00656366
\; 0 \; 0 \; 0 \; 0 \; 0 \; 0 \; 0 \; 0 \; 0 \; 0 \; 0 \; 0 \; 0 \;
0 \; 0 \; 0 \; 0 \; 0 \; 0 \; 0 \; 0 \; 0 \; 0 \; 0 \; 0 \; 0 \; 0
\; 0 \; 0 \; 0 \; 0 \; 0 \; 0 \; 0 \; 0 \; 0 \; 0 \; 0 \; 0 \; 0 \;
0 \; 0 \; 0 \; 0 \; 0 \; 0 \; 0 \; 0 \; 0 \; 0 \; 0 \; 0 \; 0 \; 0
\; 0 \; 0 \; 0 \; 0 \; 0 \; 0 \; 0 \; 0 \; 0 \; 0 \; 0 \; 0 \; 0 \;
0 \; 0 \; 0 \; 0 \; 0 \; 0 \; 0 \; 0 \; 0 \; 0 \; 0 \; 0 \; 0 \; 0
\; 0 \; 0 \; 0 \; 0 \; \;;
#X scalar xy-curve 212 239 1 \; 0 -2 \; 2 0 \; 4 2 \; 6 0 \; 8 -2 \;
10 0 \; 12 2 \; \;;
#X scalar v-seg 215 232 7 1 \;;
#X scalar v-seg 220 232 5 1 \;;
#X scalar xy-curve 130 240 1 \; 0 -2 \; 2 0 \; 4 2 \; 6 0 \; 8 -2 \;
10 0 \; 12 2 \; \;;
#X scalar v-seg 133 233 7 1 \;;
#X scalar v-seg 138 233 5 1 \;;
#X scalar h-seg 123 236 5 1 \;;
#X scalar haxis 25 51 300 297 \;;
#X scalar rect 50 50 1 2 \;;
#X scalar rect 53 50 1 2 \;;
#X scalar rect 56 50 1 2 \;;
#X scalar rect 59 50 1 2 \;;
#X scalar rect 62 50 1 2 \;;
#X scalar rect 65 50 1 2 \;;
#X scalar rect 68 50 1 2 \;;
#X scalar rect 71 50 1 2 \;;
#X scalar rect 74 50 1 2 \;;
#X scalar rect 77 50 1 2 \;;
#X scalar rect 80 50 1 2 \;;
#X scalar rect 83 51 1 1 \;;
#X scalar rect 86 51 1 3 \;;
#X scalar rect 89 51 1 6 \;;
#X scalar rect 92 51 1 10 \;;
#X scalar rect 95 51 1 15 \;;
#X scalar rect 98 51 1 20 \;;
#X scalar rect 101 51 1 24 \;;
#X scalar rect 104 51 1 27 \;;
#X scalar rect 107 51 1 29 \;;
#X scalar rect 110 51 1 30 \;;
#X scalar rect 113 51 1 29 \;;
#X scalar rect 116 51 1 27 \;;
#X scalar rect 119 51 1 24 \;;
#X scalar rect 122 51 1 20 \;;
#X scalar rect 125 51 1 15 \;;
#X scalar rect 128 51 1 10 \;;
#X scalar rect 131 51 1 6 \;;
#X scalar rect 134 51 1 3 \;;
#X scalar rect 137 51 1 1 \;;
#X scalar rect 140 50 1 2 \;;
#X scalar rect 143 50 1 2 \;;
#X scalar rect 146 50 1 2 \;;
#X scalar rect 149 50 1 2 \;;
#X scalar rect 152 50 1 2 \;;
#X scalar rect 155 50 1 2 \;;
#X scalar rect 158 50 1 2 \;;
#X scalar rect 161 50 1 2 \;;
#X scalar rect 164 50 1 2 \;;
#X scalar rect 167 50 1 2 \;;
#X scalar rect 170 50 1 2 \;;
#X scalar rect 173 50 1 2 \;;
#X scalar rect 176 50 1 2 \;;
#X scalar rect 179 50 1 2 \;;
#X scalar rect 182 50 1 2 \;;
#X scalar rect 185 50 1 2 \;;
#X scalar rect 188 50 1 2 \;;
#X scalar rect 191 50 1 2 \;;
#X scalar rect 194 50 1 2 \;;
#X scalar rect 197 50 1 2 \;;
#X scalar rect 200 50 1 2 \;;
#X scalar rect 203 51 1 1 \;;
#X scalar rect 206 51 1 3 \;;
#X scalar rect 209 51 1 6 \;;
#X scalar rect 212 51 1 10 \;;
#X scalar rect 215 51 1 15 \;;
#X scalar rect 218 51 1 20 \;;
#X scalar rect 221 51 1 24 \;;
#X scalar rect 224 51 1 27 \;;
#X scalar rect 227 51 1 29 \;;
#X scalar rect 230 51 1 30 \;;
#X scalar rect 233 51 1 29 \;;
#X scalar rect 236 51 1 27 \;;
#X scalar rect 239 51 1 24 \;;
#X scalar rect 242 51 1 20 \;;
#X scalar rect 245 51 1 15 \;;
#X scalar rect 248 51 1 10 \;;
#X scalar rect 251 51 1 6 \;;
#X scalar rect 254 51 1 3 \;;
#X scalar rect 257 51 1 1 \;;
#X scalar rect 260 50 1 2 \;;
#X scalar rect 263 50 1 2 \;;
#X scalar rect 266 50 1 2 \;;
#X scalar rect 269 50 1 2 \;;
#X scalar rect 272 50 1 2 \;;
#X scalar rect 275 50 1 2 \;;
#X scalar rect 278 50 1 2 \;;
#X scalar rect 281 50 1 2 \;;
#X scalar rect 284 50 1 2 \;;
#X scalar rect 287 50 1 2 \;;
#X scalar haxis 25 157 300 297 \;;
#X scalar rect 50 156 1 2 \;;
#X scalar rect 53 156 1 2 \;;
#X scalar rect 56 157 1 1 \;;
#X scalar rect 59 157 1 2 \;;
#X scalar rect 62 157 1 3 \;;
#X scalar rect 65 157 1 4 \;;
#X scalar rect 68 157 1 6 \;;
#X scalar rect 71 157 1 8 \;;
#X scalar rect 74 157 1 10 \;;
#X scalar rect 77 157 1 13 \;;
#X scalar rect 80 157 1 15 \;;
#X scalar rect 83 157 1 17 \;;
#X scalar rect 86 157 1 20 \;;
#X scalar rect 89 157 1 22 \;;
#X scalar rect 92 157 1 24 \;;
#X scalar rect 95 157 1 26 \;;
#X scalar rect 98 157 1 27 \;;
#X scalar rect 101 157 1 28 \;;
#X scalar rect 104 157 1 29 \;;
#X scalar rect 107 157 1 30 \;;
#X scalar rect 110 157 1 30 \;;
#X scalar rect 113 157 1 30 \;;
#X scalar rect 116 157 1 29 \;;
#X scalar rect 119 157 1 28 \;;
#X scalar rect 122 157 1 27 \;;
#X scalar rect 125 157 1 26 \;;
#X scalar rect 128 157 1 24 \;;
#X scalar rect 131 157 1 22 \;;
#X scalar rect 134 157 1 20 \;;
#X scalar rect 137 157 1 17 \;;
#X scalar rect 140 157 1 15 \;;
#X scalar rect 143 157 1 13 \;;
#X scalar rect 146 157 1 10 \;;
#X scalar rect 149 157 1 8 \;;
#X scalar rect 152 157 1 6 \;;
#X scalar rect 155 157 1 4 \;;
#X scalar rect 158 157 1 3 \;;
#X scalar rect 161 157 1 2 \;;
#X scalar rect 164 157 1 1 \;;
#X scalar rect 167 156 1 2 \;;
#X scalar rect 170 156 1 2 \;;
#X scalar rect 173 156 1 2 \;;
#X scalar rect 176 157 1 1 \;;
#X scalar rect 179 157 1 2 \;;
#X scalar rect 182 157 1 3 \;;
#X scalar rect 185 157 1 4 \;;
#X scalar rect 188 157 1 6 \;;
#X scalar rect 191 157 1 8 \;;
#X scalar rect 194 157 1 10 \;;
#X scalar rect 197 157 1 13 \;;
#X scalar rect 200 157 1 15 \;;
#X scalar rect 203 157 1 17 \;;
#X scalar rect 206 157 1 20 \;;
#X scalar rect 209 157 1 22 \;;
#X scalar rect 212 157 1 24 \;;
#X scalar rect 215 157 1 26 \;;
#X scalar rect 218 157 1 27 \;;
#X scalar rect 221 157 1 28 \;;
#X scalar rect 224 157 1 29 \;;
#X scalar rect 227 157 1 30 \;;
#X scalar rect 230 157 1 30 \;;
#X scalar rect 233 157 1 30 \;;
#X scalar rect 236 157 1 29 \;;
#X scalar rect 239 157 1 28 \;;
#X scalar rect 242 157 1 27 \;;
#X scalar rect 245 157 1 26 \;;
#X scalar rect 248 157 1 24 \;;
#X scalar rect 251 157 1 22 \;;
#X scalar rect 254 157 1 20 \;;
#X scalar rect 257 157 1 17 \;;
#X scalar rect 260 157 1 15 \;;
#X scalar rect 263 157 1 13 \;;
#X scalar rect 266 157 1 10 \;;
#X scalar rect 269 157 1 8 \;;
#X scalar rect 272 157 1 6 \;;
#X scalar rect 275 157 1 4 \;;
#X scalar rect 278 157 1 3 \;;
#X scalar rect 281 157 1 2 \;;
#X scalar rect 284 157 1 1 \;;
#X scalar rect 287 156 1 2 \;;
#X scalar vaxis 49 118 80 77 \;;
#X scalar vaxis 49 13 80 77 \;;
#X text 58 27 (a);
#X text 61 117 (b);
#X text 59 225 (c);
#X coords 0 320 1 319 0 0 0;
#X restore 51 61 pd fig;
#X obj 170 42 templates;
#N canvas 458 141 875 732 make-tables 0;
#X obj 45 160 line~;
#X obj 124 290 cos~;
#N canvas 0 0 450 300 graph1 0;
#X array pulse-output 882 float 0;
#X coords 0 1.02 882 -1.02 200 130 1;
#X restore 461 516 graph;
#X floatatom 153 480 0 0 0 0 - - -;
#N canvas 159 26 495 266 output 0;
#X obj 338 160 t b;
#X obj 338 110 f;
#X obj 338 60 inlet;
#X text 344 29 mute;
#X obj 338 185 f;
#X msg 425 178 0;
#X msg 338 85 bang;
#X obj 338 135 moses 1;
#X obj 425 153 t b f;
#X obj 397 117 moses 1;
#X obj 83 148 dbtorms;
#X obj 397 92 r master-lvl;
#X obj 83 42 r master-lvl;
#X obj 338 210 s master-lvl;
#X obj 22 181 inlet~;
#X obj 199 41 inlet;
#X text 199 18 level;
#X obj 199 100 s master-lvl;
#X msg 96 65 set \$1;
#X obj 96 89 outlet;
#X msg 214 64 \; pd dsp 1;
#X obj 83 194 line~;
#X obj 22 212 *~;
#X obj 22 241 dac~;
#X obj 83 171 pack 0 50;
#X text 20 158 audio;
#X text 93 110 show level;
#X connect 0 0 4 0;
#X connect 1 0 7 0;
#X connect 2 0 6 0;
#X connect 4 0 13 0;
#X connect 5 0 13 0;
#X connect 6 0 1 0;
#X connect 7 0 0 0;
#X connect 7 1 8 0;
#X connect 8 0 5 0;
#X connect 9 1 4 1;
#X connect 10 0 24 0;
#X connect 11 0 1 1;
#X connect 11 0 9 0;
#X connect 12 0 10 0;
#X connect 12 0 18 0;
#X connect 14 0 22 0;
#X connect 15 0 17 0;
#X connect 15 0 20 0;
#X connect 18 0 19 0;
#X connect 21 0 22 1;
#X connect 22 0 23 0;
#X connect 22 0 23 1;
#X connect 24 0 21 0;
#X restore 124 508 pd output;
#X msg 184 477 MUTE;
#X obj 45 136 pack 0 50;
#X floatatom 45 35 0 0 0 0 - - -;
#X obj 123 195 -~ 0.5;
#X obj 123 221 *~;
#X obj 45 61 / 10;
#X obj 45 85 moses 0;
#X msg 45 109 0;
#X obj 122 244 clip~ -0.5 0.5;
#X obj 124 452 hip~ 5;
#N canvas 0 0 450 300 graph1 0;
#X array spectrum 128 float 0;
#X coords 0 0.5 128 0 256 130 1;
#X restore 434 293 graph;
#X text 40 17 bandwidth;
#X obj 197 430 tabwrite~ pulse-output;
#X msg 187 392 bang;
#X text 225 393 <-- click to graph;
#X obj 45 185 +~ 1;
#N canvas 204 17 358 238 fft 0;
#X obj 47 17 inlet~;
#X obj 145 164 tabwrite~ spectrum;
#X obj 209 100 inlet;
#X obj 46 78 rfft~;
#X obj 46 111 *~;
#X obj 77 111 *~;
#X obj 46 141 sqrt~;
#X obj 191 45 block~ 1024 1;
#X obj 46 48 /~ 1024;
#X obj 46 168 rmstodb~;
#X obj 148 199 tabwrite~ log-spectrum;
#X connect 0 0 8 0;
#X connect 2 0 1 0;
#X connect 2 0 10 0;
#X connect 3 0 4 0;
#X connect 3 0 4 1;
#X connect 3 1 5 0;
#X connect 3 1 5 1;
#X connect 4 0 6 0;
#X connect 5 0 6 0;
#X connect 6 0 9 0;
#X connect 6 0 1 0;
#X connect 8 0 3 0;
#X connect 9 0 10 0;
#X restore 135 430 pd fft;
#X obj 123 171 phasor~ 172.266;
#X text 68 -30 PULSE SPECTRUM MEASUREMENT;
#X text 461 649 ---- 0.02 seconds ----;
#X text 226 481 <-- output;
#X obj 121 78 samplerate~;
#X obj 121 105 / 1024;
#X obj 193 49 bng 15 250 50 0 empty empty empty 0 -6 0 8 -262144 -1
-1;
#X obj 120 133 * 4;
#X obj 247 102 expr 2048/$f1;
#X obj 248 136 del;
#X msg 212 75 0;
#N canvas 0 0 450 300 graph1 0;
#X array log-spectrum 128 float 0;
#X coords 0 100 128 0 256 130 1;
#X restore 539 85 graph;
#X msg 367 -28 \; log-spectrum ylabel -10 0 20 40 60 80 100;
#X obj 66 280 *~ 2;
#X obj 126 389 +~;
#X obj 66 304 cos~;
#X obj 132 331 *~ 0.5;
#X obj 187 328 sig~ 0.409;
#X obj 66 330 *~ 0.091;
#X msg 268 237 0 0.5 0.5;
#X obj 267 260 unpack 0 0 0;
#X msg 348 236 0.091 0.5 0.409;
#X connect 0 0 20 0;
#X connect 1 0 38 0;
#X connect 3 0 4 1;
#X connect 4 0 3 0;
#X connect 5 0 4 2;
#X connect 6 0 0 0;
#X connect 7 0 10 0;
#X connect 8 0 9 0;
#X connect 9 0 13 0;
#X connect 10 0 11 0;
#X connect 11 0 12 0;
#X connect 11 1 6 0;
#X connect 12 0 6 0;
#X connect 13 0 1 0;
#X connect 13 0 35 0;
#X connect 14 0 4 0;
#X connect 18 0 17 0;
#X connect 18 0 21 1;
#X connect 20 0 9 1;
#X connect 22 0 8 0;
#X connect 26 0 27 0;
#X connect 26 0 30 0;
#X connect 27 0 29 0;
#X connect 28 0 26 0;
#X connect 28 0 32 0;
#X connect 29 0 22 0;
#X connect 30 0 31 0;
#X connect 31 0 18 0;
#X connect 32 0 22 1;
#X connect 35 0 37 0;
#X connect 36 0 21 0;
#X connect 36 0 14 0;
#X connect 36 0 17 0;
#X connect 37 0 40 0;
#X connect 38 0 36 0;
#X connect 39 0 36 1;
#X connect 40 0 36 0;
#X connect 41 0 42 0;
#X connect 42 0 40 1;
#X connect 42 1 38 1;
#X connect 42 2 39 0;
#X connect 43 0 42 0;
#X restore 170 63 pd make-tables;
#N canvas 276 244 1020 533 xfer-to-fig 0;
#X msg 23 17 \; pd-z clear;
#X msg 21 56 \; start pd-z \;;
#X obj 90 339 until;
#X obj 92 314 t b b;
#X obj 93 369 f;
#X msg 144 330 0;
#X obj 179 350 + 1;
#X obj 93 408 t f f;
#X obj 93 460 pack;
#X obj 92 291 bng 15 250 50 0 empty empty empty 0 -6 0 8 -262144 -1
-1;
#X obj 179 373 sel 255;
#X obj 146 409 tabread pulse-output;
#X msg 93 491 \; y-plot-point \$1 \$2 \;;
#X obj 43 505 print;
#X msg 48 108 \; add-haxis 50 275 300 297;
#X msg 91 257 \; add-y-plot 256 75 276 1 \;;
#X msg 50 180 \; add-v-seg 75 270 10 3 \;;
#X msg 51 212 \; add-v-seg 331 270 10 3 \;;
#X obj 292 132 until;
#X obj 292 110 t b b;
#X obj 318 157 f;
#X msg 334 109 0;
#X obj 365 140 + 1;
#X obj 318 189 t f f;
#X obj 292 90 bng 15 250 50 0 empty empty empty 0 -6 0 8 -262144 -1
-1;
#X obj 316 227 expr 75 + 3 * $f1;
#X obj 333 268 expr max(-3.14159 \, min(3.14159 \, 2*3.14159*$f1))
;
#X obj 369 501 print;
#X obj 365 162 sel 80;
#X obj 339 292 expr 0.5*(1 + cos($f1));
#X obj 450 216 expr ($f1)/40;
#X obj 360 316 expr int(30*$f1 + 0.5);
#X obj 315 319 swap;
#X obj 316 344 pack;
#X obj 315 366 route 0;
#X msg 358 394 \; add-rect \$2 75 1 \$1 \;;
#X msg 315 434 \; add-rect \$1 74 1 2 \;;
#X obj 657 135 until;
#X obj 657 113 t b b;
#X obj 683 160 f;
#X msg 699 112 0;
#X obj 730 143 + 1;
#X obj 683 192 t f f;
#X obj 657 93 bng 15 250 50 0 empty empty empty 0 -6 0 8 -262144 -1
-1;
#X obj 681 230 expr 75 + 3 * $f1;
#X obj 698 271 expr max(-3.14159 \, min(3.14159 \, 2*3.14159*$f1))
;
#X obj 730 165 sel 80;
#X obj 704 295 expr 0.5*(1 + cos($f1));
#X obj 815 243 expr $f1 - int($f1) - 0.5;
#X obj 815 219 expr ($f1)/40;
#X obj 725 319 expr int(30*$f1 + 0.5);
#X obj 680 322 swap;
#X obj 681 347 pack;
#X obj 680 369 route 0;
#X msg 723 397 \; add-rect \$2 175 1 \$1 \;;
#X msg 680 436 \; add-rect \$1 174 1 2 \;;
#X obj 450 240 expr 2*($f1 - int($f1) - 0.5);
#X obj 146 463 * 40;
#X msg 49 144 \; add-vaxis 75 245 90 87;
#X msg 290 26 \; add-haxis 50 75 300 297 \; add-vaxis 75 35 80 77;
#X msg 655 29 \; add-haxis 50 175 300 297 \; add-vaxis 75 135 80 77
;
#X connect 2 0 4 0;
#X connect 3 0 2 0;
#X connect 3 1 5 0;
#X connect 4 0 6 0;
#X connect 4 0 7 0;
#X connect 5 0 4 1;
#X connect 6 0 4 1;
#X connect 6 0 10 0;
#X connect 7 0 8 0;
#X connect 7 1 11 0;
#X connect 8 0 12 0;
#X connect 9 0 3 0;
#X connect 10 0 2 1;
#X connect 11 0 57 0;
#X connect 18 0 20 0;
#X connect 19 0 18 0;
#X connect 19 1 21 0;
#X connect 20 0 22 0;
#X connect 20 0 23 0;
#X connect 21 0 20 1;
#X connect 22 0 20 1;
#X connect 22 0 28 0;
#X connect 23 0 25 0;
#X connect 23 1 30 0;
#X connect 24 0 19 0;
#X connect 25 0 32 0;
#X connect 26 0 29 0;
#X connect 28 0 18 1;
#X connect 29 0 31 0;
#X connect 30 0 56 0;
#X connect 31 0 32 1;
#X connect 32 0 33 0;
#X connect 32 1 33 1;
#X connect 33 0 34 0;
#X connect 34 0 36 0;
#X connect 34 1 35 0;
#X connect 37 0 39 0;
#X connect 38 0 37 0;
#X connect 38 1 40 0;
#X connect 39 0 41 0;
#X connect 39 0 42 0;
#X connect 40 0 39 1;
#X connect 41 0 39 1;
#X connect 41 0 46 0;
#X connect 42 0 44 0;
#X connect 42 1 49 0;
#X connect 43 0 38 0;
#X connect 44 0 51 0;
#X connect 45 0 47 0;
#X connect 46 0 37 1;
#X connect 47 0 50 0;
#X connect 48 0 45 0;
#X connect 49 0 48 0;
#X connect 50 0 51 1;
#X connect 51 0 52 0;
#X connect 51 1 52 1;
#X connect 52 0 53 0;
#X connect 53 0 55 0;
#X connect 53 1 54 0;
#X connect 56 0 26 0;
#X connect 57 0 8 1;
#X restore 170 83 pd xfer-to-fig;
#N canvas 0 0 531 390 z 0;
#X scalar haxis 50 75 300 297 \;;
#X scalar vaxis 75 35 80 77 \;;
#X scalar rect 75 74 1 2 \;;
#X scalar rect 78 74 1 2 \;;
#X scalar rect 81 74 1 2 \;;
#X scalar rect 84 74 1 2 \;;
#X scalar rect 87 74 1 2 \;;
#X scalar rect 90 74 1 2 \;;
#X scalar rect 93 74 1 2 \;;
#X scalar rect 96 74 1 2 \;;
#X scalar rect 99 74 1 2 \;;
#X scalar rect 102 74 1 2 \;;
#X scalar rect 105 74 1 2 \;;
#X scalar rect 108 75 1 1 \;;
#X scalar rect 111 75 1 3 \;;
#X scalar rect 114 75 1 6 \;;
#X scalar rect 117 75 1 10 \;;
#X scalar rect 120 75 1 15 \;;
#X scalar rect 123 75 1 20 \;;
#X scalar rect 126 75 1 24 \;;
#X scalar rect 129 75 1 27 \;;
#X scalar rect 132 75 1 29 \;;
#X scalar rect 135 75 1 30 \;;
#X scalar rect 138 75 1 29 \;;
#X scalar rect 141 75 1 27 \;;
#X scalar rect 144 75 1 24 \;;
#X scalar rect 147 75 1 20 \;;
#X scalar rect 150 75 1 15 \;;
#X scalar rect 153 75 1 10 \;;
#X scalar rect 156 75 1 6 \;;
#X scalar rect 159 75 1 3 \;;
#X scalar rect 162 75 1 1 \;;
#X scalar rect 165 74 1 2 \;;
#X scalar rect 168 74 1 2 \;;
#X scalar rect 171 74 1 2 \;;
#X scalar rect 174 74 1 2 \;;
#X scalar rect 177 74 1 2 \;;
#X scalar rect 180 74 1 2 \;;
#X scalar rect 183 74 1 2 \;;
#X scalar rect 186 74 1 2 \;;
#X scalar rect 189 74 1 2 \;;
#X scalar rect 192 74 1 2 \;;
#X scalar rect 195 74 1 2 \;;
#X scalar rect 198 74 1 2 \;;
#X scalar rect 201 74 1 2 \;;
#X scalar rect 204 74 1 2 \;;
#X scalar rect 207 74 1 2 \;;
#X scalar rect 210 74 1 2 \;;
#X scalar rect 213 74 1 2 \;;
#X scalar rect 216 74 1 2 \;;
#X scalar rect 219 74 1 2 \;;
#X scalar rect 222 74 1 2 \;;
#X scalar rect 225 74 1 2 \;;
#X scalar rect 228 75 1 1 \;;
#X scalar rect 231 75 1 3 \;;
#X scalar rect 234 75 1 6 \;;
#X scalar rect 237 75 1 10 \;;
#X scalar rect 240 75 1 15 \;;
#X scalar rect 243 75 1 20 \;;
#X scalar rect 246 75 1 24 \;;
#X scalar rect 249 75 1 27 \;;
#X scalar rect 252 75 1 29 \;;
#X scalar rect 255 75 1 30 \;;
#X scalar rect 258 75 1 29 \;;
#X scalar rect 261 75 1 27 \;;
#X scalar rect 264 75 1 24 \;;
#X scalar rect 267 75 1 20 \;;
#X scalar rect 270 75 1 15 \;;
#X scalar rect 273 75 1 10 \;;
#X scalar rect 276 75 1 6 \;;
#X scalar rect 279 75 1 3 \;;
#X scalar rect 282 75 1 1 \;;
#X scalar rect 285 74 1 2 \;;
#X scalar rect 288 74 1 2 \;;
#X scalar rect 291 74 1 2 \;;
#X scalar rect 294 74 1 2 \;;
#X scalar rect 297 74 1 2 \;;
#X scalar rect 300 74 1 2 \;;
#X scalar rect 303 74 1 2 \;;
#X scalar rect 306 74 1 2 \;;
#X scalar rect 309 74 1 2 \;;
#X scalar rect 312 74 1 2 \;;
#X scalar haxis 50 175 300 297 \;;
#X scalar vaxis 75 135 80 77 \;;
#X scalar rect 75 174 1 2 \;;
#X scalar rect 78 174 1 2 \;;
#X scalar rect 81 175 1 1 \;;
#X scalar rect 84 175 1 2 \;;
#X scalar rect 87 175 1 3 \;;
#X scalar rect 90 175 1 4 \;;
#X scalar rect 93 175 1 6 \;;
#X scalar rect 96 175 1 8 \;;
#X scalar rect 99 175 1 10 \;;
#X scalar rect 102 175 1 13 \;;
#X scalar rect 105 175 1 15 \;;
#X scalar rect 108 175 1 17 \;;
#X scalar rect 111 175 1 20 \;;
#X scalar rect 114 175 1 22 \;;
#X scalar rect 117 175 1 24 \;;
#X scalar rect 120 175 1 26 \;;
#X scalar rect 123 175 1 27 \;;
#X scalar rect 126 175 1 28 \;;
#X scalar rect 129 175 1 29 \;;
#X scalar rect 132 175 1 30 \;;
#X scalar rect 135 175 1 30 \;;
#X scalar rect 138 175 1 30 \;;
#X scalar rect 141 175 1 29 \;;
#X scalar rect 144 175 1 28 \;;
#X scalar rect 147 175 1 27 \;;
#X scalar rect 150 175 1 26 \;;
#X scalar rect 153 175 1 24 \;;
#X scalar rect 156 175 1 22 \;;
#X scalar rect 159 175 1 20 \;;
#X scalar rect 162 175 1 17 \;;
#X scalar rect 165 175 1 15 \;;
#X scalar rect 168 175 1 13 \;;
#X scalar rect 171 175 1 10 \;;
#X scalar rect 174 175 1 8 \;;
#X scalar rect 177 175 1 6 \;;
#X scalar rect 180 175 1 4 \;;
#X scalar rect 183 175 1 3 \;;
#X scalar rect 186 175 1 2 \;;
#X scalar rect 189 175 1 1 \;;
#X scalar rect 192 174 1 2 \;;
#X scalar rect 195 174 1 2 \;;
#X scalar rect 198 174 1 2 \;;
#X scalar rect 201 175 1 1 \;;
#X scalar rect 204 175 1 2 \;;
#X scalar rect 207 175 1 3 \;;
#X scalar rect 210 175 1 4 \;;
#X scalar rect 213 175 1 6 \;;
#X scalar rect 216 175 1 8 \;;
#X scalar rect 219 175 1 10 \;;
#X scalar rect 222 175 1 13 \;;
#X scalar rect 225 175 1 15 \;;
#X scalar rect 228 175 1 17 \;;
#X scalar rect 231 175 1 20 \;;
#X scalar rect 234 175 1 22 \;;
#X scalar rect 237 175 1 24 \;;
#X scalar rect 240 175 1 26 \;;
#X scalar rect 243 175 1 27 \;;
#X scalar rect 246 175 1 28 \;;
#X scalar rect 249 175 1 29 \;;
#X scalar rect 252 175 1 30 \;;
#X scalar rect 255 175 1 30 \;;
#X scalar rect 258 175 1 30 \;;
#X scalar rect 261 175 1 29 \;;
#X scalar rect 264 175 1 28 \;;
#X scalar rect 267 175 1 27 \;;
#X scalar rect 270 175 1 26 \;;
#X scalar rect 273 175 1 24 \;;
#X scalar rect 276 175 1 22 \;;
#X scalar rect 279 175 1 20 \;;
#X scalar rect 282 175 1 17 \;;
#X scalar rect 285 175 1 15 \;;
#X scalar rect 288 175 1 13 \;;
#X scalar rect 291 175 1 10 \;;
#X scalar rect 294 175 1 8 \;;
#X scalar rect 297 175 1 6 \;;
#X scalar rect 300 175 1 4 \;;
#X scalar rect 303 175 1 3 \;;
#X scalar rect 306 175 1 2 \;;
#X scalar rect 309 175 1 1 \;;
#X scalar rect 312 174 1 2 \;;
#X scalar haxis 50 275 300 297 \;;
#X scalar vaxis 203 245 90 87 \;;
#X scalar v-seg 163 270 10 3 \;;
#X scalar v-seg 245 270 10 3 \;;
#X scalar y-plot 75 276 1 \; 0 \; 0 \; 0 \; 0 \; 0 \; 0 \; 0 \; 0 \;
0 \; 0 \; 0 \; 0 \; 0 \; 0 \; 0 \; 0 \; 0 \; 0 \; 0 \; 0 \; 0 \; 0
\; 0 \; 0 \; 0 \; 0 \; 0 \; 0 \; 0 \; 0 \; 0 \; 0 \; 0 \; 0 \; 0 \;
0 \; 0 \; 0 \; 0 \; 0 \; 0 \; 0 \; 0 \; 0 \; 0 \; 0 \; 0 \; 0 \; 0
\; 0 \; 0 \; 0 \; 0 \; 0 \; 0 \; 0 \; 0 \; 0 \; 0 \; 0 \; 0 \; 0 \;
0 \; 0 \; 0 \; 0 \; 0 \; 0 \; 0 \; 0 \; 0 \; 0 \; 0 \; 0 \; 0 \; 0
\; 0 \; 0 \; 0 \; 0 \; 0 \; 0 \; 0 \; 0 \; 0 \; 0 \; 0.00656843 \;
0.0413346 \; 0.107237 \; 0.206641 \; 0.342916 \; 0.520328 \; 0.74391
\; 1.0193 \; 1.35256 \; 1.75001 \; 2.21796 \; 2.76254 \; 3.38948 \;
4.10386 \; 4.90991 \; 5.81083 \; 6.80858 \; 7.90376 \; 9.09543 \; 10.381
\; 11.7563 \; 13.2154 \; 14.7505 \; 16.3522 \; 18.0096 \; 19.7102 \;
21.44 \; 23.1841 \; 24.9264 \; 26.6501 \; 28.3379 \; 29.9724 \; 31.536
\; 33.0115 \; 34.3825 \; 35.6332 \; 36.7491 \; 37.717 \; 38.5254 \;
39.1646 \; 39.6268 \; 39.9064 \; 40 \; 39.9064 \; 39.6268 \; 39.1646
\; 38.5254 \; 37.7169 \; 36.749 \; 35.6331 \; 34.3824 \; 33.0114 \;
31.5358 \; 29.9722 \; 28.3378 \; 26.6499 \; 24.9262 \; 23.1839 \; 21.4398
\; 19.71 \; 18.0094 \; 16.352 \; 14.7503 \; 13.2152 \; 11.7562 \; 10.3809
\; 9.09527 \; 7.90361 \; 6.80844 \; 5.8107 \; 4.90979 \; 4.10375 \;
3.38938 \; 2.76244 \; 2.21786 \; 1.74992 \; 1.35249 \; 1.01923 \; 0.743854
\; 0.520283 \; 0.34288 \; 0.206615 \; 0.107218 \; 0.0413239 \; 0.00656366
\; 0 \; 0 \; 0 \; 0 \; 0 \; 0 \; 0 \; 0 \; 0 \; 0 \; 0 \; 0 \; 0 \;
0 \; 0 \; 0 \; 0 \; 0 \; 0 \; 0 \; 0 \; 0 \; 0 \; 0 \; 0 \; 0 \; 0
\; 0 \; 0 \; 0 \; 0 \; 0 \; 0 \; 0 \; 0 \; 0 \; 0 \; 0 \; 0 \; 0 \;
0 \; 0 \; 0 \; 0 \; 0 \; 0 \; 0 \; 0 \; 0 \; 0 \; 0 \; 0 \; 0 \; 0
\; 0 \; 0 \; 0 \; 0 \; 0 \; 0 \; 0 \; 0 \; 0 \; 0 \; 0 \; 0 \; 0 \;
0 \; 0 \; 0 \; 0 \; 0 \; 0 \; 0 \; 0 \; 0 \; 0 \; 0 \; 0 \; 0 \; 0
\; 0 \; 0 \; 0 \; 0 \; \;;
#X coords 0 390 1 389 0 0 0;
#X restore 51 89 pd z;
