#N struct u-curve-arrow float x float y float z float z2 float z3 float
h;
#N struct d-curve-arrow float x float y float z float z2 float z3 float
h;
#N struct vaxis float x float y float h float h-3;
#N struct haxis float x float y float w float w-3;
#N struct circle float x float y float color float h float h2;
#N struct seg float x float y float dx float dy float w;
#N struct xy-curve float x float y float w array z xy-point;
#N struct xy-point float x float y;
#N struct l-curve-arrow float x float y float z float z2 float z3 float
h;
#N struct circle2 float x float y float h float h2 float mh float mh2
;
#N struct xy-plot float x float y float w array z xy-point;
#N struct r-curve-arrow float x float y float z float z2 float z3 float
h;
#N struct r-arrow float x float y float z;
#N struct l-arrow float x float y float z;
#N struct u-arrow float x float y float z;
#N struct d-arrow float x float y float z;
#N struct v-seg float x float y float z float w;
#N struct h-seg float x float y float z float w;
#N struct rect float x float y float w float h;
#N struct frame float x float y float w float h;
#N struct y-plot float x float y float w array z y-point;
#N struct y-point float y;
#N canvas 186 409 294 185 10;
#N canvas 122 21 361 299 fig 1;
#X text 289 177 -d;
#X scalar u-curve-arrow 250 150 -12 -20 -35 19 \;;
#X text 232 159 -d;
#X scalar d-curve-arrow 249 161 20 40 50 19 \;;
#X scalar vaxis 135 12 280 277 \;;
#X scalar haxis 57 160 250 247 \;;
#X scalar circle 255 160 0 3 -3 \;;
#X text 258 139 1;
#X scalar seg 135 160 105 -18 1 \;;
#X scalar seg 255 160 -16 -16 1 \;;
#X scalar circle 238 143 0 3 -3 \;;
#X scalar xy-curve 255 160 1 \; -120 -120 \; -101.228 -118.523 \; -82.9178
-114.127 \; -65.521 -106.921 \; -49.4657 -97.082 \; -35.1471 -84.8528
\; -22.9179 -70.5342 \; -13.0792 -54.4788 \; -5.87321 -37.082 \; -1.4774
-18.7721 \; 0 0 \; -1.4774 18.7721 \; -5.87321 37.082 \; -13.0792 54.4788
\; -22.9179 70.5342 \; -35.1471 84.8528 \; -49.4657 97.082 \; -65.521
106.921 \; -82.9178 114.127 \; -101.228 118.523 \; -120 120 \; \;;
#X scalar seg 135 161 104 0 1 \;;
#X scalar seg 240 159 -2 -15 1 \;;
#X scalar circle 240 160 0 3 -3 \;;
#X scalar seg 135 161 82 -66 1 \;;
#X scalar circle 216 96 0 3 -3 \;;
#X text 209 208 -d;
#X text 262 71 1-g;
#X text 63 141 real;
#X text 66 21 imaginary;
#X text 218 165 gW;
#X text 195 214 gZ;
#X text 262 185 1-gW;
#X coords 0 299 1 298 0 0 0;
#X restore 51 61 pd fig;
#X obj 47 89 templates;
#N canvas 589 104 566 606 hash 0;
#X coords 0 606 1 605 0 0 0;
#X restore 205 62 pd hash;
