#N struct frame float x float y float w float h;
#N struct rect float x float y float w float h;
#N struct xy-plot float x float y float w array z xy-point;
#N struct xy-point float x float y;
#N struct d-arrow float x float y float z;
#N struct l-arrow float x float y float z;
#N struct y-plot float x float y float w array z y-point;
#N struct y-point float y;
#N struct h-seg float x float y float z float w;
#N struct times float x float y;
#N struct minus float x float y;
#N struct plus float x float y;
#N struct xy-curve float x float y float w array z xy-point;
#N struct seg float x float y float dx float dy float w;
#N struct l-curve-arrow float x float y float z float z2 float z3 float
h;
#N struct circle2 float x float y float h float h2 float mh float mh2
;
#N struct vaxis float x float y float h float h-3;
#N struct d-curve-arrow float x float y float z float z2 float z3 float
h;
#N struct circle float x float y float color float h float h2;
#N struct u-curve-arrow float x float y float z float z2 float z3 float
h;
#N struct r-curve-arrow float x float y float z float z2 float z3 float
h;
#N struct r-arrow float x float y float z;
#N struct u-arrow float x float y float z;
#N struct v-seg float x float y float z float w;
#N struct haxis float x float y float w float w-3;
#N struct thickcircle float x float y float color float h float h2
;
#N struct divide float x float y;
#N canvas 547 215 294 185 10;
#N canvas 707 73 295 285 fig 1;
#X scalar frame 120 190 80 60 \;;
#X scalar rect 127 220 1 10.0465 \;;
#X scalar rect 130 220 1 9.47553 \;;
#X scalar rect 133 220 1 4.78746 \;;
#X scalar rect 136 220 1 -0.816183 \;;
#X scalar rect 139 220 1 -2.79051 \;;
#X scalar rect 142 220 1 1.4695 \;;
#X scalar rect 145 220 1 10.4761 \;;
#X scalar rect 148 220 1 19.1501 \;;
#X scalar rect 151 220 1 21.767 \;;
#X scalar rect 154 220 1 15.5178 \;;
#X scalar rect 157 220 1 2.40177 \;;
#X scalar rect 160 220 1 -11.7942 \;;
#X scalar rect 163 220 1 -20.8273 \;;
#X scalar rect 166 220 1 -21.5627 \;;
#X scalar rect 169 220 1 -15.5598 \;;
#X scalar rect 172 220 1 -7.74816 \;;
#X scalar rect 175 220 1 -3.13044 \;;
#X scalar rect 178 220 1 -3.68319 \;;
#X scalar rect 181 220 1 -7.43902 \;;
#X scalar rect 184 220 1 -10.2549 \;;
#X scalar rect 187 220 1 -8.98938 \;;
#X scalar rect 190 219 1 -3.89107 \;;
#X scalar frame 185 105 60 46 \;;
#X scalar xy-plot 190 117 1 \; 1 2 \; 10 27 \; 20 16 \; 36 16 \; 49
1 \; \;;
#X scalar d-arrow 63 139 50 \;;
#X scalar l-arrow 159 129 25 \;;
#X scalar frame 29 266 60 60 \;;
#X scalar y-plot 34 271 1 \; 0 \; 2.25 \; 4.5 \; 6.75 \; 9 \; 11.25
\; 13.5 \; 15.75 \; 18 \; 20.25 \; 22.5 \; 24.75 \; 27 \; 29.25 \;
31.5 \; 33.75 \; 36 \; 38.25 \; 40.5 \; 42.75 \; 0 \; 2.25 \; 4.5 \;
6.75 \; 9 \; 11.25 \; 13.5 \; 15.75 \; 18 \; 20.25 \; 22.5 \; 24.75
\; 27 \; 29.25 \; 31.5 \; 33.75 \; 36 \; 38.25 \; 40.5 \; 42.75 \;
0 \; 2.25 \; 4.5 \; 6.75 \; 9 \; 11.25 \; 13.5 \; 15.75 \; 18 \; 20.25
\; \;;
#X text 16 -44 N;
#X text 16 7 0;
#X text 10 82 -1;
#X text 16 33 1;
#X scalar d-arrow 56 251 15 \;;
#X scalar d-arrow 58 327 13 \;;
#X scalar d-arrow 63 104 14 \;;
#X text 53 182 OUT;
#X scalar frame 28 190 80 60 \;;
#X scalar rect 35 220 1 10.0465 \;;
#X scalar rect 38 220 1 10.0886 \;;
#X scalar rect 41 220 1 7.25538 \;;
#X scalar rect 44 220 1 2.40107 \;;
#X scalar rect 47 220 1 -2.68234 \;;
#X scalar rect 50 220 1 -5.94415 \;;
#X scalar rect 53 220 1 -5.87614 \;;
#X scalar rect 56 220 1 -2.13338 \;;
#X scalar rect 59 220 1 4.26072 \;;
#X scalar rect 62 220 1 11.2109 \;;
#X scalar rect 65 220 1 16.2492 \;;
#X scalar rect 68 220 1 17.3877 \;;
#X scalar rect 71 220 1 13.8183 \;;
#X scalar rect 74 220 1 6.20771 \;;
#X scalar rect 77 220 1 -3.52086 \;;
#X scalar rect 80 220 1 -12.8403 \;;
#X scalar rect 83 220 1 -19.4701 \;;
#X scalar rect 86 220 1 -22.1209 \;;
#X scalar rect 89 220 1 -20.8671 \;;
#X scalar rect 92 220 1 -17.0214 \;;
#X scalar rect 95 220 1 -12.5685 \;;
#X scalar rect 98 220 1 -9.37384 \;;
#X text 27 -72 frequency;
#X scalar h-seg 57 260 93 1 \;;
#X scalar d-arrow 150 251 9 \;;
#X scalar h-seg 64 181 93 1 \;;
#X scalar d-arrow 156 172 9 \;;
#X scalar d-arrow 140 172 18 \;;
#X scalar d-arrow 147 139 12 \;;
#X scalar l-arrow 74 129 64 \;;
#X scalar frame 138 119 20 19 \;;
#X scalar times 143 124 \;;
#X scalar frame 138 152 20 19 \;;
#X scalar minus 143 156 \;;
#X scalar frame 53 119 20 19 \;;
#X scalar plus 58 123 \;;
#X coords 0 285 1 284 0 0 0;
#X restore 51 61 pd fig;
#X obj 56 88 templates;
