#N struct frame float x float y float w float h;
#N struct y-plot float x float y float w array z y-point;
#N struct y-point float y;
#N struct d-arrow float x float y float z;
#N struct l-arrow float x float y float z;
#N struct r-curve-arrow float x float y float z float z2 float z3 float
h;
#N struct haxis float x float y float w float w-3;
#N struct vaxis float x float y float h float h-3;
#N struct rect float x float y float w float h;
#N struct circle float x float y float color float h float h2;
#N struct u-curve-arrow float x float y float z float z2 float z3 float
h;
#N struct r-arrow float x float y float z;
#N struct u-arrow float x float y float z;
#N struct v-seg float x float y float z float w;
#N struct h-seg float x float y float z float w;
#N canvas 661 100 349 191 10;
#N canvas 45 18 441 386 fig 1;
#X scalar frame 15 218 60 60 \;;
#X scalar y-plot 20 223 1 \; 0 \; 2.25 \; 4.5 \; 6.75 \; 9 \; 11.25
\; 13.5 \; 15.75 \; 18 \; 20.25 \; 22.5 \; 24.75 \; 27 \; 29.25 \;
31.5 \; 33.75 \; 36 \; 38.25 \; 40.5 \; 42.75 \; 0 \; 2.25 \; 4.5 \;
6.75 \; 9 \; 11.25 \; 13.5 \; 15.75 \; 18 \; 20.25 \; 22.5 \; 24.75
\; 27 \; 29.25 \; 31.5 \; 33.75 \; 36 \; 38.25 \; 40.5 \; 42.75 \;
0 \; 2.25 \; 4.5 \; 6.75 \; 9 \; 11.25 \; 13.5 \; 15.75 \; 18 \; 20.25
\; \;;
#X text 2 154 0;
#X scalar d-arrow 44 279 13 \;;
#X scalar d-arrow 44 81 32 \;;
#X text 32 307 OUT;
#X text 10 74 frequency;
#X scalar d-arrow 44 180 38 \;;
#X text 1 107 1;
#X scalar frame 29 160 30 19 \;;
#X scalar l-arrow 60 169 18 \;;
#X scalar d-arrow 44 132 27 \;;
#X scalar frame 27 113 35 19 \;;
#X text 29 258 WRAP;
#X scalar r-curve-arrow 151 354 -54 -58 -98 -159 \;;
#X scalar r-curve-arrow 142 60 -40 -58 -89 41 \;;
#X text 82 210 4;
#X text 38 211 *;
#X scalar haxis 135 334 300 297 \;;
#X scalar vaxis 160 319 90 87 \;;
#X scalar haxis 135 150 300 297 \;;
#X scalar vaxis 160 135 174 169 \;;
#X scalar rect 160 334 2 0 \;;
#X scalar rect 165 334 2 2 \;;
#X scalar rect 170 334 2 4 \;;
#X scalar rect 175 334 2 6 \;;
#X scalar rect 180 334 2 8 \;;
#X scalar rect 185 334 2 10 \;;
#X scalar rect 190 334 2 12 \;;
#X scalar rect 195 334 2 14 \;;
#X scalar rect 200 334 2 16 \;;
#X scalar rect 205 334 2 18 \;;
#X scalar rect 210 334 2 20 \;;
#X scalar rect 215 334 2 22 \;;
#X scalar rect 220 334 2 24 \;;
#X scalar rect 225 334 2 26 \;;
#X scalar rect 230 334 2 28 \;;
#X scalar rect 235 334 2 30 \;;
#X scalar rect 240 334 2 32 \;;
#X scalar rect 245 334 2 34 \;;
#X scalar rect 250 334 2 36 \;;
#X scalar rect 255 334 2 38 \;;
#X scalar rect 260 334 2 0 \;;
#X scalar rect 265 334 2 2 \;;
#X scalar rect 270 334 2 4 \;;
#X scalar rect 275 334 2 6 \;;
#X scalar rect 280 334 2 8 \;;
#X scalar rect 285 334 2 10 \;;
#X scalar rect 290 334 2 12 \;;
#X scalar rect 295 334 2 14 \;;
#X scalar rect 300 334 2 16 \;;
#X scalar rect 305 334 2 18 \;;
#X scalar rect 310 334 2 20 \;;
#X scalar rect 315 334 2 22 \;;
#X scalar rect 320 334 2 24 \;;
#X scalar rect 325 334 2 26 \;;
#X scalar rect 330 334 2 28 \;;
#X scalar rect 335 334 2 30 \;;
#X scalar rect 340 334 2 32 \;;
#X scalar rect 345 334 2 34 \;;
#X scalar rect 350 334 2 36 \;;
#X scalar rect 355 334 2 38 \;;
#X scalar rect 360 334 2 0 \;;
#X scalar rect 365 334 2 2 \;;
#X scalar rect 370 334 2 4 \;;
#X scalar rect 375 334 2 6 \;;
#X scalar rect 380 334 2 8 \;;
#X scalar rect 385 334 2 10 \;;
#X scalar rect 390 334 2 12 \;;
#X scalar rect 395 334 2 14 \;;
#X scalar rect 400 334 2 16 \;;
#X scalar rect 160 150 2 0 \;;
#X scalar rect 165 150 2 8 \;;
#X scalar rect 170 150 2 16 \;;
#X scalar rect 175 150 2 24 \;;
#X scalar rect 180 150 2 32 \;;
#X scalar rect 185 150 2 40 \;;
#X scalar rect 190 150 2 48 \;;
#X scalar rect 195 150 2 56 \;;
#X scalar rect 200 150 2 64 \;;
#X scalar rect 205 150 2 72 \;;
#X scalar rect 210 150 2 80 \;;
#X scalar rect 215 150 2 88 \;;
#X scalar rect 220 150 2 96 \;;
#X scalar rect 225 150 2 104 \;;
#X scalar rect 230 150 2 112 \;;
#X scalar rect 235 150 2 120 \;;
#X scalar rect 240 150 2 128 \;;
#X scalar rect 245 150 2 136 \;;
#X scalar rect 250 150 2 144 \;;
#X scalar rect 255 150 2 152 \;;
#X scalar rect 260 150 2 0 \;;
#X scalar rect 265 150 2 7.99999 \;;
#X scalar rect 270 150 2 16 \;;
#X scalar rect 275 150 2 24 \;;
#X scalar rect 280 150 2 32 \;;
#X scalar rect 285 150 2 40 \;;
#X scalar rect 290 150 2 48 \;;
#X scalar rect 295 150 2 56 \;;
#X scalar rect 300 150 2 64 \;;
#X scalar rect 305 150 2 72 \;;
#X scalar rect 310 150 2 80 \;;
#X scalar rect 315 150 2 88 \;;
#X scalar rect 320 150 2 96 \;;
#X scalar rect 325 150 2 104 \;;
#X scalar rect 330 150 2 112 \;;
#X scalar rect 335 150 2 120 \;;
#X scalar rect 340 150 2 128 \;;
#X scalar rect 345 150 2 136 \;;
#X scalar rect 350 150 2 144 \;;
#X scalar rect 355 150 2 152 \;;
#X scalar rect 360 150 2 0 \;;
#X scalar rect 365 150 2 7.99999 \;;
#X scalar rect 370 150 2 16 \;;
#X scalar rect 375 150 2 24 \;;
#X scalar rect 380 150 2 32 \;;
#X scalar rect 385 150 2 40 \;;
#X scalar rect 390 150 2 48 \;;
#X scalar rect 395 150 2 56 \;;
#X scalar rect 400 150 2 64 \;;
#X scalar haxis 136 44 300 297 \;;
#X scalar vaxis 161 29 90 87 \;;
#X scalar rect 161 44 2 0 \;;
#X scalar rect 166 44 2 8 \;;
#X scalar rect 171 44 2 16 \;;
#X scalar rect 176 44 2 24 \;;
#X scalar rect 181 44 2 32 \;;
#X scalar rect 186 44 2 0 \;;
#X scalar rect 191 44 2 8 \;;
#X scalar rect 196 44 2 16 \;;
#X scalar rect 201 44 2 24 \;;
#X scalar rect 206 44 2 32 \;;
#X scalar rect 211 44 2 0 \;;
#X scalar rect 216 44 2 8 \;;
#X scalar rect 221 44 2 16 \;;
#X scalar rect 226 44 2 24 \;;
#X scalar rect 231 44 2 32 \;;
#X scalar rect 236 44 2 0 \;;
#X scalar rect 241 44 2 8 \;;
#X scalar rect 246 44 2 16 \;;
#X scalar rect 251 44 2 24 \;;
#X scalar rect 256 44 2 32 \;;
#X scalar rect 261 44 2 0 \;;
#X scalar rect 266 44 2 7.99999 \;;
#X scalar rect 271 44 2 16 \;;
#X scalar rect 276 44 2 24 \;;
#X scalar rect 281 44 2 32 \;;
#X scalar rect 286 44 2 0 \;;
#X scalar rect 291 44 2 7.99999 \;;
#X scalar rect 296 44 2 16 \;;
#X scalar rect 301 44 2 24 \;;
#X scalar rect 306 44 2 32 \;;
#X scalar rect 311 44 2 0 \;;
#X scalar rect 316 44 2 7.99999 \;;
#X scalar rect 321 44 2 16 \;;
#X scalar rect 326 44 2 24 \;;
#X scalar rect 331 44 2 32 \;;
#X scalar rect 336 44 2 0 \;;
#X scalar rect 341 44 2 7.99999 \;;
#X scalar rect 346 44 2 16 \;;
#X scalar rect 351 44 2 24 \;;
#X scalar rect 356 44 2 32 \;;
#X scalar rect 361 44 2 0 \;;
#X scalar rect 366 44 2 7.99999 \;;
#X scalar rect 371 44 2 16 \;;
#X scalar rect 376 44 2 24 \;;
#X scalar rect 381 44 2 32 \;;
#X scalar rect 386 44 2 0 \;;
#X scalar rect 391 44 2 7.99999 \;;
#X scalar rect 396 44 2 16 \;;
#X scalar rect 401 44 2 24 \;;
#X text 141 304 1;
#X text 146 78 4;
#X text 146 11 1;
#X scalar r-curve-arrow 150 183 -54 -58 -102 -41 \;;
#X coords 0 386 1 385 0 0 0;
#X restore 57 26 pd fig;
#X obj 200 35 templates;
#N canvas 402 137 841 424 buildit 0;
#X obj 183 158 until;
#X obj 185 133 t b b;
#X obj 186 188 f;
#X msg 237 149 0;
#X obj 272 169 + 1;
#X obj 186 227 t f f;
#X obj 185 295 expr 75 + 5 * $f1;
#X obj 185 321 pack;
#X obj 185 110 bng 15 250 50 0 empty empty empty 0 -6 0 8 -262144 -1
-1;
#X obj 272 192 sel 49;
#X obj 361 159 until;
#X obj 363 134 t b b;
#X obj 364 189 f;
#X msg 415 150 0;
#X obj 450 170 + 1;
#X obj 364 228 t f f;
#X obj 364 289 expr 75 + 5 * $f1;
#X obj 364 315 pack;
#X obj 363 111 bng 15 250 50 0 empty empty empty 0 -6 0 8 -262144 -1
-1;
#X obj 450 193 sel 49;
#X obj 418 318 * 40;
#X msg 23 17 \; pd-tmp clear;
#X msg 24 62 \; start pd-tmp \;;
#X obj 571 163 until;
#X obj 573 138 t b b;
#X obj 574 193 f;
#X msg 625 154 0;
#X obj 660 174 + 1;
#X obj 574 232 t f f;
#X obj 576 298 expr 75 + 5 * $f1;
#X obj 576 324 pack;
#X obj 573 115 bng 15 250 50 0 empty empty empty 0 -6 0 8 -262144 -1
-1;
#X obj 660 197 sel 49;
#X msg 576 355 \; add-rect \$1 75 2 \$2 \;;
#X obj 630 327 * 40;
#X obj 200 259 expr $f1 - int($f1);
#X msg 184 352 \; add-rect \$1 275 2 \$2 \;;
#X msg 364 346 \; add-rect \$1 175 2 \$2 \;;
#X msg 151 37 \; add-haxis 50 275 300 297 \; add-vaxis 75 260 90 87
;
#X msg 357 39 \; add-haxis 50 175 300 297 \; add-vaxis 75 160 90 87
;
#X msg 577 41 \; add-haxis 50 75 300 297 \; add-vaxis 75 60 90 87;
#X obj 240 322 * 40;
#X obj 240 227 / 20;
#X obj 418 229 / 20;
#X obj 631 222 / 20;
#X obj 389 259 expr 4 * ($f1 - int($f1));
#X obj 631 245 expr 4 * ($f1 - int($f1));
#X obj 631 266 expr $f1 - int($f1);
#X connect 0 0 2 0;
#X connect 1 0 0 0;
#X connect 1 1 3 0;
#X connect 2 0 4 0;
#X connect 2 0 5 0;
#X connect 3 0 2 1;
#X connect 4 0 2 1;
#X connect 4 0 9 0;
#X connect 5 0 6 0;
#X connect 5 1 42 0;
#X connect 6 0 7 0;
#X connect 7 0 36 0;
#X connect 8 0 1 0;
#X connect 9 0 0 1;
#X connect 10 0 12 0;
#X connect 11 0 10 0;
#X connect 11 1 13 0;
#X connect 12 0 14 0;
#X connect 12 0 15 0;
#X connect 13 0 12 1;
#X connect 14 0 12 1;
#X connect 14 0 19 0;
#X connect 15 0 16 0;
#X connect 15 1 43 0;
#X connect 16 0 17 0;
#X connect 17 0 37 0;
#X connect 18 0 11 0;
#X connect 19 0 10 1;
#X connect 20 0 17 1;
#X connect 23 0 25 0;
#X connect 24 0 23 0;
#X connect 24 1 26 0;
#X connect 25 0 27 0;
#X connect 25 0 28 0;
#X connect 26 0 25 1;
#X connect 27 0 25 1;
#X connect 27 0 32 0;
#X connect 28 0 29 0;
#X connect 28 1 44 0;
#X connect 29 0 30 0;
#X connect 30 0 33 0;
#X connect 31 0 24 0;
#X connect 32 0 23 1;
#X connect 34 0 30 1;
#X connect 35 0 41 0;
#X connect 41 0 7 1;
#X connect 42 0 35 0;
#X connect 43 0 45 0;
#X connect 44 0 46 0;
#X connect 45 0 20 0;
#X connect 46 0 47 0;
#X connect 47 0 34 0;
#X restore 199 60 pd buildit;
#N canvas 30 267 640 644 tmp 0;
#X scalar haxis 256 393 300 297 \;;
#X scalar vaxis 281 378 90 87 \;;
#X scalar haxis 256 209 300 297 \;;
#X scalar vaxis 281 194 174 169 \;;
#X scalar rect 281 393 2 0 \;;
#X scalar rect 286 393 2 2 \;;
#X scalar rect 291 393 2 4 \;;
#X scalar rect 296 393 2 6 \;;
#X scalar rect 301 393 2 8 \;;
#X scalar rect 306 393 2 10 \;;
#X scalar rect 311 393 2 12 \;;
#X scalar rect 316 393 2 14 \;;
#X scalar rect 321 393 2 16 \;;
#X scalar rect 326 393 2 18 \;;
#X scalar rect 331 393 2 20 \;;
#X scalar rect 336 393 2 22 \;;
#X scalar rect 341 393 2 24 \;;
#X scalar rect 346 393 2 26 \;;
#X scalar rect 351 393 2 28 \;;
#X scalar rect 356 393 2 30 \;;
#X scalar rect 361 393 2 32 \;;
#X scalar rect 366 393 2 34 \;;
#X scalar rect 371 393 2 36 \;;
#X scalar rect 376 393 2 38 \;;
#X scalar rect 381 393 2 0 \;;
#X scalar rect 386 393 2 2 \;;
#X scalar rect 391 393 2 4 \;;
#X scalar rect 396 393 2 6 \;;
#X scalar rect 401 393 2 8 \;;
#X scalar rect 406 393 2 10 \;;
#X scalar rect 411 393 2 12 \;;
#X scalar rect 416 393 2 14 \;;
#X scalar rect 421 393 2 16 \;;
#X scalar rect 426 393 2 18 \;;
#X scalar rect 431 393 2 20 \;;
#X scalar rect 436 393 2 22 \;;
#X scalar rect 441 393 2 24 \;;
#X scalar rect 446 393 2 26 \;;
#X scalar rect 451 393 2 28 \;;
#X scalar rect 456 393 2 30 \;;
#X scalar rect 461 393 2 32 \;;
#X scalar rect 466 393 2 34 \;;
#X scalar rect 471 393 2 36 \;;
#X scalar rect 476 393 2 38 \;;
#X scalar rect 481 393 2 0 \;;
#X scalar rect 486 393 2 2 \;;
#X scalar rect 491 393 2 4 \;;
#X scalar rect 496 393 2 6 \;;
#X scalar rect 501 393 2 8 \;;
#X scalar rect 506 393 2 10 \;;
#X scalar rect 511 393 2 12 \;;
#X scalar rect 516 393 2 14 \;;
#X scalar rect 521 393 2 16 \;;
#X scalar rect 281 209 2 0 \;;
#X scalar rect 286 209 2 8 \;;
#X scalar rect 291 209 2 16 \;;
#X scalar rect 296 209 2 24 \;;
#X scalar rect 301 209 2 32 \;;
#X scalar rect 306 209 2 40 \;;
#X scalar rect 311 209 2 48 \;;
#X scalar rect 316 209 2 56 \;;
#X scalar rect 321 209 2 64 \;;
#X scalar rect 326 209 2 72 \;;
#X scalar rect 331 209 2 80 \;;
#X scalar rect 336 209 2 88 \;;
#X scalar rect 341 209 2 96 \;;
#X scalar rect 346 209 2 104 \;;
#X scalar rect 351 209 2 112 \;;
#X scalar rect 356 209 2 120 \;;
#X scalar rect 361 209 2 128 \;;
#X scalar rect 366 209 2 136 \;;
#X scalar rect 371 209 2 144 \;;
#X scalar rect 376 209 2 152 \;;
#X scalar rect 381 209 2 0 \;;
#X scalar rect 386 209 2 7.99999 \;;
#X scalar rect 391 209 2 16 \;;
#X scalar rect 396 209 2 24 \;;
#X scalar rect 401 209 2 32 \;;
#X scalar rect 406 209 2 40 \;;
#X scalar rect 411 209 2 48 \;;
#X scalar rect 416 209 2 56 \;;
#X scalar rect 421 209 2 64 \;;
#X scalar rect 426 209 2 72 \;;
#X scalar rect 431 209 2 80 \;;
#X scalar rect 436 209 2 88 \;;
#X scalar rect 441 209 2 96 \;;
#X scalar rect 446 209 2 104 \;;
#X scalar rect 451 209 2 112 \;;
#X scalar rect 456 209 2 120 \;;
#X scalar rect 461 209 2 128 \;;
#X scalar rect 466 209 2 136 \;;
#X scalar rect 471 209 2 144 \;;
#X scalar rect 476 209 2 152 \;;
#X scalar rect 481 209 2 0 \;;
#X scalar rect 486 209 2 7.99999 \;;
#X scalar rect 491 209 2 16 \;;
#X scalar rect 496 209 2 24 \;;
#X scalar rect 501 209 2 32 \;;
#X scalar rect 506 209 2 40 \;;
#X scalar rect 511 209 2 48 \;;
#X scalar rect 516 209 2 56 \;;
#X scalar rect 521 209 2 64 \;;
#X scalar haxis 257 103 300 297 \;;
#X scalar vaxis 282 88 90 87 \;;
#X scalar rect 282 103 2 0 \;;
#X scalar rect 287 103 2 8 \;;
#X scalar rect 292 103 2 16 \;;
#X scalar rect 297 103 2 24 \;;
#X scalar rect 302 103 2 32 \;;
#X scalar rect 307 103 2 0 \;;
#X scalar rect 312 103 2 8 \;;
#X scalar rect 317 103 2 16 \;;
#X scalar rect 322 103 2 24 \;;
#X scalar rect 327 103 2 32 \;;
#X scalar rect 332 103 2 0 \;;
#X scalar rect 337 103 2 8 \;;
#X scalar rect 342 103 2 16 \;;
#X scalar rect 347 103 2 24 \;;
#X scalar rect 352 103 2 32 \;;
#X scalar rect 357 103 2 0 \;;
#X scalar rect 362 103 2 8 \;;
#X scalar rect 367 103 2 16 \;;
#X scalar rect 372 103 2 24 \;;
#X scalar rect 377 103 2 32 \;;
#X scalar rect 382 103 2 0 \;;
#X scalar rect 387 103 2 7.99999 \;;
#X scalar rect 392 103 2 16 \;;
#X scalar rect 397 103 2 24 \;;
#X scalar rect 402 103 2 32 \;;
#X scalar rect 407 103 2 0 \;;
#X scalar rect 412 103 2 7.99999 \;;
#X scalar rect 417 103 2 16 \;;
#X scalar rect 422 103 2 24 \;;
#X scalar rect 427 103 2 32 \;;
#X scalar rect 432 103 2 0 \;;
#X scalar rect 437 103 2 7.99999 \;;
#X scalar rect 442 103 2 16 \;;
#X scalar rect 447 103 2 24 \;;
#X scalar rect 452 103 2 32 \;;
#X scalar rect 457 103 2 0 \;;
#X scalar rect 462 103 2 7.99999 \;;
#X scalar rect 467 103 2 16 \;;
#X scalar rect 472 103 2 24 \;;
#X scalar rect 477 103 2 32 \;;
#X scalar rect 482 103 2 0 \;;
#X scalar rect 487 103 2 7.99999 \;;
#X scalar rect 492 103 2 16 \;;
#X scalar rect 497 103 2 24 \;;
#X scalar rect 502 103 2 32 \;;
#X scalar rect 507 103 2 0 \;;
#X scalar rect 512 103 2 7.99999 \;;
#X scalar rect 517 103 2 16 \;;
#X scalar rect 522 103 2 24 \;;
#X coords 0 644 1 643 0 0 0;
#X restore 55 50 pd tmp;
