#N struct xy-curve float x float y float w array z xy-point;
#N struct xy-point float x float y;
#N struct v-seg float x float y float z float w;
#N struct h-seg float x float y float z float w;
#N struct u-arrow float x float y float z;
#N struct xy-plot float x float y float w array z xy-point;
#N struct d-arrow float x float y float z;
#N struct seg float x float y float dx float dy float w;
#N struct l-curve-arrow float x float y float z float z2 float z3 float
h;
#N struct circle2 float x float y float h float h2 float mh float mh2
;
#N struct vaxis float x float y float h float h-3;
#N struct d-curve-arrow float x float y float z float z2 float z3 float
h;
#N struct circle float x float y float color float h float h2;
#N struct u-curve-arrow float x float y float z float z2 float z3 float
h;
#N struct r-curve-arrow float x float y float z float z2 float z3 float
h;
#N struct r-arrow float x float y float z;
#N struct l-arrow float x float y float z;
#N struct rect float x float y float w float h;
#N struct haxis float x float y float w float w-3;
#N struct frame float x float y float w float h;
#N struct y-plot float x float y float w array z y-point;
#N struct y-point float y;
#N struct thickcircle float x float y float color float h float h2
;
#N struct times float x float y;
#N struct plus float x float y;
#N struct minus float x float y;
#N struct divide float x float y;
#N canvas 755 63 294 185 10;
#N canvas 72 481 320 208 fig 1;
#X scalar xy-curve 147 29 1 \; 0 -2 \; 2 0 \; 4 2 \; 6 0 \; 8 -2 \;
10 0 \; 12 2 \; \;;
#X scalar v-seg 150 22 7 1 \;;
#X scalar v-seg 155 22 5 1 \;;
#X scalar xy-curve 249 28 1 \; 0 -2 \; 2 0 \; 4 2 \; 6 0 \; 8 -2 \;
10 0 \; 12 2 \; \;;
#X scalar v-seg 252 21 7 1 \;;
#X scalar v-seg 257 21 5 1 \;;
#X text 53 173 0;
#X text 239 176 2;
#X scalar h-seg 54 41 200 1 \;;
#X scalar u-arrow 54 181 -140 \;;
#X scalar u-arrow 254 181 -140 \;;
#X scalar xy-plot 34 1 1 \; 20 40.0002 \; 22 51.0221 \; 24 60.6106
\; 26 68.1977 \; 28 73.9763 \; 30 78.3618 \; 32 81.7348 \; 34 84.3794
\; 36 86.4952 \; 38 88.2205 \; 40 89.652 \; 42 90.8579 \; 44 91.888
\; 46 92.7785 \; 48 93.5568 \; 50 94.2436 \; 52 94.8549 \; 54 95.4033
\; 56 95.8988 \; 58 96.3494 \; 60 96.7617 \; 62 97.1408 \; 64 97.4914
\; 66 97.8171 \; 68 98.1209 \; 70 98.4056 \; 72 98.6733 \; 74 98.926
\; 76 99.1654 \; 78 99.3929 \; 80 99.6098 \; 82 99.8171 \; 84 100.016
\; 86 100.207 \; 88 100.392 \; 90 100.57 \; 92 100.742 \; 94 100.91
\; 96 101.073 \; 98 101.233 \; 100 101.388 \; 102 101.541 \; 104 101.691
\; 106 101.839 \; 108 101.984 \; 110 102.128 \; 112 102.271 \; 114
102.412 \; 116 102.553 \; 118 102.681 \; 120 102.82 \; 122 102.975
\; 124 103.107 \; 126 103.248 \; 128 103.389 \; 130 103.532 \; 132
103.676 \; 134 103.821 \; 136 103.969 \; 138 104.119 \; 140 104.272
\; 142 104.427 \; 144 104.587 \; 146 104.75 \; 148 104.918 \; 150 105.09
\; 152 105.268 \; 154 105.453 \; 156 105.644 \; 158 105.843 \; 160
106.05 \; 162 106.267 \; 164 106.495 \; 166 106.734 \; 168 106.987
\; 170 107.254 \; 172 107.539 \; 174 107.843 \; 176 108.169 \; 178
108.519 \; 180 108.898 \; 182 109.311 \; 184 109.761 \; 186 110.257
\; 188 110.805 \; 190 111.416 \; 192 112.103 \; 194 112.881 \; 196
113.772 \; 198 114.802 \; 200 116.008 \; 202 117.439 \; 204 119.165
\; 206 121.281 \; 208 123.925 \; 210 127.298 \; 212 131.684 \; 214
137.462 \; 216 145.053 \; 218 154.638 \; 220 165.635 \; \;;
#X scalar xy-plot 34 1 1 \; 20 40.0002 \; 22 41.2667 \; 24 42.5132
\; 26 43.7695 \; 28 45.0264 \; 30 46.2832 \; 32 47.5398 \; 34 48.7965
\; 36 50.0531 \; 38 51.3097 \; 40 52.5663 \; 42 53.823 \; 44 55.0796
\; 46 56.3363 \; 48 57.5929 \; 50 58.8496 \; 52 60.1062 \; 54 61.3628
\; 56 62.6195 \; 58 63.8761 \; 60 65.1327 \; 62 66.3894 \; 64 67.646
\; 66 68.9026 \; 68 70.1593 \; 70 71.4159 \; 72 72.6726 \; 74 73.9292
\; 76 75.1858 \; 78 76.4425 \; 80 77.6992 \; 82 78.9557 \; 84 80.2124
\; 86 81.469 \; 88 82.7257 \; 90 83.9823 \; 92 85.2389 \; 94 86.4956
\; 96 87.7522 \; 98 89.0089 \; 100 90.2656 \; 102 91.5221 \; 104 92.7787
\; 106 94.0354 \; 108 95.292 \; 110 96.5488 \; 112 97.8054 \; 114 99.0623
\; 116 100.319 \; 118 101.565 \; 120 102.82 \; 122 104.094 \; 124 105.341
\; 126 106.598 \; 128 107.855 \; 130 109.111 \; 132 110.368 \; 134
111.625 \; 136 112.881 \; 138 114.138 \; 140 115.394 \; 142 116.651
\; 144 117.908 \; 146 119.164 \; 148 120.421 \; 150 121.678 \; 152
122.934 \; 154 124.191 \; 156 125.448 \; 158 126.704 \; 160 127.961
\; 162 129.218 \; 164 130.474 \; 166 131.731 \; 168 132.987 \; 170
134.244 \; 172 135.501 \; 174 136.757 \; 176 138.014 \; 178 139.271
\; 180 140.527 \; 182 141.784 \; 184 143.041 \; 186 144.297 \; 188
145.554 \; 190 146.81 \; 192 148.067 \; 194 149.324 \; 196 150.58 \;
198 151.837 \; 200 153.094 \; 202 154.35 \; 204 155.607 \; 206 156.864
\; 208 158.12 \; 210 159.377 \; 212 160.634 \; 214 161.89 \; 216 163.147
\; 218 164.393 \; 220 165.635 \; \;;
#X scalar xy-plot 34 1 1 \; 20 40.0002 \; 22 42.936 \; 24 45.8309 \;
26 48.6834 \; 28 51.466 \; 30 54.1599 \; 32 56.751 \; 34 59.2299 \;
36 61.5902 \; 38 63.8295 \; 40 65.9477 \; 42 67.9476 \; 44 69.8331
\; 46 71.6095 \; 48 73.2827 \; 50 74.8592 \; 52 76.3455 \; 54 77.7481
\; 56 79.0731 \; 58 80.3265 \; 60 81.5142 \; 62 82.6411 \; 64 83.7124
\; 66 84.7326 \; 68 85.7059 \; 70 86.6362 \; 72 87.527 \; 74 88.3816
\; 76 89.2031 \; 78 89.9942 \; 80 90.7575 \; 82 91.4952 \; 84 92.2096
\; 86 92.9027 \; 88 93.5763 \; 90 94.2321 \; 92 94.8718 \; 94 95.4968
\; 96 96.1086 \; 98 96.7083 \; 100 97.2975 \; 102 97.8769 \; 104 98.4479
\; 106 99.0116 \; 108 99.5689 \; 110 100.121 \; 112 100.668 \; 114
101.213 \; 116 101.754 \; 118 102.282 \; 120 102.82 \; 122 103.375
\; 124 103.906 \; 126 104.447 \; 128 104.991 \; 130 105.539 \; 132
106.091 \; 134 106.648 \; 136 107.212 \; 138 107.783 \; 140 108.363
\; 142 108.952 \; 144 109.551 \; 146 110.163 \; 148 110.788 \; 150
111.428 \; 152 112.084 \; 154 112.757 \; 156 113.45 \; 158 114.165
\; 160 114.903 \; 162 115.666 \; 164 116.457 \; 166 117.278 \; 168
118.133 \; 170 119.024 \; 172 119.954 \; 174 120.927 \; 176 121.948
\; 178 123.019 \; 180 124.146 \; 182 125.333 \; 184 126.587 \; 186
127.912 \; 188 129.314 \; 190 130.801 \; 192 132.377 \; 194 134.051
\; 196 135.827 \; 198 137.712 \; 200 139.712 \; 202 141.831 \; 204
144.07 \; 206 146.43 \; 208 148.909 \; 210 151.5 \; 212 154.194 \;
214 156.977 \; 216 159.831 \; 218 162.724 \; 220 165.635 \; \;;
#X scalar xy-plot 34 1 1 \; 20 40.0002 \; 22 40.1509 \; 24 40.2792
\; 26 40.4196 \; 28 40.5612 \; 30 40.7038 \; 32 40.8477 \; 34 40.9933
\; 36 41.1408 \; 38 41.2908 \; 40 41.4434 \; 42 41.5992 \; 44 41.7585
\; 46 41.9218 \; 48 42.0895 \; 50 42.2621 \; 52 42.4403 \; 54 42.6247
\; 56 42.8159 \; 58 43.0147 \; 60 43.2221 \; 62 43.439 \; 64 43.6665
\; 66 43.9058 \; 68 44.1586 \; 70 44.4263 \; 72 44.7109 \; 74 45.0148
\; 76 45.3404 \; 78 45.691 \; 80 46.0702 \; 82 46.4824 \; 84 46.933
\; 86 47.4286 \; 88 47.9769 \; 90 48.5883 \; 92 49.275 \; 94 50.0533
\; 96 50.9439 \; 98 51.974 \; 100 53.1799 \; 102 54.6114 \; 104 56.3366
\; 106 58.4525 \; 108 61.097 \; 110 64.4699 \; 112 68.8555 \; 114 74.6341
\; 116 82.2213 \; 118 91.8097 \; 120 102.82 \; 122 113.868 \; 124 123.439
\; 126 131.026 \; 128 136.804 \; 130 141.19 \; 132 144.563 \; 134 147.208
\; 136 149.323 \; 138 151.049 \; 140 152.48 \; 142 153.686 \; 144 154.716
\; 146 155.607 \; 148 156.385 \; 150 157.072 \; 152 157.683 \; 154
158.231 \; 156 158.727 \; 158 159.178 \; 160 159.59 \; 162 159.969
\; 164 160.32 \; 166 160.645 \; 168 160.949 \; 170 161.234 \; 172 161.501
\; 174 161.754 \; 176 161.994 \; 178 162.221 \; 180 162.438 \; 182
162.645 \; 184 162.844 \; 186 163.035 \; 188 163.22 \; 190 163.398
\; 192 163.57 \; 194 163.738 \; 196 163.901 \; 198 164.061 \; 200 164.217
\; 202 164.369 \; 204 164.519 \; 206 164.667 \; 208 164.812 \; 210
164.956 \; 212 165.099 \; 214 165.24 \; 216 165.381 \; 218 165.509
\; 220 165.635 \; \;;
#X text 40 159 0;
#X scalar xy-curve 266 170 1 \; 0 -2 \; 2 0 \; 4 2 \; 6 0 \; 8 -2 \;
10 0 \; 12 2 \; \;;
#X scalar v-seg 269 163 7 1 \;;
#X scalar v-seg 274 163 5 1 \;;
#X text 256 34 2;
#X text 145 140 -0.8;
#X text 116 128 0;
#X text 107 73 0.4;
#X scalar d-arrow 115 94 26 \;;
#X text 65 92 p=0.8;
#X coords 0 208 1 207 0 0 0;
#X restore 51 61 pd fig;
#X obj 47 89 templates;
#N canvas 589 104 566 606 hash 0;
#X coords 0 606 1 605 0 0 0;
#X restore 205 62 pd hash;
#N canvas 219 274 760 703 put-in-graph 1;
#X obj 118 171 f;
#X obj 164 172 + 1;
#X obj 57 14 bng 15 250 50 0 empty empty empty 0 -6 0 8 -262144 -1
-1;
#X obj 53 55 t b b;
#X msg 140 118 0;
#X obj 90 253 sel 1;
#X obj 152 371 pack 0 0 0;
#X msg 273 18 \; pd-xxx clear \; start pd-xxx;
#X obj 292 599 + 40;
#X obj 156 411 s xy-plot-point;
#X obj 183 330 expr $f1*2+20;
#X msg 11 87 0;
#X msg 47 86 1;
#X floatatom 337 95 5 0 0 0 - - -;
#X obj 154 279 f;
#X obj 151 216 t b f;
#X floatatom 381 450 7 0 0 0 - - -;
#X obj 75 417 print;
#X obj 89 225 >= 100;
#X floatatom 375 145 7 0 0 0 - - -;
#X floatatom 170 469 7 0 0 0 - - -;
#X obj 93 85 metro 250;
#X obj 152 251 del 249;
#X msg 107 29 \; pd dsp 1;
#X obj 337 119 expr $f1*44100/100;
#X msg 494 340 \; add-xy-plot 101 0 0 1;
#X msg 606 384 \; start pd-xxx;
#X obj 451 166 loadbang;
#X obj 347 228 rpole~;
#X msg 451 188 0.8;
#X obj 292 154 phasor~;
#X obj 267 203 cos~;
#X obj 300 205 cos~;
#X obj 299 182 -~ 0.25;
#X floatatom 452 211 5 0 0 0 - - -;
#X obj 288 286 *~;
#X obj 324 286 *~;
#X obj 275 367 t b b;
#X obj 291 454 atan2;
#X floatatom 443 448 5 0 0 0 - - -;
#X obj 289 313 butterworth-3 80 100000 0;
#X obj 474 308 butterworth-3 80 100000 0;
#X msg 236 119 0;
#X obj 289 417 snapshot~;
#X obj 364 419 snapshot~;
#X obj 152 305 t f f b;
#X obj 533 252 metro 250;
#X obj 530 227 tgl 15 0 empty empty empty 0 -6 0 8 -262144 -1 -1 0
1;
#X obj 348 252 rzero_rev~;
#X obj 309 500 t f f;
#X obj 309 548 +;
#X floatatom 340 581 7 0 0 0 - - -;
#X obj 292 575 * 20;
#X msg 426 7 \; add-h-seg 20 40 200 1 \; add-u-arrow 20 180 -140 \;
add-u-arrow 220 180 -140 \; add-xy-plot 101 0 0 1;
#X obj 331 523 expr 6.283*(($f1 - $f2*6.283/44100) < -3.14159);
#X connect 0 0 1 0;
#X connect 0 0 15 0;
#X connect 0 0 18 0;
#X connect 1 0 0 1;
#X connect 2 0 3 0;
#X connect 3 0 12 0;
#X connect 3 1 4 0;
#X connect 3 1 23 0;
#X connect 4 0 0 1;
#X connect 5 0 11 0;
#X connect 6 0 9 0;
#X connect 8 0 6 2;
#X connect 10 0 6 1;
#X connect 11 0 21 0;
#X connect 12 0 21 0;
#X connect 13 0 24 0;
#X connect 14 0 45 0;
#X connect 15 0 22 0;
#X connect 15 1 14 1;
#X connect 15 1 13 0;
#X connect 18 0 5 0;
#X connect 21 0 0 0;
#X connect 21 0 42 0;
#X connect 22 0 14 0;
#X connect 24 0 19 0;
#X connect 24 0 30 0;
#X connect 24 0 54 1;
#X connect 27 0 29 0;
#X connect 28 0 48 0;
#X connect 29 0 34 0;
#X connect 30 0 33 0;
#X connect 30 0 31 0;
#X connect 31 0 28 0;
#X connect 31 0 35 0;
#X connect 32 0 36 0;
#X connect 33 0 32 0;
#X connect 34 0 28 1;
#X connect 34 0 48 1;
#X connect 35 0 40 0;
#X connect 36 0 41 0;
#X connect 37 0 43 0;
#X connect 37 1 44 0;
#X connect 38 0 20 0;
#X connect 38 0 49 0;
#X connect 40 0 44 0;
#X connect 41 0 43 0;
#X connect 42 0 30 1;
#X connect 43 0 38 0;
#X connect 43 0 16 0;
#X connect 44 0 38 1;
#X connect 44 0 39 0;
#X connect 45 0 6 0;
#X connect 45 1 10 0;
#X connect 45 2 37 0;
#X connect 46 0 37 0;
#X connect 47 0 46 0;
#X connect 48 0 36 1;
#X connect 48 0 35 1;
#X connect 49 0 50 0;
#X connect 49 1 54 0;
#X connect 50 0 51 0;
#X connect 50 0 52 0;
#X connect 52 0 8 0;
#X connect 54 0 50 1;
#X restore 156 91 pd put-in-graph;
#N canvas 6 296 579 261 xxx 1;
#X scalar h-seg 20 40 200 1 \;;
#X scalar u-arrow 20 180 -140 \;;
#X scalar u-arrow 220 180 -140 \;;
#X scalar xy-plot 0 0 1 \; 20 40.0002 \; 22 51.0221 \; 24 60.6106 \;
26 68.1977 \; 28 73.9763 \; 30 78.3618 \; 32 81.7348 \; 34 84.3794
\; 36 86.4952 \; 38 88.2205 \; 40 89.652 \; 42 90.8579 \; 44 91.888
\; 46 92.7785 \; 48 93.5568 \; 50 94.2436 \; 52 94.8549 \; 54 95.4033
\; 56 95.8988 \; 58 96.3494 \; 60 96.7617 \; 62 97.1408 \; 64 97.4914
\; 66 97.8171 \; 68 98.1209 \; 70 98.4056 \; 72 98.6733 \; 74 98.926
\; 76 99.1654 \; 78 99.3929 \; 80 99.6098 \; 82 99.8171 \; 84 100.016
\; 86 100.207 \; 88 100.392 \; 90 100.57 \; 92 100.742 \; 94 100.91
\; 96 101.073 \; 98 101.233 \; 100 101.388 \; 102 101.541 \; 104 101.691
\; 106 101.839 \; 108 101.984 \; 110 102.128 \; 112 102.271 \; 114
102.412 \; 116 102.553 \; 118 102.681 \; 120 102.82 \; 122 102.975
\; 124 103.107 \; 126 103.248 \; 128 103.389 \; 130 103.532 \; 132
103.676 \; 134 103.821 \; 136 103.969 \; 138 104.119 \; 140 104.272
\; 142 104.427 \; 144 104.587 \; 146 104.75 \; 148 104.918 \; 150 105.09
\; 152 105.268 \; 154 105.453 \; 156 105.644 \; 158 105.843 \; 160
106.05 \; 162 106.267 \; 164 106.495 \; 166 106.734 \; 168 106.987
\; 170 107.254 \; 172 107.539 \; 174 107.843 \; 176 108.169 \; 178
108.519 \; 180 108.898 \; 182 109.311 \; 184 109.761 \; 186 110.257
\; 188 110.805 \; 190 111.416 \; 192 112.103 \; 194 112.881 \; 196
113.772 \; 198 114.802 \; 200 116.008 \; 202 117.439 \; 204 119.165
\; 206 121.281 \; 208 123.925 \; 210 127.298 \; 212 131.684 \; 214
137.462 \; 216 145.053 \; 218 154.638 \; 220 165.635 \; \;;
#X scalar xy-plot 0 0 1 \; 20 40.0002 \; 22 41.2667 \; 24 42.5132 \;
26 43.7695 \; 28 45.0264 \; 30 46.2832 \; 32 47.5398 \; 34 48.7965
\; 36 50.0531 \; 38 51.3097 \; 40 52.5663 \; 42 53.823 \; 44 55.0796
\; 46 56.3363 \; 48 57.5929 \; 50 58.8496 \; 52 60.1062 \; 54 61.3628
\; 56 62.6195 \; 58 63.8761 \; 60 65.1327 \; 62 66.3894 \; 64 67.646
\; 66 68.9026 \; 68 70.1593 \; 70 71.4159 \; 72 72.6726 \; 74 73.9292
\; 76 75.1858 \; 78 76.4425 \; 80 77.6992 \; 82 78.9557 \; 84 80.2124
\; 86 81.469 \; 88 82.7257 \; 90 83.9823 \; 92 85.2389 \; 94 86.4956
\; 96 87.7522 \; 98 89.0089 \; 100 90.2656 \; 102 91.5221 \; 104 92.7787
\; 106 94.0354 \; 108 95.292 \; 110 96.5488 \; 112 97.8054 \; 114 99.0623
\; 116 100.319 \; 118 101.565 \; 120 102.82 \; 122 104.094 \; 124 105.341
\; 126 106.598 \; 128 107.855 \; 130 109.111 \; 132 110.368 \; 134
111.625 \; 136 112.881 \; 138 114.138 \; 140 115.394 \; 142 116.651
\; 144 117.908 \; 146 119.164 \; 148 120.421 \; 150 121.678 \; 152
122.934 \; 154 124.191 \; 156 125.448 \; 158 126.704 \; 160 127.961
\; 162 129.218 \; 164 130.474 \; 166 131.731 \; 168 132.987 \; 170
134.244 \; 172 135.501 \; 174 136.757 \; 176 138.014 \; 178 139.271
\; 180 140.527 \; 182 141.784 \; 184 143.041 \; 186 144.297 \; 188
145.554 \; 190 146.81 \; 192 148.067 \; 194 149.324 \; 196 150.58 \;
198 151.837 \; 200 153.094 \; 202 154.35 \; 204 155.607 \; 206 156.864
\; 208 158.12 \; 210 159.377 \; 212 160.634 \; 214 161.89 \; 216 163.147
\; 218 164.393 \; 220 165.635 \; \;;
#X scalar xy-plot 0 0 1 \; 20 40.0002 \; 22 42.936 \; 24 45.8309 \;
26 48.6834 \; 28 51.466 \; 30 54.1599 \; 32 56.751 \; 34 59.2299 \;
36 61.5902 \; 38 63.8295 \; 40 65.9477 \; 42 67.9476 \; 44 69.8331
\; 46 71.6095 \; 48 73.2827 \; 50 74.8592 \; 52 76.3455 \; 54 77.7481
\; 56 79.0731 \; 58 80.3265 \; 60 81.5142 \; 62 82.6411 \; 64 83.7124
\; 66 84.7326 \; 68 85.7059 \; 70 86.6362 \; 72 87.527 \; 74 88.3816
\; 76 89.2031 \; 78 89.9942 \; 80 90.7575 \; 82 91.4952 \; 84 92.2096
\; 86 92.9027 \; 88 93.5763 \; 90 94.2321 \; 92 94.8718 \; 94 95.4968
\; 96 96.1086 \; 98 96.7083 \; 100 97.2975 \; 102 97.8769 \; 104 98.4479
\; 106 99.0116 \; 108 99.5689 \; 110 100.121 \; 112 100.668 \; 114
101.213 \; 116 101.754 \; 118 102.282 \; 120 102.82 \; 122 103.375
\; 124 103.906 \; 126 104.447 \; 128 104.991 \; 130 105.539 \; 132
106.091 \; 134 106.648 \; 136 107.212 \; 138 107.783 \; 140 108.363
\; 142 108.952 \; 144 109.551 \; 146 110.163 \; 148 110.788 \; 150
111.428 \; 152 112.084 \; 154 112.757 \; 156 113.45 \; 158 114.165
\; 160 114.903 \; 162 115.666 \; 164 116.457 \; 166 117.278 \; 168
118.133 \; 170 119.024 \; 172 119.954 \; 174 120.927 \; 176 121.948
\; 178 123.019 \; 180 124.146 \; 182 125.333 \; 184 126.587 \; 186
127.912 \; 188 129.314 \; 190 130.801 \; 192 132.377 \; 194 134.051
\; 196 135.827 \; 198 137.712 \; 200 139.712 \; 202 141.831 \; 204
144.07 \; 206 146.43 \; 208 148.909 \; 210 151.5 \; 212 154.194 \;
214 156.977 \; 216 159.831 \; 218 162.724 \; 220 165.635 \; \;;
#X scalar xy-plot 0 0 1 \; 20 40.0002 \; 22 40.1509 \; 24 40.2792 \;
26 40.4196 \; 28 40.5612 \; 30 40.7038 \; 32 40.8477 \; 34 40.9933
\; 36 41.1408 \; 38 41.2908 \; 40 41.4434 \; 42 41.5992 \; 44 41.7585
\; 46 41.9218 \; 48 42.0895 \; 50 42.2621 \; 52 42.4403 \; 54 42.6247
\; 56 42.8159 \; 58 43.0147 \; 60 43.2221 \; 62 43.439 \; 64 43.6665
\; 66 43.9058 \; 68 44.1586 \; 70 44.4263 \; 72 44.7109 \; 74 45.0148
\; 76 45.3404 \; 78 45.691 \; 80 46.0702 \; 82 46.4824 \; 84 46.933
\; 86 47.4286 \; 88 47.9769 \; 90 48.5883 \; 92 49.275 \; 94 50.0533
\; 96 50.9439 \; 98 51.974 \; 100 53.1799 \; 102 54.6114 \; 104 56.3366
\; 106 58.4525 \; 108 61.097 \; 110 64.4699 \; 112 68.8555 \; 114 74.6341
\; 116 82.2213 \; 118 91.8097 \; 120 102.82 \; 122 113.868 \; 124 123.439
\; 126 131.026 \; 128 136.804 \; 130 141.19 \; 132 144.563 \; 134 147.208
\; 136 149.323 \; 138 151.049 \; 140 152.48 \; 142 153.686 \; 144 154.716
\; 146 155.607 \; 148 156.385 \; 150 157.072 \; 152 157.683 \; 154
158.231 \; 156 158.727 \; 158 159.178 \; 160 159.59 \; 162 159.969
\; 164 160.32 \; 166 160.645 \; 168 160.949 \; 170 161.234 \; 172 161.501
\; 174 161.754 \; 176 161.994 \; 178 162.221 \; 180 162.438 \; 182
162.645 \; 184 162.844 \; 186 163.035 \; 188 163.22 \; 190 163.398
\; 192 163.57 \; 194 163.738 \; 196 163.901 \; 198 164.061 \; 200 164.217
\; 202 164.369 \; 204 164.519 \; 206 164.667 \; 208 164.812 \; 210
164.956 \; 212 165.099 \; 214 165.24 \; 216 165.381 \; 218 165.509
\; 220 165.635 \; \;;
#X coords 0 261 1 260 0 0 0;
#X restore 44 119 pd xxx;
