#N canvas 355 206 391 143 10;
#X obj 133 37 adsr 1 100 200 50 300;
#X obj 149 62 osc~ 440;
#X obj 133 88 *~;
#X obj 133 13 tgl 15 0 empty empty empty 0 -6 0 8 -262144 -1 -1 0 1
;
#X text 158 13 trigger;
#X text 117 113 (OUT);
#X text 131 101 |;
#X connect 0 0 2 0;
#X connect 1 0 2 1;
#X connect 3 0 0 0;
