#N struct haxis float x float y float w float w-3;
#N struct vaxis float x float y float h float h-3;
#N struct seg float x float y float dx float dy float w;
#N struct rect float x float y float w float h;
#N struct xy-curve float x float y float w array z xy-point;
#N struct xy-point float x float y;
#N struct l-curve-arrow float x float y float z float z2 float z3 float
h;
#N struct circle2 float x float y float h float h2 float mh float mh2
;
#N struct xy-plot float x float y float w array z xy-point;
#N struct d-curve-arrow float x float y float z float z2 float z3 float
h;
#N struct circle float x float y float color float h float h2;
#N struct u-curve-arrow float x float y float z float z2 float z3 float
h;
#N struct r-curve-arrow float x float y float z float z2 float z3 float
h;
#N struct r-arrow float x float y float z;
#N struct l-arrow float x float y float z;
#N struct u-arrow float x float y float z;
#N struct d-arrow float x float y float z;
#N struct v-seg float x float y float z float w;
#N struct h-seg float x float y float z float w;
#N struct frame float x float y float w float h;
#N struct y-plot float x float y float w array z y-point;
#N struct y-point float y;
#N struct thickcircle float x float y float color float h float h2
;
#N struct times float x float y;
#N struct plus float x float y;
#N struct minus float x float y;
#N struct divide float x float y;
#N canvas 112 23 482 287 10;
#N canvas 170 376 315 302 fig 1;
#X scalar haxis 9 68 280 277 \;;
#X scalar vaxis 46 15 250 247 \;;
#X text 54 36 input;
#X text 56 52 time;
#X text 162 240 output time;
#X scalar seg 46 68 200 200 1 \;;
#X scalar rect 45 41 2 2 \;;
#X scalar rect 50 48.3971 2 2 \;;
#X scalar rect 55 55.2074 2 2 \;;
#X scalar rect 60 60.9875 2 2 \;;
#X scalar rect 65 65.5465 2 2 \;;
#X scalar rect 70 68.9924 2 2 \;;
#X scalar rect 75 71.7056 2 2 \;;
#X scalar rect 80 74.2461 2 2 \;;
#X scalar rect 85 77.216 2 2 \;;
#X scalar rect 90 81.1124 2 2 \;;
#X scalar rect 95 86.2054 2 2 \;;
#X scalar rect 100 92.4723 2 2 \;;
#X scalar rect 105 99.6029 2 2 \;;
#X scalar rect 110 107.076 2 2 \;;
#X scalar rect 115 114.285 2 2 \;;
#X scalar rect 120 120.69 2 2 \;;
#X scalar rect 125 125.947 2 2 \;;
#X scalar rect 130 129.992 2 2 \;;
#X scalar rect 135 133.061 2 2 \;;
#X scalar rect 140 135.624 2 2 \;;
#X scalar rect 145 138.28 2 2 \;;
#X scalar rect 150 141.602 2 2 \;;
#X scalar rect 155 146 2 2 \;;
#X scalar rect 160 151.623 2 2 \;;
#X scalar rect 165 158.317 2 2 \;;
#X scalar rect 170 165.668 2 2 \;;
#X scalar rect 175 173.101 2 2 \;;
#X scalar rect 180 180.019 2 2 \;;
#X scalar rect 185 185.953 2 2 \;;
#X scalar rect 190 190.674 2 2 \;;
#X scalar rect 195 194.251 2 2 \;;
#X scalar rect 200 197.032 2 2 \;;
#X scalar rect 205 199.56 2 2 \;;
#X scalar rect 210 202.441 2 2 \;;
#X scalar rect 215 206.193 2 2 \;;
#X scalar rect 220 211.122 2 2 \;;
#X scalar rect 225 217.245 2 2 \;;
#X scalar rect 230 224.288 2 2 \;;
#X scalar rect 235 231.749 2 2 \;;
#X scalar rect 240 239.028 2 2 \;;
#X scalar seg 46 21 200 200 1 \;;
#X coords 0 302 1 301 0 0 0;
#X restore 29 21 pd fig;
#X obj 27 47 templates;
#N canvas 467 462 474 361 xxx 0;
#X scalar rect 20 20 2 2 \;;
#X scalar rect 25 27.3971 2 2 \;;
#X scalar rect 30 34.2074 2 2 \;;
#X scalar rect 35 39.9875 2 2 \;;
#X scalar rect 40 44.5465 2 2 \;;
#X scalar rect 45 47.9924 2 2 \;;
#X scalar rect 50 50.7056 2 2 \;;
#X scalar rect 55 53.2461 2 2 \;;
#X scalar rect 60 56.216 2 2 \;;
#X scalar rect 65 60.1123 2 2 \;;
#X scalar rect 70 65.2054 2 2 \;;
#X scalar rect 75 71.4723 2 2 \;;
#X scalar rect 80 78.6029 2 2 \;;
#X scalar rect 85 86.0756 2 2 \;;
#X scalar rect 90 93.2849 2 2 \;;
#X scalar rect 95 99.69 2 2 \;;
#X scalar rect 100 104.947 2 2 \;;
#X scalar rect 105 108.992 2 2 \;;
#X scalar rect 110 112.061 2 2 \;;
#X scalar rect 115 114.624 2 2 \;;
#X scalar rect 120 117.28 2 2 \;;
#X scalar rect 125 120.602 2 2 \;;
#X scalar rect 130 125 2 2 \;;
#X scalar rect 135 130.623 2 2 \;;
#X scalar rect 140 137.317 2 2 \;;
#X scalar rect 145 144.668 2 2 \;;
#X scalar rect 150 152.101 2 2 \;;
#X scalar rect 155 159.019 2 2 \;;
#X scalar rect 160 164.953 2 2 \;;
#X scalar rect 165 169.674 2 2 \;;
#X scalar rect 170 173.251 2 2 \;;
#X scalar rect 175 176.032 2 2 \;;
#X scalar rect 180 178.56 2 2 \;;
#X scalar rect 185 181.441 2 2 \;;
#X scalar rect 190 185.193 2 2 \;;
#X scalar rect 195 190.122 2 2 \;;
#X scalar rect 200 196.245 2 2 \;;
#X scalar rect 205 203.288 2 2 \;;
#X scalar rect 210 210.749 2 2 \;;
#X scalar rect 215 218.028 2 2 \;;
#X scalar rect 220 224.565 2 2 \;;
#X scalar rect 225 229.984 2 2 \;;
#X scalar rect 230 234.183 2 2 \;;
#X scalar rect 235 237.358 2 2 \;;
#X scalar rect 240 239.956 2 2 \;;
#X scalar rect 245 242.564 2 2 \;;
#X scalar rect 250 245.769 2 2 \;;
#X scalar rect 255 250.01 2 2 \;;
#X scalar rect 260 255.472 2 2 \;;
#X scalar rect 265 262.043 2 2 \;;
#X scalar rect 270 269.338 2 2 \;;
#X scalar rect 275 276.795 2 2 \;;
#X scalar rect 280 283.813 2 2 \;;
#X scalar rect 285 289.897 2 2 \;;
#X scalar rect 290 294.782 2 2 \;;
#X scalar rect 295 298.496 2 2 \;;
#X scalar rect 300 301.355 2 2 \;;
#X scalar rect 305 303.881 2 2 \;;
#X scalar rect 310 306.682 2 2 \;;
#X scalar rect 315 310.295 2 2 \;;
#X scalar rect 320 315.06 2 2 \;;
#X coords 0 361 1 360 0 0 0;
#X restore 31 83 pd xxx;
#N canvas 558 229 647 566 put-in-graph 0;
#X obj 19 141 until;
#X obj 77 155 f;
#X obj 123 156 + 1;
#X obj 17 89 bng 15 250 50 0 empty empty empty 0 -6 0 8 -262144 -1
-1;
#X obj 18 113 t b b;
#X msg 99 102 0;
#X obj 82 212 sel 1;
#X msg 17 6 \; pd-xxx clear \; start pd-xxx;
#X msg 73 450 \; add-rect \$1 \$2 2 2;
#X obj 70 420 pack 0 0;
#X obj 52 242 t f f;
#X obj 81 184 >= 60;
#X obj 52 276 expr $f1*5+20;
#X obj 94 324 expr ($f1 + sin($f1/2))*5+20;
#X connect 0 0 1 0;
#X connect 1 0 2 0;
#X connect 1 0 10 0;
#X connect 1 0 11 0;
#X connect 2 0 1 1;
#X connect 3 0 4 0;
#X connect 4 0 0 0;
#X connect 4 1 5 0;
#X connect 5 0 1 1;
#X connect 6 0 0 1;
#X connect 9 0 8 0;
#X connect 10 0 12 0;
#X connect 10 1 13 0;
#X connect 11 0 6 0;
#X connect 12 0 9 0;
#X connect 13 0 9 1;
#X restore 31 108 pd put-in-graph;
