#N canvas 41 49 409 284 10;
#X floatatom 122 10 5 0 150 0 - #0-pitch -;
#X obj 122 48 phasor~;
#X obj 134 170 +~;
#X floatatom 150 152 5 0 100 0 - #0-offset -;
#X floatatom 135 73 5 0 0 0 - #0-speed -;
#X floatatom 151 112 5 0 100 0 - #0-depth -;
#X floatatom 145 214 5 0 1000 0 - #0-q -;
#X obj 122 232 vcf~;
#X obj 134 190 tabread4~ mtof;
#X text 181 38 sawtooth;
#X text 182 52 oscillator;
#X text 199 92 LFO for sweep;
#X text 171 169 add base to sweep;
#X text 239 193 convert to Hz.;
#X obj 122 28 mtof;
#X obj 135 91 phasor~;
#X obj 135 131 *~;
#X text 166 8 pitch;
#X text 178 72 sweep speed;
#X text 195 113 sweep depth;
#X text 191 152 base center frequency;
#X text 187 215 Q (selectivity);
#X text 120 246 |;
#X text 106 259 (OUT);
#X connect 0 0 14 0;
#X connect 1 0 7 0;
#X connect 2 0 8 0;
#X connect 3 0 2 1;
#X connect 4 0 15 0;
#X connect 5 0 16 1;
#X connect 6 0 7 2;
#X connect 8 0 7 1;
#X connect 14 0 1 0;
#X connect 15 0 16 0;
#X connect 16 0 2 0;
