#N struct haxis float x float y float w float w-3;
#N struct vaxis float x float y float h float h-3;
#N struct rect float x float y float w float h;
#N struct xy-curve float x float y float w array z xy-point;
#N struct xy-point float x float y;
#N struct seg float x float y float dx float dy float w;
#N struct l-curve-arrow float x float y float z float z2 float z3 float
h;
#N struct circle2 float x float y float h float h2 float mh float mh2
;
#N struct xy-plot float x float y float w array z xy-point;
#N struct d-curve-arrow float x float y float z float z2 float z3 float
h;
#N struct circle float x float y float color float h float h2;
#N struct u-curve-arrow float x float y float z float z2 float z3 float
h;
#N struct r-curve-arrow float x float y float z float z2 float z3 float
h;
#N struct r-arrow float x float y float z;
#N struct l-arrow float x float y float z;
#N struct u-arrow float x float y float z;
#N struct d-arrow float x float y float z;
#N struct v-seg float x float y float z float w;
#N struct h-seg float x float y float z float w;
#N struct frame float x float y float w float h;
#N struct y-plot float x float y float w array z y-point;
#N struct y-point float y;
#N struct thickcircle float x float y float color float h float h2
;
#N canvas 89 8 357 238 10;
#N canvas 690 -3 537 661 buildit 0;
#X obj 79 125 until;
#X obj 81 100 t b b;
#X obj 108 152 f;
#X msg 128 97 0;
#X obj 182 152 + 1;
#X obj 182 179 sel 50;
#X obj 261 182 print;
#X obj 81 72 r add-pts;
#X obj 34 334 expr 75 + 5 * $f1;
#X obj 34 360 pack;
#X obj 78 179 s add-1-pt;
#X obj 34 281 r add-1-pt;
#X obj 275 358 pack;
#X obj 38 506 expr 75 + 5 * $f1;
#X obj 38 532 pack;
#X obj 38 453 r add-1-pt;
#X obj 74 361 * 25;
#X msg 120 309 1;
#X obj 34 309 t f f f;
#X obj 295 333 expr $f2 * cos($f1*0.24);
#X obj 117 362 pack;
#X msg 276 384 \; add-rect \$1 275 2 \$2 \;;
#X msg 137 467 1;
#X obj 208 442 moses 35;
#X obj 140 441 moses 15;
#X obj 38 481 t f f f;
#X obj 88 540 * 25;
#X obj 131 541 pack;
#X obj 269 550 pack;
#X obj 289 525 expr $f2 * cos($f1*0.24);
#X msg 38 572 \; add-rect \$1 175 2 \$2 \;;
#X obj 123 283 moses 30;
#X msg 35 387 \; add-rect \$1 375 2 \$2 \;;
#X msg 270 576 \; add-rect \$1 75 2 \$2 \;;
#X msg 31 22 \; pd-zzz clear;
#X msg 271 16 \; start pd-zzz \; add-haxis 50 375 300 297 \; add-vaxis
75 330 90 87 \; add-haxis 50 275 300 297 \; add-vaxis 75 230 90 87
\; add-haxis 50 175 300 297 \; add-vaxis 75 130 90 87 \; add-haxis
50 75 300 297 \; add-vaxis 75 30 90 87 \; add-pts bang;
#X obj 176 472 expr 1 - 0.76 * ($f1 - 15) / 20;
#X msg 399 473 0.24;
#X msg 160 310 0.24;
#X connect 0 0 2 0;
#X connect 1 0 0 0;
#X connect 1 1 3 0;
#X connect 2 0 4 0;
#X connect 2 0 10 0;
#X connect 3 0 2 1;
#X connect 4 0 5 0;
#X connect 4 0 2 1;
#X connect 5 0 0 1;
#X connect 7 0 1 0;
#X connect 8 0 9 0;
#X connect 8 0 12 0;
#X connect 9 0 32 0;
#X connect 11 0 18 0;
#X connect 12 0 21 0;
#X connect 13 0 14 0;
#X connect 13 0 28 0;
#X connect 14 0 30 0;
#X connect 15 0 25 0;
#X connect 16 0 9 1;
#X connect 16 0 20 1;
#X connect 17 0 16 0;
#X connect 18 0 8 0;
#X connect 18 1 20 0;
#X connect 18 2 31 0;
#X connect 19 0 12 1;
#X connect 20 0 19 0;
#X connect 22 0 26 0;
#X connect 23 0 36 0;
#X connect 23 1 37 0;
#X connect 24 0 22 0;
#X connect 24 1 23 0;
#X connect 25 0 13 0;
#X connect 25 1 27 0;
#X connect 25 2 24 0;
#X connect 26 0 27 1;
#X connect 26 0 14 1;
#X connect 27 0 29 0;
#X connect 28 0 33 0;
#X connect 29 0 28 1;
#X connect 31 0 17 0;
#X connect 31 1 38 0;
#X connect 36 0 26 0;
#X connect 37 0 26 0;
#X connect 38 0 16 0;
#X restore 183 68 pd buildit;
#N canvas 70 284 384 456 fig 1;
#X text 7 62 (a);
#X text 7 172 (b);
#X text 7 274 (c);
#X text 7 366 (d);
#X text 354 73 n;
#X text 52 107 -1;
#X text 58 38 1;
#X text 48 211 -1;
#X text 51 313 -1;
#X text 54 411 -1;
#X text 58 136 1;
#X text 58 236 1;
#X text 60 339 1;
#X text 210 37 y[n];
#X text 206 138 x[n]y[n];
#X text 201 349 x[n]y[n];
#X text 208 245 y[n];
#X text 77 86 0;
#X text 321 83 50;
#X scalar haxis 50 375 300 297 \;;
#X scalar vaxis 75 330 90 87 \;;
#X scalar haxis 50 275 300 297 \;;
#X scalar vaxis 75 230 90 87 \;;
#X scalar haxis 50 175 300 297 \;;
#X scalar vaxis 75 130 90 87 \;;
#X scalar haxis 50 75 300 297 \;;
#X scalar vaxis 75 30 90 87 \;;
#X scalar rect 75 175 2 25 \;;
#X scalar rect 75 75 2 25 \;;
#X scalar rect 75 375 2 25 \;;
#X scalar rect 75 275 2 25 \;;
#X scalar rect 80 175 2 25 \;;
#X scalar rect 80 75 2 24.2834 \;;
#X scalar rect 80 375 2 25 \;;
#X scalar rect 80 275 2 24.2834 \;;
#X scalar rect 85 175 2 25 \;;
#X scalar rect 85 75 2 22.1749 \;;
#X scalar rect 85 375 2 25 \;;
#X scalar rect 85 275 2 22.1749 \;;
#X scalar rect 90 175 2 25 \;;
#X scalar rect 90 75 2 18.7951 \;;
#X scalar rect 90 375 2 25 \;;
#X scalar rect 90 275 2 18.7951 \;;
#X scalar rect 95 175 2 25 \;;
#X scalar rect 95 75 2 14.338 \;;
#X scalar rect 95 375 2 25 \;;
#X scalar rect 95 275 2 14.338 \;;
#X scalar rect 100 175 2 25 \;;
#X scalar rect 100 75 2 9.05895 \;;
#X scalar rect 100 375 2 25 \;;
#X scalar rect 100 275 2 9.05895 \;;
#X scalar rect 105 175 2 25 \;;
#X scalar rect 105 75 2 3.26059 \;;
#X scalar rect 105 375 2 25 \;;
#X scalar rect 105 275 2 3.26059 \;;
#X scalar rect 110 175 2 25 \;;
#X scalar rect 110 75 2 -2.72467 \;;
#X scalar rect 110 375 2 25 \;;
#X scalar rect 110 275 2 -2.72467 \;;
#X scalar rect 115 175 2 25 \;;
#X scalar rect 115 75 2 -8.55374 \;;
#X scalar rect 115 375 2 25 \;;
#X scalar rect 115 275 2 -8.55374 \;;
#X scalar rect 120 175 2 25 \;;
#X scalar rect 120 75 2 -13.8925 \;;
#X scalar rect 120 375 2 25 \;;
#X scalar rect 120 275 2 -13.8925 \;;
#X scalar rect 125 175 2 25 \;;
#X scalar rect 125 75 2 -18.4348 \;;
#X scalar rect 125 375 2 25 \;;
#X scalar rect 125 275 2 -18.4348 \;;
#X scalar rect 130 175 2 25 \;;
#X scalar rect 130 75 2 -21.9204 \;;
#X scalar rect 130 375 2 25 \;;
#X scalar rect 130 275 2 -21.9204 \;;
#X scalar rect 135 175 2 25 \;;
#X scalar rect 135 75 2 -24.1495 \;;
#X scalar rect 135 375 2 25 \;;
#X scalar rect 135 275 2 -24.1495 \;;
#X scalar rect 140 175 2 25 \;;
#X scalar rect 140 75 2 -24.9942 \;;
#X scalar rect 140 375 2 25 \;;
#X scalar rect 140 275 2 -24.9942 \;;
#X scalar rect 145 175 2 25 \;;
#X scalar rect 145 75 2 -24.4061 \;;
#X scalar rect 145 375 2 25 \;;
#X scalar rect 145 275 2 -24.4061 \;;
#X scalar rect 150 175 2 25 \;;
#X scalar rect 150 75 2 -22.419 \;;
#X scalar rect 150 375 2 25 \;;
#X scalar rect 150 275 2 -22.419 \;;
#X scalar rect 155 175 2 24.05 \;;
#X scalar rect 155 75 2 -18.4191 \;;
#X scalar rect 155 375 2 25 \;;
#X scalar rect 155 275 2 -19.1467 \;;
#X scalar rect 160 175 2 23.1 \;;
#X scalar rect 160 75 2 -13.6538 \;;
#X scalar rect 160 375 2 25 \;;
#X scalar rect 160 275 2 -14.7768 \;;
#X scalar rect 165 175 2 22.15 \;;
#X scalar rect 165 75 2 -8.4701 \;;
#X scalar rect 165 375 2 25 \;;
#X scalar rect 165 275 2 -9.55993 \;;
#X scalar rect 170 175 2 21.2 \;;
#X scalar rect 170 75 2 -3.21816 \;;
#X scalar rect 170 375 2 25 \;;
#X scalar rect 170 275 2 -3.795 \;;
#X scalar rect 175 175 2 20.25 \;;
#X scalar rect 175 75 2 1.77185 \;;
#X scalar rect 175 375 2 25 \;;
#X scalar rect 175 275 2 2.18747 \;;
#X scalar rect 180 175 2 19.3 \;;
#X scalar rect 180 75 2 6.21039 \;;
#X scalar rect 180 375 2 25 \;;
#X scalar rect 180 275 2 8.04455 \;;
#X scalar rect 185 175 2 18.35 \;;
#X scalar rect 185 75 2 9.86531 \;;
#X scalar rect 185 375 2 25 \;;
#X scalar rect 185 275 2 13.4405 \;;
#X scalar rect 190 175 2 17.4 \;;
#X scalar rect 190 75 2 12.5739 \;;
#X scalar rect 190 375 2 25 \;;
#X scalar rect 190 275 2 18.0659 \;;
#X scalar rect 195 175 2 16.45 \;;
#X scalar rect 195 75 2 14.2495 \;;
#X scalar rect 195 375 2 25 \;;
#X scalar rect 195 275 2 21.6558 \;;
#X scalar rect 200 175 2 15.5 \;;
#X scalar rect 200 75 2 14.8826 \;;
#X scalar rect 200 375 2 25 \;;
#X scalar rect 200 275 2 24.0043 \;;
#X scalar rect 205 175 2 14.55 \;;
#X scalar rect 205 75 2 14.5364 \;;
#X scalar rect 205 375 2 25 \;;
#X scalar rect 205 275 2 24.9767 \;;
#X scalar rect 210 175 2 13.6 \;;
#X scalar rect 210 75 2 13.3374 \;;
#X scalar rect 210 375 2 25 \;;
#X scalar rect 210 275 2 24.5174 \;;
#X scalar rect 215 175 2 12.65 \;;
#X scalar rect 215 75 2 11.4622 \;;
#X scalar rect 215 375 2 25 \;;
#X scalar rect 215 275 2 22.6526 \;;
#X scalar rect 220 175 2 11.7 \;;
#X scalar rect 220 75 2 9.12099 \;;
#X scalar rect 220 375 2 25 \;;
#X scalar rect 220 275 2 19.4893 \;;
#X scalar rect 225 175 2 10.75 \;;
#X scalar rect 225 75 2 6.53978 \;;
#X scalar rect 225 375 2 6 \;;
#X scalar rect 225 275 2 3.65011 \;;
#X scalar rect 230 175 2 9.8 \;;
#X scalar rect 230 75 2 3.94213 \;;
#X scalar rect 230 375 2 6 \;;
#X scalar rect 230 275 2 2.41355 \;;
#X scalar rect 235 175 2 8.85 \;;
#X scalar rect 235 75 2 1.53198 \;;
#X scalar rect 235 375 2 6 \;;
#X scalar rect 235 275 2 1.03863 \;;
#X scalar rect 240 175 2 7.9 \;;
#X scalar rect 240 75 2 -0.521163 \;;
#X scalar rect 240 375 2 6 \;;
#X scalar rect 240 275 2 -0.39582 \;;
#X scalar rect 245 175 2 6.95 \;;
#X scalar rect 245 75 2 -2.09379 \;;
#X scalar rect 245 375 2 6 \;;
#X scalar rect 245 275 2 -1.80759 \;;
#X scalar rect 250 175 2 6 \;;
#X scalar rect 250 75 2 -3.11573 \;;
#X scalar rect 250 375 2 6 \;;
#X scalar rect 250 275 2 -3.11573 \;;
#X scalar rect 255 175 2 6 \;;
#X scalar rect 255 75 2 -4.24527 \;;
#X scalar rect 255 375 2 6 \;;
#X scalar rect 255 275 2 -4.24527 \;;
#X scalar rect 260 175 2 6 \;;
#X scalar rect 260 75 2 -5.13145 \;;
#X scalar rect 260 375 2 6 \;;
#X scalar rect 260 275 2 -5.13145 \;;
#X scalar rect 265 175 2 6 \;;
#X scalar rect 265 75 2 -5.72348 \;;
#X scalar rect 265 375 2 6 \;;
#X scalar rect 265 275 2 -5.72348 \;;
#X scalar rect 270 175 2 6 \;;
#X scalar rect 270 75 2 -5.98742 \;;
#X scalar rect 270 375 2 6 \;;
#X scalar rect 270 275 2 -5.98742 \;;
#X scalar rect 275 175 2 6 \;;
#X scalar rect 275 75 2 -5.90813 \;;
#X scalar rect 275 375 2 6 \;;
#X scalar rect 275 275 2 -5.90813 \;;
#X scalar rect 280 175 2 6 \;;
#X scalar rect 280 75 2 -5.49016 \;;
#X scalar rect 280 375 2 6 \;;
#X scalar rect 280 275 2 -5.49016 \;;
#X scalar rect 285 175 2 6 \;;
#X scalar rect 285 75 2 -4.75748 \;;
#X scalar rect 285 375 2 6 \;;
#X scalar rect 285 275 2 -4.75748 \;;
#X scalar rect 290 175 2 6 \;;
#X scalar rect 290 75 2 -3.75207 \;;
#X scalar rect 290 375 2 6 \;;
#X scalar rect 290 275 2 -3.75207 \;;
#X scalar rect 295 175 2 6 \;;
#X scalar rect 295 75 2 -2.53159 \;;
#X scalar rect 295 375 2 6 \;;
#X scalar rect 295 275 2 -2.53159 \;;
#X scalar rect 300 175 2 6 \;;
#X scalar rect 300 75 2 -1.16598 \;;
#X scalar rect 300 375 2 6 \;;
#X scalar rect 300 275 2 -1.16598 \;;
#X scalar rect 305 175 2 6 \;;
#X scalar rect 305 75 2 0.266466 \;;
#X scalar rect 305 375 2 6 \;;
#X scalar rect 305 275 2 0.266466 \;;
#X scalar rect 310 175 2 6 \;;
#X scalar rect 310 75 2 1.68364 \;;
#X scalar rect 310 375 2 6 \;;
#X scalar rect 310 275 2 1.68364 \;;
#X scalar rect 315 175 2 6 \;;
#X scalar rect 315 75 2 3.00429 \;;
#X scalar rect 315 375 2 6 \;;
#X scalar rect 315 275 2 3.00429 \;;
#X scalar rect 320 175 2 6 \;;
#X scalar rect 320 75 2 4.15273 \;;
#X scalar rect 320 375 2 6 \;;
#X scalar rect 320 275 2 4.15273 \;;
#X coords 0 456 1 455 0 0 0;
#X restore 51 61 pd fig;
#X obj 178 93 templates;
#N canvas 505 304 517 494 zzz 0;
#X scalar haxis 50 375 300 297 \;;
#X scalar vaxis 75 330 90 87 \;;
#X scalar haxis 50 275 300 297 \;;
#X scalar vaxis 75 230 90 87 \;;
#X scalar haxis 50 175 300 297 \;;
#X scalar vaxis 75 130 90 87 \;;
#X scalar haxis 50 75 300 297 \;;
#X scalar vaxis 75 30 90 87 \;;
#X scalar rect 75 175 2 25 \;;
#X scalar rect 75 75 2 25 \;;
#X scalar rect 75 375 2 25 \;;
#X scalar rect 75 275 2 25 \;;
#X scalar rect 80 175 2 25 \;;
#X scalar rect 80 75 2 24.2834 \;;
#X scalar rect 80 375 2 25 \;;
#X scalar rect 80 275 2 24.2834 \;;
#X scalar rect 85 175 2 25 \;;
#X scalar rect 85 75 2 22.1749 \;;
#X scalar rect 85 375 2 25 \;;
#X scalar rect 85 275 2 22.1749 \;;
#X scalar rect 90 175 2 25 \;;
#X scalar rect 90 75 2 18.7951 \;;
#X scalar rect 90 375 2 25 \;;
#X scalar rect 90 275 2 18.7951 \;;
#X scalar rect 95 175 2 25 \;;
#X scalar rect 95 75 2 14.338 \;;
#X scalar rect 95 375 2 25 \;;
#X scalar rect 95 275 2 14.338 \;;
#X scalar rect 100 175 2 25 \;;
#X scalar rect 100 75 2 9.05895 \;;
#X scalar rect 100 375 2 25 \;;
#X scalar rect 100 275 2 9.05895 \;;
#X scalar rect 105 175 2 25 \;;
#X scalar rect 105 75 2 3.26059 \;;
#X scalar rect 105 375 2 25 \;;
#X scalar rect 105 275 2 3.26059 \;;
#X scalar rect 110 175 2 25 \;;
#X scalar rect 110 75 2 -2.72467 \;;
#X scalar rect 110 375 2 25 \;;
#X scalar rect 110 275 2 -2.72467 \;;
#X scalar rect 115 175 2 25 \;;
#X scalar rect 115 75 2 -8.55374 \;;
#X scalar rect 115 375 2 25 \;;
#X scalar rect 115 275 2 -8.55374 \;;
#X scalar rect 120 175 2 25 \;;
#X scalar rect 120 75 2 -13.8925 \;;
#X scalar rect 120 375 2 25 \;;
#X scalar rect 120 275 2 -13.8925 \;;
#X scalar rect 125 175 2 25 \;;
#X scalar rect 125 75 2 -18.4348 \;;
#X scalar rect 125 375 2 25 \;;
#X scalar rect 125 275 2 -18.4348 \;;
#X scalar rect 130 175 2 25 \;;
#X scalar rect 130 75 2 -21.9204 \;;
#X scalar rect 130 375 2 25 \;;
#X scalar rect 130 275 2 -21.9204 \;;
#X scalar rect 135 175 2 25 \;;
#X scalar rect 135 75 2 -24.1495 \;;
#X scalar rect 135 375 2 25 \;;
#X scalar rect 135 275 2 -24.1495 \;;
#X scalar rect 140 175 2 25 \;;
#X scalar rect 140 75 2 -24.9942 \;;
#X scalar rect 140 375 2 25 \;;
#X scalar rect 140 275 2 -24.9942 \;;
#X scalar rect 145 175 2 25 \;;
#X scalar rect 145 75 2 -24.4061 \;;
#X scalar rect 145 375 2 25 \;;
#X scalar rect 145 275 2 -24.4061 \;;
#X scalar rect 150 175 2 25 \;;
#X scalar rect 150 75 2 -22.419 \;;
#X scalar rect 150 375 2 25 \;;
#X scalar rect 150 275 2 -22.419 \;;
#X scalar rect 155 175 2 24.05 \;;
#X scalar rect 155 75 2 -18.4191 \;;
#X scalar rect 155 375 2 25 \;;
#X scalar rect 155 275 2 -19.1467 \;;
#X scalar rect 160 175 2 23.1 \;;
#X scalar rect 160 75 2 -13.6538 \;;
#X scalar rect 160 375 2 25 \;;
#X scalar rect 160 275 2 -14.7768 \;;
#X scalar rect 165 175 2 22.15 \;;
#X scalar rect 165 75 2 -8.4701 \;;
#X scalar rect 165 375 2 25 \;;
#X scalar rect 165 275 2 -9.55993 \;;
#X scalar rect 170 175 2 21.2 \;;
#X scalar rect 170 75 2 -3.21816 \;;
#X scalar rect 170 375 2 25 \;;
#X scalar rect 170 275 2 -3.795 \;;
#X scalar rect 175 175 2 20.25 \;;
#X scalar rect 175 75 2 1.77185 \;;
#X scalar rect 175 375 2 25 \;;
#X scalar rect 175 275 2 2.18747 \;;
#X scalar rect 180 175 2 19.3 \;;
#X scalar rect 180 75 2 6.21039 \;;
#X scalar rect 180 375 2 25 \;;
#X scalar rect 180 275 2 8.04455 \;;
#X scalar rect 185 175 2 18.35 \;;
#X scalar rect 185 75 2 9.86531 \;;
#X scalar rect 185 375 2 25 \;;
#X scalar rect 185 275 2 13.4405 \;;
#X scalar rect 190 175 2 17.4 \;;
#X scalar rect 190 75 2 12.5739 \;;
#X scalar rect 190 375 2 25 \;;
#X scalar rect 190 275 2 18.0659 \;;
#X scalar rect 195 175 2 16.45 \;;
#X scalar rect 195 75 2 14.2495 \;;
#X scalar rect 195 375 2 25 \;;
#X scalar rect 195 275 2 21.6558 \;;
#X scalar rect 200 175 2 15.5 \;;
#X scalar rect 200 75 2 14.8826 \;;
#X scalar rect 200 375 2 25 \;;
#X scalar rect 200 275 2 24.0043 \;;
#X scalar rect 205 175 2 14.55 \;;
#X scalar rect 205 75 2 14.5364 \;;
#X scalar rect 205 375 2 25 \;;
#X scalar rect 205 275 2 24.9767 \;;
#X scalar rect 210 175 2 13.6 \;;
#X scalar rect 210 75 2 13.3374 \;;
#X scalar rect 210 375 2 25 \;;
#X scalar rect 210 275 2 24.5174 \;;
#X scalar rect 215 175 2 12.65 \;;
#X scalar rect 215 75 2 11.4622 \;;
#X scalar rect 215 375 2 25 \;;
#X scalar rect 215 275 2 22.6526 \;;
#X scalar rect 220 175 2 11.7 \;;
#X scalar rect 220 75 2 9.12099 \;;
#X scalar rect 220 375 2 25 \;;
#X scalar rect 220 275 2 19.4893 \;;
#X scalar rect 225 175 2 10.75 \;;
#X scalar rect 225 75 2 6.53978 \;;
#X scalar rect 225 375 2 6 \;;
#X scalar rect 225 275 2 3.65011 \;;
#X scalar rect 230 175 2 9.8 \;;
#X scalar rect 230 75 2 3.94213 \;;
#X scalar rect 230 375 2 6 \;;
#X scalar rect 230 275 2 2.41355 \;;
#X scalar rect 235 175 2 8.85 \;;
#X scalar rect 235 75 2 1.53198 \;;
#X scalar rect 235 375 2 6 \;;
#X scalar rect 235 275 2 1.03863 \;;
#X scalar rect 240 175 2 7.9 \;;
#X scalar rect 240 75 2 -0.521163 \;;
#X scalar rect 240 375 2 6 \;;
#X scalar rect 240 275 2 -0.39582 \;;
#X scalar rect 245 175 2 6.95 \;;
#X scalar rect 245 75 2 -2.09379 \;;
#X scalar rect 245 375 2 6 \;;
#X scalar rect 245 275 2 -1.80759 \;;
#X scalar rect 250 175 2 6 \;;
#X scalar rect 250 75 2 -3.11573 \;;
#X scalar rect 250 375 2 6 \;;
#X scalar rect 250 275 2 -3.11573 \;;
#X scalar rect 255 175 2 6 \;;
#X scalar rect 255 75 2 -4.24527 \;;
#X scalar rect 255 375 2 6 \;;
#X scalar rect 255 275 2 -4.24527 \;;
#X scalar rect 260 175 2 6 \;;
#X scalar rect 260 75 2 -5.13145 \;;
#X scalar rect 260 375 2 6 \;;
#X scalar rect 260 275 2 -5.13145 \;;
#X scalar rect 265 175 2 6 \;;
#X scalar rect 265 75 2 -5.72348 \;;
#X scalar rect 265 375 2 6 \;;
#X scalar rect 265 275 2 -5.72348 \;;
#X scalar rect 270 175 2 6 \;;
#X scalar rect 270 75 2 -5.98742 \;;
#X scalar rect 270 375 2 6 \;;
#X scalar rect 270 275 2 -5.98742 \;;
#X scalar rect 275 175 2 6 \;;
#X scalar rect 275 75 2 -5.90813 \;;
#X scalar rect 275 375 2 6 \;;
#X scalar rect 275 275 2 -5.90813 \;;
#X scalar rect 280 175 2 6 \;;
#X scalar rect 280 75 2 -5.49016 \;;
#X scalar rect 280 375 2 6 \;;
#X scalar rect 280 275 2 -5.49016 \;;
#X scalar rect 285 175 2 6 \;;
#X scalar rect 285 75 2 -4.75748 \;;
#X scalar rect 285 375 2 6 \;;
#X scalar rect 285 275 2 -4.75748 \;;
#X scalar rect 290 175 2 6 \;;
#X scalar rect 290 75 2 -3.75207 \;;
#X scalar rect 290 375 2 6 \;;
#X scalar rect 290 275 2 -3.75207 \;;
#X scalar rect 295 175 2 6 \;;
#X scalar rect 295 75 2 -2.53159 \;;
#X scalar rect 295 375 2 6 \;;
#X scalar rect 295 275 2 -2.53159 \;;
#X scalar rect 300 175 2 6 \;;
#X scalar rect 300 75 2 -1.16598 \;;
#X scalar rect 300 375 2 6 \;;
#X scalar rect 300 275 2 -1.16598 \;;
#X scalar rect 305 175 2 6 \;;
#X scalar rect 305 75 2 0.266466 \;;
#X scalar rect 305 375 2 6 \;;
#X scalar rect 305 275 2 0.266466 \;;
#X scalar rect 310 175 2 6 \;;
#X scalar rect 310 75 2 1.68364 \;;
#X scalar rect 310 375 2 6 \;;
#X scalar rect 310 275 2 1.68364 \;;
#X scalar rect 315 175 2 6 \;;
#X scalar rect 315 75 2 3.00429 \;;
#X scalar rect 315 375 2 6 \;;
#X scalar rect 315 275 2 3.00429 \;;
#X scalar rect 320 175 2 6 \;;
#X scalar rect 320 75 2 4.15273 \;;
#X scalar rect 320 375 2 6 \;;
#X scalar rect 320 275 2 4.15273 \;;
#X coords 0 494 1 493 0 0 0;
#X restore 56 108 pd zzz;
