#N struct frame float x float y float w float h;
#N struct y-plot float x float y float w array z y-point;
#N struct y-point float y;
#N struct d-arrow float x float y float z;
#N struct r-curve-arrow float x float y float z float z2 float z3 float
h;
#N struct haxis float x float y float w float w-3;
#N struct vaxis float x float y float h float h-3;
#N struct rect float x float y float w float h;
#N struct circle float x float y float color float h float h2;
#N struct u-curve-arrow float x float y float z float z2 float z3 float
h;
#N struct r-arrow float x float y float z;
#N struct l-arrow float x float y float z;
#N struct u-arrow float x float y float z;
#N struct v-seg float x float y float z float w;
#N struct h-seg float x float y float z float w;
#N canvas 661 100 349 191 10;
#N canvas 45 18 408 321 fig 1;
#X scalar frame 28 180 60 54 \;;
#X scalar y-plot 33 186 1 \; 0 \; 2.25 \; 4.5 \; 6.75 \; 9 \; 11.25
\; 13.5 \; 15.75 \; 18 \; 20.25 \; 22.5 \; 24.75 \; 27 \; 29.25 \;
31.5 \; 33.75 \; 36 \; 38.25 \; 40.5 \; 42.75 \; 0 \; 2.25 \; 4.5 \;
6.75 \; 9 \; 11.25 \; 13.5 \; 15.75 \; 18 \; 20.25 \; 22.5 \; 24.75
\; 27 \; 29.25 \; 31.5 \; 33.75 \; 36 \; 38.25 \; 40.5 \; 42.75 \;
0 \; 2.25 \; 4.5 \; 6.75 \; 9 \; 11.25 \; 13.5 \; 15.75 \; 18 \; 20.25
\; \;;
#X text 8 214 OUT;
#X scalar d-arrow 16 156 94 \;;
#X scalar frame 8 136 48 19 \;;
#X scalar d-arrow 23 108 27 \;;
#X scalar r-curve-arrow 117 78 -40 -58 -89 41 \;;
#X scalar r-curve-arrow 122 281 -54 -58 -102 -41 \;;
#X text 20 169 S/H;
#X text 47 144 trigger;
#X scalar d-arrow 47 156 23 \;;
#X text 7 55 IN;
#X scalar haxis 103 237 300 297 \;;
#X scalar vaxis 128 222 90 87 \;;
#X scalar haxis 103 137 300 297 \;;
#X scalar vaxis 128 122 90 87 \;;
#X scalar haxis 103 37 300 297 \;;
#X scalar vaxis 128 22 90 87 \;;
#X scalar rect 128 237 2 40 \;;
#X scalar rect 133 237 2 39.9211 \;;
#X scalar rect 138 237 2 39.6846 \;;
#X scalar rect 143 237 2 39.2915 \;;
#X scalar rect 148 237 2 38.7433 \;;
#X scalar rect 153 237 2 38.0423 \;;
#X scalar rect 158 237 2 37.1911 \;;
#X scalar rect 163 237 2 36.1931 \;;
#X scalar rect 168 237 2 35.0523 \;;
#X scalar rect 173 237 2 33.7731 \;;
#X scalar rect 178 237 2 32.3607 \;;
#X scalar rect 183 237 2 30.8205 \;;
#X scalar rect 188 237 2 29.1588 \;;
#X scalar rect 193 237 2 27.3819 \;;
#X scalar rect 198 237 2 25.497 \;;
#X scalar rect 203 237 2 23.5114 \;;
#X scalar rect 208 237 2 21.4331 \;;
#X scalar rect 213 237 2 19.2702 \;;
#X scalar rect 218 237 2 17.0312 \;;
#X scalar rect 223 237 2 14.725 \;;
#X scalar rect 228 237 2 12.3607 \;;
#X scalar rect 233 237 2 9.94764 \;;
#X scalar rect 238 237 2 7.4953 \;;
#X scalar rect 243 237 2 5.01338 \;;
#X scalar rect 248 237 2 2.51167 \;;
#X scalar rect 253 237 2 5.07036e-05 \;;
#X scalar rect 258 237 2 -2.51157 \;;
#X scalar rect 263 237 2 -5.01328 \;;
#X scalar rect 268 237 2 -7.4952 \;;
#X scalar rect 273 237 2 -9.94754 \;;
#X scalar rect 278 237 2 -12.3606 \;;
#X scalar rect 283 237 2 -14.7249 \;;
#X scalar rect 288 237 2 -17.0311 \;;
#X scalar rect 293 237 2 -19.2701 \;;
#X scalar rect 298 237 2 -21.433 \;;
#X scalar rect 303 237 2 -23.5114 \;;
#X scalar rect 308 237 2 -25.4969 \;;
#X scalar rect 313 237 2 -27.3818 \;;
#X scalar rect 318 237 2 -29.1587 \;;
#X scalar rect 323 237 2 -30.8205 \;;
#X scalar rect 328 237 2 -32.3606 \;;
#X scalar rect 333 237 2 -33.7731 \;;
#X scalar rect 338 237 2 -35.0522 \;;
#X scalar rect 343 237 2 -36.193 \;;
#X scalar rect 348 237 2 -37.191 \;;
#X scalar rect 353 237 2 -38.0422 \;;
#X scalar rect 358 237 2 -38.7433 \;;
#X scalar rect 363 237 2 -39.2915 \;;
#X scalar rect 368 237 2 -39.6846 \;;
#X scalar rect 128 137 2 16 \;;
#X scalar rect 133 137 2 17.6 \;;
#X scalar rect 138 137 2 19.2 \;;
#X scalar rect 143 137 2 20.8 \;;
#X scalar rect 148 137 2 22.4 \;;
#X scalar rect 153 137 2 24 \;;
#X scalar rect 158 137 2 25.6 \;;
#X scalar rect 163 137 2 27.2 \;;
#X scalar rect 168 137 2 28.8 \;;
#X scalar rect 173 137 2 30.4 \;;
#X scalar rect 178 137 2 32 \;;
#X scalar rect 183 137 2 33.6 \;;
#X scalar rect 188 137 2 35.2 \;;
#X scalar rect 193 137 2 36.8 \;;
#X scalar rect 198 137 2 38.4 \;;
#X scalar rect 203 137 2 0 \;;
#X scalar rect 208 137 2 1.6 \;;
#X scalar rect 213 137 2 3.2 \;;
#X scalar rect 218 137 2 4.8 \;;
#X scalar rect 223 137 2 6.4 \;;
#X scalar rect 228 137 2 8 \;;
#X scalar rect 233 137 2 9.6 \;;
#X scalar rect 238 137 2 11.2 \;;
#X scalar rect 243 137 2 12.8 \;;
#X scalar rect 248 137 2 14.4 \;;
#X scalar rect 253 137 2 16 \;;
#X scalar rect 258 137 2 17.6 \;;
#X scalar rect 263 137 2 19.2 \;;
#X scalar rect 268 137 2 20.8 \;;
#X scalar rect 273 137 2 22.4 \;;
#X scalar rect 278 137 2 24 \;;
#X scalar rect 283 137 2 25.6 \;;
#X scalar rect 288 137 2 27.2 \;;
#X scalar rect 293 137 2 28.8 \;;
#X scalar rect 298 137 2 30.4 \;;
#X scalar rect 303 137 2 32 \;;
#X scalar rect 308 137 2 33.6 \;;
#X scalar rect 313 137 2 35.2 \;;
#X scalar rect 318 137 2 36.8 \;;
#X scalar rect 323 137 2 38.4 \;;
#X scalar rect 328 137 2 0 \;;
#X scalar rect 333 137 2 1.6 \;;
#X scalar rect 338 137 2 3.2 \;;
#X scalar rect 343 137 2 4.8 \;;
#X scalar rect 348 137 2 6.4 \;;
#X scalar rect 353 137 2 8 \;;
#X scalar rect 358 137 2 9.6 \;;
#X scalar rect 363 137 2 11.2 \;;
#X scalar rect 368 137 2 12.8 \;;
#X scalar rect 128 37 2 8 \;;
#X scalar rect 133 37 2 8 \;;
#X scalar rect 138 37 2 8 \;;
#X scalar rect 143 37 2 8 \;;
#X scalar rect 148 37 2 8 \;;
#X scalar rect 153 37 2 8 \;;
#X scalar rect 158 37 2 8 \;;
#X scalar rect 163 37 2 8 \;;
#X scalar rect 168 37 2 8 \;;
#X scalar rect 173 37 2 8 \;;
#X scalar rect 178 37 2 8 \;;
#X scalar rect 183 37 2 8 \;;
#X scalar rect 188 37 2 8 \;;
#X scalar rect 193 37 2 8 \;;
#X scalar rect 198 37 2 8 \;;
#X scalar rect 203 37 2 23.5114 \;;
#X scalar rect 208 37 2 23.5114 \;;
#X scalar rect 213 37 2 23.5114 \;;
#X scalar rect 218 37 2 23.5114 \;;
#X scalar rect 223 37 2 23.5114 \;;
#X scalar rect 228 37 2 23.5114 \;;
#X scalar rect 233 37 2 23.5114 \;;
#X scalar rect 238 37 2 23.5114 \;;
#X scalar rect 243 37 2 23.5114 \;;
#X scalar rect 248 37 2 23.5114 \;;
#X scalar rect 253 37 2 23.5114 \;;
#X scalar rect 258 37 2 23.5114 \;;
#X scalar rect 263 37 2 23.5114 \;;
#X scalar rect 268 37 2 23.5114 \;;
#X scalar rect 273 37 2 23.5114 \;;
#X scalar rect 278 37 2 23.5114 \;;
#X scalar rect 283 37 2 23.5114 \;;
#X scalar rect 288 37 2 23.5114 \;;
#X scalar rect 293 37 2 23.5114 \;;
#X scalar rect 298 37 2 23.5114 \;;
#X scalar rect 303 37 2 23.5114 \;;
#X scalar rect 308 37 2 23.5114 \;;
#X scalar rect 313 37 2 23.5114 \;;
#X scalar rect 318 37 2 23.5114 \;;
#X scalar rect 323 37 2 23.5114 \;;
#X scalar rect 328 37 2 -32.3606 \;;
#X scalar rect 333 37 2 -32.3606 \;;
#X scalar rect 338 37 2 -32.3606 \;;
#X scalar rect 343 37 2 -32.3606 \;;
#X scalar rect 348 37 2 -32.3606 \;;
#X scalar rect 353 37 2 -32.3606 \;;
#X scalar rect 358 37 2 -32.3606 \;;
#X scalar rect 363 37 2 -32.3606 \;;
#X scalar rect 368 37 2 -32.3606 \;;
#X scalar r-curve-arrow 120 143 -19 -41 -65 19 \;;
#X coords 0 321 1 320 0 0 0;
#X restore 57 26 pd fig;
#X obj 200 35 templates;
#N canvas 178 151 985 433 buildit 0;
#X obj 61 157 until;
#X obj 63 132 t b b;
#X obj 64 187 f;
#X msg 115 148 0;
#X obj 150 168 + 1;
#X obj 64 226 t f f;
#X obj 63 323 expr 75 + 5 * $f1;
#X obj 63 349 pack;
#X obj 63 109 bng 15 250 50 0 empty empty empty 0 -6 0 8 -262144 -1
-1;
#X obj 150 191 sel 49;
#X obj 239 158 until;
#X obj 241 133 t b b;
#X obj 242 188 f;
#X msg 293 149 0;
#X obj 328 169 + 1;
#X obj 242 227 t f f;
#X obj 242 317 expr 75 + 5 * $f1;
#X obj 242 343 pack;
#X obj 241 110 bng 15 250 50 0 empty empty empty 0 -6 0 8 -262144 -1
-1;
#X obj 328 192 sel 49;
#X obj 296 346 * 40;
#X msg 23 17 \; pd-tmp clear;
#X msg 24 62 \; start pd-tmp \;;
#X obj 449 162 until;
#X obj 451 137 t b b;
#X obj 452 192 f;
#X msg 503 153 0;
#X obj 538 173 + 1;
#X obj 452 231 t f f;
#X obj 454 326 expr 75 + 5 * $f1;
#X obj 454 352 pack;
#X obj 451 114 bng 15 250 50 0 empty empty empty 0 -6 0 8 -262144 -1
-1;
#X obj 538 196 sel 49;
#X msg 454 383 \; add-rect \$1 75 2 \$2 \;;
#X obj 508 355 * 40;
#X msg 62 380 \; add-rect \$1 275 2 \$2 \;;
#X msg 242 374 \; add-rect \$1 175 2 \$2 \;;
#X msg 151 37 \; add-haxis 50 275 300 297 \; add-vaxis 75 260 90 87
;
#X msg 357 39 \; add-haxis 50 175 300 297 \; add-vaxis 75 160 90 87
;
#X msg 577 41 \; add-haxis 50 75 300 297 \; add-vaxis 75 60 90 87;
#X obj 118 350 * 40;
#X obj 118 226 / 50;
#X obj 78 258 expr cos(3.14159 * $f1);
#X obj 268 277 expr ($f1 - int($f1));
#X obj 293 233 + 10;
#X obj 505 218 + 10;
#X obj 505 268 moses 1;
#X msg 480 291 0.2;
#X obj 293 256 / 25;
#X obj 506 242 / 25;
#X obj 529 292 expr cos(3.14159 * (-10./50. + 25./50.*int($f1)));
#X connect 0 0 2 0;
#X connect 1 0 0 0;
#X connect 1 1 3 0;
#X connect 2 0 4 0;
#X connect 2 0 5 0;
#X connect 3 0 2 1;
#X connect 4 0 2 1;
#X connect 4 0 9 0;
#X connect 5 0 6 0;
#X connect 5 1 41 0;
#X connect 6 0 7 0;
#X connect 7 0 35 0;
#X connect 8 0 1 0;
#X connect 9 0 0 1;
#X connect 10 0 12 0;
#X connect 11 0 10 0;
#X connect 11 1 13 0;
#X connect 12 0 14 0;
#X connect 12 0 15 0;
#X connect 13 0 12 1;
#X connect 14 0 12 1;
#X connect 14 0 19 0;
#X connect 15 0 16 0;
#X connect 15 1 44 0;
#X connect 16 0 17 0;
#X connect 17 0 36 0;
#X connect 18 0 11 0;
#X connect 19 0 10 1;
#X connect 20 0 17 1;
#X connect 23 0 25 0;
#X connect 24 0 23 0;
#X connect 24 1 26 0;
#X connect 25 0 27 0;
#X connect 25 0 28 0;
#X connect 26 0 25 1;
#X connect 27 0 25 1;
#X connect 27 0 32 0;
#X connect 28 0 29 0;
#X connect 28 1 45 0;
#X connect 29 0 30 0;
#X connect 30 0 33 0;
#X connect 31 0 24 0;
#X connect 32 0 23 1;
#X connect 34 0 30 1;
#X connect 40 0 7 1;
#X connect 41 0 42 0;
#X connect 42 0 40 0;
#X connect 43 0 20 0;
#X connect 44 0 48 0;
#X connect 45 0 49 0;
#X connect 46 0 47 0;
#X connect 46 1 50 0;
#X connect 47 0 34 0;
#X connect 48 0 43 0;
#X connect 49 0 46 0;
#X connect 50 0 34 0;
#X restore 199 60 pd buildit;
#N canvas 30 267 640 644 tmp 0;
#X scalar haxis 236 244 300 297 \;;
#X scalar vaxis 261 229 90 87 \;;
#X scalar haxis 236 144 300 297 \;;
#X scalar vaxis 261 129 90 87 \;;
#X scalar haxis 236 44 300 297 \;;
#X scalar vaxis 261 29 90 87 \;;
#X scalar rect 261 244 2 40 \;;
#X scalar rect 266 244 2 39.9211 \;;
#X scalar rect 271 244 2 39.6846 \;;
#X scalar rect 276 244 2 39.2915 \;;
#X scalar rect 281 244 2 38.7433 \;;
#X scalar rect 286 244 2 38.0423 \;;
#X scalar rect 291 244 2 37.1911 \;;
#X scalar rect 296 244 2 36.1931 \;;
#X scalar rect 301 244 2 35.0523 \;;
#X scalar rect 306 244 2 33.7731 \;;
#X scalar rect 311 244 2 32.3607 \;;
#X scalar rect 316 244 2 30.8205 \;;
#X scalar rect 321 244 2 29.1588 \;;
#X scalar rect 326 244 2 27.3819 \;;
#X scalar rect 331 244 2 25.497 \;;
#X scalar rect 336 244 2 23.5114 \;;
#X scalar rect 341 244 2 21.4331 \;;
#X scalar rect 346 244 2 19.2702 \;;
#X scalar rect 351 244 2 17.0312 \;;
#X scalar rect 356 244 2 14.725 \;;
#X scalar rect 361 244 2 12.3607 \;;
#X scalar rect 366 244 2 9.94764 \;;
#X scalar rect 371 244 2 7.4953 \;;
#X scalar rect 376 244 2 5.01338 \;;
#X scalar rect 381 244 2 2.51167 \;;
#X scalar rect 386 244 2 5.07036e-05 \;;
#X scalar rect 391 244 2 -2.51157 \;;
#X scalar rect 396 244 2 -5.01328 \;;
#X scalar rect 401 244 2 -7.4952 \;;
#X scalar rect 406 244 2 -9.94754 \;;
#X scalar rect 411 244 2 -12.3606 \;;
#X scalar rect 416 244 2 -14.7249 \;;
#X scalar rect 421 244 2 -17.0311 \;;
#X scalar rect 426 244 2 -19.2701 \;;
#X scalar rect 431 244 2 -21.433 \;;
#X scalar rect 436 244 2 -23.5114 \;;
#X scalar rect 441 244 2 -25.4969 \;;
#X scalar rect 446 244 2 -27.3818 \;;
#X scalar rect 451 244 2 -29.1587 \;;
#X scalar rect 456 244 2 -30.8205 \;;
#X scalar rect 461 244 2 -32.3606 \;;
#X scalar rect 466 244 2 -33.7731 \;;
#X scalar rect 471 244 2 -35.0522 \;;
#X scalar rect 476 244 2 -36.193 \;;
#X scalar rect 481 244 2 -37.191 \;;
#X scalar rect 486 244 2 -38.0422 \;;
#X scalar rect 491 244 2 -38.7433 \;;
#X scalar rect 496 244 2 -39.2915 \;;
#X scalar rect 501 244 2 -39.6846 \;;
#X scalar rect 261 144 2 16 \;;
#X scalar rect 266 144 2 17.6 \;;
#X scalar rect 271 144 2 19.2 \;;
#X scalar rect 276 144 2 20.8 \;;
#X scalar rect 281 144 2 22.4 \;;
#X scalar rect 286 144 2 24 \;;
#X scalar rect 291 144 2 25.6 \;;
#X scalar rect 296 144 2 27.2 \;;
#X scalar rect 301 144 2 28.8 \;;
#X scalar rect 306 144 2 30.4 \;;
#X scalar rect 311 144 2 32 \;;
#X scalar rect 316 144 2 33.6 \;;
#X scalar rect 321 144 2 35.2 \;;
#X scalar rect 326 144 2 36.8 \;;
#X scalar rect 331 144 2 38.4 \;;
#X scalar rect 336 144 2 0 \;;
#X scalar rect 341 144 2 1.6 \;;
#X scalar rect 346 144 2 3.2 \;;
#X scalar rect 351 144 2 4.8 \;;
#X scalar rect 356 144 2 6.4 \;;
#X scalar rect 361 144 2 8 \;;
#X scalar rect 366 144 2 9.6 \;;
#X scalar rect 371 144 2 11.2 \;;
#X scalar rect 376 144 2 12.8 \;;
#X scalar rect 381 144 2 14.4 \;;
#X scalar rect 386 144 2 16 \;;
#X scalar rect 391 144 2 17.6 \;;
#X scalar rect 396 144 2 19.2 \;;
#X scalar rect 401 144 2 20.8 \;;
#X scalar rect 406 144 2 22.4 \;;
#X scalar rect 411 144 2 24 \;;
#X scalar rect 416 144 2 25.6 \;;
#X scalar rect 421 144 2 27.2 \;;
#X scalar rect 426 144 2 28.8 \;;
#X scalar rect 431 144 2 30.4 \;;
#X scalar rect 436 144 2 32 \;;
#X scalar rect 441 144 2 33.6 \;;
#X scalar rect 446 144 2 35.2 \;;
#X scalar rect 451 144 2 36.8 \;;
#X scalar rect 456 144 2 38.4 \;;
#X scalar rect 461 144 2 0 \;;
#X scalar rect 466 144 2 1.6 \;;
#X scalar rect 471 144 2 3.2 \;;
#X scalar rect 476 144 2 4.8 \;;
#X scalar rect 481 144 2 6.4 \;;
#X scalar rect 486 144 2 8 \;;
#X scalar rect 491 144 2 9.6 \;;
#X scalar rect 496 144 2 11.2 \;;
#X scalar rect 501 144 2 12.8 \;;
#X scalar rect 261 44 2 8 \;;
#X scalar rect 266 44 2 8 \;;
#X scalar rect 271 44 2 8 \;;
#X scalar rect 276 44 2 8 \;;
#X scalar rect 281 44 2 8 \;;
#X scalar rect 286 44 2 8 \;;
#X scalar rect 291 44 2 8 \;;
#X scalar rect 296 44 2 8 \;;
#X scalar rect 301 44 2 8 \;;
#X scalar rect 306 44 2 8 \;;
#X scalar rect 311 44 2 8 \;;
#X scalar rect 316 44 2 8 \;;
#X scalar rect 321 44 2 8 \;;
#X scalar rect 326 44 2 8 \;;
#X scalar rect 331 44 2 8 \;;
#X scalar rect 336 44 2 23.5114 \;;
#X scalar rect 341 44 2 23.5114 \;;
#X scalar rect 346 44 2 23.5114 \;;
#X scalar rect 351 44 2 23.5114 \;;
#X scalar rect 356 44 2 23.5114 \;;
#X scalar rect 361 44 2 23.5114 \;;
#X scalar rect 366 44 2 23.5114 \;;
#X scalar rect 371 44 2 23.5114 \;;
#X scalar rect 376 44 2 23.5114 \;;
#X scalar rect 381 44 2 23.5114 \;;
#X scalar rect 386 44 2 23.5114 \;;
#X scalar rect 391 44 2 23.5114 \;;
#X scalar rect 396 44 2 23.5114 \;;
#X scalar rect 401 44 2 23.5114 \;;
#X scalar rect 406 44 2 23.5114 \;;
#X scalar rect 411 44 2 23.5114 \;;
#X scalar rect 416 44 2 23.5114 \;;
#X scalar rect 421 44 2 23.5114 \;;
#X scalar rect 426 44 2 23.5114 \;;
#X scalar rect 431 44 2 23.5114 \;;
#X scalar rect 436 44 2 23.5114 \;;
#X scalar rect 441 44 2 23.5114 \;;
#X scalar rect 446 44 2 23.5114 \;;
#X scalar rect 451 44 2 23.5114 \;;
#X scalar rect 456 44 2 23.5114 \;;
#X scalar rect 461 44 2 -32.3606 \;;
#X scalar rect 466 44 2 -32.3606 \;;
#X scalar rect 471 44 2 -32.3606 \;;
#X scalar rect 476 44 2 -32.3606 \;;
#X scalar rect 481 44 2 -32.3606 \;;
#X scalar rect 486 44 2 -32.3606 \;;
#X scalar rect 491 44 2 -32.3606 \;;
#X scalar rect 496 44 2 -32.3606 \;;
#X scalar rect 501 44 2 -32.3606 \;;
#X coords 0 644 1 643 0 0 0;
#X restore 55 50 pd tmp;
