#N canvas 36 21 361 336 10;
#X obj 40 152 line~;
#X floatatom 24 17 0 0 0 0 - - -;
#X obj 24 238 cos~;
#X obj 40 132 pack 0 50;
#X floatatom 40 92 0 0 100 0 - - -;
#X obj 24 57 -~ 0.5;
#X obj 24 195 *~;
#X obj 40 112 / 10;
#X obj 24 216 clip~ -0.5 0.5;
#X text 82 151 smooth it;
#X text 78 173 add 1;
#X text 59 238 cosine wave lookup (-1/2 and 1/2 give -1);
#X obj 40 172 +~ 1;
#X obj 24 258 +~ 1;
#X obj 24 278 *~ 0.5;
#X text 64 257 add one (range now from 0 to 2);
#X text 74 278 ...and now from 0 to 1;
#X text 9 306 (OUT);
#X text 132 216 clip to range -1/2 to 1/2;
#X text 66 92 <-index;
#X text 51 17 <-frequency;
#X obj 24 37 phasor~;
#X text 50 194 increase amplitude of sawtooth;
#X text 75 57 0-centered sawtooth;
#X text 78 113 ...in tenths;
#X text 22 292 |;
#X connect 0 0 12 0;
#X connect 1 0 21 0;
#X connect 2 0 13 0;
#X connect 3 0 0 0;
#X connect 4 0 7 0;
#X connect 5 0 6 0;
#X connect 6 0 8 0;
#X connect 7 0 3 0;
#X connect 8 0 2 0;
#X connect 12 0 6 1;
#X connect 13 0 14 0;
#X connect 21 0 5 0;
