#N canvas 11 0 465 560 10;
#X obj 6 477 hip~ 5;
#X obj 6 365 +~ 1;
#X obj 6 435 *~;
#X obj 6 386 +~;
#X obj 50 388 samphold~;
#X obj 6 301 samphold~;
#X obj 6 343 *~;
#X obj 139 346 r~ phase;
#X obj 56 174 s~ phase;
#X obj 77 301 r~ phase;
#X obj 21 322 r~ phase;
#X obj 70 363 r~ phase;
#X floatatom 4 29 0 0 0 0 - - -;
#X obj 15 84 r chunk-size;
#X obj 15 105 t b f;
#X obj 4 129 /;
#X obj 4 6 loadbang;
#X obj 139 370 -~ 0.5;
#X obj 139 394 *~ 0.5;
#X obj 139 417 cos~;
#X obj 4 63 expr pow(2 \, $f1/120);
#X obj 4 150 phasor~;
#X obj 51 343 r~ read-pt;
#X obj 5 176 +~ 0.5;
#X obj 6 197 wrap~;
#X obj 6 218 s~ phase2;
#X obj 6 280 r chunk-size-samples;
#X obj 6 456 +~;
#X obj 6 411 tabread4~ table22;
#X text 30 28 <-- transposition \,;
#X text 34 451 <- (second reader;
#X text 67 466 not shown);
#X text 54 534 (a);
#X obj 232 500 hip~ 5;
#X floatatom 373 225 4 0 100 0 - - -;
#X obj 233 457 *~;
#X floatatom 232 177 0 0 200 0 - - -;
#X obj 233 372 +~;
#X obj 232 331 samphold~;
#X obj 233 351 *~;
#X obj 369 368 r~ phase;
#X obj 232 144 s~ phase;
#X obj 307 331 r~ phase;
#X obj 268 352 r~ phase;
#X obj 373 264 s chunk-size;
#X floatatom 232 3 0 0 0 0 - - -;
#X obj 241 27 r chunk-size;
#X obj 241 52 t b f;
#X obj 369 392 -~ 0.5;
#X obj 369 416 *~ 0.5;
#X obj 369 439 cos~;
#X obj 232 122 phasor~;
#X obj 232 282 s~ read-pt;
#X obj 269 372 r~ read-pt;
#X obj 306 102 +~ 0.5;
#X obj 307 123 wrap~;
#X obj 307 144 s~ phase2;
#X obj 232 479 +~;
#X obj 373 243 * 0.001;
#X obj 232 240 phasor~;
#X obj 232 261 *~ 0.9;
#X obj 233 393 *~ 44100;
#X obj 233 433 tabread4~ table23;
#X obj 232 310 r chunk-size;
#X obj 233 413 +~ 1;
#X obj 274 219 s precession;
#X obj 331 52 t b f;
#X obj 331 27 r precession;
#X obj 232 79 expr (pow(2 \, $f1/120)-$f3)/$f2;
#X obj 232 219 / 0.9;
#X obj 232 198 * 0.01;
#X obj 373 181 loadbang;
#X msg 373 203 10;
#X text 263 177 <-- precession;
#X text 289 191 (percent);
#X text 266 4 <-- transposition;
#X text 32 43 (tenths of a halftone);
#X text 262 473 <- (second reader;
#X text 295 488 not shown);
#X text 419 199 chunk;
#X text 419 212 size;
#X text 305 538 (b);
#X text 403 225 <-(msec);
#X text 7 243 (chunk size and read point;
#X text 9 256 controls not shown);
#X text 4 491 |;
#X text 230 514 |;
#X text 1 504 (OUT);
#X text 218 527 (OUT);
#X connect 1 0 3 0;
#X connect 2 0 27 0;
#X connect 3 0 28 0;
#X connect 4 0 3 1;
#X connect 5 0 6 0;
#X connect 6 0 1 0;
#X connect 7 0 17 0;
#X connect 9 0 5 1;
#X connect 10 0 6 1;
#X connect 11 0 4 1;
#X connect 12 0 20 0;
#X connect 13 0 14 0;
#X connect 14 0 15 0;
#X connect 14 1 15 1;
#X connect 15 0 21 0;
#X connect 16 0 12 0;
#X connect 17 0 18 0;
#X connect 18 0 19 0;
#X connect 19 0 2 1;
#X connect 20 0 15 0;
#X connect 21 0 8 0;
#X connect 21 0 23 0;
#X connect 22 0 4 0;
#X connect 23 0 24 0;
#X connect 24 0 25 0;
#X connect 26 0 5 0;
#X connect 27 0 0 0;
#X connect 28 0 2 0;
#X connect 34 0 58 0;
#X connect 35 0 57 0;
#X connect 36 0 70 0;
#X connect 37 0 61 0;
#X connect 38 0 39 0;
#X connect 39 0 37 0;
#X connect 40 0 48 0;
#X connect 42 0 38 1;
#X connect 43 0 39 1;
#X connect 45 0 68 0;
#X connect 46 0 47 0;
#X connect 47 0 68 0;
#X connect 47 1 68 1;
#X connect 48 0 49 0;
#X connect 49 0 50 0;
#X connect 50 0 35 1;
#X connect 51 0 41 0;
#X connect 51 0 54 0;
#X connect 53 0 37 1;
#X connect 54 0 55 0;
#X connect 55 0 56 0;
#X connect 57 0 33 0;
#X connect 58 0 44 0;
#X connect 59 0 60 0;
#X connect 60 0 52 0;
#X connect 61 0 64 0;
#X connect 62 0 35 0;
#X connect 63 0 38 0;
#X connect 64 0 62 0;
#X connect 66 0 68 0;
#X connect 66 1 68 2;
#X connect 67 0 66 0;
#X connect 68 0 51 0;
#X connect 69 0 59 0;
#X connect 70 0 65 0;
#X connect 70 0 69 0;
#X connect 71 0 72 0;
#X connect 72 0 34 0;
