#N struct frame float x float y float w float h;
#N struct rect float x float y float w float h;
#N struct y-plot float x float y float w array z y-point;
#N struct y-point float y;
#N struct d-arrow float x float y float z;
#N struct l-arrow float x float y float z;
#N struct h-seg float x float y float z float w;
#N struct v-seg float x float y float z float w;
#N struct times float x float y float x1 float x2;
#N struct plus float x float y;
#N struct xy-curve float x float y float w array z xy-point;
#N struct xy-point float x float y;
#N struct seg float x float y float dx float dy float w;
#N struct l-curve-arrow float x float y float z float z2 float z3 float
h;
#N struct circle2 float x float y float h float h2 float mh float mh2
;
#N struct vaxis float x float y float h float h-3;
#N struct xy-plot float x float y float w array z xy-point;
#N struct d-curve-arrow float x float y float z float z2 float z3 float
h;
#N struct circle float x float y float color float h float h2;
#N struct u-curve-arrow float x float y float z float z2 float z3 float
h;
#N struct r-curve-arrow float x float y float z float z2 float z3 float
h;
#N struct r-arrow float x float y float z;
#N struct u-arrow float x float y float z;
#N struct haxis float x float y float w float w-3;
#N struct thickcircle float x float y float color float h float h2
;
#N struct minus float x float y;
#N struct divide float x float y;
#N canvas 522 170 294 185 10;
#N canvas 53 8 270 357 fig 1;
#X scalar frame 169 112 80 60 \;;
#X scalar rect 176 142 1 0 \;;
#X scalar rect 179 142 1 3.55787 \;;
#X scalar rect 182 142 1 7.04331 \;;
#X scalar rect 185 142 1 10.3854 \;;
#X scalar rect 188 142 1 13.516 \;;
#X scalar rect 191 142 1 16.3715 \;;
#X scalar rect 194 142 1 18.8937 \;;
#X scalar rect 197 142 1 21.0313 \;;
#X scalar rect 200 142 1 22.7408 \;;
#X scalar rect 203 142 1 23.9873 \;;
#X scalar rect 206 142 1 24.7455 \;;
#X scalar rect 209 142 1 25 \;;
#X scalar rect 212 142 1 24.7455 \;;
#X scalar rect 215 142 1 23.9873 \;;
#X scalar rect 218 142 1 22.7408 \;;
#X scalar rect 221 142 1 21.0314 \;;
#X scalar rect 224 142 1 18.8938 \;;
#X scalar rect 227 142 1 16.3716 \;;
#X scalar rect 230 142 1 13.5161 \;;
#X scalar rect 233 142 1 10.3854 \;;
#X scalar rect 236 142 1 7.04337 \;;
#X scalar rect 239 142 1 3.55793 \;;
#X scalar frame 34 286 60 60 \;;
#X scalar y-plot 39 291 1 \; 0 \; 2.25 \; 4.5 \; 6.75 \; 9 \; 11.25
\; 13.5 \; 15.75 \; 18 \; 20.25 \; 22.5 \; 24.75 \; 27 \; 29.25 \;
31.5 \; 33.75 \; 36 \; 38.25 \; 40.5 \; 42.75 \; 0 \; 2.25 \; 4.5 \;
6.75 \; 9 \; 11.25 \; 13.5 \; 15.75 \; 18 \; 20.25 \; 22.5 \; 24.75
\; 27 \; 29.25 \; 31.5 \; 33.75 \; 36 \; 38.25 \; 40.5 \; 42.75 \;
0 \; 2.25 \; 4.5 \; 6.75 \; 9 \; 11.25 \; 13.5 \; 15.75 \; 18 \; 20.25
\; \;;
#X text 21 57 0;
#X text 8 232 -1;
#X text 13 183 1;
#X scalar d-arrow 63 347 13 \;;
#X scalar d-arrow 63 61 14 \;;
#X text 52 298 OUT;
#X scalar frame 26 112 80 60 \;;
#X scalar rect 33 142 1 10.0465 \;;
#X scalar rect 36 142 1 10.0886 \;;
#X scalar rect 39 142 1 7.25538 \;;
#X scalar rect 42 142 1 2.40107 \;;
#X scalar rect 45 142 1 -2.68234 \;;
#X scalar rect 48 142 1 -5.94415 \;;
#X scalar rect 51 142 1 -5.87614 \;;
#X scalar rect 54 142 1 -2.13338 \;;
#X scalar rect 57 142 1 4.26072 \;;
#X scalar rect 60 142 1 11.2109 \;;
#X scalar rect 63 142 1 16.2492 \;;
#X scalar rect 66 142 1 17.3877 \;;
#X scalar rect 69 142 1 13.8183 \;;
#X scalar rect 72 142 1 6.20771 \;;
#X scalar rect 75 142 1 -3.52086 \;;
#X scalar rect 78 142 1 -12.8403 \;;
#X scalar rect 81 142 1 -19.4701 \;;
#X scalar rect 84 142 1 -22.1209 \;;
#X scalar rect 87 142 1 -20.8671 \;;
#X scalar rect 90 142 1 -17.0214 \;;
#X scalar rect 93 142 1 -12.5685 \;;
#X scalar rect 96 142 1 -9.37384 \;;
#X text 30 -20 frequency;
#X scalar d-arrow 62 248 38 \;;
#X text 20 10 1;
#X scalar l-arrow 74 237 18 \;;
#X scalar d-arrow 62 211 17 \;;
#X scalar l-arrow 73 200 18 \;;
#X scalar d-arrow 62 173 17 \;;
#X text 93 112 size;
#X text 93 150 location;
#X scalar h-seg 63 269 147 1 \;;
#X scalar d-arrow 210 233 36 \;;
#X scalar l-arrow 221 222 18 \;;
#X text 242 127 N;
#X text 157 183 1;
#X text 157 208 0;
#X text 166 247 0;
#X text 241 247 N;
#X scalar l-arrow 73 86 137 \;;
#X scalar d-arrow 63 96 15 \;;
#X scalar v-seg 210 86 25 1 \;;
#X scalar d-arrow 210 173 40 \;;
#X scalar frame 53 228 20 19 \;;
#X scalar times 58 233 0 0 \;;
#X scalar frame 200 213 20 19 \;;
#X scalar times 205 218 0 0 \;;
#X scalar frame 53 76 20 19 \;;
#X scalar times 58 81 0 0 \;;
#X scalar frame 52 191 20 19 \;;
#X scalar plus 57 195 \;;
#X coords 0 357 1 356 0 0 0;
#X restore 51 61 pd fig;
#X obj 56 88 templates;
