#N canvas 93 36 348 399 10;
#X floatatom 13 32 0 0 0 0 - - -;
#X obj 68 263 *~;
#X obj 178 215 line~;
#X floatatom 178 50 0 0 0 0 - - -;
#X obj 178 193 pack 0 200;
#X obj 178 28 r window;
#X obj 13 10 r transpose;
#X obj 13 80 exp;
#X floatatom 13 102 6 0 0 0 - - -;
#X obj 13 178 /;
#X obj 121 119 * 0.001;
#X obj 264 269 line~;
#X obj 264 247 pack 0 200;
#X floatatom 264 204 0 0 0 0 - - -;
#X obj 264 182 r delay;
#X obj 68 285 +~;
#X obj 13 307 cos~;
#X obj 13 329 *~;
#X obj 13 354 +~;
#X obj 87 227 wrap~;
#X obj 210 264 *~;
#X obj 210 292 +~;
#X obj 157 315 cos~;
#X obj 157 338 *~;
#X obj 121 142 t b f;
#X floatatom 13 200 6 0 0 0 - - -;
#X obj 87 205 +~ 0.5;
#X obj 13 262 -~ 0.5;
#X obj 13 284 *~ 0.5;
#X obj 157 263 -~ 0.5;
#X obj 157 291 *~ 0.5;
#X obj 13 125 - 1;
#X obj 13 57 * 0.05776;
#X obj 13 147 * -1;
#X text 42 31 <-- transposition;
#X text 79 42 (halftones);
#X text 67 96 speed;
#X text 66 108 change;
#X text 43 172 tape head;
#X obj 13 227 phasor~;
#X obj 264 227 max 1.5;
#X text 266 147 delay;
#X text 264 162 (msec);
#X obj 178 73 max 1;
#X text 44 183 rotation freq;
#X text 11 367 |;
#X text 212 49 <--window;
#X text 235 63 (msec);
#X obj 68 307 vd~ G09-del;
#X obj 210 317 vd~ G09-del;
#X text 4 380 (OUT);
#X connect 0 0 32 0;
#X connect 1 0 15 0;
#X connect 2 0 1 1;
#X connect 2 0 20 1;
#X connect 3 0 43 0;
#X connect 4 0 2 0;
#X connect 5 0 3 0;
#X connect 6 0 0 0;
#X connect 7 0 8 0;
#X connect 8 0 31 0;
#X connect 9 0 25 0;
#X connect 10 0 24 0;
#X connect 11 0 15 1;
#X connect 11 0 21 1;
#X connect 12 0 11 0;
#X connect 13 0 40 0;
#X connect 14 0 13 0;
#X connect 15 0 48 0;
#X connect 16 0 17 0;
#X connect 17 0 18 0;
#X connect 19 0 20 0;
#X connect 19 0 29 0;
#X connect 20 0 21 0;
#X connect 21 0 49 0;
#X connect 22 0 23 0;
#X connect 23 0 18 1;
#X connect 24 0 9 0;
#X connect 24 1 9 1;
#X connect 25 0 39 0;
#X connect 26 0 19 0;
#X connect 27 0 28 0;
#X connect 28 0 16 0;
#X connect 29 0 30 0;
#X connect 30 0 22 0;
#X connect 31 0 33 0;
#X connect 32 0 7 0;
#X connect 33 0 9 0;
#X connect 39 0 1 0;
#X connect 39 0 27 0;
#X connect 39 0 26 0;
#X connect 40 0 12 0;
#X connect 43 0 10 0;
#X connect 43 0 4 0;
#X connect 48 0 17 1;
#X connect 49 0 23 1;
