#N canvas 135 3 329 187 10;
#X obj 194 52 inlet;
#X obj 194 108 outlet;
#X obj 245 108 outlet;
#X obj 194 85 + \$1;
#X obj 245 85 - \$1;
#X floatatom 29 61 3 0 0 0 - - -;
#X floatatom 29 107 3 0 0 0 - - -;
#X obj 29 83 plusminus 5;
#X floatatom 101 107 3 0 0 0 - - -;
#X text 61 28 (a);
#X text 215 23 (b);
#X connect 0 0 3 0;
#X connect 0 0 4 0;
#X connect 3 0 1 0;
#X connect 4 0 2 0;
#X connect 5 0 7 0;
#X connect 7 0 6 0;
#X connect 7 1 8 0;
