#N struct h-seg float x float y float z float w;
#N struct xy-plot float x float y float w array z xy-point;
#N struct xy-point float x float y;
#N struct v-seg float x float y float z float w;
#N struct u-arrow float x float y float z;
#N struct r-arrow float x float y float z;
#N struct u-curve-arrow float x float y float z float z2 float z3 float
h;
#N struct xy-curve float x float y float w array z xy-point;
#N struct seg float x float y float dx float dy float w;
#N struct l-curve-arrow float x float y float z float z2 float z3 float
h;
#N struct circle2 float x float y float h float h2 float mh float mh2
;
#N struct vaxis float x float y float h float h-3;
#N struct d-curve-arrow float x float y float z float z2 float z3 float
h;
#N struct circle float x float y float color float h float h2;
#N struct r-curve-arrow float x float y float z float z2 float z3 float
h;
#N struct l-arrow float x float y float z;
#N struct d-arrow float x float y float z;
#N struct rect float x float y float w float h;
#N struct haxis float x float y float w float w-3;
#N struct frame float x float y float w float h;
#N struct y-plot float x float y float w array z y-point;
#N struct y-point float y;
#N struct thickcircle float x float y float color float h float h2
;
#N struct times float x float y;
#N struct plus float x float y;
#N struct minus float x float y;
#N struct divide float x float y;
#N canvas 549 56 482 287 10;
#N canvas 49 157 401 290 fig 1;
#X scalar h-seg 80 233 134 1 \;;
#X scalar h-seg 79 260 134 1 \;;
#X scalar xy-plot 220 256 1 \; 0.5 1 \; 3 1 \; 4.5 -1 \; 4.5 -7.5 \;
11 -9.5 \; 5 -11.5 \; 5 -16 \; 3.5 -19 \; 1.5 -19 \; \;;
#X scalar h-seg 179 93 134 1 \;;
#X text 233 35 ripple;
#X scalar v-seg 211 76 58 1 \;;
#X scalar v-seg 196 76 168 1 \;;
#X text 112 210 passband;
#X text 225 219 stopband;
#X scalar u-arrow 204 70 -23 \;;
#X text 200 245 transition;
#X text 249 114 stopband;
#X text 249 129 attenuation;
#X scalar r-arrow 380 80 -360 \;;
#X scalar u-arrow 20 250 -170 \;;
#X scalar xy-plot 0 0 1 \; 0 0 \; 0 0 \; 0 0 \; 0 0 \; 0 0 \; 0 0 \;
0 0 \; 0 0 \; 0 0 \; 0 0 \; 0 0 \; 0 0 \; 0 0 \; 0 0 \; 0 0 \; 0 0
\; 0 0 \; 0 0 \; 0 0 \; 0 0 \; 0 0 \; 0 0 \; 0 0 \; 0 0 \; 0 0 \; 0
0 \; 0 0 \; 0 0 \; 0 0 \; 0 0 \; 0 0 \; 0 0 \; 0 0 \; 0 0 \; 0 0 \;
0 0 \; 0 0 \; 0 0 \; 0 0 \; 0 0 \; 0 0 \; 0 0 \; 0 0 \; 0 0 \; 0 0
\; 0 0 \; 0 0 \; 0 0 \; 0 0 \; 0 0 \; 0 0 \; 0 0 \; 0 0 \; 0 0 \; 0
0 \; 0 0 \; 0 0 \; 0 0 \; 0 0 \; 0 0 \; 0 0 \; 0 0 \; 0 0 \; 0 0 \;
0 0 \; 0 0 \; 0 0 \; 0 0 \; 0 0 \; 0 0 \; 0 0 \; 0 0 \; 0 0 \; 0 0
\; 0 0 \; 0 0 \; 0 0 \; 0 0 \; 0 0 \; 0 0 \; 0 0 \; 0 0 \; 0 0 \; 0
0 \; 0 0 \; 0 0 \; 0 0 \; 0 0 \; 0 0 \; 0 0 \; 0 0 \; 0 0 \; 0 0 \;
0 0 \; 0 0 \; 0 0 \; 0 0 \; 0 0 \; 0 0 \; 0 0 \; 0 0 \; \;;
#X scalar xy-plot 0 40 1 \; 20 40.3279 \; 24 43.1104 \; 28 44.3523
\; 32 42.9464 \; 36 40.7684 \; 40 44.902 \; 44 46.808 \; 48 44.515
\; 52 41.8577 \; 56 49.4475 \; 60 53.2358 \; 64 47.8037 \; 68 50.3951
\; 72 81.2169 \; 76 120.334 \; 80 160.407 \; 84 193.542 \; 88 214.064
\; 92 220.466 \; 96 215.698 \; 100 205.716 \; 104 196.916 \; 108 193.602
\; 112 196.555 \; 116 203.271 \; 120 209.634 \; 124 212.165 \; 128
209.749 \; 132 204.039 \; 136 198.419 \; 140 196.109 \; 144 198.418
\; 148 204.038 \; 152 209.748 \; 156 212.165 \; 160 209.634 \; 164
203.272 \; 168 196.556 \; 172 193.602 \; 176 196.915 \; 180 205.714
\; 184 215.697 \; 188 220.466 \; 192 214.066 \; 196 193.545 \; 200
160.411 \; 204 120.339 \; 208 81.2208 \; 212 50.3978 \; 216 47.8024
\; 220 53.2358 \; 224 49.4482 \; 228 41.8586 \; 232 44.5145 \; 236
46.808 \; 240 44.9024 \; 244 40.7689 \; 248 42.9461 \; 252 44.3523
\; 256 43.1107 \; 260 40.3282 \; 264 42.251 \; 268 43.2519 \; 272 42.3389
\; 276 40.2542 \; 280 41.7143 \; 284 42.4902 \; 288 41.7672 \; 292
40.0955 \; 296 41.5034 \; 300 42.1406 \; 304 41.5376 \; 308 40.13 \;
312 41.2297 \; 316 41.7762 \; 320 41.2527 \; 328 41.1781 \; \;;
#X scalar xy-plot 221 216 1 \; 1 6 \; 6 6 \; 9 -6 \; 9 -45 \; 22 -57
\; 10 -69 \; 10 -96 \; 7 -114 \; 3 -114 \; \;;
#X text 23 242 stopband;
#X scalar v-seg 70 77 58 1 \;;
#X scalar v-seg 84 77 168 1 \;;
#X scalar u-arrow 45 72 -23 \;;
#X text 201 259 bands;
#X scalar u-curve-arrow 78 66 -15 -5 -18 125 \;;
#X coords 0 290 1 289 0 0 0;
#X restore 44 18 pd fig;
#N canvas 110 321 1213 583 put-in-graph 0;
#X msg 273 18 \; pd-xxx clear \; start pd-xxx;
#N canvas 0 0 450 300 (subpatch) 0;
#X array array1 131 float 3;
#A 0 0.991686 1.38727 0.991686 0.0353557 -0.923545 -1.32217 -0.920627
0.0549909 1.03855 1.44946 1.03225 0.0134117 -1.01956 -1.45341 -1.00932
0.0811734 1.1936 1.66352 1.17819 -0.0209256 -1.25257 -1.77624 -1.22982
0.129804 1.53752 2.14064 1.50355 -0.0953356 -1.76709 -2.49019 -1.71449
0.253926 2.3387 3.25192 2.25123 -0.327851 -3.11041 -4.3523 -2.94637
0.768449 4.90201 6.80804 4.51501 -1.85772 -9.4475 -13.2358 -7.80369
10.3951 41.2169 80.3343 120.407 153.542 174.064 180.466 175.698 165.716
156.916 153.602 156.555 163.271 169.634 172.165 169.749 164.039 158.419
156.109 158.418 164.038 169.748 172.165 169.634 163.272 156.556 153.602
156.915 165.714 175.697 180.466 174.066 153.545 120.411 80.3387 41.2208
10.3978 -7.80245 -13.2358 -9.44822 -1.85855 4.51451 6.80804 4.90239
0.768918 -2.94607 -4.3523 -3.11066 -0.328173 2.25102 3.25192 2.33888
0.254169 -1.71433 -2.49019 -1.76724 -0.0955318 1.50341 2.14064 1.53765
0.12997 -1.22971 -1.77624 -1.25268 -0.0210715 1.17809 1.66352 1.1937
0.0813056 -1.00923 -1.45341 -1.01965 0.0132886 1.03217 1.44946 1.03864
0.0551085 -0.920544 -1.32217 -0.923627 0.0352407 0.991605 1.38727 0.991767
;
#X coords 0 200 131 0 200 140 1;
#X restore 752 67 graph;
#X obj 14 163 until;
#X obj 77 155 f;
#X obj 123 156 + 1;
#X obj 14 59 bng 15 250 50 0 empty empty empty 0 -6 0 8 -262144 -1
-1;
#X obj 15 83 t b b;
#X msg 99 102 0;
#X obj 82 211 sel 1;
#X obj 35 316 pack 0 0 0;
#X obj 52 240 t f f f f;
#X obj 275 428 + 40;
#X obj 39 356 s xy-plot-point;
#X obj 46 107 bng 15 250 50 0 empty empty empty 0 -6 0 8 -262144 -1
-1;
#X obj 13 136 t b b;
#X obj 274 351 tabread array1;
#X obj 271 381 abs;
#X obj 481 320 dirichlet 1024;
#X obj 527 192 t b b;
#X obj 530 160 bng 15 250 50 0 empty empty empty 0 -6 0 8 -262144 -1
-1;
#X obj 511 263 t f f;
#X msg 506 446 add2 \$1;
#X obj 481 297 / 4;
#X msg 515 226 1 \, 2 \, 3 \, 4 \, 5 \, 6 \, 7 \, 8 \, 9 \, 10 \, 11
\, 12 \, 13 \, 14 \, 15 \, 16;
#X obj 480 343 / 12.5;
#X msg 727 307 set \, add \, add2 array1 cosinesum 256 41;
#X obj 56 277 expr $f1*4+20;
#X obj 81 184 >= 77;
#X obj 618 271 & 1;
#X obj 619 298 * -2;
#X obj 620 323 + 1;
#X obj 484 371 *;
#X msg 505 473 \; array1 cosinesum 128 41 -73.7539 52.152 -24.5847
6.61074e-05 14.7508 -17.384 10.5364 -6.61077e-05 -8.1949 10.4305 -6.70503
6.61082e-05 5.67343 -7.45042 4.91709 -6.6109e-05;
#X obj 272 320 + 35;
#X msg 427 12 \; add-r-arrow 380 80 -360 \; add-u-arrow 20 250 -170
\; add-xy-plot 101 0 0 1;
#X msg 184 87 \; add-xy-plot 77 0 40 1;
#X connect 2 0 3 0;
#X connect 3 0 4 0;
#X connect 3 0 10 0;
#X connect 3 0 27 0;
#X connect 4 0 3 1;
#X connect 5 0 6 0;
#X connect 6 0 14 0;
#X connect 6 1 35 0;
#X connect 7 0 3 1;
#X connect 8 0 2 1;
#X connect 9 0 12 0;
#X connect 10 0 9 0;
#X connect 10 1 26 0;
#X connect 10 3 33 0;
#X connect 11 0 9 2;
#X connect 13 0 14 0;
#X connect 14 0 2 0;
#X connect 14 1 7 0;
#X connect 15 0 16 0;
#X connect 16 0 11 0;
#X connect 17 0 24 0;
#X connect 18 0 23 0;
#X connect 18 1 25 0;
#X connect 19 0 18 0;
#X connect 20 0 22 0;
#X connect 20 1 28 0;
#X connect 21 0 32 0;
#X connect 22 0 17 0;
#X connect 23 0 20 0;
#X connect 24 0 31 0;
#X connect 25 0 32 0;
#X connect 26 0 9 1;
#X connect 27 0 8 0;
#X connect 28 0 29 0;
#X connect 29 0 30 0;
#X connect 30 0 31 1;
#X connect 31 0 21 0;
#X connect 33 0 15 0;
#X restore 165 37 pd put-in-graph;
#X obj 209 69 templates;
#N canvas 93 0 460 297 xxx 0;
#X scalar r-arrow 380 80 -360 \;;
#X scalar u-arrow 20 250 -170 \;;
#X scalar xy-plot 0 0 1 \; 0 0 \; 0 0 \; 0 0 \; 0 0 \; 0 0 \; 0 0 \;
0 0 \; 0 0 \; 0 0 \; 0 0 \; 0 0 \; 0 0 \; 0 0 \; 0 0 \; 0 0 \; 0 0
\; 0 0 \; 0 0 \; 0 0 \; 0 0 \; 0 0 \; 0 0 \; 0 0 \; 0 0 \; 0 0 \; 0
0 \; 0 0 \; 0 0 \; 0 0 \; 0 0 \; 0 0 \; 0 0 \; 0 0 \; 0 0 \; 0 0 \;
0 0 \; 0 0 \; 0 0 \; 0 0 \; 0 0 \; 0 0 \; 0 0 \; 0 0 \; 0 0 \; 0 0
\; 0 0 \; 0 0 \; 0 0 \; 0 0 \; 0 0 \; 0 0 \; 0 0 \; 0 0 \; 0 0 \; 0
0 \; 0 0 \; 0 0 \; 0 0 \; 0 0 \; 0 0 \; 0 0 \; 0 0 \; 0 0 \; 0 0 \;
0 0 \; 0 0 \; 0 0 \; 0 0 \; 0 0 \; 0 0 \; 0 0 \; 0 0 \; 0 0 \; 0 0
\; 0 0 \; 0 0 \; 0 0 \; 0 0 \; 0 0 \; 0 0 \; 0 0 \; 0 0 \; 0 0 \; 0
0 \; 0 0 \; 0 0 \; 0 0 \; 0 0 \; 0 0 \; 0 0 \; 0 0 \; 0 0 \; 0 0 \;
0 0 \; 0 0 \; 0 0 \; 0 0 \; 0 0 \; 0 0 \; 0 0 \; 0 0 \; \;;
#X scalar xy-plot 0 40 1 \; 20 40.3279 \; 24 43.1104 \; 28 44.3523
\; 32 42.9464 \; 36 40.7684 \; 40 44.902 \; 44 46.808 \; 48 44.515
\; 52 41.8577 \; 56 49.4475 \; 60 53.2358 \; 64 47.8037 \; 68 50.3951
\; 72 81.2169 \; 76 120.334 \; 80 160.407 \; 84 193.542 \; 88 214.064
\; 92 220.466 \; 96 215.698 \; 100 205.716 \; 104 196.916 \; 108 193.602
\; 112 196.555 \; 116 203.271 \; 120 209.634 \; 124 212.165 \; 128
209.749 \; 132 204.039 \; 136 198.419 \; 140 196.109 \; 144 198.418
\; 148 204.038 \; 152 209.748 \; 156 212.165 \; 160 209.634 \; 164
203.272 \; 168 196.556 \; 172 193.602 \; 176 196.915 \; 180 205.714
\; 184 215.697 \; 188 220.466 \; 192 214.066 \; 196 193.545 \; 200
160.411 \; 204 120.339 \; 208 81.2208 \; 212 50.3978 \; 216 47.8024
\; 220 53.2358 \; 224 49.4482 \; 228 41.8586 \; 232 44.5145 \; 236
46.808 \; 240 44.9024 \; 244 40.7689 \; 248 42.9461 \; 252 44.3523
\; 256 43.1107 \; 260 40.3282 \; 264 42.251 \; 268 43.2519 \; 272 42.3389
\; 276 40.2542 \; 280 41.7143 \; 284 42.4902 \; 288 41.7672 \; 292
40.0955 \; 296 41.5034 \; 300 42.1406 \; 304 41.5376 \; 308 40.13 \;
312 41.2297 \; 316 41.7762 \; 320 41.2527 \; 328 41.1781 \; \;;
#X coords 0 297 1 296 0 0 0;
#X restore 38 52 pd xxx;
