#N canvas 83 89 367 234 10;
#X floatatom 43 52 0 0 100 0 - - -;
#N canvas 329 22 680 421 pulse-train 0;
#X obj 156 296 line~;
#X obj 33 269 cos~;
#X obj 156 275 pack 0 50;
#X obj 33 208 -~ 0.5;
#X obj 33 229 *~;
#X obj 156 214 / 10;
#X obj 156 235 moses 0;
#X msg 156 255 0;
#X obj 33 249 clip~ -0.5 0.5;
#X obj 156 316 +~ 1;
#X obj 33 290 +~ 1;
#X obj 156 194 inlet;
#X obj 33 331 outlet~;
#X obj 33 310 *~ 0.5;
#X text 45 4 This is a modified version of the pulse train generator
from two examples back.;
#X text 91 119 We have to add 1/2 and wrap so that the center of the
pulse comes at phase zero (previously it was 1/2 cycle out of phase).
This wasn't a problem before but now we have to be in phase with the
oscillator we're multpplying with.;
#X text 235 223 otherwise it's the same as before.;
#X obj 34 72 phasor~;
#X obj 34 49 r freq;
#X connect 0 0 9 0;
#X connect 1 0 10 0;
#X connect 2 0 0 0;
#X connect 3 0 4 0;
#X connect 4 0 8 0;
#X connect 5 0 6 0;
#X connect 6 0 7 0;
#X connect 6 1 2 0;
#X connect 7 0 2 0;
#X connect 8 0 1 0;
#X connect 9 0 4 1;
#X connect 10 0 13 0;
#X connect 11 0 5 0;
#X connect 13 0 12 0;
#X connect 17 0 3 0;
#X connect 18 0 17 0;
#X restore 43 73 pd pulse-train;
#X text 69 52 <-- bandwidth;
#X obj 43 186 *~;
#X text 113 119 multiple of fundamental;
#X text 79 12 RING MODULATED PULSE TRAINS;
#X floatatom 59 107 0 0 100 0 - - -;
#X obj 59 157 osc~;
#X obj 59 135 *;
#X obj 88 135 r freq;
#X text 150 83 generator from before;
#X text 41 200 |;
#X text 29 214 (OUT);
#X text 151 69 pulse train;
#X text 86 106 <-- carrier frequency as;
#X text 95 157 carrier oscillator;
#X connect 0 0 1 0;
#X connect 1 0 3 0;
#X connect 6 0 8 0;
#X connect 7 0 3 1;
#X connect 8 0 7 0;
#X connect 9 0 8 1;
