#N struct haxis float x float y float w float w-3;
#N struct v-seg float x float y float z float w;
#N struct xy-plot float x float y float w array z xy-point;
#N struct xy-point float x float y;
#N struct xy-curve float x float y float w array z xy-point;
#N struct seg float x float y float dx float dy float w;
#N struct l-curve-arrow float x float y float z float z2 float z3 float
h;
#N struct circle2 float x float y float h float h2 float mh float mh2
;
#N struct vaxis float x float y float h float h-3;
#N struct d-curve-arrow float x float y float z float z2 float z3 float
h;
#N struct circle float x float y float color float h float h2;
#N struct u-curve-arrow float x float y float z float z2 float z3 float
h;
#N struct r-curve-arrow float x float y float z float z2 float z3 float
h;
#N struct r-arrow float x float y float z;
#N struct l-arrow float x float y float z;
#N struct u-arrow float x float y float z;
#N struct d-arrow float x float y float z;
#N struct h-seg float x float y float z float w;
#N struct rect float x float y float w float h;
#N struct frame float x float y float w float h;
#N struct y-plot float x float y float w array z y-point;
#N struct y-point float y;
#N struct thickcircle float x float y float color float h float h2
;
#N struct times float x float y float x1 float x2;
#N struct plus float x float y;
#N struct minus float x float y;
#N struct divide float x float y;
#N canvas 726 227 329 179 10;
#N canvas 66 9 459 260 fig 1;
#X scalar haxis 5 113 450 447 \;;
#X scalar v-seg 120 108 10 1 \;;
#X scalar v-seg 155 108 10 1 \;;
#X scalar v-seg 190 108 10 1 \;;
#X scalar v-seg 260 108 10 1 \;;
#X scalar v-seg 295 108 10 1 \;;
#X scalar v-seg 330 108 10 1 \;;
#X scalar xy-plot -20 113 1 \; 140 0 \; 157.5 30 \; 168 -15 \; 210
0 \; \;;
#X scalar xy-plot -20 113 1 \; 280 0 \; 297.5 30 \; 308 -15 \; 350
0 \; \;;
#X scalar haxis 5 208 450 447 \;;
#X scalar v-seg 85 203 10 1 \;;
#X scalar v-seg 155 203 10 1 \;;
#X scalar v-seg 225 203 10 1 \;;
#X scalar v-seg 295 203 10 1 \;;
#X scalar v-seg 365 203 10 1 \;;
#X scalar xy-plot -20 208 1 \; 105 0 \; 140 30 \; 161 -15 \; 245 0
\; \;;
#X scalar xy-plot -20 208 1 \; 245 0 \; 280 30 \; 301 -15 \; 385 0
\; \;;
#X scalar haxis 5 29 450 447 \;;
#X scalar v-seg 15 24 10 1 \;;
#X scalar v-seg 155 24 10 1 \;;
#X scalar v-seg 295 24 10 1 \;;
#X scalar v-seg 435 24 10 1 \;;
#X scalar xy-plot -20 29 1 \; 35 0 \; 105 30 \; 147 -15 \; 315 0 \;
\;;
#X scalar xy-plot -20 29 1 \; 175 0 \; 245 30 \; 287 -15 \; 455 0 \;
\;;
#X text 14 199 (c);
#X text 13 22 (a);
#X text 13 114 (b);
#X text 11 236 0;
#X text 147 212 20;
#X text 287 212 40;
#X text 427 212 60;
#X text 112 152 15;
#X text 182 152 25;
#X text 77 56 10;
#X text 147 32 20;
#X text 217 56 30;
#X text 287 32 40;
#X text 357 33 50;
#X coords 0 260 1 259 0 0 0;
#X restore 51 61 pd fig;
#X obj 170 42 templates;
#N canvas 393 139 873 521 buildit 0;
#X msg 23 17 \; pd-fig clear \; start pd-fig;
#X obj 721 39 r add-v-mark;
#X obj 721 63 unpack;
#X obj 701 187 pack 0 0 0;
#X obj 747 142 - 5;
#X msg 701 210 \; add-v-seg \$1 \$2 10 1;
#X obj 721 89 swap;
#X obj 710 117 * 7;
#X msg 779 142 10;
#X obj 708 141 + 35;
#X obj 345 232 r zoppo;
#X obj 345 256 t l l;
#X text 414 232 y \, x1 \, w;
#X obj 99 328 f;
#X obj 430 376 pack 0 0 0 0 0;
#X obj 174 325 expr ($f2-$f3)*7.0+35;
#X obj 682 324 expr ($f2+$f3)*7.0+35;
#X obj 328 325 expr ($f2-0.5*$f3)*7+35;
#X obj 503 324 expr ($f2-0.2*$f3)*7.0+35;
#X msg 433 400 \; add-xy-plot 4 0 \$1 1 \; xy-plot-point 0 \$2 0 \;
xy-plot-point 1 \$3 30 \; xy-plot-point 2 \$4 -15 \; xy-plot-point
3 \$5 0;
#X msg 313 131 \; zoppo 175 20 10 \; zoppo 175 40 10;
#X msg 122 129 \; zoppo 275 20 5 \; zoppo 275 40 5;
#X msg 498 131 \; zoppo 75 20 20 \; zoppo 75 40 20;
#X msg 122 16 \; add-haxis 25 275 500 497 \; add-v-mark 275 15 \; add-v-mark
275 20 \; add-v-mark 275 25 \; add-v-mark 275 35 \; add-v-mark 275
40 \; add-v-mark 275 45 \;;
#X msg 313 17 \; add-haxis 25 175 500 497 \; add-v-mark 175 10 \; add-v-mark
175 20 \; add-v-mark 175 30 \; add-v-mark 175 40 \; add-v-mark 175
50 \;;
#X msg 497 19 \; add-haxis 25 75 500 497 \; add-v-mark 75 0 \; add-v-mark
75 20 \; add-v-mark 75 40 \; add-v-mark 75 60;
#X connect 1 0 2 0;
#X connect 2 0 6 0;
#X connect 2 1 6 1;
#X connect 3 0 5 0;
#X connect 4 0 3 1;
#X connect 6 0 7 0;
#X connect 6 1 4 0;
#X connect 6 1 8 0;
#X connect 7 0 9 0;
#X connect 8 0 3 2;
#X connect 9 0 3 0;
#X connect 10 0 11 0;
#X connect 11 0 13 0;
#X connect 11 1 15 0;
#X connect 11 1 16 0;
#X connect 11 1 17 0;
#X connect 11 1 18 0;
#X connect 13 0 14 0;
#X connect 14 0 19 0;
#X connect 15 0 14 1;
#X connect 16 0 14 4;
#X connect 17 0 14 2;
#X connect 18 0 14 3;
#X restore 174 74 pd buildit;
#N canvas 534 0 457 928 labels 0;
#X text 27 30 1;
#X text 20 90 -1;
#X text 314 68 n;
#X text 40 70 0;
#X text 62 29 x[n];
#X text 236 71 40;
#X text 276 172 50;
#X text 27 155 0;
#X text 20 131 40;
#X text 26 231 1;
#X text 19 291 -1;
#X text 26 430 1;
#X text 19 490 -1;
#X text 27 354 0;
#X text 20 330 40;
#X text 56 134 y[n];
#X text 54 228 z[n];
#X text 62 332 y2[n];
#X text 60 431 z2[n];
#X text 338 61 (a);
#X text 337 159 (b);
#X text 332 261 (c);
#X text 331 357 (d);
#X text 330 462 (e);
#X coords 0 928 1 927 0 0 0;
#X restore 177 121 pd labels;
#N canvas 308 310 715 415 tables 0;
#N canvas 0 0 450 300 (subpatch) 0;
#X array table1 49 float 1;
#A 0 -0.00450124 0.0523609 0.142856 0.306045 0.558879 0.592201 0.246812
0.345941 0.297334 0.0207717 -0.154878 -0.00585742 0.0495465 0.113147
0.296279 0.553314 0.59745 0.255832 0.344135 0.301623 0.0289723 -0.160038
-0.0070969 0.0470105 0.111851 0.286562 0.547861 0.602345 0.265215 0.342224
0.305669 0.0371613 -0.163857 -0.00825178 0.0448491 0.110555 0.277022
0.542581 0.606888 0.274737 0.340353 0.309505 0.0452751 -0.166538 -0.00935394
0.043158 0.10926 0.267787 0.537398;
#X coords 0 1 48 -1 200 140 1;
#X restore 100 20 graph;
#N canvas 0 0 450 300 (subpatch) 0;
#X array table2 50 float 1;
#A 0 0.773418 0.867126 0.121793 0.608753 -0.633073 0.089436 0.820405
0.142378 0.910606 0.156601 -0.375409 0.607703 -0.71406 -0.0598129 0.79352
0.676344 -0.553809 -0.373297 0.478453 -0.922955 0.432025 -0.173026
0.488366 0.955055 -0.112868 -0.814485 -0.444428 0.731501 0.0738581
0.489908 0.101354 -0.537236 -0.611176 -0.719822 0.501579 0.699855 -0.621446
0.958165 0.852333 0.847787 -0.7449 0.396901 0.235539 0.0249536 -0.0883352
0.0499826 -0.515411 -0.577499 -0.56177 0.56095;
#X coords 0 1 49 -1 200 140 1;
#X restore 113 184 graph;
#N canvas 0 0 450 300 (subpatch) 0;
#X array table3 50 float 1;
#A 0 0.12857 0.142856 0.185713 0.242856 0.342856 0.42857 0.485713 0.542856
0.599999 0.62857 0.62857 0.585713 0.499999 0.399999 0.299999 0.214284
0.242856 0.314284 0.342856 0.357142 0.357142 0.32857 0.285713 0.214284
0.142856 0.0571415 -0.0285727 -0.0857156 -0.157144 -0.157144 -0.0428583
-0.0285726 -0.0142869 -1.13808e-06 0.0285703 0.042856 0.042856 0.0714274
0.0857131 0.0999989 0.114285 0.12857 0.142856 0.142856 0.157142 0.157142
0.171427 0.171427 0.171427 0.185713;
#X coords 0 1 49 -1 200 140 1;
#X restore 365 173 graph;
#X obj 338 25 bng 15 250 50 0 empty empty empty 0 -6 0 8 -262144 -1
-1;
#X obj 486 27 bng 15 250 50 0 empty empty empty 0 -6 0 8 -262144 -1
-1;
#X obj 351 75 tabread4~ table3;
#X obj 340 104 tabwrite~ table1;
#X obj 359 50 *~ 40;
#X obj 488 106 tabwrite~ table2;
#X obj 533 35 noise~;
#X obj 360 28 phasor~ 4000;
#X connect 3 0 6 0;
#X connect 4 0 8 0;
#X connect 5 0 6 0;
#X connect 7 0 5 0;
#X connect 9 0 8 0;
#X connect 10 0 7 0;
#X restore 174 97 pd tables;
