#N canvas 0 0 321 220 10;
#X obj 23 115 +~;
#X obj 131 170 / 100;
#X floatatom 131 150 5 0 500 0 - - -;
#X obj 23 172 clip~ -1 1;
#X floatatom 39 74 5 0 0 0 - - -;
#X obj 23 137 *~;
#X obj 39 30 loadbang;
#X msg 131 126 50;
#X obj 131 102 loadbang;
#X text 78 72 <-- frequency of second tone;
#X obj 22 6 osc~ 300;
#X msg 39 53 225;
#X text 170 149 <-- before clipping;
#X text 193 134 amplitude of sum;
#X text 7 197 (OUT);
#X text 21 185 |;
#X obj 39 93 osc~;
#X connect 0 0 5 0;
#X connect 1 0 5 1;
#X connect 2 0 1 0;
#X connect 4 0 16 0;
#X connect 5 0 3 0;
#X connect 6 0 11 0;
#X connect 7 0 2 0;
#X connect 8 0 7 0;
#X connect 10 0 0 0;
#X connect 11 0 4 0;
#X connect 16 0 0 1;
