#N struct r-arrow float x float y float z;
#N struct vaxis float x float y float h float h-3;
#N struct y-plot float x float y float w array z y-point;
#N struct y-point float y;
#N struct haxis float x float y float w float w-3;
#N struct xy-plot float x float y float w array z xy-point;
#N struct xy-point float x float y;
#N struct xy-curve float x float y float w array z xy-point;
#N struct seg float x float y float dx float dy float w;
#N struct l-curve-arrow float x float y float z float z2 float z3 float
h;
#N struct circle2 float x float y float h float h2 float mh float mh2
;
#N struct d-curve-arrow float x float y float z float z2 float z3 float
h;
#N struct circle float x float y float color float h float h2;
#N struct u-curve-arrow float x float y float z float z2 float z3 float
h;
#N struct r-curve-arrow float x float y float z float z2 float z3 float
h;
#N struct l-arrow float x float y float z;
#N struct u-arrow float x float y float z;
#N struct d-arrow float x float y float z;
#N struct v-seg float x float y float z float w;
#N struct h-seg float x float y float z float w;
#N struct rect float x float y float w float h;
#N struct frame float x float y float w float h;
#N struct thickcircle float x float y float color float h float h2
;
#N struct divide float x float y;
#N struct minus float x float y;
#N struct plus float x float y;
#N struct times float x float y;
#N canvas 514 135 482 287 10;
#N canvas 140 97 382 303 fig 1;
#X text 302 23 (a);
#X text 198 150 (b);
#X scalar r-arrow 372 246 -330 \;;
#X scalar vaxis 42 206 80 77 \;;
#X scalar y-plot 42 246 1 \; 0 \; 9.38042 \; 18.0598 \; 27.3744 \;
32.0061 \; 34.4157 \; 33.2427 \; 27.8992 \; 21.4599 \; 10.5601 \; 1.44632
\; -7.72011 \; -18.8545 \; -25.5928 \; -31.4969 \; -33.2054 \; -31.6433
\; -27.7247 \; -19.4133 \; -11.4804 \; -2.74497 \; 9.01985 \; 17.0832
\; 25.6968 \; 29.9441 \; 32.0836 \; 30.9096 \; 25.8332 \; 19.7766 \;
12.2923 \; 1.07727 \; -7.44636 \; -17.7638 \; -23.9783 \; -29.3774
\; -30.8877 \; -29.3318 \; -25.6188 \; -20.0312 \; -10.4177 \; -2.29001
\; 8.6201 \; 16.0712 \; 23.9926 \; 27.8649 \; 29.748 \; 28.5843 \;
25.309 \; 18.1231 \; 11.1531 \; 0.748085 \; -7.13333 \; -16.639 \;
-22.3368 \; -27.2429 \; -28.5659 \; -27.7621 \; -23.5335 \; -18.3172
\; -9.39192 \; -1.87472 \; 8.18153 \; 15.024 \; 22.2631 \; 25.769 \;
27.3395 \; 26.2671 \; 23.1856 \; 16.4994 \; 10.0499 \; 0.458786 \;
-6.78103 \; -15.4799 \; -20.6684 \; -24.2851 \; -26.2403 \; -25.4333
\; -21.4688 \; -16.6326 \; -8.40319 \; -1.49921 \; 7.70421 \; 13.9424
\; 19.0978 \; 23.6574 \; 25.0283 \; 23.9593 \; 21.0812 \; 14.9065 \;
8.98292 \; 0.209426 \; -6.38946 \; -12.4603 \; -18.9731 \; -22.214
\; -23.9107 \; -23.112 \; -19.4247 \; -14.9774 \; -7.45143 \; -1.16348
\; 5.15619 \; 12.8264 \; 17.4649 \; 21.5305 \; 22.7125 \; 21.6612 \;
18.9967 \; 13.3445 \; 7.95265 \; 2.02087 \; -5.95894 \; -11.4218 \;
-17.2519 \; -20.1256 \; -21.5786 \; -20.7982 \; -17.4023 \; -13.3517
\; -8.3511 \; -0.867563 \; 4.81172 \; 11.6759 \; 15.8048 \; 19.3879
\; 20.3923 \; 19.3726 \; 16.9325 \; 11.8132 \; 6.95921 \; 1.63891 \;
-5.48957 \; -10.3486 \; -15.5053 \; -18.021 \; -19.2443 \; -18.4932
\; -15.402 \; -11.7564 \; -7.27967 \; -0.611533 \; 4.4279 \; 10.4916
\; 14.1174 \; 17.2311 \; 18.0676 \; 17.0947 \; 14.8883 \; 11.6052 \;
6.00252 \; 1.29667 \; -4.98124 \; -9.24067 \; -13.7328 \; -15.9005
\; -16.9075 \; -16.1974 \; -14.2968 \; -10.1915 \; -6.24465 \; -0.395409
\; 4.00499 \; 9.27384 \; 12.4037 \; 15.0603 \; 15.7397 \; 15.2464 \;
12.8654 \; 9.97688 \; 5.08305 \; 0.994161 \; -4.43431 \; -8.09803 \;
-11.9355 \; -13.7639 \; -14.5496 \; -13.9104 \; -12.2321 \; -8.65714
\; -5.24622 \; -0.219201 \; 3.5431 \; 8.02247 \; 10.664 \; 12.4778
\; 13.4091 \; 12.9432 \; 10.8639 \; 8.37841 \; 4.20096 \; 0.731477
\; -3.84892 \; -6.92133 \; -9.43317 \; -11.6125 \; -12.2288 \; -11.6337
\; -10.1872 \; -7.15398 \; -4.28436 \; -0.082947 \; 3.0422 \; 5.88822
\; 8.89817 \; 10.3627 \; 11.0757 \; 10.6485 \; 8.88409 \; 6.81012 \;
3.35627 \; 0.508651 \; -2.32194 \; -5.71081 \; -7.72607 \; -9.44662
\; -9.90422 \; -9.36765 \; -8.16284 \; -5.68231 \; -3.35949 \; -0.838235
\; 2.50256 \; 4.75283 \; 7.10716 \; 8.2312 \; 8.74042 \; 8.36251 \;
6.92659 \; 5.27206 \; 3.26824 \; 0.325698 \; -1.86726 \; -4.46653 \;
-5.99253 \; -7.26644 \; -7.57627 \; -7.11235 \; -6.15959 \; -4.77864
\; -2.47178 \; -0.568949 \; 1.92431 \; 3.58308 \; 5.29131 \; 6.08431
\; 6.40393 \; 6.08609 \; 5.33 \; 3.76483 \; 2.30089 \; 0.182664 \;
-1.37351 \; -3.18894 \; -4.2327 \; -5.07269 \; -5.2452 \; -4.86855
\; -4.17759 \; -3.20634 \; -1.62133 \; -0.339465 \; 1.30751 \; 2.37919
\; 3.45084 \; 3.92238 \; 4.06645 \; 3.81968 \; 3.30354 \; 2.2887 \;
1.37029 \; 0.0795685 \; -0.840886 \; -1.87834 \; -2.44716 \; -2.86584
\; -2.91171 \; -2.73869 \; -2.21743 \; -1.66401 \; -0.808369 \; -0.149812
\; 0.652347 \; 1.14134 \; 1.58624 \; 1.74576 \; 1.75619 \; 1.56364
\; 1.29759 \; 0.843908 \; 0.476601 \; 0.0164239 \; -0.269487 \; -0.534933
\; -0.63628 \; -0.65606 \; -0.576309 \; -0.461549 \; -0.279541 \; -0.152101
\; -0.0330697 \; \;;
#X scalar r-arrow 372 46 -330 \;;
#X scalar vaxis 42 16 60 57 \;;
#X scalar y-plot 42 46 1 \; -0 \; 9.38042 \; 10.5 \; 10.5 \; 10.5 \;
10.5 \; 10.5 \; 10.5 \; 10.5 \; 10.5 \; 1.44632 \; -7.72011 \; -10.5
\; -10.5 \; -10.5 \; -10.5 \; -10.5 \; -10.5 \; -10.5 \; -10.5 \; -2.74497
\; 9.01985 \; 10.5 \; 10.5 \; 10.5 \; 10.5 \; 10.5 \; 10.5 \; 10.5
\; 10.5 \; 1.07727 \; -7.44636 \; -10.5 \; -10.5 \; -10.5 \; -10.5
\; -10.5 \; -10.5 \; -10.5 \; -10.4177 \; -2.29001 \; 8.6201 \; 10.5
\; 10.5 \; 10.5 \; 10.5 \; 10.5 \; 10.5 \; 10.5 \; 10.5 \; 0.748085
\; -7.13333 \; -10.5 \; -10.5 \; -10.5 \; -10.5 \; -10.5 \; -10.5 \;
-10.5 \; -9.39192 \; -1.87472 \; 8.18153 \; 10.5 \; 10.5 \; 10.5 \;
10.5 \; 10.5 \; 10.5 \; 10.5 \; 10.0499 \; 0.458786 \; -6.78103 \;
-10.5 \; -10.5 \; -10.5 \; -10.5 \; -10.5 \; -10.5 \; -10.5 \; -8.40319
\; -1.49921 \; 7.70421 \; 10.5 \; 10.5 \; 10.5 \; 10.5 \; 10.5 \; 10.5
\; 10.5 \; 8.98292 \; 0.209426 \; -6.38946 \; -10.5 \; -10.5 \; -10.5
\; -10.5 \; -10.5 \; -10.5 \; -10.5 \; -7.45143 \; -1.16348 \; 5.15619
\; 10.5 \; 10.5 \; 10.5 \; 10.5 \; 10.5 \; 10.5 \; 10.5 \; 7.95265
\; 2.02087 \; -5.95894 \; -10.5 \; -10.5 \; -10.5 \; -10.5 \; -10.5
\; -10.5 \; -10.5 \; -8.3511 \; -0.867563 \; 4.81172 \; 10.5 \; 10.5
\; 10.5 \; 10.5 \; 10.5 \; 10.5 \; 10.5 \; 6.95921 \; 1.63891 \; -5.48957
\; -10.3486 \; -10.5 \; -10.5 \; -10.5 \; -10.5 \; -10.5 \; -10.5 \;
-7.27967 \; -0.611533 \; 4.4279 \; 10.4916 \; 10.5 \; 10.5 \; 10.5
\; 10.5 \; 10.5 \; 10.5 \; 6.00252 \; 1.29667 \; -4.98124 \; -9.24067
\; -10.5 \; -10.5 \; -10.5 \; -10.5 \; -10.5 \; -10.1915 \; -6.24465
\; -0.395409 \; 4.00499 \; 9.27384 \; 10.5 \; 10.5 \; 10.5 \; 10.5
\; 10.5 \; 9.97688 \; 5.08305 \; 0.994161 \; -4.43431 \; -8.09803 \;
-10.5 \; -10.5 \; -10.5 \; -10.5 \; -10.5 \; -8.65714 \; -5.24622 \;
-0.219201 \; 3.5431 \; 8.02247 \; 10.5 \; 10.5 \; 10.5 \; 10.5 \; 10.5
\; 8.37841 \; 4.20096 \; 0.731477 \; -3.84892 \; -6.92133 \; -9.43317
\; -10.5 \; -10.5 \; -10.5 \; -10.1872 \; -7.15398 \; -4.28436 \; -0.082947
\; 3.0422 \; 5.88822 \; 8.89817 \; 10.3627 \; 10.5 \; 10.5 \; 8.88409
\; 6.81012 \; 3.35627 \; 0.508651 \; -2.32194 \; -5.71081 \; -7.72607
\; -9.44662 \; -9.90422 \; -9.36765 \; -8.16284 \; -5.68231 \; -3.35949
\; -0.838235 \; 2.50256 \; 4.75283 \; 7.10716 \; 8.2312 \; 8.74042
\; 8.36251 \; 6.92659 \; 5.27206 \; 3.26824 \; 0.325698 \; -1.86726
\; -4.46653 \; -5.99253 \; -7.26644 \; -7.57627 \; -7.11235 \; -6.15959
\; -4.77864 \; -2.47178 \; -0.568949 \; 1.92431 \; 3.58308 \; 5.29131
\; 6.08431 \; 6.40393 \; 6.08609 \; 5.33 \; 3.76483 \; 2.30089 \; 0.182664
\; -1.37351 \; -3.18894 \; -4.2327 \; -5.07269 \; -5.2452 \; -4.86855
\; -4.17759 \; -3.20634 \; -1.62133 \; -0.339465 \; 1.30751 \; 2.37919
\; 3.45084 \; 3.92238 \; 4.06645 \; 3.81968 \; 3.30354 \; 2.2887 \;
1.37029 \; 0.0795685 \; -0.840886 \; -1.87834 \; -2.44716 \; -2.86584
\; -2.91171 \; -2.73869 \; -2.21743 \; -1.66401 \; -0.808369 \; -0.149812
\; 0.652347 \; 1.14134 \; 1.58624 \; 1.74576 \; 1.75619 \; 1.56364
\; 1.29759 \; 0.843908 \; 0.476601 \; 0.0164239 \; -0.269487 \; -0.534933
\; -0.63628 \; -0.65606 \; -0.576309 \; -0.461549 \; -0.279541 \; -0.152101
\; -0.0330697 \; \;;
#X scalar haxis 42 146 140 137 \;;
#X scalar vaxis 112 116 60 57 \;;
#X text 295 223 (c);
#X text 11 240 0.3;
#X text 4 260 -0.3;
#X text 24 18 1;
#X text 16 78 -1;
#X text 165 130 0.3;
#X text 26 169 -0.3;
#X scalar xy-plot 63 146 1 \; 0 -20 \; 1 -20 \; 2 -20 \; 3 -20 \; 4
-20 \; 5 -20 \; 6 -20 \; 7 -20 \; 8 -20 \; 9 -20 \; 10 -20 \; 11 -20
\; 12 -20 \; 13 -20 \; 14 -20 \; 15 -20 \; 16 -20 \; 17 -20 \; 18 -20
\; 19 -20 \; 20 -20 \; 21 -20 \; 22 -20 \; 23 -20 \; 24 -20 \; 25 -20
\; 26 -20 \; 27 -20 \; 28 -20 \; 29 -20 \; 30 -20 \; 31 -19 \; 32 -18
\; 33 -17 \; 34 -16 \; 35 -15 \; 36 -14 \; 37 -13 \; 38 -12 \; 39 -11
\; 40 -10 \; 41 -9 \; 42 -8 \; 43 -7 \; 44 -6 \; 45 -5 \; 46 -4 \;
47 -3 \; 48 -2 \; 49 -1 \; 50 0 \; 51 1 \; 52 2 \; 53 3 \; 54 4 \;
55 5 \; 56 6 \; 57 7 \; 58 8 \; 59 9 \; 60 10 \; 61 11 \; 62 12 \;
63 13 \; 64 14 \; 65 15 \; 66 16 \; 67 17 \; 68 18 \; 69 19 \; 70 20
\; 71 20 \; 72 20 \; 73 20 \; 74 20 \; 75 20 \; 76 20 \; 77 20 \; 78
20 \; 79 20 \; 80 20 \; 81 20 \; 82 20 \; 83 20 \; 84 20 \; 85 20 \;
86 20 \; 87 20 \; 88 20 \; 89 20 \; 90 20 \; 91 20 \; 92 20 \; 93 20
\; 94 20 \; 95 20 \; 96 20 \; 97 20 \; 98 20 \; 99 20 \; \;;
#X coords 0 303 1 302 0 0 0;
#X restore 30 32 pd fig;
#N canvas 335 227 875 632 put-in-graph 0;
#X obj 82 217 bng 15 250 50 0 empty empty empty 0 -6 0 8 -262144 -1
-1;
#X obj 82 239 t b b;
#X obj 154 283 0;
#X obj 23 319 f;
#X obj 60 322 + 1;
#X obj 131 283 bng 15 250 50 0 empty empty empty 0 -6 0 8 -262144 -1
-1;
#X obj 24 493 pack;
#X obj 24 520 s y-plot-point;
#X msg 22 267 1;
#X msg 60 267 0;
#X obj 82 468 snapshot~;
#X obj 23 467 t f b;
#X obj 22 292 metro 5;
#X msg 145 16 \; start pd-z \; pd dsp 1;
#X msg 15 17 \; pd-z clear;
#X obj 121 387 line~;
#X obj 120 415 *~;
#X obj 178 389 osc~ 10;
#X obj 23 348 moses 300;
#X msg 121 352 1 \, 0 1500;
#X msg 212 353 -0.25;
#X obj 345 221 bng 15 250 50 0 empty empty empty 0 -6 0 8 -262144 -1
-1;
#X obj 345 243 t b b;
#X obj 417 287 0;
#X obj 286 323 f;
#X obj 323 326 + 1;
#X obj 394 287 bng 15 250 50 0 empty empty empty 0 -6 0 8 -262144 -1
-1;
#X obj 287 497 pack;
#X obj 287 524 s y-plot-point;
#X msg 285 271 1;
#X msg 323 271 0;
#X obj 347 497 snapshot~;
#X obj 286 471 t f b;
#X obj 285 296 metro 5;
#X obj 384 391 line~;
#X obj 384 415 *~;
#X obj 441 393 osc~ 10;
#X obj 286 352 moses 300;
#X msg 384 356 1 \, 0 1500;
#X msg 475 357 -0.25;
#X obj 120 441 *~ 35;
#X obj 384 460 *~ 35;
#X obj 384 438 clip~ -0.3 0.3;
#X obj 580 291 until;
#X obj 580 259 t b b;
#X obj 583 321 f;
#X msg 637 267 0;
#X obj 655 297 + 1;
#X obj 580 236 bng 15 250 50 0 empty empty empty 0 -6 0 8 -262144 -1
-1;
#X msg 582 475 \; xy-plot-point \$1 \$2 \$3 \;;
#X obj 582 454 pack 0 0 0;
#X obj 655 320 sel 100;
#X obj 583 351 t f f;
#X msg 579 193 \; add-xy-plot 100 80 150 1 \;;
#X obj 536 414 * 20;
#X msg 583 121 \; add-haxis 60 150 140 137 \; add-vaxis 130 120 60
57;
#X msg 17 92 \; add-r-arrow 390 250 -330 \; add-vaxis 60 210 80 77
;
#X msg 22 169 \; add-y-plot 300 60 250 1;
#X msg 283 172 \; add-y-plot 300 60 50 1;
#X msg 280 96 \; add-r-arrow 390 50 -330 \; add-vaxis 60 20 60 57;
#X obj 538 389 expr max(-1 \, min(1 \, ($f1-50)/20));
#X connect 0 0 1 0;
#X connect 1 0 8 0;
#X connect 1 0 19 0;
#X connect 1 0 20 0;
#X connect 1 1 2 0;
#X connect 2 0 3 1;
#X connect 3 0 4 0;
#X connect 3 0 18 0;
#X connect 4 0 3 1;
#X connect 5 0 9 0;
#X connect 6 0 7 0;
#X connect 8 0 12 0;
#X connect 9 0 12 0;
#X connect 10 0 6 1;
#X connect 11 0 6 0;
#X connect 11 1 10 0;
#X connect 12 0 3 0;
#X connect 15 0 16 0;
#X connect 16 0 40 0;
#X connect 17 0 16 1;
#X connect 18 0 11 0;
#X connect 18 1 5 0;
#X connect 19 0 15 0;
#X connect 20 0 17 1;
#X connect 21 0 22 0;
#X connect 22 0 29 0;
#X connect 22 0 38 0;
#X connect 22 0 39 0;
#X connect 22 1 23 0;
#X connect 23 0 24 1;
#X connect 24 0 25 0;
#X connect 24 0 37 0;
#X connect 25 0 24 1;
#X connect 26 0 30 0;
#X connect 27 0 28 0;
#X connect 29 0 33 0;
#X connect 30 0 33 0;
#X connect 31 0 27 1;
#X connect 32 0 27 0;
#X connect 32 1 31 0;
#X connect 33 0 24 0;
#X connect 34 0 35 0;
#X connect 35 0 42 0;
#X connect 36 0 35 1;
#X connect 37 0 32 0;
#X connect 37 1 26 0;
#X connect 38 0 34 0;
#X connect 39 0 36 1;
#X connect 40 0 10 0;
#X connect 41 0 31 0;
#X connect 42 0 41 0;
#X connect 43 0 45 0;
#X connect 44 0 43 0;
#X connect 44 1 46 0;
#X connect 45 0 47 0;
#X connect 45 0 52 0;
#X connect 46 0 45 1;
#X connect 47 0 45 1;
#X connect 47 0 51 0;
#X connect 48 0 44 0;
#X connect 50 0 49 0;
#X connect 51 0 43 1;
#X connect 52 0 50 0;
#X connect 52 1 50 1;
#X connect 52 1 60 0;
#X connect 54 0 50 2;
#X connect 60 0 54 0;
#X restore 30 118 pd put-in-graph;
#X obj 31 90 templates;
#N canvas 549 114 450 300 z 0;
#X scalar xy-plot 80 150 1 \; 0 -20 \; 1 -20 \; 2 -20 \; 3 -20 \; 4
-20 \; 5 -20 \; 6 -20 \; 7 -20 \; 8 -20 \; 9 -20 \; 10 -20 \; 11 -20
\; 12 -20 \; 13 -20 \; 14 -20 \; 15 -20 \; 16 -20 \; 17 -20 \; 18 -20
\; 19 -20 \; 20 -20 \; 21 -20 \; 22 -20 \; 23 -20 \; 24 -20 \; 25 -20
\; 26 -20 \; 27 -20 \; 28 -20 \; 29 -20 \; 30 -20 \; 31 -19 \; 32 -18
\; 33 -17 \; 34 -16 \; 35 -15 \; 36 -14 \; 37 -13 \; 38 -12 \; 39 -11
\; 40 -10 \; 41 -9 \; 42 -8 \; 43 -7 \; 44 -6 \; 45 -5 \; 46 -4 \;
47 -3 \; 48 -2 \; 49 -1 \; 50 0 \; 51 1 \; 52 2 \; 53 3 \; 54 4 \;
55 5 \; 56 6 \; 57 7 \; 58 8 \; 59 9 \; 60 10 \; 61 11 \; 62 12 \;
63 13 \; 64 14 \; 65 15 \; 66 16 \; 67 17 \; 68 18 \; 69 19 \; 70 20
\; 71 20 \; 72 20 \; 73 20 \; 74 20 \; 75 20 \; 76 20 \; 77 20 \; 78
20 \; 79 20 \; 80 20 \; 81 20 \; 82 20 \; 83 20 \; 84 20 \; 85 20 \;
86 20 \; 87 20 \; 88 20 \; 89 20 \; 90 20 \; 91 20 \; 92 20 \; 93 20
\; 94 20 \; 95 20 \; 96 20 \; 97 20 \; 98 20 \; 99 20 \; \;;
#X scalar r-arrow 390 250 -330 \;;
#X scalar vaxis 60 210 80 77 \;;
#X scalar y-plot 60 250 1 \; 0 \; 9.38042 \; 18.0598 \; 27.3744 \;
32.0061 \; 34.4157 \; 33.2427 \; 27.8992 \; 21.4599 \; 10.5601 \; 1.44632
\; -7.72011 \; -18.8545 \; -25.5928 \; -31.4969 \; -33.2054 \; -31.6433
\; -27.7247 \; -19.4133 \; -11.4804 \; -2.74497 \; 9.01985 \; 17.0832
\; 25.6968 \; 29.9441 \; 32.0836 \; 30.9096 \; 25.8332 \; 19.7766 \;
12.2923 \; 1.07727 \; -7.44636 \; -17.7638 \; -23.9783 \; -29.3774
\; -30.8877 \; -29.3318 \; -25.6188 \; -20.0312 \; -10.4177 \; -2.29001
\; 8.6201 \; 16.0712 \; 23.9926 \; 27.8649 \; 29.748 \; 28.5843 \;
25.309 \; 18.1231 \; 11.1531 \; 0.748085 \; -7.13333 \; -16.639 \;
-22.3368 \; -27.2429 \; -28.5659 \; -27.7621 \; -23.5335 \; -18.3172
\; -9.39192 \; -1.87472 \; 8.18153 \; 15.024 \; 22.2631 \; 25.769 \;
27.3395 \; 26.2671 \; 23.1856 \; 16.4994 \; 10.0499 \; 0.458786 \;
-6.78103 \; -15.4799 \; -20.6684 \; -24.2851 \; -26.2403 \; -25.4333
\; -21.4688 \; -16.6326 \; -8.40319 \; -1.49921 \; 7.70421 \; 13.9424
\; 19.0978 \; 23.6574 \; 25.0283 \; 23.9593 \; 21.0812 \; 14.9065 \;
8.98292 \; 0.209426 \; -6.38946 \; -12.4603 \; -18.9731 \; -22.214
\; -23.9107 \; -23.112 \; -19.4247 \; -14.9774 \; -7.45143 \; -1.16348
\; 5.15619 \; 12.8264 \; 17.4649 \; 21.5305 \; 22.7125 \; 21.6612 \;
18.9967 \; 13.3445 \; 7.95265 \; 2.02087 \; -5.95894 \; -11.4218 \;
-17.2519 \; -20.1256 \; -21.5786 \; -20.7982 \; -17.4023 \; -13.3517
\; -8.3511 \; -0.867563 \; 4.81172 \; 11.6759 \; 15.8048 \; 19.3879
\; 20.3923 \; 19.3726 \; 16.9325 \; 11.8132 \; 6.95921 \; 1.63891 \;
-5.48957 \; -10.3486 \; -15.5053 \; -18.021 \; -19.2443 \; -18.4932
\; -15.402 \; -11.7564 \; -7.27967 \; -0.611533 \; 4.4279 \; 10.4916
\; 14.1174 \; 17.2311 \; 18.0676 \; 17.0947 \; 14.8883 \; 11.6052 \;
6.00252 \; 1.29667 \; -4.98124 \; -9.24067 \; -13.7328 \; -15.9005
\; -16.9075 \; -16.1974 \; -14.2968 \; -10.1915 \; -6.24465 \; -0.395409
\; 4.00499 \; 9.27384 \; 12.4037 \; 15.0603 \; 15.7397 \; 15.2464 \;
12.8654 \; 9.97688 \; 5.08305 \; 0.994161 \; -4.43431 \; -8.09803 \;
-11.9355 \; -13.7639 \; -14.5496 \; -13.9104 \; -12.2321 \; -8.65714
\; -5.24622 \; -0.219201 \; 3.5431 \; 8.02247 \; 10.664 \; 12.4778
\; 13.4091 \; 12.9432 \; 10.8639 \; 8.37841 \; 4.20096 \; 0.731477
\; -3.84892 \; -6.92133 \; -9.43317 \; -11.6125 \; -12.2288 \; -11.6337
\; -10.1872 \; -7.15398 \; -4.28436 \; -0.082947 \; 3.0422 \; 5.88822
\; 8.89817 \; 10.3627 \; 11.0757 \; 10.6485 \; 8.88409 \; 6.81012 \;
3.35627 \; 0.508651 \; -2.32194 \; -5.71081 \; -7.72607 \; -9.44662
\; -9.90422 \; -9.36765 \; -8.16284 \; -5.68231 \; -3.35949 \; -0.838235
\; 2.50256 \; 4.75283 \; 7.10716 \; 8.2312 \; 8.74042 \; 8.36251 \;
6.92659 \; 5.27206 \; 3.26824 \; 0.325698 \; -1.86726 \; -4.46653 \;
-5.99253 \; -7.26644 \; -7.57627 \; -7.11235 \; -6.15959 \; -4.77864
\; -2.47178 \; -0.568949 \; 1.92431 \; 3.58308 \; 5.29131 \; 6.08431
\; 6.40393 \; 6.08609 \; 5.33 \; 3.76483 \; 2.30089 \; 0.182664 \;
-1.37351 \; -3.18894 \; -4.2327 \; -5.07269 \; -5.2452 \; -4.86855
\; -4.17759 \; -3.20634 \; -1.62133 \; -0.339465 \; 1.30751 \; 2.37919
\; 3.45084 \; 3.92238 \; 4.06645 \; 3.81968 \; 3.30354 \; 2.2887 \;
1.37029 \; 0.0795685 \; -0.840886 \; -1.87834 \; -2.44716 \; -2.86584
\; -2.91171 \; -2.73869 \; -2.21743 \; -1.66401 \; -0.808369 \; -0.149812
\; 0.652347 \; 1.14134 \; 1.58624 \; 1.74576 \; 1.75619 \; 1.56364
\; 1.29759 \; 0.843908 \; 0.476601 \; 0.0164239 \; -0.269487 \; -0.534933
\; -0.63628 \; -0.65606 \; -0.576309 \; -0.461549 \; -0.279541 \; -0.152101
\; -0.0330697 \; \;;
#X scalar r-arrow 390 50 -330 \;;
#X scalar vaxis 60 20 60 57 \;;
#X scalar y-plot 60 50 1 \; -0 \; 9.38042 \; 10.5 \; 10.5 \; 10.5 \;
10.5 \; 10.5 \; 10.5 \; 10.5 \; 10.5 \; 1.44632 \; -7.72011 \; -10.5
\; -10.5 \; -10.5 \; -10.5 \; -10.5 \; -10.5 \; -10.5 \; -10.5 \; -2.74497
\; 9.01985 \; 10.5 \; 10.5 \; 10.5 \; 10.5 \; 10.5 \; 10.5 \; 10.5
\; 10.5 \; 1.07727 \; -7.44636 \; -10.5 \; -10.5 \; -10.5 \; -10.5
\; -10.5 \; -10.5 \; -10.5 \; -10.4177 \; -2.29001 \; 8.6201 \; 10.5
\; 10.5 \; 10.5 \; 10.5 \; 10.5 \; 10.5 \; 10.5 \; 10.5 \; 0.748085
\; -7.13333 \; -10.5 \; -10.5 \; -10.5 \; -10.5 \; -10.5 \; -10.5 \;
-10.5 \; -9.39192 \; -1.87472 \; 8.18153 \; 10.5 \; 10.5 \; 10.5 \;
10.5 \; 10.5 \; 10.5 \; 10.5 \; 10.0499 \; 0.458786 \; -6.78103 \;
-10.5 \; -10.5 \; -10.5 \; -10.5 \; -10.5 \; -10.5 \; -10.5 \; -8.40319
\; -1.49921 \; 7.70421 \; 10.5 \; 10.5 \; 10.5 \; 10.5 \; 10.5 \; 10.5
\; 10.5 \; 8.98292 \; 0.209426 \; -6.38946 \; -10.5 \; -10.5 \; -10.5
\; -10.5 \; -10.5 \; -10.5 \; -10.5 \; -7.45143 \; -1.16348 \; 5.15619
\; 10.5 \; 10.5 \; 10.5 \; 10.5 \; 10.5 \; 10.5 \; 10.5 \; 7.95265
\; 2.02087 \; -5.95894 \; -10.5 \; -10.5 \; -10.5 \; -10.5 \; -10.5
\; -10.5 \; -10.5 \; -8.3511 \; -0.867563 \; 4.81172 \; 10.5 \; 10.5
\; 10.5 \; 10.5 \; 10.5 \; 10.5 \; 10.5 \; 6.95921 \; 1.63891 \; -5.48957
\; -10.3486 \; -10.5 \; -10.5 \; -10.5 \; -10.5 \; -10.5 \; -10.5 \;
-7.27967 \; -0.611533 \; 4.4279 \; 10.4916 \; 10.5 \; 10.5 \; 10.5
\; 10.5 \; 10.5 \; 10.5 \; 6.00252 \; 1.29667 \; -4.98124 \; -9.24067
\; -10.5 \; -10.5 \; -10.5 \; -10.5 \; -10.5 \; -10.1915 \; -6.24465
\; -0.395409 \; 4.00499 \; 9.27384 \; 10.5 \; 10.5 \; 10.5 \; 10.5
\; 10.5 \; 9.97688 \; 5.08305 \; 0.994161 \; -4.43431 \; -8.09803 \;
-10.5 \; -10.5 \; -10.5 \; -10.5 \; -10.5 \; -8.65714 \; -5.24622 \;
-0.219201 \; 3.5431 \; 8.02247 \; 10.5 \; 10.5 \; 10.5 \; 10.5 \; 10.5
\; 8.37841 \; 4.20096 \; 0.731477 \; -3.84892 \; -6.92133 \; -9.43317
\; -10.5 \; -10.5 \; -10.5 \; -10.1872 \; -7.15398 \; -4.28436 \; -0.082947
\; 3.0422 \; 5.88822 \; 8.89817 \; 10.3627 \; 10.5 \; 10.5 \; 8.88409
\; 6.81012 \; 3.35627 \; 0.508651 \; -2.32194 \; -5.71081 \; -7.72607
\; -9.44662 \; -9.90422 \; -9.36765 \; -8.16284 \; -5.68231 \; -3.35949
\; -0.838235 \; 2.50256 \; 4.75283 \; 7.10716 \; 8.2312 \; 8.74042
\; 8.36251 \; 6.92659 \; 5.27206 \; 3.26824 \; 0.325698 \; -1.86726
\; -4.46653 \; -5.99253 \; -7.26644 \; -7.57627 \; -7.11235 \; -6.15959
\; -4.77864 \; -2.47178 \; -0.568949 \; 1.92431 \; 3.58308 \; 5.29131
\; 6.08431 \; 6.40393 \; 6.08609 \; 5.33 \; 3.76483 \; 2.30089 \; 0.182664
\; -1.37351 \; -3.18894 \; -4.2327 \; -5.07269 \; -5.2452 \; -4.86855
\; -4.17759 \; -3.20634 \; -1.62133 \; -0.339465 \; 1.30751 \; 2.37919
\; 3.45084 \; 3.92238 \; 4.06645 \; 3.81968 \; 3.30354 \; 2.2887 \;
1.37029 \; 0.0795685 \; -0.840886 \; -1.87834 \; -2.44716 \; -2.86584
\; -2.91171 \; -2.73869 \; -2.21743 \; -1.66401 \; -0.808369 \; -0.149812
\; 0.652347 \; 1.14134 \; 1.58624 \; 1.74576 \; 1.75619 \; 1.56364
\; 1.29759 \; 0.843908 \; 0.476601 \; 0.0164239 \; -0.269487 \; -0.534933
\; -0.63628 \; -0.65606 \; -0.576309 \; -0.461549 \; -0.279541 \; -0.152101
\; -0.0330697 \; \;;
#X scalar haxis 60 150 140 137 \;;
#X scalar vaxis 130 120 60 57 \;;
#X coords 0 300 1 299 0 0 0;
#X restore 31 60 pd z;
