#N struct r-arrow float x float y float z;
#N struct u-arrow float x float y float z;
#N struct rect float x float y float w float h;
#N struct xy-plot float x float y float w array z xy-point;
#N struct xy-point float x float y;
#N struct xy-curve float x float y float w array z xy-point;
#N struct d-curve-arrow float x float y float z float z2 float z3 float
h;
#N struct circle float x float y float color float h float h2;
#N struct u-curve-arrow float x float y float z float z2 float z3 float
h;
#N struct r-curve-arrow float x float y float z float z2 float z3 float
h;
#N struct l-arrow float x float y float z;
#N struct d-arrow float x float y float z;
#N struct v-seg float x float y float z float w;
#N struct h-seg float x float y float z float w;
#N struct vaxis float x float y float h float h-3;
#N struct haxis float x float y float w float w-3;
#N struct frame float x float y float w float h;
#N struct y-plot float x float y float w array z y-point;
#N struct y-point float y;
#N canvas 502 41 329 179 10;
#N canvas 66 9 345 342 fig 0;
#X scalar r-arrow 327 217 -300 \;;
#X scalar u-arrow 27 317 -100 \;;
#X scalar rect 27 217 2 78.4614 \;;
#X scalar rect 57 217 2 50.7692 \;;
#X scalar rect 87 217 2 20.0001 \;;
#X scalar rect 117 217 2 61.5384 \;;
#X scalar rect 147 217 2 10.7695 \;;
#X scalar xy-plot 27 218 1 \; 0 78.4614 \; 1 78.4614 \; 2 78.4614 \;
3 78.4614 \; 4 78.4614 \; 5 78.4614 \; 6 77.3168 \; 7 76.1045 \; 8
74.8492 \; 9 73.5753 \; 10 72.3076 \; 11 71.2184 \; 12 70.1476 \; 13
69.083 \; 14 68.0123 \; 15 66.923 \; 16 65.7046 \; 17 64.4677 \; 18
63.2246 \; 19 61.9877 \; 20 60.7692 \; 21 59.6308 \; 22 58.5231 \;
23 57.4461 \; 24 56.4 \; 25 55.3846 \; 26 54.4246 \; 27 53.4892 \;
28 52.5723 \; 29 51.6677 \; 30 50.7692 \; 31 49.8954 \; 32 49.0093
\; 33 48.0985 \; 34 47.1508 \; 35 46.1539 \; 36 45.0216 \; 37 43.8339
\; 38 42.597 \; 39 41.317 \; 40 40.0001 \; 41 38.6031 \; 42 37.1939
\; 43 35.7908 \; 44 34.4124 \; 45 33.077 \; 46 31.9016 \; 47 30.7816
\; 48 29.7109 \; 49 28.6832 \; 50 27.6924 \; 51 26.6832 \; 52 25.7109
\; 53 24.7816 \; 54 23.9016 \; 55 23.077 \; 56 22.0186 \; 57 21.1017
\; 58 20.4063 \; 59 20.0124 \; 60 20.0001 \; 61 21.1632 \; 62 22.6893
\; 63 24.4801 \; 64 26.437 \; 65 28.4616 \; 66 29.9385 \; 67 31.4155
\; 68 32.9231 \; 69 34.4924 \; 70 36.1539 \; 71 38.2093 \; 72 40.3508
\; 73 42.5416 \; 74 44.7446 \; 75 46.9231 \; 76 48.7446 \; 77 50.5415
\; 78 52.3508 \; 79 54.2092 \; 80 56.1538 \; 81 59.083 \; 82 61.9569
\; 83 64.5969 \; 84 66.8245 \; 85 68.4615 \; 86 68.123 \; 87 67.1384
\; 88 65.6307 \; 89 63.723 \; 90 61.5384 \; 91 59.5446 \; 92 57.4338
\; 93 55.2431 \; 94 53.0092 \; 95 50.7692 \; 96 48.6831 \; 97 46.6339
\; 98 44.6277 \; 99 42.6708 \; 100 40.7693 \; 101 39.0032 \; 102 37.2863
\; 103 35.6063 \; 104 33.9509 \; 105 32.3078 \; 106 30.5909 \; 107
28.8801 \; 108 27.1817 \; 109 25.5017 \; 110 23.8463 \; 111 22.1971
\; 112 20.5909 \; 113 19.0402 \; 114 17.5571 \; 115 16.154 \; 116 14.991
\; 117 13.8956 \; 118 12.8433 \; 119 11.8095 \; 120 10.7695 \; 121
9.67408 \; 122 8.52947 \; 123 7.31717 \; 124 6.01872 \; 125 4.61565
\; 126 2.7695 \; 127 0.861827 \; 128 -1.04586 \; 129 -2.892 \; \;;
#X scalar r-arrow 327 117 -300 \;;
#X scalar u-arrow 27 197 -80 \;;
#X scalar rect 37 117 2 39.2307 \;;
#X scalar rect 37 117 2 39.2307 \;;
#X scalar rect 67 117 2 25.3846 \;;
#X scalar rect 47 117 2 25.3846 \;;
#X scalar rect 97 117 2 10.0001 \;;
#X scalar rect 77 117 2 10.0001 \;;
#X scalar rect 127 117 2 30.7692 \;;
#X scalar rect 107 117 2 30.7692 \;;
#X scalar rect 157 117 2 5.38473 \;;
#X scalar rect 137 117 2 5.38473 \;;
#X scalar xy-plot 27 118 1 \; 10 39.2307 \; 11 39.2307 \; 12 39.2307
\; 13 39.2307 \; 14 39.2307 \; 15 39.2307 \; 16 38.6584 \; 17 38.0523
\; 18 37.4246 \; 19 36.7877 \; 20 36.1538 \; 21 35.6092 \; 22 35.0738
\; 23 34.5415 \; 24 34.0061 \; 25 33.4615 \; 26 32.8523 \; 27 32.2338
\; 28 31.6123 \; 29 30.9938 \; 30 30.3846 \; 31 29.8154 \; 32 29.2615
\; 33 28.7231 \; 34 28.2 \; 35 27.6923 \; 36 27.2123 \; 37 26.7446
\; 38 26.2862 \; 39 25.8339 \; 40 25.3846 \; 41 24.9477 \; 42 24.5046
\; 43 24.0492 \; 44 23.5754 \; 45 23.0769 \; 46 22.5108 \; 47 21.9169
\; 48 21.2985 \; 49 20.6585 \; 50 20 \; 51 19.3016 \; 52 18.597 \;
53 17.8954 \; 54 17.2062 \; 55 16.5385 \; 56 15.9508 \; 57 15.3908
\; 58 14.8554 \; 59 14.3416 \; 60 13.8462 \; 61 13.3416 \; 62 12.8554
\; 63 12.3908 \; 64 11.9508 \; 65 11.5385 \; 66 11.0093 \; 67 10.5508
\; 68 10.2031 \; 69 10.0062 \; 70 10.0001 \; 71 10.5816 \; 72 11.3447
\; 73 12.2401 \; 74 13.2185 \; 75 14.2308 \; 76 14.9693 \; 77 15.7077
\; 78 16.4616 \; 79 17.2462 \; 80 18.077 \; 81 19.1046 \; 82 20.1754
\; 83 21.2708 \; 84 22.3723 \; 85 23.4615 \; 86 24.3723 \; 87 25.2708
\; 88 26.1754 \; 89 27.1046 \; 90 28.0769 \; 91 29.5415 \; 92 30.9784
\; 93 32.2984 \; 94 33.4123 \; 95 34.2307 \; 96 34.0615 \; 97 33.5692
\; 98 32.8154 \; 99 31.8615 \; 100 30.7692 \; 101 29.7723 \; 102 28.7169
\; 103 27.6215 \; 104 26.5046 \; 105 25.3846 \; 106 24.3415 \; 107
23.3169 \; 108 22.3139 \; 109 21.3354 \; 110 20.3847 \; 111 19.5016
\; 112 18.6431 \; 113 17.8031 \; 114 16.9754 \; 115 16.1539 \; 116
15.2954 \; 117 14.4401 \; 118 13.5908 \; 119 12.7508 \; 120 11.9232
\; 121 11.0985 \; 122 10.2955 \; 123 9.52009 \; 124 8.77856 \; 125
8.07702 \; 126 7.49548 \; 127 6.9478 \; 128 6.42165 \; 129 5.90473
\; 130 5.38473 \; 131 4.83704 \; 132 4.26474 \; 133 3.65858 \; 134
3.00936 \; 135 2.30782 \; 136 1.38475 \; 137 0.430913 \; 138 -0.522931
\; 139 -1.446 \; 0 0 \; 0 0 \; 0 0 \; 0 0 \; 0 0 \; 0 0 \; 0 0 \; 0
0 \; 0 0 \; 0 0 \; 0 0 \; 0 0 \; 0 0 \; 0 0 \; 0 0 \; 0 0 \; 0 0 \;
0 0 \; 0 0 \; 0 0 \; 0 0 \; 0 0 \; 0 0 \; 0 0 \; 0 0 \; 0 0 \; 0 0
\; 0 0 \; 0 0 \; 0 0 \; 0 0 \; 0 0 \; 0 0 \; 0 0 \; 0 0 \; 0 0 \; 0
0 \; 0 0 \; 0 0 \; 0 0 \; 0 0 \; 0 0 \; 0 0 \; 0 0 \; 0 0 \; 0 0 \;
0 0 \; 0 0 \; 0 0 \; 0 0 \; 0 0 \; 0 0 \; 0 0 \; 0 0 \; 0 0 \; 0 0
\; 0 0 \; 0 0 \; 0 0 \; 0 0 \; 0 0 \; 0 0 \; 0 0 \; 0 0 \; 0 0 \; 0
0 \; 0 0 \; 0 0 \; 0 0 \; 0 0 \; \;;
#X scalar xy-plot 27 118 1 \; 10 39.2307 \; 9 39.2307 \; 8 39.2307
\; 7 39.2307 \; 6 39.2307 \; 5 39.2307 \; 4 38.6584 \; 3 38.0523 \;
2 37.4246 \; 1 36.7877 \; 0 36.1538 \; 1 35.6092 \; 2 35.0738 \; 3
34.5415 \; 4 34.0061 \; 5 33.4615 \; 6 32.8523 \; 7 32.2338 \; 8 31.6123
\; 9 30.9938 \; 10 30.3846 \; 11 29.8154 \; 12 29.2615 \; 13 28.7231
\; 14 28.2 \; 15 27.6923 \; 16 27.2123 \; 17 26.7446 \; 18 26.2862
\; 19 25.8339 \; 20 25.3846 \; 21 24.9477 \; 22 24.5046 \; 23 24.0492
\; 24 23.5754 \; 25 23.0769 \; 26 22.5108 \; 27 21.9169 \; 28 21.2985
\; 29 20.6585 \; 30 20 \; 31 19.3016 \; 32 18.597 \; 33 17.8954 \;
34 17.2062 \; 35 16.5385 \; 36 15.9508 \; 37 15.3908 \; 38 14.8554
\; 39 14.3416 \; 40 13.8462 \; 41 13.3416 \; 42 12.8554 \; 43 12.3908
\; 44 11.9508 \; 45 11.5385 \; 46 11.0093 \; 47 10.5508 \; 48 10.2031
\; 49 10.0062 \; 50 10.0001 \; 51 10.5816 \; 52 11.3447 \; 53 12.2401
\; 54 13.2185 \; 55 14.2308 \; 56 14.9693 \; 57 15.7077 \; 58 16.4616
\; 59 17.2462 \; 60 18.077 \; 61 19.1046 \; 62 20.1754 \; 63 21.2708
\; 64 22.3723 \; 65 23.4615 \; 66 24.3723 \; 67 25.2708 \; 68 26.1754
\; 69 27.1046 \; 70 28.0769 \; 71 29.5415 \; 72 30.9784 \; 73 32.2984
\; 74 33.4123 \; 75 34.2307 \; 76 34.0615 \; 77 33.5692 \; 78 32.8154
\; 79 31.8615 \; 80 30.7692 \; 81 29.7723 \; 82 28.7169 \; 83 27.6215
\; 84 26.5046 \; 85 25.3846 \; 86 24.3415 \; 87 23.3169 \; 88 22.3139
\; 89 21.3354 \; 90 20.3847 \; 91 19.5016 \; 92 18.6431 \; 93 17.8031
\; 94 16.9754 \; 95 16.1539 \; 96 15.2954 \; 97 14.4401 \; 98 13.5908
\; 99 12.7508 \; 100 11.9232 \; 101 11.0985 \; 102 10.2955 \; 103 9.52009
\; 104 8.77856 \; 105 8.07702 \; 106 7.49548 \; 107 6.9478 \; 108 6.42165
\; 109 5.90473 \; 110 5.38473 \; 111 4.83704 \; 112 4.26474 \; 113
3.65858 \; 114 3.00936 \; 115 2.30782 \; 116 1.38475 \; 117 0.430913
\; 118 -0.522931 \; 119 -1.446 \; \;;
#X scalar r-arrow 327 17 -300 \;;
#X scalar u-arrow 27 97 -80 \;;
#X scalar rect 127 17 2 39.2307 \;;
#X scalar rect 127 17 2 39.2307 \;;
#X scalar rect 157 17 2 25.3846 \;;
#X scalar rect 97 17 2 25.3846 \;;
#X scalar rect 187 17 2 10.0001 \;;
#X scalar rect 67 17 2 10.0001 \;;
#X scalar rect 217 17 2 30.7692 \;;
#X scalar rect 37 17 2 30.7692 \;;
#X scalar rect 247 17 2 5.38473 \;;
#X scalar rect 47 17 2 5.38473 \;;
#X scalar xy-plot 27 18 1 \; 100 39.2307 \; 101 39.2307 \; 102 39.2307
\; 103 39.2307 \; 104 39.2307 \; 105 39.2307 \; 106 38.6584 \; 107
38.0523 \; 108 37.4246 \; 109 36.7877 \; 110 36.1538 \; 111 35.6092
\; 112 35.0738 \; 113 34.5415 \; 114 34.0061 \; 115 33.4615 \; 116
32.8523 \; 117 32.2338 \; 118 31.6123 \; 119 30.9938 \; 120 30.3846
\; 121 29.8154 \; 122 29.2615 \; 123 28.7231 \; 124 28.2 \; 125 27.6923
\; 126 27.2123 \; 127 26.7446 \; 128 26.2862 \; 129 25.8339 \; 130
25.3846 \; 131 24.9477 \; 132 24.5046 \; 133 24.0492 \; 134 23.5754
\; 135 23.0769 \; 136 22.5108 \; 137 21.9169 \; 138 21.2985 \; 139
20.6585 \; 140 20 \; 141 19.3016 \; 142 18.597 \; 143 17.8954 \; 144
17.2062 \; 145 16.5385 \; 146 15.9508 \; 147 15.3908 \; 148 14.8554
\; 149 14.3416 \; 150 13.8462 \; 151 13.3416 \; 152 12.8554 \; 153
12.3908 \; 154 11.9508 \; 155 11.5385 \; 156 11.0093 \; 157 10.5508
\; 158 10.2031 \; 159 10.0062 \; 160 10.0001 \; 161 10.5816 \; 162
11.3447 \; 163 12.2401 \; 164 13.2185 \; 165 14.2308 \; 166 14.9693
\; 167 15.7077 \; 168 16.4616 \; 169 17.2462 \; 170 18.077 \; 171 19.1046
\; 172 20.1754 \; 173 21.2708 \; 174 22.3723 \; 175 23.4615 \; 176
24.3723 \; 177 25.2708 \; 178 26.1754 \; 179 27.1046 \; 180 28.0769
\; 181 29.5415 \; 182 30.9784 \; 183 32.2984 \; 184 33.4123 \; 185
34.2307 \; 186 34.0615 \; 187 33.5692 \; 188 32.8154 \; 189 31.8615
\; 190 30.7692 \; 191 29.7723 \; 192 28.7169 \; 193 27.6215 \; 194
26.5046 \; 195 25.3846 \; 196 24.3415 \; 197 23.3169 \; 198 22.3139
\; 199 21.3354 \; 200 20.3847 \; 201 19.5016 \; 202 18.6431 \; 203
17.8031 \; 204 16.9754 \; 205 16.1539 \; 206 15.2954 \; 207 14.4401
\; 208 13.5908 \; 209 12.7508 \; 210 11.9232 \; 211 11.0985 \; 212
10.2955 \; 213 9.52009 \; 214 8.77856 \; 215 8.07702 \; 216 7.49548
\; 217 6.9478 \; 218 6.42165 \; 219 5.90473 \; 220 5.38473 \; 221 4.83704
\; 222 4.26474 \; 223 3.65858 \; 224 3.00936 \; 225 2.30782 \; 226
1.38475 \; 227 0.430913 \; 228 -0.522931 \; 229 -1.446 \; \;;
#X scalar xy-plot 27 18 1 \; 100 39.2307 \; 99 39.2307 \; 98 39.2307
\; 97 39.2307 \; 96 39.2307 \; 95 39.2307 \; 94 38.6584 \; 93 38.0523
\; 92 37.4246 \; 91 36.7877 \; 90 36.1538 \; 89 35.6092 \; 88 35.0738
\; 87 34.5415 \; 86 34.0061 \; 85 33.4615 \; 84 32.8523 \; 83 32.2338
\; 82 31.6123 \; 81 30.9938 \; 80 30.3846 \; 79 29.8154 \; 78 29.2615
\; 77 28.7231 \; 76 28.2 \; 75 27.6923 \; 74 27.2123 \; 73 26.7446
\; 72 26.2862 \; 71 25.8339 \; 70 25.3846 \; 69 24.9477 \; 68 24.5046
\; 67 24.0492 \; 66 23.5754 \; 65 23.0769 \; 64 22.5108 \; 63 21.9169
\; 62 21.2985 \; 61 20.6585 \; 60 20 \; 59 19.3016 \; 58 18.597 \;
57 17.8954 \; 56 17.2062 \; 55 16.5385 \; 54 15.9508 \; 53 15.3908
\; 52 14.8554 \; 51 14.3416 \; 50 13.8462 \; 49 13.3416 \; 48 12.8554
\; 47 12.3908 \; 46 11.9508 \; 45 11.5385 \; 44 11.0093 \; 43 10.5508
\; 42 10.2031 \; 41 10.0062 \; 40 10.0001 \; 39 10.5816 \; 38 11.3447
\; 37 12.2401 \; 36 13.2185 \; 35 14.2308 \; 34 14.9693 \; 33 15.7077
\; 32 16.4616 \; 31 17.2462 \; 30 18.077 \; 29 19.1046 \; 28 20.1754
\; 27 21.2708 \; 26 22.3723 \; 25 23.4615 \; 24 24.3723 \; 23 25.2708
\; 22 26.1754 \; 21 27.1046 \; 20 28.0769 \; 19 29.5415 \; 18 30.9784
\; 17 32.2984 \; 16 33.4123 \; 15 34.2307 \; 14 34.0615 \; 13 33.5692
\; 12 32.8154 \; 11 31.8615 \; 10 30.7692 \; 9 29.7723 \; 8 28.7169
\; 7 27.6215 \; 6 26.5046 \; 5 25.3846 \; 4 24.3415 \; 3 23.3169 \;
2 22.3139 \; 1 21.3354 \; 0 20.3847 \; 1 19.5016 \; 2 18.6431 \; 3
17.8031 \; 4 16.9754 \; 5 16.1539 \; 6 15.2954 \; 7 14.4401 \; 8 13.5908
\; 9 12.7508 \; 10 11.9232 \; 11 11.0985 \; 12 10.2955 \; 13 9.52009
\; 14 8.77856 \; 15 8.07702 \; 16 7.49548 \; 17 6.9478 \; 18 6.42165
\; 19 5.90473 \; 20 5.38473 \; 21 4.83704 \; 22 4.26474 \; 23 3.65858
\; 24 3.00936 \; 25 2.30782 \; 26 1.38475 \; 27 0.430913 \; 28 -0.522931
\; 29 -1.446 \; \;;
#X text 254 128 frequency;
#X text 36 19 amplitude;
#X text 4 83 (a);
#X text 3 184 (b);
#X text 3 293 (c);
#X coords 0 342 1 341 0 0 0;
#X restore 51 61 pd fig;
#N canvas 414 182 458 359 make-tables 0;
#N canvas 0 0 450 300 graph1 0;
#X array spectrum1 28 float 1;
#A 0 0.411538 0.392307 0.361538 0.334615 0.303846 0.276923 0.253846
0.230769 0.2 0.165385 0.138462 0.115385 0.100001 0.142308 0.18077 0.234615
0.280769 0.342307 0.307692 0.253846 0.203847 0.161539 0.119232 0.0807702
0.0538473 0.0230782 -0.0230754 -0.0461521;
#X coords 0 0.5 27 0 256 130 1;
#X restore 88 39 graph;
#X restore 170 63 pd make-tables;
#N canvas 288 203 914 902 xfer-to-fig 0;
#X obj 139 123 until;
#X obj 139 98 t b b;
#X obj 139 154 f;
#X msg 190 115 0;
#X obj 225 135 + 1;
#X obj 139 237 t f f;
#X obj 139 289 pack;
#X obj 139 75 bng 15 250 50 0 empty empty empty 0 -6 0 8 -262144 -1
-1;
#N canvas 160 52 337 349 z 0;
#X scalar r-arrow 321 216 -300 \;;
#X scalar u-arrow 21 316 -100 \;;
#X scalar rect 21 216 2 78.4614 \;;
#X scalar rect 51 216 2 50.7692 \;;
#X scalar rect 81 216 2 20.0001 \;;
#X scalar rect 111 216 2 61.5384 \;;
#X scalar rect 141 216 2 10.7695 \;;
#X scalar xy-plot 21 217 1 \; 0 78.4614 \; 1 78.4614 \; 2 78.4614 \;
3 78.4614 \; 4 78.4614 \; 5 78.4614 \; 6 77.3168 \; 7 76.1045 \; 8
74.8492 \; 9 73.5753 \; 10 72.3076 \; 11 71.2184 \; 12 70.1476 \; 13
69.083 \; 14 68.0123 \; 15 66.923 \; 16 65.7046 \; 17 64.4677 \; 18
63.2246 \; 19 61.9877 \; 20 60.7692 \; 21 59.6308 \; 22 58.5231 \;
23 57.4461 \; 24 56.4 \; 25 55.3846 \; 26 54.4246 \; 27 53.4892 \;
28 52.5723 \; 29 51.6677 \; 30 50.7692 \; 31 49.8954 \; 32 49.0093
\; 33 48.0985 \; 34 47.1508 \; 35 46.1539 \; 36 45.0216 \; 37 43.8339
\; 38 42.597 \; 39 41.317 \; 40 40.0001 \; 41 38.6031 \; 42 37.1939
\; 43 35.7908 \; 44 34.4124 \; 45 33.077 \; 46 31.9016 \; 47 30.7816
\; 48 29.7109 \; 49 28.6832 \; 50 27.6924 \; 51 26.6832 \; 52 25.7109
\; 53 24.7816 \; 54 23.9016 \; 55 23.077 \; 56 22.0186 \; 57 21.1017
\; 58 20.4063 \; 59 20.0124 \; 60 20.0001 \; 61 21.1632 \; 62 22.6893
\; 63 24.4801 \; 64 26.437 \; 65 28.4616 \; 66 29.9385 \; 67 31.4155
\; 68 32.9231 \; 69 34.4924 \; 70 36.1539 \; 71 38.2093 \; 72 40.3508
\; 73 42.5416 \; 74 44.7446 \; 75 46.9231 \; 76 48.7446 \; 77 50.5415
\; 78 52.3508 \; 79 54.2092 \; 80 56.1538 \; 81 59.083 \; 82 61.9569
\; 83 64.5969 \; 84 66.8245 \; 85 68.4615 \; 86 68.123 \; 87 67.1384
\; 88 65.6307 \; 89 63.723 \; 90 61.5384 \; 91 59.5446 \; 92 57.4338
\; 93 55.2431 \; 94 53.0092 \; 95 50.7692 \; 96 48.6831 \; 97 46.6339
\; 98 44.6277 \; 99 42.6708 \; 100 40.7693 \; 101 39.0032 \; 102 37.2863
\; 103 35.6063 \; 104 33.9509 \; 105 32.3078 \; 106 30.5909 \; 107
28.8801 \; 108 27.1817 \; 109 25.5017 \; 110 23.8463 \; 111 22.1971
\; 112 20.5909 \; 113 19.0402 \; 114 17.5571 \; 115 16.154 \; 116 14.991
\; 117 13.8956 \; 118 12.8433 \; 119 11.8095 \; 120 10.7695 \; 121
9.67408 \; 122 8.52947 \; 123 7.31717 \; 124 6.01872 \; 125 4.61565
\; 126 2.7695 \; 127 0.861827 \; 128 -1.04586 \; 129 -2.892 \; \;;
#X scalar r-arrow 321 116 -300 \;;
#X scalar u-arrow 21 196 -80 \;;
#X scalar rect 31 116 2 39.2307 \;;
#X scalar rect 31 116 2 39.2307 \;;
#X scalar rect 61 116 2 25.3846 \;;
#X scalar rect 41 116 2 25.3846 \;;
#X scalar rect 91 116 2 10.0001 \;;
#X scalar rect 71 116 2 10.0001 \;;
#X scalar rect 121 116 2 30.7692 \;;
#X scalar rect 101 116 2 30.7692 \;;
#X scalar rect 151 116 2 5.38473 \;;
#X scalar rect 131 116 2 5.38473 \;;
#X scalar xy-plot 21 117 1 \; 10 39.2307 \; 11 39.2307 \; 12 39.2307
\; 13 39.2307 \; 14 39.2307 \; 15 39.2307 \; 16 38.6584 \; 17 38.0523
\; 18 37.4246 \; 19 36.7877 \; 20 36.1538 \; 21 35.6092 \; 22 35.0738
\; 23 34.5415 \; 24 34.0061 \; 25 33.4615 \; 26 32.8523 \; 27 32.2338
\; 28 31.6123 \; 29 30.9938 \; 30 30.3846 \; 31 29.8154 \; 32 29.2615
\; 33 28.7231 \; 34 28.2 \; 35 27.6923 \; 36 27.2123 \; 37 26.7446
\; 38 26.2862 \; 39 25.8339 \; 40 25.3846 \; 41 24.9477 \; 42 24.5046
\; 43 24.0492 \; 44 23.5754 \; 45 23.0769 \; 46 22.5108 \; 47 21.9169
\; 48 21.2985 \; 49 20.6585 \; 50 20 \; 51 19.3016 \; 52 18.597 \;
53 17.8954 \; 54 17.2062 \; 55 16.5385 \; 56 15.9508 \; 57 15.3908
\; 58 14.8554 \; 59 14.3416 \; 60 13.8462 \; 61 13.3416 \; 62 12.8554
\; 63 12.3908 \; 64 11.9508 \; 65 11.5385 \; 66 11.0093 \; 67 10.5508
\; 68 10.2031 \; 69 10.0062 \; 70 10.0001 \; 71 10.5816 \; 72 11.3447
\; 73 12.2401 \; 74 13.2185 \; 75 14.2308 \; 76 14.9693 \; 77 15.7077
\; 78 16.4616 \; 79 17.2462 \; 80 18.077 \; 81 19.1046 \; 82 20.1754
\; 83 21.2708 \; 84 22.3723 \; 85 23.4615 \; 86 24.3723 \; 87 25.2708
\; 88 26.1754 \; 89 27.1046 \; 90 28.0769 \; 91 29.5415 \; 92 30.9784
\; 93 32.2984 \; 94 33.4123 \; 95 34.2307 \; 96 34.0615 \; 97 33.5692
\; 98 32.8154 \; 99 31.8615 \; 100 30.7692 \; 101 29.7723 \; 102 28.7169
\; 103 27.6215 \; 104 26.5046 \; 105 25.3846 \; 106 24.3415 \; 107
23.3169 \; 108 22.3139 \; 109 21.3354 \; 110 20.3847 \; 111 19.5016
\; 112 18.6431 \; 113 17.8031 \; 114 16.9754 \; 115 16.1539 \; 116
15.2954 \; 117 14.4401 \; 118 13.5908 \; 119 12.7508 \; 120 11.9232
\; 121 11.0985 \; 122 10.2955 \; 123 9.52009 \; 124 8.77856 \; 125
8.07702 \; 126 7.49548 \; 127 6.9478 \; 128 6.42165 \; 129 5.90473
\; 130 5.38473 \; 131 4.83704 \; 132 4.26474 \; 133 3.65858 \; 134
3.00936 \; 135 2.30782 \; 136 1.38475 \; 137 0.430913 \; 138 -0.522931
\; 139 -1.446 \; 0 0 \; 0 0 \; 0 0 \; 0 0 \; 0 0 \; 0 0 \; 0 0 \; 0
0 \; 0 0 \; 0 0 \; 0 0 \; 0 0 \; 0 0 \; 0 0 \; 0 0 \; 0 0 \; 0 0 \;
0 0 \; 0 0 \; 0 0 \; 0 0 \; 0 0 \; 0 0 \; 0 0 \; 0 0 \; 0 0 \; 0 0
\; 0 0 \; 0 0 \; 0 0 \; 0 0 \; 0 0 \; 0 0 \; 0 0 \; 0 0 \; 0 0 \; 0
0 \; 0 0 \; 0 0 \; 0 0 \; 0 0 \; 0 0 \; 0 0 \; 0 0 \; 0 0 \; 0 0 \;
0 0 \; 0 0 \; 0 0 \; 0 0 \; 0 0 \; 0 0 \; 0 0 \; 0 0 \; 0 0 \; 0 0
\; 0 0 \; 0 0 \; 0 0 \; 0 0 \; 0 0 \; 0 0 \; 0 0 \; 0 0 \; 0 0 \; 0
0 \; 0 0 \; 0 0 \; 0 0 \; 0 0 \; \;;
#X scalar xy-plot 21 117 1 \; 10 39.2307 \; 9 39.2307 \; 8 39.2307
\; 7 39.2307 \; 6 39.2307 \; 5 39.2307 \; 4 38.6584 \; 3 38.0523 \;
2 37.4246 \; 1 36.7877 \; 0 36.1538 \; 1 35.6092 \; 2 35.0738 \; 3
34.5415 \; 4 34.0061 \; 5 33.4615 \; 6 32.8523 \; 7 32.2338 \; 8 31.6123
\; 9 30.9938 \; 10 30.3846 \; 11 29.8154 \; 12 29.2615 \; 13 28.7231
\; 14 28.2 \; 15 27.6923 \; 16 27.2123 \; 17 26.7446 \; 18 26.2862
\; 19 25.8339 \; 20 25.3846 \; 21 24.9477 \; 22 24.5046 \; 23 24.0492
\; 24 23.5754 \; 25 23.0769 \; 26 22.5108 \; 27 21.9169 \; 28 21.2985
\; 29 20.6585 \; 30 20 \; 31 19.3016 \; 32 18.597 \; 33 17.8954 \;
34 17.2062 \; 35 16.5385 \; 36 15.9508 \; 37 15.3908 \; 38 14.8554
\; 39 14.3416 \; 40 13.8462 \; 41 13.3416 \; 42 12.8554 \; 43 12.3908
\; 44 11.9508 \; 45 11.5385 \; 46 11.0093 \; 47 10.5508 \; 48 10.2031
\; 49 10.0062 \; 50 10.0001 \; 51 10.5816 \; 52 11.3447 \; 53 12.2401
\; 54 13.2185 \; 55 14.2308 \; 56 14.9693 \; 57 15.7077 \; 58 16.4616
\; 59 17.2462 \; 60 18.077 \; 61 19.1046 \; 62 20.1754 \; 63 21.2708
\; 64 22.3723 \; 65 23.4615 \; 66 24.3723 \; 67 25.2708 \; 68 26.1754
\; 69 27.1046 \; 70 28.0769 \; 71 29.5415 \; 72 30.9784 \; 73 32.2984
\; 74 33.4123 \; 75 34.2307 \; 76 34.0615 \; 77 33.5692 \; 78 32.8154
\; 79 31.8615 \; 80 30.7692 \; 81 29.7723 \; 82 28.7169 \; 83 27.6215
\; 84 26.5046 \; 85 25.3846 \; 86 24.3415 \; 87 23.3169 \; 88 22.3139
\; 89 21.3354 \; 90 20.3847 \; 91 19.5016 \; 92 18.6431 \; 93 17.8031
\; 94 16.9754 \; 95 16.1539 \; 96 15.2954 \; 97 14.4401 \; 98 13.5908
\; 99 12.7508 \; 100 11.9232 \; 101 11.0985 \; 102 10.2955 \; 103 9.52009
\; 104 8.77856 \; 105 8.07702 \; 106 7.49548 \; 107 6.9478 \; 108 6.42165
\; 109 5.90473 \; 110 5.38473 \; 111 4.83704 \; 112 4.26474 \; 113
3.65858 \; 114 3.00936 \; 115 2.30782 \; 116 1.38475 \; 117 0.430913
\; 118 -0.522931 \; 119 -1.446 \; \;;
#X scalar r-arrow 321 16 -300 \;;
#X scalar u-arrow 21 96 -80 \;;
#X scalar rect 121 16 2 39.2307 \;;
#X scalar rect 121 16 2 39.2307 \;;
#X scalar rect 151 16 2 25.3846 \;;
#X scalar rect 91 16 2 25.3846 \;;
#X scalar rect 181 16 2 10.0001 \;;
#X scalar rect 61 16 2 10.0001 \;;
#X scalar rect 211 16 2 30.7692 \;;
#X scalar rect 31 16 2 30.7692 \;;
#X scalar rect 241 16 2 5.38473 \;;
#X scalar rect 41 16 2 5.38473 \;;
#X scalar xy-plot 21 17 1 \; 100 39.2307 \; 101 39.2307 \; 102 39.2307
\; 103 39.2307 \; 104 39.2307 \; 105 39.2307 \; 106 38.6584 \; 107
38.0523 \; 108 37.4246 \; 109 36.7877 \; 110 36.1538 \; 111 35.6092
\; 112 35.0738 \; 113 34.5415 \; 114 34.0061 \; 115 33.4615 \; 116
32.8523 \; 117 32.2338 \; 118 31.6123 \; 119 30.9938 \; 120 30.3846
\; 121 29.8154 \; 122 29.2615 \; 123 28.7231 \; 124 28.2 \; 125 27.6923
\; 126 27.2123 \; 127 26.7446 \; 128 26.2862 \; 129 25.8339 \; 130
25.3846 \; 131 24.9477 \; 132 24.5046 \; 133 24.0492 \; 134 23.5754
\; 135 23.0769 \; 136 22.5108 \; 137 21.9169 \; 138 21.2985 \; 139
20.6585 \; 140 20 \; 141 19.3016 \; 142 18.597 \; 143 17.8954 \; 144
17.2062 \; 145 16.5385 \; 146 15.9508 \; 147 15.3908 \; 148 14.8554
\; 149 14.3416 \; 150 13.8462 \; 151 13.3416 \; 152 12.8554 \; 153
12.3908 \; 154 11.9508 \; 155 11.5385 \; 156 11.0093 \; 157 10.5508
\; 158 10.2031 \; 159 10.0062 \; 160 10.0001 \; 161 10.5816 \; 162
11.3447 \; 163 12.2401 \; 164 13.2185 \; 165 14.2308 \; 166 14.9693
\; 167 15.7077 \; 168 16.4616 \; 169 17.2462 \; 170 18.077 \; 171 19.1046
\; 172 20.1754 \; 173 21.2708 \; 174 22.3723 \; 175 23.4615 \; 176
24.3723 \; 177 25.2708 \; 178 26.1754 \; 179 27.1046 \; 180 28.0769
\; 181 29.5415 \; 182 30.9784 \; 183 32.2984 \; 184 33.4123 \; 185
34.2307 \; 186 34.0615 \; 187 33.5692 \; 188 32.8154 \; 189 31.8615
\; 190 30.7692 \; 191 29.7723 \; 192 28.7169 \; 193 27.6215 \; 194
26.5046 \; 195 25.3846 \; 196 24.3415 \; 197 23.3169 \; 198 22.3139
\; 199 21.3354 \; 200 20.3847 \; 201 19.5016 \; 202 18.6431 \; 203
17.8031 \; 204 16.9754 \; 205 16.1539 \; 206 15.2954 \; 207 14.4401
\; 208 13.5908 \; 209 12.7508 \; 210 11.9232 \; 211 11.0985 \; 212
10.2955 \; 213 9.52009 \; 214 8.77856 \; 215 8.07702 \; 216 7.49548
\; 217 6.9478 \; 218 6.42165 \; 219 5.90473 \; 220 5.38473 \; 221 4.83704
\; 222 4.26474 \; 223 3.65858 \; 224 3.00936 \; 225 2.30782 \; 226
1.38475 \; 227 0.430913 \; 228 -0.522931 \; 229 -1.446 \; \;;
#X scalar xy-plot 21 17 1 \; 100 39.2307 \; 99 39.2307 \; 98 39.2307
\; 97 39.2307 \; 96 39.2307 \; 95 39.2307 \; 94 38.6584 \; 93 38.0523
\; 92 37.4246 \; 91 36.7877 \; 90 36.1538 \; 89 35.6092 \; 88 35.0738
\; 87 34.5415 \; 86 34.0061 \; 85 33.4615 \; 84 32.8523 \; 83 32.2338
\; 82 31.6123 \; 81 30.9938 \; 80 30.3846 \; 79 29.8154 \; 78 29.2615
\; 77 28.7231 \; 76 28.2 \; 75 27.6923 \; 74 27.2123 \; 73 26.7446
\; 72 26.2862 \; 71 25.8339 \; 70 25.3846 \; 69 24.9477 \; 68 24.5046
\; 67 24.0492 \; 66 23.5754 \; 65 23.0769 \; 64 22.5108 \; 63 21.9169
\; 62 21.2985 \; 61 20.6585 \; 60 20 \; 59 19.3016 \; 58 18.597 \;
57 17.8954 \; 56 17.2062 \; 55 16.5385 \; 54 15.9508 \; 53 15.3908
\; 52 14.8554 \; 51 14.3416 \; 50 13.8462 \; 49 13.3416 \; 48 12.8554
\; 47 12.3908 \; 46 11.9508 \; 45 11.5385 \; 44 11.0093 \; 43 10.5508
\; 42 10.2031 \; 41 10.0062 \; 40 10.0001 \; 39 10.5816 \; 38 11.3447
\; 37 12.2401 \; 36 13.2185 \; 35 14.2308 \; 34 14.9693 \; 33 15.7077
\; 32 16.4616 \; 31 17.2462 \; 30 18.077 \; 29 19.1046 \; 28 20.1754
\; 27 21.2708 \; 26 22.3723 \; 25 23.4615 \; 24 24.3723 \; 23 25.2708
\; 22 26.1754 \; 21 27.1046 \; 20 28.0769 \; 19 29.5415 \; 18 30.9784
\; 17 32.2984 \; 16 33.4123 \; 15 34.2307 \; 14 34.0615 \; 13 33.5692
\; 12 32.8154 \; 11 31.8615 \; 10 30.7692 \; 9 29.7723 \; 8 28.7169
\; 7 27.6215 \; 6 26.5046 \; 5 25.3846 \; 4 24.3415 \; 3 23.3169 \;
2 22.3139 \; 1 21.3354 \; 0 20.3847 \; 1 19.5016 \; 2 18.6431 \; 3
17.8031 \; 4 16.9754 \; 5 16.1539 \; 6 15.2954 \; 7 14.4401 \; 8 13.5908
\; 9 12.7508 \; 10 11.9232 \; 11 11.0985 \; 12 10.2955 \; 13 9.52009
\; 14 8.77856 \; 15 8.07702 \; 16 7.49548 \; 17 6.9478 \; 18 6.42165
\; 19 5.90473 \; 20 5.38473 \; 21 4.83704 \; 22 4.26474 \; 23 3.65858
\; 24 3.00936 \; 25 2.30782 \; 26 1.38475 \; 27 0.430913 \; 28 -0.522931
\; 29 -1.446 \; \;;
#X text 241 134 frequency;
#X text 27 26 amplitude;
#X coords 0 349 1 348 0 0 0;
#X restore 25 112 pd z;
#X msg 23 17 \; pd-z clear;
#X msg 24 62 \; start pd-z \;;
#X obj 135 467 until;
#X obj 137 442 t b b;
#X obj 138 497 f;
#X msg 186 457 0;
#X obj 215 477 + 1;
#X obj 137 419 bng 15 250 50 0 empty empty empty 0 -6 0 8 -262144 -1
-1;
#X obj 139 263 expr 75 + $f1;
#X obj 185 237 tabread4 spectrum1;
#X obj 198 545 tabread4 spectrum1;
#X msg 139 312 \; add-rect \$1 275 2 \$2 \;;
#X msg 29 275 30 50;
#X msg 367 20 \; add-r-arrow 375 175 -300 \; add-u-arrow 75 255 -80
;
#X obj 32 304 print;
#X msg 138 610 \; xy-plot-point \$1 \$2 \$3 \;;
#X obj 138 589 pack 0 0 0;
#X obj 138 523 t f f f;
#X obj 160 566 abs;
#X obj 225 158 sel 5;
#X obj 185 215 / 5;
#X obj 198 523 / 5;
#X obj 369 126 until;
#X obj 369 101 t b b;
#X obj 369 157 f;
#X msg 420 118 0;
#X obj 455 138 + 1;
#X obj 369 205 t f f;
#X obj 369 305 pack;
#X obj 369 78 bng 15 250 50 0 empty empty empty 0 -6 0 8 -262144 -1
-1;
#X obj 369 279 expr 75 + $f1;
#X obj 415 253 tabread4 spectrum1;
#X obj 455 161 sel 5;
#X obj 415 231 / 5;
#X obj 367 456 until;
#X obj 367 430 t b b;
#X obj 370 486 f;
#X msg 416 447 0;
#X obj 447 466 + 1;
#X obj 367 407 bng 15 250 50 0 empty empty empty 0 -6 0 8 -262144 -1
-1;
#X obj 430 534 tabread4 spectrum1;
#X msg 370 599 \; xy-plot-point \$1 \$2 \$3 \;;
#X obj 370 578 pack 0 0 0;
#X obj 370 512 t f f f;
#X obj 392 555 abs;
#X obj 430 512 / 5;
#X obj 369 725 until;
#X obj 369 699 t b b;
#X obj 372 755 f;
#X msg 418 716 0;
#X obj 449 735 + 1;
#X obj 369 676 bng 15 250 50 0 empty empty empty 0 -6 0 8 -262144 -1
-1;
#X obj 432 803 tabread4 spectrum1;
#X msg 372 868 \; xy-plot-point \$1 \$2 \$3 \;;
#X obj 372 847 pack 0 0 0;
#X obj 372 781 t f f f;
#X obj 394 824 abs;
#X obj 432 781 / 5;
#X msg 369 328 \; add-rect \$1 175 2 \$2 \;;
#X obj 369 258 abs;
#X obj 185 289 * 200;
#X obj 198 566 * 200;
#X obj 415 305 * 100;
#X obj 430 555 * 100;
#X obj 432 824 * 100;
#X obj 614 127 until;
#X obj 614 102 t b b;
#X obj 614 158 f;
#X msg 665 119 0;
#X obj 700 139 + 1;
#X obj 614 206 t f f;
#X obj 614 306 pack;
#X obj 614 79 bng 15 250 50 0 empty empty empty 0 -6 0 8 -262144 -1
-1;
#X obj 614 280 expr 75 + $f1;
#X obj 660 254 tabread4 spectrum1;
#X obj 700 162 sel 5;
#X obj 660 232 / 5;
#X obj 612 457 until;
#X obj 612 431 t b b;
#X obj 615 487 f;
#X msg 661 448 0;
#X obj 692 467 + 1;
#X obj 612 408 bng 15 250 50 0 empty empty empty 0 -6 0 8 -262144 -1
-1;
#X obj 675 535 tabread4 spectrum1;
#X msg 615 600 \; xy-plot-point \$1 \$2 \$3 \;;
#X obj 615 579 pack 0 0 0;
#X obj 615 513 t f f f;
#X obj 637 556 abs;
#X obj 675 513 / 5;
#X obj 614 726 until;
#X obj 614 700 t b b;
#X obj 617 756 f;
#X msg 663 717 0;
#X obj 694 736 + 1;
#X obj 614 677 bng 15 250 50 0 empty empty empty 0 -6 0 8 -262144 -1
-1;
#X obj 677 804 tabread4 spectrum1;
#X msg 617 869 \; xy-plot-point \$1 \$2 \$3 \;;
#X obj 617 848 pack 0 0 0;
#X obj 617 782 t f f f;
#X obj 639 825 abs;
#X obj 677 782 / 5;
#X obj 614 259 abs;
#X obj 660 306 * 100;
#X obj 675 556 * 100;
#X obj 677 825 * 100;
#X msg 134 19 \; add-r-arrow 375 275 -300 \; add-u-arrow 75 375 -100
;
#X msg 612 21 \; add-r-arrow 375 75 -300 \; add-u-arrow 75 155 -80
;
#X msg 614 329 \; add-rect \$1 75 2 \$2 \;;
#X obj 139 181 map10 0 30 60 90 120;
#X obj 215 500 sel 130;
#X msg 132 373 \; add-xy-plot 130 75 276 1 \;;
#X obj 369 184 map10 0 30 60 90 120;
#X obj 334 235 + 10;
#X obj 369 236 - 10;
#X obj 392 534 + 10;
#X obj 447 489 sel 130;
#X obj 449 758 sel 130;
#X obj 394 803 - 10;
#X msg 367 370 \; add-xy-plot 130 75 176 1 \;;
#X msg 368 641 \; add-xy-plot 130 75 176 1 \;;
#X obj 614 185 map10 0 30 60 90 120;
#X obj 574 237 + 100;
#X obj 614 237 - 100;
#X obj 637 535 + 100;
#X obj 639 804 - 100;
#X msg 613 371 \; add-xy-plot 130 75 76 1 \;;
#X msg 613 642 \; add-xy-plot 130 75 76 1 \;;
#X obj 692 490 sel 130;
#X obj 694 759 sel 130;
#X connect 0 0 2 0;
#X connect 1 0 0 0;
#X connect 1 1 3 0;
#X connect 2 0 4 0;
#X connect 2 0 117 0;
#X connect 3 0 2 1;
#X connect 4 0 2 1;
#X connect 4 0 28 0;
#X connect 5 0 17 0;
#X connect 5 1 29 0;
#X connect 6 0 20 0;
#X connect 7 0 1 0;
#X connect 11 0 13 0;
#X connect 12 0 11 0;
#X connect 12 1 14 0;
#X connect 13 0 15 0;
#X connect 13 0 26 0;
#X connect 14 0 13 1;
#X connect 15 0 13 1;
#X connect 15 0 118 0;
#X connect 16 0 12 0;
#X connect 17 0 6 0;
#X connect 18 0 69 0;
#X connect 19 0 70 0;
#X connect 25 0 24 0;
#X connect 26 0 25 0;
#X connect 26 1 27 0;
#X connect 26 2 30 0;
#X connect 27 0 25 1;
#X connect 28 0 0 1;
#X connect 29 0 18 0;
#X connect 30 0 19 0;
#X connect 31 0 33 0;
#X connect 32 0 31 0;
#X connect 32 1 34 0;
#X connect 33 0 35 0;
#X connect 33 0 120 0;
#X connect 34 0 33 1;
#X connect 35 0 33 1;
#X connect 35 0 41 0;
#X connect 36 0 121 0;
#X connect 36 0 122 0;
#X connect 36 1 42 0;
#X connect 37 0 67 0;
#X connect 38 0 32 0;
#X connect 39 0 37 0;
#X connect 40 0 71 0;
#X connect 41 0 31 1;
#X connect 42 0 40 0;
#X connect 43 0 45 0;
#X connect 44 0 43 0;
#X connect 44 1 46 0;
#X connect 45 0 47 0;
#X connect 45 0 52 0;
#X connect 46 0 45 1;
#X connect 47 0 45 1;
#X connect 47 0 124 0;
#X connect 48 0 44 0;
#X connect 49 0 72 0;
#X connect 51 0 50 0;
#X connect 52 0 51 0;
#X connect 52 1 123 0;
#X connect 52 2 54 0;
#X connect 53 0 51 1;
#X connect 54 0 49 0;
#X connect 55 0 57 0;
#X connect 56 0 55 0;
#X connect 56 1 58 0;
#X connect 57 0 59 0;
#X connect 57 0 64 0;
#X connect 58 0 57 1;
#X connect 59 0 57 1;
#X connect 59 0 125 0;
#X connect 60 0 56 0;
#X connect 61 0 73 0;
#X connect 63 0 62 0;
#X connect 64 0 63 0;
#X connect 64 1 126 0;
#X connect 64 2 66 0;
#X connect 65 0 63 1;
#X connect 66 0 61 0;
#X connect 68 0 39 0;
#X connect 69 0 6 1;
#X connect 70 0 25 2;
#X connect 71 0 37 1;
#X connect 72 0 51 2;
#X connect 73 0 63 2;
#X connect 74 0 76 0;
#X connect 75 0 74 0;
#X connect 75 1 77 0;
#X connect 76 0 78 0;
#X connect 76 0 129 0;
#X connect 77 0 76 1;
#X connect 78 0 76 1;
#X connect 78 0 84 0;
#X connect 79 0 130 0;
#X connect 79 0 131 0;
#X connect 79 1 85 0;
#X connect 80 0 116 0;
#X connect 81 0 75 0;
#X connect 82 0 80 0;
#X connect 83 0 111 0;
#X connect 84 0 74 1;
#X connect 85 0 83 0;
#X connect 86 0 88 0;
#X connect 87 0 86 0;
#X connect 87 1 89 0;
#X connect 88 0 90 0;
#X connect 88 0 95 0;
#X connect 89 0 88 1;
#X connect 90 0 88 1;
#X connect 90 0 136 0;
#X connect 91 0 87 0;
#X connect 92 0 112 0;
#X connect 94 0 93 0;
#X connect 95 0 94 0;
#X connect 95 1 132 0;
#X connect 95 2 97 0;
#X connect 96 0 94 1;
#X connect 97 0 92 0;
#X connect 98 0 100 0;
#X connect 99 0 98 0;
#X connect 99 1 101 0;
#X connect 100 0 102 0;
#X connect 100 0 107 0;
#X connect 101 0 100 1;
#X connect 102 0 100 1;
#X connect 102 0 137 0;
#X connect 103 0 99 0;
#X connect 104 0 113 0;
#X connect 106 0 105 0;
#X connect 107 0 106 0;
#X connect 107 1 133 0;
#X connect 107 2 109 0;
#X connect 108 0 106 1;
#X connect 109 0 104 0;
#X connect 110 0 82 0;
#X connect 111 0 80 1;
#X connect 112 0 94 2;
#X connect 113 0 106 2;
#X connect 117 0 5 0;
#X connect 118 0 11 1;
#X connect 120 0 36 0;
#X connect 121 0 68 0;
#X connect 122 0 68 0;
#X connect 123 0 53 0;
#X connect 124 0 43 1;
#X connect 125 0 55 1;
#X connect 126 0 65 0;
#X connect 129 0 79 0;
#X connect 130 0 110 0;
#X connect 131 0 110 0;
#X connect 132 0 96 0;
#X connect 133 0 108 0;
#X connect 136 0 86 1;
#X connect 137 0 98 1;
#X restore 170 83 pd xfer-to-fig;
#X obj 170 42 templates;
