#N struct d-curve-arrow float x float y float z float z2 float z3 float
h;
#N struct r-arrow float x float y float z;
#N struct u-arrow float x float y float z;
#N struct y-plot float x float y float w array z y-point;
#N struct y-point float y;
#N struct v-seg float x float y float z float w;
#N struct haxis float x float y float w float w-3;
#N struct xy-curve float x float y float w array z xy-point;
#N struct xy-point float x float y;
#N struct seg float x float y float dx float dy float w;
#N struct l-curve-arrow float x float y float z float z2 float z3 float
h;
#N struct circle2 float x float y float h float h2 float mh float mh2
;
#N struct vaxis float x float y float h float h-3;
#N struct xy-plot float x float y float w array z xy-point;
#N struct circle float x float y float color float h float h2;
#N struct u-curve-arrow float x float y float z float z2 float z3 float
h;
#N struct r-curve-arrow float x float y float z float z2 float z3 float
h;
#N struct l-arrow float x float y float z;
#N struct d-arrow float x float y float z;
#N struct h-seg float x float y float z float w;
#N struct rect float x float y float w float h;
#N struct frame float x float y float w float h;
#N struct thickcircle float x float y float color float h float h2
;
#N struct times float x float y;
#N struct plus float x float y;
#N struct minus float x float y;
#N struct divide float x float y;
#N canvas 554 90 329 179 10;
#N canvas 66 9 381 224 fig 1;
#X text 190 193 frequency;
#X scalar d-curve-arrow 235 97 11 19 27 19 \;;
#X scalar r-arrow 359 35 -300 \;;
#X scalar u-arrow 59 162 -128 \;;
#X scalar y-plot 60 37 1 \; 114.984 \; 114.984 \; 114.984 \; 114.595
\; 113.726 \; 112.851 \; 111.975 \; 111.104 \; 110.242 \; 109.393 \;
108.564 \; 107.761 \; 106.986 \; 106.241 \; 105.531 \; 104.848 \; 104.191
\; 103.551 \; 102.918 \; 102.284 \; 101.642 \; 100.98 \; 100.298 \;
99.5964 \; 98.8706 \; 98.1322 \; 97.3882 \; 96.6437 \; 95.9016 \; 95.1721
\; 94.4472 \; 93.7239 \; 92.9996 \; 92.2713 \; 91.5317 \; 90.7863 \;
90.0389 \; 89.2924 \; 88.5495 \; 87.8175 \; 87.092 \; 86.3687 \; 85.6448
\; 84.9158 \; 84.1749 \; 83.4223 \; 82.6601 \; 81.8885 \; 81.1092 \;
80.325 \; 79.5355 \; 78.7378 \; 77.9296 \; 77.1118 \; 76.2822 \; 75.4421
\; 74.5978 \; 73.7532 \; 72.912 \; 72.0798 \; 71.26 \; 70.4475 \; 69.6441
\; 68.8423 \; 68.0351 \; 67.2163 \; 66.3824 \; 65.5246 \; 64.6446 \;
63.7443 \; 62.8216 \; 61.8903 \; 60.9572 \; 60.0328 \; 59.1294 \; 58.2624
\; 57.4319 \; 56.6478 \; 55.9105 \; 55.2115 \; 54.5501 \; 53.9161 \;
53.3013 \; 52.6985 \; 52.1026 \; 51.5077 \; 50.9076 \; 50.2968 \; 49.6695
\; 49.0173 \; 48.3301 \; 47.6048 \; 46.8364 \; 46.018 \; 45.1596 \;
44.2627 \; 43.3347 \; 42.3849 \; 41.4228 \; 40.4504 \; 39.4735 \; 38.4954
\; 37.5175 \; 36.5409 \; 35.571 \; 34.6114 \; 33.6666 \; 32.7424 \;
31.8438 \; 30.977 \; 30.1473 \; 29.3609 \; 28.6278 \; 27.9554 \; 27.3542
\; 26.8356 \; 26.4107 \; 26.0808 \; 25.8575 \; 25.7354 \; 25.7074 \;
25.7715 \; 25.9132 \; 26.1206 \; 26.386 \; 26.7033 \; 27.062 \; 27.4636
\; 27.9053 \; 28.3849 \; 28.901 \; 29.4537 \; 30.0376 \; 30.65 \; 31.2866
\; 31.94 \; 32.6045 \; 33.2736 \; 33.94 \; 34.5972 \; 35.2431 \; 35.8721
\; 36.483 \; 37.0743 \; 37.6436 \; 38.1919 \; 38.7153 \; 39.219 \;
39.7101 \; 40.1897 \; 40.6765 \; 41.1842 \; 41.7246 \; 42.3075 \; 42.9535
\; 43.6538 \; 44.4136 \; 45.2302 \; 46.0896 \; 46.988 \; 47.9075 \;
48.8342 \; 49.7538 \; 50.6493 \; 51.5006 \; 52.299 \; 53.0326 \; 53.6888
\; 54.2708 \; 54.7769 \; 55.2024 \; 55.5439 \; 55.8025 \; 55.9534 \;
55.9809 \; 55.8699 \; 55.6045 \; 55.1517 \; 54.5407 \; 53.7674 \; 52.8523
\; 51.8404 \; 50.7653 \; 49.6574 \; 48.5566 \; 47.4902 \; 46.4577 \;
45.4837 \; 44.556 \; 43.6693 \; 42.8197 \; 41.9971 \; 41.1904 \; 40.3979
\; 39.6166 \; 38.8409 \; 38.0825 \; 37.3456 \; 36.6377 \; 35.968 \;
35.3497 \; 34.7744 \; 34.2462 \; 33.7581 \; 33.2959 \; 32.8472 \; 32.4066
\; 31.963 \; 31.5114 \; 31.0564 \; 30.5994 \; 30.1383 \; 29.6752 \;
29.2085 \; 28.7232 \; 28.2123 \; 27.6625 \; 27.0611 \; 26.396 \; 25.6539
\; 24.8265 \; 23.8937 \; 22.8325 \; 21.6199 \; 20.2481 \; 18.6793 \;
16.9324 \; 15.0499 \; 13.0273 \; 10.9694 \; 8.94582 \; 7.02394 \; 5.26819
\; 3.78218 \; 2.55602 \; 1.63589 \; 1.03277 \; 0.674182 \; 0.550609
\; 0.577302 \; 0.671555 \; 0.76272 \; 0.830766 \; 0.797398 \; 0.685882
\; 0.518194 \; 0.299944 \; 0.0723649 \; -0.121377 \; -0.274192 \; -0.379255
\; -0.379255 \; -0.379255 \; -0.379255 \; -0.379255 \; 0 \; \;;
#X scalar v-seg 85 135 29 1 \;;
#X scalar v-seg 34 137 29 1 \;;
#X scalar v-seg 258 75 29 1 \;;
#X scalar v-seg 203 75 29 1 \;;
#X scalar d-curve-arrow 59 171 11 23 27 17 \;;
#X text 79 16 1;
#X text 46 65 1;
#X text 39 59 b;
#X scalar haxis 36 146 48 45 \;;
#X scalar haxis 204 88 53 50 \;;
#X text 214 123 2;
#X text 207 117 b;
#X text 64 10 (f;
#X text 108 16 1;
#X text 86 9 \, a );
#X text 243 83 (f;
#X text 265 82 \, a );
#X text 258 89 2;
#X text 287 89 2;
#X text 12 137 tude;
#X text 12 124 ampli-;
#X coords 0 224 1 223 0 0 0;
#X restore 51 61 pd fig;
#X obj 170 42 templates;
#N canvas 456 214 859 681 xfer-to-fig 0;
#N canvas 16 411 457 341 z 0;
#X scalar r-arrow 375 75 -300 \;;
#X scalar u-arrow 75 225 -150 \;;
#X scalar y-plot 75 76 1 \; 114.984 \; 114.984 \; 114.984 \; 114.595
\; 113.726 \; 112.851 \; 111.975 \; 111.104 \; 110.242 \; 109.393 \;
108.564 \; 107.761 \; 106.986 \; 106.241 \; 105.531 \; 104.848 \; 104.191
\; 103.551 \; 102.918 \; 102.284 \; 101.642 \; 100.98 \; 100.298 \;
99.5964 \; 98.8706 \; 98.1322 \; 97.3882 \; 96.6437 \; 95.9016 \; 95.1721
\; 94.4472 \; 93.7239 \; 92.9996 \; 92.2713 \; 91.5317 \; 90.7863 \;
90.0389 \; 89.2924 \; 88.5495 \; 87.8175 \; 87.092 \; 86.3687 \; 85.6448
\; 84.9158 \; 84.1749 \; 83.4223 \; 82.6601 \; 81.8885 \; 81.1092 \;
80.325 \; 79.5355 \; 78.7378 \; 77.9296 \; 77.1118 \; 76.2822 \; 75.4421
\; 74.5978 \; 73.7532 \; 72.912 \; 72.0798 \; 71.26 \; 70.4475 \; 69.6441
\; 68.8423 \; 68.0351 \; 67.2163 \; 66.3824 \; 65.5246 \; 64.6446 \;
63.7443 \; 62.8216 \; 61.8903 \; 60.9572 \; 60.0328 \; 59.1294 \; 58.2624
\; 57.4319 \; 56.6478 \; 55.9105 \; 55.2115 \; 54.5501 \; 53.9161 \;
53.3013 \; 52.6985 \; 52.1026 \; 51.5077 \; 50.9076 \; 50.2968 \; 49.6695
\; 49.0173 \; 48.3301 \; 47.6048 \; 46.8364 \; 46.018 \; 45.1596 \;
44.2627 \; 43.3347 \; 42.3849 \; 41.4228 \; 40.4504 \; 39.4735 \; 38.4954
\; 37.5175 \; 36.5409 \; 35.571 \; 34.6114 \; 33.6666 \; 32.7424 \;
31.8438 \; 30.977 \; 30.1473 \; 29.3609 \; 28.6278 \; 27.9554 \; 27.3542
\; 26.8356 \; 26.4107 \; 26.0808 \; 25.8575 \; 25.7354 \; 25.7074 \;
25.7715 \; 25.9132 \; 26.1206 \; 26.386 \; 26.7033 \; 27.062 \; 27.4636
\; 27.9053 \; 28.3849 \; 28.901 \; 29.4537 \; 30.0376 \; 30.65 \; 31.2866
\; 31.94 \; 32.6045 \; 33.2736 \; 33.94 \; 34.5972 \; 35.2431 \; 35.8721
\; 36.483 \; 37.0743 \; 37.6436 \; 38.1919 \; 38.7153 \; 39.219 \;
39.7101 \; 40.1897 \; 40.6765 \; 41.1842 \; 41.7246 \; 42.3075 \; 42.9535
\; 43.6538 \; 44.4136 \; 45.2302 \; 46.0896 \; 46.988 \; 47.9075 \;
48.8342 \; 49.7538 \; 50.6493 \; 51.5006 \; 52.299 \; 53.0326 \; 53.6888
\; 54.2708 \; 54.7769 \; 55.2024 \; 55.5439 \; 55.8025 \; 55.9534 \;
55.9809 \; 55.8699 \; 55.6045 \; 55.1517 \; 54.5407 \; 53.7674 \; 52.8523
\; 51.8404 \; 50.7653 \; 49.6574 \; 48.5566 \; 47.4902 \; 46.4577 \;
45.4837 \; 44.556 \; 43.6693 \; 42.8197 \; 41.9971 \; 41.1904 \; 40.3979
\; 39.6166 \; 38.8409 \; 38.0825 \; 37.3456 \; 36.6377 \; 35.968 \;
35.3497 \; 34.7744 \; 34.2462 \; 33.7581 \; 33.2959 \; 32.8472 \; 32.4066
\; 31.963 \; 31.5114 \; 31.0564 \; 30.5994 \; 30.1383 \; 29.6752 \;
29.2085 \; 28.7232 \; 28.2123 \; 27.6625 \; 27.0611 \; 26.396 \; 25.6539
\; 24.8265 \; 23.8937 \; 22.8325 \; 21.6199 \; 20.2481 \; 18.6793 \;
16.9324 \; 15.0499 \; 13.0273 \; 10.9694 \; 8.94582 \; 7.02394 \; 5.26819
\; 3.78218 \; 2.55602 \; 1.63589 \; 1.03277 \; 0.674182 \; 0.550609
\; 0.577302 \; 0.671555 \; 0.76272 \; 0.830766 \; 0.797398 \; 0.685882
\; 0.518194 \; 0.299944 \; 0.0723649 \; -0.121377 \; -0.274192 \; -0.379255
\; -0.379255 \; -0.379255 \; -0.379255 \; -0.379255 \; 0 \; \;;
#X coords 0 341 1 340 0 0 0;
#X restore 25 112 pd z;
#X msg 23 17 \; pd-z clear;
#X msg 24 62 \; start pd-z \;;
#X obj 174 178 until;
#X obj 176 153 t b b;
#X obj 177 208 f;
#X msg 228 169 0;
#X obj 263 189 + 1;
#X obj 177 264 t f f;
#X obj 177 299 pack;
#X obj 176 130 bng 15 250 50 0 empty empty empty 0 -6 0 8 -262144 -1
-1;
#X obj 263 212 sel 255;
#X msg 177 330 \; y-plot-point \$1 \$2 \;;
#X obj 230 254 / 2.55;
#X obj 230 277 tabread4 spectrum1;
#X obj 230 301 * 150;
#X msg 173 89 \; add-y-plot 256 75 76 1 \;;
#X msg 166 27 \; add-r-arrow 375 75 -300 -297 \; add-u-arrow 75 225
-150 -147;
#N canvas 0 0 450 300 (subpatch) 0;
#X array spectrum1 100 float 1;
#A 0 0.780816 0.766558 0.751753 0.736949 0.722671 0.709488 0.697652
0.686754 0.675875 0.664215 0.651734 0.639098 0.626754 0.61441 0.601754
0.589098 0.576754 0.564391 0.551579 0.538376 0.524919 0.511052 0.496755
0.482458 0.468572 0.45492 0.440857 0.425877 0.410115 0.39449 0.380213
0.36785 0.356971 0.346757 0.336542 0.325663 0.3133 0.299003 0.283202
0.266738 0.250117 0.233613 0.217676 0.202891 0.189922 0.179707 0.17334
0.171368 0.173262 0.177911 0.184532 0.192852 0.202676 0.213594 0.224941
0.236015 0.246386 0.255859 0.264414 0.272675 0.28205 0.293749 0.307851
0.323397 0.338827 0.352381 0.36287 0.369979 0.373202 0.370819 0.36119
0.345253 0.3266 0.30871 0.29287 0.278632 0.265156 0.252148 0.240215
0.230195 0.221973 0.214434 0.206738 0.198906 0.190821 0.181446 0.169428
0.153343 0.131013 0.100993 0.0663235 0.034573 0.0130245 0.00426173
0.00430448 0.00559656 0.00372157 -2.83907e-05 -0.00252837 -0.00315336
;
#X coords 0 1 99 0 200 100 1;
#X restore 136 441 graph;
#X obj 423 190 until;
#X obj 425 165 t b b;
#X obj 426 220 f;
#X msg 477 181 0;
#X obj 512 201 + 1;
#X obj 425 142 bng 15 250 50 0 empty empty empty 0 -6 0 8 -262144 -1
-1;
#X obj 512 224 sel 99;
#X obj 473 280 + 1;
#X obj 473 303 tabread spectrum1;
#X obj 449 331 tabread spectrum1;
#X obj 450 357 +;
#X obj 446 406 tabwrite spectrum1;
#X obj 425 251 t f f f f;
#X obj 452 379 * 0.5;
#X connect 3 0 5 0;
#X connect 4 0 3 0;
#X connect 4 1 6 0;
#X connect 5 0 7 0;
#X connect 5 0 8 0;
#X connect 6 0 5 1;
#X connect 7 0 5 1;
#X connect 7 0 11 0;
#X connect 8 0 9 0;
#X connect 8 1 13 0;
#X connect 9 0 12 0;
#X connect 10 0 4 0;
#X connect 11 0 3 1;
#X connect 13 0 14 0;
#X connect 14 0 15 0;
#X connect 15 0 9 1;
#X connect 19 0 21 0;
#X connect 20 0 19 0;
#X connect 20 1 22 0;
#X connect 21 0 23 0;
#X connect 21 0 31 0;
#X connect 22 0 21 1;
#X connect 23 0 21 1;
#X connect 23 0 25 0;
#X connect 24 0 20 0;
#X connect 25 0 19 1;
#X connect 26 0 27 0;
#X connect 27 0 29 1;
#X connect 28 0 29 0;
#X connect 29 0 32 0;
#X connect 31 1 28 0;
#X connect 31 2 26 0;
#X connect 31 3 30 1;
#X connect 32 0 30 0;
#X restore 170 83 pd xfer-to-fig;
