#N canvas 9 13 386 301 10;
#X obj 9 256 catch~ sum;
#X obj 231 72 s frequency;
#X obj 232 156 s duration;
#X floatatom 232 113 0 0 0 0 - - -;
#X obj 232 135 * 100;
#X obj 231 51 mtof;
#X floatatom 231 29 0 0 0 0 - - -;
#X text 266 118 of a second;
#X text 263 28 pitch;
#X obj 9 8 partial 1 1 0.56 0;
#X obj 232 199 bng 25 250 50 0 empty empty empty 0 -6 0 8 -262144 -1
-1;
#X obj 232 229 s trigger;
#X text 260 200 <-- click to play;
#X text 264 105 duration \, tenths;
#X obj 9 30 partial 0.67 0.9 0.56 1;
#X obj 9 51 partial 1 0.65 0.92 0;
#X obj 9 72 partial 1.8 0.55 0.92 1.7;
#X obj 9 93 partial 2.67 0.325 1.19 0;
#X obj 9 115 partial 1.67 0.35 1.7 0;
#X obj 9 136 partial 1.46 0.25 2 0;
#X obj 9 157 partial 1.33 0.2 2.74 0;
#X obj 9 178 partial 1.33 0.15 3 0;
#X obj 9 200 partial 1 0.1 3.76 0;
#X obj 9 221 partial 1.33 0.075 4.07 0;
#X text 8 270 |;
#X text 5 282 (OUT);
#X connect 3 0 4 0;
#X connect 4 0 2 0;
#X connect 5 0 1 0;
#X connect 6 0 5 0;
#X connect 10 0 11 0;
