#N struct v-seg float x float y float z float w;
#N struct h-seg float x float y float z float w;
#N struct r-arrow float x float y float z;
#N struct circle float x float y float color float h float h2;
#N struct u-arrow float x float y float z;
#N struct xy-curve float x float y float w array z xy-point;
#N struct xy-point float x float y;
#N struct seg float x float y float dx float dy float w;
#N struct l-curve-arrow float x float y float z float z2 float z3 float
h;
#N struct circle2 float x float y float h float h2 float mh float mh2
;
#N struct vaxis float x float y float h float h-3;
#N struct xy-plot float x float y float w array z xy-point;
#N struct d-curve-arrow float x float y float z float z2 float z3 float
h;
#N struct u-curve-arrow float x float y float z float z2 float z3 float
h;
#N struct r-curve-arrow float x float y float z float z2 float z3 float
h;
#N struct l-arrow float x float y float z;
#N struct d-arrow float x float y float z;
#N struct rect float x float y float w float h;
#N struct haxis float x float y float w float w-3;
#N struct frame float x float y float w float h;
#N struct y-plot float x float y float w array z y-point;
#N struct y-point float y;
#N struct thickcircle float x float y float color float h float h2
;
#N struct divide float x float y;
#N struct minus float x float y;
#N struct plus float x float y;
#N struct times float x float y;
#N canvas 656 120 328 247 10;
#N canvas 22 68 277 159 fig 1;
#X scalar v-seg 58 79 4 2 \;;
#X scalar v-seg 68 79 4 2 \;;
#X scalar v-seg 78 79 4 2 \;;
#X scalar v-seg 88 79 4 2 \;;
#X scalar v-seg 98 81 4.16667 2 \;;
#X scalar v-seg 108 81 8.33333 2 \;;
#X scalar v-seg 118 81 12.5 2 \;;
#X scalar v-seg 128 81 16.6667 2 \;;
#X scalar v-seg 138 81 20.8333 2 \;;
#X scalar v-seg 148 81 25 2 \;;
#X scalar v-seg 158 81 20.8333 2 \;;
#X scalar v-seg 168 81 16.6667 2 \;;
#X scalar v-seg 178 81 12.5 2 \;;
#X scalar v-seg 188 81 8.33333 2 \;;
#X scalar v-seg 198 81 4.16667 2 \;;
#X scalar v-seg 208 79 4 2 \;;
#X scalar v-seg 218 79 4 2 \;;
#X scalar h-seg 15 41 192 1 \;;
#X scalar v-seg 58 126 4 2 \;;
#X scalar v-seg 68 128 3.125 2 \;;
#X scalar v-seg 78 128 6.25 2 \;;
#X scalar v-seg 88 128 9.375 2 \;;
#X scalar v-seg 98 128 12.5 2 \;;
#X scalar v-seg 108 128 15.625 2 \;;
#X scalar v-seg 118 128 18.75 2 \;;
#X scalar v-seg 128 128 21.875 2 \;;
#X scalar v-seg 138 128 25 2 \;;
#X scalar v-seg 148 128 18.75 2 \;;
#X scalar v-seg 158 128 12.5 2 \;;
#X scalar v-seg 168 128 6.25 2 \;;
#X scalar v-seg 178 126 4 2 \;;
#X scalar v-seg 188 126 4 2 \;;
#X scalar v-seg 198 126 4 2 \;;
#X scalar v-seg 208 126 4 2 \;;
#X scalar v-seg 218 126 4 2 \;;
#X text 214 106 . . .;
#X scalar r-arrow 258 128 -201 \;;
#X scalar circle 57 41 0 3 -3 \;;
#X scalar u-arrow 43 41 -22 \;;
#X scalar u-arrow 109 41 -21 \;;
#X scalar circle 98 41 0 3 -3 \;;
#X scalar circle 137 41 0 3 -3 \;;
#X scalar circle 176 41 0 3 -3 \;;
#X text 104 140 9;
#X scalar r-arrow 259 82 -201 \;;
#X text 53 34 0;
#X text 133 32 8;
#X text 168 32 12;
#X text 93 33 4;
#X text 7 17 a;
#X text 4 66 b;
#X text 39 140 3;
#X text 157 140 15;
#X scalar u-arrow 166 41 -21 \;;
#X text 198 79 15;
#X text 83 79 3;
#X text 143 78 9;
#X coords 0 159 1 158 0 0 0;
#X restore 76 42 pd fig;
#N canvas 491 90 768 806 put-in-graph 0;
#X obj 86 128 until;
#X obj 144 142 f;
#X obj 190 143 + 1;
#X obj 86 72 bng 15 250 50 0 empty empty empty 0 -6 0 8 -262144 -1
-1;
#X obj 87 96 t b b;
#X obj 149 199 sel 1;
#X obj 73 609 pack;
#X msg 194 13 \; add-h-seg 5 50 220 1;
#X msg 73 634 \; add-v-seg \$1 50 \$2 2;
#X msg 166 111 0;
#X obj 63 584 + 10;
#X obj 174 560 + 10;
#X obj 127 288 / 8;
#X obj 107 428 t f f;
#X obj 160 454 expr $f1 > 2 || $f1 < -2;
#X obj 80 459 swap;
#X obj 80 484 pack 0 0 0;
#X obj 63 535 unpack;
#X msg 53 17 \; start pd-fig;
#X msg 598 10 \; pd-fig clear;
#X obj 80 506 route 1 0;
#X obj 174 511 f;
#X obj 148 171 >= 16;
#X obj 64 558 * 10;
#X obj 174 534 * 10;
#X msg 177 587 \; add-v-seg \$1 48 4 2;
#X obj 107 401 * 25;
#X obj 80 178 t f f;
#X obj 127 264 t f f;
#X obj 187 271 * -1;
#X obj 190 323 / 4;
#X obj 101 316 clip 0 1;
#X obj 190 346 clip 0 1;
#X obj 101 340 min;
#X obj 187 297 + 12;
#X obj 442 138 until;
#X obj 500 152 f;
#X obj 546 153 + 1;
#X obj 442 82 bng 15 250 50 0 empty empty empty 0 -6 0 8 -262144 -1
-1;
#X obj 443 106 t b b;
#X obj 505 209 sel 1;
#X obj 429 619 pack;
#X msg 429 644 \; add-v-seg \$1 50 \$2 2;
#X msg 522 121 0;
#X obj 419 594 + 10;
#X obj 530 570 + 10;
#X obj 463 438 t f f;
#X obj 516 464 expr $f1 > 2 || $f1 < -2;
#X obj 436 469 swap;
#X obj 436 494 pack 0 0 0;
#X obj 419 545 unpack;
#X obj 436 516 route 1 0;
#X obj 530 521 f;
#X obj 504 181 >= 16;
#X obj 420 568 * 10;
#X obj 530 544 * 10;
#X msg 533 597 \; add-v-seg \$1 48 4 2;
#X obj 463 411 * 25;
#X obj 436 188 t f f;
#X obj 483 249 t f f;
#X obj 543 281 * -1;
#X obj 461 356 clip 0 1;
#X obj 546 356 clip 0 1;
#X obj 461 380 min;
#X obj 472 278 - 3;
#X obj 463 331 / 6;
#X obj 543 307 + 15;
#X obj 546 333 / 6;
#X connect 0 0 1 0;
#X connect 1 0 2 0;
#X connect 1 0 22 0;
#X connect 1 0 27 0;
#X connect 2 0 1 1;
#X connect 3 0 4 0;
#X connect 4 0 0 0;
#X connect 4 1 9 0;
#X connect 5 0 0 1;
#X connect 6 0 8 0;
#X connect 9 0 1 1;
#X connect 10 0 6 0;
#X connect 11 0 25 0;
#X connect 12 0 31 0;
#X connect 13 0 16 2;
#X connect 13 1 14 0;
#X connect 14 0 15 1;
#X connect 15 0 16 0;
#X connect 15 1 16 1;
#X connect 16 0 20 0;
#X connect 17 0 23 0;
#X connect 17 1 6 1;
#X connect 20 0 17 0;
#X connect 20 1 21 0;
#X connect 21 0 24 0;
#X connect 22 0 5 0;
#X connect 23 0 10 0;
#X connect 24 0 11 0;
#X connect 26 0 13 0;
#X connect 27 0 15 0;
#X connect 27 1 28 0;
#X connect 28 0 12 0;
#X connect 28 1 29 0;
#X connect 29 0 34 0;
#X connect 30 0 32 0;
#X connect 31 0 33 0;
#X connect 32 0 33 1;
#X connect 33 0 26 0;
#X connect 34 0 30 0;
#X connect 35 0 36 0;
#X connect 36 0 37 0;
#X connect 36 0 53 0;
#X connect 36 0 58 0;
#X connect 37 0 36 1;
#X connect 38 0 39 0;
#X connect 39 0 35 0;
#X connect 39 1 43 0;
#X connect 40 0 35 1;
#X connect 41 0 42 0;
#X connect 43 0 36 1;
#X connect 44 0 41 0;
#X connect 45 0 56 0;
#X connect 46 0 49 2;
#X connect 46 1 47 0;
#X connect 47 0 48 1;
#X connect 48 0 49 0;
#X connect 48 1 49 1;
#X connect 49 0 51 0;
#X connect 50 0 54 0;
#X connect 50 1 41 1;
#X connect 51 0 50 0;
#X connect 51 1 52 0;
#X connect 52 0 55 0;
#X connect 53 0 40 0;
#X connect 54 0 44 0;
#X connect 55 0 45 0;
#X connect 57 0 46 0;
#X connect 58 0 48 0;
#X connect 58 1 59 0;
#X connect 59 0 64 0;
#X connect 59 1 60 0;
#X connect 60 0 66 0;
#X connect 61 0 63 0;
#X connect 62 0 63 1;
#X connect 63 0 57 0;
#X connect 64 0 65 0;
#X connect 65 0 61 0;
#X connect 66 0 67 0;
#X connect 67 0 62 0;
#X restore 60 127 pd put-in-graph;
#X obj 74 88 templates;
