#N struct xy-plot float x float y float w array z xy-point;
#N struct xy-point float x float y;
#N struct r-arrow float x float y float z;
#N struct u-arrow float x float y float z;
#N struct seg float x float y float dx float dy float w;
#N struct v-seg float x float y float z float w;
#N struct h-seg float x float y float z float w;
#N struct xy-curve float x float y float w array z xy-point;
#N struct l-curve-arrow float x float y float z float z2 float z3 float
h;
#N struct circle2 float x float y float h float h2 float mh float mh2
;
#N struct vaxis float x float y float h float h-3;
#N struct d-curve-arrow float x float y float z float z2 float z3 float
h;
#N struct circle float x float y float color float h float h2;
#N struct u-curve-arrow float x float y float z float z2 float z3 float
h;
#N struct r-curve-arrow float x float y float z float z2 float z3 float
h;
#N struct l-arrow float x float y float z;
#N struct d-arrow float x float y float z;
#N struct rect float x float y float w float h;
#N struct haxis float x float y float w float w-3;
#N struct frame float x float y float w float h;
#N struct y-plot float x float y float w array z y-point;
#N struct y-point float y;
#N struct thickcircle float x float y float color float h float h2
;
#N struct times float x float y;
#N struct plus float x float y;
#N struct minus float x float y;
#N struct divide float x float y;
#N canvas 144 404 329 179 10;
#N canvas 119 119 374 196 fig 1;
#X text 50 26 real;
#X text 58 125 0;
#X text 159 124 5;
#X text 356 127 k;
#X scalar xy-plot 56 75 1 \; -0.0141136 -0.157109 \; 0.96645 -0.158481
\; 1.95392 -0.146852 \; 2.95011 -0.122707 \; 3.95609 -0.0878076 \;
4.972 -0.0450877 \; 5.99702 0.00152782 \; 7.02937 0.0474905 \; 8.06644
0.0880371 \; 9.10496 0.118616 \; 10.1413 0.135387 \; 11.172 0.135649
\; 12.1937 0.118163 \; 13.2037 0.0833677 \; 14.2007 0.033473 \; 15.1841
-0.027656 \; 16.1551 -0.0947713 \; 17.1159 -0.161667 \; 18.07 -0.22172
\; 19.0219 -0.268534 \; 19.9766 -0.296587 \; 20.9392 -0.301827 \; 21.9144
-0.282212 \; 22.9061 -0.238048 \; 23.9167 -0.172129 \; 24.9471 -0.089678
\; 25.9961 0.0020144 \; 27.0606 0.0941446 \; 28.1359 0.17711 \; 29.2157
0.241448 \; 30.2927 0.278759 \; 31.3595 0.282635 \; 32.4088 0.249452
\; 33.4348 0.178993 \; 34.4334 0.0747398 \; 35.4029 -0.0561342 \; 36.3444
-0.203138 \; 37.2621 -0.353208 \; 38.163 -0.491768 \; 39.0563 -0.604019
\; 39.9533 -0.676399 \; 40.8659 -0.698033 \; 41.8056 -0.662108 \; 42.7827
-0.566931 \; 43.8046 -0.41664 \; 44.8754 -0.221452 \; 45.9946 0.0027523
\; 47.1569 0.235287 \; 48.3522 0.452229 \; 49.5661 0.628354 \; 50.7804
0.739436 \; 51.9753 0.764788 \; 53.1302 0.689661 \; 54.2265 0.507446
\; 55.2488 0.221339 \; 56.1878 -0.154707 \; 57.0413 -0.595901 \; 57.8157
-1.06756 \; 58.5266 -1.52707 \; 59.1989 -1.92688 \; 59.8655 -2.21833
\; 60.5655 -2.35619 \; 61.3417 -2.3035 \; 62.2374 -2.03644 \; 63.2919
-1.54883 \; 64.537 -0.855767 \; 65.9924 0.00387731 \; 67.6624 0.966535
\; 69.5321 1.94483 \; 71.5659 2.83037 \; 73.7064 3.49857 \; 75.8749
3.81534 \; 77.9741 3.64536 \; 79.8915 2.86156 \; 81.5051 1.35527 \;
82.6905 -0.953595 \; 83.3279 -4.10696 \; 83.3115 -8.10039 \; 82.5573
-12.8768 \; 81.0117 -18.3232 \; 78.6585 -24.2696 \; 75.5244 -30.4927
\; 71.6828 -36.7216 \; 67.2548 -42.6484 \; 62.4078 -47.9405 \; 57.3514
-52.257 \; 52.33 -55.2652 \; 47.6134 -56.6598 \; 43.4852 -56.1807 \;
40.229 -53.6304 \; 38.1147 -48.889 \; 37.3832 -41.926 \; 38.2332 -32.8085
\; 40.8081 -21.7037 \; 45.1861 -8.87803 \; 51.3723 5.31107 \; 59.2949
20.4259 \; 68.8049 35.9665 \; 79.6789 51.39 \; 91.6279 66.1352 \; 104.306
79.646 \; 117.327 91.3989 \; 130.279 100.926 \; 142.744 107.839 \;
154.312 111.847 \; 164.608 112.77 \; 173.3 110.551 \; 180.121 105.256
\; 184.876 97.0749 \; 187.453 86.3091 \; 187.829 73.3608 \; 186.066
58.712 \; 182.311 42.9037 \; 176.784 26.5095 \; 169.772 10.1111 \;
161.609 -5.72941 \; 152.665 -20.492 \; 143.324 -33.7222 \; 133.967
-45.0475 \; 124.959 -54.1911 \; 116.629 -60.9802 \; 109.258 -65.3485
\; 103.069 -67.3328 \; 98.2227 -67.0665 \; 94.8092 -64.7664 \; 92.8522
-60.7177 \; 92.3115 -55.2558 \; 93.0892 -48.7467 \; 95.0394 -41.5675
\; 97.979 -34.0865 \; 101.7 -26.6475 \; 105.981 -19.5538 \; 110.601
-13.0577 \; 115.35 -7.35274 \; 120.038 -2.56981 \; 124.504 1.22299
\; 128.618 4.01665 \; 132.289 5.85509 \; 135.462 6.82631 \; 138.118
7.05202 \; 140.271 6.6764 \; 141.959 5.85467 \; 143.245 4.74245 \;
144.203 3.48612 \; 144.917 2.2151 \; 145.471 1.03601 \; 145.943 0.0290526
\; 146.406 -0.753328 \; 146.916 -1.28582 \; 147.516 -1.56782 \; 148.233
-1.61949 \; 149.08 -1.47699 \; 150.055 -1.18707 \; 151.144 -0.801684
\; 152.326 -0.372836 \; 153.575 0.0517317 \; 154.86 0.432012 \; 156.154
0.738084 \; 157.431 0.951243 \; 158.671 1.06405 \; 159.859 1.0794 \;
160.988 1.00877 \; 162.057 0.869961 \; 163.069 0.684491 \; 164.034
0.475035 \; 164.963 0.263073 \; 165.869 0.0669454 \; 166.766 -0.0995009
\; 167.664 -0.227656 \; 168.573 -0.314277 \; 169.5 -0.360941 \; 170.446
-0.373123 \; 171.412 -0.358887 \; 172.396 -0.327454 \; 173.392 -0.28779
\; 174.398 -0.247381 \; 175.406 -0.211332 \; 176.414 -0.181888 \; 177.419
-0.158439 \; 178.42 -0.137936 \; 179.419 -0.115743 \; 180.42 -0.0867436
\; 181.425 -0.0466071 \; 182.44 0.00697637 \; 183.468 0.073235 \; 184.511
0.147597 \; 185.568 0.22143 \; 186.636 0.282326 \; 187.705 0.31496
\; 188.766 0.302485 \; 189.804 0.2284 \; 190.803 0.0787091 \; 191.745
-0.155739 \; 192.614 -0.477052 \; 193.397 -0.878333 \; 194.086 -1.34226
\; 194.68 -1.84042 \; 195.184 -2.33348 \; 195.616 -2.77223 \; 196.002
-3.09981 \; 196.377 -3.25462 \; 196.786 -3.1742 \; 197.282 -2.79958
\; 197.92 -2.08001 \; 198.758 -0.977746 \; 199.852 0.527716 \; 201.251
2.4357 \; 202.993 4.72169 \; 205.106 7.33575 \; 207.596 10.2026 \;
210.455 13.223 \; 213.649 16.2766 \; 217.128 19.227 \; 220.818 21.9273
\; 224.628 24.2271 \; 228.452 25.9803 \; 232.173 27.0531 \; 235.67
27.3314 \; 238.821 26.7286 \; 241.51 25.1909 \; 243.634 22.7027 \;
245.11 19.289 \; 245.875 15.0164 \; 245.896 9.99197 \; 245.168 4.35945
\; 243.718 -1.70553 \; 241.605 -8.0029 \; 238.914 -14.3166 \; 235.761
-20.4239 \; 232.278 -26.106 \; 228.617 -31.157 \; 224.937 -35.3939
\; 221.398 -38.6652 \; 218.157 -40.8571 \; 215.357 -41.8988 \; 213.125
-41.7656 \; 211.561 -40.4796 \; 210.74 -38.1077 \; 210.704 -34.7584
\; 211.465 -30.5761 \; 213.001 -25.7336 \; 215.262 -20.4239 \; 218.171
-14.8511 \; 221.628 -9.22103 \; 225.515 -3.73158 \; 229.706 1.43495
\; 234.067 6.11979 \; 238.467 10.1933 \; 242.781 13.5595 \; 246.898
16.158 \; 250.722 17.9646 \; 254.178 18.9903 \; 257.211 19.2779 \;
259.792 18.8978 \; 261.911 17.9423 \; 263.582 16.5201 \; 264.835 14.7488
\; 265.717 12.7488 \; 266.287 10.6374 \; 266.609 8.523 \; 266.753 6.50038
\; 266.789 4.64778 \; 266.781 3.02437 \; 266.787 1.66936 \; 266.857
0.602232 \; 267.027 -0.175874 \; 267.326 -0.679968 \; 267.768 -0.938275
\; 268.357 -0.988859 \; 269.087 -0.876013 \; 269.946 -0.646731 \; 270.914
-0.347377 \; 271.966 -0.0207926 \; 273.078 0.295944 \; 274.225 0.573234
\; 275.382 0.78987 \; 276.532 0.933308 \; 277.656 0.999289 \; 278.745
0.990944 \; 279.792 0.917473 \; 280.796 0.792535 \; 281.76 0.632548
\; 282.689 0.454946 \; 283.593 0.276605 \; 284.482 0.112483 \; 285.364
-0.0253969 \; 286.251 -0.128642 \; 287.15 -0.192781 \; 288.068 -0.217225
\; 289.009 -0.204889 \; 289.974 -0.161572 \; 290.964 -0.095161 \; 291.976
-0.0147391 \; 293.005 0.0703244 \; 294.046 0.151211 \; 295.094 0.220378
\; 296.142 0.272089 \; 297.186 0.302748 \; 298.221 0.311015 \; 299.244
0.297724 \; 300.254 0.265619 \; \;;
#X scalar r-arrow 356 74 -300 \;;
#X scalar u-arrow 56 154 -80 \;;
#X scalar seg 136 74 -1.34148 -24.2696 3 \;;
#X scalar seg 156 74 4.30613 79.646 3 \;;
#X scalar seg 176 74 -3.37084 -60.9802 3 \;;
#X scalar seg 196 74 0.270753 6.6764 3 \;;
#X scalar seg 256 74 -3.62308 -3.25462 3 \;;
#X scalar seg 276 74 23.6343 22.7027 3 \;;
#X scalar seg 296 74 -26.9991 -25.7336 3 \;;
#X scalar seg 316 74 6.75342 6.50038 3 \;;
#X scalar v-seg 56 68 10 1 \;;
#X scalar v-seg 76 68 10 1 \;;
#X scalar v-seg 96 68 10 1 \;;
#X scalar v-seg 116 68 10 1 \;;
#X scalar v-seg 136 68 10 1 \;;
#X scalar v-seg 156 68 10 1 \;;
#X scalar v-seg 176 68 10 1 \;;
#X scalar v-seg 196 68 10 1 \;;
#X scalar v-seg 216 68 10 1 \;;
#X scalar v-seg 236 68 10 1 \;;
#X scalar v-seg 256 68 10 1 \;;
#X scalar v-seg 276 68 10 1 \;;
#X scalar v-seg 296 68 10 1 \;;
#X scalar v-seg 316 68 10 1 \;;
#X scalar v-seg 336 68 10 1 \;;
#X text 249 129 10;
#X scalar seg 8 27 47 47 1 \;;
#X scalar h-seg 9 27 7 1 \;;
#X scalar v-seg 8 27 7 1 \;;
#X text 25 152 imagi-;
#X text 27 163 nary;
#X coords 0 196 1 195 0 0 0;
#X restore 51 61 pd fig;
#X obj 170 42 templates;
#N canvas 16 427 468 394 z 1;
#X scalar xy-plot 75 126 1 \; -0.0141136 -0.157109 \; 0.96645 -0.158481
\; 1.95392 -0.146852 \; 2.95011 -0.122707 \; 3.95609 -0.0878076 \;
4.972 -0.0450877 \; 5.99702 0.00152782 \; 7.02937 0.0474905 \; 8.06644
0.0880371 \; 9.10496 0.118616 \; 10.1413 0.135387 \; 11.172 0.135649
\; 12.1937 0.118163 \; 13.2037 0.0833677 \; 14.2007 0.033473 \; 15.1841
-0.027656 \; 16.1551 -0.0947713 \; 17.1159 -0.161667 \; 18.07 -0.22172
\; 19.0219 -0.268534 \; 19.9766 -0.296587 \; 20.9392 -0.301827 \; 21.9144
-0.282212 \; 22.9061 -0.238048 \; 23.9167 -0.172129 \; 24.9471 -0.089678
\; 25.9961 0.0020144 \; 27.0606 0.0941446 \; 28.1359 0.17711 \; 29.2157
0.241448 \; 30.2927 0.278759 \; 31.3595 0.282635 \; 32.4088 0.249452
\; 33.4348 0.178993 \; 34.4334 0.0747398 \; 35.4029 -0.0561342 \; 36.3444
-0.203138 \; 37.2621 -0.353208 \; 38.163 -0.491768 \; 39.0563 -0.604019
\; 39.9533 -0.676399 \; 40.8659 -0.698033 \; 41.8056 -0.662108 \; 42.7827
-0.566931 \; 43.8046 -0.41664 \; 44.8754 -0.221452 \; 45.9946 0.0027523
\; 47.1569 0.235287 \; 48.3522 0.452229 \; 49.5661 0.628354 \; 50.7804
0.739436 \; 51.9753 0.764788 \; 53.1302 0.689661 \; 54.2265 0.507446
\; 55.2488 0.221339 \; 56.1878 -0.154707 \; 57.0413 -0.595901 \; 57.8157
-1.06756 \; 58.5266 -1.52707 \; 59.1989 -1.92688 \; 59.8655 -2.21833
\; 60.5655 -2.35619 \; 61.3417 -2.3035 \; 62.2374 -2.03644 \; 63.2919
-1.54883 \; 64.537 -0.855767 \; 65.9924 0.00387731 \; 67.6624 0.966535
\; 69.5321 1.94483 \; 71.5659 2.83037 \; 73.7064 3.49857 \; 75.8749
3.81534 \; 77.9741 3.64536 \; 79.8915 2.86156 \; 81.5051 1.35527 \;
82.6905 -0.953595 \; 83.3279 -4.10696 \; 83.3115 -8.10039 \; 82.5573
-12.8768 \; 81.0117 -18.3232 \; 78.6585 -24.2696 \; 75.5244 -30.4927
\; 71.6828 -36.7216 \; 67.2548 -42.6484 \; 62.4078 -47.9405 \; 57.3514
-52.257 \; 52.33 -55.2652 \; 47.6134 -56.6598 \; 43.4852 -56.1807 \;
40.229 -53.6304 \; 38.1147 -48.889 \; 37.3832 -41.926 \; 38.2332 -32.8085
\; 40.8081 -21.7037 \; 45.1861 -8.87803 \; 51.3723 5.31107 \; 59.2949
20.4259 \; 68.8049 35.9665 \; 79.6789 51.39 \; 91.6279 66.1352 \; 104.306
79.646 \; 117.327 91.3989 \; 130.279 100.926 \; 142.744 107.839 \;
154.312 111.847 \; 164.608 112.77 \; 173.3 110.551 \; 180.121 105.256
\; 184.876 97.0749 \; 187.453 86.3091 \; 187.829 73.3608 \; 186.066
58.712 \; 182.311 42.9037 \; 176.784 26.5095 \; 169.772 10.1111 \;
161.609 -5.72941 \; 152.665 -20.492 \; 143.324 -33.7222 \; 133.967
-45.0475 \; 124.959 -54.1911 \; 116.629 -60.9802 \; 109.258 -65.3485
\; 103.069 -67.3328 \; 98.2227 -67.0665 \; 94.8092 -64.7664 \; 92.8522
-60.7177 \; 92.3115 -55.2558 \; 93.0892 -48.7467 \; 95.0394 -41.5675
\; 97.979 -34.0865 \; 101.7 -26.6475 \; 105.981 -19.5538 \; 110.601
-13.0577 \; 115.35 -7.35274 \; 120.038 -2.56981 \; 124.504 1.22299
\; 128.618 4.01665 \; 132.289 5.85509 \; 135.462 6.82631 \; 138.118
7.05202 \; 140.271 6.6764 \; 141.959 5.85467 \; 143.245 4.74245 \;
144.203 3.48612 \; 144.917 2.2151 \; 145.471 1.03601 \; 145.943 0.0290526
\; 146.406 -0.753328 \; 146.916 -1.28582 \; 147.516 -1.56782 \; 148.233
-1.61949 \; 149.08 -1.47699 \; 150.055 -1.18707 \; 151.144 -0.801684
\; 152.326 -0.372836 \; 153.575 0.0517317 \; 154.86 0.432012 \; 156.154
0.738084 \; 157.431 0.951243 \; 158.671 1.06405 \; 159.859 1.0794 \;
160.988 1.00877 \; 162.057 0.869961 \; 163.069 0.684491 \; 164.034
0.475035 \; 164.963 0.263073 \; 165.869 0.0669454 \; 166.766 -0.0995009
\; 167.664 -0.227656 \; 168.573 -0.314277 \; 169.5 -0.360941 \; 170.446
-0.373123 \; 171.412 -0.358887 \; 172.396 -0.327454 \; 173.392 -0.28779
\; 174.398 -0.247381 \; 175.406 -0.211332 \; 176.414 -0.181888 \; 177.419
-0.158439 \; 178.42 -0.137936 \; 179.419 -0.115743 \; 180.42 -0.0867436
\; 181.425 -0.0466071 \; 182.44 0.00697637 \; 183.468 0.073235 \; 184.511
0.147597 \; 185.568 0.22143 \; 186.636 0.282326 \; 187.705 0.31496
\; 188.766 0.302485 \; 189.804 0.2284 \; 190.803 0.0787091 \; 191.745
-0.155739 \; 192.614 -0.477052 \; 193.397 -0.878333 \; 194.086 -1.34226
\; 194.68 -1.84042 \; 195.184 -2.33348 \; 195.616 -2.77223 \; 196.002
-3.09981 \; 196.377 -3.25462 \; 196.786 -3.1742 \; 197.282 -2.79958
\; 197.92 -2.08001 \; 198.758 -0.977746 \; 199.852 0.527716 \; 201.251
2.4357 \; 202.993 4.72169 \; 205.106 7.33575 \; 207.596 10.2026 \;
210.455 13.223 \; 213.649 16.2766 \; 217.128 19.227 \; 220.818 21.9273
\; 224.628 24.2271 \; 228.452 25.9803 \; 232.173 27.0531 \; 235.67
27.3314 \; 238.821 26.7286 \; 241.51 25.1909 \; 243.634 22.7027 \;
245.11 19.289 \; 245.875 15.0164 \; 245.896 9.99197 \; 245.168 4.35945
\; 243.718 -1.70553 \; 241.605 -8.0029 \; 238.914 -14.3166 \; 235.761
-20.4239 \; 232.278 -26.106 \; 228.617 -31.157 \; 224.937 -35.3939
\; 221.398 -38.6652 \; 218.157 -40.8571 \; 215.357 -41.8988 \; 213.125
-41.7656 \; 211.561 -40.4796 \; 210.74 -38.1077 \; 210.704 -34.7584
\; 211.465 -30.5761 \; 213.001 -25.7336 \; 215.262 -20.4239 \; 218.171
-14.8511 \; 221.628 -9.22103 \; 225.515 -3.73158 \; 229.706 1.43495
\; 234.067 6.11979 \; 238.467 10.1933 \; 242.781 13.5595 \; 246.898
16.158 \; 250.722 17.9646 \; 254.178 18.9903 \; 257.211 19.2779 \;
259.792 18.8978 \; 261.911 17.9423 \; 263.582 16.5201 \; 264.835 14.7488
\; 265.717 12.7488 \; 266.287 10.6374 \; 266.609 8.523 \; 266.753 6.50038
\; 266.789 4.64778 \; 266.781 3.02437 \; 266.787 1.66936 \; 266.857
0.602232 \; 267.027 -0.175874 \; 267.326 -0.679968 \; 267.768 -0.938275
\; 268.357 -0.988859 \; 269.087 -0.876013 \; 269.946 -0.646731 \; 270.914
-0.347377 \; 271.966 -0.0207926 \; 273.078 0.295944 \; 274.225 0.573234
\; 275.382 0.78987 \; 276.532 0.933308 \; 277.656 0.999289 \; 278.745
0.990944 \; 279.792 0.917473 \; 280.796 0.792535 \; 281.76 0.632548
\; 282.689 0.454946 \; 283.593 0.276605 \; 284.482 0.112483 \; 285.364
-0.0253969 \; 286.251 -0.128642 \; 287.15 -0.192781 \; 288.068 -0.217225
\; 289.009 -0.204889 \; 289.974 -0.161572 \; 290.964 -0.095161 \; 291.976
-0.0147391 \; 293.005 0.0703244 \; 294.046 0.151211 \; 295.094 0.220378
\; 296.142 0.272089 \; 297.186 0.302748 \; 298.221 0.311015 \; 299.244
0.297724 \; 300.254 0.265619 \; \;;
#X scalar r-arrow 375 125 -300 \;;
#X scalar u-arrow 75 205 -80 \;;
#X scalar seg 155 125 -1.34148 -24.2696 3 \;;
#X scalar seg 175 125 4.30613 79.646 3 \;;
#X scalar seg 195 125 -3.37084 -60.9802 3 \;;
#X scalar seg 215 125 0.270753 6.6764 3 \;;
#X scalar seg 275 125 -3.62308 -3.25462 3 \;;
#X scalar seg 295 125 23.6343 22.7027 3 \;;
#X scalar seg 315 125 -26.9991 -25.7336 3 \;;
#X scalar seg 335 125 6.75342 6.50038 3 \;;
#X scalar v-seg 75 119 10 1 \;;
#X scalar v-seg 95 119 10 1 \;;
#X scalar v-seg 115 119 10 1 \;;
#X scalar v-seg 135 119 10 1 \;;
#X scalar v-seg 155 119 10 1 \;;
#X scalar v-seg 175 119 10 1 \;;
#X scalar v-seg 195 119 10 1 \;;
#X scalar v-seg 215 119 10 1 \;;
#X scalar v-seg 235 119 10 1 \;;
#X scalar v-seg 255 119 10 1 \;;
#X scalar v-seg 275 119 10 1 \;;
#X scalar v-seg 295 119 10 1 \;;
#X scalar v-seg 315 119 10 1 \;;
#X scalar v-seg 335 119 10 1 \;;
#X scalar v-seg 355 119 10 1 \;;
#X coords 0 394 1 393 0 0 0;
#X restore 54 89 pd z;
#N canvas 391 8 859 681 make-fig 0;
#X msg 20 32 \; start pd-z \;;
#X msg 627 19 \; add-r-arrow 375 75 -300 \; add-u-arrow 75 155 -80
;
#X msg 161 29 \; pd-z clear \; start pd-z;
#X obj 110 127 scanner 300 15;
#X msg 109 346 \; xy-plot-point \$1 \$2 \$3 \;;
#X obj 109 315 pack 0 0 0;
#X obj 108 253 t f f;
#X obj 139 275 +;
#X obj 171 277 +;
#X msg 115 87 \; add-xy-plot 301 75 126 1 \;;
#X msg 376 21 \; add-r-arrow 375 125 -300 \; add-u-arrow 75 205 -80
;
#X obj 673 604 + 75;
#X msg 673 628 \; add-v-seg \$1 119 10 1;
#X obj 380 231 scanner 7 7;
#X obj 394 292 map10 4 5 6 7 10 11 12 13;
#X obj 374 483 pack 0 0 0;
#X obj 377 401 t f f;
#X obj 464 425 +;
#N canvas 570 222 635 683 function 0;
#X obj 93 46 inlet;
#X obj 79 579 outlet;
#X obj 146 581 outlet;
#X obj 31 239 t f f;
#X obj 31 266 cos;
#X obj 61 266 sin;
#X obj 30 298 *;
#X obj 78 302 *;
#X obj 122 298 dirichlet 100;
#X obj 220 297 dirichlet 100;
#X obj 219 244 dirichlet 100;
#X obj 27 161 t f f f;
#X obj 56 402 +;
#X obj 88 404 +;
#X obj 342 263 t f f;
#X obj 342 290 cos;
#X obj 372 290 sin;
#X obj 341 322 *;
#X obj 389 326 *;
#X obj 433 322 dirichlet 100;
#X obj 531 321 dirichlet 100;
#X obj 530 268 dirichlet 100;
#X obj 338 185 t f f f;
#X obj 81 94 t f f;
#X obj 31 188 - 5.3;
#X obj 122 277 - 6.3;
#X obj 220 276 - 5.3;
#X obj 219 223 - 4.3;
#X obj 31 210 expr 1+3.14159*$f1;
#X obj 122 322 expr 0.8*($f2+0.5*($f1+$f3));
#X obj 433 346 expr 0.3*($f2+0.5*($f1+$f3));
#X obj 342 212 - 11.6;
#X obj 433 301 - 12.6;
#X obj 531 300 - 11.6;
#X obj 530 247 - 10.6;
#X obj 342 234 expr 3.5+3.14159*$f1;
#X connect 0 0 23 0;
#X connect 3 0 4 0;
#X connect 3 1 5 0;
#X connect 4 0 6 0;
#X connect 5 0 7 0;
#X connect 6 0 12 0;
#X connect 7 0 13 0;
#X connect 8 0 29 0;
#X connect 9 0 29 1;
#X connect 10 0 29 2;
#X connect 11 0 24 0;
#X connect 11 1 25 0;
#X connect 11 2 26 0;
#X connect 11 2 27 0;
#X connect 12 0 1 0;
#X connect 13 0 2 0;
#X connect 14 0 15 0;
#X connect 14 1 16 0;
#X connect 15 0 17 0;
#X connect 16 0 18 0;
#X connect 17 0 12 1;
#X connect 18 0 13 1;
#X connect 19 0 30 0;
#X connect 20 0 30 1;
#X connect 21 0 30 2;
#X connect 22 0 31 0;
#X connect 22 1 32 0;
#X connect 22 2 33 0;
#X connect 22 2 34 0;
#X connect 23 0 11 0;
#X connect 23 1 22 0;
#X connect 24 0 28 0;
#X connect 25 0 8 0;
#X connect 26 0 9 0;
#X connect 27 0 10 0;
#X connect 28 0 3 0;
#X connect 29 0 6 1;
#X connect 29 0 7 1;
#X connect 30 0 17 1;
#X connect 30 0 18 1;
#X connect 31 0 35 0;
#X connect 32 0 19 0;
#X connect 33 0 20 0;
#X connect 34 0 21 0;
#X connect 35 0 14 0;
#X restore 425 342 pd function;
#X obj 369 316 t f f;
#X obj 340 376 + 75;
#X obj 340 353 * 20;
#N canvas 570 222 635 683 function 0;
#X obj 93 46 inlet;
#X obj 79 579 outlet;
#X obj 146 581 outlet;
#X obj 31 239 t f f;
#X obj 31 266 cos;
#X obj 61 266 sin;
#X obj 30 298 *;
#X obj 78 302 *;
#X obj 122 298 dirichlet 100;
#X obj 220 297 dirichlet 100;
#X obj 219 244 dirichlet 100;
#X obj 27 161 t f f f;
#X obj 56 402 +;
#X obj 88 404 +;
#X obj 342 263 t f f;
#X obj 342 290 cos;
#X obj 372 290 sin;
#X obj 341 322 *;
#X obj 389 326 *;
#X obj 433 322 dirichlet 100;
#X obj 531 321 dirichlet 100;
#X obj 530 268 dirichlet 100;
#X obj 338 185 t f f f;
#X obj 81 94 t f f;
#X obj 31 188 - 5.3;
#X obj 122 277 - 6.3;
#X obj 220 276 - 5.3;
#X obj 219 223 - 4.3;
#X obj 31 210 expr 1+3.14159*$f1;
#X obj 122 322 expr 0.8*($f2+0.5*($f1+$f3));
#X obj 433 346 expr 0.3*($f2+0.5*($f1+$f3));
#X obj 342 212 - 11.6;
#X obj 433 301 - 12.6;
#X obj 531 300 - 11.6;
#X obj 530 247 - 10.6;
#X obj 342 234 expr 3.5+3.14159*$f1;
#X connect 0 0 23 0;
#X connect 3 0 4 0;
#X connect 3 1 5 0;
#X connect 4 0 6 0;
#X connect 5 0 7 0;
#X connect 6 0 12 0;
#X connect 7 0 13 0;
#X connect 8 0 29 0;
#X connect 9 0 29 1;
#X connect 10 0 29 2;
#X connect 11 0 24 0;
#X connect 11 1 25 0;
#X connect 11 2 26 0;
#X connect 11 2 27 0;
#X connect 12 0 1 0;
#X connect 13 0 2 0;
#X connect 14 0 15 0;
#X connect 14 1 16 0;
#X connect 15 0 17 0;
#X connect 16 0 18 0;
#X connect 17 0 12 1;
#X connect 18 0 13 1;
#X connect 19 0 30 0;
#X connect 20 0 30 1;
#X connect 21 0 30 2;
#X connect 22 0 31 0;
#X connect 22 1 32 0;
#X connect 22 2 33 0;
#X connect 22 2 34 0;
#X connect 23 0 11 0;
#X connect 23 1 22 0;
#X connect 24 0 28 0;
#X connect 25 0 8 0;
#X connect 26 0 9 0;
#X connect 27 0 10 0;
#X connect 28 0 3 0;
#X connect 29 0 6 1;
#X connect 29 0 7 1;
#X connect 30 0 17 1;
#X connect 30 0 18 1;
#X connect 31 0 35 0;
#X connect 32 0 19 0;
#X connect 33 0 20 0;
#X connect 34 0 21 0;
#X connect 35 0 14 0;
#X restore 130 182 pd function;
#X msg 280 526 \; add-seg \$1 125 \$2 \$3 3 \;;
#X obj 628 562 scanner 14 280;
#X connect 3 0 6 0;
#X connect 3 1 22 0;
#X connect 5 0 4 0;
#X connect 6 0 5 0;
#X connect 6 1 7 0;
#X connect 7 0 5 1;
#X connect 8 0 5 2;
#X connect 11 0 12 0;
#X connect 13 0 14 0;
#X connect 14 0 19 0;
#X connect 15 0 23 0;
#X connect 16 0 15 0;
#X connect 17 0 15 2;
#X connect 18 0 17 0;
#X connect 18 1 17 1;
#X connect 18 1 15 1;
#X connect 19 0 21 0;
#X connect 19 1 18 0;
#X connect 20 0 16 0;
#X connect 21 0 20 0;
#X connect 22 0 8 0;
#X connect 22 1 7 1;
#X connect 22 1 8 1;
#X connect 24 1 11 0;
#X restore 170 83 pd make-fig;
