#N canvas 207 159 301 302 10;
#X obj 23 178 cos~;
#X obj 22 64 -~ 0.5;
#X obj 23 140 *~;
#X obj 23 159 clip~ -0.5 0.5;
#X text 36 87 bandwidth;
#X obj 23 197 +~ 1;
#X obj 169 227 cos~;
#X obj 23 245 *~;
#X obj 170 80 *~;
#X obj 22 45 phasor~ 100;
#X text 177 6 center;
#X text 177 54 fundamental);
#X obj 23 216 *~ 0.5;
#X text 61 181 raised;
#X text 68 193 cosine;
#X text 21 31 |;
#X text 11 21 (frequency);
#X text 73 206 pulse;
#X text 180 245 carrier;
#X text 177 22 frequency;
#X text 177 38 (as multiple of;
#X text 33 116 fundamental);
#X text 33 101 (as multiple of;
#X text 37 128 |;
#X text 185 67 |;
#X text 182 114 phase signal;
#X text 182 99 magnified;
#X text 21 259 |;
#X text 9 273 (OUT);
#X connect 0 0 5 0;
#X connect 1 0 2 0;
#X connect 1 0 8 0;
#X connect 2 0 3 0;
#X connect 3 0 0 0;
#X connect 5 0 12 0;
#X connect 6 0 7 1;
#X connect 8 0 6 0;
#X connect 9 0 1 0;
#X connect 12 0 7 0;
