#N canvas 32 49 419 344 10;
#X obj 245 225 adc~ 1;
#X obj 245 249 hip~ 5;
#X obj 27 289 *~;
#X obj 58 268 r cutoff;
#X obj 27 200 r phase;
#X msg 19 17 bang;
#X obj 19 92 delay 5;
#X text 72 17 <-- play the sample;
#X msg 30 43 \; cutoff 0 5;
#X text 112 41 cut the;
#X text 110 56 sound off;
#X text 77 81 Wait for the;
#X text 77 95 cutoff to finish;
#X text 200 112 set the upper line~ to start;
#X text 249 189 <-- record;
#X obj 297 273 line~;
#X obj 245 280 *~;
#X obj 297 225 del 3990;
#X msg 297 249 0 10;
#X obj 58 289 vline~;
#X obj 27 223 vline~;
#X obj 230 309 tabwrite~ tab28;
#X obj 27 245 tabread4~ tab28;
#X msg 19 115 \; phase 1 \, 4.41e+08 1e+07 \; cutoff 1;
#X msg 178 256 0 \, 1 5;
#X obj 230 189 bng 15 250 50 0 empty empty empty 0 -6 0 8 -262144 -1
-1;
#X text 14 316 (OUT);
#X text 45 160 start new playback;
#X text 199 142 forever (or until next trigger);
#X text 200 127 at the first sample and play;
#X text 25 303 |;
#X connect 0 0 1 0;
#X connect 1 0 16 0;
#X connect 3 0 19 0;
#X connect 4 0 20 0;
#X connect 5 0 8 0;
#X connect 5 0 6 0;
#X connect 6 0 23 0;
#X connect 15 0 16 1;
#X connect 16 0 21 0;
#X connect 17 0 18 0;
#X connect 18 0 15 0;
#X connect 19 0 2 1;
#X connect 20 0 22 0;
#X connect 22 0 2 0;
#X connect 24 0 15 0;
#X connect 25 0 24 0;
#X connect 25 0 21 0;
#X connect 25 0 17 0;
