#N struct frame float x float y float w float h;
#N struct rect float x float y float w float h;
#N struct y-plot float x float y float w array z y-point;
#N struct y-point float y;
#N struct d-arrow float x float y float z;
#N struct l-arrow float x float y float z;
#N struct h-seg float x float y float z float w;
#N struct v-seg float x float y float z float w;
#N struct times float x float y;
#N struct plus float x float y;
#N struct xy-curve float x float y float w array z xy-point;
#N struct xy-point float x float y;
#N struct seg float x float y float dx float dy float w;
#N struct l-curve-arrow float x float y float z float z2 float z3 float
h;
#N struct circle2 float x float y float h float h2 float mh float mh2
;
#N struct vaxis float x float y float h float h-3;
#N struct xy-plot float x float y float w array z xy-point;
#N struct d-curve-arrow float x float y float z float z2 float z3 float
h;
#N struct circle float x float y float color float h float h2;
#N struct u-curve-arrow float x float y float z float z2 float z3 float
h;
#N struct r-curve-arrow float x float y float z float z2 float z3 float
h;
#N struct r-arrow float x float y float z;
#N struct u-arrow float x float y float z;
#N struct haxis float x float y float w float w-3;
#N struct thickcircle float x float y float color float h float h2
;
#N struct minus float x float y;
#N struct divide float x float y;
#N canvas 522 170 294 185 10;
#N canvas 514 152 323 327 fig 0;
#X scalar frame 180 104 79 33 \;;
#X scalar rect 187 108 1 0 \;;
#X scalar rect 190 108 1 3.55787 \;;
#X scalar rect 193 108 1 7.04331 \;;
#X scalar rect 196 108 1 10.3854 \;;
#X scalar rect 199 108 1 13.516 \;;
#X scalar rect 202 108 1 16.3715 \;;
#X scalar rect 205 108 1 18.8937 \;;
#X scalar rect 208 108 1 21.0313 \;;
#X scalar rect 211 108 1 22.7408 \;;
#X scalar rect 214 108 1 23.9873 \;;
#X scalar rect 217 108 1 24.7455 \;;
#X scalar rect 220 108 1 25 \;;
#X scalar rect 223 108 1 24.7455 \;;
#X scalar rect 226 108 1 23.9873 \;;
#X scalar rect 229 108 1 22.7408 \;;
#X scalar rect 232 108 1 21.0314 \;;
#X scalar rect 235 108 1 18.8938 \;;
#X scalar rect 238 108 1 16.3716 \;;
#X scalar rect 241 108 1 13.5161 \;;
#X scalar rect 244 108 1 10.3854 \;;
#X scalar rect 247 108 1 7.04337 \;;
#X scalar rect 250 108 1 3.55793 \;;
#X scalar frame 193 250 60 60 \;;
#X scalar y-plot 198 255 1 \; 0 \; 2.25 \; 4.5 \; 6.75 \; 9 \; 11.25
\; 13.5 \; 15.75 \; 18 \; 20.25 \; 22.5 \; 24.75 \; 27 \; 29.25 \;
31.5 \; 33.75 \; 36 \; 38.25 \; 40.5 \; 42.75 \; 0 \; 2.25 \; 4.5 \;
6.75 \; 9 \; 11.25 \; 13.5 \; 15.75 \; 18 \; 20.25 \; 22.5 \; 24.75
\; 27 \; 29.25 \; 31.5 \; 33.75 \; 36 \; 38.25 \; 40.5 \; 42.75 \;
0 \; 2.25 \; 4.5 \; 6.75 \; 9 \; 11.25 \; 13.5 \; 15.75 \; 18 \; 20.25
\; \;;
#X text 182 69 0;
#X scalar d-arrow 222 311 13 \;;
#X scalar d-arrow 64 51 14 \;;
#X text 53 278 OUT;
#X scalar frame 56 104 15 96 \;;
#X scalar d-arrow 139 213 21 \;;
#X text 182 12 1;
#X scalar l-arrow 151 202 15 \;;
#X scalar d-arrow 139 176 17 \;;
#X scalar l-arrow 151 165 18 \;;
#X scalar d-arrow 63 201 60 \;;
#X scalar h-seg 139 234 82 1 \;;
#X scalar d-arrow 221 196 53 \;;
#X scalar l-arrow 232 186 18 \;;
#X text 253 133 N;
#X text 168 186 1;
#X text 168 214 0;
#X text 184 225 0;
#X text 248 225 N;
#X scalar l-arrow 75 76 147 \;;
#X scalar d-arrow 64 86 17 \;;
#X scalar v-seg 221 76 28 1 \;;
#X scalar d-arrow 221 138 38 \;;
#X text 171 154 d;
#X text 179 162 0;
#X text 217 -13 f;
#X text 54 48 IN;
#X scalar l-arrow 72 165 59 \;;
#X text 77 164 delay;
#X text 78 175 time;
#X scalar frame 54 66 20 19 \;;
#X scalar times 60 71 \;;
#X scalar plus 135 160 \;;
#X scalar frame 130 156 20 19 \;;
#X scalar frame 130 193 20 19 \;;
#X scalar times 136 198 \;;
#X text 166 117 s;
#X scalar frame 211 177 20 19 \;;
#X scalar times 217 182 \;;
#X coords 0 327 1 326 0 0 0;
#X restore 51 61 pd fig;
#X obj 56 88 templates;
