#N struct v-seg float x float y float z float w;
#N struct r-arrow float x float y float z;
#N struct u-arrow float x float y float z;
#N struct y-plot float x float y float w array z y-point;
#N struct y-point float y;
#N struct xy-curve float x float y float w array z xy-point;
#N struct xy-point float x float y;
#N struct seg float x float y float dx float dy float w;
#N struct l-curve-arrow float x float y float z float z2 float z3 float
h;
#N struct circle2 float x float y float h float h2 float mh float mh2
;
#N struct vaxis float x float y float h float h-3;
#N struct xy-plot float x float y float w array z xy-point;
#N struct d-curve-arrow float x float y float z float z2 float z3 float
h;
#N struct circle float x float y float color float h float h2;
#N struct u-curve-arrow float x float y float z float z2 float z3 float
h;
#N struct r-curve-arrow float x float y float z float z2 float z3 float
h;
#N struct l-arrow float x float y float z;
#N struct d-arrow float x float y float z;
#N struct h-seg float x float y float z float w;
#N struct rect float x float y float w float h;
#N struct haxis float x float y float w float w-3;
#N struct frame float x float y float w float h;
#N struct thickcircle float x float y float color float h float h2
;
#N canvas 144 404 329 179 10;
#N canvas 14 283 369 334 fig 1;
#X text 125 87 0;
#X text 19 88 -5;
#X text 225 88 5;
#X text 302 96 k->;
#X scalar v-seg 30 250 4 2 \;;
#X scalar v-seg 50 250 4 2 \;;
#X scalar v-seg 70 250 4 2 \;;
#X scalar v-seg 90 250 4 2 \;;
#X scalar v-seg 110 250 4 2 \;;
#X scalar v-seg 130 250 4 2 \;;
#X scalar v-seg 150 250 4 2 \;;
#X scalar v-seg 170 251 100 2 \;;
#X scalar v-seg 190 250 4 2 \;;
#X scalar v-seg 210 250 4 2 \;;
#X scalar v-seg 230 250 4 2 \;;
#X scalar v-seg 250 250 4 2 \;;
#X scalar v-seg 270 250 4 2 \;;
#X scalar v-seg 290 250 4 2 \;;
#X scalar v-seg 310 250 4 2 \;;
#X scalar v-seg 330 250 4 2 \;;
#X scalar r-arrow 330 251 -300 \;;
#X scalar u-arrow 30 331 -80 \;;
#X scalar y-plot 30 252 1 \; 8.13515e-05 \; 0.722276 \; 1.43686 \;
2.12608 \; 2.77254 \; 3.35968 \; 3.87214 \; 4.29613 \; 4.61989 \; 4.83392
\; 4.93128 \; 4.90779 \; 4.76217 \; 4.49612 \; 4.11436 \; 3.62445 \;
3.03681 \; 2.36437 \; 1.62235 \; 0.82795 \; -8.11773e-05 \; -0.84186
\; -1.67684 \; -2.48429 \; -3.24381 \; -3.93585 \; -4.54215 \; -5.04625
\; -5.43392 \; -5.69352 \; -5.81636 \; -5.79691 \; -5.63308 \; -5.32624
\; -4.88132 \; -4.30666 \; -3.61402 \; -2.81823 \; -1.93689 \; -0.990103
\; 8.10302e-05 \; 1.0101 \; 2.01544 \; 2.99121 \; 3.91275 \; 4.7562
\; 5.49912 \; 6.12106 \; 6.60409 \; 6.9333 \; 7.09718 \; 7.08802 \;
6.90218 \; 6.54022 \; 6.007 \; 5.31169 \; 4.4676 \; 3.49198 \; 2.40568
\; 1.23274 \; -8.09102e-05 \; -1.26395 \; -2.52853 \; -3.76274 \; -4.93541
\; -6.01608 \; -6.9757 \; -7.7874 \; -8.42717 \; -8.87449 \; -9.11293
\; -9.13064 \; -8.92078 \; -8.48177 \; -7.81753 \; -6.93751 \; -5.85661
\; -4.59504 \; -3.17796 \; -1.63504 \; 8.0817e-05 \; 1.69046 \; 3.3966
\; 5.07738 \; 6.69076 \; 8.19495 \; 9.5492 \; 10.7149 \; 11.6565 \;
12.3423 \; 12.7455 \; 12.845 \; 12.6257 \; 12.0797 \; 11.2062 \; 10.0118
\; 8.51117 \; 6.72643 \; 4.6873 \; 2.4306 \; -8.07505e-05 \; -2.55526
\; -5.18016 \; -7.81581 \; -10.3999 \; -12.8682 \; -15.1554 \; -17.1966
\; -18.9287 \; -20.2913 \; -21.2285 \; -21.6896 \; -21.6306 \; -21.0149
\; -19.8146 \; -18.0109 \; -15.5951 \; -12.5687 \; -8.94381 \; -4.7431
\; 8.07107e-05 \; 5.24243 \; 10.9308 \; 17.0033 \; 23.3898 \; 30.0134
\; 36.7913 \; 43.6364 \; 50.4582 \; 57.1649 \; 63.6646 \; 69.8671 \;
75.6847 \; 81.0349 \; 85.8406 \; 90.0326 \; 93.5496 \; 96.3401 \; 98.3633
\; 99.5893 \; 100 \; 99.5893 \; 98.3633 \; 96.3401 \; 93.5496 \; 90.0326
\; 85.8406 \; 81.0348 \; 75.6847 \; 69.8671 \; 63.6646 \; 57.1649 \;
50.4582 \; 43.6364 \; 36.7914 \; 30.0134 \; 23.3898 \; 17.0033 \; 10.9308
\; 5.24243 \; 8.07107e-05 \; -4.74315 \; -8.94384 \; -12.5688 \; -15.5951
\; -18.0109 \; -19.8146 \; -21.0149 \; -21.6306 \; -21.6896 \; -21.2285
\; -20.2913 \; -18.9287 \; -17.1966 \; -15.1554 \; -12.8682 \; -10.4
\; -7.81584 \; -5.18019 \; -2.55521 \; -8.07505e-05 \; 2.43062 \; 4.6873
\; 6.72645 \; 8.51116 \; 10.0118 \; 11.2062 \; 12.0797 \; 12.6257 \;
12.845 \; 12.7455 \; 12.3423 \; 11.6565 \; 10.7149 \; 9.54921 \; 8.19495
\; 6.69079 \; 5.07736 \; 3.39659 \; 1.69042 \; 8.0817e-05 \; -1.63504
\; -3.17796 \; -4.59505 \; -5.85661 \; -6.93751 \; -7.81753 \; -8.48178
\; -8.92078 \; -9.13064 \; -9.11293 \; -8.87449 \; -8.42718 \; -7.78741
\; -6.9757 \; -6.01608 \; -4.93541 \; -3.76273 \; -2.52852 \; -1.26392
\; -8.09102e-05 \; 1.23274 \; 2.40568 \; 3.49197 \; 4.4676 \; 5.31169
\; 6.007 \; 6.54022 \; 6.90218 \; 7.08802 \; 7.09718 \; 6.9333 \; 6.6041
\; 6.12107 \; 5.49912 \; 4.7562 \; 3.91275 \; 2.99121 \; 2.01543 \;
1.0101 \; 8.10302e-05 \; -0.990103 \; -1.93689 \; -2.81822 \; -3.61402
\; -4.30666 \; -4.88132 \; -5.32624 \; -5.63308 \; -5.79691 \; -5.81636
\; -5.69353 \; -5.43393 \; -5.04626 \; -4.54214 \; -3.93585 \; -3.24381
\; -2.48428 \; -1.67683 \; -0.84186 \; -8.11773e-05 \; 0.82795 \; 1.62235
\; 2.36436 \; 3.03681 \; 3.62445 \; 4.11436 \; 4.49612 \; 4.76217 \;
4.90779 \; 4.93128 \; 4.83392 \; 4.61989 \; 4.29612 \; 3.87213 \; 3.35968
\; 2.77254 \; 2.12607 \; 1.43685 \; 0.722276 \; 8.13515e-05 \; -0.712036
\; -1.39688 \; -2.03813 \; -2.62081 \; -3.13149 \; -3.55872 \; -3.89319
\; -4.12802 \; -4.25878 \; -4.28366 \; -4.20344 \; -4.02143 \; -3.74337
\; -3.37728 \; -2.9332 \; -2.42293 \; -1.85975 \; -1.25806 \; -0.632989
\; -8.15533e-05 \; \;;
#X scalar r-arrow 327 90 -300 \;;
#X scalar u-arrow 27 170 -80 \;;
#X scalar y-plot 27 91 1 \; 4.93128 \; 4.90779 \; 4.76217 \; 4.49612
\; 4.11436 \; 3.62445 \; 3.03681 \; 2.36437 \; 1.62235 \; 0.82795 \;
-8.11773e-05 \; -0.84186 \; -1.67684 \; -2.48429 \; -3.24381 \; -3.93585
\; -4.54215 \; -5.04625 \; -5.43392 \; -5.69352 \; -5.81636 \; -5.79691
\; -5.63308 \; -5.32624 \; -4.88132 \; -4.30666 \; -3.61402 \; -2.81823
\; -1.93689 \; -0.990103 \; 8.10302e-05 \; 1.0101 \; 2.01544 \; 2.99122
\; 3.91275 \; 4.7562 \; 5.49912 \; 6.12106 \; 6.6041 \; 6.9333 \; 7.09718
\; 7.08802 \; 6.90218 \; 6.54022 \; 6.007 \; 5.31169 \; 4.4676 \; 3.49198
\; 2.40568 \; 1.23274 \; -8.09102e-05 \; -1.26395 \; -2.52853 \; -3.76274
\; -4.93541 \; -6.01608 \; -6.9757 \; -7.7874 \; -8.42717 \; -8.87449
\; -9.11293 \; -9.13064 \; -8.92078 \; -8.48178 \; -7.81753 \; -6.93751
\; -5.85661 \; -4.59504 \; -3.17795 \; -1.63504 \; 8.0817e-05 \; 1.69046
\; 3.3966 \; 5.07738 \; 6.69076 \; 8.19495 \; 9.54921 \; 10.7149 \;
11.6565 \; 12.3423 \; 12.7455 \; 12.845 \; 12.6257 \; 12.0797 \; 11.2062
\; 10.0118 \; 8.51117 \; 6.72643 \; 4.6873 \; 2.43062 \; -8.07505e-05
\; -2.55526 \; -5.18016 \; -7.81581 \; -10.3999 \; -12.8682 \; -15.1554
\; -17.1966 \; -18.9287 \; -20.2913 \; -21.2285 \; -21.6896 \; -21.6306
\; -21.0149 \; -19.8146 \; -18.0109 \; -15.5951 \; -12.5687 \; -8.94381
\; -4.7431 \; 8.07107e-05 \; 5.24243 \; 10.9308 \; 17.0033 \; 23.3898
\; 30.0134 \; 36.7913 \; 43.6363 \; 50.4582 \; 57.1649 \; 63.6646 \;
69.8671 \; 75.6847 \; 81.0349 \; 85.8406 \; 90.0326 \; 93.5495 \; 96.3401
\; 98.3633 \; 99.5893 \; 100 \; 99.5893 \; 98.3633 \; 96.3401 \; 93.5496
\; 90.0326 \; 85.8406 \; 81.0348 \; 75.6847 \; 69.867 \; 63.6646 \;
57.1649 \; 50.4582 \; 43.6363 \; 36.7914 \; 30.0134 \; 23.3898 \; 17.0032
\; 10.9308 \; 5.24243 \; 8.07107e-05 \; -4.74315 \; -8.94381 \; -12.5687
\; -15.5951 \; -18.0109 \; -19.8146 \; -21.0149 \; -21.6306 \; -21.6896
\; -21.2285 \; -20.2913 \; -18.9287 \; -17.1966 \; -15.1554 \; -12.8682
\; -10.3999 \; -7.81579 \; -5.18019 \; -2.55526 \; -8.07505e-05 \;
2.43062 \; 4.68726 \; 6.72641 \; 8.51116 \; 10.0118 \; 11.2061 \; 12.0797
\; 12.6257 \; 12.845 \; 12.7455 \; 12.3423 \; 11.6565 \; 10.7149 \;
9.54921 \; 8.19495 \; 6.69076 \; 5.07736 \; 3.39662 \; 1.69046 \; 8.0817e-05
\; -1.63504 \; -3.17794 \; -4.59503 \; -5.85661 \; -6.93751 \; -7.81752
\; -8.48178 \; -8.92078 \; -9.13064 \; -9.11293 \; -8.87449 \; -8.42717
\; -7.7874 \; -6.9757 \; -6.01608 \; -4.93541 \; -3.76273 \; -2.52854
\; -1.26395 \; -8.09102e-05 \; 1.23274 \; 2.40566 \; 3.49197 \; 4.4676
\; 5.31169 \; 6.007 \; 6.54022 \; 6.90219 \; 7.08803 \; 7.09718 \;
6.9333 \; 6.60409 \; 6.12107 \; 5.49912 \; 4.7562 \; 3.91275 \; 2.99121
\; 2.01545 \; 1.0101 \; 8.10302e-05 \; -0.990085 \; -1.93688 \; -2.81822
\; -3.61402 \; -4.30666 \; -4.88132 \; -5.32625 \; -5.63309 \; -5.79691
\; -5.81636 \; -5.69352 \; -5.43392 \; -5.04626 \; -4.54215 \; -3.93585
\; -3.24381 \; -2.4843 \; -1.67684 \; -0.84186 \; -8.11773e-05 \; 0.82794
\; 1.62234 \; 2.36436 \; 3.03682 \; 3.62445 \; 4.11436 \; 4.49613 \;
4.76217 \; 4.90779 \; 4.93128 \; 4.83392 \; 4.61989 \; 4.29613 \; 3.87214
\; 3.35968 \; 2.77254 \; 2.12609 \; 1.43686 \; 0.722276 \; 8.13515e-05
\; -0.712027 \; -1.39688 \; -2.03815 \; -2.62082 \; -3.13149 \; -3.55872
\; -3.8932 \; -4.12802 \; -4.25878 \; -4.28366 \; -4.20344 \; -4.02143
\; -3.74338 \; -3.37729 \; -2.9332 \; -2.42293 \; -1.85976 \; -1.25806
\; -0.632989 \; -8.15533e-05 \; 0.625131 \; 1.22749 \; 1.79258 \; 2.30706
\; 2.75896 \; 3.13802 \; 3.43584 \; 3.64609 \; 3.76465 \; 3.7897 \;
\;;
#X scalar v-seg 27 90 4.93128 2 \;;
#X scalar v-seg 47 90 -5.81636 2 \;;
#X scalar v-seg 67 90 7.09718 2 \;;
#X scalar v-seg 87 90 -9.11293 2 \;;
#X scalar v-seg 107 90 12.7455 2 \;;
#X scalar v-seg 127 90 -21.2285 2 \;;
#X scalar v-seg 147 90 63.6646 2 \;;
#X scalar v-seg 167 90 63.6646 2 \;;
#X scalar v-seg 187 90 -21.2285 2 \;;
#X scalar v-seg 207 90 12.7455 2 \;;
#X scalar v-seg 227 90 -9.11293 2 \;;
#X scalar v-seg 247 90 7.09718 2 \;;
#X scalar v-seg 267 90 -5.81636 2 \;;
#X scalar v-seg 287 90 4.93128 2 \;;
#X scalar v-seg 307 90 -4.28366 2 \;;
#X scalar v-seg 327 90 3.7897 2 \;;
#X text 123 228 0;
#X text 16 247 -5;
#X text 223 228 5;
#X text 26 -18 amplitude;
#X text 270 -6 (a);
#X text 265 158 (b);
#X coords 0 334 1 333 0 0 0;
#X restore 51 61 pd fig;
#X obj 170 42 templates;
#N canvas 16 427 468 394 z 0;
#X scalar r-arrow 375 75 -300 \;;
#X scalar u-arrow 75 155 -80 \;;
#X scalar y-plot 75 76 1 \; 4.93128 \; 4.90779 \; 4.76217 \; 4.49612
\; 4.11436 \; 3.62445 \; 3.03681 \; 2.36437 \; 1.62235 \; 0.82795 \;
-8.11773e-05 \; -0.84186 \; -1.67684 \; -2.48429 \; -3.24381 \; -3.93585
\; -4.54215 \; -5.04625 \; -5.43392 \; -5.69352 \; -5.81636 \; -5.79691
\; -5.63308 \; -5.32624 \; -4.88132 \; -4.30666 \; -3.61402 \; -2.81823
\; -1.93689 \; -0.990103 \; 8.10302e-05 \; 1.0101 \; 2.01544 \; 2.99122
\; 3.91275 \; 4.7562 \; 5.49912 \; 6.12106 \; 6.6041 \; 6.9333 \; 7.09718
\; 7.08802 \; 6.90218 \; 6.54022 \; 6.007 \; 5.31169 \; 4.4676 \; 3.49198
\; 2.40568 \; 1.23274 \; -8.09102e-05 \; -1.26395 \; -2.52853 \; -3.76274
\; -4.93541 \; -6.01608 \; -6.9757 \; -7.7874 \; -8.42717 \; -8.87449
\; -9.11293 \; -9.13064 \; -8.92078 \; -8.48178 \; -7.81753 \; -6.93751
\; -5.85661 \; -4.59504 \; -3.17795 \; -1.63504 \; 8.0817e-05 \; 1.69046
\; 3.3966 \; 5.07738 \; 6.69076 \; 8.19495 \; 9.54921 \; 10.7149 \;
11.6565 \; 12.3423 \; 12.7455 \; 12.845 \; 12.6257 \; 12.0797 \; 11.2062
\; 10.0118 \; 8.51117 \; 6.72643 \; 4.6873 \; 2.43062 \; -8.07505e-05
\; -2.55526 \; -5.18016 \; -7.81581 \; -10.3999 \; -12.8682 \; -15.1554
\; -17.1966 \; -18.9287 \; -20.2913 \; -21.2285 \; -21.6896 \; -21.6306
\; -21.0149 \; -19.8146 \; -18.0109 \; -15.5951 \; -12.5687 \; -8.94381
\; -4.7431 \; 8.07107e-05 \; 5.24243 \; 10.9308 \; 17.0033 \; 23.3898
\; 30.0134 \; 36.7913 \; 43.6363 \; 50.4582 \; 57.1649 \; 63.6646 \;
69.8671 \; 75.6847 \; 81.0349 \; 85.8406 \; 90.0326 \; 93.5495 \; 96.3401
\; 98.3633 \; 99.5893 \; 100 \; 99.5893 \; 98.3633 \; 96.3401 \; 93.5496
\; 90.0326 \; 85.8406 \; 81.0348 \; 75.6847 \; 69.867 \; 63.6646 \;
57.1649 \; 50.4582 \; 43.6363 \; 36.7914 \; 30.0134 \; 23.3898 \; 17.0032
\; 10.9308 \; 5.24243 \; 8.07107e-05 \; -4.74315 \; -8.94381 \; -12.5687
\; -15.5951 \; -18.0109 \; -19.8146 \; -21.0149 \; -21.6306 \; -21.6896
\; -21.2285 \; -20.2913 \; -18.9287 \; -17.1966 \; -15.1554 \; -12.8682
\; -10.3999 \; -7.81579 \; -5.18019 \; -2.55526 \; -8.07505e-05 \;
2.43062 \; 4.68726 \; 6.72641 \; 8.51116 \; 10.0118 \; 11.2061 \; 12.0797
\; 12.6257 \; 12.845 \; 12.7455 \; 12.3423 \; 11.6565 \; 10.7149 \;
9.54921 \; 8.19495 \; 6.69076 \; 5.07736 \; 3.39662 \; 1.69046 \; 8.0817e-05
\; -1.63504 \; -3.17794 \; -4.59503 \; -5.85661 \; -6.93751 \; -7.81752
\; -8.48178 \; -8.92078 \; -9.13064 \; -9.11293 \; -8.87449 \; -8.42717
\; -7.7874 \; -6.9757 \; -6.01608 \; -4.93541 \; -3.76273 \; -2.52854
\; -1.26395 \; -8.09102e-05 \; 1.23274 \; 2.40566 \; 3.49197 \; 4.4676
\; 5.31169 \; 6.007 \; 6.54022 \; 6.90219 \; 7.08803 \; 7.09718 \;
6.9333 \; 6.60409 \; 6.12107 \; 5.49912 \; 4.7562 \; 3.91275 \; 2.99121
\; 2.01545 \; 1.0101 \; 8.10302e-05 \; -0.990085 \; -1.93688 \; -2.81822
\; -3.61402 \; -4.30666 \; -4.88132 \; -5.32625 \; -5.63309 \; -5.79691
\; -5.81636 \; -5.69352 \; -5.43392 \; -5.04626 \; -4.54215 \; -3.93585
\; -3.24381 \; -2.4843 \; -1.67684 \; -0.84186 \; -8.11773e-05 \; 0.82794
\; 1.62234 \; 2.36436 \; 3.03682 \; 3.62445 \; 4.11436 \; 4.49613 \;
4.76217 \; 4.90779 \; 4.93128 \; 4.83392 \; 4.61989 \; 4.29613 \; 3.87214
\; 3.35968 \; 2.77254 \; 2.12609 \; 1.43686 \; 0.722276 \; 8.13515e-05
\; -0.712027 \; -1.39688 \; -2.03815 \; -2.62082 \; -3.13149 \; -3.55872
\; -3.8932 \; -4.12802 \; -4.25878 \; -4.28366 \; -4.20344 \; -4.02143
\; -3.74338 \; -3.37729 \; -2.9332 \; -2.42293 \; -1.85976 \; -1.25806
\; -0.632989 \; -8.15533e-05 \; 0.625131 \; 1.22749 \; 1.79258 \; 2.30706
\; 2.75896 \; 3.13802 \; 3.43584 \; 3.64609 \; 3.76465 \; 3.7897 \;
\;;
#X scalar v-seg 75 75 4.93128 2 \;;
#X scalar v-seg 95 75 -5.81636 2 \;;
#X scalar v-seg 115 75 7.09718 2 \;;
#X scalar v-seg 135 75 -9.11293 2 \;;
#X scalar v-seg 155 75 12.7455 2 \;;
#X scalar v-seg 175 75 -21.2285 2 \;;
#X scalar v-seg 195 75 63.6646 2 \;;
#X scalar v-seg 215 75 63.6646 2 \;;
#X scalar v-seg 235 75 -21.2285 2 \;;
#X scalar v-seg 255 75 12.7455 2 \;;
#X scalar v-seg 275 75 -9.11293 2 \;;
#X scalar v-seg 295 75 7.09718 2 \;;
#X scalar v-seg 315 75 -5.81636 2 \;;
#X scalar v-seg 335 75 4.93128 2 \;;
#X scalar v-seg 355 75 -4.28366 2 \;;
#X scalar v-seg 375 75 3.7897 2 \;;
#X coords 0 394 1 393 0 0 0;
#X restore 54 89 pd z;
#N canvas 188 134 953 630 make-fig 0;
#X msg 24 62 \; start pd-z \;;
#X obj 27 365 pack;
#X msg 27 396 \; y-plot-point \$1 \$2 \;;
#X msg 123 97 \; add-r-arrow 375 75 -300 \; add-u-arrow 75 155 -80
;
#X msg 161 29 \; pd-z clear \; start pd-z;
#X obj 73 314 dirichlet 100;
#X obj 27 248 scanner 300 15;
#X obj 73 338 * 1;
#X obj 283 388 t f f;
#X obj 260 415 swap;
#X obj 260 440 pack 0 0 0;
#X obj 260 462 route 1 0;
#X obj 328 399 expr $f1 > 1 || $f1 < -1;
#X obj 73 293 - 7;
#X obj 282 266 - 7;
#X obj 282 291 dirichlet 100;
#X obj 282 315 * 1;
#X msg 260 522 \; add-v-seg \$1 75 \$2 2;
#X msg 28 205 \; add-y-plot 301 75 76 1 \;;
#X obj 207 204 scanner 15 15;
#X obj 207 277 * 20;
#X obj 207 302 + 75;
#X msg 289 484 \; add-v-seg \$1 74 4 2;
#X obj 445 291 pack;
#X msg 445 322 \; y-plot-point \$1 \$2 \;;
#X obj 491 240 dirichlet 100;
#X obj 445 174 scanner 300 15;
#X obj 491 264 * 1;
#X obj 701 314 t f f;
#X obj 678 341 swap;
#X obj 678 366 pack 0 0 0;
#X obj 678 388 route 1 0;
#X obj 746 325 expr $f1 > 1 || $f1 < -1;
#X obj 700 217 dirichlet 100;
#X obj 700 241 * 1;
#X msg 678 448 \; add-v-seg \$1 75 \$2 2;
#X msg 446 131 \; add-y-plot 301 75 76 1 \;;
#X obj 625 130 scanner 15 15;
#X obj 625 203 * 20;
#X obj 625 228 + 75;
#X msg 707 410 \; add-v-seg \$1 74 4 2;
#X obj 491 219 - 6.5;
#X obj 700 192 - 6.5;
#X connect 1 0 2 0;
#X connect 5 0 7 0;
#X connect 6 0 1 0;
#X connect 6 1 13 0;
#X connect 7 0 1 1;
#X connect 8 0 10 2;
#X connect 8 1 12 0;
#X connect 9 0 10 0;
#X connect 9 1 10 1;
#X connect 10 0 11 0;
#X connect 11 0 17 0;
#X connect 11 1 22 0;
#X connect 12 0 9 1;
#X connect 13 0 5 0;
#X connect 14 0 15 0;
#X connect 15 0 16 0;
#X connect 16 0 8 0;
#X connect 19 0 20 0;
#X connect 19 1 14 0;
#X connect 20 0 21 0;
#X connect 21 0 9 0;
#X connect 23 0 24 0;
#X connect 25 0 27 0;
#X connect 26 0 23 0;
#X connect 26 1 41 0;
#X connect 27 0 23 1;
#X connect 28 0 30 2;
#X connect 28 1 32 0;
#X connect 29 0 30 0;
#X connect 29 1 30 1;
#X connect 30 0 31 0;
#X connect 31 0 35 0;
#X connect 31 1 40 0;
#X connect 32 0 29 1;
#X connect 33 0 34 0;
#X connect 34 0 28 0;
#X connect 37 0 38 0;
#X connect 37 1 42 0;
#X connect 38 0 39 0;
#X connect 39 0 29 0;
#X connect 41 0 25 0;
#X connect 42 0 33 0;
#X restore 170 83 pd make-fig;
