#N canvas 0 0 463 404 10;
#X obj 41 315 *~;
#X obj 11 315 *~;
#X obj 316 174 *~;
#X obj 286 174 *~;
#X obj 286 197 +~;
#X obj 10 29 *~;
#X obj 10 9 inlet~;
#X obj 10 50 rfft~;
#X obj 11 357 *~;
#X obj 76 79 *~;
#X obj 286 151 rfft~;
#X obj 11 336 rifft~;
#X obj 11 378 outlet~;
#X obj 49 79 *~;
#X obj 49 100 +~;
#X text 356 187 modulus;
#X obj 49 236 *~;
#X obj 49 214 clip~;
#X obj 37 29 tabreceive~ \$0-hann;
#X obj 79 163 r squelch;
#X obj 79 184 expr 0.01*$f1*$f1;
#X obj 49 120 +~ 1e-20;
#X obj 39 357 tabreceive~ \$0-hann;
#X obj 286 125 *~;
#X obj 286 100 inlet~;
#X obj 315 125 tabreceive~ \$0-hann;
#X obj 49 140 q8_rsqrt~;
#X obj 286 218 q8_sqrt~;
#X text 353 205 of control;
#X text 354 221 amplitude;
#X text 120 85 reciprocal;
#X text 121 100 modulus of;
#X text 119 117 filter input;
#X text 120 133 amplitude;
#X text 71 10 filter input;
#X text 348 101 control source;
#X text 87 238 multiply the two amplitude;
#X text 85 255 factors (for compression;
#X text 87 271 and to apply new timbre);
#X obj 49 291 /~ 1536;
#X text 95 202 limit gain to;
#X text 96 216 squelch*squelch/100;
#X connect 0 0 11 1;
#X connect 1 0 11 0;
#X connect 2 0 4 1;
#X connect 3 0 4 0;
#X connect 4 0 27 0;
#X connect 5 0 7 0;
#X connect 6 0 5 0;
#X connect 7 0 13 0;
#X connect 7 0 13 1;
#X connect 7 0 1 0;
#X connect 7 1 9 0;
#X connect 7 1 9 1;
#X connect 7 1 0 0;
#X connect 8 0 12 0;
#X connect 9 0 14 1;
#X connect 10 0 3 0;
#X connect 10 0 3 1;
#X connect 10 1 2 0;
#X connect 10 1 2 1;
#X connect 11 0 8 0;
#X connect 13 0 14 0;
#X connect 14 0 21 0;
#X connect 16 0 39 0;
#X connect 17 0 16 0;
#X connect 18 0 5 1;
#X connect 19 0 20 0;
#X connect 20 0 17 2;
#X connect 21 0 26 0;
#X connect 22 0 8 1;
#X connect 23 0 10 0;
#X connect 24 0 23 0;
#X connect 25 0 23 1;
#X connect 26 0 17 0;
#X connect 27 0 16 1;
#X connect 39 0 0 1;
#X connect 39 0 1 1;
