#N struct haxis float x float y float w float w-3;
#N struct vaxis float x float y float h float h-3;
#N struct xy-plot float x float y float w array z xy-point;
#N struct xy-point float x float y;
#N struct xy-curve float x float y float w array z xy-point;
#N struct seg float x float y float dx float dy float w;
#N struct l-curve-arrow float x float y float z float z2 float z3 float
h;
#N struct circle2 float x float y float h float h2 float mh float mh2
;
#N struct d-curve-arrow float x float y float z float z2 float z3 float
h;
#N struct circle float x float y float color float h float h2;
#N struct u-curve-arrow float x float y float z float z2 float z3 float
h;
#N struct r-curve-arrow float x float y float z float z2 float z3 float
h;
#N struct r-arrow float x float y float z;
#N struct l-arrow float x float y float z;
#N struct u-arrow float x float y float z;
#N struct d-arrow float x float y float z;
#N struct v-seg float x float y float z float w;
#N struct h-seg float x float y float z float w;
#N struct rect float x float y float w float h;
#N struct frame float x float y float w float h;
#N struct y-plot float x float y float w array z y-point;
#N struct y-point float y;
#N struct thickcircle float x float y float color float h float h2
;
#N struct times float x float y;
#N struct plus float x float y;
#N struct minus float x float y;
#N struct divide float x float y;
#N canvas 94 461 329 179 10;
#N canvas 97 243 320 218 fig 1;
#X scalar haxis 60 104 180 177 \;;
#X scalar vaxis 150 14 180 177 \;;
#X scalar xy-plot 150 104 1 \; 0 0 \; -70 -20 \; -67.5722 -15.6299
\; -70 -20 \; -65.6299 -22.4278 \; \;;
#X scalar xy-plot 150 104 1 \; 0 0 \; -35 -63 \; -36.3734 -58.1931
\; -35 -63 \; -30.1931 -61.6266 \; \;;
#X text 248 102 real;
#X text 157 30 imaginary;
#X scalar xy-curve 173 100 1 \; -58.5317 -9.27043 \; -56.7302 -13.6196
\; -54.2706 -17.6335 \; -51.2133 -21.2131 \; -47.6336 -24.2704 \; -43.6198
-26.7301 \; \;;
#X scalar xy-plot 150 103 0 \; 0 0 \; 70 -20 \; 65.6299 -22.4278 \;
70 -20 \; 67.5722 -15.6299 \; \;;
#X scalar xy-plot 150 105 0 \; 0 0 \; 63 35 \; 61.6266 30.1931 \; 63
35 \; 58.1931 36.3734 \; \;;
#X scalar xy-curve 188 105 1 \; -1.46835 -9.27064 \; -0.369374 -4.69319
\; 0 -0.000152111 \; -0.369324 4.69287 \; -1.46825 9.27036 \; -3.26973
13.6196 \; \;;
#X text 224 132 T[k];
#X text 217 68 T'[k];
#X text 12 128 S[m-1 \, k];
#X text 63 176 S[m \, k];
#X coords 0 218 1 217 0 0 0;
#X restore 51 61 pd fig;
#X obj 170 42 templates;
#N canvas 89 327 439 332 z 1;
#X scalar xy-curve 320 140 1 \; -1.46835 -9.27064 \; -0.369374 -4.69319
\; 0 -0.000152111 \; -0.369324 4.69287 \; -1.46825 9.27036 \; -3.26973
13.6196 \; \;;
#X scalar xy-plot 100 100 0 \; 0 0 \; 63 35 \; 61.6266 30.1931 \; 63
35 \; 58.1931 36.3734 \; \;;
#X coords 0 332 1 331 0 0 0;
#X restore 54 89 pd z;
#N canvas 358 89 922 797 make-fig 1;
#X msg 129 15 \; start pd-z \;;
#X msg 26 22 \; pd-z clear \; start pd-z;
#X msg 175 600 \; add-y-plot 101 175 100 1 \;;
#X msg 174 633 \; add-y-plot 101 275 100 1 \;;
#X msg 17 575 \; add-rect 175 98 2 4 \;;
#X msg 16 610 \; add-rect 275 98 2 4 \;;
#X msg 18 132 \; add-y-plot 301 50 100 1 \;;
#X msg 20 99 \; add-haxis 40 100 320 317;
#X msg 220 66 \; add-y-plot 76 50 100 1 \;;
#X msg 220 27 \; add-h-seg 50 100 75 1 \;;
#X msg 404 25 \; add-v-seg 50 100 30 1 \;;
#X msg 404 62 \; add-v-seg 125 100 30 1 \;;
#X text 206 468 window function;
#X obj 209 398 pack;
#X msg 209 423 \; y-plot-point \$1 \$2 \;;
#X obj 261 331 cos;
#X msg 209 250 \; add-y-plot 26 50 100 1 \;;
#X obj 209 283 scanner 25 6.283;
#X obj 261 353 * -0.5;
#X obj 261 373 + 0.5;
#X obj 260 398 * 10;
#X msg 25 171 \; add-xy-plot 301 50 100 1 \;;
#X msg 424 433 \; xy-plot-point \$1 \$2 \$3 \;;
#X obj 424 411 pack 0 0 0;
#X obj 425 335 t f f;
#X obj 455 362 +;
#X obj 487 364 +;
#N canvas 286 170 395 455 function 0;
#X obj 93 46 inlet;
#X obj 29 382 outlet;
#X obj 96 384 outlet;
#X obj 31 239 t f f;
#X obj 31 266 cos;
#X obj 61 266 sin;
#X obj 30 298 *;
#X obj 78 302 *;
#X obj 122 298 dirichlet 100;
#X obj 220 297 dirichlet 100;
#X obj 219 244 dirichlet 100;
#X obj 27 161 t f f f;
#X obj 30 340 +;
#X obj 62 342 +;
#X obj 81 94 t f f;
#X obj 31 210 expr 1+3.14159*$f1;
#X obj 31 188 - 13;
#X obj 122 322 expr 0.5*($f2+0.5*($f1+$f3));
#X obj 241 96 inlet;
#X obj 122 277 - 4;
#X obj 217 276 - 3;
#X obj 219 221 - 2;
#X connect 0 0 14 0;
#X connect 3 0 4 0;
#X connect 3 1 5 0;
#X connect 4 0 6 0;
#X connect 5 0 7 0;
#X connect 6 0 12 0;
#X connect 7 0 13 0;
#X connect 8 0 17 0;
#X connect 9 0 17 1;
#X connect 10 0 17 2;
#X connect 11 0 16 0;
#X connect 11 1 19 0;
#X connect 11 2 20 0;
#X connect 11 2 21 0;
#X connect 12 0 1 0;
#X connect 13 0 2 0;
#X connect 14 0 11 0;
#X connect 15 0 3 0;
#X connect 16 0 15 0;
#X connect 17 0 6 1;
#X connect 17 0 7 1;
#X connect 18 0 16 1;
#X connect 19 0 8 0;
#X connect 20 0 9 0;
#X connect 21 0 10 0;
#X restore 448 301 pd function;
#X msg 23 392 \; xy-plot-point \$1 \$2 \$3 \;;
#X obj 22 370 pack 0 0 0;
#X obj 23 294 t f f;
#X obj 53 321 +;
#X obj 85 323 +;
#X text 17 431 incoming complex waveform;
#X obj 51 262 expr 10*cos($f1);
#X obj 74 287 expr 10*sin($f1);
#X msg 16 487 \; add-vector 50 100 0 35 5;
#X msg 16 524 \; add-vector 50 100 19 25 5;
#X msg 424 209 \; add-xy-plot 301 50 100 1 \;;
#X floatatom 542 338 5 0 0 0 - - -;
#X msg 542 303 0;
#X msg 570 303 0.25;
#X msg 603 303 0.5;
#X obj 458 387 * 0.25;
#X obj 507 388 * 0.25;
#X obj 425 251 scanner 300 6;
#X msg 424 170 \; add-h-seg 50 100 75 1 \;;
#X obj 439 644 +;
#N canvas 286 170 395 455 function 0;
#X obj 93 46 inlet;
#X obj 29 382 outlet;
#X obj 96 384 outlet;
#X obj 31 239 t f f;
#X obj 31 266 cos;
#X obj 61 266 sin;
#X obj 30 298 *;
#X obj 78 302 *;
#X obj 122 298 dirichlet 100;
#X obj 220 297 dirichlet 100;
#X obj 219 244 dirichlet 100;
#X obj 27 161 t f f f;
#X obj 30 340 +;
#X obj 62 342 +;
#X obj 81 94 t f f;
#X obj 31 210 expr 1+3.14159*$f1;
#X obj 31 188 - 13;
#X obj 122 322 expr 0.5*($f2+0.5*($f1+$f3));
#X obj 241 96 inlet;
#X obj 122 277 - 4;
#X obj 217 276 - 3;
#X obj 219 221 - 2;
#X connect 0 0 14 0;
#X connect 3 0 4 0;
#X connect 3 1 5 0;
#X connect 4 0 6 0;
#X connect 5 0 7 0;
#X connect 6 0 12 0;
#X connect 7 0 13 0;
#X connect 8 0 17 0;
#X connect 9 0 17 1;
#X connect 10 0 17 2;
#X connect 11 0 16 0;
#X connect 11 1 19 0;
#X connect 11 2 20 0;
#X connect 11 2 21 0;
#X connect 12 0 1 0;
#X connect 13 0 2 0;
#X connect 14 0 11 0;
#X connect 15 0 3 0;
#X connect 16 0 15 0;
#X connect 17 0 6 1;
#X connect 17 0 7 1;
#X connect 18 0 16 1;
#X connect 19 0 8 0;
#X connect 20 0 9 0;
#X connect 21 0 10 0;
#X restore 400 614 pd function;
#X floatatom 500 634 5 0 0 0 - - -;
#X msg 500 599 0;
#X msg 528 599 0.25;
#X msg 561 599 0.5;
#X obj 410 667 * 0.25;
#X obj 459 668 * 0.25;
#X obj 412 703 pack 0 0;
#X msg 376 571 3;
#X obj 399 643 + 0;
#X msg 122 62 \; pd-z vis 1;
#X msg 421 472 \; add-rect 50 98 2 4 \; add-rect 62 98 2 4 \; add-rect
75 98 2 4 \; add-rect 87 98 2 4 \; add-rect 100 98 2 4 \; add-rect
112 98 2 4 \; add-rect 125 98 2 4;
#X msg 412 725 \; add-seg 88 100 \$2 \$1 2 \;;
#X msg 421 99 \; add-vector 50 100 0 14 4;
#X msg 421 136 \; add-vector 50 100 10 10 4;
#X msg 693 272 \; add-vector 100 100 -70 -20 5;
#X msg 686 377 \; add-vector 100 100 20 -70 5;
#X msg 688 322 \; add-vector 100 100 -35 -63 5;
#X msg 693 183 \; add-haxis 10 100 180 177;
#X msg 693 224 \; add-vaxis 100 10 180 177;
#X msg 695 535 \; add-arc 6 30 22;
#X obj 23 213 scanner 300 76;
#X msg 638 453 \; add-vector 100 100 63 35 5;
#X msg 656 605 \; add-arc 6 30 38;
#X connect 13 0 14 0;
#X connect 15 0 18 0;
#X connect 17 0 13 0;
#X connect 17 1 15 0;
#X connect 18 0 19 0;
#X connect 19 0 20 0;
#X connect 20 0 13 1;
#X connect 23 0 22 0;
#X connect 24 0 23 0;
#X connect 24 1 25 0;
#X connect 25 0 43 0;
#X connect 26 0 44 0;
#X connect 27 0 26 0;
#X connect 27 1 25 1;
#X connect 27 1 26 1;
#X connect 29 0 28 0;
#X connect 30 0 29 0;
#X connect 30 1 31 0;
#X connect 31 0 29 1;
#X connect 32 0 29 2;
#X connect 34 0 32 0;
#X connect 35 0 31 1;
#X connect 35 0 32 1;
#X connect 39 0 27 1;
#X connect 40 0 39 0;
#X connect 41 0 39 0;
#X connect 42 0 39 0;
#X connect 43 0 23 1;
#X connect 44 0 23 2;
#X connect 45 0 24 0;
#X connect 45 1 27 0;
#X connect 47 0 54 0;
#X connect 48 0 47 0;
#X connect 48 1 47 1;
#X connect 48 1 57 0;
#X connect 49 0 48 1;
#X connect 50 0 49 0;
#X connect 51 0 49 0;
#X connect 52 0 49 0;
#X connect 53 0 55 1;
#X connect 54 0 55 0;
#X connect 55 0 60 0;
#X connect 56 0 48 0;
#X connect 57 0 53 0;
#X connect 69 0 30 0;
#X connect 69 1 34 0;
#X connect 69 2 35 0;
#X restore 170 83 pd make-fig;
