#N struct haxis float x float y float w float w-3;
#N struct vaxis float x float y float h float h-3;
#N struct xy-plot float x float y float w array z xy-point;
#N struct xy-point float x float y;
#N struct circle float x float y float color float h float h2;
#N struct pole float x float y float x1 float x2;
#N struct xy-curve float x float y float w array z xy-point;
#N struct seg float x float y float dx float dy float w;
#N struct l-curve-arrow float x float y float z float z2 float z3 float
h;
#N struct circle2 float x float y float h float h2 float mh float mh2
;
#N struct d-curve-arrow float x float y float z float z2 float z3 float
h;
#N struct u-curve-arrow float x float y float z float z2 float z3 float
h;
#N struct r-curve-arrow float x float y float z float z2 float z3 float
h;
#N struct r-arrow float x float y float z;
#N struct l-arrow float x float y float z;
#N struct u-arrow float x float y float z;
#N struct d-arrow float x float y float z;
#N struct v-seg float x float y float z float w;
#N struct h-seg float x float y float z float w;
#N struct rect float x float y float w float h;
#N struct frame float x float y float w float h;
#N struct y-plot float x float y float w array z y-point;
#N struct y-point float y;
#N struct thickcircle float x float y float color float h float h2
;
#N struct times float x float y;
#N struct plus float x float y;
#N struct minus float x float y;
#N struct divide float x float y;
#N canvas 138 175 294 185 10;
#N canvas 182 719 373 204 fig 1;
#X text 84 183 (a);
#X text 275 182 (b);
#X scalar haxis 19 111 160 157 \;;
#X scalar vaxis 99 31 160 157 \;;
#X scalar xy-plot -1 11 1 \; 165 100 \; 164.872 104.081 \; 164.487
108.146 \; 163.849 112.179 \; 162.958 116.164 \; 161.819 120.086 \;
160.436 123.927 \; 158.814 127.675 \; 156.96 131.313 \; 154.882 134.828
\; 152.587 138.205 \; 150.084 141.432 \; 147.384 144.495 \; 144.497
147.382 \; 141.434 150.082 \; 138.208 152.585 \; 134.83 154.88 \; 131.316
156.959 \; 127.678 158.813 \; 123.93 160.435 \; 120.088 161.818 \;
116.167 162.957 \; 112.182 163.848 \; 108.149 164.487 \; 104.084 164.872
\; 100.003 165 \; 95.9217 164.872 \; 91.8566 164.488 \; 87.8235 163.849
\; 83.8385 162.959 \; 79.9173 161.82 \; 76.0754 160.437 \; 72.3278
158.815 \; 68.6895 156.962 \; 65.1747 154.884 \; 61.7974 152.589 \;
58.5708 150.086 \; 55.5077 147.386 \; 52.6202 144.499 \; 49.9196 141.436
\; 47.4167 138.21 \; 45.1213 134.833 \; 43.0425 131.318 \; 41.1884
127.68 \; 39.5665 123.933 \; 38.183 120.091 \; 37.0435 116.17 \; 36.1524
112.185 \; 35.5133 108.152 \; 35.1286 104.087 \; 35 100.006 \; 35.1279
95.9248 \; 35.5118 91.8596 \; 36.1501 87.8265 \; 37.0405 83.8414 \;
38.1793 79.9202 \; 39.562 76.0782 \; 41.1833 72.3306 \; 43.0367 68.6921
\; 45.1149 65.1773 \; 47.4097 61.7998 \; 49.912 58.5731 \; 52.6119
55.5099 \; 55.4989 52.6222 \; 58.5615 49.9216 \; 61.7876 47.4185 \;
65.1646 45.1229 \; 68.6789 43.044 \; 72.3169 41.1897 \; 76.0642 39.5676
\; 79.9059 38.1839 \; 83.8269 37.0442 \; 87.8117 36.153 \; 91.8446
35.5136 \; 95.9097 35.1288 \; 99.991 35 \; 104.072 35.1277 \; 108.137
35.5114 \; 112.171 36.1496 \; 116.156 37.0397 \; 120.077 38.1783 \;
123.919 39.5609 \; 127.667 41.182 \; 131.305 43.0353 \; 134.82 45.1133
\; 138.198 47.4079 \; 141.425 49.91 \; 144.488 52.6099 \; 147.376 55.4967
\; 150.077 58.5592 \; 152.58 61.7852 \; 154.875 65.162 \; 156.955 68.6763
\; 158.809 72.3142 \; 160.431 76.0614 \; 161.815 79.903 \; 162.955
83.8239 \; 163.846 87.8087 \; 164.486 91.8416 \; 164.871 95.9067 \;
165 99.988 \; \;;
#X scalar circle 34 111 999 4 -4 \;;
#X scalar haxis 204 111 160 157 \;;
#X scalar vaxis 284 31 160 157 \;;
#X scalar xy-plot 184 11 1 \; 165 100 \; 164.872 104.081 \; 164.487
108.146 \; 163.849 112.179 \; 162.958 116.164 \; 161.819 120.086 \;
160.436 123.927 \; 158.814 127.675 \; 156.96 131.313 \; 154.882 134.828
\; 152.587 138.205 \; 150.084 141.432 \; 147.384 144.495 \; 144.497
147.382 \; 141.434 150.082 \; 138.208 152.585 \; 134.83 154.88 \; 131.316
156.959 \; 127.678 158.813 \; 123.93 160.435 \; 120.088 161.818 \;
116.167 162.957 \; 112.182 163.848 \; 108.149 164.487 \; 104.084 164.872
\; 100.003 165 \; 95.9217 164.872 \; 91.8566 164.488 \; 87.8235 163.849
\; 83.8385 162.959 \; 79.9173 161.82 \; 76.0754 160.437 \; 72.3278
158.815 \; 68.6895 156.962 \; 65.1747 154.884 \; 61.7974 152.589 \;
58.5708 150.086 \; 55.5077 147.386 \; 52.6202 144.499 \; 49.9196 141.436
\; 47.4167 138.21 \; 45.1213 134.833 \; 43.0425 131.318 \; 41.1884
127.68 \; 39.5665 123.933 \; 38.183 120.091 \; 37.0435 116.17 \; 36.1524
112.185 \; 35.5133 108.152 \; 35.1286 104.087 \; 35 100.006 \; 35.1279
95.9248 \; 35.5118 91.8596 \; 36.1501 87.8265 \; 37.0405 83.8414 \;
38.1793 79.9202 \; 39.562 76.0782 \; 41.1833 72.3306 \; 43.0367 68.6921
\; 45.1149 65.1773 \; 47.4097 61.7998 \; 49.912 58.5731 \; 52.6119
55.5099 \; 55.4989 52.6222 \; 58.5615 49.9216 \; 61.7876 47.4185 \;
65.1646 45.1229 \; 68.6789 43.044 \; 72.3169 41.1897 \; 76.0642 39.5676
\; 79.9059 38.1839 \; 83.8269 37.0442 \; 87.8117 36.153 \; 91.8446
35.5136 \; 95.9097 35.1288 \; 99.991 35 \; 104.072 35.1277 \; 108.137
35.5114 \; 112.171 36.1496 \; 116.156 37.0397 \; 120.077 38.1783 \;
123.919 39.5609 \; 127.667 41.182 \; 131.305 43.0353 \; 134.82 45.1133
\; 138.198 47.4079 \; 141.425 49.91 \; 144.488 52.6099 \; 147.376 55.4967
\; 150.077 58.5592 \; 152.58 61.7852 \; 154.875 65.162 \; 156.955 68.6763
\; 158.809 72.3142 \; 160.431 76.0614 \; 161.815 79.903 \; 162.955
83.8239 \; 163.846 87.8087 \; 164.486 91.8416 \; 164.871 95.9067 \;
165 99.988 \; \;;
#X scalar circle 349 111 999 4 -4 \;;
#X scalar circle 219 111 999 4 -4 \;;
#X scalar pole 157.814 110.299 3 -3 \;;
#X scalar pole 284.814 163.299 3 -3 \;;
#X scalar pole 284.814 58.2993 3 -3 \;;
#X coords 0 204 1 203 0 0 0;
#X restore 51 61 pd fig;
#N canvas 589 104 566 606 hash 0;
#X coords 0 606 1 605 0 0 0;
#X restore 205 62 pd hash;
#N canvas 110 321 1028 625 put-in-graph 0;
#X msg 810 11 \; pd-xxx clear \; start pd-xxx;
#X msg 796 566 \; add-xy-plot 101 0 0 1;
#X msg 505 561 \; start pd-xxx;
#X msg 604 563 \; add-xy-plot 101 150 150 1;
#X obj 572 501 print;
#X obj 618 476 pack 0 0 0;
#X msg 617 502 \; add-circle \$2 \$3 \$1 4 -4;
#X msg 132 26 \; pd dsp 1 \; pd-xxx clear \; start pd-xxx;
#X msg 348 8 \; add-circle2 100 100 70 50 -70 -50 \; add-haxis 20 100
160 157 \; add-vaxis 100 20 160 157;
#X msg 607 4 \; add-h-seg 220 40 200 1 \; add-u-arrow 220 165 -125
\; add-u-arrow 420 165 -125 \; add-xy-plot 51 220 0 1;
#X msg 804 501 \; add-circle 30 100 999 4 -4;
#X floatatom 501 169 5 0 0 0 - - -;
#X msg 501 145 0.8;
#X obj 501 123 loadbang;
#X obj 650 430 expr 100 + 65 * $f1;
#X obj 683 452 expr 100 + 65 * $f1;
#X obj 618 398 unpack 0 0 0;
#X msg 613 254 0 0.9 0;
#X msg 672 254 999 -1 0;
#X msg 796 305 999 1 0;
#X msg 855 305 999 -1 0;
#X msg 666 306 0 0 0.81;
#X msg 729 305 0 0 -0.81;
#X obj 263 203 scanner 100 6.283;
#X obj 263 310 pack 0 0 0;
#X obj 263 334 s xy-plot-point;
#X obj 377 245 expr 100 + 65*sin($f1);
#X obj 320 275 expr 100 + 65*cos($f1);
#X msg 262 128 \; start pd-xxx \; add-haxis 20 100 160 157 \; add-vaxis
100 20 160 157 \; add-xy-plot 101 0 0 1;
#X connect 5 0 4 0;
#X connect 5 0 6 0;
#X connect 12 0 11 0;
#X connect 13 0 12 0;
#X connect 14 0 5 1;
#X connect 15 0 5 2;
#X connect 16 0 5 0;
#X connect 16 1 14 0;
#X connect 16 2 15 0;
#X connect 17 0 16 0;
#X connect 18 0 16 0;
#X connect 19 0 16 0;
#X connect 20 0 16 0;
#X connect 21 0 16 0;
#X connect 22 0 16 0;
#X connect 23 0 24 0;
#X connect 23 1 27 0;
#X connect 23 2 26 0;
#X connect 24 0 25 0;
#X connect 26 0 24 2;
#X connect 27 0 24 1;
#X restore 156 91 pd put-in-graph;
#N canvas 398 0 548 204 xxx 0;
#X scalar haxis 20 100 160 157 \;;
#X scalar vaxis 100 20 160 157 \;;
#X scalar xy-plot 0 0 1 \; 165 100 \; 164.872 104.081 \; 164.487 108.146
\; 163.849 112.179 \; 162.958 116.164 \; 161.819 120.086 \; 160.436
123.927 \; 158.814 127.675 \; 156.96 131.313 \; 154.882 134.828 \;
152.587 138.205 \; 150.084 141.432 \; 147.384 144.495 \; 144.497 147.382
\; 141.434 150.082 \; 138.208 152.585 \; 134.83 154.88 \; 131.316 156.959
\; 127.678 158.813 \; 123.93 160.435 \; 120.088 161.818 \; 116.167
162.957 \; 112.182 163.848 \; 108.149 164.487 \; 104.084 164.872 \;
100.003 165 \; 95.9217 164.872 \; 91.8566 164.488 \; 87.8235 163.849
\; 83.8385 162.959 \; 79.9173 161.82 \; 76.0754 160.437 \; 72.3278
158.815 \; 68.6895 156.962 \; 65.1747 154.884 \; 61.7974 152.589 \;
58.5708 150.086 \; 55.5077 147.386 \; 52.6202 144.499 \; 49.9196 141.436
\; 47.4167 138.21 \; 45.1213 134.833 \; 43.0425 131.318 \; 41.1884
127.68 \; 39.5665 123.933 \; 38.183 120.091 \; 37.0435 116.17 \; 36.1524
112.185 \; 35.5133 108.152 \; 35.1286 104.087 \; 35 100.006 \; 35.1279
95.9248 \; 35.5118 91.8596 \; 36.1501 87.8265 \; 37.0405 83.8414 \;
38.1793 79.9202 \; 39.562 76.0782 \; 41.1833 72.3306 \; 43.0367 68.6921
\; 45.1149 65.1773 \; 47.4097 61.7998 \; 49.912 58.5731 \; 52.6119
55.5099 \; 55.4989 52.6222 \; 58.5615 49.9216 \; 61.7876 47.4185 \;
65.1646 45.1229 \; 68.6789 43.044 \; 72.3169 41.1897 \; 76.0642 39.5676
\; 79.9059 38.1839 \; 83.8269 37.0442 \; 87.8117 36.153 \; 91.8446
35.5136 \; 95.9097 35.1288 \; 99.991 35 \; 104.072 35.1277 \; 108.137
35.5114 \; 112.171 36.1496 \; 116.156 37.0397 \; 120.077 38.1783 \;
123.919 39.5609 \; 127.667 41.182 \; 131.305 43.0353 \; 134.82 45.1133
\; 138.198 47.4079 \; 141.425 49.91 \; 144.488 52.6099 \; 147.376 55.4967
\; 150.077 58.5592 \; 152.58 61.7852 \; 154.875 65.162 \; 156.955 68.6763
\; 158.809 72.3142 \; 160.431 76.0614 \; 161.815 79.903 \; 162.955
83.8239 \; 163.846 87.8087 \; 164.486 91.8416 \; 164.871 95.9067 \;
165 99.988 \; \;;
#X scalar circle 158.5 100 0 4 -4 \;;
#X scalar circle 35 100 999 4 -4 \;;
#X scalar haxis 205 100 160 157 \;;
#X scalar vaxis 285 20 160 157 \;;
#X scalar xy-plot 185 0 1 \; 165 100 \; 164.872 104.081 \; 164.487
108.146 \; 163.849 112.179 \; 162.958 116.164 \; 161.819 120.086 \;
160.436 123.927 \; 158.814 127.675 \; 156.96 131.313 \; 154.882 134.828
\; 152.587 138.205 \; 150.084 141.432 \; 147.384 144.495 \; 144.497
147.382 \; 141.434 150.082 \; 138.208 152.585 \; 134.83 154.88 \; 131.316
156.959 \; 127.678 158.813 \; 123.93 160.435 \; 120.088 161.818 \;
116.167 162.957 \; 112.182 163.848 \; 108.149 164.487 \; 104.084 164.872
\; 100.003 165 \; 95.9217 164.872 \; 91.8566 164.488 \; 87.8235 163.849
\; 83.8385 162.959 \; 79.9173 161.82 \; 76.0754 160.437 \; 72.3278
158.815 \; 68.6895 156.962 \; 65.1747 154.884 \; 61.7974 152.589 \;
58.5708 150.086 \; 55.5077 147.386 \; 52.6202 144.499 \; 49.9196 141.436
\; 47.4167 138.21 \; 45.1213 134.833 \; 43.0425 131.318 \; 41.1884
127.68 \; 39.5665 123.933 \; 38.183 120.091 \; 37.0435 116.17 \; 36.1524
112.185 \; 35.5133 108.152 \; 35.1286 104.087 \; 35 100.006 \; 35.1279
95.9248 \; 35.5118 91.8596 \; 36.1501 87.8265 \; 37.0405 83.8414 \;
38.1793 79.9202 \; 39.562 76.0782 \; 41.1833 72.3306 \; 43.0367 68.6921
\; 45.1149 65.1773 \; 47.4097 61.7998 \; 49.912 58.5731 \; 52.6119
55.5099 \; 55.4989 52.6222 \; 58.5615 49.9216 \; 61.7876 47.4185 \;
65.1646 45.1229 \; 68.6789 43.044 \; 72.3169 41.1897 \; 76.0642 39.5676
\; 79.9059 38.1839 \; 83.8269 37.0442 \; 87.8117 36.153 \; 91.8446
35.5136 \; 95.9097 35.1288 \; 99.991 35 \; 104.072 35.1277 \; 108.137
35.5114 \; 112.171 36.1496 \; 116.156 37.0397 \; 120.077 38.1783 \;
123.919 39.5609 \; 127.667 41.182 \; 131.305 43.0353 \; 134.82 45.1133
\; 138.198 47.4079 \; 141.425 49.91 \; 144.488 52.6099 \; 147.376 55.4967
\; 150.077 58.5592 \; 152.58 61.7852 \; 154.875 65.162 \; 156.955 68.6763
\; 158.809 72.3142 \; 160.431 76.0614 \; 161.815 79.903 \; 162.955
83.8239 \; 163.846 87.8087 \; 164.486 91.8416 \; 164.871 95.9067 \;
165 99.988 \; \;;
#X scalar circle 285 152.65 0 4 -4 \;;
#X scalar circle 285 47.35 0 4 -4 \;;
#X scalar circle 350 100 999 4 -4 \;;
#X scalar circle 220 100 999 4 -4 \;;
#X coords 0 204 1 203 0 0 0;
#X restore 44 119 pd xxx;
#X obj 47 89 templates;
