#N canvas 569 255 401 202 10;
#X obj 30 105 lop~;
#X obj 29 41 noise~;
#X floatatom 53 86 5 0 0 0 - - -;
#X text 64 107 low-pass filter;
#X text 93 85 <-- cutoff;
#X text 80 42 white noise \,;
#X text 80 55 test signal;
#X text 28 119 |;
#X obj 220 60 +~ 1;
#X obj 219 106 hip~ 5;
#X text 272 109 high-pass filter;
#X floatatom 256 83 5 0 0 0 - - -;
#X text 265 60 add "DC";
#X obj 220 35 osc~ 220;
#X text 285 28 sinusoidal;
#X text 285 41 test signal;
#X text 217 120 |;
#X text 73 159 (a);
#X text 278 156 (b);
#X text 14 132 (OUT);
#X text 204 133 (OUT);
#X connect 1 0 0 0;
#X connect 2 0 0 1;
#X connect 8 0 9 0;
#X connect 11 0 9 1;
#X connect 13 0 8 0;
