#N struct haxis float x float y float w float w-3;
#N struct vaxis float x float y float h float h-3;
#N struct v-seg float x float y float z float w;
#N struct seg float x float y float dx float dy float w;
#N struct rect float x float y float w float h;
#N struct xy-curve float x float y float w array z xy-point;
#N struct xy-point float x float y;
#N struct l-curve-arrow float x float y float z float z2 float z3 float
h;
#N struct circle2 float x float y float h float h2 float mh float mh2
;
#N struct xy-plot float x float y float w array z xy-point;
#N struct d-curve-arrow float x float y float z float z2 float z3 float
h;
#N struct circle float x float y float color float h float h2;
#N struct u-curve-arrow float x float y float z float z2 float z3 float
h;
#N struct r-curve-arrow float x float y float z float z2 float z3 float
h;
#N struct r-arrow float x float y float z;
#N struct l-arrow float x float y float z;
#N struct u-arrow float x float y float z;
#N struct d-arrow float x float y float z;
#N struct h-seg float x float y float z float w;
#N struct frame float x float y float w float h;
#N struct y-plot float x float y float w array z y-point;
#N struct y-point float y;
#N struct thickcircle float x float y float color float h float h2
;
#N struct times float x float y;
#N struct plus float x float y;
#N struct minus float x float y;
#N struct divide float x float y;
#N canvas 462 45 482 287 10;
#N canvas 238 376 364 318 fig 1;
#X scalar haxis 9 67 330 327 \;;
#X scalar vaxis 46 14 300 297 \;;
#X scalar v-seg 139 65 3 2 \;;
#X text 50 21 input;
#X text 50 37 time;
#X text 212 254 output time;
#X scalar seg 46 67 200 200 1 \;;
#X scalar seg 138 67 200 200 1 \;;
#X text 135 252 D;
#X scalar rect 45 36 2 2 \;;
#X scalar rect 50 41 2 2 \;;
#X scalar rect 55 46 2 2 \;;
#X scalar rect 60 51 2 2 \;;
#X scalar rect 65 56 2 2 \;;
#X scalar rect 70 61 2 2 \;;
#X scalar rect 75 66 2 2 \;;
#X scalar rect 80 71 2 2 \;;
#X scalar rect 85 76 2 2 \;;
#X scalar rect 90 81 2 2 \;;
#X scalar rect 95 86 2 2 \;;
#X scalar rect 100 91 2 2 \;;
#X scalar rect 105 96 2 2 \;;
#X scalar rect 110 101 2 2 \;;
#X scalar rect 115 106 2 2 \;;
#X scalar rect 120 111 2 2 \;;
#X scalar rect 125 116 2 2 \;;
#X scalar rect 130 121 2 2 \;;
#X scalar rect 135 126 2 2 \;;
#X scalar rect 140 131 2 2 \;;
#X scalar rect 145 136 2 2 \;;
#X scalar rect 150 139 2 2 \;;
#X scalar rect 155 142 2 2 \;;
#X scalar rect 160 145 2 2 \;;
#X scalar rect 165 148 2 2 \;;
#X scalar rect 170 151 2 2 \;;
#X scalar rect 175 154 2 2 \;;
#X scalar rect 180 157 2 2 \;;
#X scalar rect 185 160 2 2 \;;
#X scalar rect 190 163 2 2 \;;
#X scalar rect 195 166 2 2 \;;
#X scalar rect 200 169 2 2 \;;
#X scalar rect 205 172 2 2 \;;
#X scalar rect 210 175 2 2 \;;
#X scalar rect 215 178 2 2 \;;
#X scalar rect 220 181 2 2 \;;
#X scalar rect 225 184 2 2 \;;
#X scalar rect 230 187 2 2 \;;
#X scalar rect 235 190 2 2 \;;
#X scalar rect 240 193 2 2 \;;
#X scalar rect 245 196 2 2 \;;
#X scalar rect 250 199 2 2 \;;
#X scalar rect 255 202 2 2 \;;
#X scalar rect 260 205 2 2 \;;
#X scalar rect 265 208 2 2 \;;
#X scalar rect 270 211 2 2 \;;
#X scalar rect 275 216 2 2 \;;
#X scalar rect 280 221 2 2 \;;
#X scalar rect 285 226 2 2 \;;
#X scalar rect 290 231 2 2 \;;
#X scalar rect 295 236 2 2 \;;
#X scalar rect 300 241 2 2 \;;
#X scalar rect 305 246 2 2 \;;
#X scalar rect 310 251 2 2 \;;
#X scalar rect 315 256 2 2 \;;
#X scalar rect 320 261 2 2 \;;
#X scalar rect 325 266 2 2 \;;
#X coords 0 318 1 317 0 0 0;
#X restore 29 21 pd fig;
#X obj 27 47 templates;
#N canvas 12 52 594 528 xxx 1;
#X coords 0 528 1 527 0 0 0;
#X restore 31 83 pd xxx;
#N canvas 714 316 647 566 put-in-graph 0;
#X obj 19 141 until;
#X obj 77 155 f;
#X obj 123 156 + 1;
#X obj 17 89 bng 15 250 50 0 empty empty empty 0 -6 0 8 -262144 -1
-1;
#X obj 18 113 t b b;
#X msg 99 102 0;
#X obj 82 212 sel 1;
#X msg 17 6 \; pd-xxx clear \; start pd-xxx;
#X msg 73 450 \; add-rect \$1 \$2 2 2;
#X obj 70 420 pack 0 0;
#X obj 52 242 t f f;
#X obj 81 184 >= 60;
#X obj 52 276 expr $f1*5+20;
#X obj 94 324 expr $f1*5+20;
#X obj 178 275 moses 20;
#X obj 258 273 moses 45;
#X obj 219 327 expr $f1*5+20 - 2*($f1-20);
#X obj 265 357 expr $f1*5-30;
#X connect 0 0 1 0;
#X connect 1 0 2 0;
#X connect 1 0 10 0;
#X connect 1 0 11 0;
#X connect 2 0 1 1;
#X connect 3 0 4 0;
#X connect 4 0 0 0;
#X connect 4 1 5 0;
#X connect 5 0 1 1;
#X connect 6 0 0 1;
#X connect 9 0 8 0;
#X connect 10 0 12 0;
#X connect 10 1 14 0;
#X connect 11 0 6 0;
#X connect 12 0 9 0;
#X connect 13 0 9 1;
#X connect 14 0 13 0;
#X connect 14 1 15 0;
#X connect 15 0 16 0;
#X connect 15 1 17 0;
#X connect 16 0 9 1;
#X connect 17 0 9 1;
#X restore 31 108 pd put-in-graph;
