#N struct haxis float x float y float w float w-3;
#N struct vaxis float x float y float h float h-3;
#N struct y-plot float x float y float w array z y-point;
#N struct y-point float y;
#N struct h-seg float x float y float z float w;
#N struct xy-curve float x float y float w array z xy-point;
#N struct xy-point float x float y;
#N struct seg float x float y float dx float dy float w;
#N struct l-curve-arrow float x float y float z float z2 float z3 float
h;
#N struct circle2 float x float y float h float h2 float mh float mh2
;
#N struct xy-plot float x float y float w array z xy-point;
#N struct d-curve-arrow float x float y float z float z2 float z3 float
h;
#N struct circle float x float y float color float h float h2;
#N struct u-curve-arrow float x float y float z float z2 float z3 float
h;
#N struct r-curve-arrow float x float y float z float z2 float z3 float
h;
#N struct r-arrow float x float y float z;
#N struct l-arrow float x float y float z;
#N struct u-arrow float x float y float z;
#N struct d-arrow float x float y float z;
#N struct v-seg float x float y float z float w;
#N struct rect float x float y float w float h;
#N struct frame float x float y float w float h;
#N struct thickcircle float x float y float color float h float h2
;
#N canvas 88 419 567 323 10;
#N canvas 306 193 698 622 buildit 1;
#X obj 36 478 pack;
#X msg 36 509 \; y-plot-point \$1 \$2 \;;
#X msg 31 21 \; pd-zzz clear;
#X msg 390 21 \; start pd-zzz \; add-haxis 50 75 300 297 \; add-vaxis
75 25 100 97 \; add-y-plot 251 75 75 1 \; add-pts-02b bang;
#X obj 142 176 tgl 15 0 empty empty empty 0 -6 0 8 -262144 -1 -1 1
1;
#X obj 98 173 swap;
#X obj 103 224 route 0 1;
#X obj 45 74 r add-pts-02;
#X obj 99 200 pack;
#X obj 46 97 t b b b;
#X obj 100 275 f;
#X obj 598 146 loadbang;
#X msg 599 171 0.8;
#X obj 326 199 expr 55 * ((-$f2)*exp(-0.2*pow($f1-5 \, 2)) + (1-$f2*$f2)*exp(-0.2*pow($f1-15
\, 2)) + $f2*(1-$f2*$f2)*exp(-0.2*pow($f1-25 \, 2)) + $f2*$f2*(1-$f2*$f2)*exp(-0.2*pow($f1-35
\, 2))+ $f2*$f2*$f2*(1-$f2*$f2)*exp(-0.2*pow($f1-45 \, 2)));
#X obj 175 356 max;
#X obj 173 330 abs;
#X obj 239 310 t f f;
#X obj 239 335 *;
#X obj 241 357 +;
#X obj 147 356 f;
#X obj 147 308 t b f;
#X msg 111 99 0;
#X obj 211 358 f;
#X obj 202 488 + 75;
#X obj 216 407 sqrt;
#X obj 133 423 f;
#X floatatom 244 477 5 0 0 0 - - -;
#X obj 112 472 print;
#X obj 175 423 f;
#X floatatom 293 482 5 0 0 0 - - -;
#X floatatom 271 415 5 0 0 0 - - -;
#X obj 33 126 scanner 200 50;
#X obj 212 383 / 201;
#X obj 100 250 expr 35 * cos(1+$f1*0.46);
#X msg 389 527 \; add-h-seg 80 \$1 240 1;
#X obj 311 438 * -1;
#X obj 313 461 - 1;
#X msg 190 21 \; start pd-zzz \; add-haxis 50 75 250 247 \; add-vaxis
75 25 100 97 \; add-y-plot 201 75 75 1 \; add-pts-02 bang;
#X msg 202 523 \; add-h-seg 90 \$1 190 1;
#X connect 0 0 1 0;
#X connect 4 0 5 1;
#X connect 5 0 8 0;
#X connect 5 1 8 1;
#X connect 6 0 33 0;
#X connect 6 1 13 0;
#X connect 7 0 9 0;
#X connect 8 0 6 0;
#X connect 9 0 25 0;
#X connect 9 0 28 0;
#X connect 9 1 31 0;
#X connect 9 2 21 0;
#X connect 10 0 0 1;
#X connect 10 0 20 0;
#X connect 11 0 12 0;
#X connect 12 0 13 1;
#X connect 13 0 10 0;
#X connect 14 0 19 1;
#X connect 15 0 14 1;
#X connect 16 0 17 0;
#X connect 16 1 17 1;
#X connect 17 0 18 1;
#X connect 18 0 22 1;
#X connect 19 0 14 0;
#X connect 19 0 25 1;
#X connect 20 0 19 0;
#X connect 20 0 22 0;
#X connect 20 1 15 0;
#X connect 20 1 16 0;
#X connect 21 0 19 1;
#X connect 21 0 22 1;
#X connect 22 0 18 0;
#X connect 22 0 32 0;
#X connect 23 0 38 0;
#X connect 24 0 28 1;
#X connect 25 0 23 0;
#X connect 25 0 27 0;
#X connect 25 0 26 0;
#X connect 25 0 35 0;
#X connect 28 0 23 0;
#X connect 28 0 29 0;
#X connect 30 0 23 0;
#X connect 31 0 0 0;
#X connect 31 2 5 0;
#X connect 32 0 24 0;
#X connect 33 0 10 0;
#X connect 35 0 36 0;
#X connect 36 0 23 0;
#X restore 289 55 pd buildit;
#N canvas 25 487 298 259 fig 1;
#X text 4 -4 (a);
#X scalar haxis 16 211 250 247 \;;
#X scalar vaxis 41 161 100 97 \;;
#X scalar y-plot 41 211 1 \; 18.9106 \; 15.4062 \; 11.6983 \; 7.83589
\; 3.86994 \; -0.14713 \; -4.16226 \; -8.1224 \; -11.9752 \; -15.6699
\; -19.1575 \; -22.3921 \; -25.3308 \; -27.9349 \; -30.17 \; -32.0066
\; -33.4203 \; -34.3925 \; -34.9103 \; -34.967 \; -34.5618 \; -33.7
\; -32.393 \; -30.658 \; -28.5181 \; -26.0014 \; -23.1413 \; -19.9754
\; -16.5456 \; -12.8973 \; -9.07859 \; -5.13996 \; -1.13341 \; 2.8881
\; 6.87145 \; 10.764 \; 14.5144 \; 18.0731 \; 21.393 \; 24.4303 \;
27.1448 \; 29.5008 \; 31.467 \; 33.0175 \; 34.1319 \; 34.7954 \; 34.9992
\; 34.7406 \; 34.0232 \; 32.8562 \; 31.2552 \; 29.2413 \; 26.8412 \;
24.0864 \; 21.0134 \; 17.6629 \; 14.079 \; 10.3091 \; 6.40309 \; 2.41245
\; -1.61009 \; -5.61133 \; -9.53845 \; -13.3396 \; -16.9645 \; -20.3652
\; -23.497 \; -26.3183 \; -28.792 \; -30.8853 \; -32.5706 \; -33.8256
\; -34.6338 \; -34.9845 \; -34.873 \; -34.3008 \; -33.2755 \; -31.8106
\; -29.9254 \; -27.645 \; -24.9993 \; -22.0234 \; -18.7565 \; -15.2419
\; -11.5259 \; -7.65763 \; -3.68823 \; 0.329899 \; 4.34367 \; 8.30009
\; 12.1468 \; 15.8331 \; 19.3102 \; 22.5323 \; 25.4566 \; 28.0447 \;
30.2623 \; 32.0801 \; 33.4741 \; 34.4259 \; 34.9229 \; 34.9586 \; 34.5325
\; 33.6502 \; 32.3233 \; 30.5695 \; 28.4118 \; 25.8787 \; 23.0038 \;
19.825 \; 16.3843 \; 12.7272 \; 8.90195 \; 4.9591 \; 0.950705 \; -3.07022
\; -7.05058 \; -10.9378 \; -14.6805 \; -18.2294 \; -21.5374 \; -24.5608
\; -27.2598 \; -29.5987 \; -31.5466 \; -33.0777 \; -34.1719 \; -34.8146
\; -34.9975 \; -34.718 \; -33.9798 \; -32.7928 \; -31.1725 \; -29.1405
\; -26.7235 \; -23.9534 \; -20.867 \; -17.5048 \; -13.9115 \; -10.1343
\; -6.2233 \; -2.23007 \; 1.79263 \; 5.79164 \; 9.71415 \; 13.5084
\; 17.1241 \; 20.5136 \; 23.6321 \; 26.4385 \; 28.8955 \; 30.9709 \;
32.6371 \; 33.8721 \; 34.6597 \; 34.9894 \; 34.8569 \; 34.264 \; 33.2183
\; 31.7339 \; 29.8302 \; 27.5325 \; 24.871 \; 21.881 \; 18.6019 \;
15.0771 \; 11.3532 \; 7.47921 \; 3.50645 \; -0.512634 \; -4.52501 \;
-8.47754 \; -12.3181 \; -15.9959 \; -19.4624 \; -22.6718 \; -25.5817
\; -28.1536 \; -30.3537 \; -32.1527 \; -33.527 \; -34.4584 \; -34.9346
\; -34.9493 \; -34.5022 \; -33.5994 \; -32.2528 \; -30.48 \; -28.3046
\; -25.7553 \; -22.8658 \; -19.6741 \; -16.2226 \; -12.5568 \; -8.7251
\; -4.77806 \; -0.767978 \; 3.25225 \; 7.22952 \; 11.1113 \; 14.8463
\; \;;
#X scalar h-seg 56 245.999 190 1 \;;
#X scalar h-seg 56 175.001 190 1 \;;
#X scalar h-seg 56 235.242 190 1 \;;
#X scalar haxis 16 86 250 247 \;;
#X scalar vaxis 41 36 100 97 \;;
#X scalar y-plot 41 86 1 \; -0.29647 \; -0.482724 \; -0.766584 \; -1.18731
\; -1.79354 \; -2.64241 \; -3.79692 \; -5.32115 \; -7.27315 \; -9.69577
\; -12.6062 \; -15.9856 \; -19.7705 \; -23.8477 \; -28.0556 \; -32.1911
\; -36.0242 \; -39.3183 \; -41.8541 \; -43.4534 \; -44 \; -43.4534
\; -41.8541 \; -39.3183 \; -36.0242 \; -32.1911 \; -28.0556 \; -23.8477
\; -19.7704 \; -15.9855 \; -12.6059 \; -9.69523 \; -7.27205 \; -5.31897
\; -3.79268 \; -2.63439 \; -1.77875 \; -1.16071 \; -0.719899 \; -0.402811
\; -0.163058 \; 0.0396415 \; 0.241217 \; 0.475176 \; 0.774242 \; 1.17128
\; 1.6992 \; 2.38967 \; 3.27048 \; 4.3619 \; 5.67222 \; 7.19326 \;
8.89659 \; 10.7314 \; 12.625 \; 14.486 \; 16.2109 \; 17.6932 \; 18.8343
\; 19.554 \; 19.8 \; 19.554 \; 18.8343 \; 17.6932 \; 16.2109 \; 14.486
\; 12.625 \; 10.7315 \; 8.89676 \; 7.19362 \; 5.673 \; 4.36353 \; 3.2738
\; 2.39626 \; 1.712 \; 1.19549 \; 0.818917 \; 0.55557 \; 0.382311 \;
0.281156 \; 0.24014 \; 0.253693 \; 0.322656 \; 0.454032 \; 0.660456
\; 0.959278 \; 1.37113 \; 1.9178 \; 2.61943 \; 3.49101 \; 4.53849 \;
5.75494 \; 7.11742 \; 8.58521 \; 10.1 \; 11.5888 \; 12.9687 \; 14.1546
\; 15.0675 \; 15.6432 \; 15.84 \; 15.6432 \; 15.0675 \; 14.1546 \;
12.9687 \; 11.5888 \; 10.1 \; 8.58519 \; 7.11739 \; 5.7549 \; 4.5384
\; 3.49082 \; 2.61904 \; 1.91701 \; 1.3696 \; 0.956394 \; 0.655134
\; 0.444457 \; 0.30585 \; 0.224924 \; 0.192112 \; 0.202955 \; 0.258125
\; 0.363226 \; 0.528364 \; 0.767422 \; 1.0969 \; 1.53424 \; 2.09555
\; 2.79281 \; 3.63079 \; 4.60395 \; 5.69394 \; 6.86817 \; 8.08003 \;
9.27104 \; 10.375 \; 11.3237 \; 12.054 \; 12.5146 \; 12.672 \; 12.5146
\; 12.054 \; 11.3237 \; 10.375 \; 9.27103 \; 8.08003 \; 6.86816 \;
5.69392 \; 4.60392 \; 3.63072 \; 2.79266 \; 2.09523 \; 1.53361 \; 1.09568
\; 0.765115 \; 0.524107 \; 0.355565 \; 0.244679 \; 0.17994 \; 0.15369
\; 0.162364 \; 0.2065 \; 0.29058 \; 0.422692 \; 0.613938 \; 0.87752
\; 1.22739 \; 1.67644 \; 2.23425 \; 2.90464 \; 3.68316 \; 4.55515 \;
5.49454 \; 6.46403 \; 7.41683 \; 8.29996 \; 9.05893 \; 9.64318 \; 10.0117
\; 10.1376 \; 10.0117 \; 9.64318 \; 9.05893 \; 8.29996 \; 7.41683 \;
6.46402 \; 5.49452 \; 4.55512 \; 3.68309 \; 2.90447 \; 2.23391 \; 1.67573
\; 1.22599 \; 0.87481 \; 0.60881 \; 0.413231 \; 0.273556 \; 0.176621
\; 0.11122 \; 0.0683066 \; \;;
#X scalar h-seg 56 130 190 1 \;;
#X scalar h-seg 56 41 190 1 \;;
#X scalar h-seg 56 98.5903 190 1 \;;
#X text 7 119 (b);
#X text 247 2 peak;
#X text 247 17 RMS;
#X text 248 120 peak;
#X text 249 151 RMS;
#X coords 0 259 1 258 0 0 0;
#X restore 51 61 pd fig;
#X obj 289 81 templates;
#N canvas 96 390 496 350 zzz 1;
#X scalar haxis 50 75 250 247 \;;
#X scalar vaxis 75 25 100 97 \;;
#X scalar y-plot 75 75 1 \; -0.29647 \; -0.482724 \; -0.766584 \; -1.18731
\; -1.79354 \; -2.64241 \; -3.79692 \; -5.32115 \; -7.27315 \; -9.69577
\; -12.6062 \; -15.9856 \; -19.7705 \; -23.8477 \; -28.0556 \; -32.1911
\; -36.0242 \; -39.3183 \; -41.8541 \; -43.4534 \; -44 \; -43.4534
\; -41.8541 \; -39.3183 \; -36.0242 \; -32.1911 \; -28.0556 \; -23.8477
\; -19.7704 \; -15.9855 \; -12.6059 \; -9.69523 \; -7.27205 \; -5.31897
\; -3.79268 \; -2.63439 \; -1.77875 \; -1.16071 \; -0.719899 \; -0.402811
\; -0.163058 \; 0.0396415 \; 0.241217 \; 0.475176 \; 0.774242 \; 1.17128
\; 1.6992 \; 2.38967 \; 3.27048 \; 4.3619 \; 5.67222 \; 7.19326 \;
8.89659 \; 10.7314 \; 12.625 \; 14.486 \; 16.2109 \; 17.6932 \; 18.8343
\; 19.554 \; 19.8 \; 19.554 \; 18.8343 \; 17.6932 \; 16.2109 \; 14.486
\; 12.625 \; 10.7315 \; 8.89676 \; 7.19362 \; 5.673 \; 4.36353 \; 3.2738
\; 2.39626 \; 1.712 \; 1.19549 \; 0.818917 \; 0.55557 \; 0.382311 \;
0.281156 \; 0.24014 \; 0.253693 \; 0.322656 \; 0.454032 \; 0.660456
\; 0.959278 \; 1.37113 \; 1.9178 \; 2.61943 \; 3.49101 \; 4.53849 \;
5.75494 \; 7.11742 \; 8.58521 \; 10.1 \; 11.5888 \; 12.9687 \; 14.1546
\; 15.0675 \; 15.6432 \; 15.84 \; 15.6432 \; 15.0675 \; 14.1546 \;
12.9687 \; 11.5888 \; 10.1 \; 8.58519 \; 7.11739 \; 5.7549 \; 4.5384
\; 3.49082 \; 2.61904 \; 1.91701 \; 1.3696 \; 0.956394 \; 0.655134
\; 0.444457 \; 0.30585 \; 0.224924 \; 0.192112 \; 0.202955 \; 0.258125
\; 0.363226 \; 0.528364 \; 0.767422 \; 1.0969 \; 1.53424 \; 2.09555
\; 2.79281 \; 3.63079 \; 4.60395 \; 5.69394 \; 6.86817 \; 8.08003 \;
9.27104 \; 10.375 \; 11.3237 \; 12.054 \; 12.5146 \; 12.672 \; 12.5146
\; 12.054 \; 11.3237 \; 10.375 \; 9.27103 \; 8.08003 \; 6.86816 \;
5.69392 \; 4.60392 \; 3.63072 \; 2.79266 \; 2.09523 \; 1.53361 \; 1.09568
\; 0.765115 \; 0.524107 \; 0.355565 \; 0.244679 \; 0.17994 \; 0.15369
\; 0.162364 \; 0.2065 \; 0.29058 \; 0.422692 \; 0.613938 \; 0.87752
\; 1.22739 \; 1.67644 \; 2.23425 \; 2.90464 \; 3.68316 \; 4.55515 \;
5.49454 \; 6.46403 \; 7.41683 \; 8.29996 \; 9.05893 \; 9.64318 \; 10.0117
\; 10.1376 \; 10.0117 \; 9.64318 \; 9.05893 \; 8.29996 \; 7.41683 \;
6.46402 \; 5.49452 \; 4.55512 \; 3.68309 \; 2.90447 \; 2.23391 \; 1.67573
\; 1.22599 \; 0.87481 \; 0.60881 \; 0.413231 \; 0.273556 \; 0.176621
\; 0.11122 \; 0.0683066 \; \;;
#X scalar h-seg 90 119 190 1 \;;
#X scalar h-seg 90 30 190 1 \;;
#X scalar h-seg 90 87.5903 190 1 \;;
#X coords 0 350 1 349 0 0 0;
#X restore 54 113 pd zzz;
