#N struct y-plot float x float y float w array z y-point;
#N struct y-point float y;
#N struct haxis float x float y float w float w-3;
#N struct xy-curve float x float y float w array z xy-point;
#N struct xy-point float x float y;
#N struct seg float x float y float dx float dy float w;
#N struct l-curve-arrow float x float y float z float z2 float z3 float
h;
#N struct circle2 float x float y float h float h2 float mh float mh2
;
#N struct vaxis float x float y float h float h-3;
#N struct xy-plot float x float y float w array z xy-point;
#N struct d-curve-arrow float x float y float z float z2 float z3 float
h;
#N struct circle float x float y float color float h float h2;
#N struct u-curve-arrow float x float y float z float z2 float z3 float
h;
#N struct r-curve-arrow float x float y float z float z2 float z3 float
h;
#N struct r-arrow float x float y float z;
#N struct l-arrow float x float y float z;
#N struct u-arrow float x float y float z;
#N struct d-arrow float x float y float z;
#N struct v-seg float x float y float z float w;
#N struct h-seg float x float y float z float w;
#N struct rect float x float y float w float h;
#N struct frame float x float y float w float h;
#N struct thickcircle float x float y float color float h float h2
;
#N struct divide float x float y;
#N struct minus float x float y;
#N struct plus float x float y;
#N struct times float x float y;
#N canvas 40 75 482 287 10;
#N canvas 119 73 271 126 fig 1;
#X scalar y-plot 35 24 1 \; 0 \; 0 \; 0 \; 0 \; 0 \; 0 \; 0 \; 0 \;
0 \; 0 \; 0 \; 0 \; 0 \; 0 \; 0 \; 0 \; 0 \; 0 \; 0 \; 0 \; 0 \; 0
\; 0 \; 0 \; 0 \; 0 \; 0 \; 0 \; 0 \; 0 \; 0 \; 0 \; 0 \; 0 \; 0 \;
0 \; 0 \; 0 \; 0 \; 0 \; 0 \; 0 \; 0 \; 0 \; 0 \; 0 \; 0 \; 0 \; 0
\; 0 \; 0 \; 0 \; 0 \; 0 \; 0 \; 0 \; 0 \; 0 \; 0 \; 0 \; 0 \; 0 \;
0 \; 0 \; 0 \; 0 \; 0 \; 0 \; 0 \; 0 \; 0 \; 0 \; 0 \; 0 \; 0 \; 0
\; 0 \; 0 \; 0 \; 0 \; 0 \; 13.8572 \; 13.6515 \; 13.4457 \; 13.1713
\; 12.9655 \; 12.6911 \; 12.4853 \; 12.211 \; 12.0052 \; 11.7308 \;
11.525 \; 11.3192 \; 11.0448 \; 10.8391 \; 10.5647 \; 10.3589 \; 10.0845
\; 9.87873 \; 9.60435 \; 9.39857 \; 9.19278 \; 8.9184 \; 8.71262 \;
8.43824 \; 8.23246 \; 7.95808 \; 7.75229 \; 7.47791 \; 7.27213 \; 7.06634
\; 6.79196 \; 6.58618 \; 6.3118 \; 6.10601 \; 5.83163 \; 5.62585 \;
5.35147 \; 5.14568 \; 4.9399 \; 4.66552 \; 4.45973 \; 4.18535 \; 3.97957
\; 3.7052 \; 3.49942 \; 3.22504 \; 3.01926 \; 2.74488 \; 2.53909 \;
2.33331 \; 2.05893 \; 1.85313 \; 1.57875 \; 1.37297 \; 1.09859 \; 0.892805
\; 0.618425 \; 0.41264 \; 0.206856 \; 0 \; 0 \; 0 \; 0 \; 0 \; 0 \;
0 \; 0 \; 0 \; 0 \; 0 \; 0 \; 0 \; 0 \; 0 \; 0 \; 0 \; 0 \; 0 \; 0
\; 0 \; 0 \; 0 \; 0 \; 0 \; 0 \; 0 \; 0 \; 0 \; 0 \; 0 \; 0 \; 0 \;
0 \; 0 \; 0 \; 0 \; 0 \; 0 \; 0 \; 0 \; 0 \; 0 \; 0 \; 0 \; 0 \; 0
\; 0 \; 0 \; 0 \; 0 \; 0 \; 0 \; 0 \; 0 \; 0 \; 0 \; 0 \; 0 \; 0 \;
\;;
#X scalar y-plot 34 76 1 \; 0 \; 3.71185 \; 7.3269 \; 11.8279 \; 14.8678
\; 18.3477 \; 20.4559 \; 22.5148 \; 23.4548 \; 23.872 \; 23.5551 \;
22.71 \; 20.805 \; 18.8405 \; 15.5989 \; 12.7765 \; 8.61922 \; 5.29979
\; 0.750258 \; -2.65364 \; -5.96523 \; -10.1099 \; -12.9265 \; -16.177
\; -18.1689 \; -20.1514 \; -21.0958 \; -21.6001 \; -21.4065 \; -20.7328
\; -19.1237 \; -17.4248 \; -14.5842 \; -12.09 \; -8.39177 \; -5.42298
\; -1.3352 \; 1.73697 \; 4.73735 \; 8.51092 \; 11.0902 \; 14.0885 \;
15.9447 \; 17.8241 \; 18.7512 \; 19.3122 \; 19.2213 \; 18.6985 \; 17.3592
\; 15.9087 \; 13.4508 \; 11.2731 \; 8.02327 \; 5.40122 \; 1.77459 \;
-0.962411 \; -3.64506 \; -7.03427 \; -9.36274 \; -12.0873 \; -13.7898
\; -15.5389 \; -16.4268 \; -17.0165 \; -17.0064 \; -16.6128 \; -15.5174
\; -14.2981 \; -12.202 \; -10.3286 \; -7.51581 \; -5.23512 \; -2.06762
\; 0.331837 \; 2.69121 \; 5.68362 \; 7.74889 \; 10.1794 \; 11.7101
\; 13.3023 \; 0 \; 7.12308 \; 12.0698 \; 16.3995 \; 20.872 \; 23.0536
\; 24.2189 \; 23.7446 \; 21.3771 \; 18.4224 \; 13.1942 \; 8.55783 \;
3.55737 \; -3.25871 \; -8.16632 \; -13.9982 \; -17.5741 \; -20.9684
\; -22.3378 \; -22.4903 \; -21.3558 \; -19.2172 \; -15.0028 \; -11.0257
\; -5.00571 \; -0.236731 \; 6.02685 \; 10.3645 \; 15.2831 \; 18.1035
\; 20.0352 \; 21.092 \; 20.7093 \; 18.6866 \; 16.1417 \; 11.6246 \;
7.61221 \; 1.80159 \; -2.62918 \; -6.88766 \; -11.9536 \; -15.0654
\; -18.0292 \; -19.2371 \; -19.4038 \; -18.4516 \; -15.8509 \; -13.0344
\; -8.39414 \; -4.47314 \; -0.384695 \; 4.98807 \; 8.7113 \; 12.9374
\; 15.3655 \; 17.4099 \; 17.9658 \; 17.3727 \; 15.9677 \; 13.8217 \;
10.004 \; 6.60955 \; 1.6917 \; -2.05937 \; -6.80518 \; -9.95635 \;
-13.3384 \; -15.113 \; -16.1467 \; -16.3102 \; -15.5274 \; -13.3666
\; -11.0203 \; -7.15141 \; -3.88144 \; 0.666829 \; 4.00704 \; 7.11051
\; 10.6335 \; 12.6589 \; 14.3689 \; 14.8415 \; 14.3682 \; 13.2209 \;
10.7565 \; 8.33291 \; 5.55041 \; 1.52144 \; -1.54938 \; -5.43144 \;
-8.0071 \; -10.7701 \; -12.2202 \; -13.2095 \; -13.2101 \; -12.5839
\; -10.8474 \; -8.96134 \; -5.85398 \; -3.23079 \; 0.412623 \; 3.08407
\; 6.32574 \; 8.37169 \; 9.98415 \; 11.3438 \; 11.7201 \; 11.349 \;
10.4467 \; 8.51147 \; 6.61182 \; 3.66651 \; 1.29093 \; -1.0993 \; -4.11281
\; -6.10626 \; -8.23778 \; -9.352 \; -10.1075 \; -10.1043 \; \;;
#X text 199 104 time;
#X scalar haxis 24 75 220 215 \;;
#X scalar haxis 24 23 220 215 \;;
#X coords 0 126 1 125 0 0 0;
#X restore 56 49 pd fig;
#N canvas 492 234 599 515 put-in-graph 0;
#X obj 66 84 bng 15 250 50 0 empty empty empty 0 -6 0 8 -262144 -1
-1;
#X obj 66 106 t b b;
#X obj 138 150 0;
#X obj 7 186 f;
#X obj 44 189 + 1;
#X obj 115 150 bng 15 250 50 0 empty empty empty 0 -6 0 8 -262144 -1
-1;
#X obj 11 419 pack;
#X obj 11 446 s y-plot-point;
#X msg 6 134 1;
#X msg 44 134 0;
#X obj 7 213 moses 200;
#X obj 78 400 snapshot~;
#X obj 11 394 t f b;
#X msg 17 6 \; start pd-fig \; pd dsp 1;
#X obj 6 159 metro 5;
#X obj 426 82 bng 15 250 50 0 empty empty empty 0 -6 0 8 -262144 -1
-1;
#X obj 426 104 t b b;
#X obj 498 148 0;
#X obj 367 184 f;
#X obj 404 187 + 1;
#X obj 475 148 bng 15 250 50 0 empty empty empty 0 -6 0 8 -262144 -1
-1;
#X obj 367 326 pack;
#X obj 367 353 s y-plot-point;
#X msg 366 132 1;
#X msg 404 132 0;
#X obj 367 211 moses 200;
#X obj 427 315 snapshot~;
#X obj 367 290 t f b;
#X obj 366 157 metro 5;
#X obj 405 254 line~;
#X obj 80 327 osc~;
#X obj 79 376 *~ 25;
#X obj 168 400 snapshot~;
#X msg 462 208 0;
#X msg 453 288 set 0;
#X obj 496 232 f;
#X msg 496 255 \$1 \, 0 300;
#X msg 193 362 set 0;
#X msg 137 210 -0.25;
#X obj 124 329 line~;
#X obj 79 351 *~;
#X obj 214 201 del 400;
#X obj 496 208 del 400;
#X msg 249 233 -0.25;
#X msg 203 264 1 \, 0 1000;
#X msg 102 210 5.5;
#X msg 212 233 8;
#X msg 179 13 \; add-y-plot 200 10 50 1;
#X connect 0 0 1 0;
#X connect 1 0 8 0;
#X connect 1 0 45 0;
#X connect 1 0 38 0;
#X connect 1 0 41 0;
#X connect 1 0 44 0;
#X connect 1 1 2 0;
#X connect 1 1 37 0;
#X connect 2 0 3 1;
#X connect 3 0 4 0;
#X connect 3 0 10 0;
#X connect 4 0 3 1;
#X connect 5 0 9 0;
#X connect 6 0 7 0;
#X connect 8 0 14 0;
#X connect 9 0 14 0;
#X connect 10 0 12 0;
#X connect 10 1 5 0;
#X connect 11 0 6 1;
#X connect 12 0 6 0;
#X connect 12 1 11 0;
#X connect 14 0 3 0;
#X connect 15 0 16 0;
#X connect 16 0 23 0;
#X connect 16 0 33 0;
#X connect 16 0 42 0;
#X connect 16 1 17 0;
#X connect 16 1 34 0;
#X connect 17 0 18 1;
#X connect 18 0 19 0;
#X connect 18 0 25 0;
#X connect 19 0 18 1;
#X connect 20 0 24 0;
#X connect 21 0 22 0;
#X connect 23 0 28 0;
#X connect 24 0 28 0;
#X connect 25 0 27 0;
#X connect 25 1 20 0;
#X connect 26 0 21 1;
#X connect 27 0 21 0;
#X connect 27 1 26 0;
#X connect 28 0 18 0;
#X connect 29 0 26 0;
#X connect 30 0 40 0;
#X connect 31 0 11 0;
#X connect 31 0 32 0;
#X connect 32 0 35 0;
#X connect 33 0 29 0;
#X connect 34 0 26 0;
#X connect 35 0 36 0;
#X connect 36 0 29 0;
#X connect 37 0 11 0;
#X connect 38 0 30 1;
#X connect 39 0 40 1;
#X connect 40 0 31 0;
#X connect 41 0 46 0;
#X connect 41 0 37 0;
#X connect 41 0 43 0;
#X connect 41 0 44 0;
#X connect 41 0 32 0;
#X connect 42 0 35 0;
#X connect 43 0 30 1;
#X connect 44 0 39 0;
#X connect 45 0 30 0;
#X connect 46 0 30 0;
#X restore 47 162 pd put-in-graph;
#X obj 44 110 templates;
