#N struct d-arrow float x float y float z;
#N struct l-arrow float x float y float z;
#N struct v-seg float x float y float z float w;
#N struct h-seg float x float y float z float w;
#N struct r-arrow float x float y float z;
#N struct frame float x float y float w float h;
#N struct times float x float y;
#N struct plus float x float y;
#N struct xy-curve float x float y float w array z xy-point;
#N struct xy-point float x float y;
#N struct seg float x float y float dx float dy float w;
#N struct l-curve-arrow float x float y float z float z2 float z3 float
h;
#N struct circle2 float x float y float h float h2 float mh float mh2
;
#N struct vaxis float x float y float h float h-3;
#N struct xy-plot float x float y float w array z xy-point;
#N struct d-curve-arrow float x float y float z float z2 float z3 float
h;
#N struct circle float x float y float color float h float h2;
#N struct u-curve-arrow float x float y float z float z2 float z3 float
h;
#N struct r-curve-arrow float x float y float z float z2 float z3 float
h;
#N struct u-arrow float x float y float z;
#N struct rect float x float y float w float h;
#N struct haxis float x float y float w float w-3;
#N struct y-plot float x float y float w array z y-point;
#N struct y-point float y;
#N struct thickcircle float x float y float color float h float h2
;
#N struct minus float x float y;
#N struct divide float x float y;
#N canvas 464 136 482 287 10;
#N canvas 31 335 369 215 fig 1;
#X scalar d-arrow 74 172 13 \;;
#X text 69 -20 IN;
#X text 105 62 OUT;
#X scalar d-arrow 75 207 13 \;;
#X scalar l-arrow 86 196 12 \;;
#X scalar d-arrow 272 138 13 \;;
#X text 261 77 OUT;
#X text 39 160 (a - right);
#X text 200 160 (b - wrong);
#X text 99 12 1-|P|;
#X scalar v-seg 48 67 97 1 \;;
#X scalar d-arrow 74 139 14 \;;
#X scalar h-seg 49 68 27 1 \;;
#X scalar r-arrow 63 164 -15 \;;
#X scalar v-seg 75 68 6 1 \;;
#X scalar r-arrow 103 146 -28 \;;
#X text 99 123 P;
#X scalar frame 68 106 14 32 \;;
#X scalar l-arrow 86 84 12 \;;
#X scalar d-arrow 75 95 10 \;;
#X text 83 83 d=1;
#X scalar frame 65 75 20 19 \;;
#X scalar times 71 80 \;;
#X scalar plus 69 157 \;;
#X scalar frame 65 154 18 17 \;;
#X scalar l-arrow 284 161 12 \;;
#X scalar frame 263 152 20 19 \;;
#X scalar times 269 157 \;;
#X scalar frame 65 187 20 19 \;;
#X scalar times 71 192 \;;
#X text 210 -1 IN;
#X scalar d-arrow 216 188 13 \;;
#X scalar v-seg 190 83 97 1 \;;
#X scalar d-arrow 216 155 14 \;;
#X scalar h-seg 191 84 27 1 \;;
#X scalar r-arrow 205 180 -15 \;;
#X scalar v-seg 217 84 6 1 \;;
#X scalar r-arrow 262 162 -45 \;;
#X text 241 107 P;
#X scalar frame 210 122 14 32 \;;
#X scalar l-arrow 228 100 12 \;;
#X scalar d-arrow 217 111 10 \;;
#X text 225 67 d=1;
#X scalar frame 207 91 20 19 \;;
#X scalar times 213 96 \;;
#X scalar plus 211 173 \;;
#X scalar frame 207 170 18 17 \;;
#X text 297 46 1-|P|;
#X coords 0 215 1 214 0 0 0;
#X restore 44 18 pd fig;
#N canvas 265 375 777 543 put-in-graph 0;
#X obj 118 171 f;
#X obj 164 172 + 1;
#X obj 57 14 bng 15 250 50 0 empty empty empty 0 -6 0 8 -262144 -1
-1;
#X obj 53 55 t b b;
#X msg 140 118 0;
#X obj 90 253 sel 1;
#X obj 152 371 pack 0 0 0;
#X msg 273 18 \; pd-xxx clear \; start pd-xxx;
#X obj 339 452 + 40;
#X obj 156 411 s xy-plot-point;
#X obj 183 330 expr $f1*2+20;
#X msg 11 87 0;
#X msg 47 86 1;
#X floatatom 337 95 5 0 0 0 - - -;
#X obj 154 279 f;
#X obj 151 216 t b f;
#X obj 152 305 t f f;
#X obj 316 175 osc~;
#X obj 331 314 env~ 8192;
#X obj 339 404 dbtorms;
#X floatatom 422 398 5 0 0 0 - - -;
#X obj 75 417 print;
#X obj 89 225 >= 100;
#X floatatom 418 143 7 0 0 0 - - -;
#X floatatom 391 450 5 0 0 0 - - -;
#X obj 93 85 metro 250;
#X obj 152 251 del 249;
#X msg 107 29 \; pd dsp 1;
#X obj 525 89 loadbang;
#X obj 525 115 bng 15 250 50 0 empty empty empty 0 -6 0 8 -262144 -1
-1;
#X obj 525 162 expr $f2*cos($f1);
#X obj 546 188 expr $f2*sin($f1);
#X obj 328 253 *~;
#X obj 372 255 *~;
#X obj 331 283 sqrt~;
#X obj 337 119 expr $f1*44100/100;
#X msg 487 323 \; add-xy-plot 101 0 0 1;
#X obj 358 174 osc~;
#X msg 197 115 0;
#X msg 251 115 -0.25;
#X msg 527 426 \; start pd-xxx;
#X obj 336 219 cpole~;
#X msg 426 7 \; add-h-seg 20 40 200 1 \; add-u-arrow 20 160 -120 \;
add-u-arrow 220 160 -120 \; add-xy-plot 101 0 0 1;
#X obj 339 428 * 30;
#X msg 524 131 1 0.5;
#X msg 686 132 1 0;
#X msg 608 130 1 0.75;
#X connect 0 0 1 0;
#X connect 0 0 15 0;
#X connect 0 0 22 0;
#X connect 1 0 0 1;
#X connect 2 0 3 0;
#X connect 3 0 12 0;
#X connect 3 1 4 0;
#X connect 3 1 27 0;
#X connect 4 0 0 1;
#X connect 5 0 11 0;
#X connect 6 0 9 0;
#X connect 6 0 21 0;
#X connect 8 0 6 2;
#X connect 10 0 6 1;
#X connect 11 0 25 0;
#X connect 12 0 25 0;
#X connect 13 0 35 0;
#X connect 14 0 16 0;
#X connect 15 0 26 0;
#X connect 15 1 14 1;
#X connect 15 1 13 0;
#X connect 16 0 6 0;
#X connect 16 1 10 0;
#X connect 17 0 41 0;
#X connect 18 0 19 0;
#X connect 19 0 43 0;
#X connect 22 0 5 0;
#X connect 25 0 0 0;
#X connect 25 0 38 0;
#X connect 25 0 39 0;
#X connect 26 0 14 0;
#X connect 28 0 29 0;
#X connect 29 0 44 0;
#X connect 30 0 41 2;
#X connect 31 0 41 3;
#X connect 32 0 34 0;
#X connect 33 0 34 0;
#X connect 34 0 18 0;
#X connect 35 0 17 0;
#X connect 35 0 23 0;
#X connect 35 0 37 0;
#X connect 37 0 41 1;
#X connect 38 0 17 1;
#X connect 39 0 37 1;
#X connect 41 0 32 0;
#X connect 41 0 32 1;
#X connect 41 1 33 0;
#X connect 41 1 33 1;
#X connect 43 0 8 0;
#X connect 43 0 24 0;
#X connect 44 0 30 0;
#X connect 44 0 31 0;
#X connect 45 0 30 0;
#X connect 45 0 31 0;
#X connect 46 0 30 0;
#X connect 46 0 31 0;
#X restore 165 37 pd put-in-graph;
#X obj 209 69 templates;
#N canvas 24 162 674 250 xxx 0;
#X coords 0 250 1 249 0 0 0;
#X restore 38 52 pd xxx;
