#N canvas 231 67 425 487 10;
#X obj 251 343 *~;
#X obj 158 455 outlet~;
#X obj 108 276 makefilename sample%d;
#X msg 108 296 set \$1;
#X obj 108 321 tabread4~ sample1;
#X obj 313 295 dbtorms;
#X obj 313 276 unpack;
#X obj 313 314 sqrt;
#X obj 313 334 sqrt;
#X obj 313 353 line~;
#X obj 297 417 *~;
#X obj 313 374 *~;
#X obj 313 396 *~;
#X msg 91 12 bang;
#X obj 95 36 delay 5;
#X obj 202 42 unpack 0 0 0 0 0 0 0;
#X obj 330 114 f;
#X obj 281 94 f;
#X obj 228 94 f;
#X obj 202 94 f;
#X obj 180 94 f;
#X obj 98 91 f;
#X obj 98 111 mtof;
#X obj 98 130 / 261.62;
#X obj 98 149 * 4.41e+08;
#X obj 98 169 +;
#X obj 307 94 delay;
#X obj 156 197 pack 0 0 0 0 0;
#X obj 95 56 t b b b;
#X obj 228 133 + 1;
#X obj 228 114 * 44.1;
#X msg 68 228 0 5;
#X msg 96 228 1 5;
#X msg 265 229 0 \, \$1 \$2;
#X msg 140 228 \$3 \, \$4 1e+07;
#X msg 235 229 \$5;
#X msg 327 229 0 \$1;
#X obj 202 7 inlet;
#X obj 158 413 inlet~;
#X obj 158 435 +~;
#X text 355 99 note end;
#X text 353 86 delay for;
#X obj 61 276 vline~;
#X obj 266 276 vline~;
#X text 272 292 mute;
#X text 358 345 amplitude;
#X text 359 358 envelope;
#X text 22 270 index;
#X text 256 140 starting;
#X text 269 151 read;
#X text 270 162 point;
#X text 92 195 read;
#X text 93 205 point;
#X text 83 184 ending;
#X text 278 213 attack;
#X text 333 213 decay;
#X text 4 219 mute and;
#X text 19 231 unmute;
#X text 14 256 wavetable;
#X text 163 304 wavetable;
#X text 163 292 select;
#X text 97 418 add to;
#X text 97 432 summing;
#X text 99 447 bus;
#X text 20 23 delay for;
#X text 25 37 mute to;
#X text 10 50 take effect;
#X text 244 12 store parameters first in;
#X text 243 26 floats below until muted;
#X connect 0 0 10 0;
#X connect 2 0 3 0;
#X connect 3 0 4 0;
#X connect 4 0 0 0;
#X connect 5 0 7 0;
#X connect 6 0 5 0;
#X connect 6 1 9 1;
#X connect 7 0 8 0;
#X connect 8 0 9 0;
#X connect 9 0 11 0;
#X connect 9 0 11 1;
#X connect 10 0 39 1;
#X connect 11 0 12 0;
#X connect 11 0 12 1;
#X connect 12 0 10 1;
#X connect 13 0 14 0;
#X connect 13 0 31 0;
#X connect 14 0 28 0;
#X connect 15 0 21 1;
#X connect 15 0 13 0;
#X connect 15 1 20 1;
#X connect 15 2 26 1;
#X connect 15 3 19 1;
#X connect 15 4 18 1;
#X connect 15 5 17 1;
#X connect 15 6 16 1;
#X connect 16 0 36 0;
#X connect 17 0 27 1;
#X connect 18 0 30 0;
#X connect 19 0 27 4;
#X connect 20 0 27 0;
#X connect 21 0 22 0;
#X connect 22 0 23 0;
#X connect 23 0 24 0;
#X connect 24 0 25 0;
#X connect 25 0 27 3;
#X connect 26 0 16 0;
#X connect 27 0 32 0;
#X connect 27 0 33 0;
#X connect 27 0 34 0;
#X connect 27 0 35 0;
#X connect 28 0 20 0;
#X connect 28 1 21 0;
#X connect 28 2 17 0;
#X connect 28 2 18 0;
#X connect 28 2 19 0;
#X connect 28 2 26 0;
#X connect 29 0 27 2;
#X connect 29 0 25 1;
#X connect 30 0 29 0;
#X connect 31 0 43 0;
#X connect 32 0 43 0;
#X connect 33 0 6 0;
#X connect 34 0 42 0;
#X connect 35 0 2 0;
#X connect 36 0 6 0;
#X connect 37 0 15 0;
#X connect 38 0 39 0;
#X connect 39 0 1 0;
#X connect 42 0 4 0;
#X connect 43 0 0 1;
