#N canvas 160 112 392 210 10;
#X obj 97 43 osc~;
#X obj 97 101 *~;
#X obj 49 119 +~;
#X obj 49 143 osc~;
#X text 68 5 modulation;
#X text 71 17 frequency;
#X text 96 29 |;
#X text 107 64 modulation;
#X text 110 76 index;
#X text 111 88 |;
#X text 20 94 frequency;
#X text 47 106 |;
#X text 28 82 carrier;
#X obj 298 42 osc~;
#X obj 298 100 *~;
#X obj 233 118 +~;
#X text 269 4 modulation;
#X text 272 16 frequency;
#X text 297 28 |;
#X text 308 63 modulation;
#X text 311 75 index;
#X text 312 87 |;
#X text 204 67 frequency;
#X text 231 79 |;
#X text 212 55 carrier;
#X text 47 156 |;
#X text 33 169 (OUT);
#X text 231 156 |;
#X text 217 169 (OUT);
#X obj 233 142 cos~;
#X obj 233 92 phasor~;
#X text 89 191 (a);
#X text 286 190 (b);
#X connect 0 0 1 0;
#X connect 1 0 2 1;
#X connect 2 0 3 0;
#X connect 13 0 14 0;
#X connect 14 0 15 1;
#X connect 15 0 29 0;
#X connect 30 0 15 0;
