#N canvas 0 0 306 298 10;
#X obj 98 43 fiddle~ 2048;
#X obj 97 74 unpack;
#X obj 106 174 osc~;
#X obj 97 98 moses 1;
#X obj 78 174 *~;
#X obj 118 126 mtof;
#X obj 118 149 *;
#X msg 166 106 0.5;
#X floatatom 166 135 3 0 0 0 - - -;
#X msg 196 106 15;
#N canvas 0 0 446 202 (subpatch) 0;
#X obj 261 30 tgl 15 0 empty empty empty 0 -6 0 8 -262144 -1 -1 0 1
;
#X obj 100 20 inlet~;
#X obj 99 87 *~;
#X obj 98 159 outlet~;
#X text 381 181 corner;
#X connect 0 0 2 1;
#X connect 1 0 2 0;
#X connect 2 0 3 0;
#X coords 0 0 100 100 40 18 1;
#X restore 78 221 pd;
#N canvas 0 0 446 202 (subpatch) 0;
#X obj 261 30 tgl 15 0 empty empty empty 0 -6 0 8 -262144 -1 -1 0 1
;
#X obj 100 20 inlet~;
#X obj 99 87 *~;
#X obj 98 159 outlet~;
#X text 381 181 corner;
#X connect 0 0 2 1;
#X connect 1 0 2 0;
#X connect 2 0 3 0;
#X coords 0 0 100 100 40 18 1;
#X restore 32 221 pd;
#X obj 78 195 *~ 2;
#X obj 166 81 loadbang;
#N canvas 414 195 613 302 looper 0;
#N canvas 0 0 450 300 (subpatch) 0;
#X array E03-table 44103 float 0;
#X coords 0 1.02 44103 -1.02 200 130 1;
#X restore 349 22 graph;
#X text 347 161 ---- 44103 samples ----;
#X obj 35 77 +~ 1;
#X obj 35 25 phasor~ 1;
#X obj 35 50 *~ 44100;
#X obj 35 106 tabread4~ E03-table;
#X obj 35 132 outlet~;
#X text 46 238 one-second sample reader loop. You can replace this
with an adc~ if you want to go live.;
#X connect 2 0 5 0;
#X connect 3 0 4 0;
#X connect 4 0 2 0;
#X connect 5 0 6 0;
#X restore 31 13 pd looper;
#N canvas 300 203 758 306 delay 0;
#X obj 15 222 outlet~;
#X obj 14 21 inlet~;
#X obj 15 102 loadbang;
#X obj 14 49 delwrite~ E03-del 40;
#X obj 15 195 delread~ E03-del;
#X obj 15 152 expr 1000*1024/$f1;
#X obj 15 128 samplerate~;
#X text 208 47 write to delay line which has enough memory to hold
40 msec;
#X text 125 128 get sample rate at load time;
#X text 185 152 divide 1024 by sample rate to give time in seconds
\; multiply by 1000 to convert to milliseconds.;
#X text 168 197 read from the delay line at the calculater delay;
#X text 317 268 1024-sample delay;
#X connect 1 0 3 0;
#X connect 2 0 6 0;
#X connect 4 0 0 0;
#X connect 5 0 4 0;
#X connect 6 0 5 0;
#X restore 31 54 pd delay;
#X text 147 213 on/off for original;
#X text 122 224 <--and processed sounds;
#X text 191 134 <-- multiplier;
#X text 140 175 ring modulation;
#X text 112 195 extra gain;
#X obj 32 250 +~;
#X text 17 275 (OUT);
#X text 30 263 |;
#X connect 0 2 1 0;
#X connect 1 0 3 0;
#X connect 2 0 4 1;
#X connect 3 1 5 0;
#X connect 4 0 12 0;
#X connect 5 0 6 0;
#X connect 6 0 2 0;
#X connect 7 0 8 0;
#X connect 8 0 6 1;
#X connect 9 0 8 0;
#X connect 10 0 21 1;
#X connect 11 0 21 0;
#X connect 12 0 10 0;
#X connect 13 0 7 0;
#X connect 14 0 0 0;
#X connect 14 0 15 0;
#X connect 15 0 11 0;
#X connect 15 0 4 0;
