#N struct xy-curve float x float y float w array z xy-point;
#N struct xy-point float x float y;
#N struct v-seg float x float y float z float w;
#N struct haxis float x float y float w float w-3;
#N struct vaxis float x float y float h float h-3;
#N struct xy-plot float x float y float w array z xy-point;
#N struct h-seg float x float y float z float w;
#N struct u-arrow float x float y float z;
#N struct circle float x float y float color float h float h2;
#N struct pole float x float y float x1 float x2;
#N struct seg float x float y float dx float dy float w;
#N struct l-curve-arrow float x float y float z float z2 float z3 float
h;
#N struct circle2 float x float y float h float h2 float mh float mh2
;
#N struct d-curve-arrow float x float y float z float z2 float z3 float
h;
#N struct u-curve-arrow float x float y float z float z2 float z3 float
h;
#N struct r-curve-arrow float x float y float z float z2 float z3 float
h;
#N struct r-arrow float x float y float z;
#N struct l-arrow float x float y float z;
#N struct d-arrow float x float y float z;
#N struct rect float x float y float w float h;
#N struct frame float x float y float w float h;
#N struct y-plot float x float y float w array z y-point;
#N struct y-point float y;
#N struct thickcircle float x float y float color float h float h2
;
#N canvas 678 42 294 185 10;
#N canvas 2 0 444 204 fig 1;
#X scalar xy-curve 407 39 1 \; 0 -2 \; 2 0 \; 4 2 \; 6 0 \; 8 -2 \;
10 0 \; 12 2 \; \;;
#X scalar v-seg 410 32 7 1 \;;
#X scalar v-seg 415 32 5 1 \;;
#X text 212 159 0;
#X text 67 183 (a);
#X text 300 179 (b);
#X text 36 79 3;
#X scalar haxis 17 109 160 157 \;;
#X scalar vaxis 97 29 160 157 \;;
#X scalar xy-plot -3 9 1 \; 165 100 \; 164.872 104.081 \; 164.487 108.146
\; 163.849 112.179 \; 162.958 116.164 \; 161.819 120.086 \; 160.436
123.927 \; 158.814 127.675 \; 156.96 131.313 \; 154.882 134.828 \;
152.587 138.205 \; 150.084 141.432 \; 147.384 144.495 \; 144.497 147.382
\; 141.434 150.082 \; 138.208 152.585 \; 134.83 154.88 \; 131.316 156.959
\; 127.678 158.813 \; 123.93 160.435 \; 120.088 161.818 \; 116.167
162.957 \; 112.182 163.848 \; 108.149 164.487 \; 104.084 164.872 \;
100.003 165 \; 95.9217 164.872 \; 91.8566 164.488 \; 87.8235 163.849
\; 83.8385 162.959 \; 79.9173 161.82 \; 76.0754 160.437 \; 72.3278
158.815 \; 68.6895 156.962 \; 65.1747 154.884 \; 61.7974 152.589 \;
58.5708 150.086 \; 55.5077 147.386 \; 52.6202 144.499 \; 49.9196 141.436
\; 47.4167 138.21 \; 45.1213 134.833 \; 43.0425 131.318 \; 41.1884
127.68 \; 39.5665 123.933 \; 38.183 120.091 \; 37.0435 116.17 \; 36.1524
112.185 \; 35.5133 108.152 \; 35.1286 104.087 \; 35 100.006 \; 35.1279
95.9248 \; 35.5118 91.8596 \; 36.1501 87.8265 \; 37.0405 83.8414 \;
38.1793 79.9202 \; 39.562 76.0782 \; 41.1833 72.3306 \; 43.0367 68.6921
\; 45.1149 65.1773 \; 47.4097 61.7998 \; 49.912 58.5731 \; 52.6119
55.5099 \; 55.4989 52.6222 \; 58.5615 49.9216 \; 61.7876 47.4185 \;
65.1646 45.1229 \; 68.6789 43.044 \; 72.3169 41.1897 \; 76.0642 39.5676
\; 79.9059 38.1839 \; 83.8269 37.0442 \; 87.8117 36.153 \; 91.8446
35.5136 \; 95.9097 35.1288 \; 99.991 35 \; 104.072 35.1277 \; 108.137
35.5114 \; 112.171 36.1496 \; 116.156 37.0397 \; 120.077 38.1783 \;
123.919 39.5609 \; 127.667 41.182 \; 131.305 43.0353 \; 134.82 45.1133
\; 138.198 47.4079 \; 141.425 49.91 \; 144.488 52.6099 \; 147.376 55.4967
\; 150.077 58.5592 \; 152.58 61.7852 \; 154.875 65.162 \; 156.955 68.6763
\; 158.809 72.3142 \; 160.431 76.0614 \; 161.815 79.903 \; 162.955
83.8239 \; 163.846 87.8087 \; 164.486 91.8416 \; 164.871 95.9067 \;
165 99.988 \; \;;
#X scalar h-seg 217 49 200 1 \;;
#X scalar u-arrow 217 174 -125 \;;
#X scalar u-arrow 417 174 -125 \;;
#X scalar xy-plot 217 9 1 \; 0 40 \; 4 40.0802 \; 8 40.6908 \; 12 42.5014
\; 16 46.7442 \; 20 55.345 \; 24 70.5302 \; 28 88.3835 \; 32 98.9184
\; 36 102.06 \; 40 102.649 \; 44 102.716 \; 48 102.717 \; 52 102.716
\; 56 102.717 \; 60 102.711 \; 64 102.65 \; 68 102.392 \; 72 101.642
\; 76 99.8971 \; 80 96.5945 \; 84 91.4138 \; 88 84.6857 \; 92 77.329
\; 96 70.3064 \; 100 64.1991 \; 104 59.1581 \; 108 55.1257 \; 112 51.9549
\; 116 49.4245 \; 120 47.4426 \; 124 45.9013 \; 128 44.6297 \; 132
43.638 \; 136 42.8461 \; 140 42.2129 \; 144 41.7066 \; 148 41.3024
\; 152 40.9818 \; 156 40.7266 \; 160 40.5271 \; 164 40.3987 \; 168
40.2546 \; 172 40.1665 \; 176 40.2527 \; 180 40.0584 \; 184 40.0295
\; 188 40.0123 \; 192 40.0036 \; 196 40 \; 200 40 \; \;;
#X scalar circle 162 109 999 4 -4 \;;
#X scalar circle 32 109 999 4 -4 \;;
#X scalar pole 108.891 62.4902 3 -3 \;;
#X scalar pole 108.891 155.51 3 -3 \;;
#X scalar pole 148.814 85.2993 3 -3 \;;
#X scalar pole 148.814 132.701 3 -3 \;;
#X scalar pole 126.777 87.9174 3 -3 \;;
#X scalar pole 126.777 130.083 3 -3 \;;
#X text 164 80 3;
#X coords 0 204 1 203 0 0 0;
#X restore 51 61 pd fig;
#N canvas 589 104 566 606 hash 0;
#X coords 0 606 1 605 0 0 0;
#X restore 205 62 pd hash;
#N canvas 190 279 1028 625 put-in-graph 0;
#X msg 453 19 \; pd-xxx clear \; start pd-xxx;
#X msg 796 566 \; add-xy-plot 101 0 0 1;
#X msg 505 561 \; start pd-xxx;
#X msg 604 563 \; add-xy-plot 101 150 150 1;
#X obj 713 379 print;
#X obj 618 476 pack 0 0 0;
#X obj 83 216 f;
#X obj 129 217 + 1;
#X obj 17 76 bng 15 250 50 0 empty empty empty 0 -6 0 8 -262144 -1
-1;
#X obj 18 100 t b b;
#X msg 105 163 0;
#X obj 50 272 sel 1;
#X obj 116 400 pack 0 0 0;
#X obj 116 427 s xy-plot-point;
#X msg 18 149 0;
#X msg 18 127 1;
#X floatatom 231 149 5 0 0 0 - - -;
#X obj 119 324 f;
#X obj 116 261 t b f;
#X obj 117 350 t f f;
#X obj 263 213 osc~;
#X obj 160 465 env~ 8192;
#X obj 161 488 dbtorms;
#X floatatom 114 486 5 0 0 0 - - -;
#X obj 67 426 print;
#X obj 180 240 env~ 8192;
#X floatatom 177 266 5 0 0 0 - - -;
#X msg 162 160 0.125;
#X msg 242 75 \; pd dsp 1 \; pd-xxx clear \; start pd-xxx;
#X floatatom 379 211 5 0 0 0 - - -;
#X obj 322 355 cpole~;
#X obj 322 387 cpole~;
#X msg 274 297 clear;
#X obj 231 173 expr $f1*44100/100;
#X msg 609 139 \; start pd-xxx \; add-xy-plot 51 0 0 1;
#X obj 49 247 >= 50;
#X obj 58 130 metro 250;
#X obj 117 296 del 249;
#X obj 380 168 loadbang;
#X obj 161 536 + 40;
#X obj 321 273 *~;
#X floatatom 546 259 5 0 0 0 - - -;
#X floatatom 586 259 5 0 0 0 - - -;
#X floatatom 625 259 5 0 0 0 - - -;
#X obj 161 512 * 80;
#X msg 577 6 \; add-h-seg 220 40 200 1 \; add-u-arrow 220 165 -125
\; add-u-arrow 420 165 -125 \; add-xy-plot 51 220 0 1;
#X obj 646 403 t b f;
#X msg 617 403 0;
#X obj 656 379 unpack;
#X obj 379 230 buttercoef-3;
#X obj 321 314 cpole~;
#X obj 379 255 *;
#X floatatom 483 192 5 0 0 0 - - -;
#X msg 483 168 0.8;
#X obj 483 146 loadbang;
#X obj 324 458 cpole~;
#X obj 324 495 cpole~;
#X obj 323 424 cpole~;
#X floatatom 695 235 5 0 0 0 - - -;
#X floatatom 682 279 5 0 0 0 - - -;
#X floatatom 722 279 5 0 0 0 - - -;
#X obj 695 254 buttercoef-3;
#X floatatom 799 216 5 0 0 0 - - -;
#X msg 799 192 0.8;
#X obj 799 170 loadbang;
#X obj 650 430 expr 100 + 65 * $f1;
#X obj 683 452 expr 100 + 65 * $f1;
#X obj 402 523 env~ 8192;
#X floatatom 380 560 5 0 0 0 - - -;
#X obj 862 100 scanner 100 6.283;
#X obj 862 207 pack 0 0 0;
#X obj 862 231 s xy-plot-point;
#X obj 976 142 expr 100 + 65*sin($f1);
#X obj 919 172 expr 100 + 65*cos($f1);
#X msg 861 25 \; start pd-xxx \; add-haxis 20 100 160 157 \; add-vaxis
100 20 160 157 \; add-xy-plot 101 0 0 1;
#X obj 519 390 pack;
#X floatatom 797 306 5 0 0 0 - - -;
#X floatatom 837 306 5 0 0 0 - - -;
#X floatatom 876 306 5 0 0 0 - - -;
#X floatatom 799 386 7 0 0 0 - - -;
#X floatatom 853 383 7 0 0 0 - - -;
#X obj 818 332 t b f;
#X obj 860 332 t b f;
#X obj 796 285 bng 15 250 50 0 empty empty empty 0 -6 0 8 -262144 -1
-1;
#X msg 876 283 1.5708;
#X obj 656 352 spigot;
#X obj 692 329 tgl 15 0 empty empty empty 0 -6 0 8 -262144 -1 -1 1
1;
#X msg 517 168 1.57;
#X obj 419 196 bng 15 250 50 0 empty empty empty 0 -6 0 8 -262144 -1
-1;
#X obj 798 356 bandpassify;
#X floatatom 628 241 5 0 0 0 - - -;
#X obj 377 289 bandpassify;
#X obj 457 290 bandpassify;
#X obj 538 290 bandpassify;
#X obj 148 375 expr $f1*4;
#X obj 305 523 rzero~ -1;
#X obj 304 544 rzero~ -1;
#X obj 304 565 rzero~ -1;
#X obj 234 523 rzero~ 1;
#X obj 233 544 rzero~ 1;
#X obj 233 565 rzero~ 1;
#X obj 202 590 *~ 0.073;
#X msg 379 190 0.4;
#X msg 804 501 \; add-circle 35 100 999 4 -4;
#X msg 804 468 \; add-circle 165 100 999 4 -4;
#X msg 617 502 \; add-pole \$2 \$3 3 -3;
#X connect 5 0 105 0;
#X connect 6 0 7 0;
#X connect 6 0 18 0;
#X connect 6 0 35 0;
#X connect 7 0 6 1;
#X connect 8 0 9 0;
#X connect 9 0 15 0;
#X connect 9 1 10 0;
#X connect 10 0 6 1;
#X connect 11 0 14 0;
#X connect 12 0 13 0;
#X connect 14 0 36 0;
#X connect 15 0 36 0;
#X connect 16 0 33 0;
#X connect 17 0 19 0;
#X connect 18 0 37 0;
#X connect 18 1 17 1;
#X connect 18 1 16 0;
#X connect 19 0 12 0;
#X connect 19 1 94 0;
#X connect 20 0 25 0;
#X connect 20 0 40 0;
#X connect 21 0 22 0;
#X connect 21 0 23 0;
#X connect 22 0 44 0;
#X connect 25 0 26 0;
#X connect 27 0 20 1;
#X connect 29 0 49 0;
#X connect 30 0 31 0;
#X connect 30 1 31 1;
#X connect 31 0 57 0;
#X connect 31 1 57 1;
#X connect 32 0 30 0;
#X connect 32 0 31 0;
#X connect 32 0 50 0;
#X connect 32 0 57 0;
#X connect 32 0 55 0;
#X connect 32 0 56 0;
#X connect 33 0 20 0;
#X connect 35 0 11 0;
#X connect 36 0 6 0;
#X connect 36 0 27 0;
#X connect 37 0 17 0;
#X connect 38 0 102 0;
#X connect 39 0 12 2;
#X connect 40 0 50 0;
#X connect 44 0 39 0;
#X connect 46 0 47 0;
#X connect 46 1 65 0;
#X connect 47 0 5 0;
#X connect 48 0 46 0;
#X connect 48 1 66 0;
#X connect 49 0 51 0;
#X connect 49 1 51 1;
#X connect 49 2 41 0;
#X connect 49 2 91 0;
#X connect 49 3 42 0;
#X connect 49 3 92 0;
#X connect 49 3 93 0;
#X connect 49 4 43 0;
#X connect 49 4 92 1;
#X connect 49 5 90 0;
#X connect 49 5 93 1;
#X connect 50 0 30 0;
#X connect 50 1 30 1;
#X connect 51 0 40 1;
#X connect 52 0 91 2;
#X connect 52 0 92 2;
#X connect 52 0 93 2;
#X connect 53 0 52 0;
#X connect 54 0 53 0;
#X connect 55 0 56 0;
#X connect 55 1 56 1;
#X connect 56 0 95 0;
#X connect 56 1 67 0;
#X connect 57 0 55 0;
#X connect 57 1 55 1;
#X connect 58 0 61 0;
#X connect 61 2 59 0;
#X connect 61 3 60 0;
#X connect 63 0 62 0;
#X connect 64 0 63 0;
#X connect 65 0 5 1;
#X connect 66 0 5 2;
#X connect 67 0 68 0;
#X connect 69 0 70 0;
#X connect 69 1 73 0;
#X connect 69 2 72 0;
#X connect 70 0 71 0;
#X connect 72 0 70 2;
#X connect 73 0 70 1;
#X connect 75 0 85 0;
#X connect 76 0 89 0;
#X connect 77 0 81 0;
#X connect 78 0 82 0;
#X connect 81 0 89 0;
#X connect 81 1 89 1;
#X connect 82 0 89 0;
#X connect 82 1 89 2;
#X connect 83 0 76 0;
#X connect 84 0 78 0;
#X connect 85 0 48 0;
#X connect 85 0 4 0;
#X connect 86 0 85 1;
#X connect 87 0 52 0;
#X connect 88 0 29 0;
#X connect 89 0 79 0;
#X connect 89 1 80 0;
#X connect 91 0 50 2;
#X connect 91 0 75 0;
#X connect 91 1 50 3;
#X connect 91 1 75 1;
#X connect 91 2 30 2;
#X connect 91 2 75 0;
#X connect 91 3 30 3;
#X connect 91 3 75 1;
#X connect 92 0 31 2;
#X connect 92 0 75 0;
#X connect 92 1 31 3;
#X connect 92 1 75 1;
#X connect 92 2 57 2;
#X connect 92 2 75 0;
#X connect 92 3 57 3;
#X connect 92 3 75 1;
#X connect 93 0 55 2;
#X connect 93 0 75 0;
#X connect 93 1 55 3;
#X connect 93 1 75 1;
#X connect 93 2 56 2;
#X connect 93 2 75 0;
#X connect 93 3 56 3;
#X connect 93 3 75 1;
#X connect 94 0 12 1;
#X connect 95 0 96 0;
#X connect 96 0 97 0;
#X connect 97 0 98 0;
#X connect 98 0 99 0;
#X connect 99 0 100 0;
#X connect 100 0 101 0;
#X connect 101 0 21 0;
#X connect 102 0 29 0;
#X restore 156 91 pd put-in-graph;
#N canvas 537 0 548 204 xxx 1;
#X scalar haxis 20 100 160 157 \;;
#X scalar vaxis 100 20 160 157 \;;
#X scalar xy-plot 0 0 1 \; 165 100 \; 164.872 104.081 \; 164.487 108.146
\; 163.849 112.179 \; 162.958 116.164 \; 161.819 120.086 \; 160.436
123.927 \; 158.814 127.675 \; 156.96 131.313 \; 154.882 134.828 \;
152.587 138.205 \; 150.084 141.432 \; 147.384 144.495 \; 144.497 147.382
\; 141.434 150.082 \; 138.208 152.585 \; 134.83 154.88 \; 131.316 156.959
\; 127.678 158.813 \; 123.93 160.435 \; 120.088 161.818 \; 116.167
162.957 \; 112.182 163.848 \; 108.149 164.487 \; 104.084 164.872 \;
100.003 165 \; 95.9217 164.872 \; 91.8566 164.488 \; 87.8235 163.849
\; 83.8385 162.959 \; 79.9173 161.82 \; 76.0754 160.437 \; 72.3278
158.815 \; 68.6895 156.962 \; 65.1747 154.884 \; 61.7974 152.589 \;
58.5708 150.086 \; 55.5077 147.386 \; 52.6202 144.499 \; 49.9196 141.436
\; 47.4167 138.21 \; 45.1213 134.833 \; 43.0425 131.318 \; 41.1884
127.68 \; 39.5665 123.933 \; 38.183 120.091 \; 37.0435 116.17 \; 36.1524
112.185 \; 35.5133 108.152 \; 35.1286 104.087 \; 35 100.006 \; 35.1279
95.9248 \; 35.5118 91.8596 \; 36.1501 87.8265 \; 37.0405 83.8414 \;
38.1793 79.9202 \; 39.562 76.0782 \; 41.1833 72.3306 \; 43.0367 68.6921
\; 45.1149 65.1773 \; 47.4097 61.7998 \; 49.912 58.5731 \; 52.6119
55.5099 \; 55.4989 52.6222 \; 58.5615 49.9216 \; 61.7876 47.4185 \;
65.1646 45.1229 \; 68.6789 43.044 \; 72.3169 41.1897 \; 76.0642 39.5676
\; 79.9059 38.1839 \; 83.8269 37.0442 \; 87.8117 36.153 \; 91.8446
35.5136 \; 95.9097 35.1288 \; 99.991 35 \; 104.072 35.1277 \; 108.137
35.5114 \; 112.171 36.1496 \; 116.156 37.0397 \; 120.077 38.1783 \;
123.919 39.5609 \; 127.667 41.182 \; 131.305 43.0353 \; 134.82 45.1133
\; 138.198 47.4079 \; 141.425 49.91 \; 144.488 52.6099 \; 147.376 55.4967
\; 150.077 58.5592 \; 152.58 61.7852 \; 154.875 65.162 \; 156.955 68.6763
\; 158.809 72.3142 \; 160.431 76.0614 \; 161.815 79.903 \; 162.955
83.8239 \; 163.846 87.8087 \; 164.486 91.8416 \; 164.871 95.9067 \;
165 99.988 \; \;;
#X scalar h-seg 220 40 200 1 \;;
#X scalar u-arrow 220 165 -125 \;;
#X scalar u-arrow 420 165 -125 \;;
#X scalar xy-plot 220 0 1 \; 0 40 \; 4 40.0802 \; 8 40.6908 \; 12 42.5014
\; 16 46.7442 \; 20 55.345 \; 24 70.5302 \; 28 88.3835 \; 32 98.9184
\; 36 102.06 \; 40 102.649 \; 44 102.716 \; 48 102.717 \; 52 102.716
\; 56 102.717 \; 60 102.711 \; 64 102.65 \; 68 102.392 \; 72 101.642
\; 76 99.8971 \; 80 96.5945 \; 84 91.4138 \; 88 84.6857 \; 92 77.329
\; 96 70.3064 \; 100 64.1991 \; 104 59.1581 \; 108 55.1257 \; 112 51.9549
\; 116 49.4245 \; 120 47.4426 \; 124 45.9013 \; 128 44.6297 \; 132
43.638 \; 136 42.8461 \; 140 42.2129 \; 144 41.7066 \; 148 41.3024
\; 152 40.9818 \; 156 40.7266 \; 160 40.5271 \; 164 40.3987 \; 168
40.2546 \; 172 40.1665 \; 176 40.2527 \; 180 40.0584 \; 184 40.0295
\; 188 40.0123 \; 192 40.0036 \; 196 40 \; 200 40 \; \;;
#X scalar circle 165 100 999 4 -4 \;;
#X scalar circle 35 100 999 4 -4 \;;
#X scalar pole 111.891 53.4902 3 -3 \;;
#X scalar pole 111.891 146.51 3 -3 \;;
#X scalar pole 151.814 76.2993 3 -3 \;;
#X scalar pole 151.814 123.701 3 -3 \;;
#X scalar pole 129.777 78.9174 3 -3 \;;
#X scalar pole 129.777 121.083 3 -3 \;;
#X coords 0 204 1 203 0 0 0;
#X restore 44 119 pd xxx;
#X obj 47 89 templates;
