#N struct frame float x float y float w float h;
#N struct v-seg float x float y float z float w;
#N struct d-arrow float x float y float z;
#N struct h-seg float x float y float z float w;
#N struct r-arrow float x float y float z;
#N struct plus float x float y;
#N struct times float x float y;
#N struct xy-curve float x float y float w array z xy-point;
#N struct xy-point float x float y;
#N struct seg float x float y float dx float dy float w;
#N struct l-curve-arrow float x float y float z float z2 float z3 float
h;
#N struct circle2 float x float y float h float h2 float mh float mh2
;
#N struct vaxis float x float y float h float h-3;
#N struct xy-plot float x float y float w array z xy-point;
#N struct d-curve-arrow float x float y float z float z2 float z3 float
h;
#N struct circle float x float y float color float h float h2;
#N struct u-curve-arrow float x float y float z float z2 float z3 float
h;
#N struct r-curve-arrow float x float y float z float z2 float z3 float
h;
#N struct l-arrow float x float y float z;
#N struct u-arrow float x float y float z;
#N struct rect float x float y float w float h;
#N struct haxis float x float y float w float w-3;
#N struct y-plot float x float y float w array z y-point;
#N struct y-point float y;
#N struct thickcircle float x float y float color float h float h2
;
#N struct minus float x float y;
#N struct divide float x float y;
#N canvas 0 113 294 185 10;
#N canvas 140 175 360 357 fig 0;
#X scalar frame 100 295 36 20 \;;
#X scalar v-seg 201 13 32 1 \;;
#X scalar d-arrow 108 316 17 \;;
#X scalar h-seg 202 14 80 1 \;;
#X scalar d-arrow 246 196 12 \;;
#X scalar v-seg 282 14 204 1 \;;
#X scalar v-seg 248 29 16 1 \;;
#X scalar h-seg 248 29 19 1 \;;
#X scalar h-seg 246 208 20 1 \;;
#X scalar v-seg 266 29 178 1 \;;
#X scalar frame 121 259 16 25 \;;
#X text 121 75 d;
#X text 128 80 1;
#X scalar frame 193 46 16 26 \;;
#X text 193 288 d;
#X scalar d-arrow 129 285 9 \;;
#X scalar d-arrow 118 23 64 \;;
#X text 107 7 IN;
#X text 111 42 R;
#X scalar d-arrow 127 316 17 \;;
#X scalar d-arrow 107 250 44 \;;
#X scalar d-arrow 129 250 9 \;;
#X scalar frame 121 193 16 25 \;;
#X text 121 141 d;
#X scalar d-arrow 129 219 9 \;;
#X scalar d-arrow 129 184 9 \;;
#X text 128 146 2;
#X scalar d-arrow 107 184 44 \;;
#X scalar frame 121 127 16 26 \;;
#X text 121 207 d;
#X scalar d-arrow 129 153 9 \;;
#X text 128 212 3;
#X text 200 293 7;
#X scalar frame 216 46 16 26 \;;
#X text 216 288 d;
#X scalar frame 239 46 16 26 \;;
#X text 239 288 d;
#X text 223 293 8;
#X text 246 293 9;
#X text 119 47 1;
#X scalar frame 100 229 36 20 \;;
#X text 111 108 R;
#X scalar frame 100 163 36 20 \;;
#X text 111 174 R;
#X text 119 113 2;
#X text 119 179 3;
#X scalar frame 195 176 60 20 \;;
#X text 214 161 R;
#X text 222 167 9;
#X scalar r-arrow 192 117 -62 \;;
#X scalar v-seg 129 117 9 1 \;;
#X scalar r-arrow 215 103 -109 \;;
#X scalar v-seg 107 103 59 1 \;;
#X scalar d-arrow 201 73 26 \;;
#X scalar d-arrow 224 72 24 \;;
#X scalar d-arrow 224 112 25 \;;
#X scalar d-arrow 247 72 65 \;;
#X text 119 336 OUT;
#X scalar h-seg 118 87 83 1 \;;
#X scalar d-arrow 142 23 57 \;;
#X scalar h-seg 142 80 82 1 \;;
#X scalar d-arrow 201 196 21 \;;
#X scalar h-seg 201 218 82 1 \;;
#X scalar v-seg 225 21 24 1 \;;
#X scalar h-seg 225 22 50 1 \;;
#X scalar v-seg 275 22 191 1 \;;
#X scalar d-arrow 224 196 16 \;;
#X scalar h-seg 224 213 52 1 \;;
#X scalar v-seg 201 105 4 1 \;;
#X text 166 204 g;
#X scalar r-arrow 192 144 -15 \;;
#X scalar d-arrow 201 125 12 \;;
#X scalar d-arrow 224 152 24 \;;
#X scalar d-arrow 202 152 24 \;;
#X scalar d-arrow 247 152 24 \;;
#X scalar frame 193 110 16 15 \;;
#X scalar plus 196 112 \;;
#X scalar frame 216 97 16 15 \;;
#X scalar plus 219 99 \;;
#X scalar frame 194 137 16 15 \;;
#X scalar times 197 140 \;;
#X scalar frame 216 137 16 15 \;;
#X scalar times 219 140 \;;
#X scalar frame 239 137 16 15 \;;
#X scalar times 242 140 \;;
#X coords 0 357 1 356 0 0 0;
#X restore 51 61 pd fig;
#X obj 56 88 templates;
