#N canvas 144 20 392 356 10;
#X obj 7 164 mtof;
#X obj 7 119 stripnote;
#X obj 123 171 select;
#X obj 107 77 float;
#X obj 123 44 t b f;
#X obj 123 139 float;
#X text 165 36 f - store pitch below;
#X text 162 78 velocity stored here;
#X text 86 119 off;
#X text 165 138 recall pitch;
#X obj 7 7 notein;
#X obj 71 219 line~;
#X msg 71 193 \$1 100;
#X msg 123 195 0 1000;
#X text 167 52 b - bang to recall velocity;
#X obj 107 100 sel 0;
#X text 133 117 on;
#X obj 7 284 *~;
#X obj 7 189 phasor~;
#X obj 7 213 -~ 0.5;
#X obj 7 241 cos~;
#X obj 79 264 *~;
#X obj 7 263 +~ 1;
#X obj 79 305 cos~;
#X text 11 146 pitch;
#X text 163 99 test for note on or off;
#X text 173 170 test against latest;
#X text 216 185 note-on pitch;
#X text 9 103 filter;
#X text 11 90 note-on;
#X obj 7 307 *~;
#X obj 71 172 / 127;
#X obj 79 284 *~ 2;
#X obj 96 242 +~ 0.5;
#X text 113 303 This replaces the tabread4~;
#X text 152 319 in the previous patch.;
#X text 3 333 (OUT);
#X text 117 220 envelope generator now controls;
#X text 161 234 amplitude as well as grain size;
#X text 43 44 vel;
#X text 11 44 pit;
#X text 5 321 |;
#X connect 0 0 18 0;
#X connect 1 0 2 1;
#X connect 1 0 0 0;
#X connect 2 0 13 0;
#X connect 3 0 15 0;
#X connect 4 0 3 0;
#X connect 4 1 5 1;
#X connect 5 0 2 0;
#X connect 10 0 1 0;
#X connect 10 0 4 0;
#X connect 10 1 1 1;
#X connect 10 1 3 1;
#X connect 11 0 30 1;
#X connect 11 0 33 0;
#X connect 12 0 11 0;
#X connect 13 0 11 0;
#X connect 15 0 5 0;
#X connect 15 1 31 0;
#X connect 17 0 30 0;
#X connect 18 0 19 0;
#X connect 19 0 21 0;
#X connect 19 0 20 0;
#X connect 20 0 22 0;
#X connect 21 0 32 0;
#X connect 22 0 17 0;
#X connect 23 0 17 1;
#X connect 31 0 12 0;
#X connect 32 0 23 0;
#X connect 33 0 21 1;
