#N struct d-arrow float x float y float z;
#N struct l-arrow float x float y float z;
#N struct v-seg float x float y float z float w;
#N struct frame float x float y float w float h;
#N struct h-seg float x float y float z float w;
#N struct times float x float y;
#N struct plus float x float y;
#N struct xy-curve float x float y float w array z xy-point;
#N struct xy-point float x float y;
#N struct seg float x float y float dx float dy float w;
#N struct l-curve-arrow float x float y float z float z2 float z3 float
h;
#N struct circle2 float x float y float h float h2 float mh float mh2
;
#N struct vaxis float x float y float h float h-3;
#N struct xy-plot float x float y float w array z xy-point;
#N struct d-curve-arrow float x float y float z float z2 float z3 float
h;
#N struct circle float x float y float color float h float h2;
#N struct u-curve-arrow float x float y float z float z2 float z3 float
h;
#N struct r-curve-arrow float x float y float z float z2 float z3 float
h;
#N struct r-arrow float x float y float z;
#N struct u-arrow float x float y float z;
#N struct rect float x float y float w float h;
#N struct haxis float x float y float w float w-3;
#N struct y-plot float x float y float w array z y-point;
#N struct y-point float y;
#N struct thickcircle float x float y float color float h float h2
;
#N struct minus float x float y;
#N struct divide float x float y;
#N canvas 679 25 294 185 10;
#N canvas 458 4 375 369 fig 1;
#X scalar d-arrow 55 27 15 \;;
#X scalar d-arrow 73 316 17 \;;
#X text 38 18 frequency;
#X text 45 343 OUT;
#X text 38 6 fundamental;
#X scalar d-arrow 74 147 121 \;;
#X scalar d-arrow 55 62 14 \;;
#X scalar l-arrow 66 87 86 \;;
#X scalar v-seg 152 86 26 1 \;;
#X scalar d-arrow 55 96 15 \;;
#X scalar frame 6 112 87 35 \;;
#X scalar frame 39 269 77 46 \;;
#X scalar d-arrow 35 148 15 \;;
#X scalar h-seg 75 243 241 1 \;;
#X text 42 62 phase;
#X text 41 77 generation;
#X text 10 232 modulator 1;
#X scalar frame 102 112 72 35 \;;
#X scalar d-arrow 152 148 15 \;;
#X text 105 232 carrier 1;
#X scalar d-arrow 120 148 95 \;;
#X text 131 188 p1 \, q1;
#X text 131 174 k1 \,;
#X scalar d-arrow 270 147 96 \;;
#X scalar l-arrow 262 87 87 \;;
#X scalar v-seg 348 86 26 1 \;;
#X scalar d-arrow 251 96 15 \;;
#X scalar frame 202 112 87 35 \;;
#X scalar d-arrow 231 148 15 \;;
#X scalar frame 298 112 72 35 \;;
#X scalar d-arrow 348 148 15 \;;
#X scalar d-arrow 316 148 94 \;;
#X text 206 232 modulator 2;
#X text 301 232 carrier 2;
#X text 327 174 k2 \,;
#X text 327 188 p2 \, q2;
#X scalar l-arrow 66 52 187 \;;
#X scalar v-seg 252 52 24 1 \;;
#X scalar frame 45 76 20 19 \;;
#X scalar times 51 81 \;;
#X scalar plus 50 46 \;;
#X scalar frame 45 42 20 19 \;;
#X scalar frame 241 76 20 19 \;;
#X scalar times 247 81 \;;
#X text 27 189 b1;
#X text 223 189 b2;
#X coords 0 369 1 368 0 0 0;
#X restore 42 60 pd fig;
#X obj 42 91 templates;
