#N struct r-arrow float x float y float z;
#N struct u-arrow float x float y float z;
#N struct y-plot float x float y float w array z y-point;
#N struct y-point float y;
#N struct v-seg float x float y float z float w;
#N struct l-arrow float x float y float z;
#N struct xy-curve float x float y float w array z xy-point;
#N struct xy-point float x float y;
#N struct seg float x float y float dx float dy float w;
#N struct l-curve-arrow float x float y float z float z2 float z3 float
h;
#N struct circle2 float x float y float h float h2 float mh float mh2
;
#N struct vaxis float x float y float h float h-3;
#N struct xy-plot float x float y float w array z xy-point;
#N struct d-curve-arrow float x float y float z float z2 float z3 float
h;
#N struct circle float x float y float color float h float h2;
#N struct u-curve-arrow float x float y float z float z2 float z3 float
h;
#N struct r-curve-arrow float x float y float z float z2 float z3 float
h;
#N struct d-arrow float x float y float z;
#N struct h-seg float x float y float z float w;
#N struct rect float x float y float w float h;
#N struct haxis float x float y float w float w-3;
#N struct frame float x float y float w float h;
#N struct thickcircle float x float y float color float h float h2
;
#N canvas 369 57 329 179 10;
#N canvas 68 243 348 186 fig 1;
#X text 172 150 0;
#X text 301 155 k->;
#X text 179 18 amplitude;
#X scalar r-arrow 325 43 -300 \;;
#X scalar u-arrow 175 172 -130 \;;
#X scalar y-plot 25 44 1 \; 8.10302e-05 \; 0.672719 \; 1.34696 \; 2.01544
\; 2.67078 \; 3.30562 \; 3.91275 \; 4.48515 \; 5.01607 \; 5.49912 \;
5.92836 \; 6.29831 \; 6.6041 \; 6.84144 \; 7.00675 \; 7.09718 \; 7.11061
\; 7.04577 \; 6.90218 \; 6.68023 \; 6.38115 \; 6.007 \; 5.56074 \;
5.04609 \; 4.4676 \; 3.83058 \; 3.14105 \; 2.40567 \; 1.63174 \; 0.827064
\; -8.09102e-05 \; -0.841053 \; -1.68692 \; -2.52853 \; -3.35664 \;
-4.16199 \; -4.93541 \; -5.66791 \; -6.35078 \; -6.9757 \; -7.53482
\; -8.02085 \; -8.42717 \; -8.74787 \; -8.97786 \; -9.11293 \; -9.14979
\; -9.08616 \; -8.92078 \; -8.65344 \; -8.28503 \; -7.81753 \; -7.25401
\; -6.59864 \; -5.85661 \; -5.03417 \; -4.13858 \; -3.17795 \; -2.16132
\; -1.09847 \; 8.0817e-05 \; 1.12324 \; 2.25942 \; 3.3966 \; 4.52252
\; 5.62474 \; 6.69076 \; 7.70824 \; 8.66498 \; 9.54921 \; 10.3496 \;
11.0553 \; 11.6565 \; 12.1439 \; 12.5093 \; 12.7455 \; 12.8466 \; 12.8078
\; 12.6257 \; 12.2982 \; 11.8247 \; 11.2061 \; 10.4448 \; 9.54468 \;
8.51117 \; 7.35123 \; 6.07331 \; 4.68729 \; 3.20446 \; 1.63739 \; -8.07505e-05
\; -1.69298 \; -3.42531 \; -5.18016 \; -6.93985 \; -8.68605 \; -10.3999
\; -12.0623 \; -13.6539 \; -15.1554 \; -16.5475 \; -17.8114 \; -18.9287
\; -19.8817 \; -20.6536 \; -21.2285 \; -21.5917 \; -21.7297 \; -21.6306
\; -21.2839 \; -20.6809 \; -19.8146 \; -18.6799 \; -17.2738 \; -15.5951
\; -13.6449 \; -11.426 \; -8.94383 \; -6.20549 \; -3.2204 \; 8.07107e-05
\; 3.44259 \; 7.09184 \; 10.9308 \; 14.9406 \; 19.1008 \; 23.3898 \;
27.7842 \; 32.2598 \; 36.7914 \; 41.3528 \; 45.9174 \; 50.4582 \; 54.9478
\; 59.359 \; 63.6646 \; 67.8381 \; 71.8532 \; 75.6847 \; 79.3083 \;
82.7009 \; 85.8406 \; 88.7074 \; 91.2826 \; 93.5495 \; 95.4934 \; 97.1015
\; 98.3633 \; 99.2706 \; 99.8173 \; 100 \; 99.8173 \; 99.2706 \; 98.3633
\; 97.1015 \; 95.4934 \; 93.5496 \; 91.2827 \; 88.7075 \; 85.8407 \;
82.7009 \; 79.3083 \; 75.6847 \; 71.8532 \; 67.8381 \; 63.6646 \; 59.359
\; 54.9478 \; 50.4582 \; 45.9174 \; 41.3528 \; 36.7914 \; 32.2598 \;
27.7842 \; 23.3898 \; 19.1009 \; 14.9406 \; 10.9308 \; 7.0919 \; 3.44253
\; 8.07107e-05 \; -3.22044 \; -6.20549 \; -8.94384 \; -11.426 \; -13.6449
\; -15.5951 \; -17.2738 \; -18.6799 \; -19.8146 \; -20.6809 \; -21.2839
\; -21.6306 \; -21.7297 \; -21.5917 \; -21.2285 \; -20.6536 \; -19.8817
\; -18.9287 \; -17.8114 \; -16.5475 \; -15.1554 \; -13.6539 \; -12.0623
\; -10.3999 \; -8.68605 \; -6.93985 \; -5.18016 \; -3.42531 \; -1.69298
\; -8.07505e-05 \; 1.63738 \; 3.20445 \; 4.68729 \; 6.0733 \; 7.35122
\; 8.51117 \; 9.54469 \; 10.4448 \; 11.2062 \; 11.8248 \; 12.2982 \;
12.6257 \; 12.8078 \; 12.8466 \; 12.7455 \; 12.5093 \; 12.1439 \; 11.6565
\; 11.0553 \; 10.3496 \; 9.54921 \; 8.66499 \; 7.70825 \; 6.69077 \;
5.62473 \; 4.52252 \; 3.3966 \; 2.25942 \; 1.12324 \; 8.0817e-05 \;
-1.09849 \; -2.16132 \; -3.17796 \; -4.13858 \; -5.03419 \; -5.85661
\; -6.59864 \; -7.25401 \; -7.81753 \; -8.28503 \; -8.65344 \; -8.92078
\; -9.08616 \; -9.14979 \; -9.11293 \; -8.97786 \; -8.74787 \; -8.42717
\; -8.02085 \; -7.53481 \; -6.9757 \; -6.35077 \; -5.66792 \; -4.93541
\; -4.162 \; -3.35664 \; -2.52854 \; -1.68692 \; -0.841068 \; -8.09102e-05
\; 0.827057 \; 1.63174 \; 2.40568 \; 3.14105 \; 3.83059 \; 4.4676 \;
5.04609 \; 5.56073 \; 6.007 \; 6.38114 \; 6.68023 \; 6.90218 \; 7.04577
\; 7.11061 \; 7.09718 \; 7.00675 \; 6.84144 \; 6.6041 \; 6.29831 \;
5.92836 \; 5.49911 \; 5.01606 \; 4.48515 \; 3.91275 \; 3.30561 \; 2.67078
\; 2.01545 \; 1.34696 \; 0.672713 \; 8.10302e-05 \; \;;
#X scalar v-seg 24 40 6 3 \;;
#X scalar v-seg 54 40 6 3 \;;
#X scalar v-seg 84 40 6 3 \;;
#X scalar v-seg 114 40 6 3 \;;
#X scalar v-seg 144 40 6 3 \;;
#X scalar v-seg 174 40 6 3 \;;
#X scalar v-seg 204 40 6 3 \;;
#X scalar v-seg 234 40 6 3 \;;
#X scalar v-seg 264 40 6 3 \;;
#X scalar v-seg 294 40 6 3 \;;
#X scalar v-seg 324 40 6 3 \;;
#X scalar y-plot 25 44 1 \; -4.05886e-05 \; -0.280498 \; -0.56098 \;
-0.838419 \; -1.10973 \; -1.37189 \; -1.6219 \; -1.85691 \; -2.07416
\; -2.27108 \; -2.44525 \; -2.59452 \; -2.71696 \; -2.81091 \; -2.875
\; -2.90818 \; -2.9097 \; -2.87918 \; -2.81654 \; -2.72209 \; -2.59647
\; -2.44066 \; -2.25598 \; -2.04411 \; -1.80701 \; -1.54696 \; -1.2665
\; -0.968446 \; -0.655822 \; -0.331861 \; 4.05151e-05 \; 0.336359 \;
0.673479 \; 1.00772 \; 1.33539 \; 1.65281 \; 1.95638 \; 2.24258 \;
2.50803 \; 2.74956 \; 2.96418 \; 3.14916 \; 3.30205 \; 3.42072 \; 3.50338
\; 3.54859 \; 3.55531 \; 3.52289 \; 3.45109 \; 3.34012 \; 3.19057 \;
3.0035 \; 2.78036 \; 2.52305 \; 2.2338 \; 1.91529 \; 1.57052 \; 1.20283
\; 0.815871 \; 0.413532 \; -4.04551e-05 \; -0.420527 \; -0.84346 \;
-1.26426 \; -1.67832 \; -2.081 \; -2.46771 \; -2.83395 \; -3.17539
\; -3.48785 \; -3.76741 \; -4.01043 \; -4.21358 \; -4.37394 \; -4.48893
\; -4.55646 \; -4.5749 \; -4.54308 \; -4.46039 \; -4.32672 \; -4.14252
\; -3.90877 \; -3.62701 \; -3.29932 \; -2.9283 \; -2.51709 \; -2.06929
\; -1.58898 \; -1.08066 \; -0.54924 \; 4.04085e-05 \; 0.561622 \; 1.12971
\; 1.6983 \; 2.26126 \; 2.81236 \; 3.34538 \; 3.85411 \; 4.33249 \;
4.77461 \; 5.17479 \; 5.52766 \; 5.82824 \; 6.07193 \; 6.25463 \; 6.37275
\; 6.42331 \; 6.40392 \; 6.31286 \; 6.14911 \; 5.91237 \; 5.60307 \;
5.22241 \; 4.77234 \; 4.25558 \; 3.67561 \; 3.03665 \; 2.34365 \; 1.60222
\; 0.818692 \; -4.03753e-05 \; -0.846489 \; -1.71265 \; -2.59008 \;
-3.46992 \; -4.34302 \; -5.19997 \; -6.03118 \; -6.82698 \; -7.5777
\; -8.27374 \; -8.90569 \; -9.46434 \; -9.94086 \; -10.3268 \; -10.6143
\; -10.7959 \; -10.8649 \; -10.8153 \; -10.6419 \; -10.3404 \; -9.90728
\; -9.33996 \; -8.63691 \; -7.79757 \; -6.82243 \; -5.71301 \; -4.4719
\; -3.10274 \; -1.6102 \; 4.03553e-05 \; 1.72129 \; 3.54592 \; 5.46538
\; 7.47028 \; 9.55042 \; 11.6949 \; 13.8921 \; 16.1299 \; 18.3956 \;
20.6764 \; 22.9587 \; 25.2291 \; 27.4739 \; 29.6795 \; 31.8323 \; 33.919
\; 35.9266 \; 37.8423 \; 39.6541 \; 41.3504 \; 42.9203 \; 44.3537 \;
45.6413 \; 46.7748 \; 47.7467 \; 48.5507 \; 49.1817 \; 49.6353 \; 49.9087
\; 50 \; 49.9087 \; 49.6353 \; 49.1817 \; 48.5508 \; 47.7467 \; 46.7748
\; 45.6413 \; 44.3537 \; 42.9203 \; 41.3505 \; 39.6541 \; 37.8424 \;
35.9266 \; 33.9191 \; 31.8323 \; 29.6795 \; 27.4739 \; 25.2291 \; 22.9587
\; 20.6764 \; 18.3956 \; 16.1299 \; 13.8921 \; 11.6949 \; 9.55042 \;
7.47028 \; 5.46538 \; 3.54592 \; 1.72129 \; 4.03553e-05 \; -1.6102
\; -3.10274 \; -4.4719 \; -5.71301 \; -6.82242 \; -7.79757 \; -8.63691
\; -9.33996 \; -9.90728 \; -10.3404 \; -10.6419 \; -10.8153 \; -10.8649
\; -10.7959 \; -10.6143 \; -10.3268 \; -9.94086 \; -9.46434 \; -8.90569
\; -8.27374 \; -7.5777 \; -6.82698 \; -6.03118 \; -5.19998 \; -4.34302
\; -3.46992 \; -2.59008 \; -1.71265 \; -0.846489 \; -4.03753e-05 \;
0.818703 \; 1.60222 \; 2.34365 \; 3.03665 \; 3.67562 \; 4.25558 \;
4.77234 \; 5.22241 \; 5.60308 \; 5.91237 \; 6.14912 \; 6.31286 \; 6.40392
\; 6.42331 \; 6.37275 \; 6.25462 \; 6.07193 \; 5.82824 \; 5.52766 \;
5.17478 \; 4.77461 \; 4.33249 \; 3.85412 \; 3.34538 \; 2.81237 \; 2.26126
\; 1.69831 \; 1.12971 \; 0.561632 \; 4.04085e-05 \; -0.549231 \; -1.08066
\; -1.58898 \; -2.06929 \; -2.5171 \; -2.9283 \; -3.29932 \; -3.627
\; -3.90877 \; -4.14251 \; -4.32672 \; -4.46039 \; -4.54308 \; -4.5749
\; -4.55646 \; -4.48893 \; -4.37394 \; -4.21359 \; -4.01043 \; -3.76741
\; -3.48784 \; -3.17539 \; -2.83396 \; -2.46771 \; -2.08099 \; -1.67832
\; -1.26427 \; -0.84346 \; -0.420523 \; -4.04551e-05 \; \;;
#X scalar y-plot 25 44 1 \; -4.04551e-05 \; -0.420527 \; -0.84346 \;
-1.26426 \; -1.67832 \; -2.081 \; -2.46771 \; -2.83395 \; -3.17539
\; -3.48785 \; -3.76741 \; -4.01043 \; -4.21359 \; -4.37394 \; -4.48893
\; -4.55646 \; -4.5749 \; -4.54308 \; -4.46039 \; -4.32672 \; -4.14252
\; -3.90877 \; -3.62701 \; -3.29932 \; -2.9283 \; -2.51709 \; -2.06929
\; -1.58897 \; -1.08066 \; -0.549235 \; 4.04085e-05 \; 0.561622 \;
1.12971 \; 1.6983 \; 2.26126 \; 2.81236 \; 3.34538 \; 3.85412 \; 4.33249
\; 4.77461 \; 5.17479 \; 5.52766 \; 5.82824 \; 6.07193 \; 6.25463 \;
6.37275 \; 6.42331 \; 6.40392 \; 6.31286 \; 6.14912 \; 5.91237 \; 5.60307
\; 5.22241 \; 4.77234 \; 4.25558 \; 3.67561 \; 3.03665 \; 2.34364 \;
1.60222 \; 0.818692 \; -4.03753e-05 \; -0.846489 \; -1.71265 \; -2.59008
\; -3.46993 \; -4.34303 \; -5.19997 \; -6.03118 \; -6.82697 \; -7.57769
\; -8.27374 \; -8.90568 \; -9.46434 \; -9.94086 \; -10.3268 \; -10.6143
\; -10.7959 \; -10.8649 \; -10.8153 \; -10.6419 \; -10.3404 \; -9.90728
\; -9.33996 \; -8.6369 \; -7.79756 \; -6.82243 \; -5.71302 \; -4.47191
\; -3.10276 \; -1.61021 \; 4.03553e-05 \; 1.72129 \; 3.54592 \; 5.46538
\; 7.47028 \; 9.55042 \; 11.6949 \; 13.8921 \; 16.1299 \; 18.3957 \;
20.6764 \; 22.9587 \; 25.2291 \; 27.4739 \; 29.6795 \; 31.8323 \; 33.919
\; 35.9266 \; 37.8424 \; 39.6542 \; 41.3504 \; 42.9203 \; 44.3537 \;
45.6413 \; 46.7748 \; 47.7467 \; 48.5507 \; 49.1817 \; 49.6353 \; 49.9087
\; 50 \; 49.9087 \; 49.6353 \; 49.1817 \; 48.5508 \; 47.7467 \; 46.7748
\; 45.6413 \; 44.3537 \; 42.9203 \; 41.3504 \; 39.6541 \; 37.8423 \;
35.9266 \; 33.919 \; 31.8323 \; 29.6795 \; 27.4739 \; 25.2291 \; 22.9587
\; 20.6764 \; 18.3957 \; 16.1299 \; 13.8921 \; 11.6949 \; 9.55045 \;
7.47028 \; 5.46538 \; 3.54592 \; 1.72129 \; 4.03553e-05 \; -1.6102
\; -3.10274 \; -4.4719 \; -5.71301 \; -6.82242 \; -7.79756 \; -8.6369
\; -9.33995 \; -9.90728 \; -10.3404 \; -10.6419 \; -10.8153 \; -10.8649
\; -10.7959 \; -10.6143 \; -10.3268 \; -9.94086 \; -9.46434 \; -8.90569
\; -8.27374 \; -7.5777 \; -6.82698 \; -6.03118 \; -5.19998 \; -4.34304
\; -3.46994 \; -2.59009 \; -1.71267 \; -0.846477 \; -4.03753e-05 \;
0.818703 \; 1.60222 \; 2.34365 \; 3.03665 \; 3.67562 \; 4.25558 \;
4.77234 \; 5.22241 \; 5.60308 \; 5.91237 \; 6.14912 \; 6.31286 \; 6.40392
\; 6.42331 \; 6.37275 \; 6.25463 \; 6.07193 \; 5.82824 \; 5.52766 \;
5.17478 \; 4.7746 \; 4.33249 \; 3.85411 \; 3.34538 \; 2.81236 \; 2.26126
\; 1.6983 \; 1.12971 \; 0.561622 \; 4.04085e-05 \; -0.549235 \; -1.08066
\; -1.58897 \; -2.06929 \; -2.51709 \; -2.92831 \; -3.29932 \; -3.62701
\; -3.90877 \; -4.14252 \; -4.32672 \; -4.46039 \; -4.54308 \; -4.5749
\; -4.55646 \; -4.48893 \; -4.37394 \; -4.21359 \; -4.01043 \; -3.76741
\; -3.48785 \; -3.17539 \; -2.83396 \; -2.46771 \; -2.08099 \; -1.67832
\; -1.26426 \; -0.84346 \; -0.420527 \; -4.04551e-05 \; 0.41354 \;
0.815871 \; 1.20284 \; 1.57052 \; 1.91529 \; 2.2338 \; 2.52305 \; 2.78036
\; 3.0035 \; 3.19057 \; 3.34012 \; 3.45109 \; 3.52289 \; 3.55531 \;
3.54859 \; 3.50338 \; 3.42072 \; 3.30205 \; 3.14916 \; 2.96417 \; 2.74956
\; 2.50803 \; 2.24258 \; 1.95638 \; 1.65281 \; 1.33539 \; 1.00772 \;
0.673479 \; 0.336366 \; 4.05151e-05 \; -0.331858 \; -0.655822 \; -0.968446
\; -1.2665 \; -1.54696 \; -1.80701 \; -2.04411 \; -2.25598 \; -2.44066
\; -2.59647 \; -2.72209 \; -2.81654 \; -2.87918 \; -2.9097 \; -2.90818
\; -2.875 \; -2.81091 \; -2.71696 \; -2.59452 \; -2.44526 \; -2.27107
\; -2.07416 \; -1.85691 \; -1.6219 \; -1.37188 \; -1.10973 \; -0.838419
\; -0.56098 \; -0.280493 \; -4.05886e-05 \; \;;
#X scalar y-plot 25 44 1 \; -1.35115e-08 \; -0.0283058 \; -0.0574811
\; -0.0872459 \; -0.117279 \; -0.147266 \; -0.176857 \; -0.205724 \;
-0.233483 \; -0.259806 \; -0.284305 \; -0.306639 \; -0.326451 \; -0.343407
\; -0.357178 \; -0.367466 \; -0.373986 \; -0.376488 \; -0.374749 \;
-0.368583 \; -0.357839 \; -0.342421 \; -0.322253 \; -0.297338 \; -0.267714
\; -0.233467 \; -0.194744 \; -0.151751 \; -0.104739 \; -0.0540318 \;
1.34169e-08 \; 0.0569285 \; 0.116271 \; 0.177492 \; 0.240006 \; 0.303183
\; 0.366346 \; 0.428785 \; 0.489745 \; 0.548465 \; 0.604141 \; 0.655965
\; 0.703115 \; 0.744779 \; 0.780142 \; 0.808414 \; 0.828824 \; 0.84064
\; 0.843173 \; 0.835789 \; 0.817909 \; 0.789042 \; 0.748763 \; 0.696753
\; 0.632773 \; 0.556723 \; 0.468595 \; 0.36853 \; 0.256777 \; 0.133753
\; -1.33659e-08 \; -0.143771 \; -0.29669 \; -0.457742 \; -0.625731
\; -0.799294 \; -0.976918 \; -1.1569 \; -1.33738 \; -1.51633 \; -1.69158
\; -1.86078 \; -2.02144 \; -2.17094 \; -2.30649 \; -2.42522 \; -2.52413
\; -2.60011 \; -2.64996 \; -2.67043 \; -2.6582 \; -2.6099 \; -2.52214
\; -2.39154 \; -2.2147 \; -1.98829 \; -1.709 \; -1.3736 \; -0.978965
\; -0.522061 \; 1.33077e-08 \; 0.589939 \; 1.25033 \; 1.98352 \; 2.7917
\; 3.67674 \; 4.64033 \; 5.68385 \; 6.80844 \; 8.0149 \; 9.30369 \;
10.675 \; 12.1287 \; 13.6641 \; 15.2805 \; 16.9765 \; 18.7506 \; 20.6008
\; 22.5246 \; 24.5194 \; 26.582 \; 28.7089 \; 30.8962 \; 33.1399 \;
35.4352 \; 37.7775 \; 40.1614 \; 42.5815 \; 45.032 \; 47.507 \; 50
\; 52.5048 \; 55.0145 \; 57.5224 \; 60.0214 \; 62.5045 \; 64.9646 \;
67.3943 \; 69.7866 \; 72.134 \; 74.4295 \; 76.6659 \; 78.8362 \; 80.9335
\; 82.9512 \; 84.8827 \; 86.7217 \; 88.4622 \; 90.0985 \; 91.6251 \;
93.0368 \; 94.329 \; 95.4974 \; 96.5378 \; 97.4469 \; 98.2214 \; 98.8588
\; 99.3568 \; 99.7138 \; 99.9284 \; 100 \; 99.9284 \; 99.7138 \; 99.3568
\; 98.8588 \; 98.2214 \; 97.4469 \; 96.5378 \; 95.4974 \; 94.3291 \;
93.0368 \; 91.6251 \; 90.0985 \; 88.4622 \; 86.7217 \; 84.8827 \; 82.9512
\; 80.9335 \; 78.8362 \; 76.6659 \; 74.4295 \; 72.134 \; 69.7866 \;
67.3943 \; 64.9646 \; 62.5046 \; 60.0214 \; 57.5224 \; 55.0145 \; 52.5047
\; 50 \; 47.5069 \; 45.032 \; 42.5815 \; 40.1614 \; 37.7774 \; 35.4352
\; 33.1398 \; 30.8962 \; 28.7088 \; 26.582 \; 24.5194 \; 22.5247 \;
20.6008 \; 18.7507 \; 16.9765 \; 15.2805 \; 13.6641 \; 12.1286 \; 10.675
\; 9.30367 \; 8.01487 \; 6.80844 \; 5.68385 \; 4.64033 \; 3.67674 \;
2.7917 \; 1.98352 \; 1.25033 \; 0.589939 \; 1.33077e-08 \; -0.522053
\; -0.978955 \; -1.37359 \; -1.709 \; -1.98829 \; -2.21471 \; -2.39154
\; -2.52214 \; -2.6099 \; -2.6582 \; -2.67043 \; -2.64996 \; -2.60011
\; -2.52413 \; -2.42522 \; -2.30649 \; -2.17094 \; -2.02144 \; -1.86079
\; -1.69158 \; -1.51634 \; -1.33738 \; -1.15689 \; -0.976915 \; -0.799293
\; -0.625722 \; -0.457742 \; -0.29669 \; -0.143771 \; -1.33659e-08
\; 0.133752 \; 0.256777 \; 0.368529 \; 0.468595 \; 0.556721 \; 0.632773
\; 0.696749 \; 0.748765 \; 0.789044 \; 0.817912 \; 0.835789 \; 0.843173
\; 0.84064 \; 0.828823 \; 0.808414 \; 0.780142 \; 0.744779 \; 0.703115
\; 0.655965 \; 0.60414 \; 0.548465 \; 0.489746 \; 0.428783 \; 0.366346
\; 0.303184 \; 0.240006 \; 0.177493 \; 0.116271 \; 0.0569295 \; 1.34169e-08
\; -0.0540313 \; -0.104739 \; -0.151746 \; -0.194744 \; -0.233468 \;
-0.267714 \; -0.297341 \; -0.322259 \; -0.342421 \; -0.357841 \; -0.368583
\; -0.37475 \; -0.376488 \; -0.373986 \; -0.367466 \; -0.35718 \; -0.343407
\; -0.326452 \; -0.306639 \; -0.284308 \; -0.259803 \; -0.23349 \;
-0.205719 \; -0.176857 \; -0.14726 \; -0.117279 \; -0.0872416 \; -0.0574811
\; -0.028303 \; -1.35115e-08 \; \;;
#X text 200 150 1;
#X text 233 150 2;
#X text 140 156 -1;
#X text 236 61 M(k);
#X scalar l-arrow 201 119 30 \;;
#X scalar l-arrow 196 100 30 \;;
#X text 231 80 D (k);
#X text 238 89 N;
#X scalar l-arrow 226 77 30 \;;
#X text 268 112 N;
#X text 261 103 D (k-1);
#X coords 0 186 1 185 0 0 0;
#X restore 51 61 pd fig;
#X obj 170 42 templates;
#N canvas 16 427 468 394 z 1;
#X scalar r-arrow 375 75 -300 \;;
#X scalar u-arrow 225 204 -130 \;;
#X scalar y-plot 75 76 1 \; 8.10302e-05 \; 0.672719 \; 1.34696 \; 2.01544
\; 2.67078 \; 3.30562 \; 3.91275 \; 4.48515 \; 5.01607 \; 5.49912 \;
5.92836 \; 6.29831 \; 6.6041 \; 6.84144 \; 7.00675 \; 7.09718 \; 7.11061
\; 7.04577 \; 6.90218 \; 6.68023 \; 6.38115 \; 6.007 \; 5.56074 \;
5.04609 \; 4.4676 \; 3.83058 \; 3.14105 \; 2.40567 \; 1.63174 \; 0.827064
\; -8.09102e-05 \; -0.841053 \; -1.68692 \; -2.52853 \; -3.35664 \;
-4.16199 \; -4.93541 \; -5.66791 \; -6.35078 \; -6.9757 \; -7.53482
\; -8.02085 \; -8.42717 \; -8.74787 \; -8.97786 \; -9.11293 \; -9.14979
\; -9.08616 \; -8.92078 \; -8.65344 \; -8.28503 \; -7.81753 \; -7.25401
\; -6.59864 \; -5.85661 \; -5.03417 \; -4.13858 \; -3.17795 \; -2.16132
\; -1.09847 \; 8.0817e-05 \; 1.12324 \; 2.25942 \; 3.3966 \; 4.52252
\; 5.62474 \; 6.69076 \; 7.70824 \; 8.66498 \; 9.54921 \; 10.3496 \;
11.0553 \; 11.6565 \; 12.1439 \; 12.5093 \; 12.7455 \; 12.8466 \; 12.8078
\; 12.6257 \; 12.2982 \; 11.8247 \; 11.2061 \; 10.4448 \; 9.54468 \;
8.51117 \; 7.35123 \; 6.07331 \; 4.68729 \; 3.20446 \; 1.63739 \; -8.07505e-05
\; -1.69298 \; -3.42531 \; -5.18016 \; -6.93985 \; -8.68605 \; -10.3999
\; -12.0623 \; -13.6539 \; -15.1554 \; -16.5475 \; -17.8114 \; -18.9287
\; -19.8817 \; -20.6536 \; -21.2285 \; -21.5917 \; -21.7297 \; -21.6306
\; -21.2839 \; -20.6809 \; -19.8146 \; -18.6799 \; -17.2738 \; -15.5951
\; -13.6449 \; -11.426 \; -8.94383 \; -6.20549 \; -3.2204 \; 8.07107e-05
\; 3.44259 \; 7.09184 \; 10.9308 \; 14.9406 \; 19.1008 \; 23.3898 \;
27.7842 \; 32.2598 \; 36.7914 \; 41.3528 \; 45.9174 \; 50.4582 \; 54.9478
\; 59.359 \; 63.6646 \; 67.8381 \; 71.8532 \; 75.6847 \; 79.3083 \;
82.7009 \; 85.8406 \; 88.7074 \; 91.2826 \; 93.5495 \; 95.4934 \; 97.1015
\; 98.3633 \; 99.2706 \; 99.8173 \; 100 \; 99.8173 \; 99.2706 \; 98.3633
\; 97.1015 \; 95.4934 \; 93.5496 \; 91.2827 \; 88.7075 \; 85.8407 \;
82.7009 \; 79.3083 \; 75.6847 \; 71.8532 \; 67.8381 \; 63.6646 \; 59.359
\; 54.9478 \; 50.4582 \; 45.9174 \; 41.3528 \; 36.7914 \; 32.2598 \;
27.7842 \; 23.3898 \; 19.1009 \; 14.9406 \; 10.9308 \; 7.0919 \; 3.44253
\; 8.07107e-05 \; -3.22044 \; -6.20549 \; -8.94384 \; -11.426 \; -13.6449
\; -15.5951 \; -17.2738 \; -18.6799 \; -19.8146 \; -20.6809 \; -21.2839
\; -21.6306 \; -21.7297 \; -21.5917 \; -21.2285 \; -20.6536 \; -19.8817
\; -18.9287 \; -17.8114 \; -16.5475 \; -15.1554 \; -13.6539 \; -12.0623
\; -10.3999 \; -8.68605 \; -6.93985 \; -5.18016 \; -3.42531 \; -1.69298
\; -8.07505e-05 \; 1.63738 \; 3.20445 \; 4.68729 \; 6.0733 \; 7.35122
\; 8.51117 \; 9.54469 \; 10.4448 \; 11.2062 \; 11.8248 \; 12.2982 \;
12.6257 \; 12.8078 \; 12.8466 \; 12.7455 \; 12.5093 \; 12.1439 \; 11.6565
\; 11.0553 \; 10.3496 \; 9.54921 \; 8.66499 \; 7.70825 \; 6.69077 \;
5.62473 \; 4.52252 \; 3.3966 \; 2.25942 \; 1.12324 \; 8.0817e-05 \;
-1.09849 \; -2.16132 \; -3.17796 \; -4.13858 \; -5.03419 \; -5.85661
\; -6.59864 \; -7.25401 \; -7.81753 \; -8.28503 \; -8.65344 \; -8.92078
\; -9.08616 \; -9.14979 \; -9.11293 \; -8.97786 \; -8.74787 \; -8.42717
\; -8.02085 \; -7.53481 \; -6.9757 \; -6.35077 \; -5.66792 \; -4.93541
\; -4.162 \; -3.35664 \; -2.52854 \; -1.68692 \; -0.841068 \; -8.09102e-05
\; 0.827057 \; 1.63174 \; 2.40568 \; 3.14105 \; 3.83059 \; 4.4676 \;
5.04609 \; 5.56073 \; 6.007 \; 6.38114 \; 6.68023 \; 6.90218 \; 7.04577
\; 7.11061 \; 7.09718 \; 7.00675 \; 6.84144 \; 6.6041 \; 6.29831 \;
5.92836 \; 5.49911 \; 5.01606 \; 4.48515 \; 3.91275 \; 3.30561 \; 2.67078
\; 2.01545 \; 1.34696 \; 0.672713 \; 8.10302e-05 \; \;;
#X scalar v-seg 74 72 6 3 \;;
#X scalar v-seg 104 72 6 3 \;;
#X scalar v-seg 134 72 6 3 \;;
#X scalar v-seg 164 72 6 3 \;;
#X scalar v-seg 194 72 6 3 \;;
#X scalar v-seg 224 72 6 3 \;;
#X scalar v-seg 254 72 6 3 \;;
#X scalar v-seg 284 72 6 3 \;;
#X scalar v-seg 314 72 6 3 \;;
#X scalar v-seg 344 72 6 3 \;;
#X scalar v-seg 374 72 6 3 \;;
#X scalar y-plot 75 76 1 \; -4.05886e-05 \; -0.280498 \; -0.56098 \;
-0.838419 \; -1.10973 \; -1.37189 \; -1.6219 \; -1.85691 \; -2.07416
\; -2.27108 \; -2.44525 \; -2.59452 \; -2.71696 \; -2.81091 \; -2.875
\; -2.90818 \; -2.9097 \; -2.87918 \; -2.81654 \; -2.72209 \; -2.59647
\; -2.44066 \; -2.25598 \; -2.04411 \; -1.80701 \; -1.54696 \; -1.2665
\; -0.968446 \; -0.655822 \; -0.331861 \; 4.05151e-05 \; 0.336359 \;
0.673479 \; 1.00772 \; 1.33539 \; 1.65281 \; 1.95638 \; 2.24258 \;
2.50803 \; 2.74956 \; 2.96418 \; 3.14916 \; 3.30205 \; 3.42072 \; 3.50338
\; 3.54859 \; 3.55531 \; 3.52289 \; 3.45109 \; 3.34012 \; 3.19057 \;
3.0035 \; 2.78036 \; 2.52305 \; 2.2338 \; 1.91529 \; 1.57052 \; 1.20283
\; 0.815871 \; 0.413532 \; -4.04551e-05 \; -0.420527 \; -0.84346 \;
-1.26426 \; -1.67832 \; -2.081 \; -2.46771 \; -2.83395 \; -3.17539
\; -3.48785 \; -3.76741 \; -4.01043 \; -4.21358 \; -4.37394 \; -4.48893
\; -4.55646 \; -4.5749 \; -4.54308 \; -4.46039 \; -4.32672 \; -4.14252
\; -3.90877 \; -3.62701 \; -3.29932 \; -2.9283 \; -2.51709 \; -2.06929
\; -1.58898 \; -1.08066 \; -0.54924 \; 4.04085e-05 \; 0.561622 \; 1.12971
\; 1.6983 \; 2.26126 \; 2.81236 \; 3.34538 \; 3.85411 \; 4.33249 \;
4.77461 \; 5.17479 \; 5.52766 \; 5.82824 \; 6.07193 \; 6.25463 \; 6.37275
\; 6.42331 \; 6.40392 \; 6.31286 \; 6.14911 \; 5.91237 \; 5.60307 \;
5.22241 \; 4.77234 \; 4.25558 \; 3.67561 \; 3.03665 \; 2.34365 \; 1.60222
\; 0.818692 \; -4.03753e-05 \; -0.846489 \; -1.71265 \; -2.59008 \;
-3.46992 \; -4.34302 \; -5.19997 \; -6.03118 \; -6.82698 \; -7.5777
\; -8.27374 \; -8.90569 \; -9.46434 \; -9.94086 \; -10.3268 \; -10.6143
\; -10.7959 \; -10.8649 \; -10.8153 \; -10.6419 \; -10.3404 \; -9.90728
\; -9.33996 \; -8.63691 \; -7.79757 \; -6.82243 \; -5.71301 \; -4.4719
\; -3.10274 \; -1.6102 \; 4.03553e-05 \; 1.72129 \; 3.54592 \; 5.46538
\; 7.47028 \; 9.55042 \; 11.6949 \; 13.8921 \; 16.1299 \; 18.3956 \;
20.6764 \; 22.9587 \; 25.2291 \; 27.4739 \; 29.6795 \; 31.8323 \; 33.919
\; 35.9266 \; 37.8423 \; 39.6541 \; 41.3504 \; 42.9203 \; 44.3537 \;
45.6413 \; 46.7748 \; 47.7467 \; 48.5507 \; 49.1817 \; 49.6353 \; 49.9087
\; 50 \; 49.9087 \; 49.6353 \; 49.1817 \; 48.5508 \; 47.7467 \; 46.7748
\; 45.6413 \; 44.3537 \; 42.9203 \; 41.3505 \; 39.6541 \; 37.8424 \;
35.9266 \; 33.9191 \; 31.8323 \; 29.6795 \; 27.4739 \; 25.2291 \; 22.9587
\; 20.6764 \; 18.3956 \; 16.1299 \; 13.8921 \; 11.6949 \; 9.55042 \;
7.47028 \; 5.46538 \; 3.54592 \; 1.72129 \; 4.03553e-05 \; -1.6102
\; -3.10274 \; -4.4719 \; -5.71301 \; -6.82242 \; -7.79757 \; -8.63691
\; -9.33996 \; -9.90728 \; -10.3404 \; -10.6419 \; -10.8153 \; -10.8649
\; -10.7959 \; -10.6143 \; -10.3268 \; -9.94086 \; -9.46434 \; -8.90569
\; -8.27374 \; -7.5777 \; -6.82698 \; -6.03118 \; -5.19998 \; -4.34302
\; -3.46992 \; -2.59008 \; -1.71265 \; -0.846489 \; -4.03753e-05 \;
0.818703 \; 1.60222 \; 2.34365 \; 3.03665 \; 3.67562 \; 4.25558 \;
4.77234 \; 5.22241 \; 5.60308 \; 5.91237 \; 6.14912 \; 6.31286 \; 6.40392
\; 6.42331 \; 6.37275 \; 6.25462 \; 6.07193 \; 5.82824 \; 5.52766 \;
5.17478 \; 4.77461 \; 4.33249 \; 3.85412 \; 3.34538 \; 2.81237 \; 2.26126
\; 1.69831 \; 1.12971 \; 0.561632 \; 4.04085e-05 \; -0.549231 \; -1.08066
\; -1.58898 \; -2.06929 \; -2.5171 \; -2.9283 \; -3.29932 \; -3.627
\; -3.90877 \; -4.14251 \; -4.32672 \; -4.46039 \; -4.54308 \; -4.5749
\; -4.55646 \; -4.48893 \; -4.37394 \; -4.21359 \; -4.01043 \; -3.76741
\; -3.48784 \; -3.17539 \; -2.83396 \; -2.46771 \; -2.08099 \; -1.67832
\; -1.26427 \; -0.84346 \; -0.420523 \; -4.04551e-05 \; \;;
#X scalar y-plot 75 76 1 \; -4.04551e-05 \; -0.420527 \; -0.84346 \;
-1.26426 \; -1.67832 \; -2.081 \; -2.46771 \; -2.83395 \; -3.17539
\; -3.48785 \; -3.76741 \; -4.01043 \; -4.21359 \; -4.37394 \; -4.48893
\; -4.55646 \; -4.5749 \; -4.54308 \; -4.46039 \; -4.32672 \; -4.14252
\; -3.90877 \; -3.62701 \; -3.29932 \; -2.9283 \; -2.51709 \; -2.06929
\; -1.58897 \; -1.08066 \; -0.549235 \; 4.04085e-05 \; 0.561622 \;
1.12971 \; 1.6983 \; 2.26126 \; 2.81236 \; 3.34538 \; 3.85412 \; 4.33249
\; 4.77461 \; 5.17479 \; 5.52766 \; 5.82824 \; 6.07193 \; 6.25463 \;
6.37275 \; 6.42331 \; 6.40392 \; 6.31286 \; 6.14912 \; 5.91237 \; 5.60307
\; 5.22241 \; 4.77234 \; 4.25558 \; 3.67561 \; 3.03665 \; 2.34364 \;
1.60222 \; 0.818692 \; -4.03753e-05 \; -0.846489 \; -1.71265 \; -2.59008
\; -3.46993 \; -4.34303 \; -5.19997 \; -6.03118 \; -6.82697 \; -7.57769
\; -8.27374 \; -8.90568 \; -9.46434 \; -9.94086 \; -10.3268 \; -10.6143
\; -10.7959 \; -10.8649 \; -10.8153 \; -10.6419 \; -10.3404 \; -9.90728
\; -9.33996 \; -8.6369 \; -7.79756 \; -6.82243 \; -5.71302 \; -4.47191
\; -3.10276 \; -1.61021 \; 4.03553e-05 \; 1.72129 \; 3.54592 \; 5.46538
\; 7.47028 \; 9.55042 \; 11.6949 \; 13.8921 \; 16.1299 \; 18.3957 \;
20.6764 \; 22.9587 \; 25.2291 \; 27.4739 \; 29.6795 \; 31.8323 \; 33.919
\; 35.9266 \; 37.8424 \; 39.6542 \; 41.3504 \; 42.9203 \; 44.3537 \;
45.6413 \; 46.7748 \; 47.7467 \; 48.5507 \; 49.1817 \; 49.6353 \; 49.9087
\; 50 \; 49.9087 \; 49.6353 \; 49.1817 \; 48.5508 \; 47.7467 \; 46.7748
\; 45.6413 \; 44.3537 \; 42.9203 \; 41.3504 \; 39.6541 \; 37.8423 \;
35.9266 \; 33.919 \; 31.8323 \; 29.6795 \; 27.4739 \; 25.2291 \; 22.9587
\; 20.6764 \; 18.3957 \; 16.1299 \; 13.8921 \; 11.6949 \; 9.55045 \;
7.47028 \; 5.46538 \; 3.54592 \; 1.72129 \; 4.03553e-05 \; -1.6102
\; -3.10274 \; -4.4719 \; -5.71301 \; -6.82242 \; -7.79756 \; -8.6369
\; -9.33995 \; -9.90728 \; -10.3404 \; -10.6419 \; -10.8153 \; -10.8649
\; -10.7959 \; -10.6143 \; -10.3268 \; -9.94086 \; -9.46434 \; -8.90569
\; -8.27374 \; -7.5777 \; -6.82698 \; -6.03118 \; -5.19998 \; -4.34304
\; -3.46994 \; -2.59009 \; -1.71267 \; -0.846477 \; -4.03753e-05 \;
0.818703 \; 1.60222 \; 2.34365 \; 3.03665 \; 3.67562 \; 4.25558 \;
4.77234 \; 5.22241 \; 5.60308 \; 5.91237 \; 6.14912 \; 6.31286 \; 6.40392
\; 6.42331 \; 6.37275 \; 6.25463 \; 6.07193 \; 5.82824 \; 5.52766 \;
5.17478 \; 4.7746 \; 4.33249 \; 3.85411 \; 3.34538 \; 2.81236 \; 2.26126
\; 1.6983 \; 1.12971 \; 0.561622 \; 4.04085e-05 \; -0.549235 \; -1.08066
\; -1.58897 \; -2.06929 \; -2.51709 \; -2.92831 \; -3.29932 \; -3.62701
\; -3.90877 \; -4.14252 \; -4.32672 \; -4.46039 \; -4.54308 \; -4.5749
\; -4.55646 \; -4.48893 \; -4.37394 \; -4.21359 \; -4.01043 \; -3.76741
\; -3.48785 \; -3.17539 \; -2.83396 \; -2.46771 \; -2.08099 \; -1.67832
\; -1.26426 \; -0.84346 \; -0.420527 \; -4.04551e-05 \; 0.41354 \;
0.815871 \; 1.20284 \; 1.57052 \; 1.91529 \; 2.2338 \; 2.52305 \; 2.78036
\; 3.0035 \; 3.19057 \; 3.34012 \; 3.45109 \; 3.52289 \; 3.55531 \;
3.54859 \; 3.50338 \; 3.42072 \; 3.30205 \; 3.14916 \; 2.96417 \; 2.74956
\; 2.50803 \; 2.24258 \; 1.95638 \; 1.65281 \; 1.33539 \; 1.00772 \;
0.673479 \; 0.336366 \; 4.05151e-05 \; -0.331858 \; -0.655822 \; -0.968446
\; -1.2665 \; -1.54696 \; -1.80701 \; -2.04411 \; -2.25598 \; -2.44066
\; -2.59647 \; -2.72209 \; -2.81654 \; -2.87918 \; -2.9097 \; -2.90818
\; -2.875 \; -2.81091 \; -2.71696 \; -2.59452 \; -2.44526 \; -2.27107
\; -2.07416 \; -1.85691 \; -1.6219 \; -1.37188 \; -1.10973 \; -0.838419
\; -0.56098 \; -0.280493 \; -4.05886e-05 \; \;;
#X scalar y-plot 75 76 1 \; -1.35115e-08 \; -0.0283058 \; -0.0574811
\; -0.0872459 \; -0.117279 \; -0.147266 \; -0.176857 \; -0.205724 \;
-0.233483 \; -0.259806 \; -0.284305 \; -0.306639 \; -0.326451 \; -0.343407
\; -0.357178 \; -0.367466 \; -0.373986 \; -0.376488 \; -0.374749 \;
-0.368583 \; -0.357839 \; -0.342421 \; -0.322253 \; -0.297338 \; -0.267714
\; -0.233467 \; -0.194744 \; -0.151751 \; -0.104739 \; -0.0540318 \;
1.34169e-08 \; 0.0569285 \; 0.116271 \; 0.177492 \; 0.240006 \; 0.303183
\; 0.366346 \; 0.428785 \; 0.489745 \; 0.548465 \; 0.604141 \; 0.655965
\; 0.703115 \; 0.744779 \; 0.780142 \; 0.808414 \; 0.828824 \; 0.84064
\; 0.843173 \; 0.835789 \; 0.817909 \; 0.789042 \; 0.748763 \; 0.696753
\; 0.632773 \; 0.556723 \; 0.468595 \; 0.36853 \; 0.256777 \; 0.133753
\; -1.33659e-08 \; -0.143771 \; -0.29669 \; -0.457742 \; -0.625731
\; -0.799294 \; -0.976918 \; -1.1569 \; -1.33738 \; -1.51633 \; -1.69158
\; -1.86078 \; -2.02144 \; -2.17094 \; -2.30649 \; -2.42522 \; -2.52413
\; -2.60011 \; -2.64996 \; -2.67043 \; -2.6582 \; -2.6099 \; -2.52214
\; -2.39154 \; -2.2147 \; -1.98829 \; -1.709 \; -1.3736 \; -0.978965
\; -0.522061 \; 1.33077e-08 \; 0.589939 \; 1.25033 \; 1.98352 \; 2.7917
\; 3.67674 \; 4.64033 \; 5.68385 \; 6.80844 \; 8.0149 \; 9.30369 \;
10.675 \; 12.1287 \; 13.6641 \; 15.2805 \; 16.9765 \; 18.7506 \; 20.6008
\; 22.5246 \; 24.5194 \; 26.582 \; 28.7089 \; 30.8962 \; 33.1399 \;
35.4352 \; 37.7775 \; 40.1614 \; 42.5815 \; 45.032 \; 47.507 \; 50
\; 52.5048 \; 55.0145 \; 57.5224 \; 60.0214 \; 62.5045 \; 64.9646 \;
67.3943 \; 69.7866 \; 72.134 \; 74.4295 \; 76.6659 \; 78.8362 \; 80.9335
\; 82.9512 \; 84.8827 \; 86.7217 \; 88.4622 \; 90.0985 \; 91.6251 \;
93.0368 \; 94.329 \; 95.4974 \; 96.5378 \; 97.4469 \; 98.2214 \; 98.8588
\; 99.3568 \; 99.7138 \; 99.9284 \; 100 \; 99.9284 \; 99.7138 \; 99.3568
\; 98.8588 \; 98.2214 \; 97.4469 \; 96.5378 \; 95.4974 \; 94.3291 \;
93.0368 \; 91.6251 \; 90.0985 \; 88.4622 \; 86.7217 \; 84.8827 \; 82.9512
\; 80.9335 \; 78.8362 \; 76.6659 \; 74.4295 \; 72.134 \; 69.7866 \;
67.3943 \; 64.9646 \; 62.5046 \; 60.0214 \; 57.5224 \; 55.0145 \; 52.5047
\; 50 \; 47.5069 \; 45.032 \; 42.5815 \; 40.1614 \; 37.7774 \; 35.4352
\; 33.1398 \; 30.8962 \; 28.7088 \; 26.582 \; 24.5194 \; 22.5247 \;
20.6008 \; 18.7507 \; 16.9765 \; 15.2805 \; 13.6641 \; 12.1286 \; 10.675
\; 9.30367 \; 8.01487 \; 6.80844 \; 5.68385 \; 4.64033 \; 3.67674 \;
2.7917 \; 1.98352 \; 1.25033 \; 0.589939 \; 1.33077e-08 \; -0.522053
\; -0.978955 \; -1.37359 \; -1.709 \; -1.98829 \; -2.21471 \; -2.39154
\; -2.52214 \; -2.6099 \; -2.6582 \; -2.67043 \; -2.64996 \; -2.60011
\; -2.52413 \; -2.42522 \; -2.30649 \; -2.17094 \; -2.02144 \; -1.86079
\; -1.69158 \; -1.51634 \; -1.33738 \; -1.15689 \; -0.976915 \; -0.799293
\; -0.625722 \; -0.457742 \; -0.29669 \; -0.143771 \; -1.33659e-08
\; 0.133752 \; 0.256777 \; 0.368529 \; 0.468595 \; 0.556721 \; 0.632773
\; 0.696749 \; 0.748765 \; 0.789044 \; 0.817912 \; 0.835789 \; 0.843173
\; 0.84064 \; 0.828823 \; 0.808414 \; 0.780142 \; 0.744779 \; 0.703115
\; 0.655965 \; 0.60414 \; 0.548465 \; 0.489746 \; 0.428783 \; 0.366346
\; 0.303184 \; 0.240006 \; 0.177493 \; 0.116271 \; 0.0569295 \; 1.34169e-08
\; -0.0540313 \; -0.104739 \; -0.151746 \; -0.194744 \; -0.233468 \;
-0.267714 \; -0.297341 \; -0.322259 \; -0.342421 \; -0.357841 \; -0.368583
\; -0.37475 \; -0.376488 \; -0.373986 \; -0.367466 \; -0.35718 \; -0.343407
\; -0.326452 \; -0.306639 \; -0.284308 \; -0.259803 \; -0.23349 \;
-0.205719 \; -0.176857 \; -0.14726 \; -0.117279 \; -0.0872416 \; -0.0574811
\; -0.028303 \; -1.35115e-08 \; \;;
#X coords 0 394 1 393 0 0 0;
#X restore 54 89 pd z;
#N canvas 248 124 953 630 make-fig 0;
#X msg 24 62 \; start pd-z \;;
#X obj 27 365 pack;
#X msg 27 396 \; y-plot-point \$1 \$2 \;;
#X msg 123 97 \; add-r-arrow 375 75 -300 \; add-u-arrow 75 155 -80
;
#X msg 161 29 \; pd-z clear \; start pd-z;
#X obj 73 314 dirichlet 100;
#X obj 73 338 * 1;
#X obj 283 388 t f f;
#X obj 260 415 swap;
#X obj 260 440 pack 0 0 0;
#X obj 260 462 route 1 0;
#X obj 328 399 expr $f1 > 1 || $f1 < -1;
#X obj 440 177 pack;
#X msg 440 208 \; y-plot-point \$1 \$2 \;;
#X obj 486 147 dirichlet 100;
#X obj 282 266 t b;
#X obj 282 291 0;
#X obj 302 335 * 1;
#X msg 260 522 \; add-v-seg \$1 74 \$2 2;
#X obj 486 126 - 6;
#X obj 486 171 * 0.5;
#X obj 602 179 pack;
#X msg 602 210 \; y-plot-point \$1 \$2 \;;
#X obj 648 149 dirichlet 100;
#X obj 648 173 * 0.5;
#X obj 560 435 pack;
#X msg 560 466 \; y-plot-point \$1 \$2 \;;
#X obj 606 405 dirichlet 100;
#X obj 606 429 expr $f2+0.5*($f1+$f3);
#X obj 704 404 dirichlet 100;
#X obj 747 378 dirichlet 100;
#X msg 28 205 \; add-y-plot 301 75 76 1 \;;
#X obj 27 248 scanner 300 10;
#X obj 440 81 scanner 300 10;
#X obj 602 83 scanner 300 10;
#X obj 560 339 scanner 300 10;
#X obj 73 293 - 5;
#X obj 648 128 - 4;
#X obj 606 384 - 6;
#X obj 704 383 - 5;
#X obj 747 357 - 4;
#X obj 207 277 * 30;
#X obj 207 204 scanner 10 10;
#X msg 289 484 \; add-v-seg \$1 72 6 3;
#X obj 207 302 + 74;
#X connect 1 0 2 0;
#X connect 5 0 6 0;
#X connect 6 0 1 1;
#X connect 7 0 9 2;
#X connect 7 1 11 0;
#X connect 8 0 9 0;
#X connect 8 1 9 1;
#X connect 9 0 10 0;
#X connect 10 0 18 0;
#X connect 10 1 43 0;
#X connect 11 0 8 1;
#X connect 12 0 13 0;
#X connect 14 0 20 0;
#X connect 15 0 16 0;
#X connect 16 0 7 0;
#X connect 19 0 14 0;
#X connect 20 0 12 1;
#X connect 21 0 22 0;
#X connect 23 0 24 0;
#X connect 24 0 21 1;
#X connect 25 0 26 0;
#X connect 27 0 28 0;
#X connect 28 0 25 1;
#X connect 29 0 28 1;
#X connect 30 0 28 2;
#X connect 32 0 1 0;
#X connect 32 1 36 0;
#X connect 33 0 12 0;
#X connect 33 1 19 0;
#X connect 34 0 21 0;
#X connect 34 1 37 0;
#X connect 35 0 25 0;
#X connect 35 1 38 0;
#X connect 35 2 39 0;
#X connect 35 2 40 0;
#X connect 36 0 5 0;
#X connect 37 0 23 0;
#X connect 38 0 27 0;
#X connect 39 0 29 0;
#X connect 40 0 30 0;
#X connect 41 0 44 0;
#X connect 42 0 41 0;
#X connect 42 1 15 0;
#X connect 44 0 8 0;
#X restore 170 83 pd make-fig;
