#N canvas 68 79 454 305 10;
#X obj 21 260 +~;
#X obj 31 74 delwrite~ G07-del 30;
#X obj 84 243 line~;
#X obj 54 243 *~;
#X obj 79 196 line~;
#X obj 48 196 *~;
#X obj 68 150 line~;
#X obj 37 150 *~;
#X obj 52 99 line~;
#X obj 22 99 *~;
#X obj 284 74 + 1;
#X obj 284 94 mod 4;
#X obj 254 72 f;
#X obj 284 137 random 1000;
#X obj 254 116 t f b;
#X obj 254 32 tgl 15 0 empty empty empty 0 -6 0 8 -262144 -1 -1 0 1
;
#X floatatom 333 36 5 10 1000 0 - - -;
#X obj 254 207 route 0 1 2 3;
#X obj 37 128 delread~ G07-del 30;
#X obj 23 51 phasor~ 80;
#X obj 48 174 delread~ G07-del 17;
#X obj 54 221 delread~ G07-del 11;
#X obj 333 57 * 4;
#X obj 284 160 expr 2 * $f1/1000 - 0.7;
#X floatatom 23 32 5 30 1000 0 - - -;
#X obj 254 186 pack 0 0 200;
#X text 23 11 frequency;
#X text 238 15 on/off;
#X text 304 9 time constant;
#X text 303 21 (msec);
#X text 19 273 |;
#X obj 254 50 metro;
#X text 5 285 (OUT);
#X connect 2 0 3 1;
#X connect 3 0 0 1;
#X connect 4 0 5 1;
#X connect 5 0 0 1;
#X connect 6 0 7 1;
#X connect 7 0 0 1;
#X connect 8 0 9 1;
#X connect 9 0 0 0;
#X connect 10 0 11 0;
#X connect 11 0 12 1;
#X connect 12 0 10 0;
#X connect 12 0 14 0;
#X connect 13 0 23 0;
#X connect 14 0 25 0;
#X connect 14 1 13 0;
#X connect 15 0 31 0;
#X connect 16 0 22 0;
#X connect 16 0 31 1;
#X connect 17 0 8 0;
#X connect 17 1 6 0;
#X connect 17 2 4 0;
#X connect 17 3 2 0;
#X connect 18 0 7 0;
#X connect 19 0 1 0;
#X connect 19 0 9 0;
#X connect 20 0 5 0;
#X connect 21 0 3 0;
#X connect 22 0 25 2;
#X connect 23 0 25 1;
#X connect 24 0 19 0;
#X connect 25 0 17 0;
#X connect 31 0 12 0;
