#N canvas 98 68 287 293 10;
#X obj 17 71 osc~;
#X obj 17 91 *~;
#X obj 65 75 line~;
#X obj 17 51 line~;
#X obj 164 180 osc~;
#X obj 204 202 *~;
#X obj 221 109 line~;
#X obj 164 109 line~;
#X obj 164 66 sqrt;
#X obj 164 87 sqrt;
#X obj 221 66 sqrt;
#X obj 221 87 sqrt;
#X obj 164 134 *~;
#X obj 164 158 *~;
#X obj 221 134 *~;
#X obj 221 158 *~;
#X obj 164 46 unpack;
#X obj 221 46 unpack;
#X obj 17 31 r freq;
#X obj 65 56 r amp;
#X obj 164 26 r freq;
#X obj 221 26 r amp;
#X text 18 7 LINEAR;
#X text 168 5 QUARTIC;
#X msg 18 215 \; freq 1760 5000;
#X msg 18 252 \; freq 55 5000;
#X text 19 197 sample messages;
#X text 15 105 |;
#X text 2 117 (OUT);
#X text 202 216 |;
#X text 189 228 (OUT);
#X connect 0 0 1 0;
#X connect 2 0 1 1;
#X connect 3 0 0 0;
#X connect 4 0 5 0;
#X connect 6 0 14 0;
#X connect 6 0 14 1;
#X connect 7 0 12 0;
#X connect 7 0 12 1;
#X connect 8 0 9 0;
#X connect 9 0 7 0;
#X connect 10 0 11 0;
#X connect 11 0 6 0;
#X connect 12 0 13 0;
#X connect 12 0 13 1;
#X connect 13 0 4 0;
#X connect 14 0 15 0;
#X connect 14 0 15 1;
#X connect 15 0 5 1;
#X connect 16 0 8 0;
#X connect 16 1 7 1;
#X connect 17 0 10 0;
#X connect 17 1 6 1;
#X connect 18 0 3 0;
#X connect 19 0 2 0;
#X connect 20 0 16 0;
#X connect 21 0 17 0;
