#N canvas 6 79 380 318 10;
#X floatatom 45 159 3 -99 99 0 - #0-pole -;
#X obj 8 236 rpole~;
#X obj 45 182 / 100;
#X obj 8 211 rzero_rev~;
#X text 40 135 pole (%);
#N canvas 0 0 660 424 chord 0;
#X obj 87 97 -~ 0.5;
#X obj 87 146 clip~ -0.5 0.5;
#X obj 87 169 cos~;
#X obj 91 252 hip~ 5;
#X obj 91 315 outlet~;
#X obj 87 122 *~ 3;
#X obj 87 74 phasor~ 220;
#X obj 221 97 -~ 0.5;
#X obj 221 146 clip~ -0.5 0.5;
#X obj 221 169 cos~;
#X obj 221 122 *~ 3;
#X obj 356 100 -~ 0.5;
#X obj 356 149 clip~ -0.5 0.5;
#X obj 356 172 cos~;
#X obj 356 125 *~ 3;
#X obj 491 100 -~ 0.5;
#X obj 491 149 clip~ -0.5 0.5;
#X obj 491 172 cos~;
#X obj 491 125 *~ 3;
#X obj 221 74 phasor~ 251;
#X obj 356 77 phasor~ 281;
#X obj 491 77 phasor~ 311;
#X text 147 32 test sound for phaser;
#X obj 91 285 *~ 0.2;
#X connect 0 0 5 0;
#X connect 1 0 2 0;
#X connect 2 0 3 0;
#X connect 3 0 23 0;
#X connect 5 0 1 0;
#X connect 6 0 0 0;
#X connect 7 0 10 0;
#X connect 8 0 9 0;
#X connect 9 0 3 0;
#X connect 10 0 8 0;
#X connect 11 0 14 0;
#X connect 12 0 13 0;
#X connect 13 0 3 0;
#X connect 14 0 12 0;
#X connect 15 0 18 0;
#X connect 16 0 17 0;
#X connect 17 0 3 0;
#X connect 18 0 16 0;
#X connect 19 0 7 0;
#X connect 20 0 11 0;
#X connect 21 0 15 0;
#X connect 23 0 4 0;
#X restore 134 50 pd chord;
#X obj 157 104 rpole~;
#X obj 157 79 rzero_rev~;
#X obj 157 153 rpole~;
#X obj 157 128 rzero_rev~;
#X obj 157 201 rpole~;
#X obj 157 176 rzero_rev~;
#X obj 157 250 rpole~;
#X obj 157 225 rzero_rev~;
#X obj 133 276 +~;
#X obj 195 4 phasor~ 0.3;
#X obj 195 26 expr~ abs($v1-0.5);
#X obj 195 50 expr~ 0.97 - 0.6*$v1*$v1;
#X text 40 294 (a);
#X text 230 294 (b);
#X text 131 289 |;
#X text 119 302 (OUT);
#X text 6 249 |;
#X text 3 262 (OUT);
#X connect 0 0 2 0;
#X connect 2 0 3 1;
#X connect 2 0 1 1;
#X connect 3 0 1 0;
#X connect 5 0 7 0;
#X connect 5 0 14 0;
#X connect 6 0 9 0;
#X connect 7 0 6 0;
#X connect 8 0 11 0;
#X connect 9 0 8 0;
#X connect 10 0 13 0;
#X connect 11 0 10 0;
#X connect 12 0 14 1;
#X connect 13 0 12 0;
#X connect 15 0 16 0;
#X connect 16 0 17 0;
#X connect 17 0 7 1;
#X connect 17 0 6 1;
#X connect 17 0 9 1;
#X connect 17 0 8 1;
#X connect 17 0 11 1;
#X connect 17 0 10 1;
#X connect 17 0 13 1;
#X connect 17 0 12 1;
