#N struct frame float x float y float w float h;
#N struct rect float x float y float w float h;
#N struct y-plot float x float y float w array z y-point;
#N struct y-point float y;
#N struct d-arrow float x float y float z;
#N struct l-arrow float x float y float z;
#N struct h-seg float x float y float z float w;
#N struct v-seg float x float y float z float w;
#N struct times float x float y;
#N struct xy-curve float x float y float w array z xy-point;
#N struct xy-point float x float y;
#N struct seg float x float y float dx float dy float w;
#N struct l-curve-arrow float x float y float z float z2 float z3 float
h;
#N struct circle2 float x float y float h float h2 float mh float mh2
;
#N struct vaxis float x float y float h float h-3;
#N struct xy-plot float x float y float w array z xy-point;
#N struct d-curve-arrow float x float y float z float z2 float z3 float
h;
#N struct circle float x float y float color float h float h2;
#N struct u-curve-arrow float x float y float z float z2 float z3 float
h;
#N struct r-curve-arrow float x float y float z float z2 float z3 float
h;
#N struct r-arrow float x float y float z;
#N struct u-arrow float x float y float z;
#N struct haxis float x float y float w float w-3;
#N struct thickcircle float x float y float color float h float h2
;
#N struct plus float x float y;
#N struct minus float x float y;
#N struct divide float x float y;
#N canvas 522 170 294 185 10;
#N canvas 339 13 303 315 fig 1;
#X scalar frame 161 79 80 60 \;;
#X scalar rect 168 109 1 0 \;;
#X scalar rect 171 109 1 3.55787 \;;
#X scalar rect 174 109 1 7.04331 \;;
#X scalar rect 177 109 1 10.3854 \;;
#X scalar rect 180 109 1 13.516 \;;
#X scalar rect 183 109 1 16.3715 \;;
#X scalar rect 186 109 1 18.8937 \;;
#X scalar rect 189 109 1 21.0313 \;;
#X scalar rect 192 109 1 22.7408 \;;
#X scalar rect 195 109 1 23.9873 \;;
#X scalar rect 198 109 1 24.7455 \;;
#X scalar rect 201 109 1 25 \;;
#X scalar rect 204 109 1 24.7455 \;;
#X scalar rect 207 109 1 23.9873 \;;
#X scalar rect 210 109 1 22.7408 \;;
#X scalar rect 213 109 1 21.0314 \;;
#X scalar rect 216 109 1 18.8938 \;;
#X scalar rect 219 109 1 16.3716 \;;
#X scalar rect 222 109 1 13.5161 \;;
#X scalar rect 225 109 1 10.3854 \;;
#X scalar rect 228 109 1 7.04337 \;;
#X scalar rect 231 109 1 3.55793 \;;
#X scalar frame 47 216 60 60 \;;
#X scalar y-plot 52 221 1 \; 0 \; 2.25 \; 4.5 \; 6.75 \; 9 \; 11.25
\; 13.5 \; 15.75 \; 18 \; 20.25 \; 22.5 \; 24.75 \; 27 \; 29.25 \;
31.5 \; 33.75 \; 36 \; 38.25 \; 40.5 \; 42.75 \; 0 \; 2.25 \; 4.5 \;
6.75 \; 9 \; 11.25 \; 13.5 \; 15.75 \; 18 \; 20.25 \; 22.5 \; 24.75
\; 27 \; 29.25 \; 31.5 \; 33.75 \; 36 \; 38.25 \; 40.5 \; 42.75 \;
0 \; 2.25 \; 4.5 \; 6.75 \; 9 \; 11.25 \; 13.5 \; 15.75 \; 18 \; 20.25
\; \;;
#X text 27 223 -1;
#X text 32 174 1;
#X scalar d-arrow 76 277 13 \;;
#X scalar d-arrow 80 27 14 \;;
#X text 69 290 OUT;
#X scalar frame 45 79 80 60 \;;
#X scalar rect 52 109 1 10.0465 \;;
#X scalar rect 55 109 1 10.0886 \;;
#X scalar rect 58 109 1 7.25538 \;;
#X scalar rect 61 109 1 2.40107 \;;
#X scalar rect 64 109 1 -2.68234 \;;
#X scalar rect 67 109 1 -5.94415 \;;
#X scalar rect 70 109 1 -5.87614 \;;
#X scalar rect 73 109 1 -2.13338 \;;
#X scalar rect 76 109 1 4.26072 \;;
#X scalar rect 79 109 1 11.2109 \;;
#X scalar rect 82 109 1 16.2492 \;;
#X scalar rect 85 109 1 17.3877 \;;
#X scalar rect 88 109 1 13.8183 \;;
#X scalar rect 91 109 1 6.20771 \;;
#X scalar rect 94 109 1 -3.52086 \;;
#X scalar rect 97 109 1 -12.8403 \;;
#X scalar rect 100 109 1 -19.4701 \;;
#X scalar rect 103 109 1 -22.1209 \;;
#X scalar rect 106 109 1 -20.8671 \;;
#X scalar rect 109 109 1 -17.0214 \;;
#X scalar rect 112 109 1 -12.5685 \;;
#X scalar rect 115 109 1 -9.37384 \;;
#X text 42 5 frequency;
#X scalar d-arrow 70 177 38 \;;
#X text 33 38 1;
#X scalar l-arrow 80 166 18 \;;
#X scalar d-arrow 70 140 17 \;;
#X scalar h-seg 72 203 131 1 \;;
#X scalar d-arrow 202 175 28 \;;
#X scalar l-arrow 213 164 18 \;;
#X text 246 172 1;
#X text 245 197 0;
#X text 231 237 N;
#X scalar l-arrow 90 51 113 \;;
#X scalar d-arrow 80 62 17 \;;
#X scalar v-seg 202 51 28 1 \;;
#X scalar d-arrow 202 140 15 \;;
#X text 99 141 stretch;
#X text 27 87 -1;
#X text 234 143 index;
#X text 158 237 -N;
#X text 43 237 -M;
#X text 114 237 M;
#X scalar frame 69 42 20 19 \;;
#X scalar times 75 47 \;;
#X scalar frame 59 157 20 19 \;;
#X scalar times 65 162 \;;
#X scalar frame 192 155 20 19 \;;
#X scalar times 198 160 \;;
#X coords 0 315 1 314 0 0 0;
#X restore 51 61 pd fig;
#X obj 56 88 templates;
