#N struct frame float x float y float w float h;
#N struct circle float x float y float color float h float h2;
#N struct d-arrow float x float y float z;
#N struct h-seg float x float y float z float w;
#N struct v-seg float x float y float z float w;
#N struct xy-plot float x float y float w array z xy-point;
#N struct xy-point float x float y;
#N struct d-curve-arrow float x float y float z float z2 float z3 float
h;
#N struct u-curve-arrow float x float y float z float z2 float z3 float
h;
#N struct r-curve-arrow float x float y float z float z2 float z3 float
h;
#N struct r-arrow float x float y float z;
#N struct l-arrow float x float y float z;
#N struct u-arrow float x float y float z;
#N struct rect float x float y float w float h;
#N struct vaxis float x float y float h float h-3;
#N struct haxis float x float y float w float w-3;
#N struct y-plot float x float y float w array z y-point;
#N struct y-point float y;
#N canvas 542 208 294 185 10;
#N canvas 327 93 135 250 fig 1;
#X scalar frame 6 130 72 60 \;;
#X scalar circle 70 201 0 3 -3 \;;
#X scalar circle 70 211 0 3 -3 \;;
#X scalar circle 70 221 0 3 -3 \;;
#X scalar d-arrow 70 191 7 \;;
#X scalar d-arrow 16 60 70 \;;
#X text 22 228 OUT;
#X scalar frame 9 40 43 19 \;;
#X scalar d-arrow 32 24 15 \;;
#X text 25 193 +;
#X scalar circle 86 179 0 3 -3 \;;
#X scalar circle 86 189 0 3 -3 \;;
#X scalar circle 86 200 0 3 -3 \;;
#X scalar d-arrow 86 169 7 \;;
#X scalar circle 86 211 0 3 -3 \;;
#X scalar circle 86 221 0 3 -3 \;;
#X text 20 100 voice 1;
#X scalar h-seg 22 108 73 1 \;;
#X scalar v-seg 95 108 60 1 \;;
#X text 38 124 voice 2;
#X scalar v-seg 22 108 22 1 \;;
#X scalar h-seg 79 169 17 1 \;;
#X scalar h-seg 39 85 73 1 \;;
#X scalar v-seg 112 85 60 1 \;;
#X scalar v-seg 39 85 22 1 \;;
#X scalar h-seg 96 146 17 1 \;;
#X text 55 147 voice 3;
#X scalar d-arrow 30 60 47 \;;
#X scalar d-arrow 46 60 24 \;;
#X text 63 10 control;
#X scalar circle 103 157 0 3 -3 \;;
#X scalar circle 103 167 0 3 -3 \;;
#X scalar circle 103 178 0 3 -3 \;;
#X scalar d-arrow 103 147 7 \;;
#X scalar circle 103 189 0 3 -3 \;;
#X scalar circle 103 200 0 3 -3 \;;
#X scalar circle 103 211 0 3 -3 \;;
#X scalar circle 103 221 0 3 -3 \;;
#X coords 0 250 1 249 0 0 0;
#X restore 51 61 pd fig;
#X obj 52 90 templates;
