#N canvas 97 0 442 617 10;
#X obj 2 8 inlet~;
#X obj 2 32 reverb-echo echo-del1 5.43216;
#X obj 129 262 +~;
#X obj 163 263 +~;
#X obj 4 302 outlet~;
#X obj 60 302 outlet~;
#X obj 130 331 +~;
#X obj 203 332 +~;
#X obj 164 332 -~;
#X obj 241 332 -~;
#X obj 129 372 +~;
#X obj 165 374 +~;
#X obj 209 375 -~;
#X obj 248 375 -~;
#X obj 332 434 inlet;
#X obj 265 429 / 200;
#X obj 332 455 min 100;
#X obj 332 476 max 0;
#X obj 129 560 delwrite~ loop-del1 60;
#X obj 166 541 delwrite~ loop-del2 71.9345;
#X obj 248 501 delwrite~ loop-del4 95.945;
#X obj 177 203 delread~ loop-del1 60;
#X obj 187 226 delread~ loop-del2 71.9345;
#X obj 230 275 delread~ loop-del4 95.945;
#X obj 202 252 delread~ loop-del3 86.7545;
#X obj 209 521 delwrite~ loop-del3 86.7545;
#X obj 2 56 reverb-echo echo-del2 8.45346;
#X obj 2 80 reverb-echo echo-del3 13.4367;
#X obj 2 104 reverb-echo echo-del4 21.5463;
#X obj 2 128 reverb-echo echo-del5 34.3876;
#X obj 2 152 reverb-echo echo-del6 55.5437;
#X text 398 427 time.;
#X obj 128 461 *~;
#X obj 165 463 *~;
#X obj 208 464 *~;
#X obj 249 464 *~;
#X text 165 170 Get the outputs of the recirculating;
#X text 164 185 delays. Add the inputs to two of them.;
#X text 269 312 Do a power-conserving;
#X text 269 326 mix of them in pairs.;
#X text 141 579 Put the signals back into;
#X text 140 595 the recirculating delays.;
#X text 261 398 feedback gain on a scale;
#X text 263 412 of 0-100 controls reverb;
#X text 269 340 First combine (1 \, 2) and;
#X text 267 354 (3 \, 4)...;
#X text 2 320 Tap outputs here.;
#X text 221 34 "early echo" generators \,;
#X text 225 55 which also increase echo;
#X text 225 72 density.;
#X text 278 377 then (1 \, 3) and (2 \, 4);
#X connect 0 0 1 0;
#X connect 1 0 26 0;
#X connect 1 1 26 1;
#X connect 2 0 4 0;
#X connect 2 0 6 0;
#X connect 2 0 8 0;
#X connect 3 0 5 0;
#X connect 3 0 6 1;
#X connect 3 0 8 1;
#X connect 6 0 10 0;
#X connect 6 0 12 0;
#X connect 7 0 12 1;
#X connect 7 0 10 1;
#X connect 8 0 11 0;
#X connect 8 0 13 0;
#X connect 9 0 11 1;
#X connect 9 0 13 1;
#X connect 10 0 32 0;
#X connect 11 0 33 0;
#X connect 12 0 34 0;
#X connect 13 0 35 0;
#X connect 14 0 16 0;
#X connect 15 0 32 1;
#X connect 15 0 33 1;
#X connect 15 0 34 1;
#X connect 15 0 35 1;
#X connect 16 0 17 0;
#X connect 17 0 15 0;
#X connect 21 0 2 1;
#X connect 22 0 3 1;
#X connect 23 0 7 1;
#X connect 23 0 9 1;
#X connect 24 0 7 0;
#X connect 24 0 9 0;
#X connect 26 0 27 0;
#X connect 26 1 27 1;
#X connect 27 0 28 0;
#X connect 27 1 28 1;
#X connect 28 0 29 0;
#X connect 28 1 29 1;
#X connect 29 0 30 0;
#X connect 29 1 30 1;
#X connect 30 0 2 0;
#X connect 30 1 3 0;
#X connect 32 0 18 0;
#X connect 33 0 19 0;
#X connect 34 0 25 0;
#X connect 35 0 20 0;
