#N struct xy-plot float x float y float w array z xy-point;
#N struct xy-point float x float y;
#N struct u-arrow float x float y float z;
#N struct xy-curve float x float y float w array z xy-point;
#N struct v-seg float x float y float z float w;
#N struct h-seg float x float y float z float w;
#N struct seg float x float y float dx float dy float w;
#N struct l-curve-arrow float x float y float z float z2 float z3 float
h;
#N struct circle2 float x float y float h float h2 float mh float mh2
;
#N struct vaxis float x float y float h float h-3;
#N struct d-curve-arrow float x float y float z float z2 float z3 float
h;
#N struct circle float x float y float color float h float h2;
#N struct u-curve-arrow float x float y float z float z2 float z3 float
h;
#N struct r-curve-arrow float x float y float z float z2 float z3 float
h;
#N struct r-arrow float x float y float z;
#N struct l-arrow float x float y float z;
#N struct d-arrow float x float y float z;
#N struct rect float x float y float w float h;
#N struct haxis float x float y float w float w-3;
#N struct frame float x float y float w float h;
#N struct y-plot float x float y float w array z y-point;
#N struct y-point float y;
#N struct thickcircle float x float y float color float h float h2
;
#N struct times float x float y;
#N struct plus float x float y;
#N struct minus float x float y;
#N struct divide float x float y;
#N canvas 470 107 482 287 10;
#N canvas 90 0 287 189 fig 1;
#X scalar xy-plot 0 0 1 \; 20 124.147 \; 22 125.802 \; 24 127.373 \;
26 128.857 \; 28 130.254 \; 30 131.562 \; 32 132.775 \; 34 133.906
\; 36 134.939 \; 38 135.868 \; 40 136.724 \; 42 137.473 \; 44 138.111
\; 46 138.683 \; 48 139.142 \; 50 139.504 \; 52 139.767 \; 54 139.931
\; 56 139.998 \; 58 139.965 \; 60 139.833 \; 62 139.604 \; 64 139.277
\; 66 138.849 \; 68 138.326 \; 70 137.719 \; 72 136.988 \; 74 136.175
\; 76 135.267 \; 78 134.266 \; 80 133.171 \; 82 131.984 \; 84 130.709
\; 86 129.339 \; 88 127.884 \; 90 126.354 \; 92 124.715 \; 94 123.004
\; 96 121.247 \; 98 119.339 \; 100 117.388 \; 102 115.36 \; 104 113.259
\; 106 111.084 \; 108 108.84 \; 110 106.532 \; 112 104.15 \; 114 101.709
\; 116 99.2232 \; 118 96.646 \; 120 94.0302 \; 122 91.4083 \; 124 88.6394
\; 126 85.871 \; 128 83.0572 \; 130 80.2015 \; 132 77.3052 \; 134 74.3725
\; 136 71.4118 \; 138 68.4082 \; 140 65.3826 \; 142 62.357 \; 144 59.2592
\; 146 56.1675 \; 148 53.1364 \; 150 49.9392 \; 152 46.8088 \; 154
43.6717 \; 156 40.5383 \; 158 42.6103 \; 160 45.749 \; 162 48.883 \;
164 52.0062 \; 166 55.1186 \; 168 58.2029 \; 170 61.2958 \; 172 64.3541
\; 174 67.3452 \; 176 70.396 \; 178 73.3734 \; 180 76.3179 \; 182 79.2264
\; 184 82.0964 \; 186 84.9247 \; 188 87.7065 \; 190 90.4458 \; 192
93.133 \; 194 95.7544 \; 196 98.3475 \; 198 100.87 \; 200 103.301 \;
202 105.731 \; 204 108.066 \; 206 110.333 \; 208 112.532 \; 210 114.658
\; 212 116.711 \; 214 118.687 \; 216 120.588 \; 218 122.407 \; 220
124.14 \; \;;
#X scalar u-arrow 20 160 -120 \;;
#X scalar xy-plot 0 0 1 \; 20 104.54 \; 22 105.62 \; 24 106.648 \;
26 107.622 \; 28 108.54 \; 30 109.403 \; 32 110.207 \; 34 110.947 \;
36 111.636 \; 38 112.259 \; 40 112.811 \; 42 113.318 \; 44 113.752
\; 46 114.123 \; 48 114.428 \; 50 114.669 \; 52 114.845 \; 54 114.954
\; 56 114.998 \; 58 114.976 \; 60 114.889 \; 62 114.736 \; 64 114.517
\; 66 114.237 \; 68 113.885 \; 70 113.473 \; 72 112.995 \; 74 112.456
\; 76 111.853 \; 78 111.19 \; 80 110.466 \; 82 109.682 \; 84 108.839
\; 86 107.943 \; 88 106.984 \; 90 105.973 \; 92 104.923 \; 94 103.795
\; 96 102.631 \; 98 101.419 \; 100 100.162 \; 102 98.8606 \; 104 97.5186
\; 106 96.139 \; 108 94.7217 \; 110 93.2725 \; 112 91.8003 \; 114 90.2888
\; 116 88.7616 \; 118 87.2361 \; 120 85.6577 \; 122 84.0897 \; 124
82.5192 \; 126 80.9519 \; 128 79.3948 \; 130 77.8557 \; 132 76.344
\; 134 74.8672 \; 136 73.4388 \; 138 72.0751 \; 140 70.7755 \; 142
69.5693 \; 144 68.4799 \; 146 67.4896 \; 148 66.6508 \; 150 65.9866
\; 152 65.4591 \; 154 65.1342 \; 156 65.0025 \; 158 65.0681 \; 160
65.3281 \; 162 65.7766 \; 164 66.4001 \; 166 67.1896 \; 168 68.1229
\; 170 69.1764 \; 172 70.357 \; 174 71.6236 \; 176 72.9415 \; 178 74.3784
\; 180 75.8396 \; 182 77.3409 \; 184 78.8719 \; 186 80.4241 \; 188
81.9888 \; 190 83.5559 \; 192 85.1281 \; 194 86.6906 \; 196 88.2284
\; 198 89.7749 \; 200 91.2879 \; 202 92.7467 \; 204 94.2353 \; 206
95.6631 \; 208 97.0561 \; 210 98.4113 \; 212 99.7267 \; 214 100.999
\; 216 102.224 \; 218 103.407 \; 220 104.539 \; \;;
#X scalar xy-plot 0 0 1 \; 20 90 \; 22 89.9995 \; 24 89.9995 \; 26
89.9995 \; 28 89.9994 \; 30 89.9995 \; 32 89.9995 \; 34 89.9995 \;
36 89.9994 \; 38 89.9995 \; 40 89.9995 \; 42 89.9995 \; 44 89.9994
\; 46 89.9995 \; 48 89.9994 \; 50 89.9995 \; 52 89.9995 \; 54 89.9994
\; 56 89.9995 \; 58 89.9995 \; 60 89.9994 \; 62 89.9995 \; 64 89.9994
\; 66 89.9995 \; 68 89.9994 \; 70 90 \; 72 89.9995 \; 74 89.9994 \;
76 89.9995 \; 78 89.9994 \; 80 89.9995 \; 82 89.9995 \; 84 89.9994
\; 86 89.9995 \; 88 89.9994 \; 90 89.9994 \; 92 89.9994 \; 94 89.9995
\; 96 89.9994 \; 98 89.9995 \; 100 89.9994 \; 102 89.9995 \; 104 89.9995
\; 106 89.9994 \; 108 89.9995 \; 110 89.9995 \; 112 89.9994 \; 114
89.9994 \; 116 89.9995 \; 118 89.9994 \; 120 89.9999 \; 122 89.9995
\; 124 89.9994 \; 126 89.9995 \; 128 89.9995 \; 130 89.9995 \; 132
89.9994 \; 134 89.9995 \; 136 89.9994 \; 138 89.9995 \; 140 89.9995
\; 142 89.9994 \; 144 89.9995 \; 146 89.9995 \; 148 89.9994 \; 150
89.9995 \; 152 89.9994 \; 154 89.9995 \; 156 89.9995 \; 158 89.9994
\; 160 89.9995 \; 162 89.9994 \; 164 89.9994 \; 166 89.9995 \; 168
89.9995 \; 170 89.9999 \; 172 89.9994 \; 174 89.9994 \; 176 89.9995
\; 178 89.9995 \; 180 89.9994 \; 182 89.9995 \; 184 89.9995 \; 186
89.9995 \; 188 89.9995 \; 190 89.9995 \; 192 89.9995 \; 194 89.9994
\; 196 89.9995 \; 198 89.9994 \; 200 89.9995 \; 202 89.9995 \; 204
89.9994 \; 206 89.9994 \; 208 89.9995 \; 210 89.9994 \; 212 89.9995
\; 214 89.9995 \; 216 89.9994 \; 218 89.9995 \; 220 89.9999 \; \;;
#X text 223 93 0;
#X text 223 78 0.5;
#X text 92 155 frequency;
#X text 15 150 0;
#X text 16 8 gain;
#X scalar xy-curve 222 31 1 \; 0 -2 \; 2 0 \; 4 2 \; 6 0 \; 8 -2 \;
10 0 \; 12 2 \; \;;
#X scalar v-seg 225 24 7 1 \;;
#X scalar v-seg 230 24 5 1 \;;
#X text 212 154 2;
#X scalar h-seg 21 41 199 1 \;;
#X scalar u-arrow 219 160 -120 \;;
#X text 221 58 |Q|=1;
#X coords 0 189 1 188 0 0 0;
#X restore 44 18 pd fig;
#N canvas 411 258 777 543 put-in-graph 0;
#X obj 118 171 f;
#X obj 164 172 + 1;
#X obj 57 14 bng 15 250 50 0 empty empty empty 0 -6 0 8 -262144 -1
-1;
#X obj 53 55 t b b;
#X msg 140 118 0;
#X obj 90 253 sel 1;
#X obj 152 371 pack 0 0 0;
#X msg 273 18 \; pd-xxx clear \; start pd-xxx;
#X obj 339 452 + 40;
#X obj 156 411 s xy-plot-point;
#X obj 183 330 expr $f1*2+20;
#X msg 11 87 0;
#X msg 47 86 1;
#X floatatom 337 95 5 0 0 0 - - -;
#X obj 154 279 f;
#X obj 151 216 t b f;
#X obj 152 305 t f f;
#X obj 316 175 osc~;
#X obj 331 314 env~ 8192;
#X obj 339 404 dbtorms;
#X floatatom 422 398 5 0 0 0 - - -;
#X obj 75 417 print;
#X obj 89 225 >= 100;
#X floatatom 418 143 7 0 0 0 - - -;
#X floatatom 391 450 5 0 0 0 - - -;
#X obj 93 85 metro 250;
#X obj 152 251 del 249;
#X msg 107 29 \; pd dsp 1;
#X obj 525 89 loadbang;
#X obj 525 115 bng 15 250 50 0 empty empty empty 0 -6 0 8 -262144 -1
-1;
#X obj 525 162 expr $f2*cos($f1);
#X obj 546 188 expr $f2*sin($f1);
#X obj 339 428 * 50;
#X obj 328 253 *~;
#X obj 372 255 *~;
#X obj 331 283 sqrt~;
#X obj 337 119 expr $f1*44100/100;
#X msg 487 323 \; add-xy-plot 101 0 0 1;
#X obj 358 174 osc~;
#X msg 197 115 0;
#X msg 251 115 -0.25;
#X msg 527 426 \; start pd-xxx;
#X obj 336 219 cpole~;
#X msg 524 131 1 0.5;
#X msg 608 131 1 0.9;
#X msg 671 131 1 0;
#X msg 426 7 \; add-h-seg 20 40 200 1 \; add-u-arrow 20 160 -120 \;
add-u-arrow 220 160 -120 \; add-xy-plot 101 0 0 1;
#X connect 0 0 1 0;
#X connect 0 0 15 0;
#X connect 0 0 22 0;
#X connect 1 0 0 1;
#X connect 2 0 3 0;
#X connect 3 0 12 0;
#X connect 3 1 4 0;
#X connect 3 1 27 0;
#X connect 4 0 0 1;
#X connect 5 0 11 0;
#X connect 6 0 9 0;
#X connect 6 0 21 0;
#X connect 8 0 6 2;
#X connect 10 0 6 1;
#X connect 11 0 25 0;
#X connect 12 0 25 0;
#X connect 13 0 36 0;
#X connect 14 0 16 0;
#X connect 15 0 26 0;
#X connect 15 1 14 1;
#X connect 15 1 13 0;
#X connect 16 0 6 0;
#X connect 16 1 10 0;
#X connect 17 0 42 0;
#X connect 18 0 19 0;
#X connect 19 0 32 0;
#X connect 22 0 5 0;
#X connect 25 0 0 0;
#X connect 25 0 39 0;
#X connect 25 0 40 0;
#X connect 26 0 14 0;
#X connect 28 0 29 0;
#X connect 29 0 43 0;
#X connect 30 0 42 2;
#X connect 31 0 42 3;
#X connect 32 0 8 0;
#X connect 32 0 24 0;
#X connect 33 0 35 0;
#X connect 34 0 35 0;
#X connect 35 0 18 0;
#X connect 36 0 17 0;
#X connect 36 0 23 0;
#X connect 36 0 38 0;
#X connect 38 0 42 1;
#X connect 39 0 17 1;
#X connect 40 0 38 1;
#X connect 42 0 33 0;
#X connect 42 0 33 1;
#X connect 42 1 34 0;
#X connect 42 1 34 1;
#X connect 43 0 30 0;
#X connect 43 0 31 0;
#X connect 44 0 30 0;
#X connect 44 0 31 0;
#X connect 45 0 30 0;
#X connect 45 0 31 0;
#X restore 165 37 pd put-in-graph;
#X obj 209 69 templates;
#N canvas 12 430 278 187 xxx 0;
#X scalar h-seg 20 40 210 1 \;;
#X scalar h-seg 20 40 210 1 \;;
#X scalar u-arrow 20 160 -120 \;;
#X scalar u-arrow 20 160 -120 \;;
#X scalar u-arrow 230 160 -120 \;;
#X scalar u-arrow 230 160 -120 \;;
#X scalar xy-plot 0 0 1 \; 0 0 \; 0 0 \; 0 0 \; 0 0 \; 0 0 \; 0 0 \;
0 0 \; 0 0 \; 0 0 \; 0 0 \; 0 0 \; 0 0 \; 0 0 \; 0 0 \; 0 0 \; 0 0
\; 0 0 \; 0 0 \; 0 0 \; 0 0 \; 0 0 \; 0 0 \; 0 0 \; 0 0 \; 0 0 \; 0
0 \; 0 0 \; 0 0 \; 0 0 \; 0 0 \; 0 0 \; 0 0 \; 0 0 \; 0 0 \; 0 0 \;
0 0 \; 0 0 \; 0 0 \; 0 0 \; 0 0 \; 0 0 \; 0 0 \; 0 0 \; 0 0 \; 0 0
\; 0 0 \; 0 0 \; 0 0 \; 0 0 \; 0 0 \; 0 0 \; 0 0 \; 0 0 \; 0 0 \; 0
0 \; 0 0 \; 0 0 \; 0 0 \; 0 0 \; 0 0 \; 0 0 \; 0 0 \; 0 0 \; 0 0 \;
0 0 \; 0 0 \; 0 0 \; 0 0 \; 0 0 \; 0 0 \; 0 0 \; 0 0 \; 0 0 \; 0 0
\; 0 0 \; 0 0 \; 0 0 \; 0 0 \; 0 0 \; 0 0 \; 0 0 \; 0 0 \; 0 0 \; 0
0 \; 0 0 \; 0 0 \; 0 0 \; 0 0 \; 0 0 \; 0 0 \; 0 0 \; 0 0 \; 0 0 \;
0 0 \; 0 0 \; 0 0 \; 0 0 \; 0 0 \; 0 0 \; 0 0 \; 0 0 \; \;;
#X scalar xy-plot 0 0 1 \; 20 99.3525 \; 22 101.642 \; 24 104.097 \;
26 106.72 \; 28 109.509 \; 30 112.462 \; 32 115.56 \; 34 118.77 \;
36 122.071 \; 38 125.382 \; 40 128.599 \; 42 131.697 \; 44 134.471
\; 46 136.764 \; 48 138.583 \; 50 139.67 \; 52 139.996 \; 54 139.538
\; 56 138.329 \; 58 136.453 \; 60 134.034 \; 62 131.195 \; 64 128.086
\; 66 124.851 \; 68 121.512 \; 70 118.227 \; 72 115.085 \; 74 111.952
\; 76 109.027 \; 78 106.265 \; 80 103.671 \; 82 101.243 \; 84 98.9797
\; 86 96.8759 \; 88 94.9136 \; 90 93.0943 \; 92 91.4171 \; 94 89.8388
\; 96 88.3852 \; 98 87.0612 \; 100 85.7861 \; 102 84.6262 \; 104 83.5505
\; 106 82.5533 \; 108 81.6287 \; 110 80.7724 \; 112 79.9813 \; 114
79.2463 \; 116 78.5688 \; 118 77.949 \; 120 77.3685 \; 122 76.8393
\; 124 76.3624 \; 126 75.9123 \; 128 75.5098 \; 130 75.1457 \; 132
74.8183 \; 134 74.5263 \; 136 74.2683 \; 138 74.0439 \; 140 73.8506
\; 142 73.6891 \; 144 73.5591 \; 146 73.4576 \; 148 73.3867 \; 150
73.3462 \; 152 73.3331 \; 154 73.3502 \; 156 73.3966 \; 158 73.4726
\; 160 73.5782 \; 162 73.7142 \; 164 73.8808 \; 166 74.0791 \; 168
74.3096 \; 170 74.5725 \; 172 74.8711 \; 174 75.2046 \; 176 75.5707
\; 178 75.9842 \; 180 76.4337 \; 182 76.9255 \; 184 77.4621 \; 186
78.0458 \; 188 78.6795 \; 190 79.366 \; 192 80.1093 \; 194 80.9125
\; 196 81.7765 \; 198 82.7164 \; 200 83.7266 \; 202 84.8038 \; 204
85.991 \; 206 87.2577 \; 208 88.6233 \; 210 90.0954 \; 212 91.6823
\; 214 93.3924 \; 216 95.2335 \; 218 97.218 \; 220 99.3515 \; \;;
#X scalar xy-plot 0 0 1 \; 0 0 \; 0 0 \; 0 0 \; 0 0 \; 0 0 \; 0 0 \;
0 0 \; 0 0 \; 0 0 \; 0 0 \; 0 0 \; 0 0 \; 0 0 \; 0 0 \; 0 0 \; 0 0
\; 0 0 \; 0 0 \; 0 0 \; 0 0 \; 0 0 \; 0 0 \; 0 0 \; 0 0 \; 0 0 \; 0
0 \; 0 0 \; 0 0 \; 0 0 \; 0 0 \; 0 0 \; 0 0 \; 0 0 \; 0 0 \; 0 0 \;
0 0 \; 0 0 \; 0 0 \; 0 0 \; 0 0 \; 0 0 \; 0 0 \; 0 0 \; 0 0 \; 0 0
\; 0 0 \; 0 0 \; 0 0 \; 0 0 \; 0 0 \; 0 0 \; 0 0 \; 0 0 \; 0 0 \; 0
0 \; 0 0 \; 0 0 \; 0 0 \; 0 0 \; 0 0 \; 0 0 \; 0 0 \; 0 0 \; 0 0 \;
0 0 \; 0 0 \; 0 0 \; 0 0 \; 0 0 \; 0 0 \; 0 0 \; 0 0 \; 0 0 \; 0 0
\; 0 0 \; 0 0 \; 0 0 \; 0 0 \; 0 0 \; 0 0 \; 0 0 \; 0 0 \; 0 0 \; 0
0 \; 0 0 \; 0 0 \; 0 0 \; 0 0 \; 0 0 \; 0 0 \; 0 0 \; 0 0 \; 0 0 \;
0 0 \; 0 0 \; 0 0 \; 0 0 \; 0 0 \; 0 0 \; 0 0 \; 0 0 \; \;;
#X scalar xy-plot 0 0 1 \; 20 94.6374 \; 22 97.9561 \; 24 101.766 \;
26 106.115 \; 28 111.331 \; 30 117.428 \; 32 124.736 \; 34 133.64 \;
36 144.697 \; 38 158.756 \; 40 177.136 \; 42 202.076 \; 44 237.335
\; 46 289.383 \; 48 369.537 \; 50 478.91 \; 52 538.468 \; 54 459.922
\; 56 353.623 \; 58 279.183 \; 60 230.414 \; 62 197.269 \; 64 173.656
\; 66 156.14 \; 68 142.645 \; 70 132.003 \; 72 123.438 \; 74 116.321
\; 76 110.4 \; 78 105.462 \; 80 101.083 \; 82 97.3633 \; 84 94.1177
\; 86 91.2652 \; 88 88.7422 \; 90 86.4982 \; 92 84.4945 \; 94 82.6922
\; 96 81.07 \; 98 79.6102 \; 100 78.2746 \; 102 77.0666 \; 104 75.9929
\; 106 74.9631 \; 108 74.0466 \; 110 73.2086 \; 112 72.4419 \; 114
71.7401 \; 116 71.0979 \; 118 70.5125 \; 120 69.9743 \; 122 69.4843
\; 124 69.0402 \; 126 68.6337 \; 128 68.2673 \; 130 67.9472 \; 132
67.6421 \; 134 67.3794 \; 136 67.1673 \; 138 66.9472 \; 140 66.7752
\; 142 66.6315 \; 144 66.5154 \; 146 66.426 \; 148 66.3631 \; 150 66.327
\; 152 66.3156 \; 154 66.3307 \; 156 66.3753 \; 158 66.4392 \; 160
66.533 \; 162 66.6626 \; 164 66.8023 \; 166 66.9791 \; 168 67.1852
\; 170 67.4218 \; 172 67.6896 \; 174 67.9908 \; 176 68.3266 \; 178
68.6993 \; 180 69.1109 \; 182 69.567 \; 184 70.0613 \; 186 70.6062
\; 188 71.2023 \; 190 71.8544 \; 192 72.5667 \; 194 73.345 \; 196 74.1956
\; 198 75.1263 \; 200 76.1454 \; 202 77.2619 \; 204 78.4902 \; 206
79.8415 \; 208 81.3315 \; 210 82.9832 \; 212 84.8162 \; 214 86.839
\; 216 89.1477 \; 218 91.7225 \; 220 94.6371 \; \;;
#X scalar xy-plot 0 0 1 \; 0 0 \; 0 0 \; 0 0 \; 0 0 \; 0 0 \; 0 0 \;
0 0 \; 0 0 \; 0 0 \; 0 0 \; 0 0 \; 0 0 \; 0 0 \; 0 0 \; 0 0 \; 0 0
\; 0 0 \; 0 0 \; 0 0 \; 0 0 \; 0 0 \; 0 0 \; 0 0 \; 0 0 \; 0 0 \; 0
0 \; 0 0 \; 0 0 \; 0 0 \; 0 0 \; 0 0 \; 0 0 \; 0 0 \; 0 0 \; 0 0 \;
0 0 \; 0 0 \; 0 0 \; 0 0 \; 0 0 \; 0 0 \; 0 0 \; 0 0 \; 0 0 \; 0 0
\; 0 0 \; 0 0 \; 0 0 \; 0 0 \; 0 0 \; 0 0 \; 0 0 \; 0 0 \; 0 0 \; 0
0 \; 0 0 \; 0 0 \; 0 0 \; 0 0 \; 0 0 \; 0 0 \; 0 0 \; 0 0 \; 0 0 \;
0 0 \; 0 0 \; 0 0 \; 0 0 \; 0 0 \; 0 0 \; 0 0 \; 0 0 \; 0 0 \; 0 0
\; 0 0 \; 0 0 \; 0 0 \; 0 0 \; 0 0 \; 0 0 \; 0 0 \; 0 0 \; 0 0 \; 0
0 \; 0 0 \; 0 0 \; 0 0 \; 0 0 \; 0 0 \; 0 0 \; 0 0 \; 0 0 \; 0 0 \;
0 0 \; 0 0 \; 0 0 \; 0 0 \; 0 0 \; 0 0 \; 0 0 \; 0 0 \; \;;
#X scalar xy-plot 0 0 1 \; 20 90 \; 22 89.9995 \; 24 89.9995 \; 26
89.9995 \; 28 89.9994 \; 30 89.9995 \; 32 89.9995 \; 34 89.9995 \;
36 89.9994 \; 38 89.9995 \; 40 89.9995 \; 42 89.9995 \; 44 89.9994
\; 46 89.9994 \; 48 89.9994 \; 50 89.9995 \; 52 89.9995 \; 54 89.9995
\; 56 89.9995 \; 58 89.9995 \; 60 89.9995 \; 62 89.9995 \; 64 89.9995
\; 66 89.9995 \; 68 89.9994 \; 70 90 \; 72 89.9994 \; 74 89.9994 \;
76 89.9995 \; 78 89.9994 \; 80 89.9995 \; 82 89.9995 \; 84 89.9995
\; 86 89.9995 \; 88 89.9994 \; 90 89.9995 \; 92 89.9995 \; 94 89.9994
\; 96 89.9994 \; 98 89.9994 \; 0 0 \; 0 0 \; 0 0 \; 0 0 \; 0 0 \; 0
0 \; 0 0 \; 0 0 \; 0 0 \; 0 0 \; 0 0 \; 0 0 \; 0 0 \; 0 0 \; 0 0 \;
0 0 \; 0 0 \; 0 0 \; 0 0 \; 0 0 \; 0 0 \; 0 0 \; 0 0 \; 0 0 \; 0 0
\; 0 0 \; 0 0 \; 0 0 \; 0 0 \; 0 0 \; 0 0 \; 0 0 \; 0 0 \; 0 0 \; 0
0 \; 0 0 \; 0 0 \; 0 0 \; 0 0 \; 0 0 \; 0 0 \; 0 0 \; 0 0 \; 0 0 \;
0 0 \; 0 0 \; 0 0 \; 0 0 \; 0 0 \; 0 0 \; 0 0 \; 0 0 \; 0 0 \; 0 0
\; 0 0 \; 0 0 \; 0 0 \; 0 0 \; 0 0 \; 0 0 \; 0 0 \; \;;
#X coords 0 187 1 186 0 0 0;
#X restore 38 52 pd xxx;
