#N struct haxis float x float y float w float w-3;
#N struct vaxis float x float y float h float h-3;
#N struct rect float x float y float w float h;
#N struct u-curve-arrow float x float y float z float z2 float z3 float
h;
#N struct y-plot float x float y float w array z y-point;
#N struct y-point float y;
#N struct v-seg float x float y float z float w;
#N struct xy-curve float x float y float w array z xy-point;
#N struct xy-point float x float y;
#N struct seg float x float y float dx float dy float w;
#N struct l-curve-arrow float x float y float z float z2 float z3 float
h;
#N struct circle2 float x float y float h float h2 float mh float mh2
;
#N struct xy-plot float x float y float w array z xy-point;
#N struct d-curve-arrow float x float y float z float z2 float z3 float
h;
#N struct circle float x float y float color float h float h2;
#N struct r-curve-arrow float x float y float z float z2 float z3 float
h;
#N struct r-arrow float x float y float z;
#N struct l-arrow float x float y float z;
#N struct u-arrow float x float y float z;
#N struct d-arrow float x float y float z;
#N struct h-seg float x float y float z float w;
#N struct frame float x float y float w float h;
#N struct thickcircle float x float y float color float h float h2
;
#N canvas 19 359 567 323 10;
#N canvas 434 385 821 472 buildit 1;
#X obj 103 255 print;
#X obj 179 234 t f f;
#X obj 165 283 expr 75 + 5 * $f1;
#X msg 166 335 \; add-rect \$1 75 2 \$2 \;;
#X obj 165 309 pack;
#X obj 478 330 pack;
#X msg 478 361 \; y-plot-point \$1 \$2 \;;
#X msg 31 21 \; pd-zzz clear;
#X msg 173 20 \; start pd-zzz \; add-haxis 50 75 300 297 \; add-vaxis
75 25 100 97 \; add-pts-01 bang;
#X obj 178 131 r add-pts-01;
#X obj 176 187 scanner 50 50;
#X obj 225 261 expr 25 * cos($f1*0.23);
#X obj 478 183 r add-pts-01b;
#X obj 478 217 scanner 250 50;
#X obj 505 283 expr 25 * cos($f1*0.23);
#X msg 400 26 \; start pd-zzz \; add-haxis 50 75 300 297 \; add-vaxis
75 25 100 97 \; add-y-plot 251 75 75 1 \; add-pts-01b bang;
#X msg 69 395 \; add-v-seg 325 73 4 1;
#X connect 1 0 2 0;
#X connect 1 1 11 0;
#X connect 2 0 4 0;
#X connect 4 0 3 0;
#X connect 5 0 6 0;
#X connect 9 0 10 0;
#X connect 10 0 1 0;
#X connect 11 0 4 1;
#X connect 12 0 13 0;
#X connect 13 0 5 0;
#X connect 13 1 14 0;
#X connect 14 0 5 1;
#X restore 289 55 pd buildit;
#N canvas 77 385 343 264 fig 1;
#X text 44 15 1;
#X text 37 66 -1;
#X text 329 45 n;
#X text 62 70 0;
#X text 58 -16 x[n];
#X scalar haxis 29 217 300 297 \;;
#X scalar vaxis 54 167 100 97 \;;
#X scalar rect 54 217 2 25 \;;
#X scalar rect 59 217 2 24.3417 \;;
#X scalar rect 64 217 2 22.4013 \;;
#X scalar rect 69 217 2 19.2812 \;;
#X scalar rect 74 217 2 15.1455 \;;
#X scalar rect 79 217 2 10.2122 \;;
#X scalar rect 84 217 2 4.74102 \;;
#X scalar rect 89 217 2 -0.979841 \;;
#X scalar rect 94 217 2 -6.6491 \;;
#X scalar rect 99 217 2 -11.9682 \;;
#X scalar rect 104 217 2 -16.6569 \;;
#X scalar rect 109 217 2 -20.4684 \;;
#X scalar rect 114 217 2 -23.2018 \;;
#X scalar rect 119 217 2 -24.7133 \;;
#X scalar rect 124 217 2 -24.9232 \;;
#X scalar rect 129 217 2 -23.8205 \;;
#X scalar rect 134 217 2 -21.4632 \;;
#X scalar rect 139 217 2 -17.9755 \;;
#X scalar rect 144 217 2 -13.541 \;;
#X scalar rect 149 217 2 -8.39346 \;;
#X scalar rect 154 217 2 -2.80382 \;;
#X scalar rect 159 217 2 2.9335 \;;
#X scalar rect 164 217 2 8.51632 \;;
#X scalar rect 169 217 2 13.6506 \;;
#X scalar rect 174 217 2 18.0659 \;;
#X scalar rect 179 217 2 21.5298 \;;
#X scalar rect 184 217 2 23.8598 \;;
#X scalar rect 189 217 2 24.9331 \;;
#X scalar rect 194 217 2 24.6932 \;;
#X scalar rect 199 217 2 23.1529 \;;
#X scalar rect 204 217 2 20.3931 \;;
#X scalar rect 209 217 2 16.5593 \;;
#X scalar rect 214 217 2 11.8534 \;;
#X scalar rect 219 217 2 6.52315 \;;
#X scalar rect 224 217 2 0.849373 \;;
#X scalar rect 229 217 2 -4.86914 \;;
#X scalar rect 234 217 2 -10.3312 \;;
#X scalar rect 239 217 2 -15.2492 \;;
#X scalar rect 244 217 2 -19.364 \;;
#X scalar rect 249 217 2 -22.459 \;;
#X scalar rect 254 217 2 -24.3711 \;;
#X scalar rect 259 217 2 -24.9997 \;;
#X scalar rect 264 217 2 -24.3116 \;;
#X scalar rect 269 217 2 -22.343 \;;
#X scalar rect 274 217 2 -19.1978 \;;
#X scalar rect 279 217 2 -15.0414 \;;
#X scalar rect 284 217 2 -10.0929 \;;
#X scalar rect 289 217 2 -4.61276 \;;
#X scalar rect 294 217 2 1.11028 \;;
#X scalar rect 299 217 2 6.77487 \;;
#X scalar rect 304 217 2 12.0826 \;;
#X scalar u-curve-arrow 57 212 -8 -8 -17 9 \;;
#X text 43 153 1;
#X text 36 204 -1;
#X text 296 188 50;
#X text 58 122 x(n);
#X text 9 -7 (a);
#X text 8 133 (b);
#X text 296 49 49;
#X scalar haxis 28 78 300 297 \;;
#X scalar vaxis 53 28 100 97 \;;
#X scalar y-plot 53 78 1 \; 25 \; 24.9736 \; 24.8943 \; 24.7623 \;
24.578 \; 24.3417 \; 24.0538 \; 23.7151 \; 23.3262 \; 22.888 \; 22.4013
\; 21.8673 \; 21.2869 \; 20.6616 \; 19.9925 \; 19.2812 \; 18.529 \;
17.7376 \; 16.9088 \; 16.0441 \; 15.1455 \; 14.2149 \; 13.2541 \; 12.2654
\; 11.2507 \; 10.2122 \; 9.15207 \; 8.0726 \; 6.97605 \; 5.86474 \;
4.74102 \; 3.60727 \; 2.46589 \; 1.31929 \; 0.169904 \; -0.979841 \;
-2.12752 \; -3.27069 \; -4.40694 \; -5.53387 \; -6.6491 \; -7.75025
\; -8.83501 \; -9.90108 \; -10.9462 \; -11.9682 \; -12.9648 \; -13.934
\; -14.8738 \; -15.782 \; -16.6569 \; -17.4965 \; -18.2992 \; -19.0631
\; -19.7867 \; -20.4684 \; -21.1068 \; -21.7005 \; -22.2484 \; -22.7492
\; -23.2018 \; -23.6054 \; -23.959 \; -24.2619 \; -24.5135 \; -24.7133
\; -24.8608 \; -24.9556 \; -24.9977 \; -24.9869 \; -24.9232 \; -24.8068
\; -24.6379 \; -24.4169 \; -24.1442 \; -23.8205 \; -23.4463 \; -23.0226
\; -22.5501 \; -22.0299 \; -21.4632 \; -20.851 \; -20.1947 \; -19.4957
\; -18.7554 \; -17.9755 \; -17.1575 \; -16.3032 \; -15.4144 \; -14.4931
\; -13.541 \; -12.5604 \; -11.5531 \; -10.5214 \; -9.46745 \; -8.39346
\; -7.30171 \; -6.19451 \; -5.07421 \; -3.94319 \; -2.80382 \; -1.6585
\; -0.509691 \; 0.640215 \; 1.78876 \; 2.9335 \; 4.07205 \; 5.20198
\; 6.32093 \; 7.42647 \; 8.51632 \; 9.58815 \; 10.6397 \; 11.6687 \;
12.6731 \; 13.6506 \; 14.5993 \; 15.517 \; 16.402 \; 17.2522 \; 18.0659
\; 18.8415 \; 19.5771 \; 20.2714 \; 20.9227 \; 21.5298 \; 22.0914 \;
22.6062 \; 23.0731 \; 23.4913 \; 23.8598 \; 24.1777 \; 24.4446 \; 24.6597
\; 24.8226 \; 24.9331 \; 24.9908 \; 24.9956 \; 24.9475 \; 24.8467 \;
24.6932 \; 24.4876 \; 24.2301 \; 23.9214 \; 23.5621 \; 23.1529 \; 22.6947
\; 22.1885 \; 21.6354 \; 21.0365 \; 20.3931 \; 19.7066 \; 18.9783 \;
18.21 \; 17.403 \; 16.5593 \; 15.6806 \; 14.7686 \; 13.8254 \; 12.853
\; 11.8534 \; 10.8287 \; 9.78106 \; 8.71275 \; 7.62603 \; 6.52315 \;
5.40651 \; 4.27838 \; 3.14122 \; 1.99741 \; 0.849373 \; -0.300456 \;
-1.44966 \; -2.59576 \; -3.7364 \; -4.86914 \; -5.99158 \; -7.10132
\; -8.19606 \; -9.27344 \; -10.3312 \; -11.3671 \; -12.379 \; -13.3647
\; -14.3221 \; -15.2492 \; -16.144 \; -17.0047 \; -17.8294 \; -18.6164
\; -19.364 \; -20.0706 \; -20.7348 \; -21.3551 \; -21.9302 \; -22.459
\; -22.9402 \; -23.3729 \; -23.7561 \; -24.0891 \; -24.3711 \; -24.6015
\; -24.78 \; -24.9059 \; -24.9792 \; -24.9997 \; -24.9672 \; -24.8819
\; -24.744 \; -24.5538 \; -24.3116 \; -24.0179 \; -23.6735 \; -23.2789
\; -22.8351 \; -22.343 \; -21.8037 \; -21.2182 \; -20.5878 \; -19.9139
\; -19.1978 \; -18.4411 \; -17.6454 \; -16.8124 \; -15.9437 \; -15.0414
\; -14.1073 \; -13.1433 \; -12.1515 \; -11.1339 \; -10.0929 \; -9.03045
\; -7.94894 \; -6.8506 \; -5.73775 \; -4.61276 \; -3.47804 \; -2.33593
\; -1.18889 \; -0.0393463 \; 1.11028 \; 2.25757 \; 3.4001 \; 4.53538
\; 5.66111 \; 6.77487 \; 7.87427 \; 8.95701 \; 10.0208 \; 11.0634 \;
12.0826 \; \;;
#X scalar v-seg 303 76 4 1 \;;
#X coords 0 264 1 263 0 0 0;
#X restore 51 61 pd fig;
#X obj 289 81 templates;
#N canvas 144 21 389 190 zzz 1;
#X scalar haxis 50 75 300 297 \;;
#X scalar vaxis 75 25 100 97 \;;
#X scalar y-plot 75 75 1 \; 25 \; 24.9736 \; 24.8943 \; 24.7623 \;
24.578 \; 24.3417 \; 24.0538 \; 23.7151 \; 23.3262 \; 22.888 \; 22.4013
\; 21.8673 \; 21.2869 \; 20.6616 \; 19.9925 \; 19.2812 \; 18.529 \;
17.7376 \; 16.9088 \; 16.0441 \; 15.1455 \; 14.2149 \; 13.2541 \; 12.2654
\; 11.2507 \; 10.2122 \; 9.15207 \; 8.0726 \; 6.97605 \; 5.86474 \;
4.74102 \; 3.60727 \; 2.46589 \; 1.31929 \; 0.169904 \; -0.979841 \;
-2.12752 \; -3.27069 \; -4.40694 \; -5.53387 \; -6.6491 \; -7.75025
\; -8.83501 \; -9.90108 \; -10.9462 \; -11.9682 \; -12.9648 \; -13.934
\; -14.8738 \; -15.782 \; -16.6569 \; -17.4965 \; -18.2992 \; -19.0631
\; -19.7867 \; -20.4684 \; -21.1068 \; -21.7005 \; -22.2484 \; -22.7492
\; -23.2018 \; -23.6054 \; -23.959 \; -24.2619 \; -24.5135 \; -24.7133
\; -24.8608 \; -24.9556 \; -24.9977 \; -24.9869 \; -24.9232 \; -24.8068
\; -24.6379 \; -24.4169 \; -24.1442 \; -23.8205 \; -23.4463 \; -23.0226
\; -22.5501 \; -22.0299 \; -21.4632 \; -20.851 \; -20.1947 \; -19.4957
\; -18.7554 \; -17.9755 \; -17.1575 \; -16.3032 \; -15.4144 \; -14.4931
\; -13.541 \; -12.5604 \; -11.5531 \; -10.5214 \; -9.46745 \; -8.39346
\; -7.30171 \; -6.19451 \; -5.07421 \; -3.94319 \; -2.80382 \; -1.6585
\; -0.509691 \; 0.640215 \; 1.78876 \; 2.9335 \; 4.07205 \; 5.20198
\; 6.32093 \; 7.42647 \; 8.51632 \; 9.58815 \; 10.6397 \; 11.6687 \;
12.6731 \; 13.6506 \; 14.5993 \; 15.517 \; 16.402 \; 17.2522 \; 18.0659
\; 18.8415 \; 19.5771 \; 20.2714 \; 20.9227 \; 21.5298 \; 22.0914 \;
22.6062 \; 23.0731 \; 23.4913 \; 23.8598 \; 24.1777 \; 24.4446 \; 24.6597
\; 24.8226 \; 24.9331 \; 24.9908 \; 24.9956 \; 24.9475 \; 24.8467 \;
24.6932 \; 24.4876 \; 24.2301 \; 23.9214 \; 23.5621 \; 23.1529 \; 22.6947
\; 22.1885 \; 21.6354 \; 21.0365 \; 20.3931 \; 19.7066 \; 18.9783 \;
18.21 \; 17.403 \; 16.5593 \; 15.6806 \; 14.7686 \; 13.8254 \; 12.853
\; 11.8534 \; 10.8287 \; 9.78106 \; 8.71275 \; 7.62603 \; 6.52315 \;
5.40651 \; 4.27838 \; 3.14122 \; 1.99741 \; 0.849373 \; -0.300456 \;
-1.44966 \; -2.59576 \; -3.7364 \; -4.86914 \; -5.99158 \; -7.10132
\; -8.19606 \; -9.27344 \; -10.3312 \; -11.3671 \; -12.379 \; -13.3647
\; -14.3221 \; -15.2492 \; -16.144 \; -17.0047 \; -17.8294 \; -18.6164
\; -19.364 \; -20.0706 \; -20.7348 \; -21.3551 \; -21.9302 \; -22.459
\; -22.9402 \; -23.3729 \; -23.7561 \; -24.0891 \; -24.3711 \; -24.6015
\; -24.78 \; -24.9059 \; -24.9792 \; -24.9997 \; -24.9672 \; -24.8819
\; -24.744 \; -24.5538 \; -24.3116 \; -24.0179 \; -23.6735 \; -23.2789
\; -22.8351 \; -22.343 \; -21.8037 \; -21.2182 \; -20.5878 \; -19.9139
\; -19.1978 \; -18.4411 \; -17.6454 \; -16.8124 \; -15.9437 \; -15.0414
\; -14.1073 \; -13.1433 \; -12.1515 \; -11.1339 \; -10.0929 \; -9.03045
\; -7.94894 \; -6.8506 \; -5.73775 \; -4.61276 \; -3.47804 \; -2.33593
\; -1.18889 \; -0.0393463 \; 1.11028 \; 2.25757 \; 3.4001 \; 4.53538
\; 5.66111 \; 6.77487 \; 7.87427 \; 8.95701 \; 10.0208 \; 11.0634 \;
12.0826 \; \;;
#X scalar v-seg 325 73 4 1 \;;
#X coords 0 190 1 189 0 0 0;
#X restore 54 113 pd zzz;
