#N canvas 534 115 430 260 10;
#X obj 84 134 cos~;
#X obj 84 112 *~;
#X text 9 30 fundamental;
#X text 8 44 frequency;
#X obj 124 134 cos~;
#X obj 155 68 wrap~;
#X obj 124 86 -~;
#X obj 124 112 +~;
#X obj 124 160 -~;
#X obj 138 186 *~;
#X obj 121 207 +~;
#X obj 9 69 phasor~;
#X text 120 5 center frequency;
#X text 119 19 (relative to fundamental);
#X obj 125 45 line~;
#X text 124 32 |;
#X text 8 56 |;
#X text 119 220 |;
#X text 199 69 the fractional part "q";
#X text 163 135 synthesize two partials "c1" and "c2";
#X text 163 161 c2 - c1;
#X text 168 187 q * (c2 - c1);
#X text 150 209 q * c2 + (1-q) * c1;
#X text 162 87 subtract to get the integer part "k";
#X text 164 114 multiply phase by k and k+1;
#X text 104 234 (OUT);
#X connect 0 0 8 1;
#X connect 0 0 10 0;
#X connect 1 0 0 0;
#X connect 1 0 7 0;
#X connect 4 0 8 0;
#X connect 5 0 6 1;
#X connect 5 0 9 1;
#X connect 6 0 1 1;
#X connect 7 0 4 0;
#X connect 8 0 9 0;
#X connect 9 0 10 1;
#X connect 11 0 1 0;
#X connect 11 0 7 1;
#X connect 14 0 6 0;
#X connect 14 0 5 0;
