#N canvas 100 17 431 203 10;
#N canvas 195 311 647 354 delay-writer 0;
#X obj 86 232 inlet~;
#X obj 86 326 outlet~;
#X obj 189 326 block~ 1;
#X obj 154 232 inlet;
#X text 79 195 incoming;
#X text 81 210 pulses;
#X text 153 198 delay;
#X text 154 213 time;
#X restore 11 158 pd delay-writer;
#X obj 111 138 expr 1000/$f1;
#X obj 111 118 mtof;
#X msg 11 111 1;
#X msg 41 111 0;
#X obj 41 55 metro 500;
#X obj 111 78 random 60;
#X obj 41 33 loadbang;
#X obj 111 98 + 30;
#X obj 11 135 vline~;
#X obj 41 91 del 1;
#X text 9 171 |;
#X text 61 8 (a);
#X text 291 12 (b);
#X obj 248 70 inlet~;
#X obj 248 164 outlet~;
#X obj 338 165 block~ 1;
#X obj 307 110 *~ 0.99;
#X obj 249 110 +~;
#X obj 308 70 inlet;
#X obj 308 90 delread~ G04-del;
#X obj 260 140 delwrite~ G04-del 1000;
#X text 235 34 incoming;
#X text 237 49 pulses;
#X text 307 36 delay;
#X text 308 51 time;
#X text 325 184 set block size;
#X text 8 185 (OUT);
#X connect 1 0 0 1;
#X connect 2 0 1 0;
#X connect 3 0 9 0;
#X connect 4 0 9 0;
#X connect 5 0 3 0;
#X connect 5 0 6 0;
#X connect 5 0 10 0;
#X connect 6 0 8 0;
#X connect 7 0 5 0;
#X connect 8 0 2 0;
#X connect 9 0 0 0;
#X connect 10 0 4 0;
#X connect 14 0 18 0;
#X connect 17 0 18 1;
#X connect 18 0 15 0;
#X connect 18 0 21 0;
#X connect 19 0 20 0;
#X connect 20 0 17 0;
