#N canvas 295 82 443 335 10;
#X obj 68 41 inlet;
#X obj 240 136 inlet;
#X text 64 16 trigger;
#X obj 68 69 sel 0;
#X obj 174 80 t b;
#X obj 107 171 f \$1;
#X obj 107 192 pack 0 \$2;
#X obj 284 136 inlet;
#X obj 195 192 del \$2;
#X obj 245 282 line~;
#X obj 195 215 f \$4;
#X obj 245 235 pack 0 \$3;
#X obj 331 136 inlet;
#X obj 376 136 inlet;
#X obj 390 207 inlet;
#X msg 68 100 stop;
#X obj 332 231 pack 0 \$5;
#X text 237 117 level;
#X obj 245 213 * \$1;
#X obj 245 304 outlet~;
#X text 43 271 and pack with;
#X text 44 291 attack time;
#X text 11 75 if zero;
#X text 11 62 release;
#X text 15 109 decay;
#X text 326 274 back to zero;
#X obj 195 235 * 0.01;
#X text 282 117 attack;
#X text 330 117 decay;
#X text 375 117 sustain;
#X text 387 186 release;
#X text 142 2 attack;
#X obj 144 23 moses;
#X obj 134 53 t b b;
#X msg 71 191 0;
#X text 10 163 optionally;
#X text 29 146 ATTACK:;
#X text 195 20 test for negative trigger;
#X text 182 52 if so \, zero;
#X text 264 52 the output;
#X text 78 235 ... then;
#X text 44 252 recall peak level;
#X text 239 101 peak;
#X text 204 79 ... do this;
#X text 15 95 cancel;
#X text 203 178 DECAY;
#X text 325 257 RELEASE: ramp;
#X text 286 79 anyway;
#X text 3 196 to zero;
#X text 10 180 jump;
#X connect 0 0 3 0;
#X connect 1 0 5 1;
#X connect 1 0 18 1;
#X connect 3 0 15 0;
#X connect 3 0 16 0;
#X connect 3 1 32 0;
#X connect 4 0 5 0;
#X connect 4 0 8 0;
#X connect 5 0 6 0;
#X connect 6 0 9 0;
#X connect 7 0 6 1;
#X connect 7 0 8 1;
#X connect 8 0 10 0;
#X connect 9 0 19 0;
#X connect 10 0 26 0;
#X connect 11 0 9 0;
#X connect 12 0 11 1;
#X connect 13 0 10 1;
#X connect 14 0 16 1;
#X connect 15 0 8 0;
#X connect 16 0 9 0;
#X connect 18 0 11 0;
#X connect 26 0 18 0;
#X connect 32 0 33 0;
#X connect 32 1 4 0;
#X connect 33 0 4 0;
#X connect 33 1 34 0;
#X connect 34 0 9 0;
