#N struct xy-plot float x float y float w array z xy-point;
#N struct xy-point float x float y;
#N struct circle float x float y float color float h float h2;
#N struct xy-curve float x float y float w array z xy-point;
#N struct v-seg float x float y float z float w;
#N struct l-arrow float x float y float z;
#N struct seg float x float y float dx float dy float w;
#N struct l-curve-arrow float x float y float z float z2 float z3 float
h;
#N struct circle2 float x float y float h float h2 float mh float mh2
;
#N struct vaxis float x float y float h float h-3;
#N struct d-curve-arrow float x float y float z float z2 float z3 float
h;
#N struct u-curve-arrow float x float y float z float z2 float z3 float
h;
#N struct r-curve-arrow float x float y float z float z2 float z3 float
h;
#N struct r-arrow float x float y float z;
#N struct u-arrow float x float y float z;
#N struct d-arrow float x float y float z;
#N struct h-seg float x float y float z float w;
#N struct rect float x float y float w float h;
#N struct haxis float x float y float w float w-3;
#N struct frame float x float y float w float h;
#N struct y-plot float x float y float w array z y-point;
#N struct y-point float y;
#N struct thickcircle float x float y float color float h float h2
;
#N canvas 799 461 294 185 10;
#N canvas 488 9 403 230 fig 0;
#X scalar xy-plot 149 110 1 \; 100 0 \; 99.8027 6.27887 \; 99.2115
12.533 \; 98.2288 18.7376 \; 96.8585 24.8683 \; 95.1059 30.9008 \;
92.9781 36.8114 \; 90.4833 42.5768 \; 87.6314 48.1741 \; 84.4337 53.5813
\; 80.9028 58.777 \; 77.0526 63.7408 \; 72.8984 68.4531 \; 68.4565
72.8952 \; 63.7444 77.0497 \; 58.7808 80.9001 \; 53.5852 84.4312 \;
48.1781 87.6292 \; 42.5809 90.4813 \; 36.8157 92.9763 \; 30.9052 95.1045
\; 24.8728 96.8574 \; 18.7421 98.228 \; 12.5375 99.2109 \; 6.2835 99.8024
\; 0.00463287 100 \; -6.27424 99.803 \; -12.5284 99.2121 \; -18.733
98.2297 \; -24.8638 96.8596 \; -30.8964 95.1074 \; -36.8071 92.9798
\; -42.5726 90.4852 \; -48.17 87.6336 \; -53.5774 84.4362 \; -58.7733
80.9055 \; -63.7373 77.0556 \; -68.4497 72.9016 \; -72.892 68.4599
\; -77.0467 63.748 \; -80.8973 58.7845 \; -84.4287 53.5891 \; -87.6269
48.1822 \; -90.4793 42.5851 \; -92.9746 36.82 \; -95.1031 30.9096 \;
-96.8562 24.8772 \; -98.2271 18.7467 \; -99.2104 12.5422 \; -99.8021
6.28811 \; -100 0.00926574 \; -99.8033 -6.26962 \; -99.2127 -12.5238
\; -98.2306 -18.7285 \; -96.8608 -24.8593 \; -95.1088 -30.892 \; -92.9815
-36.8028 \; -90.4872 -42.5684 \; -87.6358 -48.166 \; -84.4387 -53.5734
\; -80.9082 -58.7695 \; -77.0585 -63.7337 \; -72.9047 -68.4463 \; -68.4632
-72.8889 \; -63.7515 -77.0438 \; -58.7883 -80.8946 \; -53.593 -84.4262
\; -48.1862 -87.6247 \; -42.5893 -90.4773 \; -36.8243 -92.9729 \; -30.914
-95.1016 \; -24.8817 -96.855 \; -18.7512 -98.2262 \; -12.5467 -99.2098
\; -6.29271 -99.8018 \; -0.0139225 -100 \; 6.26497 -99.8036 \; 12.5191
-99.2133 \; 18.7239 -98.2314 \; 24.8548 -96.862 \; 30.8876 -95.1102
\; 36.7985 -92.9832 \; 42.5642 -90.4892 \; 48.1619 -87.6381 \; 53.5695
-84.4411 \; 58.7658 -80.911 \; 63.7301 -77.0615 \; 68.4429 -72.9079
\; 72.8857 -68.4666 \; 77.0408 -63.7551 \; 80.8919 -58.792 \; 84.4238
-53.5969 \; 87.6225 -48.1903 \; 90.4754 -42.5935 \; 92.9712 -36.8286
\; 95.1002 -30.9184 \; 96.8539 -24.8863 \; 98.2254 -18.7558 \; 99.2092
-12.5513 \; 99.8015 -6.29736 \; 100 -0.0185315 \; \;;
#X scalar xy-plot 149 110 1 \; 60.0002 -80.0002 \; 58.5294 -78.0007
\; 57.1304 -76.0235 \; 55.7992 -74.0688 \; 54.5324 -72.1365 \; 53.3265
-70.2266 \; 52.1784 -68.3389 \; 51.0851 -66.4731 \; 50.0438 -64.6289
\; 49.0521 -62.8059 \; 48.1073 -61.0038 \; 47.2074 -59.2221 \; 46.3501
-57.4604 \; 45.5334 -55.718 \; 44.7554 -53.9946 \; 44.0144 -52.2896
\; 43.3088 -50.6025 \; 42.6369 -48.9327 \; 41.9974 -47.2796 \; 41.3889
-45.6427 \; 40.8101 -44.0215 \; 40.2597 -42.4154 \; 39.7368 -40.8237
\; 39.2401 -39.2461 \; 38.7688 -37.6818 \; 38.3219 -36.1304 \; 37.8986
-34.5913 \; 37.498 -33.064 \; 37.1193 -31.5478 \; 36.762 -30.0424 \;
36.4252 -28.5471 \; 36.1084 -27.0614 \; 35.8111 -25.5849 \; 35.5326
-24.1169 \; 35.2725 -22.657 \; 35.0303 -21.2047 \; 34.8056 -19.7595
\; 34.598 -18.3209 \; 34.4072 -16.8884 \; 34.2328 -15.4615 \; 34.0746
-14.0397 \; 33.9322 -12.6226 \; 33.8054 -11.2096 \; 33.694 -9.80036
\; 33.5978 -8.39435 \; 33.5167 -6.99111 \; 33.4506 -5.59017 \; 33.3992
-4.19107 \; 33.3626 -2.79336 \; 33.3406 -1.39655 \; 33.3333 -0.000217226
\; 33.3406 1.39612 \; 33.3626 2.79292 \; 33.3992 4.19063 \; 33.4506
5.58974 \; 33.5167 6.99068 \; 33.5978 8.39391 \; 33.694 9.79993 \;
33.8053 11.2092 \; 33.9321 12.6221 \; 34.0745 14.0393 \; 34.2328 15.461
\; 34.4072 16.8879 \; 34.598 18.3205 \; 34.8055 19.7591 \; 35.0302
21.2043 \; 35.2724 22.6566 \; 35.5325 24.1165 \; 35.811 25.5844 \;
36.1083 27.061 \; 36.4251 28.5466 \; 36.7618 30.0419 \; 37.1192 31.5474
\; 37.4979 33.0635 \; 37.8985 34.5908 \; 38.3218 36.1299 \; 38.7687
37.6813 \; 39.24 39.2456 \; 39.7366 40.8232 \; 40.2596 42.4149 \; 40.8099
44.021 \; 41.3887 45.6422 \; 41.9972 47.2791 \; 42.6367 48.9321 \;
43.3086 50.602 \; 44.0142 52.2891 \; 44.7552 53.9941 \; 45.5331 55.7175
\; 46.3498 57.4598 \; 47.2071 59.2216 \; 48.1071 61.0033 \; 49.0518
62.8054 \; 50.0435 64.6283 \; 51.0847 66.4725 \; 52.178 68.3383 \;
53.3261 70.226 \; 54.532 72.1359 \; 55.7988 74.0682 \; 57.13 76.0229
\; 58.529 78.0001 \; 59.9997 79.9996 \; \;;
#X scalar xy-plot 149 110 1 \; 0 -100 \; 0 -96.9071 \; 0 -93.9066 \;
0 -90.9933 \; 0 -88.1622 \; 0 -85.4084 \; 0 -82.7275 \; 0 -80.1154
\; 0 -77.5683 \; 0 -75.0824 \; 0 -72.6545 \; 0 -70.2815 \; 0 -67.9602
\; 0 -65.688 \; 0 -63.4622 \; 0 -61.2804 \; 0 -59.1401 \; 0 -57.0393
\; 0 -54.9757 \; 0 -52.9475 \; 0 -50.9528 \; 0 -48.9897 \; 0 -47.0567
\; 0 -45.152 \; 0 -43.2741 \; 0 -41.4216 \; 0 -39.593 \; 0 -37.7871
\; 0 -36.0025 \; 0 -34.2379 \; 0 -32.4922 \; 0 -30.7643 \; 0 -29.0529
\; 0 -27.3571 \; 0 -25.6759 \; 0 -24.0081 \; 0 -22.3529 \; 0 -20.7092
\; 0 -19.0763 \; 0 -17.453 \; 0 -15.8387 \; 0 -14.2323 \; 0 -12.6332
\; 0 -11.0403 \; 0 -9.45302 \; 0 -7.87041 \; 0 -6.29171 \; 0 -4.71612
\; 0 -3.14287 \; 0 -1.57116 \; 0 -0.000244379 \; 0 1.57068 \; 0 3.14238
\; 0 4.71563 \; 0 6.29122 \; 0 7.86992 \; 0 9.45253 \; 0 11.0398 \;
0 12.6327 \; 0 14.2318 \; 0 15.8382 \; 0 17.4525 \; 0 19.0758 \; 0
20.7087 \; 0 22.3524 \; 0 24.0076 \; 0 25.6754 \; 0 27.3566 \; 0 29.0524
\; 0 30.7637 \; 0 32.4917 \; 0 34.2373 \; 0 36.0019 \; 0 37.7865 \;
0 39.5925 \; 0 41.421 \; 0 43.2735 \; 0 45.1514 \; 0 47.0561 \; 0 48.9892
\; 0 50.9522 \; 0 52.9469 \; 0 54.9751 \; 0 57.0386 \; 0 59.1394 \;
0 61.2797 \; 0 63.4615 \; 0 65.6873 \; 0 67.9595 \; 0 70.2807 \; 0
72.6538 \; 0 75.0817 \; 0 77.5675 \; 0 80.1146 \; 0 82.7267 \; 0 85.4075
\; 0 88.1613 \; 0 90.9925 \; 0 93.9057 \; 0 96.9062 \; 0 99.9994 \;
\;;
#X scalar xy-plot 149 110 1 \; -60.0002 -80.0002 \; -58.5294 -78.0007
\; -57.1304 -76.0235 \; -55.7992 -74.0688 \; -54.5324 -72.1365 \; -53.3265
-70.2266 \; -52.1784 -68.3389 \; -51.0851 -66.4731 \; -50.0438 -64.6289
\; -49.0521 -62.8059 \; -48.1073 -61.0038 \; -47.2074 -59.2221 \; -46.3501
-57.4604 \; -45.5334 -55.718 \; -44.7554 -53.9946 \; -44.0144 -52.2896
\; -43.3088 -50.6025 \; -42.6369 -48.9327 \; -41.9974 -47.2796 \; -41.3889
-45.6427 \; -40.8101 -44.0215 \; -40.2597 -42.4154 \; -39.7368 -40.8237
\; -39.2401 -39.2461 \; -38.7688 -37.6818 \; -38.3219 -36.1304 \; -37.8986
-34.5913 \; -37.498 -33.064 \; -37.1193 -31.5478 \; -36.762 -30.0424
\; -36.4252 -28.5471 \; -36.1084 -27.0614 \; -35.8111 -25.5849 \; -35.5326
-24.1169 \; -35.2725 -22.657 \; -35.0303 -21.2047 \; -34.8056 -19.7595
\; -34.598 -18.3209 \; -34.4072 -16.8884 \; -34.2328 -15.4615 \; -34.0746
-14.0397 \; -33.9322 -12.6226 \; -33.8054 -11.2096 \; -33.694 -9.80036
\; -33.5978 -8.39435 \; -33.5167 -6.99111 \; -33.4506 -5.59017 \; -33.3992
-4.19107 \; -33.3626 -2.79336 \; -33.3406 -1.39655 \; -33.3333 -0.000217226
\; -33.3406 1.39612 \; -33.3626 2.79292 \; -33.3992 4.19063 \; -33.4506
5.58974 \; -33.5167 6.99068 \; -33.5978 8.39391 \; -33.694 9.79993
\; -33.8053 11.2092 \; -33.9321 12.6221 \; -34.0745 14.0393 \; -34.2328
15.461 \; -34.4072 16.8879 \; -34.598 18.3205 \; -34.8055 19.7591 \;
-35.0302 21.2043 \; -35.2724 22.6566 \; -35.5325 24.1165 \; -35.811
25.5844 \; -36.1083 27.061 \; -36.4251 28.5466 \; -36.7618 30.0419
\; -37.1192 31.5474 \; -37.4979 33.0635 \; -37.8985 34.5908 \; -38.3218
36.1299 \; -38.7687 37.6813 \; -39.24 39.2456 \; -39.7366 40.8232 \;
-40.2596 42.4149 \; -40.8099 44.021 \; -41.3887 45.6422 \; -41.9972
47.2791 \; -42.6367 48.9321 \; -43.3086 50.602 \; -44.0142 52.2891
\; -44.7552 53.9941 \; -45.5331 55.7175 \; -46.3498 57.4598 \; -47.2071
59.2216 \; -48.1071 61.0033 \; -49.0518 62.8054 \; -50.0435 64.6283
\; -51.0847 66.4725 \; -52.178 68.3383 \; -53.3261 70.226 \; -54.532
72.1359 \; -55.7988 74.0682 \; -57.13 76.0229 \; -58.529 78.0001 \;
-59.9997 79.9996 \; \;;
#X scalar xy-plot 149 110 1 \; 100 0 \; 96.9083 0 \; 93.9092 0 \; 90.9974
0 \; 88.1675 0 \; 85.415 0 \; 82.7352 0 \; 80.1243 0 \; 77.5782 0 \;
75.0933 0 \; 72.6664 0 \; 70.2943 0 \; 67.9739 0 \; 65.7025 0 \; 63.4776
0 \; 61.2965 0 \; 59.157 0 \; 57.0569 0 \; 54.9941 0 \; 52.9667 0 \;
50.9726 0 \; 49.0102 0 \; 47.0778 0 \; 45.1738 0 \; 43.2966 0 \; 41.4447
0 \; 39.6167 0 \; 37.8114 0 \; 36.0274 0 \; 34.2635 0 \; 32.5184 0
\; 30.791 0 \; 29.0803 0 \; 27.3851 0 \; 25.7045 0 \; 24.0374 0 \;
22.3827 0 \; 20.7397 0 \; 19.1074 0 \; 17.4848 0 \; 15.8711 0 \; 14.2654
0 \; 12.6669 0 \; 11.0748 0 \; 9.48813 0 \; 7.90623 0 \; 6.32824 0
\; 4.75339 0 \; 3.18089 0 \; 1.60995 0 \; 0.0398133 0 \; -1.5303 0
\; -3.10118 0 \; -4.67358 0 \; -6.2483 0 \; -7.82611 0 \; -9.4078 0
\; -10.9942 0 \; -12.586 0 \; -14.1842 0 \; -15.7895 0 \; -17.4028
0 \; -19.0249 0 \; -20.6567 0 \; -22.2991 0 \; -23.9531 0 \; -25.6196
0 \; -27.2996 0 \; -28.994 0 \; -30.7039 0 \; -32.4304 0 \; -34.1745
0 \; -35.9375 0 \; -37.7204 0 \; -39.5247 0 \; -41.3514 0 \; -43.202
0 \; -45.0779 0 \; -46.9806 0 \; -48.9115 0 \; -50.8723 0 \; -52.8647
0 \; -54.8905 0 \; -56.9514 0 \; -59.0496 0 \; -61.187 0 \; -63.3659
0 \; -65.5886 0 \; -67.8575 0 \; -70.1753 0 \; -72.5448 0 \; -74.9689
0 \; -77.4507 0 \; -79.9936 0 \; -82.6012 0 \; -85.2773 0 \; -88.0261
0 \; -90.8519 0 \; -93.7595 0 \; -96.754 0 \; -99.8409 0 \; \;;
#X scalar xy-plot 149 110 1 \; 100 -0 \; 98.7641 -2.86607 \; 97.4622
-5.66217 \; 96.0976 -8.38816 \; 94.6738 -11.044 \; 93.1939 -13.6299
\; 91.661 -16.1459 \; 90.0782 -18.5925 \; 88.4482 -20.9699 \; 86.7736
-23.2786 \; 85.0571 -25.5192 \; 83.3011 -27.6922 \; 81.5079 -29.7981
\; 79.6797 -31.8378 \; 77.8186 -33.8117 \; 75.9267 -35.7207 \; 74.0057
-37.5654 \; 72.0576 -39.3466 \; 70.0839 -41.065 \; 68.0863 -42.7214
\; 66.0664 -44.3166 \; 64.0254 -45.8512 \; 61.965 -47.3261 \; 59.8862
-48.7419 \; 57.7903 -50.0994 \; 55.6784 -51.3993 \; 53.5518 -52.6423
\; 51.4113 -53.8291 \; 49.2579 -54.9603 \; 47.0926 -56.0366 \; 44.9162
-57.0586 \; 42.7295 -58.0269 \; 40.5333 -58.9421 \; 38.3283 -59.8047
\; 36.1153 -60.6152 \; 33.8948 -61.3741 \; 31.6675 -62.082 \; 29.434
-62.7391 \; 27.1949 -63.346 \; 24.9506 -63.9031 \; 22.7017 -64.4106
\; 20.4486 -64.8689 \; 18.1919 -65.2783 \; 15.932 -65.6391 \; 13.6693
-65.9515 \; 11.4043 -66.2156 \; 9.13724 -66.4317 \; 6.86868 -66.5999
\; 4.59897 -66.7203 \; 2.32847 -66.793 \; 0.0575886 -66.818 \; -2.2133
-66.7954 \; -4.48382 -66.7251 \; -6.75358 -66.6072 \; -9.02223 -66.4414
\; -11.2893 -66.2277 \; -13.5545 -65.966 \; -15.8173 -65.6561 \; -18.0774
-65.2978 \; -20.3343 -64.8909 \; -22.5875 -64.435 \; -24.8366 -63.93
\; -27.0812 -63.3755 \; -29.3206 -62.7711 \; -31.5544 -62.1165 \; -33.782
-61.4113 \; -36.0029 -60.6549 \; -38.2163 -59.847 \; -40.4217 -58.9871
\; -42.6183 -58.0746 \; -44.8055 -57.109 \; -46.9824 -56.0897 \; -49.1484
-55.0162 \; -51.3023 -53.8878 \; -53.4435 -52.7038 \; -55.5709 -51.4637
\; -57.6835 -50.1667 \; -59.7802 -48.8121 \; -61.8599 -47.3993 \; -63.9214
-45.9274 \; -65.9633 -44.3959 \; -67.9844 -42.8038 \; -69.9831 -41.1505
\; -71.9581 -39.4353 \; -73.9075 -37.6573 \; -75.8299 -35.8158 \; -77.7234
-33.9101 \; -79.5861 -31.9394 \; -81.416 -29.9032 \; -83.211 -27.8006
\; -84.9689 -25.631 \; -86.6875 -23.3939 \; -88.3643 -21.0886 \; -89.9966
-18.7147 \; -91.5819 -16.2717 \; -93.1174 -13.7592 \; -94.6 -11.1769
\; -96.0268 -8.52454 \; -97.3944 -5.80211 \; -98.6997 -3.00957 \; -99.939
-0.147043 \; \;;
#X scalar xy-plot 149 110 1 \; 100 -0 \; 97.1334 -1.16757 \; 94.3333
-2.27006 \; 91.5968 -3.31176 \; 88.9211 -4.29662 \; 86.3032 -5.22825
\; 83.7408 -6.10998 \; 81.2311 -6.94488 \; 78.7719 -7.73576 \; 76.3608
-8.48525 \; 73.9956 -9.19575 \; 71.6743 -9.86948 \; 69.3947 -10.5085
\; 67.1551 -11.1147 \; 64.9536 -11.6899 \; 62.7884 -12.2357 \; 60.6578
-12.7536 \; 58.5602 -13.2451 \; 56.494 -13.7114 \; 54.4579 -14.1537
\; 52.4502 -14.5733 \; 50.4697 -14.9711 \; 48.5151 -15.3481 \; 46.585
-15.7053 \; 44.6783 -16.0435 \; 42.7937 -16.3634 \; 40.9301 -16.6659
\; 39.0864 -16.9515 \; 37.2615 -17.221 \; 35.4545 -17.4749 \; 33.6642
-17.7138 \; 31.8897 -17.9381 \; 30.1301 -18.1484 \; 28.3845 -18.3451
\; 26.6519 -18.5286 \; 24.9314 -18.6992 \; 23.2223 -18.8574 \; 21.5237
-19.0033 \; 19.8347 -19.1374 \; 18.1546 -19.2599 \; 16.4826 -19.3709
\; 14.8179 -19.4708 \; 13.1597 -19.5597 \; 11.5074 -19.6378 \; 9.86003
-19.7052 \; 8.21701 -19.7621 \; 6.57758 -19.8085 \; 4.94102 -19.8446
\; 3.30661 -19.8704 \; 1.67364 -19.8859 \; 0.0413886 -19.8913 \; -1.59084
-19.8864 \; -3.22376 -19.8714 \; -4.85807 -19.8461 \; -6.49452 -19.8106
\; -8.13379 -19.7647 \; -9.7766 -19.7083 \; -11.4237 -19.6415 \; -13.0758
-19.5639 \; -14.7337 -19.4756 \; -16.398 -19.3763 \; -18.0697 -19.2658
\; -19.7493 -19.1439 \; -21.4378 -19.0104 \; -23.1359 -18.8651 \; -24.8445
-18.7075 \; -26.5643 -18.5375 \; -28.2963 -18.3547 \; -30.0412 -18.1587
\; -31.8001 -17.9491 \; -33.5738 -17.7255 \; -35.3632 -17.4874 \; -37.1694
-17.2343 \; -38.9934 -16.9656 \; -40.8361 -16.6808 \; -42.6986 -16.3792
\; -44.5821 -16.0601 \; -46.4877 -15.7229 \; -48.4166 -15.3667 \; -50.37
-14.9907 \; -52.3491 -14.594 \; -54.3554 -14.1756 \; -56.39 -13.7344
\; -58.4546 -13.2693 \; -60.5506 -12.7792 \; -62.6795 -12.2626 \; -64.8429
-11.7183 \; -67.0426 -11.1446 \; -69.2802 -10.54 \; -71.5576 -9.90271
\; -73.8768 -9.23079 \; -76.2397 -8.52221 \; -78.6485 -7.77475 \; -81.1052
-6.98603 \; -83.6122 -6.15343 \; -86.172 -5.27415 \; -88.7869 -4.34513
\; -91.4597 -3.36305 \; -94.193 -2.32432 \; -96.9898 -1.22501 \; -99.853
-0.0608548 \; \;;
#X scalar xy-plot 149 110 1 \; 100 0 \; 97.1334 1.16757 \; 94.3333
2.27006 \; 91.5968 3.31176 \; 88.9211 4.29662 \; 86.3032 5.22825 \;
83.7408 6.10998 \; 81.2311 6.94488 \; 78.7719 7.73576 \; 76.3608 8.48525
\; 73.9956 9.19575 \; 71.6743 9.86948 \; 69.3947 10.5085 \; 67.1551
11.1147 \; 64.9536 11.6899 \; 62.7884 12.2357 \; 60.6578 12.7536 \;
58.5602 13.2451 \; 56.494 13.7114 \; 54.4579 14.1537 \; 52.4502 14.5733
\; 50.4697 14.9711 \; 48.5151 15.3481 \; 46.585 15.7053 \; 44.6783
16.0435 \; 42.7937 16.3634 \; 40.9301 16.6659 \; 39.0864 16.9515 \;
37.2615 17.221 \; 35.4545 17.4749 \; 33.6642 17.7138 \; 31.8897 17.9381
\; 30.1301 18.1484 \; 28.3845 18.3451 \; 26.6519 18.5286 \; 24.9314
18.6992 \; 23.2223 18.8574 \; 21.5237 19.0033 \; 19.8347 19.1374 \;
18.1546 19.2599 \; 16.4826 19.3709 \; 14.8179 19.4708 \; 13.1597 19.5597
\; 11.5074 19.6378 \; 9.86003 19.7052 \; 8.21701 19.7621 \; 6.57758
19.8085 \; 4.94102 19.8446 \; 3.30661 19.8704 \; 1.67364 19.8859 \;
0.0413886 19.8913 \; -1.59084 19.8864 \; -3.22376 19.8714 \; -4.85807
19.8461 \; -6.49452 19.8106 \; -8.13379 19.7647 \; -9.7766 19.7083
\; -11.4237 19.6415 \; -13.0758 19.5639 \; -14.7337 19.4756 \; -16.398
19.3763 \; -18.0697 19.2658 \; -19.7493 19.1439 \; -21.4378 19.0104
\; -23.1359 18.8651 \; -24.8445 18.7075 \; -26.5643 18.5375 \; -28.2963
18.3547 \; -30.0412 18.1587 \; -31.8001 17.9491 \; -33.5738 17.7255
\; -35.3632 17.4874 \; -37.1694 17.2343 \; -38.9934 16.9656 \; -40.8361
16.6808 \; -42.6986 16.3792 \; -44.5821 16.0601 \; -46.4877 15.7229
\; -48.4166 15.3667 \; -50.37 14.9907 \; -52.3491 14.594 \; -54.3554
14.1756 \; -56.39 13.7344 \; -58.4546 13.2693 \; -60.5506 12.7792 \;
-62.6795 12.2626 \; -64.8429 11.7183 \; -67.0426 11.1446 \; -69.2802
10.54 \; -71.5576 9.90271 \; -73.8768 9.23079 \; -76.2397 8.52221 \;
-78.6485 7.77475 \; -81.1052 6.98603 \; -83.6122 6.15343 \; -86.172
5.27415 \; -88.7869 4.34513 \; -91.4597 3.36305 \; -94.193 2.32432
\; -96.9898 1.22501 \; -99.853 0.0608548 \; \;;
#X scalar xy-plot 149 110 1 \; 100 0 \; 98.7641 2.86607 \; 97.4622
5.66217 \; 96.0976 8.38816 \; 94.6738 11.044 \; 93.1939 13.6299 \;
91.661 16.1459 \; 90.0782 18.5925 \; 88.4482 20.9699 \; 86.7736 23.2786
\; 85.0571 25.5192 \; 83.3011 27.6922 \; 81.5079 29.7981 \; 79.6797
31.8378 \; 77.8186 33.8117 \; 75.9267 35.7207 \; 74.0057 37.5654 \;
72.0576 39.3466 \; 70.0839 41.065 \; 68.0863 42.7214 \; 66.0664 44.3166
\; 64.0254 45.8512 \; 61.965 47.3261 \; 59.8862 48.7419 \; 57.7903
50.0994 \; 55.6784 51.3993 \; 53.5518 52.6423 \; 51.4113 53.8291 \;
49.2579 54.9603 \; 47.0926 56.0366 \; 44.9162 57.0586 \; 42.7295 58.0269
\; 40.5333 58.9421 \; 38.3283 59.8047 \; 36.1153 60.6152 \; 33.8948
61.3741 \; 31.6675 62.082 \; 29.434 62.7391 \; 27.1949 63.346 \; 24.9506
63.9031 \; 22.7017 64.4106 \; 20.4486 64.8689 \; 18.1919 65.2783 \;
15.932 65.6391 \; 13.6693 65.9515 \; 11.4043 66.2156 \; 9.13724 66.4317
\; 6.86868 66.5999 \; 4.59897 66.7203 \; 2.32847 66.793 \; 0.0575886
66.818 \; -2.2133 66.7954 \; -4.48382 66.7251 \; -6.75358 66.6072 \;
-9.02223 66.4414 \; -11.2893 66.2277 \; -13.5545 65.966 \; -15.8173
65.6561 \; -18.0774 65.2978 \; -20.3343 64.8909 \; -22.5875 64.435
\; -24.8366 63.93 \; -27.0812 63.3755 \; -29.3206 62.7711 \; -31.5544
62.1165 \; -33.782 61.4113 \; -36.0029 60.6549 \; -38.2163 59.847 \;
-40.4217 58.9871 \; -42.6183 58.0746 \; -44.8055 57.109 \; -46.9824
56.0897 \; -49.1484 55.0162 \; -51.3023 53.8878 \; -53.4435 52.7038
\; -55.5709 51.4637 \; -57.6835 50.1667 \; -59.7802 48.8121 \; -61.8599
47.3993 \; -63.9214 45.9274 \; -65.9633 44.3959 \; -67.9844 42.8038
\; -69.9831 41.1505 \; -71.9581 39.4353 \; -73.9075 37.6573 \; -75.8299
35.8158 \; -77.7234 33.9101 \; -79.5861 31.9394 \; -81.416 29.9032
\; -83.211 27.8006 \; -84.9689 25.631 \; -86.6875 23.3939 \; -88.3643
21.0886 \; -89.9966 18.7147 \; -91.5819 16.2717 \; -93.1174 13.7592
\; -94.6 11.1769 \; -96.0268 8.52454 \; -97.3944 5.80211 \; -98.6997
3.00957 \; -99.939 0.147043 \; \;;
#X scalar circle 194.937 53.4133 999 4 -4 \;;
#X scalar circle 183.501 92.3963 999 4 -4 \;;
#X scalar circle 183.501 127.604 999 4 -4 \;;
#X scalar circle 194.937 166.587 999 4 -4 \;;
#X scalar circle 182.333 110 1 4 -4 \;;
#X scalar xy-curve 315 154 1 \; 0 -2 \; 2 0 \; 4 2 \; 6 0 \; 8 -2 \;
10 0 \; 12 2 \; \;;
#X scalar v-seg 318 147 7 1 \;;
#X scalar v-seg 323 147 5 1 \;;
#X text 214 26 r=0.5;
#X scalar xy-curve 287 160 1 \; 0 -14 \; 0 -14 \; -9 0 \; -9 -18 \;
0 -4 \; \;;
#X text 292 71 = 3;
#X text 327 70 /8;
#X scalar xy-curve 309 122 1 \; 0 -2 \; 2 0 \; 4 2 \; 6 0 \; 8 -2 \;
10 0 \; 12 2 \; \;;
#X scalar v-seg 312 115 7 1 \;;
#X scalar v-seg 317 115 5 1 \;;
#X scalar xy-curve 287 128 1 \; 0 -14 \; 0 -14 \; -9 0 \; -9 -18 \;
0 -4 \; \;;
#X text 321 102 /8;
#X text 292 103 =;
#X scalar xy-curve 315 103 1 \; 0 -2 \; 2 0 \; 4 2 \; 6 0 \; 8 -2 \;
10 0 \; 12 2 \; \;;
#X scalar v-seg 318 96 7 1 \;;
#X scalar v-seg 323 96 5 1 \;;
#X scalar xy-curve 287 109 1 \; 0 -14 \; 0 -14 \; -9 0 \; -9 -18 \;
0 -4 \; \;;
#X text 327 121 /8;
#X text 292 122 = -;
#X scalar xy-curve 322 71 1 \; 0 -2 \; 2 0 \; 4 2 \; 6 0 \; 8 -2 \;
10 0 \; 12 2 \; \;;
#X scalar v-seg 325 64 7 1 \;;
#X scalar v-seg 330 64 5 1 \;;
#X scalar xy-curve 286 77 1 \; 0 -14 \; 0 -14 \; -9 0 \; -9 -18 \;
0 -4 \; \;;
#X text 334 153 /8;
#X text 291 154 = -3;
#X text 145 2 r=1;
#X text 63 22 r=2;
#X scalar l-arrow 222 152 50 \;;
#X scalar l-arrow 226 120 48 \;;
#X scalar l-arrow 226 100 48 \;;
#X scalar l-arrow 222 69 50 \;;
#X coords 0 230 1 229 0 0 0;
#X restore 51 61 pd fig;
#X obj 47 89 templates;
#N canvas 77 187 734 727 put-in-graph 0;
#X obj 55 205 pack 0 0 0;
#X msg 604 11 \; pd-xxx clear \; start pd-xxx;
#X obj 55 228 s xy-plot-point;
#X obj 55 90 scanner 100 6.283;
#X obj 289 239 print;
#X msg 57 54 \; add-xy-plot 101 150 150 1;
#X obj 76 143 expr 100 * cos($f1);
#X obj 107 176 expr 100 * sin($f1);
#X obj 56 398 pack 0 0 0;
#X obj 56 421 s xy-plot-point;
#X obj 57 269 scanner 100 3.14159;
#X obj 121 310 - 1.5708;
#X obj 185 310 - 1.5708;
#X obj 113 369 expr 100 * 2*$f2*sin($f1) / (1 + $f2*$f2 + 2*$f2*cos($f1))
;
#X msg 266 298 0.5;
#X obj 88 333 expr 100 * (1 - $f2*$f2) / (1 + $f2*$f2 + 2*$f2*cos($f1))
;
#X msg 305 296 1;
#X msg 341 297 2;
#X obj 56 607 pack 0 0 0;
#X obj 56 630 s xy-plot-point;
#X obj 118 580 expr 100 * 2*$f2*sin($f1) / (1 + $f2*$f2 + 2*$f2*cos($f1))
;
#X obj 86 557 expr 100 * (1 - $f2*$f2) / (1 + $f2*$f2 + 2*$f2*cos($f1))
;
#X obj 56 451 scanner 100 1.57;
#X obj 109 491 expr tan($f1);
#X obj 105 512 t b f;
#X obj 104 531 f;
#X msg 276 431 -0.666;
#X msg 321 432 0;
#X msg 355 433 0.666;
#X obj 265 505 * 1.5708;
#X msg 221 464 -0.75;
#X msg 353 462 0.75;
#X msg 305 462 0.25;
#X msg 269 465 -0.25;
#X obj 335 97 unpack 0 0 0;
#X obj 335 214 pack 0 0 0;
#X obj 373 121 * 1.5708;
#X obj 347 145 expr 150 + 100 * (1 - $f2*$f2) / (1 + $f2*$f2 + 2*$f2*cos($f1))
;
#X obj 388 180 expr 150 + 100 * 2*$f2*sin($f1) / (1 + $f2*$f2 + 2*$f2*cos($f1))
;
#X msg 441 17 1 0 0.5;
#X msg 334 6 999 -0.75 0.5;
#X msg 342 29 999 -0.25 0.5;
#X msg 347 50 999 0.25 0.5;
#X msg 355 74 999 0.75 0.5;
#X msg 334 240 \; add-circle \$2 \$3 \$1 4 -4;
#X connect 0 0 2 0;
#X connect 3 0 0 0;
#X connect 3 1 6 0;
#X connect 3 2 7 0;
#X connect 6 0 0 1;
#X connect 7 0 0 2;
#X connect 8 0 9 0;
#X connect 10 0 8 0;
#X connect 10 1 11 0;
#X connect 10 2 12 0;
#X connect 11 0 15 0;
#X connect 12 0 13 0;
#X connect 13 0 8 2;
#X connect 14 0 13 1;
#X connect 14 0 15 1;
#X connect 15 0 8 1;
#X connect 16 0 15 1;
#X connect 16 0 13 1;
#X connect 17 0 15 1;
#X connect 17 0 13 1;
#X connect 18 0 19 0;
#X connect 20 0 18 2;
#X connect 21 0 18 1;
#X connect 22 0 18 0;
#X connect 22 1 23 0;
#X connect 23 0 24 0;
#X connect 24 0 25 0;
#X connect 24 1 21 1;
#X connect 24 1 20 1;
#X connect 25 0 21 0;
#X connect 25 0 20 0;
#X connect 26 0 29 0;
#X connect 27 0 29 0;
#X connect 28 0 29 0;
#X connect 29 0 25 1;
#X connect 30 0 29 0;
#X connect 31 0 29 0;
#X connect 32 0 29 0;
#X connect 33 0 29 0;
#X connect 34 0 35 0;
#X connect 34 1 36 0;
#X connect 34 2 37 1;
#X connect 34 2 38 1;
#X connect 35 0 4 0;
#X connect 35 0 44 0;
#X connect 36 0 37 0;
#X connect 36 0 38 0;
#X connect 37 0 35 1;
#X connect 38 0 35 2;
#X connect 39 0 34 0;
#X connect 40 0 34 0;
#X connect 41 0 34 0;
#X connect 42 0 34 0;
#X connect 43 0 34 0;
#X restore 156 91 pd put-in-graph;
#N canvas 163 9 395 230 xxx 0;
#X scalar xy-plot 149 128 1 \; 100 0 \; 99.8027 6.27887 \; 99.2115
12.533 \; 98.2288 18.7376 \; 96.8585 24.8683 \; 95.1059 30.9008 \;
92.9781 36.8114 \; 90.4833 42.5768 \; 87.6314 48.1741 \; 84.4337 53.5813
\; 80.9028 58.777 \; 77.0526 63.7408 \; 72.8984 68.4531 \; 68.4565
72.8952 \; 63.7444 77.0497 \; 58.7808 80.9001 \; 53.5852 84.4312 \;
48.1781 87.6292 \; 42.5809 90.4813 \; 36.8157 92.9763 \; 30.9052 95.1045
\; 24.8728 96.8574 \; 18.7421 98.228 \; 12.5375 99.2109 \; 6.2835 99.8024
\; 0.00463287 100 \; -6.27424 99.803 \; -12.5284 99.2121 \; -18.733
98.2297 \; -24.8638 96.8596 \; -30.8964 95.1074 \; -36.8071 92.9798
\; -42.5726 90.4852 \; -48.17 87.6336 \; -53.5774 84.4362 \; -58.7733
80.9055 \; -63.7373 77.0556 \; -68.4497 72.9016 \; -72.892 68.4599
\; -77.0467 63.748 \; -80.8973 58.7845 \; -84.4287 53.5891 \; -87.6269
48.1822 \; -90.4793 42.5851 \; -92.9746 36.82 \; -95.1031 30.9096 \;
-96.8562 24.8772 \; -98.2271 18.7467 \; -99.2104 12.5422 \; -99.8021
6.28811 \; -100 0.00926574 \; -99.8033 -6.26962 \; -99.2127 -12.5238
\; -98.2306 -18.7285 \; -96.8608 -24.8593 \; -95.1088 -30.892 \; -92.9815
-36.8028 \; -90.4872 -42.5684 \; -87.6358 -48.166 \; -84.4387 -53.5734
\; -80.9082 -58.7695 \; -77.0585 -63.7337 \; -72.9047 -68.4463 \; -68.4632
-72.8889 \; -63.7515 -77.0438 \; -58.7883 -80.8946 \; -53.593 -84.4262
\; -48.1862 -87.6247 \; -42.5893 -90.4773 \; -36.8243 -92.9729 \; -30.914
-95.1016 \; -24.8817 -96.855 \; -18.7512 -98.2262 \; -12.5467 -99.2098
\; -6.29271 -99.8018 \; -0.0139225 -100 \; 6.26497 -99.8036 \; 12.5191
-99.2133 \; 18.7239 -98.2314 \; 24.8548 -96.862 \; 30.8876 -95.1102
\; 36.7985 -92.9832 \; 42.5642 -90.4892 \; 48.1619 -87.6381 \; 53.5695
-84.4411 \; 58.7658 -80.911 \; 63.7301 -77.0615 \; 68.4429 -72.9079
\; 72.8857 -68.4666 \; 77.0408 -63.7551 \; 80.8919 -58.792 \; 84.4238
-53.5969 \; 87.6225 -48.1903 \; 90.4754 -42.5935 \; 92.9712 -36.8286
\; 95.1002 -30.9184 \; 96.8539 -24.8863 \; 98.2254 -18.7558 \; 99.2092
-12.5513 \; 99.8015 -6.29736 \; 100 -0.0185315 \; \;;
#X scalar xy-plot 149 128 1 \; 60.0002 -80.0002 \; 58.5294 -78.0007
\; 57.1304 -76.0235 \; 55.7992 -74.0688 \; 54.5324 -72.1365 \; 53.3265
-70.2266 \; 52.1784 -68.3389 \; 51.0851 -66.4731 \; 50.0438 -64.6289
\; 49.0521 -62.8059 \; 48.1073 -61.0038 \; 47.2074 -59.2221 \; 46.3501
-57.4604 \; 45.5334 -55.718 \; 44.7554 -53.9946 \; 44.0144 -52.2896
\; 43.3088 -50.6025 \; 42.6369 -48.9327 \; 41.9974 -47.2796 \; 41.3889
-45.6427 \; 40.8101 -44.0215 \; 40.2597 -42.4154 \; 39.7368 -40.8237
\; 39.2401 -39.2461 \; 38.7688 -37.6818 \; 38.3219 -36.1304 \; 37.8986
-34.5913 \; 37.498 -33.064 \; 37.1193 -31.5478 \; 36.762 -30.0424 \;
36.4252 -28.5471 \; 36.1084 -27.0614 \; 35.8111 -25.5849 \; 35.5326
-24.1169 \; 35.2725 -22.657 \; 35.0303 -21.2047 \; 34.8056 -19.7595
\; 34.598 -18.3209 \; 34.4072 -16.8884 \; 34.2328 -15.4615 \; 34.0746
-14.0397 \; 33.9322 -12.6226 \; 33.8054 -11.2096 \; 33.694 -9.80036
\; 33.5978 -8.39435 \; 33.5167 -6.99111 \; 33.4506 -5.59017 \; 33.3992
-4.19107 \; 33.3626 -2.79336 \; 33.3406 -1.39655 \; 33.3333 -0.000217226
\; 33.3406 1.39612 \; 33.3626 2.79292 \; 33.3992 4.19063 \; 33.4506
5.58974 \; 33.5167 6.99068 \; 33.5978 8.39391 \; 33.694 9.79993 \;
33.8053 11.2092 \; 33.9321 12.6221 \; 34.0745 14.0393 \; 34.2328 15.461
\; 34.4072 16.8879 \; 34.598 18.3205 \; 34.8055 19.7591 \; 35.0302
21.2043 \; 35.2724 22.6566 \; 35.5325 24.1165 \; 35.811 25.5844 \;
36.1083 27.061 \; 36.4251 28.5466 \; 36.7618 30.0419 \; 37.1192 31.5474
\; 37.4979 33.0635 \; 37.8985 34.5908 \; 38.3218 36.1299 \; 38.7687
37.6813 \; 39.24 39.2456 \; 39.7366 40.8232 \; 40.2596 42.4149 \; 40.8099
44.021 \; 41.3887 45.6422 \; 41.9972 47.2791 \; 42.6367 48.9321 \;
43.3086 50.602 \; 44.0142 52.2891 \; 44.7552 53.9941 \; 45.5331 55.7175
\; 46.3498 57.4598 \; 47.2071 59.2216 \; 48.1071 61.0033 \; 49.0518
62.8054 \; 50.0435 64.6283 \; 51.0847 66.4725 \; 52.178 68.3383 \;
53.3261 70.226 \; 54.532 72.1359 \; 55.7988 74.0682 \; 57.13 76.0229
\; 58.529 78.0001 \; 59.9997 79.9996 \; \;;
#X scalar xy-plot 149 128 1 \; 0 -100 \; 0 -96.9071 \; 0 -93.9066 \;
0 -90.9933 \; 0 -88.1622 \; 0 -85.4084 \; 0 -82.7275 \; 0 -80.1154
\; 0 -77.5683 \; 0 -75.0824 \; 0 -72.6545 \; 0 -70.2815 \; 0 -67.9602
\; 0 -65.688 \; 0 -63.4622 \; 0 -61.2804 \; 0 -59.1401 \; 0 -57.0393
\; 0 -54.9757 \; 0 -52.9475 \; 0 -50.9528 \; 0 -48.9897 \; 0 -47.0567
\; 0 -45.152 \; 0 -43.2741 \; 0 -41.4216 \; 0 -39.593 \; 0 -37.7871
\; 0 -36.0025 \; 0 -34.2379 \; 0 -32.4922 \; 0 -30.7643 \; 0 -29.0529
\; 0 -27.3571 \; 0 -25.6759 \; 0 -24.0081 \; 0 -22.3529 \; 0 -20.7092
\; 0 -19.0763 \; 0 -17.453 \; 0 -15.8387 \; 0 -14.2323 \; 0 -12.6332
\; 0 -11.0403 \; 0 -9.45302 \; 0 -7.87041 \; 0 -6.29171 \; 0 -4.71612
\; 0 -3.14287 \; 0 -1.57116 \; 0 -0.000244379 \; 0 1.57068 \; 0 3.14238
\; 0 4.71563 \; 0 6.29122 \; 0 7.86992 \; 0 9.45253 \; 0 11.0398 \;
0 12.6327 \; 0 14.2318 \; 0 15.8382 \; 0 17.4525 \; 0 19.0758 \; 0
20.7087 \; 0 22.3524 \; 0 24.0076 \; 0 25.6754 \; 0 27.3566 \; 0 29.0524
\; 0 30.7637 \; 0 32.4917 \; 0 34.2373 \; 0 36.0019 \; 0 37.7865 \;
0 39.5925 \; 0 41.421 \; 0 43.2735 \; 0 45.1514 \; 0 47.0561 \; 0 48.9892
\; 0 50.9522 \; 0 52.9469 \; 0 54.9751 \; 0 57.0386 \; 0 59.1394 \;
0 61.2797 \; 0 63.4615 \; 0 65.6873 \; 0 67.9595 \; 0 70.2807 \; 0
72.6538 \; 0 75.0817 \; 0 77.5675 \; 0 80.1146 \; 0 82.7267 \; 0 85.4075
\; 0 88.1613 \; 0 90.9925 \; 0 93.9057 \; 0 96.9062 \; 0 99.9994 \;
\;;
#X scalar xy-plot 149 128 1 \; -60.0002 -80.0002 \; -58.5294 -78.0007
\; -57.1304 -76.0235 \; -55.7992 -74.0688 \; -54.5324 -72.1365 \; -53.3265
-70.2266 \; -52.1784 -68.3389 \; -51.0851 -66.4731 \; -50.0438 -64.6289
\; -49.0521 -62.8059 \; -48.1073 -61.0038 \; -47.2074 -59.2221 \; -46.3501
-57.4604 \; -45.5334 -55.718 \; -44.7554 -53.9946 \; -44.0144 -52.2896
\; -43.3088 -50.6025 \; -42.6369 -48.9327 \; -41.9974 -47.2796 \; -41.3889
-45.6427 \; -40.8101 -44.0215 \; -40.2597 -42.4154 \; -39.7368 -40.8237
\; -39.2401 -39.2461 \; -38.7688 -37.6818 \; -38.3219 -36.1304 \; -37.8986
-34.5913 \; -37.498 -33.064 \; -37.1193 -31.5478 \; -36.762 -30.0424
\; -36.4252 -28.5471 \; -36.1084 -27.0614 \; -35.8111 -25.5849 \; -35.5326
-24.1169 \; -35.2725 -22.657 \; -35.0303 -21.2047 \; -34.8056 -19.7595
\; -34.598 -18.3209 \; -34.4072 -16.8884 \; -34.2328 -15.4615 \; -34.0746
-14.0397 \; -33.9322 -12.6226 \; -33.8054 -11.2096 \; -33.694 -9.80036
\; -33.5978 -8.39435 \; -33.5167 -6.99111 \; -33.4506 -5.59017 \; -33.3992
-4.19107 \; -33.3626 -2.79336 \; -33.3406 -1.39655 \; -33.3333 -0.000217226
\; -33.3406 1.39612 \; -33.3626 2.79292 \; -33.3992 4.19063 \; -33.4506
5.58974 \; -33.5167 6.99068 \; -33.5978 8.39391 \; -33.694 9.79993
\; -33.8053 11.2092 \; -33.9321 12.6221 \; -34.0745 14.0393 \; -34.2328
15.461 \; -34.4072 16.8879 \; -34.598 18.3205 \; -34.8055 19.7591 \;
-35.0302 21.2043 \; -35.2724 22.6566 \; -35.5325 24.1165 \; -35.811
25.5844 \; -36.1083 27.061 \; -36.4251 28.5466 \; -36.7618 30.0419
\; -37.1192 31.5474 \; -37.4979 33.0635 \; -37.8985 34.5908 \; -38.3218
36.1299 \; -38.7687 37.6813 \; -39.24 39.2456 \; -39.7366 40.8232 \;
-40.2596 42.4149 \; -40.8099 44.021 \; -41.3887 45.6422 \; -41.9972
47.2791 \; -42.6367 48.9321 \; -43.3086 50.602 \; -44.0142 52.2891
\; -44.7552 53.9941 \; -45.5331 55.7175 \; -46.3498 57.4598 \; -47.2071
59.2216 \; -48.1071 61.0033 \; -49.0518 62.8054 \; -50.0435 64.6283
\; -51.0847 66.4725 \; -52.178 68.3383 \; -53.3261 70.226 \; -54.532
72.1359 \; -55.7988 74.0682 \; -57.13 76.0229 \; -58.529 78.0001 \;
-59.9997 79.9996 \; \;;
#X scalar xy-plot 149 128 1 \; 100 0 \; 96.9083 0 \; 93.9092 0 \; 90.9974
0 \; 88.1675 0 \; 85.415 0 \; 82.7352 0 \; 80.1243 0 \; 77.5782 0 \;
75.0933 0 \; 72.6664 0 \; 70.2943 0 \; 67.9739 0 \; 65.7025 0 \; 63.4776
0 \; 61.2965 0 \; 59.157 0 \; 57.0569 0 \; 54.9941 0 \; 52.9667 0 \;
50.9726 0 \; 49.0102 0 \; 47.0778 0 \; 45.1738 0 \; 43.2966 0 \; 41.4447
0 \; 39.6167 0 \; 37.8114 0 \; 36.0274 0 \; 34.2635 0 \; 32.5184 0
\; 30.791 0 \; 29.0803 0 \; 27.3851 0 \; 25.7045 0 \; 24.0374 0 \;
22.3827 0 \; 20.7397 0 \; 19.1074 0 \; 17.4848 0 \; 15.8711 0 \; 14.2654
0 \; 12.6669 0 \; 11.0748 0 \; 9.48813 0 \; 7.90623 0 \; 6.32824 0
\; 4.75339 0 \; 3.18089 0 \; 1.60995 0 \; 0.0398133 0 \; -1.5303 0
\; -3.10118 0 \; -4.67358 0 \; -6.2483 0 \; -7.82611 0 \; -9.4078 0
\; -10.9942 0 \; -12.586 0 \; -14.1842 0 \; -15.7895 0 \; -17.4028
0 \; -19.0249 0 \; -20.6567 0 \; -22.2991 0 \; -23.9531 0 \; -25.6196
0 \; -27.2996 0 \; -28.994 0 \; -30.7039 0 \; -32.4304 0 \; -34.1745
0 \; -35.9375 0 \; -37.7204 0 \; -39.5247 0 \; -41.3514 0 \; -43.202
0 \; -45.0779 0 \; -46.9806 0 \; -48.9115 0 \; -50.8723 0 \; -52.8647
0 \; -54.8905 0 \; -56.9514 0 \; -59.0496 0 \; -61.187 0 \; -63.3659
0 \; -65.5886 0 \; -67.8575 0 \; -70.1753 0 \; -72.5448 0 \; -74.9689
0 \; -77.4507 0 \; -79.9936 0 \; -82.6012 0 \; -85.2773 0 \; -88.0261
0 \; -90.8519 0 \; -93.7595 0 \; -96.754 0 \; -99.8409 0 \; \;;
#X scalar xy-plot 149 128 1 \; 100 -0 \; 98.7641 -2.86607 \; 97.4622
-5.66217 \; 96.0976 -8.38816 \; 94.6738 -11.044 \; 93.1939 -13.6299
\; 91.661 -16.1459 \; 90.0782 -18.5925 \; 88.4482 -20.9699 \; 86.7736
-23.2786 \; 85.0571 -25.5192 \; 83.3011 -27.6922 \; 81.5079 -29.7981
\; 79.6797 -31.8378 \; 77.8186 -33.8117 \; 75.9267 -35.7207 \; 74.0057
-37.5654 \; 72.0576 -39.3466 \; 70.0839 -41.065 \; 68.0863 -42.7214
\; 66.0664 -44.3166 \; 64.0254 -45.8512 \; 61.965 -47.3261 \; 59.8862
-48.7419 \; 57.7903 -50.0994 \; 55.6784 -51.3993 \; 53.5518 -52.6423
\; 51.4113 -53.8291 \; 49.2579 -54.9603 \; 47.0926 -56.0366 \; 44.9162
-57.0586 \; 42.7295 -58.0269 \; 40.5333 -58.9421 \; 38.3283 -59.8047
\; 36.1153 -60.6152 \; 33.8948 -61.3741 \; 31.6675 -62.082 \; 29.434
-62.7391 \; 27.1949 -63.346 \; 24.9506 -63.9031 \; 22.7017 -64.4106
\; 20.4486 -64.8689 \; 18.1919 -65.2783 \; 15.932 -65.6391 \; 13.6693
-65.9515 \; 11.4043 -66.2156 \; 9.13724 -66.4317 \; 6.86868 -66.5999
\; 4.59897 -66.7203 \; 2.32847 -66.793 \; 0.0575886 -66.818 \; -2.2133
-66.7954 \; -4.48382 -66.7251 \; -6.75358 -66.6072 \; -9.02223 -66.4414
\; -11.2893 -66.2277 \; -13.5545 -65.966 \; -15.8173 -65.6561 \; -18.0774
-65.2978 \; -20.3343 -64.8909 \; -22.5875 -64.435 \; -24.8366 -63.93
\; -27.0812 -63.3755 \; -29.3206 -62.7711 \; -31.5544 -62.1165 \; -33.782
-61.4113 \; -36.0029 -60.6549 \; -38.2163 -59.847 \; -40.4217 -58.9871
\; -42.6183 -58.0746 \; -44.8055 -57.109 \; -46.9824 -56.0897 \; -49.1484
-55.0162 \; -51.3023 -53.8878 \; -53.4435 -52.7038 \; -55.5709 -51.4637
\; -57.6835 -50.1667 \; -59.7802 -48.8121 \; -61.8599 -47.3993 \; -63.9214
-45.9274 \; -65.9633 -44.3959 \; -67.9844 -42.8038 \; -69.9831 -41.1505
\; -71.9581 -39.4353 \; -73.9075 -37.6573 \; -75.8299 -35.8158 \; -77.7234
-33.9101 \; -79.5861 -31.9394 \; -81.416 -29.9032 \; -83.211 -27.8006
\; -84.9689 -25.631 \; -86.6875 -23.3939 \; -88.3643 -21.0886 \; -89.9966
-18.7147 \; -91.5819 -16.2717 \; -93.1174 -13.7592 \; -94.6 -11.1769
\; -96.0268 -8.52454 \; -97.3944 -5.80211 \; -98.6997 -3.00957 \; -99.939
-0.147043 \; \;;
#X scalar xy-plot 149 128 1 \; 100 -0 \; 97.1334 -1.16757 \; 94.3333
-2.27006 \; 91.5968 -3.31176 \; 88.9211 -4.29662 \; 86.3032 -5.22825
\; 83.7408 -6.10998 \; 81.2311 -6.94488 \; 78.7719 -7.73576 \; 76.3608
-8.48525 \; 73.9956 -9.19575 \; 71.6743 -9.86948 \; 69.3947 -10.5085
\; 67.1551 -11.1147 \; 64.9536 -11.6899 \; 62.7884 -12.2357 \; 60.6578
-12.7536 \; 58.5602 -13.2451 \; 56.494 -13.7114 \; 54.4579 -14.1537
\; 52.4502 -14.5733 \; 50.4697 -14.9711 \; 48.5151 -15.3481 \; 46.585
-15.7053 \; 44.6783 -16.0435 \; 42.7937 -16.3634 \; 40.9301 -16.6659
\; 39.0864 -16.9515 \; 37.2615 -17.221 \; 35.4545 -17.4749 \; 33.6642
-17.7138 \; 31.8897 -17.9381 \; 30.1301 -18.1484 \; 28.3845 -18.3451
\; 26.6519 -18.5286 \; 24.9314 -18.6992 \; 23.2223 -18.8574 \; 21.5237
-19.0033 \; 19.8347 -19.1374 \; 18.1546 -19.2599 \; 16.4826 -19.3709
\; 14.8179 -19.4708 \; 13.1597 -19.5597 \; 11.5074 -19.6378 \; 9.86003
-19.7052 \; 8.21701 -19.7621 \; 6.57758 -19.8085 \; 4.94102 -19.8446
\; 3.30661 -19.8704 \; 1.67364 -19.8859 \; 0.0413886 -19.8913 \; -1.59084
-19.8864 \; -3.22376 -19.8714 \; -4.85807 -19.8461 \; -6.49452 -19.8106
\; -8.13379 -19.7647 \; -9.7766 -19.7083 \; -11.4237 -19.6415 \; -13.0758
-19.5639 \; -14.7337 -19.4756 \; -16.398 -19.3763 \; -18.0697 -19.2658
\; -19.7493 -19.1439 \; -21.4378 -19.0104 \; -23.1359 -18.8651 \; -24.8445
-18.7075 \; -26.5643 -18.5375 \; -28.2963 -18.3547 \; -30.0412 -18.1587
\; -31.8001 -17.9491 \; -33.5738 -17.7255 \; -35.3632 -17.4874 \; -37.1694
-17.2343 \; -38.9934 -16.9656 \; -40.8361 -16.6808 \; -42.6986 -16.3792
\; -44.5821 -16.0601 \; -46.4877 -15.7229 \; -48.4166 -15.3667 \; -50.37
-14.9907 \; -52.3491 -14.594 \; -54.3554 -14.1756 \; -56.39 -13.7344
\; -58.4546 -13.2693 \; -60.5506 -12.7792 \; -62.6795 -12.2626 \; -64.8429
-11.7183 \; -67.0426 -11.1446 \; -69.2802 -10.54 \; -71.5576 -9.90271
\; -73.8768 -9.23079 \; -76.2397 -8.52221 \; -78.6485 -7.77475 \; -81.1052
-6.98603 \; -83.6122 -6.15343 \; -86.172 -5.27415 \; -88.7869 -4.34513
\; -91.4597 -3.36305 \; -94.193 -2.32432 \; -96.9898 -1.22501 \; -99.853
-0.0608548 \; \;;
#X scalar xy-plot 149 128 1 \; 100 0 \; 97.1334 1.16757 \; 94.3333
2.27006 \; 91.5968 3.31176 \; 88.9211 4.29662 \; 86.3032 5.22825 \;
83.7408 6.10998 \; 81.2311 6.94488 \; 78.7719 7.73576 \; 76.3608 8.48525
\; 73.9956 9.19575 \; 71.6743 9.86948 \; 69.3947 10.5085 \; 67.1551
11.1147 \; 64.9536 11.6899 \; 62.7884 12.2357 \; 60.6578 12.7536 \;
58.5602 13.2451 \; 56.494 13.7114 \; 54.4579 14.1537 \; 52.4502 14.5733
\; 50.4697 14.9711 \; 48.5151 15.3481 \; 46.585 15.7053 \; 44.6783
16.0435 \; 42.7937 16.3634 \; 40.9301 16.6659 \; 39.0864 16.9515 \;
37.2615 17.221 \; 35.4545 17.4749 \; 33.6642 17.7138 \; 31.8897 17.9381
\; 30.1301 18.1484 \; 28.3845 18.3451 \; 26.6519 18.5286 \; 24.9314
18.6992 \; 23.2223 18.8574 \; 21.5237 19.0033 \; 19.8347 19.1374 \;
18.1546 19.2599 \; 16.4826 19.3709 \; 14.8179 19.4708 \; 13.1597 19.5597
\; 11.5074 19.6378 \; 9.86003 19.7052 \; 8.21701 19.7621 \; 6.57758
19.8085 \; 4.94102 19.8446 \; 3.30661 19.8704 \; 1.67364 19.8859 \;
0.0413886 19.8913 \; -1.59084 19.8864 \; -3.22376 19.8714 \; -4.85807
19.8461 \; -6.49452 19.8106 \; -8.13379 19.7647 \; -9.7766 19.7083
\; -11.4237 19.6415 \; -13.0758 19.5639 \; -14.7337 19.4756 \; -16.398
19.3763 \; -18.0697 19.2658 \; -19.7493 19.1439 \; -21.4378 19.0104
\; -23.1359 18.8651 \; -24.8445 18.7075 \; -26.5643 18.5375 \; -28.2963
18.3547 \; -30.0412 18.1587 \; -31.8001 17.9491 \; -33.5738 17.7255
\; -35.3632 17.4874 \; -37.1694 17.2343 \; -38.9934 16.9656 \; -40.8361
16.6808 \; -42.6986 16.3792 \; -44.5821 16.0601 \; -46.4877 15.7229
\; -48.4166 15.3667 \; -50.37 14.9907 \; -52.3491 14.594 \; -54.3554
14.1756 \; -56.39 13.7344 \; -58.4546 13.2693 \; -60.5506 12.7792 \;
-62.6795 12.2626 \; -64.8429 11.7183 \; -67.0426 11.1446 \; -69.2802
10.54 \; -71.5576 9.90271 \; -73.8768 9.23079 \; -76.2397 8.52221 \;
-78.6485 7.77475 \; -81.1052 6.98603 \; -83.6122 6.15343 \; -86.172
5.27415 \; -88.7869 4.34513 \; -91.4597 3.36305 \; -94.193 2.32432
\; -96.9898 1.22501 \; -99.853 0.0608548 \; \;;
#X scalar xy-plot 149 128 1 \; 100 0 \; 98.7641 2.86607 \; 97.4622
5.66217 \; 96.0976 8.38816 \; 94.6738 11.044 \; 93.1939 13.6299 \;
91.661 16.1459 \; 90.0782 18.5925 \; 88.4482 20.9699 \; 86.7736 23.2786
\; 85.0571 25.5192 \; 83.3011 27.6922 \; 81.5079 29.7981 \; 79.6797
31.8378 \; 77.8186 33.8117 \; 75.9267 35.7207 \; 74.0057 37.5654 \;
72.0576 39.3466 \; 70.0839 41.065 \; 68.0863 42.7214 \; 66.0664 44.3166
\; 64.0254 45.8512 \; 61.965 47.3261 \; 59.8862 48.7419 \; 57.7903
50.0994 \; 55.6784 51.3993 \; 53.5518 52.6423 \; 51.4113 53.8291 \;
49.2579 54.9603 \; 47.0926 56.0366 \; 44.9162 57.0586 \; 42.7295 58.0269
\; 40.5333 58.9421 \; 38.3283 59.8047 \; 36.1153 60.6152 \; 33.8948
61.3741 \; 31.6675 62.082 \; 29.434 62.7391 \; 27.1949 63.346 \; 24.9506
63.9031 \; 22.7017 64.4106 \; 20.4486 64.8689 \; 18.1919 65.2783 \;
15.932 65.6391 \; 13.6693 65.9515 \; 11.4043 66.2156 \; 9.13724 66.4317
\; 6.86868 66.5999 \; 4.59897 66.7203 \; 2.32847 66.793 \; 0.0575886
66.818 \; -2.2133 66.7954 \; -4.48382 66.7251 \; -6.75358 66.6072 \;
-9.02223 66.4414 \; -11.2893 66.2277 \; -13.5545 65.966 \; -15.8173
65.6561 \; -18.0774 65.2978 \; -20.3343 64.8909 \; -22.5875 64.435
\; -24.8366 63.93 \; -27.0812 63.3755 \; -29.3206 62.7711 \; -31.5544
62.1165 \; -33.782 61.4113 \; -36.0029 60.6549 \; -38.2163 59.847 \;
-40.4217 58.9871 \; -42.6183 58.0746 \; -44.8055 57.109 \; -46.9824
56.0897 \; -49.1484 55.0162 \; -51.3023 53.8878 \; -53.4435 52.7038
\; -55.5709 51.4637 \; -57.6835 50.1667 \; -59.7802 48.8121 \; -61.8599
47.3993 \; -63.9214 45.9274 \; -65.9633 44.3959 \; -67.9844 42.8038
\; -69.9831 41.1505 \; -71.9581 39.4353 \; -73.9075 37.6573 \; -75.8299
35.8158 \; -77.7234 33.9101 \; -79.5861 31.9394 \; -81.416 29.9032
\; -83.211 27.8006 \; -84.9689 25.631 \; -86.6875 23.3939 \; -88.3643
21.0886 \; -89.9966 18.7147 \; -91.5819 16.2717 \; -93.1174 13.7592
\; -94.6 11.1769 \; -96.0268 8.52454 \; -97.3944 5.80211 \; -98.6997
3.00957 \; -99.939 0.147043 \; \;;
#X scalar circle 194.937 71.4133 999 4 -4 \;;
#X scalar circle 183.501 110.396 999 4 -4 \;;
#X scalar circle 183.501 145.604 999 4 -4 \;;
#X scalar circle 194.937 184.587 999 4 -4 \;;
#X scalar circle 182.333 128 1 4 -4 \;;
#X scalar xy-curve 315 172 1 \; 0 -2 \; 2 0 \; 4 2 \; 6 0 \; 8 -2 \;
10 0 \; 12 2 \; \;;
#X scalar v-seg 318 165 7 1 \;;
#X scalar v-seg 323 165 5 1 \;;
#X text 214 8 r=0.5;
#X scalar xy-curve 287 178 1 \; 0 -14 \; 0 -14 \; -9 0 \; -9 -18 \;
0 -4 \; \;;
#X text 292 53 = 3;
#X text 327 52 /8;
#X scalar xy-curve 309 140 1 \; 0 -2 \; 2 0 \; 4 2 \; 6 0 \; 8 -2 \;
10 0 \; 12 2 \; \;;
#X scalar v-seg 312 133 7 1 \;;
#X scalar v-seg 317 133 5 1 \;;
#X scalar xy-curve 287 146 1 \; 0 -14 \; 0 -14 \; -9 0 \; -9 -18 \;
0 -4 \; \;;
#X text 321 84 /8;
#X text 292 85 =;
#X scalar xy-curve 315 121 1 \; 0 -2 \; 2 0 \; 4 2 \; 6 0 \; 8 -2 \;
10 0 \; 12 2 \; \;;
#X scalar v-seg 318 114 7 1 \;;
#X scalar v-seg 323 114 5 1 \;;
#X scalar xy-curve 287 127 1 \; 0 -14 \; 0 -14 \; -9 0 \; -9 -18 \;
0 -4 \; \;;
#X text 327 103 /8;
#X text 292 104 = -;
#X scalar xy-curve 322 89 1 \; 0 -2 \; 2 0 \; 4 2 \; 6 0 \; 8 -2 \;
10 0 \; 12 2 \; \;;
#X scalar v-seg 325 82 7 1 \;;
#X scalar v-seg 330 82 5 1 \;;
#X scalar xy-curve 286 95 1 \; 0 -14 \; 0 -14 \; -9 0 \; -9 -18 \;
0 -4 \; \;;
#X text 334 135 /8;
#X text 291 136 = -3;
#X text 145 -16 r=1;
#X text 63 4 r=2;
#X scalar l-arrow 222 170 50 \;;
#X scalar l-arrow 226 138 48 \;;
#X scalar l-arrow 226 118 48 \;;
#X scalar l-arrow 222 87 50 \;;
#X coords 0 230 1 229 0 0 0;
#X restore 44 119 pd xxx;
