#N struct haxis float x float y float w float w-3;
#N struct vaxis float x float y float h float h-3;
#N struct v-seg float x float y float z float w;
#N struct y-plot float x float y float w array z y-point;
#N struct y-point float y;
#N struct xy-curve float x float y float w array z xy-point;
#N struct xy-point float x float y;
#N struct seg float x float y float dx float dy float w;
#N struct l-curve-arrow float x float y float z float z2 float z3 float
h;
#N struct circle2 float x float y float h float h2 float mh float mh2
;
#N struct xy-plot float x float y float w array z xy-point;
#N struct d-curve-arrow float x float y float z float z2 float z3 float
h;
#N struct circle float x float y float color float h float h2;
#N struct u-curve-arrow float x float y float z float z2 float z3 float
h;
#N struct r-curve-arrow float x float y float z float z2 float z3 float
h;
#N struct r-arrow float x float y float z;
#N struct l-arrow float x float y float z;
#N struct u-arrow float x float y float z;
#N struct d-arrow float x float y float z;
#N struct h-seg float x float y float z float w;
#N struct rect float x float y float w float h;
#N struct frame float x float y float w float h;
#N struct thickcircle float x float y float color float h float h2
;
#N canvas 19 359 567 323 10;
#N canvas 519 23 778 557 buildit 0;
#X obj 15 281 pack;
#X msg 15 302 \; y-plot-point \$1 \$2 \;;
#X msg 31 21 \; pd-zzz clear;
#X obj 15 169 scanner 250 50;
#X obj 15 145 r add-pts-09;
#X obj 29 214 * 0.315;
#X obj 183 280 pack;
#X msg 183 301 \; y-plot-point \$1 \$2 \;;
#X obj 183 168 scanner 250 50;
#X obj 197 213 * 0.315;
#X obj 351 282 pack;
#X msg 351 303 \; y-plot-point \$1 \$2 \;;
#X obj 351 170 scanner 250 50;
#X obj 365 215 * 0.315;
#X obj 41 471 pack;
#X msg 41 492 \; y-plot-point \$1 \$2 \;;
#X obj 41 359 scanner 250 50;
#X obj 55 404 * 0.315;
#X obj 29 236 expr 25*cos(1+$f1);
#X obj 197 236 expr 5*cos(2+2*$f1);
#X obj 364 238 expr 10*cos(4+3*$f1);
#X obj 55 427 expr 25*cos(1+$f1) + 5*cos(2+2*$f1) + 10*cos(4+3*$f1)
;
#X msg 173 20 \; start pd-zzz \; add-haxis 50 75 300 297 \; add-vaxis
75 50 50 47 \; add-v-seg 175 73 4 1 \; add-v-seg 275 73 4 1 \; add-y-plot
251 75 75 1 \; add-pts-09 bang;
#X connect 0 0 1 0;
#X connect 3 0 0 0;
#X connect 3 1 5 0;
#X connect 4 0 3 0;
#X connect 5 0 18 0;
#X connect 6 0 7 0;
#X connect 8 0 6 0;
#X connect 8 1 9 0;
#X connect 9 0 19 0;
#X connect 10 0 11 0;
#X connect 12 0 10 0;
#X connect 12 1 13 0;
#X connect 13 0 20 0;
#X connect 14 0 15 0;
#X connect 16 0 14 0;
#X connect 16 1 17 0;
#X connect 17 0 21 0;
#X connect 18 0 0 1;
#X connect 19 0 6 1;
#X connect 20 0 10 1;
#X connect 21 0 14 1;
#X restore 289 55 pd buildit;
#N canvas 50 270 357 302 fig 1;
#X text 7 -1 +;
#X scalar haxis 32 426 300 297 \;;
#X scalar vaxis 57 401 50 47 \;;
#X scalar v-seg 157 424 4 1 \;;
#X scalar v-seg 257 424 4 1 \;;
#X scalar y-plot 57 426 1 \; 13.5076 \; 12.1563 \; 10.7568 \; 9.3147
\; 7.83559 \; 6.3254 \; 4.7901 \; 3.23581 \; 1.66867 \; 0.0949101 \;
-1.47923 \; -3.0475 \; -4.60367 \; -6.14158 \; -7.65512 \; -9.13828
\; -10.5852 \; -11.9901 \; -13.3474 \; -14.6518 \; -15.8981 \; -17.0812
\; -18.1966 \; -19.2398 \; -20.2067 \; -21.0934 \; -21.8964 \; -22.6125
\; -23.2389 \; -23.7731 \; -24.2129 \; -24.5567 \; -24.8031 \; -24.951
\; -25 \; -24.9498 \; -24.8005 \; -24.5529 \; -24.2078 \; -23.7668
\; -23.2314 \; -22.6038 \; -21.8865 \; -21.0824 \; -20.1947 \; -19.2268
\; -18.1827 \; -17.0664 \; -15.8823 \; -14.6353 \; -13.3302 \; -11.9722
\; -10.5667 \; -9.11933 \; -7.63573 \; -6.12183 \; -4.58365 \; -3.02729
\; -1.4589 \; 0.115275 \; 1.68898 \; 3.256 \; 4.8101 \; 6.3451 \; 7.85493
\; 9.33359 \; 10.7752 \; 12.1741 \; 13.5247 \; 14.8216 \; 16.0597 \;
17.2341 \; 18.3401 \; 19.3734 \; 20.3297 \; 21.2054 \; 21.997 \; 22.7013
\; 23.3155 \; 23.8373 \; 24.2644 \; 24.5953 \; 24.8285 \; 24.9633 \;
24.999 \; 24.9356 \; 24.7732 \; 24.5125 \; 24.1545 \; 23.7007 \; 23.1529
\; 22.5132 \; 21.7842 \; 20.9687 \; 20.0701 \; 19.0918 \; 18.0378 \;
16.9122 \; 15.7195 \; 14.4644 \; 13.1519 \; 11.7873 \; 10.3759 \; 8.92331
\; 7.43531 \; 5.91784 \; 4.37688 \; 2.81854 \; 1.24902 \; -0.325441
\; -1.89862 \; -3.46428 \; -5.01617 \; -6.54816 \; -8.05417 \; -9.52825
\; -10.9645 \; -12.3573 \; -13.701 \; -14.9903 \; -16.2202 \; -17.3858
\; -18.4823 \; -19.5055 \; -20.4513 \; -21.316 \; -22.0961 \; -22.7886
\; -23.3906 \; -23.8998 \; -24.3141 \; -24.6321 \; -24.8522 \; -24.9738
\; -24.9963 \; -24.9196 \; -24.744 \; -24.4703 \; -24.0995 \; -23.633
\; -23.0728 \; -22.421 \; -21.6803 \; -20.8535 \; -19.9441 \; -18.9554
\; -17.8916 \; -16.7568 \; -15.5555 \; -14.2925 \; -12.9727 \; -11.6015
\; -10.1843 \; -8.72668 \; -7.23439 \; -5.71341 \; -4.16978 \; -2.60958
\; -1.03905 \; 0.535583 \; 2.10813 \; 3.67232 \; 5.22191 \; 6.75081
\; 8.25288 \; 9.72222 \; 11.153 \; 12.5395 \; 13.8763 \; 15.158 \;
16.3796 \; 17.5362 \; 18.6232 \; 19.6363 \; 20.5715 \; 21.4251 \; 22.1937
\; 22.8742 \; 23.4639 \; 23.9606 \; 24.3622 \; 24.6671 \; 24.8742 \;
24.9825 \; 24.9918 \; 24.9019 \; 24.7132 \; 24.4264 \; 24.0427 \; 23.5636
\; 22.991 \; 22.3272 \; 21.5749 \; 20.7369 \; 19.8166 \; 18.8177 \;
17.7442 \; 16.6002 \; 15.3904 \; 14.1195 \; 12.7926 \; 11.4149 \; 9.99196
\; 8.52939 \; 7.03296 \; 5.5086 \; 3.9624 \; 2.40046 \; 0.828995 \;
-0.745735 \; -2.31748 \; -3.88008 \; -5.42724 \; -6.95291 \; -8.45098
\; -9.91553 \; -11.3407 \; -12.7209 \; -14.0506 \; -15.3246 \; -16.5378
\; -17.6854 \; -18.7627 \; -19.7657 \; -20.6902 \; -21.5326 \; -22.2896
\; -22.9582 \; -23.5356 \; -24.0197 \; -24.4085 \; -24.7004 \; -24.8944
\; -24.9895 \; -24.9855 \; -24.8824 \; -24.6805 \; -24.3808 \; -23.9842
\; -23.4926 \; -22.9077 \; -22.2319 \; -21.4679 \; -20.6188 \; -19.6878
\; -18.6787 \; -17.5955 \; -16.4425 \; -15.2242 \; -13.9456 \; -12.6116
\; \;;
#X scalar haxis 32 361 300 297 \;;
#X scalar vaxis 57 336 50 47 \;;
#X scalar v-seg 157 359 4 1 \;;
#X scalar v-seg 257 359 4 1 \;;
#X scalar y-plot 57 361 1 \; -2.08073 \; -2.63558 \; -3.14864 \; -3.61178
\; -4.01766 \; -4.35983 \; -4.63288 \; -4.83247 \; -4.95545 \; -4.99986
\; -4.96499 \; -4.8514 \; -4.6609 \; -4.3965 \; -4.06239 \; -3.66387
\; -3.20726 \; -2.6998 \; -2.14953 \; -1.56518 \; -0.956022 \; -0.331702
\; 0.29788 \; 0.922734 \; 1.53296 \; 2.11888 \; 2.67121 \; 3.18119
\; 3.64072 \; 4.04254 \; 4.38025 \; 4.64853 \; 4.84309 \; 4.96087 \;
5 \; 4.95985 \; 4.84106 \; 4.64552 \; 4.37632 \; 4.03774 \; 3.63513
\; 3.1749 \; 2.66432 \; 2.1115 \; 1.52521 \; 0.914727 \; 0.289746 \;
-0.339829 \; -0.964019 \; -1.57292 \; -2.15689 \; -2.70665 \; -3.2135
\; -3.6694 \; -4.06713 \; -4.40037 \; -4.66384 \; -4.85337 \; -4.96595
\; -4.99979 \; -4.95436 \; -4.83038 \; -4.62981 \; -4.35584 \; -4.0128
\; -3.60614 \; -3.14231 \; -2.62865 \; -2.07332 \; -1.48512 \; -0.87337
\; -0.247769 \; 0.381754 \; 1.00523 \; 1.61277 \; 2.19474 \; 2.7419
\; 3.24559 \; 3.69783 \; 4.09144 \; 4.42018 \; 4.67883 \; 4.8633 \;
4.97067 \; 4.99922 \; 4.94851 \; 4.81935 \; 4.61377 \; 4.33504 \; 3.98758
\; 3.5769 \; 3.1095 \; 2.5928 \; 2.035 \; 1.44493 \; 0.831946 \; 0.205773
\; -0.423662 \; -1.04638 \; -1.65249 \; -2.23243 \; -2.77696 \; -3.27745
\; -3.72599 \; -4.11546 \; -4.43967 \; -4.69349 \; -4.87289 \; -4.97504
\; -4.99831 \; -4.94232 \; -4.80798 \; -4.59741 \; -4.31395 \; -3.96208
\; -3.5474 \; -3.07648 \; -2.55677 \; -1.99653 \; -1.40464 \; -0.790473
\; -0.163767 \; 0.465526 \; 1.08745 \; 1.69212 \; 2.26996 \; 2.81181
\; 3.30909 \; 3.7539 \; 4.13918 \; 4.45884 \; 4.70781 \; 4.88214 \;
4.97906 \; 4.99703 \; 4.93578 \; 4.79627 \; 4.58072 \; 4.29254 \; 3.9363
\; 3.51765 \; 3.04322 \; 2.52055 \; 1.95791 \; 1.36424 \; 0.74893 \;
0.12175 \; -0.507361 \; -1.12844 \; -1.73161 \; -2.30734 \; -2.84647
\; -3.34048 \; -3.78152 \; -4.16262 \; -4.47771 \; -4.72181 \; -4.89104
\; -4.98273 \; -4.99541 \; -4.92889 \; -4.78422 \; -4.56371 \; -4.27082
\; -3.91024 \; -3.48765 \; -3.00977 \; -2.48417 \; -1.91917 \; -1.32376
\; -0.707343 \; -0.0797235 \; 0.54917 \; 1.16934 \; 1.77098 \; 2.34454
\; 2.88093 \; 3.37164 \; 3.8089 \; 4.18576 \; 4.49626 \; 4.73546 \;
4.89959 \; 4.98604 \; 4.99343 \; 4.92165 \; 4.77184 \; 4.54637 \; 4.24882
\; 3.88391 \; 3.4574 \; 2.97609 \; 2.44759 \; 1.88028 \; 1.28316 \;
0.665707 \; 0.0376822 \; -0.590921 \; -1.21016 \; -1.81023 \; -2.38159
\; -2.91519 \; -3.40257 \; -3.83599 \; -4.2086 \; -4.51449 \; -4.74879
\; -4.9078 \; -4.989 \; -4.9911 \; -4.91407 \; -4.75912 \; -4.52872
\; -4.22651 \; -3.8573 \; -3.42692 \; -2.94221 \; -2.41086 \; -1.84128
\; -1.2425 \; -0.624023 \; 0.00435231 \; 0.632649 \; 1.25092 \; 1.84936
\; 2.41847 \; 2.94924 \; 3.43325 \; 3.86282 \; 4.23115 \; 4.53239 \;
4.76178 \; 4.91566 \; 4.99161 \; 4.98842 \; 4.90613 \; 4.74606 \; 4.51074
\; 4.2039 \; 3.83041 \; 3.39619 \; 2.90811 \; 2.37394 \; 1.80214 \;
1.20174 \; 0.582295 \; -0.046396 \; -0.674314 \; -1.29158 \; -1.88835
\; -2.45517 \; \;;
#X scalar haxis 32 294 300 297 \;;
#X scalar vaxis 57 269 50 47 \;;
#X scalar v-seg 157 292 4 1 \;;
#X scalar v-seg 257 292 4 1 \;;
#X scalar y-plot 57 294 1 \; -6.53644 \; -4.99818 \; -3.28192 \; -1.44877
\; 0.435972 \; 2.30519 \; 4.09231 \; 5.73368 \; 7.17085 \; 8.35263
\; 9.23693 \; 9.79226 \; 9.99885 \; 9.84932 \; 9.34902 \; 8.51575 \;
7.37919 \; 5.97983 \; 4.36749 \; 2.59961 \; 0.739144 \; -1.14765 \;
-2.99357 \; -4.73287 \; -6.30361 \; -7.64985 \; -8.72365 \; -9.48675
\; -9.91198 \; -9.9842 \; -9.70083 \; -9.07198 \; -8.12002 \; -6.87888
\; -5.39274 \; -3.71454 \; -1.90405 \; -0.0257425 \; 1.85348 \; 3.66669
\; 5.3493 \; 6.84141 \; 8.08986 \; 9.0502 \; 9.68821 \; 9.98117 \;
9.91866 \; 9.5029 \; 8.7487 \; 7.68291 \; 6.34349 \; 4.77816 \; 3.04264
\; 1.19879 \; -0.687781 \; -2.54985 \; -4.32112 \; -5.93848 \; -7.34434
\; -8.48864 \; -9.33062 \; -9.84029 \; -9.9995 \; -9.80257 \; -9.25653
\; -8.38083 \; -7.20665 \; -5.77579 \; -4.13924 \; -2.35527 \; -0.487407
\; 1.39782 \; 3.23324 \; 4.95353 \; 6.49739 \; 7.80985 \; 8.84416 \;
9.56349 \; 9.94221 \; 9.96685 \; 9.63653 \; 8.96299 \; 7.97025 \; 6.69365
\; 5.17865 \; 3.4792 \; 1.65584 \; -0.226466 \; -2.10071 \; -3.90016
\; -5.56068 \; -7.02317 \; -8.23554 \; -9.15459 \; -9.74761 \; -9.99347
\; -9.88341 \; -9.42135 \; -8.62376 \; -7.51905 \; -6.14651 \; -4.55509
\; -2.80145 \; -0.948033 \; 0.939185 \; 2.7929 \; 4.54716 \; 6.1395
\; 7.51316 \; 8.61924 \; 9.41837 \; 9.88205 \; 9.99378 \; 9.74959 \;
9.15817 \; 8.24058 \; 7.02951 \; 5.56808 \; 3.90834 \; 2.1094 \; 0.235351
\; -1.64708 \; -3.47085 \; -5.17102 \; -6.68702 \; -7.96487 \; -8.95905
\; -9.63415 \; -9.96613 \; -9.94316 \; -9.56608 \; -8.84831 \; -7.8154
\; -6.50415 \; -4.96125 \; -3.24167 \; -1.40664 \; 0.478493 \; 2.34658
\; 4.13113 \; 5.76851 \; 7.20048 \; 8.37598 \; 9.25318 \; 9.80081 \;
9.9994 \; 9.84187 \; 9.33382 \; 8.49334 \; 7.35039 \; 5.94562 \; 4.32916
\; 2.55846 \; 0.696704 \; -1.18994 \; -3.03419 \; -4.77035 \; -6.33665
\; -7.67721 \; -8.74438 \; -9.50012 \; -9.91753 \; -9.98172 \; -9.6904
\; -9.05398 \; -8.09511 \; -6.84792 \; -5.35686 \; -3.67497 \; -1.86224
\; 0.0168555 \; 1.89531 \; 3.7063 \; 5.38523 \; 6.87242 \; 8.11481
\; 9.06823 \; 9.69867 \; 9.9837 \; 9.91316 \; 9.48956 \; 8.72801 \;
7.65559 \; 6.31053 \; 4.7407 \; 3.00205 \; 1.15649 \; -0.730291 \;
-2.59099 \; -4.35949 \; -5.97269 \; -7.37318 \; -8.51109 \; -9.34586
\; -9.84779 \; -9.99898 \; -9.79406 \; -9.24035 \; -8.35754 \; -7.17705
\; -5.74094 \; -4.10044 \; -2.31383 \; -0.444894 \; 1.43997 \; 3.2735
\; 4.99046 \; 6.52971 \; 7.8364 \; 8.86397 \; 9.57584 \; 9.9467 \;
9.9633 \; 9.62506 \; 8.94403 \; 7.94444 \; 6.66196 \; 5.14216 \; 3.43929
\; 1.61386 \; -0.269013 \; -2.14234 \; -3.93933 \; -5.59606 \; -7.05344
\; -8.25963 \; -9.17165 \; -9.75703 \; -9.99492 \; -9.87684 \; -9.40699
\; -8.60212 \; -7.49089 \; -6.11291 \; -4.51716 \; -2.76053 \; -0.905618
\; 0.981586 \; 2.83379 \; 4.58504 \; 6.17307 \; 7.54123 \; 8.64077
\; 9.43259 \; 9.88848 \; 9.99219 \; 9.74003 \; 9.14099 \; 8.21639 \;
6.99917 \; 5.53265 \; \;;
#X text 8 -68 +;
#X text 6 87 =;
#X scalar haxis 32 206 300 297 \;;
#X scalar vaxis 57 181 50 47 \;;
#X scalar v-seg 157 204 4 1 \;;
#X scalar v-seg 257 204 4 1 \;;
#X scalar y-plot 57 206 1 \; 4.89039 \; 4.52256 \; 4.32629 \; 4.25415
\; 4.25391 \; 4.27076 \; 4.24953 \; 4.13701 \; 3.88407 \; 3.44769 \;
2.79272 \; 1.89336 \; 0.734279 \; -0.688751 \; -2.36849 \; -4.28641
\; -6.41326 \; -8.71008 \; -11.1295 \; -13.6174 \; -16.1149 \; -18.5606
\; -20.8923 \; -23.05 \; -24.9773 \; -26.6243 \; -27.9488 \; -28.918
\; -29.5101 \; -29.7147 \; -29.5335 \; -28.9802 \; -28.08 \; -26.869
\; -25.3927 \; -23.7044 \; -21.8635 \; -19.9331 \; -17.9781 \; -16.0623
\; -14.2469 \; -12.5875 \; -11.1323 \; -9.92073 \; -8.98127 \; -8.33091
\; -7.97425 \; -7.90328 \; -8.09767 \; -8.52533 \; -9.14361 \; -9.90072
\; -10.7376 \; -11.5899 \; -12.3906 \; -13.0721 \; -13.5686 \; -13.8191
\; -13.7692 \; -13.3732 \; -12.596 \; -11.4147 \; -9.81921 \; -7.81331
\; -5.4144 \; -2.65338 \; 0.426276 \; 3.76968 \; 7.31213 \; 10.9812
\; 14.6989 \; 18.3842 \; 21.9551 \; 25.3321 \; 28.4399 \; 31.21 \;
33.5831 \; 35.5104 \; 36.9556 \; 37.8956 \; 38.3211 \; 38.2371 \; 37.6621
\; 36.6276 \; 35.1769 \; 33.3633 \; 31.2483 \; 28.8998 \; 26.3888 \;
23.7881 \; 21.1691 \; 18.5995 \; 16.1414 \; 13.8491 \; 11.7674 \; 9.93027
\; 8.36013 \; 7.06715 \; 6.04933 \; 5.29287 \; 4.773 \; 4.45524 \;
4.29699 \; 4.24928 \; 4.25903 \; 4.27107 \; 4.23056 \; 4.08515 \; 3.78714
\; 3.2955 \; 2.57742 \; 1.60979 \; 0.380205 \; -1.11252 \; -2.85809
\; -4.83507 \; -7.01147 \; -9.34595 \; -11.7892 \; -14.2856 \; -16.7753
\; -19.1966 \; -21.4876 \; -23.5891 \; -25.4462 \; -27.0109 \; -28.2433
\; -29.1136 \; -29.6028 \; -29.7038 \; -29.4214 \; -28.7726 \; -27.7855
\; -26.4989 \; -24.9605 \; -23.2255 \; -21.3544 \; -19.4111 \; -17.4603
\; -15.5656 \; -13.7866 \; -12.1773 \; -10.7838 \; -9.64244 \; -8.779
\; -8.20709 \; -7.92798 \; -7.93033 \; -8.19057 \; -8.67368 \; -9.33443
\; -10.1188 \; -10.9663 \; -11.8115 \; -12.5869 \; -13.2253 \; -13.6619
\; -13.8373 \; -13.699 \; -13.2042 \; -12.3209 \; -11.0294 \; -9.32351
\; -7.21041 \; -4.71135 \; -1.86054 \; 1.29529 \; 4.69848 \; 8.28215
\; 11.972 \; 15.6891 \; 19.3518 \; 22.8787 \; 26.1908 \; 29.2149 \;
31.8844 \; 34.1428 \; 35.9445 \; 37.2565 \; 38.0595 \; 38.348 \; 38.1306
\; 37.4294 \; 36.2791 \; 34.7259 \; 32.8256 \; 30.6415 \; 28.2425 \;
25.7005 \; 23.088 \; 20.4758 \; 17.9302 \; 15.5113 \; 13.2713 \; 11.252
\; 9.48445 \; 7.98778 \; 6.76896 \; 5.82271 \; 5.13223 \; 4.67005 \;
4.39931 \; 4.27556 \; 4.24851 \; 4.26432 \; 4.26761 \; 4.20407 \; 4.02236
\; 3.67639 \; 3.12713 \; 2.34429 \; 1.3075 \; 0.00733757 \; -1.55437
\; -3.36424 \; -5.39801 \; -7.62097 \; -9.98961 \; -12.4526 \; -14.9533
\; -17.4308 \; -19.8233 \; -22.0694 \; -24.1108 \; -25.8943 \; -27.3738
\; -28.512 \; -29.282 \; -29.6677 \; -29.6654 \; -29.2831 \; -28.5408
\; -27.4696 \; -26.1108 \; -24.5143 \; -22.7368 \; -20.8401 \; -18.8884
\; -16.9465 \; -15.0771 \; -13.3384 \; -11.7826 \; -10.4532 \; -9.38404
\; -8.59756 \; -8.1042 \; -7.90182 \; -7.97581 \; -8.29939 \; -8.83472
\; -9.53409 \; \;;
#X coords 0 302 1 301 0 0 0;
#X restore 51 61 pd fig;
#X obj 289 81 templates;
#N canvas 543 675 389 190 zzz 0;
#X scalar haxis 50 75 300 297 \;;
#X scalar vaxis 75 50 50 47 \;;
#X scalar v-seg 175 73 4 1 \;;
#X scalar v-seg 275 73 4 1 \;;
#X scalar y-plot 75 75 1 \; 4.89039 \; 4.52256 \; 4.32629 \; 4.25415
\; 4.25391 \; 4.27076 \; 4.24953 \; 4.13701 \; 3.88407 \; 3.44769 \;
2.79272 \; 1.89336 \; 0.734279 \; -0.688751 \; -2.36849 \; -4.28641
\; -6.41326 \; -8.71008 \; -11.1295 \; -13.6174 \; -16.1149 \; -18.5606
\; -20.8923 \; -23.05 \; -24.9773 \; -26.6243 \; -27.9488 \; -28.918
\; -29.5101 \; -29.7147 \; -29.5335 \; -28.9802 \; -28.08 \; -26.869
\; -25.3927 \; -23.7044 \; -21.8635 \; -19.9331 \; -17.9781 \; -16.0623
\; -14.2469 \; -12.5875 \; -11.1323 \; -9.92073 \; -8.98127 \; -8.33091
\; -7.97425 \; -7.90328 \; -8.09767 \; -8.52533 \; -9.14361 \; -9.90072
\; -10.7376 \; -11.5899 \; -12.3906 \; -13.0721 \; -13.5686 \; -13.8191
\; -13.7692 \; -13.3732 \; -12.596 \; -11.4147 \; -9.81921 \; -7.81331
\; -5.4144 \; -2.65338 \; 0.426276 \; 3.76968 \; 7.31213 \; 10.9812
\; 14.6989 \; 18.3842 \; 21.9551 \; 25.3321 \; 28.4399 \; 31.21 \;
33.5831 \; 35.5104 \; 36.9556 \; 37.8956 \; 38.3211 \; 38.2371 \; 37.6621
\; 36.6276 \; 35.1769 \; 33.3633 \; 31.2483 \; 28.8998 \; 26.3888 \;
23.7881 \; 21.1691 \; 18.5995 \; 16.1414 \; 13.8491 \; 11.7674 \; 9.93027
\; 8.36013 \; 7.06715 \; 6.04933 \; 5.29287 \; 4.773 \; 4.45524 \;
4.29699 \; 4.24928 \; 4.25903 \; 4.27107 \; 4.23056 \; 4.08515 \; 3.78714
\; 3.2955 \; 2.57742 \; 1.60979 \; 0.380205 \; -1.11252 \; -2.85809
\; -4.83507 \; -7.01147 \; -9.34595 \; -11.7892 \; -14.2856 \; -16.7753
\; -19.1966 \; -21.4876 \; -23.5891 \; -25.4462 \; -27.0109 \; -28.2433
\; -29.1136 \; -29.6028 \; -29.7038 \; -29.4214 \; -28.7726 \; -27.7855
\; -26.4989 \; -24.9605 \; -23.2255 \; -21.3544 \; -19.4111 \; -17.4603
\; -15.5656 \; -13.7866 \; -12.1773 \; -10.7838 \; -9.64244 \; -8.779
\; -8.20709 \; -7.92798 \; -7.93033 \; -8.19057 \; -8.67368 \; -9.33443
\; -10.1188 \; -10.9663 \; -11.8115 \; -12.5869 \; -13.2253 \; -13.6619
\; -13.8373 \; -13.699 \; -13.2042 \; -12.3209 \; -11.0294 \; -9.32351
\; -7.21041 \; -4.71135 \; -1.86054 \; 1.29529 \; 4.69848 \; 8.28215
\; 11.972 \; 15.6891 \; 19.3518 \; 22.8787 \; 26.1908 \; 29.2149 \;
31.8844 \; 34.1428 \; 35.9445 \; 37.2565 \; 38.0595 \; 38.348 \; 38.1306
\; 37.4294 \; 36.2791 \; 34.7259 \; 32.8256 \; 30.6415 \; 28.2425 \;
25.7005 \; 23.088 \; 20.4758 \; 17.9302 \; 15.5113 \; 13.2713 \; 11.252
\; 9.48445 \; 7.98778 \; 6.76896 \; 5.82271 \; 5.13223 \; 4.67005 \;
4.39931 \; 4.27556 \; 4.24851 \; 4.26432 \; 4.26761 \; 4.20407 \; 4.02236
\; 3.67639 \; 3.12713 \; 2.34429 \; 1.3075 \; 0.00733757 \; -1.55437
\; -3.36424 \; -5.39801 \; -7.62097 \; -9.98961 \; -12.4526 \; -14.9533
\; -17.4308 \; -19.8233 \; -22.0694 \; -24.1108 \; -25.8943 \; -27.3738
\; -28.512 \; -29.282 \; -29.6677 \; -29.6654 \; -29.2831 \; -28.5408
\; -27.4696 \; -26.1108 \; -24.5143 \; -22.7368 \; -20.8401 \; -18.8884
\; -16.9465 \; -15.0771 \; -13.3384 \; -11.7826 \; -10.4532 \; -9.38404
\; -8.59756 \; -8.1042 \; -7.90182 \; -7.97581 \; -8.29939 \; -8.83472
\; -9.53409 \; \;;
#X coords 0 190 1 189 0 0 0;
#X restore 54 113 pd zzz;
