#N struct haxis float x float y float w float w-3;
#N struct y-plot float x float y float w array z y-point;
#N struct y-point float y;
#N struct h-seg float x float y float z float w;
#N struct v-seg float x float y float z float w;
#N struct d-curve-arrow float x float y float z float z2 float z3 float
h;
#N struct l-arrow float x float y float z;
#N struct d-arrow float x float y float z;
#N struct frame float x float y float w float h;
#N struct xy-plot float x float y float w array z xy-point;
#N struct xy-point float x float y;
#N struct times float x float y;
#N struct xy-curve float x float y float w array z xy-point;
#N struct seg float x float y float dx float dy float w;
#N struct l-curve-arrow float x float y float z float z2 float z3 float
h;
#N struct circle2 float x float y float h float h2 float mh float mh2
;
#N struct vaxis float x float y float h float h-3;
#N struct circle float x float y float color float h float h2;
#N struct u-curve-arrow float x float y float z float z2 float z3 float
h;
#N struct r-curve-arrow float x float y float z float z2 float z3 float
h;
#N struct r-arrow float x float y float z;
#N struct u-arrow float x float y float z;
#N struct rect float x float y float w float h;
#N struct thickcircle float x float y float color float h float h2
;
#N struct plus float x float y;
#N struct minus float x float y;
#N struct divide float x float y;
#N canvas 144 404 329 179 10;
#N canvas 159 25 354 543 fig 1;
#X scalar haxis 18 496 320 317 \;;
#X scalar y-plot 28 496 1 \; 3.32229 \; -1.36012 \; -4.72159 \; -6.32052
\; -6.35073 \; -5.51582 \; -4.7252 \; -4.72411 \; -5.79326 \; -7.6279
\; -9.44102 \; -10.2542 \; -9.27181 \; -6.2021 \; -1.40914 \; 4.16354
\; 9.27343 \; 12.768 \; 13.9468 \; 12.7718 \; 9.85226 \; 6.21352 \;
2.93166 \; 0.765523 \; -0.0839262 \; -0.00330865 \; 0.222132 \; -0.25514
\; -1.98568 \; -4.97326 \; -8.62766 \; -11.9405 \; -13.8238 \; -13.4913
\; -10.7484 \; -6.08419 \; -0.53316 \; 4.64809 \; 8.37629 \; 10.0722
\; 9.81198 \; 8.24996 \; 6.34338 \; 4.98099 \; 4.65018 \; 5.26278 \;
6.20174 \; 6.57096 \; 5.55675 \; 2.76878 \; -1.56502 \; -6.62333 \;
-11.2315 \; -14.2347 \; -14.8742 \; -13.0356 \; -9.28142 \; -4.65654
\; -0.337102 \; 2.75483 \; 4.23508 \; 4.34157 \; 3.79291 \; 3.47577
\; 4.07735 \; 5.79749 \; 8.24674 \; 10.569 \; 11.7459 \; 10.9748 \;
7.98358 \; 3.16817 \; -2.49921 \; -7.76268 \; -11.4745 \; -12.9516
\; -12.1722 \; -9.74607 \; -6.67276 \; -3.9743 \; -2.33561 \; -1.88049
\; -2.16117 \; -2.36334 \; -1.64967 \; 0.48458 \; 3.97542 \; 8.16143
\; 11.9771 \; 14.3018 \; 14.3425 \; 11.9142 \; 7.51885 \; 2.19257 \;
-2.82498 \; -6.48488 \; -8.24901 \; -8.22562 \; -7.07642 \; -5.73187
\; -5.02053 \; -5.34732 \; -6.53772 \; -7.90444 \; -8.51216 \; -7.54489
\; -4.64136 \; -0.0763872 \; 5.2813 \; 10.2234 \; 13.5817 \; 14.6018
\; 13.1796 \; 9.87955 \; 5.72869 \; 1.8608 \; -0.862826 \; -2.12305
\; -2.20862 \; -1.85872 \; -1.94217 \; -3.09198 \; -5.4307 \; -8.48704
\; -11.3378 \; -12.925 \; -12.4371 \; -9.61673 \; -4.8848 \; 0.767066
\; 6.07927 \; 9.91833 \; 11.6258 \; 11.201 \; 9.25626 \; 6.76448 \;
4.69075 \; 3.64214 \; 3.66056 \; 4.23226 \; 4.50882 \; 3.6577 \; 1.21365
\; -2.69809 \; -7.35199 \; -11.6315 \; -14.3881 \; -14.8237 \; -12.762
\; -8.71298 \; -3.70745 \; 1.04073 \; 4.52609 \; 6.26013 \; 6.38989
\; 5.58917 \; 4.76477 \; 4.6866 \; 5.6777 \; 7.47708 \; 9.32603 \;
10.2479 \; 9.42007 \; 6.50477 \; 1.81579 \; -3.73976 \; -8.92887 \;
-12.5784 \; -13.9436 \; -12.9335 \; -10.1139 \; -6.49028 \; -3.14867
\; -0.882802 \; 0.059988 \; 0.0257356 \; -0.219941 \; 0.178806 \; 1.80613
\; 4.71189 \; 8.34752 \; 11.726 \; 13.7515 \; 13.603 \; 11.0347 \;
6.48555 \; 0.958228 \; -4.29371 \; -8.16066 \; -10.0169 \; -9.8885
\; -8.39351 \; -6.47881 \; -5.05122 \; -4.63749 \; -5.19437 \; -6.13857
\; -6.58308 \; -5.69484 \; -3.04196 \; 1.19656 \; 6.23862 \; 10.9244
\; 14.0832 \; 14.9155 \; 13.2536 \; 9.6126 \; 5.01189 \; 0.631434 \;
-2.57525 \; -4.17727 \; -4.36748 \; -3.8374 \; -3.47387 \; -3.9912
\; -5.63267 \; -8.05216 \; -10.4201 \; -11.7173 \; -11.112 \; -8.28417
\; -3.57931 \; 2.06603 \; 7.40444 \; 11.2659 \; 12.9225 \; 12.3002
\; 9.9671 \; 6.90508 \; 4.14787 \; 2.41653 \; 1.88061 \; 2.13126 \;
2.37079 \; 1.75061 \; -0.269931 \; -3.67395 \; -7.84124 \; -11.7262
\; -14.1984 \; -14.4281 \; -12.1783 \; -7.90123 \; -2.60241 \; 2.48026
\; 6.27014 \; 8.18287 \; 8.27779 \; 7.18277 \; 5.82048 \; 5.03988 \;
5.28635 \; 6.42996 \; 7.8151 \; 8.51306 \; 7.68559 \; 4.92808 \; 0.465376
\; -4.87227 \; -9.89 \; -13.4025 \; -14.6131 \; -13.3645 \; -10.1751
\; -6.04803 \; -2.1229 \; 0.706823 \; 2.07543 \; 2.22847 \; 1.88052
\; 1.90368 \; 2.96061 \; 5.21826 \; 8.24842 \; 11.1526 \; 12.8698 \;
12.557 \; 9.90782 \; 5.2922 \; -0.332931 \; -5.71473 \; -9.69666 \;
-11.5749 \; -11.2975 \; -9.43667 \; -6.95011 \; -4.81702 \; -3.68124
\; -3.63045 \; -4.18756 \; -4.51831 \; -3.77581 \; -1.45666 \; 2.36224
\; 6.99588 \; 11.3462 \; 14.2532 \; 14.8804 \; 12.999 \; 9.06968 \;
4.09421 \; \;;
#X scalar h-seg 99 419 75 1 \;;
#X scalar y-plot 99 419 1 \; -12.9612 \; -12.1032 \; -9.63057 \; -6.55232
\; -3.88502 \; -2.29522 \; -1.88228 \; -2.17744 \; -2.35683 \; -1.58916
\; 0.610447 \; 4.15103 \; 8.34706 \; 12.1209 \; 14.357 \; 14.2839 \;
11.7476 \; 7.2805 \; 1.93827 \; -3.03787 \; -6.61563 \; -8.28591 \;
-8.18813 \; -7.00601 \; -5.67527 \; -5.01109 \; -5.39156 \; -6.61204
\; -7.96348 \; -8.50604 \; -7.439 \; -4.43178 \; 0.205306 \; 5.57562
\; 10.4609 \; 13.7049 \; 14.5841 \; 13.0337 \; 9.65254 \; 5.48601 \;
1.66362 \; -0.97795 \; -2.15538 \; -2.19109 \; -1.84322 \; -1.9777
\; -3.20372 \; -5.60752 \; -8.68287 \; -11.486 \; -12.9619 \; -12.3251
\; -9.36027 \; -4.53122 \; 1.14056 \; 6.38948 \; 10.1024 \; 11.6602
\; 11.1075 \; 9.0917 \; 6.5989 \; 4.58118 \; 3.61191 \; 3.69139 \;
4.27228 \; 4.49378 \; 3.53741 \; 0.974402 \; -3.02407 \; -7.69348 \;
-11.9 \; -14.5067 \; -14.7535 \; -12.5155 \; -8.35136 \; -3.32054 \;
\;;
#X scalar h-seg 104 465 75 1 \;;
#X scalar v-seg 104 465 30 1 \;;
#X scalar v-seg 179 465 30 1 \;;
#X text 224 64 ...;
#X scalar d-curve-arrow 88 397 33 55 67 23 \;;
#X scalar d-curve-arrow 236 396 43 41 62 -100 \;;
#X scalar y-plot 248 421 1 \; -1.77803 \; -5.81561 \; -8.0218 \; -8.35914
\; -7.38496 \; -6.00202 \; -5.09485 \; -5.1845 \; -6.22778 \; -7.63349
\; -8.48996 \; -7.92128 \; -5.44254 \; -1.18414 \; 4.09944 \; 9.24248
\; 13.0319 \; 14.5951 \; 13.6763 \; 10.7056 \; 6.63812 \; 2.61981 \;
-0.399609 \; -1.97019 \; -2.25651 \; -1.92531 \; -1.85011 \; -2.7434
\; -4.851 \; -7.82265 \; -10.8076 \; -12.7431 \; -12.7342 \; -10.3892
\; -5.98825 \; -0.424661 \; 5.06434 \; 9.28517 \; 11.4577 \; 11.4407
\; 9.73545 \; 7.27013 \; 5.04413 \; 3.76204 \; 3.58833 \; 4.11025 \;
4.52024 \; 3.95091 \; 1.83807 \; -1.82073 \; -6.40942 \; -10.863 \;
-14.0055 \; -14.9406 \; -13.355 \; -9.62876 \; -4.71389 \; 0.178992
\; 3.97286 \; 6.06 \; 6.46431 \; 5.7759 \; 4.88593 \; 4.62023 \; 5.40661
\; 7.09724 \; 9.01184 \; 10.1863 \; 9.73843 \; 7.2174 \; 2.80997 \;
-2.67344 \; -8.03233 \; -12.0495 \; -13.8749 \; -13.2863 \; \;;
#X scalar h-seg 248 421 75 1 \;;
#X scalar h-seg 125 384 25 1 \;;
#X scalar y-plot 123 384 1 \; 0 \; 0.157075 \; 0.618431 \; 1.35508
\; 2.32074 \; 3.45474 \; 4.68583 \; 5.93665 \; 7.12863 \; 8.18686 \;
9.04487 \; 9.64873 \; 9.96052 \; 9.96063 \; 9.64907 \; 9.04541 \; 8.18758
\; 7.12947 \; 5.93756 \; 4.68675 \; 3.45562 \; 2.32152 \; 1.35572 \;
0.618877 \; 0.157306 \; 0 \; \;;
#X scalar l-arrow 99 389 21 \;;
#X scalar l-arrow 248 387 21 \;;
#X text 17 69 extract;
#X text 17 82 windows;
#X text 12 152 windows;
#X text 12 139 shape;
#X text 18 14 INPUT;
#X scalar h-seg 271 382 25 1 \;;
#X scalar y-plot 269 382 1 \; 0 \; 0.157075 \; 0.618431 \; 1.35508
\; 2.32074 \; 3.45474 \; 4.68583 \; 5.93665 \; 7.12863 \; 8.18686 \;
9.04487 \; 9.64873 \; 9.96052 \; 9.96063 \; 9.64907 \; 9.04541 \; 8.18758
\; 7.12947 \; 5.93756 \; 4.68675 \; 3.45562 \; 2.32152 \; 1.35572 \;
0.618877 \; 0.157306 \; 0 \; \;;
#X scalar h-seg 102 353 75 1 \;;
#X scalar y-plot 102 353 1 \; -0 \; -0.0212238 \; -0.0674335 \; -0.102927
\; -0.10805 \; -0.0992165 \; -0.116414 \; -0.181903 \; -0.2549 \; -0.215357
\; 0.10099 \; 0.820663 \; 1.93725 \; 3.25268 \; 4.39675 \; 4.93497
\; 4.53252 \; 3.10848 \; 0.908284 \; -1.55075 \; -3.65359 \; -4.91929
\; -5.19506 \; -4.72407 \; -4.04585 \; -3.75833 \; -4.23431 \; -5.41337
\; -6.76763 \; -7.47255 \; -6.72866 \; -4.11129 \; 0.194601 \; 5.37986
\; 10.2376 \; 13.5552 \; 14.5266 \; 13.028 \; 9.64831 \; 5.46438 \;
1.64544 \; -0.957079 \; -2.07969 \; -2.07684 \; -1.70992 \; -1.78884
\; -2.81445 \; -4.76543 \; -7.10874 \; -9.02059 \; -9.72134 \; -8.7864
\; -6.31145 \; -2.87485 \; 0.677136 \; 3.52865 \; 5.15691 \; 5.46398
\; 4.74238 \; 3.50775 \; 2.27983 \; 1.40293 \; 0.969244 \; 0.856703
\; 0.844611 \; 0.743406 \; 0.479359 \; 0.105381 \; -0.252618 \; -0.475792
\; -0.51437 \; -0.403426 \; -0.231728 \; -0.0876186 \; -0.0146397 \;
-0 \; \;;
#X scalar h-seg 248 356 75 1 \;;
#X scalar y-plot 248 356 1 \; -0 \; -0.0101981 \; -0.0561688 \; -0.13131
\; -0.20539 \; -0.259452 \; -0.315101 \; -0.433112 \; -0.673558 \;
-1.03446 \; -1.40454 \; -1.56605 \; -1.26315 \; -0.317769 \; 1.25543
\; 3.19321 \; 5.02806 \; 6.23154 \; 6.40879 \; 5.46493 \; 3.66601 \;
1.55536 \; -0.253536 \; -1.32848 \; -1.60865 \; -1.44399 \; -1.453
\; -2.24606 \; -4.12254 \; -6.87219 \; -9.7756 \; -11.8215 \; -12.0702
\; -10.0245 \; -5.86047 \; -0.420021 \; 5.04438 \; 9.2811 \; 11.4527
\; 11.3956 \; 9.62907 \; 7.11497 \; 4.86701 \; 3.56586 \; 3.32882 \;
3.71774 \; 3.97101 \; 3.35759 \; 1.50484 \; -1.42991 \; -4.80704 \;
-7.74405 \; -9.44364 \; -9.47915 \; -7.92864 \; -5.31757 \; -2.40628
\; 0.0838753 \; 1.69622 \; 2.33806 \; 2.23333 \; 1.76879 \; 1.31112
\; 1.07227 \; 1.06886 \; 1.1741 \; 1.22121 \; 1.10164 \; 0.813507 \;
0.446349 \; 0.12146 \; -0.0743472 \; -0.126161 \; -0.0843563 \; -0.0243224
\; -0 \; \;;
#X scalar d-arrow 88 338 40 \;;
#X scalar d-arrow 236 338 38 \;;
#X scalar frame 76 320 24 17 \;;
#X text 11 199 Fourier;
#X text 11 213 analysis;
#X text 80 207 FT;
#X scalar frame 224 320 24 17 \;;
#X text 228 207 FT;
#X scalar h-seg 103 300 75 1 \;;
#X scalar xy-plot 103 300 1 \; 1.06928e-07 3.89144e-07 \; 0.250732
0.000822892 \; 0.501331 0.000926563 \; 0.75139 0.000186579 \; 1.00084
-0.000954326 \; 1.25004 -0.00175124 \; 1.49951 -0.00164295 \; 1.74967
-0.000649349 \; 2.00045 0.000605641 \; 2.25139 0.00127117 \; 2.50186
0.000843056 \; 2.75153 -0.0004745 \; 3.00058 -0.00185353 \; 3.24963
-0.00236318 \; 3.49935 -0.0015999 \; 3.75 -4.08388e-07 \; 4.00123 0.00139045
\; 4.25225 0.00158769 \; 4.50238 0.000351131 \; 4.75147 -0.001597 \;
5.00009 -0.00298898 \; 5.24917 -0.00283571 \; 5.49942 -0.0011318 \;
5.75078 0.00106533 \; 6.00245 0.00226608 \; 6.25332 0.00153771 \; 6.50277
-0.000804595 \; 6.75108 -0.00330803 \; 6.99935 -0.00427937 \; 7.24882
-0.00292952 \; 7.5 4.3485e-07 \; 7.75229 0.0026051 \; 8.00425 0.0030231
\; 8.25454 0.000723036 \; 8.50285 -0.0029986 \; 8.75021 -0.00573429
\; 8.99841 -0.00551725 \; 9.24887 -0.00222912 \; 9.50156 0.00212735
\; 9.75493 0.00459168 \; 10.0068 0.00319272 \; 10.2557 -0.00157303
\; 10.5023 -0.00681156 \; 10.7487 -0.00897086 \; 10.9975 -0.00623613
\; 11.25 -4.63239e-07 \; 11.505 0.0057242 \; 11.7594 0.00677526 \;
12.0103 0.00173382 \; 12.2566 -0.00673608 \; 12.5006 -0.0132192 \;
12.7463 -0.0129714 \; 12.9973 -0.00534183 \; 13.2538 0.00519931 \;
13.5122 0.0114642 \; 13.7672 0.00820751 \; 14.0149 -0.00388967 \; 14.2562
-0.0177861 \; 14.4965 -0.0240488 \; 14.7432 -0.0171408 \; 15 5.01645e-07
\; 15.2644 0.016582 \; 15.528 0.0202346 \; 15.7814 0.00552565 \; 16.0208
-0.0208596 \; 16.252 -0.0425422 \; 16.4878 -0.0432327 \; 16.7407 -0.018456
\; 17.0136 0.0186602 \; 17.2956 0.0428728 \; 17.5669 0.0322129 \; 17.8107
-0.0153171 \; 18.0265 -0.0752347 \; 18.2348 -0.107397 \; 18.4678 -0.0810049
\; 18.75 9.46984e-10 \; 19.0772 0.0889783 \; 19.411 0.116854 \; 19.6952
0.0352319 \; 19.8915 -0.140219 \; 20.0155 -0.316192 \; 20.1494 -0.358342
\; 20.413 -0.172973 \; 20.8962 0.201352 \; 21.5789 0.545442 \; 22.2832
0.499782 \; 22.694 -0.296492 \; 22.4644 -2.00875 \; 21.376 -4.43502
\; 19.4941 -6.95182 \; 17.2408 -8.63609 \; 15.3336 -8.5519 \; 14.5854
-6.11348 \; 15.6233 -1.38557 \; 18.6282 4.81234 \; 23.201 11.068 \;
28.4238 15.7732 \; 33.1089 17.627 \; 36.1592 16.0658 \; 36.9105 11.46
\; 35.3342 5.00097 \; 32.0279 -1.68153 \; 28.001 -7.03049 \; 24.3407
-10.0177 \; 21.8813 -10.3895 \; 20.9908 -8.63609 \; 21.5375 -5.72244
\; 23.0243 -2.70704 \; 24.8204 -0.396356 \; 26.3911 0.847676 \; 27.4448
1.10687 \; 27.9605 0.751381 \; 28.1111 0.221196 \; 28.1355 -0.157942
\; 28.2232 -0.261088 \; 28.4541 -0.143686 \; 28.8019 0.0483516 \; 29.1852
0.180139 \; 29.5267 0.192251 \; 29.7929 0.108651 \; 30 1.11032e-09
\; 30.1918 -0.0673058 \; 30.409 -0.0665262 \; 30.6675 -0.0157265 \;
30.9553 0.042831 \; 31.2458 0.0719961 \; 31.5165 0.0597503 \; 31.7604
0.0208234 \; 31.9876 -0.0172148 \; 32.216 -0.0324801 \; 32.4592 -0.0204968
\; 32.7195 0.00631663 \; 32.9886 0.0289066 \; 33.2542 0.0339616 \;
33.508 0.020856 \; 33.75 1.17351e-09 \; 33.9873 -0.0150757 \; 34.2286
-0.0162805 \; 34.4791 -0.00503015 \; 34.7376 0.00993897 \; 34.9981
0.0188174 \; 35.2542 0.0167743 \; 35.503 0.0062311 \; 35.7462 -0.00549815
\; 35.9889 -0.0112208 \; 36.2357 -0.0082033 \; 36.4884 0.0006686 \;
36.7448 0.00924479 \; 37.0007 0.0121768 \; 37.2527 0.0080812 \; 37.5
1.24166e-09 \; 37.7447 -0.00684798 \; 37.9903 -0.0084224 \; 38.2396
-0.0042175 \; 38.4928 0.00270217 \; 38.7477 0.00781681 \; 39.0012 0.00799094
\; 39.2513 0.00329192 \; 39.4981 -0.00322624 \; 39.7436 -0.00752436
\; 39.9908 -0.00707599 \; 40.2413 -0.00235274 \; 40.4947 0.00354647
\; 40.7489 0.00684098 \; 41.0012 0.0053903 \; 41.25 1.32087e-09 \;
41.4961 -0.00606291 \; 41.7418 -0.00905755 \; 41.9897 -0.00708005 \;
42.2412 -0.00130667 \; 42.4954 0.00462052 \; 42.7496 0.00676517 \;
43.0009 0.00337252 \; 43.2481 -0.00387041 \; 43.4926 -0.0106543 \;
43.7376 -0.0126041 \; 43.9861 -0.00811636 \; 44.2395 0.000307467 \;
44.4955 0.00724639 \; 44.7503 0.00759374 \; 45 1.40379e-09 \; 45.2437
-0.0117146 \; 45.4844 -0.0203828 \; 45.7276 -0.0198428 \; 45.9779 -0.00931438
\; 46.2357 0.00513399 \; 46.4961 0.0135237 \; 46.7513 0.00813936 \;
46.9956 -0.0106465 \; 47.2296 -0.0329484 \; 47.4611 -0.0442499 \; 47.7015
-0.0346412 \; 47.9583 -0.00703073 \; 48.2286 0.0215983 \; 48.4986 0.0285245
\; 48.75 1.49719e-09 \; 48.9719 -0.056125 \; 49.171 -0.109269 \; 49.3726
-0.12085 \; 49.6081 -0.0699456 \; 49.8943 0.0239597 \; 50.2134 0.0976607
\; 50.5093 0.0700237 \; 50.7077 -0.108297 \; 50.7572 -0.402643 \; 50.6754
-0.66969 \; 50.5747 -0.684565 \; 50.6485 -0.223278 \; 51.1096 0.823868
\; 52.0986 2.3545 \; 53.5962 4.02263 \; 55.3805 5.30448 \; 57.0583
5.65461 \; 58.1716 4.70434 \; 58.3487 2.4282 \; 57.4459 -0.792338 \;
55.6242 -4.24519 \; 53.3252 -7.08777 \; 51.1481 -8.60606 \; 49.6687
-8.43972 \; 49.2636 -6.69217 \; 50.0028 -3.88617 \; 51.6456 -0.783972
\; 53.7385 1.85919 \; 55.7735 3.51823 \; 57.3462 4.02262 \; 58.2601
3.54931 \; 58.5465 2.5033 \; 58.4059 1.34405 \; 58.1041 0.428106 \;
57.8696 -0.0787151 \; 57.8275 -0.201644 \; 57.9885 -0.0886743 \; 58.2828
0.0843054 \; 58.6151 0.191431 \; 58.9134 0.190953 \; 59.1523 0.113215
\; 59.3487 0.020542 \; 59.5386 -0.0350926 \; 59.7525 -0.036335 \; 60
1.84783e-09 \; 60.2703 0.0411513 \; 60.5431 0.0603839 \; 60.8022 0.0502423
\; 61.0434 0.0220789 \; 61.274 -0.00471401 \; 61.5062 -0.0155667 \;
61.749 -0.0081147 \; 62.0034 0.00890517 \; 62.2637 0.0229143 \; 62.5217
0.02556 \; 62.7723 0.0168325 \; 63.0159 0.0035624 \; 63.2568 -0.00583153
\; 63.5005 -0.00662363 \; 63.75 -1.07303e-06 \; 64.0042 0.00859439
\; 64.2595 0.0133943 \; 64.5121 0.0118255 \; 64.7606 0.00558684 \;
65.0062 -0.00100554 \; 65.2517 -0.00400825 \; 65.4998 -0.00220426 \;
65.751 0.00252771 \; 66.004 0.00677556 \; 66.2566 0.00786997 \; 66.507
0.00543036 \; 66.7552 0.00131118 \; 67.0023 -0.00181595 \; 67.2502
-0.00220247 \; 67.5 9.98491e-07 \; 67.7515 0.00306476 \; 68.0034 0.00492513
\; 68.2545 0.00449943 \; 68.5041 0.00224843 \; 68.7525 -0.000277732
\; 69.0007 -0.0015161 \; 69.2499 -0.000869174 \; 69.5004 0.00102607
\; 69.7516 0.00282412 \; 70.0028 0.00337189 \; 70.253 0.00241428 \;
70.5023 0.000666551 \; 70.7511 -0.00072834 \; 71.0001 -0.000952132
\; 71.25 -9.29478e-07 \; 71.5006 0.00140181 \; 71.7516 0.00230632 \;
72.0021 0.00216748 \; 72.252 0.00114365 \; 72.5012 -6.24442e-05 \;
72.7504 -0.000694067 \; 73 -0.000414672 \; 73.2502 0.000502441 \; 73.5008
0.00141568 \; 73.7514 0.00173108 \; 74.0015 0.00128388 \; 74.2512 0.000404217
\; 74.5006 -0.000330127 \; 74.7501 -0.000477526 \; 75 8.80933e-07 \;
\;;
#X scalar d-arrow 88 280 40 \;;
#X scalar frame 67 262 70 18 \;;
#X text 73 265 ANYTHING;
#X scalar d-arrow 236 279 40 \;;
#X scalar frame 215 261 70 18 \;;
#X text 221 266 ANYTHING;
#X scalar h-seg 244 302 75 1 \;;
#X scalar xy-plot 251 302 1 \; -2.99286e-07 -3.22349e-07 \; 0.249823
-0.00092492 \; 0.499121 -0.0020314 \; 0.74832 -0.00259812 \; 0.99794
-0.00222606 \; 1.24825 -0.00113427 \; 1.49905 -4.8928e-05 \; 1.74982
0.000258643 \; 1.99999 -0.000506324 \; 2.24938 -0.00192178 \; 2.49833
-0.00309542 \; 2.74749 -0.00323747 \; 2.99744 -0.00221211 \; 3.24822
-0.000674872 \; 3.49933 0.000316727 \; 3.75 3.39414e-07 \; 3.99969
-0.00154754 \; 4.24851 -0.00339836 \; 4.49716 -0.0043505 \; 4.74651
-0.00372571 \; 4.99703 -0.00188205 \; 5.2484 -4.64066e-05 \; 5.4997
0.000458238 \; 5.74997 -0.000887856 \; 5.99888 -0.00337355 \; 6.24702
-0.00544483 \; 6.49554 -0.00570643 \; 6.74543 -0.00389427 \; 6.99682
-0.00115738 \; 7.24881 0.000607868 \; 7.5 -3.60311e-07 \; 7.74941 -0.00287426
\; 7.99719 -0.00633542 \; 8.24463 -0.00814433 \; 8.49339 -0.00699655
\; 8.74434 -0.00351869 \; 8.99694 -2.52088e-05 \; 9.24942 0.000914808
\; 9.49992 -0.00176762 \; 9.74773 -0.00674537 \; 9.99395 -0.01096 \;
10.2409 -0.0115626 \; 10.4906 -0.00792166 \; 10.7434 -0.00230916 \;
10.9975 0.00134481 \; 11.25 3.84908e-07 \; 11.4987 -0.00626932 \; 11.7437
-0.0139496 \; 11.988 -0.0181201 \; 12.235 -0.015719 \; 12.487 -0.00793333
\; 12.7429 6.71381e-05 \; 12.9987 0.00221813 \; 13.2498 -0.00430964
\; 13.4943 -0.0166619 \; 13.7347 -0.0274899 \; 13.9766 -0.0294686 \;
14.2254 -0.0204809 \; 14.4825 -0.00594233 \; 14.7433 0.00380559 \;
15 -4.15762e-07 \; 15.2461 -0.0180591 \; 15.4814 -0.041107 \; 15.7134
-0.0547228 \; 15.9533 -0.0486811 \; 16.2084 -0.0251083 \; 16.4766 0.000530628
\; 16.7454 0.00772771 \; 16.9991 -0.0154407 \; 17.2287 -0.0618457 \;
17.4407 -0.106089 \; 17.6555 -0.118569 \; 17.8961 -0.0860501 \; 18.1722
-0.025804 \; 18.4688 0.018318 \; 18.75 -2.88394e-10 \; 18.9787 -0.0965662
\; 19.143 -0.235471 \; 19.2732 -0.338267 \; 19.4347 -0.327259 \; 19.6916
-0.184832 \; 20.0572 0.00578946 \; 20.4579 0.0727414 \; 20.7395 -0.166466
\; 20.7289 -0.783919 \; 20.3352 -1.63289 \; 19.6477 -2.31843 \; 18.9762
-2.29072 \; 18.7938 -1.05309 \; 19.5812 1.58324 \; 21.618 5.30547 \;
24.804 9.27003 \; 28.5943 12.2876 \; 32.0988 13.1858 \; 34.3328 11.232
\; 34.5412 6.45549 \; 32.4785 -0.267131 \; 28.536 -7.41818 \; 23.6551
-13.2804 \; 19.0528 -16.4636 \; 15.8501 -16.3282 \; 14.7371 -13.1566
\; 15.7917 -8.01665 \; 18.5082 -2.37835 \; 22.0115 2.36614 \; 25.368
5.30544 \; 27.8745 6.20281 \; 29.227 5.44001 \; 29.5284 3.76709 \;
29.1587 1.9785 \; 28.5789 0.644817 \; 28.1534 -0.0132804 \; 28.0536
-0.0932009 \; 28.2584 0.130514 \; 28.6299 0.374318 \; 29.0118 0.466334
\; 29.3061 0.382276 \; 29.4987 0.204582 \; 29.6384 0.0446727 \; 29.7913
-0.0251567 \; 30 -4.23878e-10 \; 30.2664 0.0726004 \; 30.5605 0.131856
\; 30.845 0.140503 \; 31.0974 0.0999838 \; 31.3197 0.0406862 \; 31.5314
-0.00191679 \; 31.7548 -0.00894334 \; 32.0011 0.0141591 \; 32.2663
0.04546 \; 32.5358 0.062508 \; 32.7956 0.0556826 \; 33.0399 0.0316332
\; 33.2736 0.0064921 \; 33.5073 -0.00542439 \; 33.75 -4.70879e-10 \;
34.004 0.015747 \; 34.2643 0.0296094 \; 34.5229 0.0324151 \; 34.7741
0.02322 \; 35.0174 0.00874295 \; 35.2577 -0.00183911 \; 35.501 -0.00293317
\; 35.7507 0.00442148 \; 36.0058 0.0140199 \; 36.262 0.019015 \; 36.5149
0.0163251 \; 36.7627 0.0081672 \; 37.0071 6.07427e-05 \; 37.2518 -0.00306566
\; 37.5 -5.19286e-10 \; 37.7523 0.00632441 \; 38.0067 0.0111244 \;
38.2597 0.0110671 \; 38.5093 0.00634737 \; 38.7559 0.000280541 \; 39.0018
-0.00314367 \; 39.2498 -0.00199284 \; 39.5009 0.00242328 \; 39.7541
0.00662155 \; 40.0069 0.00743989 \; 40.2572 0.00421051 \; 40.5048 -0.000855551
\; 40.7513 -0.00428634 \; 40.9992 -0.00381863 \; 41.25 -5.73357e-10
\; 41.503 0.00418682 \; 41.756 0.0054271 \; 42.0067 0.00245467 \; 42.2544
-0.00295911 \; 42.5005 -0.00715662 \; 42.7479 -0.00715325 \; 42.9985
-0.00286456 \; 43.2521 0.00260973 \; 43.5063 0.00498288 \; 43.758 0.0018053
\; 44.0055 -0.0055499 \; 44.2502 -0.0124652 \; 44.4955 -0.0140776 \;
44.7452 -0.00881317 \; 45 -6.28061e-10 \; 45.2572 0.00585206 \; 45.5118
0.0033184 \; 45.76 -0.00780108 \; 46.0018 -0.0214579 \; 46.2422 -0.028681
\; 46.4882 -0.0236064 \; 46.7439 -0.00839332 \; 47.0072 0.00669854
\; 47.27 0.00906958 \; 47.5226 -0.00753821 \; 47.7605 -0.0369979 \;
47.9892 -0.0622934 \; 48.2224 -0.0652874 \; 48.4746 -0.0398626 \; 48.75
-6.87943e-10 \; 49.037 0.0243121 \; 49.311 0.00397502 \; 49.5489 -0.0675328
\; 49.7463 -0.161353 \; 49.9286 -0.221324 \; 50.1447 -0.195044 \; 50.4413
-0.0759031 \; 50.8274 0.0669154 \; 51.2465 0.0937669 \; 51.5766 -0.154466
\; 51.668 -0.772003 \; 51.412 -1.70455 \; 50.8134 -2.70993 \; 50.0351
-3.39586 \; 49.3828 -3.33822 \; 49.2238 -2.24621 \; 49.8601 -0.112529
\; 51.4007 2.71778 \; 53.6849 5.60192 \; 56.2947 7.77321 \; 58.6621
8.58111 \; 60.2391 7.71255 \; 60.6723 5.31123 \; 59.9184 1.94652 \;
58.257 -1.56005 \; 56.1973 -4.38931 \; 54.3135 -5.9687 \; 53.0686 -6.12142
\; 52.6897 -5.07501 \; 53.1328 -3.33824 \; 54.1405 -1.50298 \; 55.36
-0.0495391 \; 56.472 0.777072 \; 57.2831 0.987637 \; 57.755 0.777622
\; 57.9723 0.408619 \; 58.0751 0.0966265 \; 58.1894 -0.0519913 \; 58.3827
-0.0436945 \; 58.6574 0.0453969 \; 58.9731 0.128557 \; 59.281 0.153544
\; 59.5518 0.117437 \; 59.7846 0.0528291 \; 60 -9.03286e-10 \; 60.2225
-0.0172527 \; 60.4666 -0.000631608 \; 60.7307 0.0297538 \; 61.0022
0.0509409 \; 61.2669 0.050727 \; 61.5177 0.0322538 \; 61.757 0.00893011
\; 61.9935 -0.00546781 \; 62.2359 -0.00495682 \; 62.4878 0.00658747
\; 62.7464 0.0195012 \; 63.0053 0.0250755 \; 63.2593 0.0205732 \; 63.5066
0.00985921 \; 63.75 6.59378e-07 \; 63.9942 -0.00350838 \; 64.2426 0.000165629
\; 64.4957 0.00738448 \; 64.7508 0.0128931 \; 65.0046 0.013255 \; 65.2549
0.00869858 \; 65.502 0.00247455 \; 65.7481 -0.00153866 \; 65.9958 -0.00131462
\; 66.2464 0.00230939 \; 66.499 0.00650378 \; 66.752 0.00843303 \;
67.0033 0.00702113 \; 67.2523 0.00341103 \; 67.5 -6.13119e-07 \; 67.7479
-0.00119804 \; 67.9973 0.000234768 \; 68.2485 0.00302615 \; 68.5005
0.00519056 \; 68.7519 0.00534763 \; 69.002 0.00352677 \; 69.2508 0.00100479
\; 69.4992 -0.000616657 \; 69.7483 -0.000458511 \; 69.9985 0.00115523
\; 70.2497 0.00301534 \; 70.501 0.0038666 \; 70.7515 0.00321222 \;
71.0011 0.00155687 \; 71.25 5.71195e-07 \; 71.499 -0.000515178 \; 71.7488
0.000216401 \; 71.9994 0.00158968 \; 72.2503 0.00264116 \; 72.501 0.00269539
\; 72.7511 0.00176661 \; 73.0004 0.000498133 \; 73.2496 -0.000296878
\; 73.4991 -0.000173044 \; 73.7493 0.000698467 \; 73.9999 0.00168016
\; 74.2506 0.00211292 \; 74.5009 0.0017378 \; 74.7506 0.00083391 \;
75 -5.40884e-07 \; \;;
#X scalar h-seg 99 238 75 1 \;;
#X scalar xy-plot 101 238 1 \; 1.56663e-09 2.57248e-09 \; 0.250757
0.000872665 \; 0.501392 0.00101141 \; 0.751475 0.000267918 \; 1.00092
-0.000913967 \; 1.25009 -0.00176212 \; 1.49953 -0.00168126 \; 1.74966
-0.000671306 \; 2.00046 0.000632662 \; 2.25143 0.00135041 \; 2.50194
0.000941081 \; 2.75163 -0.00040357 \; 3.00065 -0.00183825 \; 3.24966
-0.00239549 \; 3.49935 -0.00163919 \; 3.75 2.49079e-09 \; 4.00126 0.00145139
\; 4.25233 0.00169165 \; 4.50248 0.000450859 \; 4.75157 -0.00154744
\; 5.00015 -0.00300235 \; 5.24919 -0.00288284 \; 5.49942 -0.00115893
\; 5.7508 0.00109965 \; 6.00251 0.00236396 \; 6.25343 0.00165902 \;
6.50289 -0.000716678 \; 6.75117 -0.00328907 \; 6.99939 -0.00431954
\; 7.24882 -0.00297847 \; 7.5 2.42545e-09 \; 7.75233 0.00268121 \;
8.00434 0.00315305 \; 8.25467 0.00084781 \; 8.50297 -0.00293649 \;
8.75029 -0.00575107 \; 8.99844 -0.00557645 \; 9.24886 -0.0022641 \;
9.50158 0.00217051 \; 9.755 0.00471517 \; 10.0069 0.00334602 \; 10.2559
-0.00146171 \; 10.5024 -0.00678751 \; 10.7487 -0.00902189 \; 10.9975
-0.00629844 \; 11.25 2.37141e-09 \; 11.505 0.00582141 \; 11.7596 0.0069414
\; 12.0104 0.00189352 \; 12.2567 -0.00665645 \; 12.5007 -0.0132407
\; 12.7463 -0.0130475 \; 12.9973 -0.00538682 \; 13.2538 0.00525491
\; 13.5123 0.0116237 \; 13.7674 0.00840596 \; 14.0151 -0.00374528 \;
14.2563 -0.0177549 \; 14.4966 -0.0241153 \; 14.7432 -0.0172221 \; 15
2.33371e-09 \; 15.2645 0.0167094 \; 15.5282 0.0204526 \; 15.7816 0.00573529
\; 16.021 -0.0207549 \; 16.2521 -0.0425706 \; 16.4878 -0.043333 \;
16.7407 -0.0185152 \; 17.0136 0.0187335 \; 17.2957 0.0430844 \; 17.5671
0.0324768 \; 17.811 -0.0151245 \; 18.0268 -0.075193 \; 18.2349 -0.107486
\; 18.4678 -0.0811145 \; 18.75 2.30858e-09 \; 19.0773 0.0891506 \;
19.4113 0.117149 \; 19.6955 0.0355156 \; 19.8918 -0.140076 \; 20.0157
-0.31623 \; 20.1495 -0.358479 \; 20.413 -0.173054 \; 20.8962 0.201452
\; 21.5791 0.545732 \; 22.2835 0.500145 \; 22.6944 -0.296227 \; 22.4647
-2.00869 \; 21.3762 -4.43514 \; 19.4941 -6.95197 \; 17.2408 -8.63609
\; 15.3337 -8.55166 \; 14.5857 -6.11307 \; 15.6237 -1.38518 \; 18.6286
4.81254 \; 23.2013 11.068 \; 28.4239 15.773 \; 33.1089 17.6268 \; 36.1592
16.0659 \; 36.9107 11.4604 \; 35.3347 5.00149 \; 32.0284 -1.68115 \;
28.0014 -7.03041 \; 24.3409 -10.0178 \; 21.8813 -10.3898 \; 20.9908
-8.63609 \; 21.5376 -5.72209 \; 23.0248 -2.70643 \; 24.8211 -0.395772
\; 26.3916 0.847971 \; 27.4451 1.10679 \; 27.9607 0.751094 \; 28.1111
0.221025 \; 28.1355 -0.15773 \; 28.2236 -0.260467 \; 28.4547 -0.142904
\; 28.8027 0.0489282 \; 29.1859 0.180265 \; 29.527 0.19198 \; 29.7929
0.108313 \; 30 2.30859e-09 \; 30.1921 -0.0667644 \; 30.4097 -0.0655906
\; 30.6684 -0.0148163 \; 30.9562 0.043292 \; 31.2464 0.0718698 \; 31.5166
0.0592977 \; 31.7603 0.0205535 \; 31.9878 -0.0168759 \; 32.2166 -0.0314856
\; 32.4603 -0.0192376 \; 32.7208 0.00724927 \; 32.9896 0.0291117 \;
33.2547 0.0335172 \; 33.508 0.020301 \; 33.75 2.33373e-09 \; 33.9877
-0.0141753 \; 34.2297 -0.0147155 \; 34.4807 -0.00349856 \; 34.7391
0.0107195 \; 34.9991 0.0186021 \; 35.2545 0.015998 \; 35.5029 0.00576506
\; 35.7464 -0.00490934 \; 35.9899 -0.00948025 \; 36.2376 -0.00598354
\; 36.4906 0.00232487 \; 36.7466 0.00961175 \; 37.0016 0.0113754 \;
37.2528 0.00707273 \; 37.5 2.37143e-09 \; 37.7455 -0.00518467 \; 37.9924
-0.00550543 \; 38.2426 -0.00133754 \; 38.4958 0.00418335 \; 38.7496
0.00740457 \; 39.0018 0.00648964 \; 39.2512 0.00238146 \; 39.4985 -0.0020636
\; 39.7457 -0.00405218 \; 39.9946 -0.00259905 \; 40.2459 0.00102556
\; 40.4985 0.00430378 \; 40.7507 0.0051672 \; 41.0013 0.00325755 \;
41.25 2.42547e-09 \; 41.4979 -0.00245156 \; 41.7464 -0.00263593 \;
41.9964 -0.000648165 \; 42.2479 0.00205095 \; 42.4998 0.00367149 \;
42.7509 0.00325284 \; 43.0006 0.00120653 \; 43.2492 -0.00105586 \;
43.4978 -0.002095 \; 43.7472 -0.0013569 \; 43.9978 0.000540358 \; 44.2492
0.00228864 \; 44.5004 0.0027726 \; 44.7507 0.00176286 \; 45 2.49083e-09
\; 45.2488 -0.00134882 \; 45.498 -0.00146182 \; 45.748 -0.000362254
\; 45.9988 0.00115487 \; 46.2499 0.00208264 \; 46.5005 0.00185862 \;
46.7503 0.000694128 \; 46.9996 -0.000611859 \; 47.2487 -0.0012216 \;
47.4984 -0.000796346 \; 47.7487 0.000319152 \; 47.9995 0.0013601 \;
48.2502 0.00165751 \; 48.5004 0.00106027 \; 48.75 2.57252e-09 \; 48.9993
-0.000820532 \; 49.2488 -0.000894185 \; 49.4988 -0.000222798 \; 49.7493
0.000714015 \; 49.9999 0.00129431 \; 50.2503 0.00116094 \; 50.5002
0.000435724 \; 50.7497 -0.000385971 \; 50.9992 -0.000774248 \; 51.249
-0.000507055 \; 51.4992 0.000204141 \; 51.7497 0.000873884 \; 52.0001
0.00106969 \; 52.2503 0.00068719 \; 52.5 2.67306e-09 \; 52.7495 -0.000536279
\; 52.9992 -0.000586828 \; 53.2492 -0.000146822 \; 53.4995 0.000472311
\; 53.75 0.00085946 \; 54.0002 0.000773854 \; 54.2501 0.000291515 \;
54.4998 -0.00025917 \; 54.7494 -0.000521772 \; 54.9993 -0.000342935
\; 55.2494 0.00013853 \; 55.4998 0.000595103 \; 55.7501 0.000730869
\; 56.0002 0.000471078 \; 56.25 2.78742e-09 \; 56.4997 -0.000370013
\; 56.7494 -0.000406145 \; 56.9994 -0.000101937 \; 57.2497 0.000328894
\; 57.5 0.000600315 \; 57.7502 0.000542097 \; 58.0001 0.000204826 \;
58.2499 -0.000182596 \; 58.4996 -0.000368658 \; 58.7495 -0.00024298
\; 58.9996 9.84161e-05 \; 59.2498 0.000423955 \; 59.5001 0.00052205
\; 59.7501 0.000337383 \; 60 2.92315e-09 \; 60.2498 -0.000266361 \;
60.4996 -0.000293111 \; 60.7496 -7.37313e-05 \; 60.9998 0.000238529
\; 61.25 0.000436443 \; 61.5001 0.000395434 \; 61.7501 0.000150146
\; 61.9999 -0.000134179 \; 62.2497 -0.000270844 \; 62.4996 -0.000178718
\; 62.7497 7.25413e-05 \; 62.9999 0.000313099 \; 63.2501 0.000386248
\; 63.5001 0.000249849 \; 63.75 -1.07195e-06 \; 63.9998 -0.000199279
\; 64.2497 -0.000218705 \; 64.4997 -5.51493e-05 \; 64.7498 0.000178783
\; 65 0.000327489 \; 65.2501 0.000298147 \; 65.5001 0.000113879 \;
65.7499 -0.000101968 \; 65.9998 -0.000205389 \; 66.2497 -0.000135417
\; 66.4998 5.51242e-05 \; 66.7499 0.000238306 \; 67 0.000294288 \;
67.2501 0.000192215 \; 67.5 9.99596e-07 \; 67.7499 -0.000151467 \;
67.9998 -0.000167816 \; 68.2498 -4.24397e-05 \; 68.4999 0.000137832
\; 68.75 0.000252855 \; 69.0001 0.000230797 \; 69.25 8.84071e-05 \;
69.4999 -7.9289e-05 \; 69.7498 -0.000159788 \; 69.9998 -0.000105428
\; 70.2498 4.29932e-05 \; 70.4999 0.000186134 \; 70.75 0.000230204
\; 71.0001 0.0001508 \; 71.25 -9.28348e-07 \; 71.4999 -0.000118966
\; 71.7498 -0.0001321 \; 71.9998 -3.35294e-05 \; 72.2499 0.00010886
\; 72.5 0.000200596 \; 72.7501 0.000181537 \; 73 7.02842e-05 \; 73.25
-6.31259e-05 \; 73.4999 -0.000127211 \; 73.7498 -8.42556e-05 \; 73.9999
3.43048e-05 \; 74.2499 0.000148727 \; 74.5 0.000184138 \; 74.75 0.000119332
\; 75 8.82094e-07 \; \;;
#X scalar d-arrow 88 222 40 \;;
#X scalar frame 75 204 38 17 \;;
#X text 81 323 iFT;
#X scalar h-seg 251 241 75 1 \;;
#X scalar xy-plot 251 241 1 \; 2.62667e-10 -1.58045e-09 \; 0.24979
-0.000945997 \; 0.499074 -0.0020331 \; 0.748288 -0.00255114 \; 0.997943
-0.00213293 \; 1.24828 -0.00102774 \; 1.4991 2.84907e-05 \; 1.74984
0.000282532 \; 1.99997 -0.000522997 \; 2.24933 -0.00194005 \; 2.49828
-0.00307254 \; 2.74748 -0.00315733 \; 2.99746 -0.00209575 \; 3.24827
-0.000568477 \; 3.49937 0.000373407 \; 3.75 -1.53025e-09 \; 3.99965
-0.00157334 \; 4.24845 -0.00340045 \; 4.49712 -0.0042929 \; 4.74652
-0.00361135 \; 4.99707 -0.00175112 \; 5.24845 4.88368e-05 \; 5.49972
0.000487752 \; 5.74994 -0.000909031 \; 5.99882 -0.00339611 \; 6.24696
-0.00541652 \; 6.49552 -0.00560709 \; 6.74546 -0.00374988 \; 6.99688
-0.00102511 \; 7.24886 0.000678473 \; 7.5 -1.49009e-09 \; 7.74936 -0.00290649
\; 7.99711 -0.00633803 \; 8.24458 -0.00807227 \; 8.49339 -0.00685324
\; 8.74439 -0.00335442 \; 8.997 9.44256e-05 \; 9.24945 0.000952869
\; 9.49989 -0.00179425 \; 9.74766 -0.00677384 \; 9.99388 -0.0109242
\; 10.2409 -0.0114368 \; 10.4906 -0.0077386 \; 10.7435 -0.00214112
\; 10.9976 0.0014347 \; 11.25 -1.45688e-09 \; 11.4986 -0.00631049 \;
11.7436 -0.0139529 \; 11.9879 -0.0180279 \; 12.235 -0.0155353 \; 12.4871
-0.00772292 \; 12.743 0.000220916 \; 12.9987 0.00226708 \; 13.2497
-0.00434395 \; 13.4942 -0.0166987 \; 13.7346 -0.0274436 \; 13.9766
-0.0293054 \; 14.2255 -0.0202431 \; 14.4826 -0.00572334 \; 14.7434
0.0039229 \; 15 -1.43371e-09 \; 15.246 -0.018113 \; 15.4813 -0.0411114
\; 15.7134 -0.0546017 \; 15.9533 -0.0484393 \; 16.2085 -0.0248306 \;
16.4767 0.000733413 \; 16.7455 0.00779212 \; 16.999 -0.0154859 \; 17.2286
-0.0618945 \; 17.4406 -0.106027 \; 17.6554 -0.118352 \; 17.8962 -0.0857325
\; 18.1723 -0.0255105 \; 18.4689 0.0184761 \; 18.75 -1.41826e-09 \;
18.9786 -0.0966392 \; 19.1428 -0.235477 \; 19.2731 -0.338103 \; 19.4347
-0.326931 \; 19.6917 -0.184455 \; 20.0573 0.0060655 \; 20.4579 0.0728291
\; 20.7394 -0.166528 \; 20.7287 -0.783986 \; 20.335 -1.6328 \; 19.6476
-2.31813 \; 18.9762 -2.29028 \; 18.794 -1.05268 \; 19.5814 1.58346
\; 21.618 5.30547 \; 24.8038 9.26993 \; 28.5941 12.2875 \; 32.0987
13.186 \; 34.3328 11.2325 \; 34.5413 6.45603 \; 32.4788 -0.26674 \;
28.5361 -7.41805 \; 23.655 -13.2805 \; 19.0526 -16.4637 \; 15.8498
-16.3281 \; 14.737 -13.1562 \; 15.7918 -8.01602 \; 18.5085 -2.37776
\; 22.0117 2.36646 \; 25.368 5.30544 \; 27.8742 6.20266 \; 29.2266
5.44 \; 29.5282 3.76743 \; 29.1588 1.97918 \; 28.5791 0.645605 \; 28.1538
-0.0127007 \; 28.0537 -0.0930156 \; 28.2583 0.130383 \; 28.6295 0.374175
\; 29.0114 0.466517 \; 29.306 0.382927 \; 29.4989 0.205542 \; 29.6388
0.0455681 \; 29.7916 -0.0246698 \; 30 -1.41823e-09 \; 30.266 0.0723712
\; 30.56 0.131837 \; 30.8446 0.141028 \; 31.0975 0.101047 \; 31.3201
0.0419236 \; 31.5319 -0.00100213 \; 31.755 -0.00864962 \; 32.0009 0.0139499
\; 32.2657 0.0452308 \; 32.5352 0.0628019 \; 32.7953 0.0567363 \; 33.0402
0.0331939 \; 33.2742 0.00795588 \; 33.5078 -0.00462373 \; 33.75 -1.43366e-09
\; 34.0034 0.0153657 \; 34.2635 0.029578 \; 34.5223 0.0332995 \; 34.7741
0.0250208 \; 35.0181 0.0108514 \; 35.2586 -0.000270277 \; 35.5014 -0.00242608
\; 35.7503 0.00405811 \; 36.0047 0.0136187 \; 36.2609 0.0195329 \;
36.5145 0.0181963 \; 36.7633 0.0109598 \; 37.0082 0.00270024 \; 37.2527
-0.00161084 \; 37.5 -1.45681e-09 \; 37.7512 0.00561999 \; 38.005 0.0110658
\; 38.2585 0.0127301 \; 38.5094 0.00976474 \; 38.7572 0.00431945 \;
39.0035 -0.000109603 \; 39.2506 -0.00100216 \; 39.5001 0.00170578 \;
39.752 0.00582103 \; 40.0048 0.00848447 \; 40.2564 0.00802726 \; 40.5059
0.00490747 \; 40.7537 0.0012266 \; 41.0013 -0.000741905 \; 41.25 -1.49e-09
\; 41.5006 0.00265739 \; 41.7524 0.00529809 \; 42.0041 0.00616867 \;
42.2546 0.00478741 \; 42.5036 0.0021418 \; 42.7517 -5.4926e-05 \; 43.0003
-0.000507728 \; 43.2501 0.000872773 \; 43.501 0.00300948 \; 43.7525
0.00442936 \; 44.0034 0.00422992 \; 44.2532 0.00260975 \; 44.502 0.000658199
\; 44.7507 -0.000401492 \; 45 -1.53014e-09 \; 45.2503 0.00146206 \;
45.5013 0.00293816 \; 45.7523 0.00344764 \; 46.0026 0.00269578 \; 46.252
0.00121492 \; 46.501 -3.13735e-05 \; 46.7502 -0.000292102 \; 47 0.000505757
\; 47.2506 0.00175484 \; 47.5015 0.00259949 \; 47.752 0.00249835 \;
48.0019 0.00155096 \; 48.2512 0.000393485 \; 48.5004 -0.00024146 \;
48.75 -1.58031e-09 \; 49.0002 0.000889403 \; 49.2508 0.00179725 \;
49.5014 0.00212031 \; 49.7516 0.00166671 \; 50.0013 0.000755053 \;
50.2506 -1.95951e-05 \; 50.5001 -0.000183359 \; 50.75 0.000319041 \;
51.0004 0.0011122 \; 51.2509 0.00165518 \; 51.5013 0.00159811 \; 51.7512
0.000996504 \; 52.0008 0.000253947 \; 52.2503 -0.000156499 \; 52.5
-1.64206e-09 \; 52.7501 0.00058129 \; 53.0005 0.00117946 \; 53.2509
0.00139709 \; 53.5011 0.00110254 \; 53.7508 0.000501401 \; 54.0004
-1.30573e-05 \; 54.2501 -0.000122672 \; 54.5 0.000214227 \; 54.7503
0.000749518 \; 55.0006 0.00111942 \; 55.2509 0.00108453 \; 55.5008
0.000678616 \; 55.7505 0.000173515 \; 56.0002 -0.00010728 \; 56.25
-1.7123e-09 \; 56.5001 0.000401067 \; 56.7504 0.000816303 \; 57.0007
0.000969937 \; 57.2507 0.000767773 \; 57.5006 0.000350225 \; 57.7503
-9.14169e-06 \; 58 -8.61901e-05 \; 58.25 0.000150929 \; 58.5002 0.000529565
\; 58.7504 0.000793133 \; 59.0006 0.000770522 \; 59.2506 0.000483458
\; 59.5004 0.000123943 \; 59.7501 -7.68313e-05 \; 60 -1.79566e-09 \;
60.2501 0.000288716 \; 60.5003 0.000589112 \; 60.7505 0.000701576 \;
61.0005 0.000556838 \; 61.2504 0.000254622 \; 61.5002 -6.66622e-06
\; 61.75 -6.31814e-05 \; 62 0.000110908 \; 62.2501 0.000389057 \; 62.5003
0.000583354 \; 62.7505 0.00056795 \; 63.0004 0.000357057 \; 63.2503
9.17044e-05 \; 63.5001 -5.68972e-05 \; 63.75 6.58476e-07 \; 64 0.000216002
\; 64.2502 0.000439562 \; 64.5004 0.000524737 \; 64.7504 0.000417376
\; 65.0003 0.000191061 \; 65.2502 -5.02453e-06 \; 65.5 -4.79198e-05
\; 65.75 8.42831e-05 \; 66.0001 0.000295033 \; 66.2502 0.000442009
\; 66.5003 0.000431606 \; 66.7503 0.000271768 \; 67.0002 6.9873e-05
\; 67.2501 -4.377e-05 \; 67.5 -6.14035e-07 \; 67.75 0.000164175 \;
68.0002 0.00033728 \; 68.2503 0.000403787 \; 68.5003 0.000321781 \;
68.7502 0.000147521 \; 69.0001 -3.88826e-06 \; 69.25 -3.72009e-05 \;
69.5 6.55369e-05 \; 69.7501 0.000229526 \; 70.0002 0.000344117 \; 70.2503
0.000336641 \; 70.5003 0.000212274 \; 70.7502 5.4659e-05 \; 71.0001
-3.43386e-05 \; 71.25 5.70258e-07 \; 71.5 0.000128946 \; 71.7501 0.000265496
\; 72.0002 0.000318949 \; 72.2502 0.000254149 \; 72.5002 0.000117038
\; 72.7501 -3.05886e-06 \; 73 -2.95746e-05 \; 73.25 5.21769e-05 \;
73.5001 0.000182731 \; 73.7502 0.000275013 \; 74.0002 0.000268623 \;
74.2502 0.000169617 \; 74.5001 4.37226e-05 \; 74.75 -2.71733e-05 \;
75 -5.41847e-07 \; \;;
#X scalar d-arrow 236 221 40 \;;
#X scalar frame 222 203 38 17 \;;
#X text 228 324 iFT;
#X scalar h-seg 112 186 75 1 \;;
#X scalar y-plot 112 186 1 \; -0 \; -0.0167603 \; -0.0699962 \; -0.152353
\; -0.241587 \; -0.304067 \; -0.300796 \; -0.195038 \; 0.0396086 \;
0.411988 \; 0.908251 \; 1.48978 \; 2.09477 \; 2.64356 \; 3.0473 \;
3.21895 \; 3.08543 \; 2.59922 \; 1.74791 \; 0.56024 \; -0.892406 \;
-2.49959 \; -4.12043 \; -5.59663 \; -6.76835 \; -7.49169 \; -7.65539
\; -7.19503 \; -6.10294 \; -4.43233 \; -2.29533 \; 0.145641 \; 2.692
\; 5.12736 \; 7.23845 \; 8.83609 \; 9.77423 \; 9.96481 \; 9.38682 \;
8.08881 \; 6.18412 \; 3.83966 \; 1.25943 \; -1.33553 \; -3.72877 \;
-5.72897 \; -7.18742 \; -8.01084 \; -8.16813 \; -7.69035 \; -6.66457
\; -5.22217 \; -3.52309 \; -1.73811 \; -0.0310299 \; 1.45731 \; 2.62148
\; 3.39913 \; 3.77329 \; 3.76964 \; 3.44913 \; 2.89725 \; 2.21149 \;
1.48866 \; 0.813522 \; 0.250205 \; -0.162818 \; -0.413886 \; -0.515456
\; -0.498421 \; -0.404344 \; -0.276995 \; -0.154436 \; -0.0628686 \;
-0.0130881 \; -0 \; \;;
#X scalar h-seg 266 187 75 1 \;;
#X scalar y-plot 266 187 1 \; 0 \; -0.00153653 \; -0.0246668 \; -0.0928352
\; -0.218643 \; -0.399159 \; -0.613895 \; -0.825945 \; -0.986283 \;
-1.04074 \; -0.938769 \; -0.642769 \; -0.136541 \; 0.568341 \; 1.42957
\; 2.37504 \; 3.30813 \; 4.11684 \; 4.68603 \; 4.9112 \; 4.71249 \;
4.0469 \; 2.91708 \; 1.3757 \; -0.475893 \; -2.49462 \; -4.50775 \;
-6.32901 \; -7.7773 \; -8.69578 \; -8.9692 \; -8.5376 \; -7.40481 \;
-5.64038 \; -3.3748 \; -0.788371 \; 1.90537 \; 4.48001 \; 6.71791 \;
8.43117 \; 9.47991 \; 9.78518 \; 9.33609 \; 8.18969 \; 6.46415 \; 4.32585
\; 1.97195 \; -0.389733 \; -2.56097 \; -4.37214 \; -5.69693 \; -6.46244
\; -6.65282 \; -6.3071 \; -5.51118 \; -4.38554 \; -3.07001 \; -1.70762
\; -0.429322 \; 0.658627 \; 1.48349 \; 2.01026 \; 2.24104 \; 2.21008
\; 1.97554 \; 1.60907 \; 1.18487 \; 0.769662 \; 0.41478 \; 0.151401
\; -0.0107824 \; -0.0814444 \; -0.0846911 \; -0.0522133 \; -0.0157327
\; -0 \; \;;
#X scalar h-seg 235 120 75 1 \;;
#X scalar y-plot 235 120 1 \; 0 \; -2.69441e-06 \; -0.000172718 \;
-0.0014583 \; -0.00608089 \; -0.0172546 \; -0.0379675 \; -0.0689993
\; -0.10667 \; -0.141037 \; -0.155306 \; -0.127076 \; -0.0316895 \;
0.152516 \; 0.437797 \; 0.82056 \; 1.27636 \; 1.75773 \; 2.1959 \;
2.50703 \; 2.60255 \; 2.40261 \; 1.85078 \; 0.927618 \; -0.33926 \;
-1.87097 \; -3.5402 \; -5.18165 \; -6.60941 \; -7.63924 \; -8.11273
\; -7.92019 \; -7.0187 \; -5.44234 \; -3.30278 \; -0.779757 \; 1.89786
\; 4.47804 \; 6.71496 \; 8.39793 \; 9.37632 \; 9.57635 \; 9.00827 \;
7.76263 \; 5.99667 \; 3.91276 \; 1.73234 \; -0.331206 \; -2.09669 \;
-3.43367 \; -4.27268 \; -4.60698 \; -4.48587 \; -4.00157 \; -3.27191
\; -2.42195 \; -1.56714 \; -0.800191 \; -0.1833 \; 0.254111 \; 0.512524
\; 0.615615 \; 0.601374 \; 0.512918 \; 0.390555 \; 0.266188 \; 0.160564
\; 0.0832383 \; 0.034649 \; 0.00936313 \; -0.000466062 \; -0.00226493
\; -0.00133022 \; -0.000365535 \; -2.7579e-05 \; -0 \; \;;
#X scalar y-plot 99 126 1 \; -0 \; -2.93904e-05 \; -0.000490115 \;
-0.00239324 \; -0.006719 \; -0.013144 \; -0.0186033 \; -0.0162934 \;
0.00428382 \; 0.0558311 \; 0.150257 \; 0.294531 \; 0.48617 \; 0.709408
\; 0.933215 \; 1.11212 \; 1.19044 \; 1.10976 \; 0.819083 \; 0.285987
\; -0.492846 \; -1.48399 \; -2.61426 \; -3.77374 \; -4.8251 \; -5.61878
\; -6.01223 \; -5.89068 \; -5.18648 \; -3.8938 \; -2.07614 \; 0.135109
\; 2.55163 \; 4.94733 \; 7.08399 \; 8.73955 \; 9.7357 \; 9.96044 \;
9.38271 \; 8.05692 \; 6.11654 \; 3.75772 \; 1.2152 \; -1.26589 \; -3.45911
\; -5.18189 \; -6.31411 \; -6.80784 \; -6.68731 \; -6.03964 \; -4.9984
\; -3.7228 \; -2.37555 \; -1.10275 \; -0.018422 \; 0.80481 \; 1.33818
\; 1.59283 \; 1.61102 \; 1.4544 \; 1.19163 \; 0.887244 \; 0.593447
\; 0.345491 \; 0.16083 \; 0.0413915 \; -0.0220638 \; -0.0447615 \;
-0.043059 \; -0.0308241 \; -0.0174776 \; -0.00770311 \; -0.00242568
\; -0.000440131 \; -2.29431e-05 \; -0 \; \;;
#X scalar l-arrow 100 154 21 \;;
#X scalar d-arrow 88 163 40 \;;
#X text 12 311 Fourier;
#X text 13 325 resynth-;
#X text 13 339 esis;
#X text 13 384 windows;
#X text 12 371 shape;
#X text 12 397 again;
#X text 13 438 overlap-;
#X text 13 451 add;
#X scalar h-seg 126 150 25 1 \;;
#X scalar y-plot 126 150 1 \; 0 \; 0.157075 \; 0.618431 \; 1.35508
\; 2.32074 \; 3.45474 \; 4.68583 \; 5.93665 \; 7.12863 \; 8.18686 \;
9.04487 \; 9.64873 \; 9.96052 \; 9.96063 \; 9.64907 \; 9.04541 \; 8.18758
\; 7.12947 \; 5.93756 \; 4.68675 \; 3.45562 \; 2.32152 \; 1.35572 \;
0.618877 \; 0.157306 \; 0 \; \;;
#X scalar l-arrow 249 153 21 \;;
#X scalar d-arrow 237 162 40 \;;
#X scalar d-curve-arrow 110 80 25 39 64 -22 \;;
#X scalar haxis 21 49 320 317 \;;
#X scalar y-plot 31 49 1 \; 5.40302 \; 2.94118 \; 0.262666 \; -2.4352
\; -4.95367 \; -7.10719 \; -8.73713 \; -9.7234 \; -9.99333 \; -9.52706
\; -8.35892 \; -6.57497 \; -4.30665 \; -1.72105 \; 0.991344 \; 3.6307
\; 6.00259 \; 7.93225 \; 9.27755 \; 9.93936 \; 9.86893 \; 9.07146 \;
7.60569 \; 5.57959 \; 3.14245 \; 0.473805 \; -2.22974 \; -4.76904 \;
-6.95698 \; -8.63241 \; -9.67188 \; -9.99882 \; -9.58913 \; -8.47302
\; -6.73269 \; -4.49636 \; -1.92879 \; 0.780899 \; 3.43304 \; 5.83227
\; 7.80184 \; 9.19664 \; 9.91391 \; 9.90083 \; 9.15834 \; 7.74116 \;
5.75367 \; 3.34232 \; 0.684736 \; -2.0233 \; -4.58227 \; -6.80366 \;
-8.52383 \; -9.61604 \; -9.99984 \; -9.64693 \; -8.58334 \; -6.88741
\; -4.68407 \; -2.13564 \; 0.570096 \; 3.23384 \; 5.65934 \; 7.66793
\; 9.11162 \; 9.88404 \; 9.9283 \; 9.24114 \; 7.87317 \; 5.92518 \;
3.54069 \; 0.895361 \; -1.81593 \; -4.39348 \; -6.64732 \; -8.41146
\; -9.55591 \; -9.99639 \; -9.70042 \; -8.68983 \; -7.03902 \; -4.86967
\; -2.34157 \; 0.359058 \; 3.03321 \; 5.48391 \; 7.5306 \; 9.02253
\; 9.84975 \; 9.95134 \; 9.3198 \; 8.00167 \; 6.09405 \; 3.73747 \;
1.10557 \; -1.60779 \; -4.20269 \; -6.48799 \; -8.29532 \; -9.49153
\; -9.98848 \; -9.74958 \; -8.79243 \; -7.18753 \; -5.05313 \; -2.54644
\; 0.147821 \; 2.8312 \; 5.30603 \; 7.38992 \; 8.92941 \; 9.81107 \;
9.96993 \; 9.39431 \; 8.12662 \; 6.26023 \; 3.93262 \; 1.31532 \; -1.39892
\; -4.01006 \; -6.32578 \; -8.17548 \; -9.42289 \; -9.97612 \; -9.7944
\; -8.89111 \; -7.33282 \; -5.23428 \; -2.75017 \; -0.0634434 \; 2.62795
\; 5.12575 \; 7.24593 \; 8.8323 \; 9.76799 \; 9.98408 \; 9.46462 \;
8.24791 \; 6.42354 \; 4.12597 \; 1.52444 \; -1.18939 \; -3.81561 \;
-6.16072 \; -8.05198 \; -9.35005 \; -9.9593 \; -9.83483 \; -8.98581
\; -7.47484 \; -5.41315 \; -2.9527 \; -0.274718 \; 2.4235 \; 4.94318
\; 7.09869 \; 8.73126 \; 9.72056 \; 9.99377 \; 9.53072 \; 8.3655 \;
6.58405 \; 4.31749 \; 1.73289 \; -0.979372 \; -3.61948 \; -5.99298
\; -7.92491 \; -9.27305 \; -9.93803 \; -9.87087 \; -9.07652 \; -7.61351
\; -5.5896 \; -3.15387 \; -0.48587 \; 2.218 \; 4.7584 \; 6.94831 \;
8.62633 \; 9.66881 \; 9.99899 \; 9.59254 \; 8.4794 \; 6.74158 \; 4.50711
\; 1.94056 \; -0.768876 \; -3.42174 \; -5.82246 \; -7.7943 \; -9.19188
\; -9.91233 \; -9.90251 \; -9.16318 \; -7.74877 \; -5.76353 \; -3.35364
\; -0.696729 \; 2.01155 \; 4.57157 \; 6.79483 \; 8.51754 \; 9.61274
\; 9.99976 \; 9.65011 \; 8.58951 \; 6.89613 \; 4.69472 \; 2.1474 \;
-0.558075 \; -3.2224 \; -5.64941 \; -7.66018 \; -9.10663 \; -9.8822
\; -9.92972 \; -9.24572 \; -7.8806 \; -5.93485 \; -3.55195 \; -0.907353
\; 1.80413 \; 4.38266 \; 6.63829 \; 8.40492 \; 9.55236 \; 9.99606 \;
9.70336 \; 8.69577 \; 7.04761 \; 4.88023 \; 2.35329 \; -0.346987 \;
-3.0217 \; -5.47387 \; -7.5227 \; -9.01734 \; -9.84767 \; -9.95251
\; -9.32416 \; -8.00889 \; -6.10361 \; -3.74867 \; -1.11757 \; 1.59594
\; 4.1918 \; 6.47879 \; 8.28856 \; 9.48773 \; 9.9879 \; 9.75227 \;
8.79816 \; 7.19591 \; 5.06347 \; 2.55812 \; -0.13582 \; -2.81968 \;
-5.29582 \; -7.38181 \; -8.92398 \; -9.80873 \; -9.97086 \; -9.39844
\; -8.13363 \; -6.26956 \; -3.94372 \; -1.32729 \; 1.38692 \; 3.99903
\; 6.31645 \; 8.1685 \; 9.41885 \; 9.97528 \; 9.79682 \; 8.89663 \;
7.34097 \; 5.24454 \; 2.76174 \; 0.0754838 \; -2.61633 \; -5.11541
\; -7.23762 \; -8.82665 \; -9.76541 \; -9.98475 \; -9.46852 \; -8.25473
\; -6.43283 \; -4.13694 \; -1.53642 \; 1.17744 \; 3.80454 \; 6.15129
\; 8.04483 \; 9.34577 \; 9.95821 \; 9.83699 \; 8.99112 \; 7.48281 \;
5.42327 \; \;;
#X scalar h-seg 105 79 75 1 \;;
#X scalar v-seg 105 49 30 1 \;;
#X scalar v-seg 180 49 30 1 \;;
#X scalar h-seg 124 85 75 1 \;;
#X scalar v-seg 124 79 6 1 \;;
#X scalar v-seg 198 54 30 1 \;;
#X scalar h-seg 145 91 75 1 \;;
#X scalar v-seg 145 85 6 1 \;;
#X scalar v-seg 219 60 30 1 \;;
#X text 226 457 ...;
#X scalar d-curve-arrow 136 87 25 39 57 101 \;;
#X text 16 511 OUTPUT;
#X scalar h-seg 99 126 75 1 \;;
#X text 14 253 modifi-;
#X text 13 266 cation;
#X scalar h-seg 124 460 75 1 \;;
#X scalar v-seg 124 460 5 1 \;;
#X scalar v-seg 199 460 30 1 \;;
#X scalar h-seg 143 455 75 1 \;;
#X scalar v-seg 143 455 5 1 \;;
#X scalar v-seg 218 455 30 1 \;;
#X scalar h-seg 274 149 25 1 \;;
#X scalar y-plot 274 149 1 \; 0 \; 0.157075 \; 0.618431 \; 1.35508
\; 2.32074 \; 3.45474 \; 4.68583 \; 5.93665 \; 7.12863 \; 8.18686 \;
9.04487 \; 9.64873 \; 9.96052 \; 9.96063 \; 9.64907 \; 9.04541 \; 8.18758
\; 7.12947 \; 5.93756 \; 4.68675 \; 3.45562 \; 2.32152 \; 1.35572 \;
0.618877 \; 0.157306 \; 0 \; \;;
#X scalar frame 79 144 20 18 \;;
#X scalar times 84 148 \;;
#X scalar frame 228 144 20 18 \;;
#X scalar times 233 148 \;;
#X scalar frame 78 379 20 18 \;;
#X scalar times 83 383 \;;
#X scalar frame 227 378 20 18 \;;
#X scalar times 232 382 \;;
#X coords 0 543 1 542 0 0 0;
#X restore 51 61 pd fig;
#X obj 170 42 templates;
#N canvas 557 28 422 219 z 0;
#X scalar h-seg 50 100 75 1 \;;
#X scalar y-plot 50 100 1 \; -0 \; -0.0101981 \; -0.0561688 \; -0.13131
\; -0.20539 \; -0.259452 \; -0.315101 \; -0.433112 \; -0.673558 \;
-1.03446 \; -1.40454 \; -1.56605 \; -1.26315 \; -0.317769 \; 1.25543
\; 3.19321 \; 5.02806 \; 6.23154 \; 6.40879 \; 5.46493 \; 3.66601 \;
1.55536 \; -0.253536 \; -1.32848 \; -1.60865 \; -1.44399 \; -1.453
\; -2.24606 \; -4.12254 \; -6.87219 \; -9.7756 \; -11.8215 \; -12.0702
\; -10.0245 \; -5.86047 \; -0.420021 \; 5.04438 \; 9.2811 \; 11.4527
\; 11.3956 \; 9.62907 \; 7.11497 \; 4.86701 \; 3.56586 \; 3.32882 \;
3.71774 \; 3.97101 \; 3.35759 \; 1.50484 \; -1.42991 \; -4.80704 \;
-7.74405 \; -9.44364 \; -9.47915 \; -7.92864 \; -5.31757 \; -2.40628
\; 0.0838753 \; 1.69622 \; 2.33806 \; 2.23333 \; 1.76879 \; 1.31112
\; 1.07227 \; 1.06886 \; 1.1741 \; 1.22121 \; 1.10164 \; 0.813507 \;
0.446349 \; 0.12146 \; -0.0743472 \; -0.126161 \; -0.0843563 \; -0.0243224
\; -0 \; \;;
#X coords 0 219 1 218 0 0 0;
#X restore 54 89 pd z;
#N canvas 20 107 1242 687 make-fig 1;
#X msg 129 16 \; start pd-z \;;
#X obj 220 304 pack;
#X msg 220 329 \; y-plot-point \$1 \$2 \;;
#X msg 26 22 \; pd-z clear \; start pd-z;
#X msg 175 600 \; add-y-plot 101 175 100 1 \;;
#X msg 174 633 \; add-y-plot 101 275 100 1 \;;
#X msg 17 575 \; add-rect 175 98 2 4 \;;
#X msg 16 610 \; add-rect 275 98 2 4 \;;
#X obj 21 307 pack;
#X msg 21 334 \; y-plot-point \$1 \$2 \;;
#X obj 107 271 cos;
#X obj 67 313 +;
#X obj 67 271 cos;
#X obj 67 249 + 1;
#X obj 107 250 + 2;
#X msg 22 140 \; add-y-plot 301 50 100 1 \;;
#X obj 67 292 * 10;
#X obj 107 292 * 5;
#X obj 67 228 * 13;
#X obj 107 229 * 29;
#X msg 20 99 \; add-haxis 40 100 320 317;
#X obj 21 181 scanner 300 6.283;
#X msg 218 112 \; add-y-plot 76 50 100 1 \;;
#X obj 218 150 scanner 75 1.5708;
#X obj 316 265 cos;
#X obj 276 307 +;
#X obj 276 265 cos;
#X obj 276 243 + 1;
#X obj 316 244 + 2;
#X obj 276 286 * 10;
#X obj 316 286 * 5;
#X obj 276 222 * 13;
#X obj 316 223 * 29;
#X obj 275 191 + 1.5708;
#X obj 337 191 + 1.5708;
#X msg 218 73 \; add-h-seg 50 100 75 1 \;;
#X obj 221 522 pack;
#X msg 221 547 \; y-plot-point \$1 \$2 \;;
#X obj 317 483 cos;
#X obj 277 525 +;
#X obj 277 483 cos;
#X obj 277 461 + 1;
#X obj 317 462 + 2;
#X obj 277 504 * 10;
#X obj 317 504 * 5;
#X obj 277 440 * 13;
#X obj 317 441 * 29;
#X msg 402 71 \; add-v-seg 50 100 30 1 \;;
#X msg 402 108 \; add-v-seg 125 100 30 1 \;;
#X obj 219 368 scanner 75 1.5708;
#X obj 276 409 + 1.963;
#X obj 338 409 + 1.963;
#X text 224 581 unwindowed segments;
#X text 402 579 window function;
#X obj 405 509 pack;
#X msg 405 534 \; y-plot-point \$1 \$2 \;;
#X obj 457 442 cos;
#X msg 404 327 \; add-h-seg 50 100 25 1 \;;
#X msg 405 361 \; add-y-plot 26 50 100 1 \;;
#X obj 405 394 scanner 25 6.283;
#X obj 457 464 * -0.5;
#X obj 457 484 + 0.5;
#X obj 456 509 * 10;
#X obj 590 259 pack;
#X msg 590 297 \; y-plot-point \$1 \$2 \;;
#X obj 588 105 scanner 75 1.5708;
#X obj 685 212 cos;
#X obj 645 254 +;
#X obj 645 212 cos;
#X obj 645 190 + 1;
#X obj 685 191 + 2;
#X obj 645 233 * 10;
#X obj 685 233 * 5;
#X obj 645 169 * 13;
#X obj 685 170 * 29;
#X obj 645 146 + 1.5708;
#X obj 707 146 + 1.5708;
#X text 591 577 shaped segments;
#X obj 734 103 t f f;
#X obj 732 170 * 4;
#X obj 733 192 cos;
#X obj 733 214 * -0.5;
#X obj 733 234 + 0.5;
#X obj 646 276 *;
#X obj 593 490 pack;
#X msg 593 528 \; y-plot-point \$1 \$2 \;;
#X obj 591 336 scanner 75 1.5708;
#X obj 688 443 cos;
#X obj 648 485 +;
#X obj 648 443 cos;
#X obj 648 421 + 1;
#X obj 688 422 + 2;
#X obj 648 464 * 10;
#X obj 688 464 * 5;
#X obj 648 400 * 13;
#X obj 688 401 * 29;
#X obj 737 334 t f f;
#X obj 735 401 * 4;
#X obj 736 423 cos;
#X obj 736 445 * -0.5;
#X obj 736 465 + 0.5;
#X obj 649 507 *;
#X obj 648 377 + 1.963;
#X obj 710 377 + 1.963;
#X msg 807 313 \; xy-plot-point \$1 \$2 \$3 \;;
#X obj 806 291 pack 0 0 0;
#X obj 807 215 t f f;
#X obj 837 242 +;
#X obj 869 244 +;
#N canvas 286 170 714 658 function 0;
#X obj 93 46 inlet;
#X obj 55 444 outlet;
#X obj 122 446 outlet;
#X obj 31 239 t f f;
#X obj 31 266 cos;
#X obj 61 266 sin;
#X obj 30 298 *;
#X obj 78 302 *;
#X obj 122 298 dirichlet 100;
#X obj 220 297 dirichlet 100;
#X obj 219 244 dirichlet 100;
#X obj 27 161 t f f f;
#X obj 56 402 +;
#X obj 88 404 +;
#X obj 342 263 t f f;
#X obj 342 290 cos;
#X obj 372 290 sin;
#X obj 341 322 *;
#X obj 389 326 *;
#X obj 433 322 dirichlet 100;
#X obj 531 321 dirichlet 100;
#X obj 530 268 dirichlet 100;
#X obj 338 185 t f f f;
#X obj 81 94 t f f;
#X obj 31 210 expr 1+3.14159*$f1;
#X obj 342 234 expr 3.5+3.14159*$f1;
#X obj 31 188 - 13;
#X obj 342 212 - 29;
#X obj 122 277 - 14;
#X obj 220 276 - 13;
#X obj 219 223 - 12;
#X obj 433 301 - 30;
#X obj 531 300 - 29;
#X obj 530 247 - 28;
#X obj 122 322 expr 0.5*($f2+0.5*($f1+$f3));
#X obj 433 346 expr 0.25*($f2+0.5*($f1+$f3));
#X connect 0 0 23 0;
#X connect 3 0 4 0;
#X connect 3 1 5 0;
#X connect 4 0 6 0;
#X connect 5 0 7 0;
#X connect 6 0 12 0;
#X connect 7 0 13 0;
#X connect 8 0 34 0;
#X connect 9 0 34 1;
#X connect 10 0 34 2;
#X connect 11 0 26 0;
#X connect 11 1 28 0;
#X connect 11 2 29 0;
#X connect 11 2 30 0;
#X connect 12 0 1 0;
#X connect 13 0 2 0;
#X connect 14 0 15 0;
#X connect 14 1 16 0;
#X connect 15 0 17 0;
#X connect 16 0 18 0;
#X connect 17 0 12 1;
#X connect 18 0 13 1;
#X connect 19 0 35 0;
#X connect 20 0 35 1;
#X connect 21 0 35 2;
#X connect 22 0 27 0;
#X connect 22 1 31 0;
#X connect 22 2 32 0;
#X connect 22 2 33 0;
#X connect 23 0 11 0;
#X connect 23 1 22 0;
#X connect 24 0 3 0;
#X connect 25 0 14 0;
#X connect 26 0 24 0;
#X connect 27 0 25 0;
#X connect 28 0 8 0;
#X connect 29 0 9 0;
#X connect 30 0 10 0;
#X connect 31 0 19 0;
#X connect 32 0 20 0;
#X connect 33 0 21 0;
#X connect 34 0 6 1;
#X connect 34 0 7 1;
#X connect 35 0 17 1;
#X connect 35 0 18 1;
#X restore 830 181 pd function;
#X msg 809 38 \; add-h-seg 50 100 75 1 \;;
#X msg 807 95 \; add-xy-plot 301 50 100 1 \;;
#X obj 807 134 scanner 300 40;
#X obj 847 268 * 0.25;
#X obj 889 268 * 0.25;
#X msg 806 536 \; xy-plot-point \$1 \$2 \$3 \;;
#X obj 805 514 pack 0 0 0;
#X obj 806 438 t f f;
#X obj 836 465 +;
#X obj 868 467 +;
#N canvas 286 170 714 658 function 0;
#X obj 93 46 inlet;
#X obj 55 444 outlet;
#X obj 122 446 outlet;
#X obj 31 239 t f f;
#X obj 31 266 cos;
#X obj 61 266 sin;
#X obj 30 298 *;
#X obj 78 302 *;
#X obj 122 298 dirichlet 100;
#X obj 220 297 dirichlet 100;
#X obj 219 244 dirichlet 100;
#X obj 27 161 t f f f;
#X obj 56 402 +;
#X obj 88 404 +;
#X obj 342 263 t f f;
#X obj 342 290 cos;
#X obj 372 290 sin;
#X obj 341 322 *;
#X obj 389 326 *;
#X obj 433 322 dirichlet 100;
#X obj 531 321 dirichlet 100;
#X obj 530 268 dirichlet 100;
#X obj 338 185 t f f f;
#X obj 81 94 t f f;
#X obj 31 188 - 13;
#X obj 342 212 - 29;
#X obj 122 277 - 14;
#X obj 220 276 - 13;
#X obj 219 223 - 12;
#X obj 433 301 - 30;
#X obj 531 300 - 29;
#X obj 530 247 - 28;
#X obj 122 322 expr 0.5*($f2+0.5*($f1+$f3));
#X obj 433 346 expr 0.25*($f2+0.5*($f1+$f3));
#X obj 31 210 expr 3+3.14159*$f1;
#X obj 342 234 expr 1.5+3.14159*$f1;
#X connect 0 0 23 0;
#X connect 3 0 4 0;
#X connect 3 1 5 0;
#X connect 4 0 6 0;
#X connect 5 0 7 0;
#X connect 6 0 12 0;
#X connect 7 0 13 0;
#X connect 8 0 32 0;
#X connect 9 0 32 1;
#X connect 10 0 32 2;
#X connect 11 0 24 0;
#X connect 11 1 26 0;
#X connect 11 2 27 0;
#X connect 11 2 28 0;
#X connect 12 0 1 0;
#X connect 13 0 2 0;
#X connect 14 0 15 0;
#X connect 14 1 16 0;
#X connect 15 0 17 0;
#X connect 16 0 18 0;
#X connect 17 0 12 1;
#X connect 18 0 13 1;
#X connect 19 0 33 0;
#X connect 20 0 33 1;
#X connect 21 0 33 2;
#X connect 22 0 25 0;
#X connect 22 1 29 0;
#X connect 22 2 30 0;
#X connect 22 2 31 0;
#X connect 23 0 11 0;
#X connect 23 1 22 0;
#X connect 24 0 34 0;
#X connect 25 0 35 0;
#X connect 26 0 8 0;
#X connect 27 0 9 0;
#X connect 28 0 10 0;
#X connect 29 0 19 0;
#X connect 30 0 20 0;
#X connect 31 0 21 0;
#X connect 32 0 6 1;
#X connect 32 0 7 1;
#X connect 33 0 17 1;
#X connect 33 0 18 1;
#X connect 34 0 3 0;
#X connect 35 0 14 0;
#X restore 829 404 pd function;
#X obj 806 357 scanner 300 40;
#X obj 846 491 * 0.25;
#X obj 888 491 * 0.25;
#X text 814 581 transforms;
#X msg 989 316 \; xy-plot-point \$1 \$2 \$3 \;;
#X obj 988 294 pack 0 0 0;
#X obj 989 218 t f f;
#X obj 1019 245 +;
#X obj 1051 247 +;
#N canvas 286 170 714 658 function 0;
#X obj 93 46 inlet;
#X obj 55 444 outlet;
#X obj 122 446 outlet;
#X obj 31 239 t f f;
#X obj 31 266 cos;
#X obj 61 266 sin;
#X obj 30 298 *;
#X obj 78 302 *;
#X obj 122 298 dirichlet 100;
#X obj 220 297 dirichlet 100;
#X obj 219 244 dirichlet 100;
#X obj 27 161 t f f f;
#X obj 56 402 +;
#X obj 88 404 +;
#X obj 342 263 t f f;
#X obj 342 290 cos;
#X obj 372 290 sin;
#X obj 341 322 *;
#X obj 389 326 *;
#X obj 433 322 dirichlet 100;
#X obj 531 321 dirichlet 100;
#X obj 530 268 dirichlet 100;
#X obj 338 185 t f f f;
#X obj 81 94 t f f;
#X obj 31 210 expr 1+3.14159*$f1;
#X obj 342 234 expr 3.5+3.14159*$f1;
#X obj 31 188 - 13;
#X obj 342 212 - 29;
#X obj 122 277 - 14;
#X obj 220 276 - 13;
#X obj 219 223 - 12;
#X obj 433 301 - 30;
#X obj 531 300 - 29;
#X obj 530 247 - 28;
#X obj 122 322 expr 0.5*($f2+0.5*($f1+$f3));
#X obj 433 346 expr 0*($f2+0.5*($f1+$f3));
#X connect 0 0 23 0;
#X connect 3 0 4 0;
#X connect 3 1 5 0;
#X connect 4 0 6 0;
#X connect 5 0 7 0;
#X connect 6 0 12 0;
#X connect 7 0 13 0;
#X connect 8 0 34 0;
#X connect 9 0 34 1;
#X connect 10 0 34 2;
#X connect 11 0 26 0;
#X connect 11 1 28 0;
#X connect 11 2 29 0;
#X connect 11 2 30 0;
#X connect 12 0 1 0;
#X connect 13 0 2 0;
#X connect 14 0 15 0;
#X connect 14 1 16 0;
#X connect 15 0 17 0;
#X connect 16 0 18 0;
#X connect 17 0 12 1;
#X connect 18 0 13 1;
#X connect 19 0 35 0;
#X connect 20 0 35 1;
#X connect 21 0 35 2;
#X connect 22 0 27 0;
#X connect 22 1 31 0;
#X connect 22 2 32 0;
#X connect 22 2 33 0;
#X connect 23 0 11 0;
#X connect 23 1 22 0;
#X connect 24 0 3 0;
#X connect 25 0 14 0;
#X connect 26 0 24 0;
#X connect 27 0 25 0;
#X connect 28 0 8 0;
#X connect 29 0 9 0;
#X connect 30 0 10 0;
#X connect 31 0 19 0;
#X connect 32 0 20 0;
#X connect 33 0 21 0;
#X connect 34 0 6 1;
#X connect 34 0 7 1;
#X connect 35 0 17 1;
#X connect 35 0 18 1;
#X restore 1012 184 pd function;
#X obj 989 137 scanner 300 40;
#X obj 1029 271 * 0.25;
#X obj 1071 271 * 0.25;
#X msg 988 539 \; xy-plot-point \$1 \$2 \$3 \;;
#X obj 987 517 pack 0 0 0;
#X obj 988 441 t f f;
#X obj 1018 468 +;
#X obj 1050 470 +;
#N canvas 286 170 714 658 function 0;
#X obj 93 46 inlet;
#X obj 55 444 outlet;
#X obj 122 446 outlet;
#X obj 31 239 t f f;
#X obj 31 266 cos;
#X obj 61 266 sin;
#X obj 30 298 *;
#X obj 78 302 *;
#X obj 122 298 dirichlet 100;
#X obj 220 297 dirichlet 100;
#X obj 219 244 dirichlet 100;
#X obj 27 161 t f f f;
#X obj 56 402 +;
#X obj 88 404 +;
#X obj 342 263 t f f;
#X obj 342 290 cos;
#X obj 372 290 sin;
#X obj 341 322 *;
#X obj 389 326 *;
#X obj 433 322 dirichlet 100;
#X obj 531 321 dirichlet 100;
#X obj 530 268 dirichlet 100;
#X obj 338 185 t f f f;
#X obj 81 94 t f f;
#X obj 31 188 - 13;
#X obj 342 212 - 29;
#X obj 122 277 - 14;
#X obj 220 276 - 13;
#X obj 219 223 - 12;
#X obj 433 301 - 30;
#X obj 531 300 - 29;
#X obj 530 247 - 28;
#X obj 122 322 expr 0.5*($f2+0.5*($f1+$f3));
#X obj 31 210 expr 3+3.14159*$f1;
#X obj 342 234 expr 1.5+3.14159*$f1;
#X obj 433 346 expr 0*($f2+0.5*($f1+$f3));
#X connect 0 0 23 0;
#X connect 3 0 4 0;
#X connect 3 1 5 0;
#X connect 4 0 6 0;
#X connect 5 0 7 0;
#X connect 6 0 12 0;
#X connect 7 0 13 0;
#X connect 8 0 32 0;
#X connect 9 0 32 1;
#X connect 10 0 32 2;
#X connect 11 0 24 0;
#X connect 11 1 26 0;
#X connect 11 2 27 0;
#X connect 11 2 28 0;
#X connect 12 0 1 0;
#X connect 13 0 2 0;
#X connect 14 0 15 0;
#X connect 14 1 16 0;
#X connect 15 0 17 0;
#X connect 16 0 18 0;
#X connect 17 0 12 1;
#X connect 18 0 13 1;
#X connect 19 0 35 0;
#X connect 20 0 35 1;
#X connect 21 0 35 2;
#X connect 22 0 25 0;
#X connect 22 1 29 0;
#X connect 22 2 30 0;
#X connect 22 2 31 0;
#X connect 23 0 11 0;
#X connect 23 1 22 0;
#X connect 24 0 33 0;
#X connect 25 0 34 0;
#X connect 26 0 8 0;
#X connect 27 0 9 0;
#X connect 28 0 10 0;
#X connect 29 0 19 0;
#X connect 30 0 20 0;
#X connect 31 0 21 0;
#X connect 32 0 6 1;
#X connect 32 0 7 1;
#X connect 33 0 3 0;
#X connect 34 0 14 0;
#X connect 35 0 17 1;
#X connect 35 0 18 1;
#X restore 1011 407 pd function;
#X obj 988 360 scanner 300 40;
#X obj 1028 494 * 0.25;
#X obj 1070 494 * 0.25;
#X text 996 584 processed transforms;
#X obj 1173 275 pack;
#X msg 1173 301 \; y-plot-point \$1 \$2 \;;
#X obj 1171 121 scanner 75 1.5708;
#X obj 1228 228 cos;
#X obj 1228 206 + 1;
#X obj 1228 249 * 10;
#X obj 1228 185 * 13;
#X obj 1228 162 + 1.5708;
#X obj 1290 164 t f f;
#X obj 1292 203 * 4;
#X obj 1293 225 cos;
#X obj 1293 247 * -0.5;
#X obj 1293 267 + 0.5;
#X obj 1228 272 *;
#X msg 1167 83 \; add-y-plot 76 50 100 1 \;;
#X msg 1167 44 \; add-h-seg 50 100 75 1 \;;
#X text 1193 578 IFts;
#X obj 1173 495 pack;
#X msg 1173 521 \; y-plot-point \$1 \$2 \;;
#X obj 1171 341 scanner 75 1.5708;
#X obj 1228 448 cos;
#X obj 1228 426 + 1;
#X obj 1228 469 * 10;
#X obj 1228 405 * 13;
#X obj 1290 384 t f f;
#X obj 1292 423 * 4;
#X obj 1293 445 cos;
#X obj 1293 467 * -0.5;
#X obj 1293 487 + 0.5;
#X obj 1228 492 *;
#X obj 1228 382 + 1.963;
#X obj 1342 494 pack;
#X msg 1342 520 \; y-plot-point \$1 \$2 \;;
#X obj 1340 340 scanner 75 1.5708;
#X obj 1397 447 cos;
#X obj 1397 425 + 1;
#X obj 1397 468 * 10;
#X obj 1397 404 * 13;
#X obj 1459 383 t f f;
#X obj 1481 420 * 4;
#X obj 1482 442 cos;
#X obj 1482 464 * -0.5;
#X obj 1482 484 + 0.5;
#X obj 1397 491 *;
#X obj 1397 381 + 1.963;
#X obj 1439 409 * 4;
#X obj 1440 431 cos;
#X obj 1438 495 *;
#X obj 1439 452 * -0.5;
#X obj 1440 473 + 0.5;
#X obj 1347 251 pack;
#X msg 1347 277 \; y-plot-point \$1 \$2 \;;
#X obj 1345 97 scanner 75 1.5708;
#X obj 1402 204 cos;
#X obj 1402 182 + 1;
#X obj 1402 225 * 10;
#X obj 1402 161 * 13;
#X obj 1464 140 t f f;
#X obj 1486 177 * 4;
#X obj 1487 199 cos;
#X obj 1487 221 * -0.5;
#X obj 1487 241 + 0.5;
#X obj 1402 248 *;
#X obj 1444 166 * 4;
#X obj 1445 188 cos;
#X obj 1443 252 *;
#X obj 1444 209 * -0.5;
#X obj 1445 230 + 0.5;
#X obj 1402 138 + 1.5708;
#X obj 21 497 pack;
#X msg 21 524 \; y-plot-point \$1 \$2 \;;
#X obj 67 503 +;
#X obj 67 461 cos;
#X obj 67 439 + 1;
#X obj 67 482 * 10;
#X obj 67 418 * 13;
#X obj 21 371 scanner 300 6.283;
#X connect 1 0 2 0;
#X connect 8 0 9 0;
#X connect 10 0 17 0;
#X connect 11 0 8 1;
#X connect 12 0 16 0;
#X connect 13 0 12 0;
#X connect 14 0 10 0;
#X connect 16 0 11 0;
#X connect 17 0 11 1;
#X connect 18 0 13 0;
#X connect 19 0 14 0;
#X connect 21 0 8 0;
#X connect 21 1 18 0;
#X connect 21 2 19 0;
#X connect 23 0 1 0;
#X connect 23 1 33 0;
#X connect 23 2 34 0;
#X connect 24 0 30 0;
#X connect 25 0 1 1;
#X connect 26 0 29 0;
#X connect 27 0 26 0;
#X connect 28 0 24 0;
#X connect 29 0 25 0;
#X connect 30 0 25 1;
#X connect 31 0 27 0;
#X connect 32 0 28 0;
#X connect 33 0 31 0;
#X connect 34 0 32 0;
#X connect 36 0 37 0;
#X connect 38 0 44 0;
#X connect 39 0 36 1;
#X connect 40 0 43 0;
#X connect 41 0 40 0;
#X connect 42 0 38 0;
#X connect 43 0 39 0;
#X connect 44 0 39 1;
#X connect 45 0 41 0;
#X connect 46 0 42 0;
#X connect 49 0 36 0;
#X connect 49 1 50 0;
#X connect 49 2 51 0;
#X connect 50 0 45 0;
#X connect 51 0 46 0;
#X connect 54 0 55 0;
#X connect 56 0 60 0;
#X connect 59 0 54 0;
#X connect 59 1 56 0;
#X connect 60 0 61 0;
#X connect 61 0 62 0;
#X connect 62 0 54 1;
#X connect 63 0 64 0;
#X connect 65 0 63 0;
#X connect 65 1 75 0;
#X connect 65 2 78 0;
#X connect 66 0 72 0;
#X connect 67 0 83 0;
#X connect 68 0 71 0;
#X connect 69 0 68 0;
#X connect 70 0 66 0;
#X connect 71 0 67 0;
#X connect 72 0 67 1;
#X connect 73 0 69 0;
#X connect 74 0 70 0;
#X connect 75 0 73 0;
#X connect 76 0 74 0;
#X connect 78 0 76 0;
#X connect 78 1 79 0;
#X connect 79 0 80 0;
#X connect 80 0 81 0;
#X connect 81 0 82 0;
#X connect 82 0 83 1;
#X connect 83 0 63 1;
#X connect 84 0 85 0;
#X connect 86 0 84 0;
#X connect 86 1 102 0;
#X connect 86 2 96 0;
#X connect 87 0 93 0;
#X connect 88 0 101 0;
#X connect 89 0 92 0;
#X connect 90 0 89 0;
#X connect 91 0 87 0;
#X connect 92 0 88 0;
#X connect 93 0 88 1;
#X connect 94 0 90 0;
#X connect 95 0 91 0;
#X connect 96 0 103 0;
#X connect 96 1 97 0;
#X connect 97 0 98 0;
#X connect 98 0 99 0;
#X connect 99 0 100 0;
#X connect 100 0 101 1;
#X connect 101 0 84 1;
#X connect 102 0 94 0;
#X connect 103 0 95 0;
#X connect 105 0 104 0;
#X connect 106 0 105 0;
#X connect 106 1 107 0;
#X connect 107 0 113 0;
#X connect 108 0 114 0;
#X connect 109 0 108 0;
#X connect 109 1 107 1;
#X connect 109 1 108 1;
#X connect 112 0 106 0;
#X connect 112 1 109 0;
#X connect 113 0 105 1;
#X connect 114 0 105 2;
#X connect 116 0 115 0;
#X connect 117 0 116 0;
#X connect 117 1 118 0;
#X connect 118 0 122 0;
#X connect 119 0 123 0;
#X connect 120 0 119 0;
#X connect 120 1 118 1;
#X connect 120 1 119 1;
#X connect 121 0 117 0;
#X connect 121 1 120 0;
#X connect 122 0 116 1;
#X connect 123 0 116 2;
#X connect 126 0 125 0;
#X connect 127 0 126 0;
#X connect 127 1 128 0;
#X connect 128 0 132 0;
#X connect 129 0 133 0;
#X connect 130 0 129 0;
#X connect 130 1 128 1;
#X connect 130 1 129 1;
#X connect 131 0 127 0;
#X connect 131 1 130 0;
#X connect 132 0 126 1;
#X connect 133 0 126 2;
#X connect 135 0 134 0;
#X connect 136 0 135 0;
#X connect 136 1 137 0;
#X connect 137 0 141 0;
#X connect 138 0 142 0;
#X connect 139 0 138 0;
#X connect 139 1 137 1;
#X connect 139 1 138 1;
#X connect 140 0 136 0;
#X connect 140 1 139 0;
#X connect 141 0 135 1;
#X connect 142 0 135 2;
#X connect 144 0 145 0;
#X connect 146 0 144 0;
#X connect 146 1 151 0;
#X connect 146 2 152 0;
#X connect 147 0 149 0;
#X connect 148 0 147 0;
#X connect 149 0 157 0;
#X connect 150 0 148 0;
#X connect 151 0 150 0;
#X connect 152 1 153 0;
#X connect 153 0 154 0;
#X connect 154 0 155 0;
#X connect 155 0 156 0;
#X connect 156 0 157 1;
#X connect 157 0 144 1;
#X connect 161 0 162 0;
#X connect 163 0 161 0;
#X connect 163 1 174 0;
#X connect 163 2 168 0;
#X connect 164 0 166 0;
#X connect 165 0 164 0;
#X connect 166 0 173 0;
#X connect 167 0 165 0;
#X connect 168 1 169 0;
#X connect 169 0 170 0;
#X connect 170 0 171 0;
#X connect 171 0 172 0;
#X connect 172 0 173 1;
#X connect 173 0 161 1;
#X connect 174 0 167 0;
#X connect 175 0 176 0;
#X connect 177 0 175 0;
#X connect 177 1 188 0;
#X connect 177 2 182 0;
#X connect 178 0 180 0;
#X connect 179 0 178 0;
#X connect 180 0 187 0;
#X connect 181 0 179 0;
#X connect 182 0 189 0;
#X connect 182 1 183 0;
#X connect 183 0 184 0;
#X connect 184 0 185 0;
#X connect 185 0 186 0;
#X connect 186 0 191 1;
#X connect 187 0 175 1;
#X connect 188 0 181 0;
#X connect 189 0 190 0;
#X connect 190 0 192 0;
#X connect 191 0 187 1;
#X connect 192 0 193 0;
#X connect 193 0 191 0;
#X connect 194 0 195 0;
#X connect 196 0 194 0;
#X connect 196 1 212 0;
#X connect 196 2 201 0;
#X connect 197 0 199 0;
#X connect 198 0 197 0;
#X connect 199 0 206 0;
#X connect 200 0 198 0;
#X connect 201 0 207 0;
#X connect 201 1 202 0;
#X connect 202 0 203 0;
#X connect 203 0 204 0;
#X connect 204 0 205 0;
#X connect 205 0 209 1;
#X connect 206 0 194 1;
#X connect 207 0 208 0;
#X connect 208 0 210 0;
#X connect 209 0 206 1;
#X connect 210 0 211 0;
#X connect 211 0 209 0;
#X connect 212 0 200 0;
#X connect 213 0 214 0;
#X connect 215 0 213 1;
#X connect 216 0 218 0;
#X connect 217 0 216 0;
#X connect 218 0 215 0;
#X connect 219 0 217 0;
#X connect 220 0 213 0;
#X connect 220 1 219 0;
#X restore 170 83 pd make-fig;
