#N canvas 89 36 385 415 10;
#X obj 54 285 cos~;
#X obj 54 265 *~;
#X obj 91 285 cos~;
#X obj 138 238 wrap~;
#X obj 107 238 -~;
#X obj 91 265 +~;
#X obj 85 310 -~;
#X obj 102 337 *~;
#X obj 70 337 +~;
#X obj 107 211 samphold~;
#X floatatom 107 41 4 0 127 0 - - -;
#X text 104 8 center;
#X obj 107 98 line~;
#X obj 107 78 pack 0 50;
#X obj 14 162 phasor~;
#X floatatom 14 82 4 0 127 0 - - -;
#X text 14 50 fundamental;
#X floatatom 261 103 4 0 127 0 - - -;
#X obj 261 163 line~;
#X obj 200 264 *~;
#X obj 261 143 pack 0 50;
#X obj 200 242 cos~;
#X obj 200 221 -~ 0.25;
#X obj 200 300 +~ 100;
#X obj 200 325 tabread4~ bell-curve;
#X obj 103 362 *~;
#X text 226 346 waveshaper;
#X obj 14 103 mtof;
#X obj 126 119 expr 1/$f1;
#X obj 107 58 mtof;
#X obj 107 139 *~;
#X text 260 79 bandwidth;
#X obj 261 121 mtof;
#X obj 261 194 *~;
#X obj 260 247 *~ 25;
#X text 266 264 range for table;
#X text 115 162 C.F. relative;
#X text 115 176 to fundamental;
#X text 12 63 (MIDI units);
#X text 133 360 ring mod;
#X obj 200 200 *~ 0.5;
#X text 288 182 divide by;
#X text 288 197 fundamental;
#X text 251 293 offset to middle;
#X text 250 308 of table;
#X text 102 375 |;
#X text 88 388 (OUT);
#X text 103 21 frequency;
#X connect 0 0 6 1;
#X connect 0 0 8 0;
#X connect 1 0 5 0;
#X connect 1 0 0 0;
#X connect 2 0 6 0;
#X connect 3 0 4 1;
#X connect 3 0 7 1;
#X connect 4 0 1 1;
#X connect 5 0 2 0;
#X connect 6 0 7 0;
#X connect 7 0 8 1;
#X connect 8 0 25 0;
#X connect 9 0 4 0;
#X connect 9 0 3 0;
#X connect 10 0 29 0;
#X connect 12 0 30 0;
#X connect 13 0 12 0;
#X connect 14 0 9 1;
#X connect 14 0 1 0;
#X connect 14 0 5 1;
#X connect 14 0 40 0;
#X connect 15 0 27 0;
#X connect 17 0 32 0;
#X connect 18 0 33 0;
#X connect 19 0 23 0;
#X connect 20 0 18 0;
#X connect 21 0 19 0;
#X connect 22 0 21 0;
#X connect 23 0 24 0;
#X connect 24 0 25 1;
#X connect 27 0 28 0;
#X connect 27 0 14 0;
#X connect 28 0 30 1;
#X connect 28 0 33 1;
#X connect 29 0 13 0;
#X connect 30 0 9 0;
#X connect 32 0 20 0;
#X connect 33 0 34 0;
#X connect 34 0 19 1;
#X connect 40 0 22 0;
