#N struct xy-curve float x float y float w array z xy-point;
#N struct xy-point float x float y;
#N struct v-seg float x float y float z float w;
#N struct xy-plot float x float y float w array z xy-point;
#N struct h-seg float x float y float z float w;
#N struct u-arrow float x float y float z;
#N struct circle2 float x float y float h float h2 float mh float mh2
;
#N struct circle float x float y float color float h float h2;
#N struct haxis float x float y float w float w-3;
#N struct vaxis float x float y float h float h-3;
#N struct pole float x float y float x1 float x2;
#N struct seg float x float y float dx float dy float w;
#N struct l-curve-arrow float x float y float z float z2 float z3 float
h;
#N struct d-curve-arrow float x float y float z float z2 float z3 float
h;
#N struct u-curve-arrow float x float y float z float z2 float z3 float
h;
#N struct r-curve-arrow float x float y float z float z2 float z3 float
h;
#N struct r-arrow float x float y float z;
#N struct l-arrow float x float y float z;
#N struct d-arrow float x float y float z;
#N struct rect float x float y float w float h;
#N struct frame float x float y float w float h;
#N struct y-plot float x float y float w array z y-point;
#N struct y-point float y;
#N struct thickcircle float x float y float color float h float h2
;
#N struct times float x float y;
#N struct plus float x float y;
#N struct minus float x float y;
#N struct divide float x float y;
#N canvas 138 175 294 185 10;
#N canvas 285 502 444 204 fig 1;
#X scalar xy-curve 370 48 1 \; 0 -2 \; 2 0 \; 4 2 \; 6 0 \; 8 -2 \;
10 0 \; 12 2 \; \;;
#X scalar v-seg 373 41 7 1 \;;
#X scalar v-seg 378 41 5 1 \;;
#X text 175 150 0;
#X text 67 183 (a);
#X text 267 170 (b);
#X scalar xy-plot -41 16 1 \; 220 40 \; 224 40.0253 \; 228 40.1986
\; 232 40.6734 \; 236 41.6172 \; 240 43.1634 \; 244 45.5097 \; 248
48.792 \; 252 53.1333 \; 256 58.4903 \; 260 64.6412 \; 264 71.1115
\; 268 77.2792 \; 272 82.5994 \; 276 86.7963 \; 280 89.8892 \; 284
92.0593 \; 288 93.5343 \; 292 94.5349 \; 296 95.2002 \; 300 95.6405
\; 304 95.9436 \; 308 96.1447 \; 312 96.2764 \; 316 96.3733 \; 320
96.4371 \; 324 96.4794 \; 328 96.5089 \; 332 96.5291 \; 336 96.5428
\; 340 96.5519 \; 344 96.5583 \; 348 96.5624 \; 352 96.5654 \; 356
96.5668 \; 360 96.5678 \; 364 96.5688 \; 368 96.5687 \; 372 96.5688
\; 376 96.5687 \; 380 96.5687 \; 384 96.5685 \; 388 96.5685 \; 392
96.5685 \; 396 96.5682 \; 400 96.5682 \; 404 96.5686 \; 408 96.568
\; 412 96.5679 \; 416 96.5752 \; 420 96.5819 \; \;;
#X scalar xy-plot -41 16 1 \; 220 96.5686 \; 224 96.5615 \; 228 96.5683
\; 232 96.5792 \; 236 96.6379 \; 240 96.8519 \; 244 97.434 \; 248 98.7619
\; 252 101.359 \; 256 105.739 \; 260 112.069 \; 264 119.866 \; 268
128.137 \; 272 135.743 \; 276 141.951 \; 280 146.709 \; 284 150.071
\; 288 152.342 \; 292 153.953 \; 296 155.005 \; 300 155.711 \; 304
156.186 \; 308 156.506 \; 312 156.724 \; 316 156.871 \; 320 156.974
\; 324 157.042 \; 328 157.09 \; 332 157.122 \; 336 157.145 \; 340 157.159
\; 344 157.171 \; 348 157.178 \; 352 157.182 \; 356 157.185 \; 360
157.187 \; 364 157.188 \; 368 157.189 \; 372 157.189 \; 376 157.19
\; 380 157.191 \; 384 157.19 \; 388 157.19 \; 392 157.191 \; 396 157.189
\; 400 157.189 \; 404 157.189 \; 408 157.189 \; 412 157.189 \; 416
157.189 \; 420 157.213 \; \;;
#X scalar xy-plot -41 16 1 \; 220 96.5681 \; 224 96.568 \; 228 96.5681
\; 232 96.5654 \; 236 96.5535 \; 240 96.5081 \; 244 96.3804 \; 248
96.0865 \; 252 95.4836 \; 256 94.4018 \; 260 92.631 \; 264 90.1378
\; 268 87.0529 \; 272 83.7234 \; 276 80.5544 \; 280 77.8401 \; 284
75.6982 \; 288 74.1 \; 292 72.9556 \; 296 72.1578 \; 300 71.6014 \;
304 71.2218 \; 308 70.9652 \; 312 70.7835 \; 316 70.6613 \; 320 70.5774
\; 324 70.5191 \; 328 70.4792 \; 332 70.4516 \; 336 70.4327 \; 340
70.4197 \; 344 70.4107 \; 348 70.4047 \; 352 70.4006 \; 356 70.3979
\; 360 70.3966 \; 364 70.395 \; 368 70.3943 \; 372 70.3947 \; 376 70.3936
\; 380 70.3934 \; 384 70.3934 \; 388 70.3935 \; 392 70.3934 \; 396
70.3934 \; 400 70.3936 \; 404 70.3935 \; 408 70.3935 \; 412 70.3963
\; 416 70.3935 \; 420 70.4037 \; \;;
#X scalar xy-plot -41 16 1 \; 220 96.4161 \; 224 96.5681 \; 228 96.5688
\; 232 96.562 \; 236 96.5503 \; 240 96.488 \; 244 96.3121 \; 248 95.8985
\; 252 95.0489 \; 256 93.4965 \; 260 90.9664 \; 264 87.3013 \; 268
82.6144 \; 272 77.3198 \; 276 71.8647 \; 280 66.7577 \; 284 62.2921
\; 288 58.3643 \; 292 55.1382 \; 296 52.4773 \; 300 50.294 \; 304 48.5044
\; 308 47.0356 \; 312 45.8285 \; 316 44.8298 \; 320 44.0041 \; 324
43.3207 \; 328 42.7473 \; 332 42.2707 \; 336 41.8862 \; 340 41.5388
\; 344 41.2595 \; 348 41.0257 \; 352 40.8301 \; 356 40.6668 \; 360
40.5309 \; 364 40.4194 \; 368 40.3252 \; 372 40.2491 \; 376 40.1889
\; 380 40.1377 \; 384 40.0984 \; 388 40.1295 \; 392 40.0448 \; 396
40.0279 \; 400 40.1584 \; 404 40.0081 \; 408 40.0034 \; 412 40.001
\; 416 40.0417 \; 420 40 \; \;;
#X scalar h-seg 179 56 200 1 \;;
#X scalar u-arrow 179 181 -125 \;;
#X scalar u-arrow 379 181 -125 \;;
#X scalar circle2 83 116 70 50 -70 -50 \;;
#X scalar circle 18 115 999 4 -4 \;;
#X scalar haxis 3 115 160 157 \;;
#X scalar vaxis 83 35 160 157 \;;
#X text 8 69 3;
#X text 381 111 shelf 1;
#X text 382 135 low-pass;
#X text 381 23 shelf 2;
#X text 383 83 hi-pass;
#X scalar pole 111.814 114.701 3 -3 \;;
#X scalar pole 119.814 83.701 3 -3 \;;
#X scalar pole 119.814 146.701 3 -3 \;;
#X coords 0 204 1 203 0 0 0;
#X restore 51 61 pd fig;
#N canvas 589 104 566 606 hash 0;
#X coords 0 606 1 605 0 0 0;
#X restore 205 62 pd hash;
#N canvas 150 314 1028 625 put-in-graph 0;
#X msg 810 11 \; pd-xxx clear \; start pd-xxx;
#X msg 796 566 \; add-xy-plot 101 0 0 1;
#X msg 505 561 \; start pd-xxx;
#X msg 604 563 \; add-xy-plot 101 150 150 1;
#X obj 572 501 print;
#X obj 618 476 pack 0 0 0;
#X msg 617 502 \; add-circle \$2 \$3 \$1 4 -4;
#X obj 83 216 f;
#X obj 129 217 + 1;
#X obj 17 76 bng 15 250 50 0 empty empty empty 0 -6 0 8 -262144 -1
-1;
#X obj 18 100 t b b;
#X msg 105 163 0;
#X obj 50 272 sel 1;
#X obj 116 400 pack 0 0 0;
#X obj 116 427 s xy-plot-point;
#X msg 18 149 0;
#X msg 18 127 1;
#X floatatom 231 149 5 0 0 0 - - -;
#X obj 119 324 f;
#X obj 116 261 t b f;
#X obj 117 350 t f f;
#X obj 263 213 osc~;
#X obj 160 465 env~ 8192;
#X obj 161 488 dbtorms;
#X floatatom 114 486 5 0 0 0 - - -;
#X obj 67 426 print;
#X obj 180 240 env~ 8192;
#X floatatom 177 266 5 0 0 0 - - -;
#X msg 162 160 0.125;
#X msg 242 75 \; pd dsp 1 \; pd-xxx clear \; start pd-xxx;
#X obj 321 271 rpole~;
#X floatatom 379 211 5 0 0 0 - - -;
#X obj 320 337 cpole~;
#X obj 320 370 cpole~;
#X obj 320 309 *~;
#X msg 278 262 clear;
#X obj 231 173 expr $f1*44100/100;
#X msg 609 139 \; start pd-xxx \; add-xy-plot 51 0 0 1;
#X obj 49 247 >= 50;
#X obj 58 130 metro 250;
#X obj 117 296 del 249;
#X obj 380 168 loadbang;
#X floatatom 423 375 5 0 0 0 - - -;
#X obj 422 326 loadbang;
#X obj 367 432 rzero~;
#X obj 367 483 czero~;
#X obj 367 516 czero~;
#X obj 367 461 /~;
#X msg 348 8 \; add-circle2 100 100 70 50 -70 -50 \; add-haxis 20 100
160 157 \; add-vaxis 100 20 160 157;
#X msg 892 207 0 0 0.5;
#X msg 882 183 0 -0.67 0.5;
#X msg 895 227 0 0.67 0.5;
#X msg 788 181 999 -0.67 0.25;
#X msg 798 204 999 0 0.25;
#X msg 801 225 999 0.67 0.25;
#X obj 161 536 + 40;
#X obj 148 375 expr $f1*4+220;
#X obj 543 210 tgl 15 0 empty empty empty 0 -6 0 8 -262144 -1 -1 0
1;
#X obj 321 247 *~;
#X obj 367 410 /~;
#X floatatom 432 290 5 0 0 0 - - -;
#X floatatom 472 290 5 0 0 0 - - -;
#X floatatom 511 290 5 0 0 0 - - -;
#X msg 379 190 0.25;
#X msg 423 351 1;
#X msg 483 348 0.2;
#X obj 161 512 * 80;
#X floatatom 464 464 5 0 0 0 - - -;
#X floatatom 504 464 5 0 0 0 - - -;
#X floatatom 543 464 5 0 0 0 - - -;
#X msg 607 4 \; add-h-seg 220 40 200 1 \; add-u-arrow 220 165 -125
\; add-u-arrow 420 165 -125 \; add-xy-plot 51 220 0 1;
#X msg 454 349 0.3;
#X msg 516 351 0;
#X floatatom 631 298 5 0 0 0 - - -;
#X msg 631 277 0.25;
#X obj 650 430 expr 100 + 70 * $f1;
#X obj 683 452 expr 100 + 70 * $f1;
#X obj 631 317 buttercoef-3;
#X obj 646 403 t b f;
#X msg 617 403 0;
#X obj 662 354 pack;
#X obj 656 379 unpack;
#X obj 700 353 pack;
#X obj 423 393 buttercoef-3;
#X obj 379 230 buttercoef-3;
#X obj 624 354 pack;
#X msg 804 501 \; add-circle 30 100 999 4 -4;
#X connect 5 0 4 0;
#X connect 5 0 6 0;
#X connect 7 0 8 0;
#X connect 7 0 19 0;
#X connect 7 0 38 0;
#X connect 8 0 7 1;
#X connect 9 0 10 0;
#X connect 10 0 16 0;
#X connect 10 1 11 0;
#X connect 11 0 7 1;
#X connect 12 0 15 0;
#X connect 13 0 14 0;
#X connect 13 0 25 0;
#X connect 15 0 39 0;
#X connect 16 0 39 0;
#X connect 17 0 36 0;
#X connect 18 0 20 0;
#X connect 19 0 40 0;
#X connect 19 1 18 1;
#X connect 19 1 17 0;
#X connect 20 0 13 0;
#X connect 20 1 56 0;
#X connect 21 0 26 0;
#X connect 21 0 58 0;
#X connect 22 0 23 0;
#X connect 22 0 24 0;
#X connect 23 0 66 0;
#X connect 26 0 27 0;
#X connect 28 0 21 1;
#X connect 30 0 34 0;
#X connect 31 0 84 0;
#X connect 32 0 33 0;
#X connect 32 1 33 1;
#X connect 33 0 59 0;
#X connect 34 0 32 0;
#X connect 35 0 30 0;
#X connect 35 0 32 0;
#X connect 35 0 33 0;
#X connect 36 0 21 0;
#X connect 38 0 12 0;
#X connect 39 0 7 0;
#X connect 39 0 28 0;
#X connect 40 0 18 0;
#X connect 41 0 63 0;
#X connect 42 0 83 0;
#X connect 43 0 64 0;
#X connect 44 0 47 0;
#X connect 45 0 46 0;
#X connect 45 1 46 1;
#X connect 46 0 22 0;
#X connect 47 0 45 0;
#X connect 55 0 13 2;
#X connect 56 0 13 1;
#X connect 57 0 83 1;
#X connect 57 0 84 1;
#X connect 58 0 30 0;
#X connect 59 0 44 0;
#X connect 63 0 31 0;
#X connect 64 0 42 0;
#X connect 65 0 42 0;
#X connect 66 0 55 0;
#X connect 71 0 42 0;
#X connect 72 0 42 0;
#X connect 73 0 77 0;
#X connect 74 0 73 0;
#X connect 75 0 5 1;
#X connect 76 0 5 2;
#X connect 77 2 85 0;
#X connect 77 3 80 0;
#X connect 77 3 82 0;
#X connect 77 4 80 1;
#X connect 77 5 82 1;
#X connect 78 0 79 0;
#X connect 78 1 75 0;
#X connect 79 0 5 0;
#X connect 80 0 81 0;
#X connect 81 0 78 0;
#X connect 81 1 76 0;
#X connect 82 0 81 0;
#X connect 83 0 59 1;
#X connect 83 1 47 1;
#X connect 83 2 44 1;
#X connect 83 2 67 0;
#X connect 83 3 45 2;
#X connect 83 3 46 2;
#X connect 83 3 68 0;
#X connect 83 4 45 3;
#X connect 83 4 69 0;
#X connect 83 5 46 3;
#X connect 84 0 58 1;
#X connect 84 1 34 1;
#X connect 84 2 30 1;
#X connect 84 2 60 0;
#X connect 84 3 32 2;
#X connect 84 3 33 2;
#X connect 84 3 61 0;
#X connect 84 4 32 3;
#X connect 84 4 62 0;
#X connect 84 5 33 3;
#X connect 85 0 81 0;
#X restore 156 91 pd put-in-graph;
#N canvas 22 487 559 207 xxx 0;
#X scalar xy-plot 0 0 1 \; 220 40 \; 224 40.0253 \; 228 40.1986 \;
232 40.6734 \; 236 41.6172 \; 240 43.1634 \; 244 45.5097 \; 248 48.792
\; 252 53.1333 \; 256 58.4903 \; 260 64.6412 \; 264 71.1115 \; 268
77.2792 \; 272 82.5994 \; 276 86.7963 \; 280 89.8892 \; 284 92.0593
\; 288 93.5343 \; 292 94.5349 \; 296 95.2002 \; 300 95.6405 \; 304
95.9436 \; 308 96.1447 \; 312 96.2764 \; 316 96.3733 \; 320 96.4371
\; 324 96.4794 \; 328 96.5089 \; 332 96.5291 \; 336 96.5428 \; 340
96.5519 \; 344 96.5583 \; 348 96.5624 \; 352 96.5654 \; 356 96.5668
\; 360 96.5678 \; 364 96.5688 \; 368 96.5687 \; 372 96.5688 \; 376
96.5687 \; 380 96.5687 \; 384 96.5685 \; 388 96.5685 \; 392 96.5685
\; 396 96.5682 \; 400 96.5682 \; 404 96.5686 \; 408 96.568 \; 412 96.5679
\; 416 96.5752 \; 420 96.5819 \; \;;
#X scalar circle 35 100 999 4 -4 \;;
#X scalar xy-plot 0 0 1 \; 220 96.5686 \; 224 96.5615 \; 228 96.5683
\; 232 96.5792 \; 236 96.6379 \; 240 96.8519 \; 244 97.434 \; 248 98.7619
\; 252 101.359 \; 256 105.739 \; 260 112.069 \; 264 119.866 \; 268
128.137 \; 272 135.743 \; 276 141.951 \; 280 146.709 \; 284 150.071
\; 288 152.342 \; 292 153.953 \; 296 155.005 \; 300 155.711 \; 304
156.186 \; 308 156.506 \; 312 156.724 \; 316 156.871 \; 320 156.974
\; 324 157.042 \; 328 157.09 \; 332 157.122 \; 336 157.145 \; 340 157.159
\; 344 157.171 \; 348 157.178 \; 352 157.182 \; 356 157.185 \; 360
157.187 \; 364 157.188 \; 368 157.189 \; 372 157.189 \; 376 157.19
\; 380 157.191 \; 384 157.19 \; 388 157.19 \; 392 157.191 \; 396 157.189
\; 400 157.189 \; 404 157.189 \; 408 157.189 \; 412 157.189 \; 416
157.189 \; 420 157.213 \; \;;
#X scalar xy-plot 0 0 1 \; 220 96.5681 \; 224 96.568 \; 228 96.5681
\; 232 96.5654 \; 236 96.5535 \; 240 96.5081 \; 244 96.3804 \; 248
96.0865 \; 252 95.4836 \; 256 94.4018 \; 260 92.631 \; 264 90.1378
\; 268 87.0529 \; 272 83.7234 \; 276 80.5544 \; 280 77.8401 \; 284
75.6982 \; 288 74.1 \; 292 72.9556 \; 296 72.1578 \; 300 71.6014 \;
304 71.2218 \; 308 70.9652 \; 312 70.7835 \; 316 70.6613 \; 320 70.5774
\; 324 70.5191 \; 328 70.4792 \; 332 70.4516 \; 336 70.4327 \; 340
70.4197 \; 344 70.4107 \; 348 70.4047 \; 352 70.4006 \; 356 70.3979
\; 360 70.3966 \; 364 70.395 \; 368 70.3943 \; 372 70.3947 \; 376 70.3936
\; 380 70.3934 \; 384 70.3934 \; 388 70.3935 \; 392 70.3934 \; 396
70.3934 \; 400 70.3936 \; 404 70.3935 \; 408 70.3935 \; 412 70.3963
\; 416 70.3935 \; 420 70.4037 \; \;;
#X scalar xy-plot 0 0 1 \; 220 96.4161 \; 224 96.5681 \; 228 96.5688
\; 232 96.562 \; 236 96.5503 \; 240 96.488 \; 244 96.3121 \; 248 95.8985
\; 252 95.0489 \; 256 93.4965 \; 260 90.9664 \; 264 87.3013 \; 268
82.6144 \; 272 77.3198 \; 276 71.8647 \; 280 66.7577 \; 284 62.2921
\; 288 58.3643 \; 292 55.1382 \; 296 52.4773 \; 300 50.294 \; 304 48.5044
\; 308 47.0356 \; 312 45.8285 \; 316 44.8298 \; 320 44.0041 \; 324
43.3207 \; 328 42.7473 \; 332 42.2707 \; 336 41.8862 \; 340 41.5388
\; 344 41.2595 \; 348 41.0257 \; 352 40.8301 \; 356 40.6668 \; 360
40.5309 \; 364 40.4194 \; 368 40.3252 \; 372 40.2491 \; 376 40.1889
\; 380 40.1377 \; 384 40.0984 \; 388 40.1295 \; 392 40.0448 \; 396
40.0279 \; 400 40.1584 \; 404 40.0081 \; 408 40.0034 \; 412 40.001
\; 416 40.0417 \; 420 40 \; \;;
#X scalar haxis 20 100 160 157 \;;
#X scalar vaxis 100 20 160 157 \;;
#X scalar h-seg 220 40 200 1 \;;
#X scalar u-arrow 220 165 -125 \;;
#X scalar u-arrow 420 165 -125 \;;
#X scalar xy-plot 220 0 1 \; 0 0 \; 0 0 \; 0 0 \; 0 0 \; 0 0 \; 0 0
\; 0 0 \; 0 0 \; 0 0 \; 0 0 \; 0 0 \; 0 0 \; 0 0 \; 0 0 \; 0 0 \; 0
0 \; 0 0 \; 0 0 \; 0 0 \; 0 0 \; 0 0 \; 0 0 \; 0 0 \; 0 0 \; 0 0 \;
0 0 \; 0 0 \; 0 0 \; 0 0 \; 0 0 \; 0 0 \; 0 0 \; 0 0 \; 0 0 \; 0 0
\; 0 0 \; 0 0 \; 0 0 \; 0 0 \; 0 0 \; 0 0 \; 0 0 \; 0 0 \; 0 0 \; 0
0 \; 0 0 \; 0 0 \; 0 0 \; 0 0 \; 0 0 \; 0 0 \; \;;
#X scalar circle 136.596 131.677 0 4 -4 \;;
#X scalar circle 136.596 68.3229 0 4 -4 \;;
#X scalar circle 129.011 100 0 4 -4 \;;
#X scalar circle2 100 100 70 50 -70 -50 \;;
#X coords 0 207 1 206 0 0 0;
#X restore 44 119 pd xxx;
#X obj 47 89 templates;
