#N struct r-arrow float x float y float z;
#N struct u-arrow float x float y float z;
#N struct rect float x float y float w float h;
#N struct xy-curve float x float y float w array z xy-point;
#N struct xy-point float x float y;
#N struct h-seg float x float y float z float w;
#N struct y-plot float x float y float w array z y-point;
#N struct y-point float y;
#N struct seg float x float y float dx float dy float w;
#N struct l-curve-arrow float x float y float z float z2 float z3 float
h;
#N struct circle2 float x float y float h float h2 float mh float mh2
;
#N struct vaxis float x float y float h float h-3;
#N struct xy-plot float x float y float w array z xy-point;
#N struct d-curve-arrow float x float y float z float z2 float z3 float
h;
#N struct circle float x float y float color float h float h2;
#N struct u-curve-arrow float x float y float z float z2 float z3 float
h;
#N struct r-curve-arrow float x float y float z float z2 float z3 float
h;
#N struct l-arrow float x float y float z;
#N struct d-arrow float x float y float z;
#N struct v-seg float x float y float z float w;
#N struct haxis float x float y float w float w-3;
#N struct frame float x float y float w float h;
#N struct thickcircle float x float y float color float h float h2
;
#N canvas 444 39 329 179 10;
#N canvas 49 240 354 257 fig 1;
#X text 246 60 frequency;
#X text 46 -26 amplitude;
#X scalar r-arrow 313 62 -245 \;;
#X scalar u-arrow 68 142 -80 \;;
#X scalar rect 69 62 2 64.6967 \;;
#X scalar rect 119 63 2 29.6828 \;;
#X scalar xy-curve 105 37 1 \; 0 0 \; 2 10 \; 4 20 \; 13 18 \; 2 12
\; 11 10 \; 0 4 \; \;;
#X scalar r-arrow 316 200 -247 \;;
#X scalar u-arrow 69 264 -64 \;;
#X scalar rect 133 200 2 22.6828 \;;
#X scalar xy-curve 140 194 1 \; 0 -14 \; 0 -14 \; -9 0 \; -9 -18 \;
0 -4 \; \;;
#X text 122 18 a/2;
#X scalar xy-curve 178 172 1 \; 0 0 \; 2 10 \; 4 20 \; 13 18 \; 2 12
\; 11 10 \; 0 4 \; \;;
#X scalar xy-curve 135 56 1 \; 0 -14 \; 0 -14 \; -9 0 \; -9 -18 \;
0 -4 \; \;;
#X text 62 196 0;
#X scalar rect 183 200 2 36.6828 \;;
#X text 174 3 b/2;
#X text 71 84;
#X text 74 123 a +b;
#X text 83 114 2;
#X text 102 114 2;
#X scalar h-seg 78 119 23 1 \;;
#X text 85 139 2;
#X text 116 202 -;
#X scalar xy-curve 213 59 1 \; 0 -14 \; 0 -14 \; -9 0 \; -9 -18 \;
0 -4 \; \;;
#X scalar xy-curve 294 37 1 \; 0 0 \; 2 10 \; 4 20 \; 13 18 \; 2 12
\; 11 10 \; 0 4 \; \;;
#X text 194 200 2;
#X text 285 201 2;
#X scalar rect 202 63 2 18.6828 \;;
#X scalar rect 255 63 2 28.6828 \;;
#X scalar rect 298 63 2 41.6828 \;;
#X scalar xy-curve 258 38 1 \; 0 0 \; 2 10 \; 4 20 \; 13 18 \; 2 12
\; 11 10 \; 0 4 \; \;;
#X scalar xy-curve 251 58 1 \; 0 -14 \; 0 -14 \; -9 0 \; -9 -18 \;
0 -4 \; \;;
#X text 251 201 +;
#X text 26 0 (a);
#X text 24 147 (b);
#X coords 0 257 1 256 0 0 0;
#X restore 51 61 pd fig;
#N canvas 85 314 697 444 make-tables 0;
#N canvas 0 0 450 300 graph1 0;
#X array spectrum1 100 float 0;
#X coords 0 0.5 99 0 256 130 1;
#X restore 261 19 graph;
#X restore 170 63 pd make-tables;
#N canvas 382 99 859 681 xfer-to-fig 1;
#X obj 136 124 until;
#X obj 138 99 t b b;
#X obj 139 154 f;
#X msg 190 115 0;
#X obj 225 135 + 1;
#X obj 136 245 t f f;
#X obj 136 297 pack;
#X obj 138 76 bng 15 250 50 0 empty empty empty 0 -6 0 8 -262144 -1
-1;
#N canvas 0 0 420 604 z 0;
#X scalar r-arrow 375 75 -300 \;;
#X scalar u-arrow 75 155 -80 \;;
#X scalar rect 75 75 1 48.2687 \;;
#X scalar rect 79 75 1 47.2508 \;;
#X scalar rect 83 75 1 44.4857 \;;
#X scalar rect 87 75 1 41.6334 \;;
#X scalar rect 91 75 1 39.7498 \;;
#X scalar rect 95 75 1 37.0018 \;;
#X scalar rect 99 75 1 34.3779 \;;
#X scalar rect 103 75 1 34.5863 \;;
#X scalar rect 107 75 1 37.5938 \;;
#X scalar rect 111 75 1 40.594 \;;
#X scalar rect 115 75 1 43.2677 \;;
#X scalar rect 119 75 1 46.6957 \;;
#X scalar rect 123 75 1 51.3807 \;;
#X scalar rect 127 75 1 53.7501 \;;
#X scalar rect 131 75 1 55.9265 \;;
#X scalar rect 135 75 1 56.8799 \;;
#X scalar rect 139 75 1 57.1147 \;;
#X scalar rect 143 75 1 57.1503 \;;
#X scalar rect 147 75 1 56.4021 \;;
#X scalar rect 151 75 1 55.5791 \;;
#X scalar rect 155 75 1 52.6967 \;;
#X scalar rect 159 75 1 48.6768 \;;
#X scalar rect 163 75 1 43.5529 \;;
#X scalar rect 167 75 1 37.79 \;;
#X scalar rect 171 75 1 33.0624 \;;
#X scalar rect 175 75 1 29.7521 \;;
#X scalar rect 179 75 1 26.5557 \;;
#X scalar rect 183 75 1 24.5676 \;;
#X scalar rect 187 75 1 23.6855 \;;
#X scalar rect 191 75 1 23.6536 \;;
#X scalar rect 195 75 1 23.6828 \;;
#X scalar rect 199 75 1 24.2248 \;;
#X scalar rect 203 75 1 24.9024 \;;
#X scalar rect 207 75 1 26.2758 \;;
#X scalar rect 211 75 1 27.2789 \;;
#X scalar rect 215 75 1 28.7395 \;;
#X scalar rect 219 75 1 29.9643 \;;
#X scalar rect 223 75 1 31.1954 \;;
#X scalar rect 227 75 1 32.6899 \;;
#X scalar rect 231 75 1 33.5794 \;;
#X scalar rect 235 75 1 34.0291 \;;
#X scalar rect 239 75 1 34.6499 \;;
#X scalar rect 243 75 1 34.615 \;;
#X scalar rect 247 75 1 34.4262 \;;
#X scalar rect 251 75 1 32.8673 \;;
#X scalar rect 255 75 1 30.1322 \;;
#X scalar rect 259 75 1 25.4793 \;;
#X scalar rect 263 75 1 21.8052 \;;
#X scalar rect 267 75 1 18.3595 \;;
#X scalar rect 271 75 1 14.7184 \;;
#X scalar rect 275 75 1 11.6999 \;;
#X scalar rect 279 75 1 8.65374 \;;
#X scalar rect 283 75 1 5.54847 \;;
#X scalar rect 287 75 1 5.0504 \;;
#X scalar rect 291 75 1 4.05485 \;;
#X scalar rect 295 75 1 2.51903 \;;
#X scalar rect 299 75 1 1.72476 \;;
#X scalar rect 303 75 1 0.883399 \;;
#X scalar rect 307 75 1 0.571371 \;;
#X scalar rect 311 75 1 1.22525 \;;
#X scalar rect 315 75 1 0.558128 \;;
#X scalar rect 319 75 1 0.576916 \;;
#X scalar rect 323 75 1 0.438809 \;;
#X scalar rect 327 75 1 0 \;;
#X scalar y-plot 75 76 1 \; 48.2687 \; 48.2687 \; 48.2687 \; 47.9378
\; 47.2508 \; 46.602 \; 45.9568 \; 45.2802 \; 44.4857 \; 43.5474 \;
42.6613 \; 42.0677 \; 41.6334 \; 41.2419 \; 40.8159 \; 40.3464 \; 39.7498
\; 39.0665 \; 38.3593 \; 37.6806 \; 37.0018 \; 36.3017 \; 35.6078 \;
34.967 \; 34.3779 \; 33.9627 \; 33.8692 \; 34.1147 \; 34.5863 \; 35.2583
\; 36.0428 \; 36.8397 \; 37.5938 \; 38.348 \; 39.1116 \; 39.8673 \;
40.594 \; 41.2784 \; 41.9483 \; 42.5981 \; 43.2677 \; 44.0133 \; 44.895
\; 45.8236 \; 46.6957 \; 47.5742 \; 48.5976 \; 50.0152 \; 51.3807 \;
52.2677 \; 52.7146 \; 53.0763 \; 53.7501 \; 54.443 \; 55.0526 \; 55.5339
\; 55.9265 \; 56.2007 \; 56.4137 \; 56.6299 \; 56.8799 \; 57.0828 \;
57.1496 \; 57.1406 \; 57.1147 \; 57.1147 \; 57.1147 \; 57.1391 \; 57.1503
\; 57.0911 \; 56.8914 \; 56.643 \; 56.4021 \; 56.1758 \; 55.9552 \;
55.822 \; 55.5791 \; 54.9773 \; 54.0512 \; 53.1199 \; 52.6967 \; 52.2733
\; 51.4585 \; 50.1233 \; 48.6768 \; 47.5208 \; 46.4099 \; 45.1277 \;
43.5529 \; 41.9364 \; 40.4858 \; 39.1352 \; 37.79 \; 36.3771 \; 35.0477
\; 33.963 \; 33.0624 \; 32.2093 \; 31.2443 \; 30.3559 \; 29.7521 \;
29.345 \; 28.8458 \; 27.7294 \; 26.5557 \; 25.6647 \; 25.1669 \; 24.8343
\; 24.5676 \; 24.3546 \; 24.1384 \; 23.8884 \; 23.6855 \; 23.6187 \;
23.6277 \; 23.6536 \; 23.6536 \; 23.6536 \; 23.6292 \; 23.618 \; 23.6828
\; 23.9114 \; 24.1487 \; 24.2396 \; 24.2248 \; 24.2381 \; 24.4311 \;
24.6762 \; 24.9024 \; 25.1098 \; 25.3693 \; 25.8085 \; 26.2758 \; 26.6521
\; 26.8894 \; 27.0868 \; 27.2789 \; 27.5006 \; 27.8201 \; 28.2807 \;
28.7395 \; 29.0237 \; 29.234 \; 29.5074 \; 29.9643 \; 30.4265 \; 30.7326
\; 30.9434 \; 31.1954 \; 31.648 \; 32.1127 \; 32.4608 \; 32.6899 \;
32.8842 \; 33.1105 \; 33.3367 \; 33.5794 \; 33.8262 \; 34.0225 \; 34.0445
\; 34.0291 \; 34.109 \; 34.3449 \; 34.5756 \; 34.6499 \; 34.6408 \;
34.615 \; 34.615 \; 34.615 \; 34.6394 \; 34.6506 \; 34.597 \; 34.4262
\; 34.1667 \; 33.7971 \; 33.3449 \; 32.8673 \; 32.5078 \; 32.0387 \;
31.2468 \; 30.1322 \; 28.908 \; 27.7712 \; 26.6399 \; 25.4793 \; 24.3038
\; 23.2257 \; 22.457 \; 21.8052 \; 21.0932 \; 20.2053 \; 19.2738 \;
18.3595 \; 17.4545 \; 16.5421 \; 15.6094 \; 14.7184 \; 13.9728 \; 13.3095
\; 12.605 \; 11.6999 \; 10.7827 \; 10.0019 \; 9.33742 \; 8.65374 \;
7.72181 \; 6.80553 \; 6.05861 \; 5.54847 \; 5.21576 \; 5.17933 \; 5.21015
\; 5.0504 \; 4.57858 \; 4.11719 \; 4.02299 \; 4.05485 \; 3.95764 \;
3.54537 \; 3.04264 \; 2.51903 \; 2.04413 \; 1.71572 \; 1.69154 \; 1.72476
\; 1.62553 \; 1.39961 \; 1.14064 \; 0.883399 \; 0.662694 \; 0.531445
\; 0.507047 \; 0.571371 \; 0.786118 \; 1.02725 \; 1.19198 \; 1.22525
\; 1.1698 \; 0.968648 \; 0.726647 \; 0.558128 \; 0.541108 \; 0.56758
\; 0.576916 \; 0.576916 \; 0.584411 \; 0.612144 \; 0.598125 \; 0.438809
\; 0.197156 \; 0 \; 0 \; 0 \; 0 \; 0 \; 0 \; \;;
#X scalar r-arrow 375 175 -300 \;;
#X scalar u-arrow 75 255 -80 \;;
#X scalar rect 98 175 2 34.967 \;;
#X scalar rect 142 175 2 57.1391 \;;
#X scalar rect 146 175 2 56.643 \;;
#X scalar rect 175 175 2 29.7521 \;;
#X scalar rect 225 175 2 32.1127 \;;
#X scalar rect 242 175 2 34.615 \;;
#X scalar y-plot 75 176 1 \; 48.2687 \; 48.2687 \; 48.2687 \; 47.9378
\; 47.2508 \; 46.602 \; 45.9568 \; 45.2802 \; 44.4857 \; 43.5474 \;
42.6613 \; 42.0677 \; 41.6334 \; 41.2419 \; 40.8159 \; 40.3464 \; 39.7498
\; 39.0665 \; 38.3593 \; 37.6806 \; 37.0018 \; 36.3017 \; 35.6078 \;
34.967 \; 34.3779 \; 33.9627 \; 33.8692 \; 34.1147 \; 34.5863 \; 35.2583
\; 36.0428 \; 36.8397 \; 37.5938 \; 38.348 \; 39.1116 \; 39.8673 \;
40.594 \; 41.2784 \; 41.9483 \; 42.5981 \; 43.2677 \; 44.0133 \; 44.895
\; 45.8236 \; 46.6957 \; 47.5742 \; 48.5976 \; 50.0152 \; 51.3807 \;
52.2677 \; 52.7146 \; 53.0763 \; 53.7501 \; 54.443 \; 55.0526 \; 55.5339
\; 55.9265 \; 56.2007 \; 56.4137 \; 56.6299 \; 56.8799 \; 57.0828 \;
57.1496 \; 57.1406 \; 57.1147 \; 57.1147 \; 57.1147 \; 57.1391 \; 57.1503
\; 57.0911 \; 56.8914 \; 56.643 \; 56.4021 \; 56.1758 \; 55.9552 \;
55.822 \; 55.5791 \; 54.9773 \; 54.0512 \; 53.1199 \; 52.6967 \; 52.2733
\; 51.4585 \; 50.1233 \; 48.6768 \; 47.5208 \; 46.4099 \; 45.1277 \;
43.5529 \; 41.9364 \; 40.4858 \; 39.1352 \; 37.79 \; 36.3771 \; 35.0477
\; 33.963 \; 33.0624 \; 32.2093 \; 31.2443 \; 30.3559 \; 29.7521 \;
29.345 \; 28.8458 \; 27.7294 \; 26.5557 \; 25.6647 \; 25.1669 \; 24.8343
\; 24.5676 \; 24.3546 \; 24.1384 \; 23.8884 \; 23.6855 \; 23.6187 \;
23.6277 \; 23.6536 \; 23.6536 \; 23.6536 \; 23.6292 \; 23.618 \; 23.6828
\; 23.9114 \; 24.1487 \; 24.2396 \; 24.2248 \; 24.2381 \; 24.4311 \;
24.6762 \; 24.9024 \; 25.1098 \; 25.3693 \; 25.8085 \; 26.2758 \; 26.6521
\; 26.8894 \; 27.0868 \; 27.2789 \; 27.5006 \; 27.8201 \; 28.2807 \;
28.7395 \; 29.0237 \; 29.234 \; 29.5074 \; 29.9643 \; 30.4265 \; 30.7326
\; 30.9434 \; 31.1954 \; 31.648 \; 32.1127 \; 32.4608 \; 32.6899 \;
32.8842 \; 33.1105 \; 33.3367 \; 33.5794 \; 33.8262 \; 34.0225 \; 34.0445
\; 34.0291 \; 34.109 \; 34.3449 \; 34.5756 \; 34.6499 \; 34.6408 \;
34.615 \; 34.615 \; 34.615 \; 34.6394 \; 34.6506 \; 34.597 \; 34.4262
\; 34.1667 \; 33.7971 \; 33.3449 \; 32.8673 \; 32.5078 \; 32.0387 \;
31.2468 \; 30.1322 \; 28.908 \; 27.7712 \; 26.6399 \; 25.4793 \; 24.3038
\; 23.2257 \; 22.457 \; 21.8052 \; 21.0932 \; 20.2053 \; 19.2738 \;
18.3595 \; 17.4545 \; 16.5421 \; 15.6094 \; 14.7184 \; 13.9728 \; 13.3095
\; 12.605 \; 11.6999 \; 10.7827 \; 10.0019 \; 9.33742 \; 8.65374 \;
7.72181 \; 6.80553 \; 6.05861 \; 5.54847 \; 5.21576 \; 5.17933 \; 5.21015
\; 5.0504 \; 4.57858 \; 4.11719 \; 4.02299 \; 4.05485 \; 3.95764 \;
3.54537 \; 3.04264 \; 2.51903 \; 2.04413 \; 1.71572 \; 1.69154 \; 1.72476
\; 1.62553 \; 1.39961 \; 1.14064 \; 0.883399 \; 0.662694 \; 0.531445
\; 0.507047 \; 0.571371 \; 0.786118 \; 1.02725 \; 1.19198 \; 1.22525
\; 1.1698 \; 0.968648 \; 0.726647 \; 0.558128 \; 0.541108 \; 0.56758
\; 0.576916 \; 0.576916 \; 0.584411 \; 0.612144 \; 0.598125 \; 0.438809
\; 0.197156 \; 0 \; 0 \; 0 \; 0 \; 0 \; 0 \; \;;
#X scalar r-arrow 375 275 -300 \;;
#X scalar u-arrow 75 355 -80 \;;
#X scalar rect 75 275 2 48.2687 \;;
#X scalar rect 115 275 2 43.2677 \;;
#X scalar rect 155 275 2 52.6967 \;;
#X scalar rect 195 275 2 23.6828 \;;
#X scalar rect 235 275 2 34.0291 \;;
#X scalar rect 275 275 2 11.6999 \;;
#X scalar y-plot 75 276 1 \; 48.2687 \; 48.2687 \; 48.2687 \; 47.9378
\; 47.2508 \; 46.602 \; 45.9568 \; 45.2802 \; 44.4857 \; 43.5474 \;
42.6613 \; 42.0677 \; 41.6334 \; 41.2419 \; 40.8159 \; 40.3464 \; 39.7498
\; 39.0665 \; 38.3593 \; 37.6806 \; 37.0018 \; 36.3017 \; 35.6078 \;
34.967 \; 34.3779 \; 33.9627 \; 33.8692 \; 34.1147 \; 34.5863 \; 35.2583
\; 36.0428 \; 36.8397 \; 37.5938 \; 38.348 \; 39.1116 \; 39.8673 \;
40.594 \; 41.2784 \; 41.9483 \; 42.5981 \; 43.2677 \; 44.0133 \; 44.895
\; 45.8236 \; 46.6957 \; 47.5742 \; 48.5976 \; 50.0152 \; 51.3807 \;
52.2677 \; 52.7146 \; 53.0763 \; 53.7501 \; 54.443 \; 55.0526 \; 55.5339
\; 55.9265 \; 56.2007 \; 56.4137 \; 56.6299 \; 56.8799 \; 57.0828 \;
57.1496 \; 57.1406 \; 57.1147 \; 57.1147 \; 57.1147 \; 57.1391 \; 57.1503
\; 57.0911 \; 56.8914 \; 56.643 \; 56.4021 \; 56.1758 \; 55.9552 \;
55.822 \; 55.5791 \; 54.9773 \; 54.0512 \; 53.1199 \; 52.6967 \; 52.2733
\; 51.4585 \; 50.1233 \; 48.6768 \; 47.5208 \; 46.4099 \; 45.1277 \;
43.5529 \; 41.9364 \; 40.4858 \; 39.1352 \; 37.79 \; 36.3771 \; 35.0477
\; 33.963 \; 33.0624 \; 32.2093 \; 31.2443 \; 30.3559 \; 29.7521 \;
29.345 \; 28.8458 \; 27.7294 \; 26.5557 \; 25.6647 \; 25.1669 \; 24.8343
\; 24.5676 \; 24.3546 \; 24.1384 \; 23.8884 \; 23.6855 \; 23.6187 \;
23.6277 \; 23.6536 \; 23.6536 \; 23.6536 \; 23.6292 \; 23.618 \; 23.6828
\; 23.9114 \; 24.1487 \; 24.2396 \; 24.2248 \; 24.2381 \; 24.4311 \;
24.6762 \; 24.9024 \; 25.1098 \; 25.3693 \; 25.8085 \; 26.2758 \; 26.6521
\; 26.8894 \; 27.0868 \; 27.2789 \; 27.5006 \; 27.8201 \; 28.2807 \;
28.7395 \; 29.0237 \; 29.234 \; 29.5074 \; 29.9643 \; 30.4265 \; 30.7326
\; 30.9434 \; 31.1954 \; 31.648 \; 32.1127 \; 32.4608 \; 32.6899 \;
32.8842 \; 33.1105 \; 33.3367 \; 33.5794 \; 33.8262 \; 34.0225 \; 34.0445
\; 34.0291 \; 34.109 \; 34.3449 \; 34.5756 \; 34.6499 \; 34.6408 \;
34.615 \; 34.615 \; 34.615 \; 34.6394 \; 34.6506 \; 34.597 \; 34.4262
\; 34.1667 \; 33.7971 \; 33.3449 \; 32.8673 \; 32.5078 \; 32.0387 \;
31.2468 \; 30.1322 \; 28.908 \; 27.7712 \; 26.6399 \; 25.4793 \; 24.3038
\; 23.2257 \; 22.457 \; 21.8052 \; 21.0932 \; 20.2053 \; 19.2738 \;
18.3595 \; 17.4545 \; 16.5421 \; 15.6094 \; 14.7184 \; 13.9728 \; 13.3095
\; 12.605 \; 11.6999 \; 10.7827 \; 10.0019 \; 9.33742 \; 8.65374 \;
7.72181 \; 6.80553 \; 6.05861 \; 5.54847 \; 5.21576 \; 5.17933 \; 5.21015
\; 5.0504 \; 4.57858 \; 4.11719 \; 4.02299 \; 4.05485 \; 3.95764 \;
3.54537 \; 3.04264 \; 2.51903 \; 2.04413 \; 1.71572 \; 1.69154 \; 1.72476
\; 1.62553 \; 1.39961 \; 1.14064 \; 0.883399 \; 0.662694 \; 0.531445
\; 0.507047 \; 0.571371 \; 0.786118 \; 1.02725 \; 1.19198 \; 1.22525
\; 1.1698 \; 0.968648 \; 0.726647 \; 0.558128 \; 0.541108 \; 0.56758
\; 0.576916 \; 0.576916 \; 0.584411 \; 0.612144 \; 0.598125 \; 0.438809
\; 0.197156 \; 0 \; 0 \; 0 \; 0 \; 0 \; 0 \; \;;
#X coords 0 604 1 603 0 0 0;
#X restore 25 112 pd z;
#X msg 23 17 \; pd-z clear;
#X msg 24 62 \; start pd-z \;;
#X obj 135 467 until;
#X obj 137 442 t b b;
#X obj 138 497 f;
#X msg 189 458 0;
#X obj 224 478 + 1;
#X obj 138 553 t f f;
#X obj 138 588 pack;
#X obj 137 419 bng 15 250 50 0 empty empty empty 0 -6 0 8 -262144 -1
-1;
#X obj 224 501 sel 255;
#X msg 138 619 \; y-plot-point \$1 \$2 \;;
#X obj 191 543 / 2.55;
#X obj 225 158 sel 6;
#X obj 136 271 expr 75 + $f1;
#X obj 191 245 tabread4 spectrum1;
#X obj 191 566 tabread4 spectrum1;
#X obj 191 224 / 2.55;
#X obj 138 187 map10 0 40 80 120 160 200;
#X obj 191 298 * 150;
#X obj 191 590 * 150;
#X msg 136 328 \; add-rect \$1 275 2 \$2 \;;
#X msg 135 378 \; add-y-plot 256 75 276 1 \;;
#X msg 134 19 \; add-r-arrow 375 275 -300 -297 \; add-u-arrow 75 355
-80 -77;
#X obj 380 125 until;
#X obj 382 100 t b b;
#X obj 383 155 f;
#X msg 434 116 0;
#X obj 469 136 + 1;
#X obj 380 246 t f f;
#X obj 380 298 pack;
#X obj 382 77 bng 15 250 50 0 empty empty empty 0 -6 0 8 -262144 -1
-1;
#X obj 379 468 until;
#X obj 381 443 t b b;
#X obj 382 498 f;
#X msg 433 459 0;
#X obj 468 479 + 1;
#X obj 382 554 t f f;
#X obj 382 589 pack;
#X obj 381 420 bng 15 250 50 0 empty empty empty 0 -6 0 8 -262144 -1
-1;
#X obj 468 502 sel 255;
#X msg 382 620 \; y-plot-point \$1 \$2 \;;
#X obj 435 544 / 2.55;
#X obj 469 159 sel 6;
#X obj 380 272 expr 75 + $f1;
#X obj 435 246 tabread4 spectrum1;
#X obj 435 567 tabread4 spectrum1;
#X obj 435 225 / 2.55;
#X obj 435 299 * 150;
#X obj 435 591 * 150;
#X msg 378 20 \; add-r-arrow 375 175 -300 -297 \; add-u-arrow 75 255
-80 -77;
#X msg 380 329 \; add-rect \$1 175 2 \$2 \;;
#X msg 378 379 \; add-y-plot 256 75 176 1 \;;
#X obj 382 188 map10 23 67 71 100 150 167;
#X obj 629 124 until;
#X obj 631 99 t b b;
#X obj 632 154 f;
#X msg 683 115 0;
#X obj 718 135 + 1;
#X obj 629 245 t f f;
#X obj 629 297 pack;
#X obj 631 76 bng 15 250 50 0 empty empty empty 0 -6 0 8 -262144 -1
-1;
#X obj 628 467 until;
#X obj 630 442 t b b;
#X obj 631 497 f;
#X msg 682 458 0;
#X obj 717 478 + 1;
#X obj 631 553 t f f;
#X obj 631 588 pack;
#X obj 630 419 bng 15 250 50 0 empty empty empty 0 -6 0 8 -262144 -1
-1;
#X obj 717 501 sel 255;
#X msg 631 619 \; y-plot-point \$1 \$2 \;;
#X obj 684 543 / 2.55;
#X obj 629 271 expr 75 + $f1;
#X obj 684 245 tabread4 spectrum1;
#X obj 684 566 tabread4 spectrum1;
#X obj 684 224 / 2.55;
#X obj 684 298 * 150;
#X obj 684 590 * 150;
#X msg 627 19 \; add-r-arrow 375 75 -300 -297 \; add-u-arrow 75 155
-80 -77;
#X msg 629 328 \; add-rect \$1 75 1 \$2 \;;
#X msg 627 378 \; add-y-plot 256 75 76 1 \;;
#X obj 631 187 * 4;
#X obj 718 158 sel 64;
#X connect 0 0 2 0;
#X connect 1 0 0 0;
#X connect 1 1 3 0;
#X connect 2 0 4 0;
#X connect 2 0 27 0;
#X connect 3 0 2 1;
#X connect 4 0 2 1;
#X connect 4 0 22 0;
#X connect 5 0 23 0;
#X connect 5 1 26 0;
#X connect 6 0 30 0;
#X connect 7 0 1 0;
#X connect 11 0 13 0;
#X connect 12 0 11 0;
#X connect 12 1 14 0;
#X connect 13 0 15 0;
#X connect 13 0 16 0;
#X connect 14 0 13 1;
#X connect 15 0 13 1;
#X connect 15 0 19 0;
#X connect 16 0 17 0;
#X connect 16 1 21 0;
#X connect 17 0 20 0;
#X connect 18 0 12 0;
#X connect 19 0 11 1;
#X connect 21 0 25 0;
#X connect 22 0 0 1;
#X connect 23 0 6 0;
#X connect 24 0 28 0;
#X connect 25 0 29 0;
#X connect 26 0 24 0;
#X connect 27 0 5 0;
#X connect 28 0 6 1;
#X connect 29 0 17 1;
#X connect 33 0 35 0;
#X connect 34 0 33 0;
#X connect 34 1 36 0;
#X connect 35 0 37 0;
#X connect 35 0 62 0;
#X connect 36 0 35 1;
#X connect 37 0 35 1;
#X connect 37 0 52 0;
#X connect 38 0 53 0;
#X connect 38 1 56 0;
#X connect 39 0 60 0;
#X connect 40 0 34 0;
#X connect 41 0 43 0;
#X connect 42 0 41 0;
#X connect 42 1 44 0;
#X connect 43 0 45 0;
#X connect 43 0 46 0;
#X connect 44 0 43 1;
#X connect 45 0 43 1;
#X connect 45 0 49 0;
#X connect 46 0 47 0;
#X connect 46 1 51 0;
#X connect 47 0 50 0;
#X connect 48 0 42 0;
#X connect 49 0 41 1;
#X connect 51 0 55 0;
#X connect 52 0 33 1;
#X connect 53 0 39 0;
#X connect 54 0 57 0;
#X connect 55 0 58 0;
#X connect 56 0 54 0;
#X connect 57 0 39 1;
#X connect 58 0 47 1;
#X connect 62 0 38 0;
#X connect 63 0 65 0;
#X connect 64 0 63 0;
#X connect 64 1 66 0;
#X connect 65 0 67 0;
#X connect 65 0 91 0;
#X connect 66 0 65 1;
#X connect 67 0 65 1;
#X connect 67 0 92 0;
#X connect 68 0 82 0;
#X connect 68 1 85 0;
#X connect 69 0 89 0;
#X connect 70 0 64 0;
#X connect 71 0 73 0;
#X connect 72 0 71 0;
#X connect 72 1 74 0;
#X connect 73 0 75 0;
#X connect 73 0 76 0;
#X connect 74 0 73 1;
#X connect 75 0 73 1;
#X connect 75 0 79 0;
#X connect 76 0 77 0;
#X connect 76 1 81 0;
#X connect 77 0 80 0;
#X connect 78 0 72 0;
#X connect 79 0 71 1;
#X connect 81 0 84 0;
#X connect 82 0 69 0;
#X connect 83 0 86 0;
#X connect 84 0 87 0;
#X connect 85 0 83 0;
#X connect 86 0 69 1;
#X connect 87 0 77 1;
#X connect 91 0 68 0;
#X connect 92 0 63 1;
#X restore 170 83 pd xfer-to-fig;
#X obj 170 42 templates;
