#N struct frame float x float y float w float h;
#N struct xy-curve float x float y float w array z xy-point;
#N struct xy-point float x float y;
#N struct d-arrow float x float y float z;
#N struct v-seg float x float y float z float w;
#N struct h-seg float x float y float z float w;
#N struct l-arrow float x float y float z;
#N struct r-arrow float x float y float z;
#N struct plus float x float y;
#N struct times float x float y;
#N struct minus float x float y;
#N struct seg float x float y float dx float dy float w;
#N struct l-curve-arrow float x float y float z float z2 float z3 float
h;
#N struct circle2 float x float y float h float h2 float mh float mh2
;
#N struct vaxis float x float y float h float h-3;
#N struct xy-plot float x float y float w array z xy-point;
#N struct d-curve-arrow float x float y float z float z2 float z3 float
h;
#N struct circle float x float y float color float h float h2;
#N struct u-curve-arrow float x float y float z float z2 float z3 float
h;
#N struct r-curve-arrow float x float y float z float z2 float z3 float
h;
#N struct u-arrow float x float y float z;
#N struct rect float x float y float w float h;
#N struct haxis float x float y float w float w-3;
#N struct y-plot float x float y float w array z y-point;
#N struct y-point float y;
#N struct thickcircle float x float y float color float h float h2
;
#N struct divide float x float y;
#N canvas 40 439 294 185 10;
#N canvas 313 588 335 232 fig 0;
#X scalar frame 32 112 108 30 \;;
#X text 70 96 R;
#X scalar xy-curve 89 127 1 \; -1.95774 -12.3607 \; -0.492465 -6.25737
\; 0 0 \; -0.492465 6.25737 \; -1.95774 12.3607 \; \;;
#X scalar xy-curve 142 127 1 \; -78.0422 12.3608 \; -79.5075 6.25747
\; -80 0.000101407 \; -79.5076 -6.25727 \; -78.0423 -12.3606 \; \;
;
#X scalar d-arrow 89 143 32 \;;
#X scalar d-arrow 38 42 69 \;;
#X scalar v-seg 89 40 27 1 \;;
#X scalar d-arrow 38 143 34 \;;
#X scalar d-arrow 66 42 69 \;;
#X scalar d-arrow 66 143 35 \;;
#X scalar h-seg 90 41 79 1 \;;
#X scalar d-arrow 130 143 12 \;;
#X scalar v-seg 169 40 135 1 \;;
#X scalar h-seg 89 175 81 1 \;;
#X scalar v-seg 130 56 10 1 \;;
#X scalar h-seg 130 56 17 1 \;;
#X scalar h-seg 130 155 18 1 \;;
#X scalar v-seg 148 55 100 1 \;;
#X scalar frame 236 91 13 38 \;;
#X scalar d-arrow 242 160 33 \;;
#X scalar d-arrow 243 77 14 \;;
#X scalar l-arrow 255 68 8 \;;
#X scalar v-seg 264 67 37 1 \;;
#X scalar d-arrow 243 35 23 \;;
#X scalar h-seg 243 174 22 1 \;;
#X scalar d-arrow 242 130 14 \;;
#X scalar frame 273 43 17 16 \;;
#X scalar l-arrow 254 151 28 \;;
#X scalar v-seg 282 59 92 1 \;;
#X scalar frame 235 59 18 17 \;;
#X scalar l-arrow 292 50 10 \;;
#X text 305 174 c;
#X scalar l-arrow 275 113 17 \;;
#X text 295 111 c;
#X scalar d-arrow 264 122 52 \;;
#X text 238 115 d;
#X text 84 6 (a);
#X text 230 7 (b);
#X scalar frame 80 67 18 31 \;;
#X text 81 137 d;
#X text 88 142 1;
#X scalar frame 122 67 18 30 \;;
#X text 123 137 d;
#X text 130 142 j;
#X text 98 139 ...;
#X text 41 124 ...;
#X scalar d-arrow 89 98 14 \;;
#X text 94 71 ...;
#X text 39 58 ...;
#X scalar d-arrow 130 98 14 \;;
#X scalar r-arrow 273 51 -30 \;;
#X text 43 18 IN;
#X text 33 35 x;
#X text 40 40 1;
#X text 59 35 x;
#X text 42 197 1;
#X text 35 191 y;
#X text 61 191 y;
#X text 43 211 OUT;
#X text 151 111 w;
#X text 171 111 w;
#X text 66 40 k;
#X text 68 197 k;
#X text 178 118 1;
#X text 158 116 j;
#X scalar plus 237 146 \;;
#X scalar frame 234 144 16 16 \;;
#X scalar frame 257 105 17 16 \;;
#X scalar times 261 108 \;;
#X scalar times 277 46 \;;
#X scalar minus 239 62 \;;
#X coords 0 232 1 231 0 0 0;
#X restore 51 61 pd fig;
#X obj 56 88 templates;
