#N canvas 39 16 405 349 10;
#X floatatom 43 265 5 0 0 0 - - -;
#X obj 20 222 bp~;
#X obj 20 193 bp~;
#X floatatom 28 150 5 0 0 0 - - -;
#X floatatom 74 179 3 0 999 0 - #0-q -;
#X obj 43 243 env~ 4096;
#X obj 19 84 +~ 1;
#X obj 19 21 r \$0-loopf;
#X obj 19 42 phasor~;
#X obj 19 105 tabread4~ \$0-array;
#X obj 48 63 r \$0-totsamps;
#X obj 19 63 *~;
#X text 107 178 Q;
#X text 19 236 |;
#X text 39 279 measured strength;
#X text 28 123 signal to analyze;
#X text 70 150 test frequency;
#X obj 200 17 phasor~ 100;
#X obj 253 79 phasor~;
#X floatatom 253 61 5 0 999 0 - #0-freq -;
#X obj 253 127 cos~;
#X obj 286 127 cos~;
#X obj 286 106 +~ 0.25;
#X obj 200 261 snapshot~;
#X obj 201 178 *~;
#X obj 245 178 *~;
#X obj 201 203 lop~;
#X obj 245 203 lop~;
#X floatatom 275 182 3 0 100 0 - #0-lop -;
#X obj 290 261 snapshot~;
#X floatatom 200 282 5 0 0 0 - - -;
#X floatatom 290 282 5 0 0 0 - - -;
#X obj 290 228 r \$0-tick;
#X text 321 123 modulate;
#X text 321 138 to DC;
#X text 278 204 low-pass filter;
#X text 294 62 test frequency;
#X text 211 35 signal to analyze;
#X text 301 183 responsiveness;
#X text 196 297 real part;
#X text 287 297 imaginary part;
#X text 44 323 (a);
#X text 275 326 (b);
#X text 4 249 (OUT);
#X connect 1 0 5 0;
#X connect 2 0 1 0;
#X connect 3 0 2 1;
#X connect 3 0 1 1;
#X connect 4 0 2 2;
#X connect 4 0 1 2;
#X connect 5 0 0 0;
#X connect 6 0 9 0;
#X connect 7 0 8 0;
#X connect 8 0 11 0;
#X connect 9 0 2 0;
#X connect 10 0 11 1;
#X connect 11 0 6 0;
#X connect 17 0 24 0;
#X connect 17 0 25 0;
#X connect 18 0 20 0;
#X connect 18 0 22 0;
#X connect 19 0 18 0;
#X connect 20 0 24 1;
#X connect 21 0 25 1;
#X connect 22 0 21 0;
#X connect 23 0 30 0;
#X connect 24 0 26 0;
#X connect 25 0 27 0;
#X connect 26 0 23 0;
#X connect 27 0 29 0;
#X connect 28 0 27 1;
#X connect 28 0 26 1;
#X connect 29 0 31 0;
#X connect 32 0 29 0;
#X connect 32 0 23 0;
