#N canvas 105 56 426 224 10;
#X floatatom 51 95 3 -99 99 0 - #0-pole -;
#X obj 51 113 / 100;
#X floatatom 95 94 4 -100 100 0 - #0-zero -;
#X obj 95 113 / 100;
#X floatatom 195 54 3 0 99 0 - #0-pole -;
#X obj 195 73 / 100;
#X floatatom 239 54 4 0 100 0 - #0-zero -;
#X obj 239 73 / 100;
#X floatatom 284 10 3 0 180 0 - #0-pole -;
#X obj 329 67 sin;
#X obj 284 68 cos;
#X obj 284 27 * 3.14159;
#X obj 284 47 / 180;
#X obj 201 119 *;
#X obj 284 87 t b f;
#X obj 329 87 t b f;
#X text 201 37 radii (%);
#X obj 231 120 *;
#X obj 259 127 *;
#X obj 288 127 *;
#X text 312 9 angle (degrees);
#X text 12 174 |;
#X text 190 177 |;
#X text 176 129 |;
#X text 13 122 |;
#X text 63 201 (a);
#X text 249 200 (b);
#X text 3 187 (OUT);
#X text 176 190 (OUT);
#X text 5 111 (IN);
#X text 166 118 (IN);
#X obj 14 135 rzero~;
#X obj 14 161 rpole~;
#X text 49 75 zero;
#X text 95 74 pole (%);
#X obj 177 141 czero~;
#X obj 191 163 cpole~;
#X text 187 25 zero and pole;
#X connect 0 0 1 0;
#X connect 1 0 31 1;
#X connect 2 0 3 0;
#X connect 3 0 32 1;
#X connect 4 0 5 0;
#X connect 5 0 13 0;
#X connect 5 0 17 0;
#X connect 6 0 7 0;
#X connect 7 0 18 0;
#X connect 7 0 19 0;
#X connect 8 0 11 0;
#X connect 9 0 15 0;
#X connect 10 0 14 0;
#X connect 11 0 12 0;
#X connect 12 0 10 0;
#X connect 12 0 9 0;
#X connect 13 0 35 2;
#X connect 14 0 13 0;
#X connect 14 0 18 0;
#X connect 14 1 13 1;
#X connect 14 1 18 1;
#X connect 15 0 17 0;
#X connect 15 0 19 0;
#X connect 15 1 19 1;
#X connect 15 1 17 1;
#X connect 17 0 35 3;
#X connect 18 0 36 2;
#X connect 19 0 36 3;
#X connect 31 0 32 0;
#X connect 35 0 36 0;
#X connect 35 1 36 1;
