#N struct r-arrow float x float y float z;
#N struct u-arrow float x float y float z;
#N struct rect float x float y float w float h;
#N struct y-plot float x float y float w array z y-point;
#N struct y-point float y;
#N struct xy-curve float x float y float w array z xy-point;
#N struct xy-point float x float y;
#N struct seg float x float y float dx float dy float w;
#N struct l-curve-arrow float x float y float z float z2 float z3 float
h;
#N struct circle2 float x float y float h float h2 float mh float mh2
;
#N struct vaxis float x float y float h float h-3;
#N struct xy-plot float x float y float w array z xy-point;
#N struct d-curve-arrow float x float y float z float z2 float z3 float
h;
#N struct circle float x float y float color float h float h2;
#N struct u-curve-arrow float x float y float z float z2 float z3 float
h;
#N struct r-curve-arrow float x float y float z float z2 float z3 float
h;
#N struct l-arrow float x float y float z;
#N struct d-arrow float x float y float z;
#N struct v-seg float x float y float z float w;
#N struct h-seg float x float y float z float w;
#N struct haxis float x float y float w float w-3;
#N struct frame float x float y float w float h;
#N struct thickcircle float x float y float color float h float h2
;
#N canvas 144 404 329 179 10;
#N canvas 624 25 384 342 fig 1;
#X text 44 39 amplitude;
#X scalar r-arrow 339 223 -300 \;;
#X scalar u-arrow 39 303 -80 \;;
#X scalar rect 39 223 2 4.61533 \;;
#X scalar rect 49 223 2 11.3625 \;;
#X scalar rect 59 223 2 19.9353 \;;
#X scalar rect 69 223 2 27.3411 \;;
#X scalar rect 79 223 2 36.5724 \;;
#X scalar rect 89 223 2 44.4527 \;;
#X scalar rect 99 223 2 38.2788 \;;
#X scalar rect 109 223 2 31.3011 \;;
#X scalar rect 119 223 2 24.1683 \;;
#X scalar rect 139 223 2 10.7372 \;;
#X scalar rect 169 223 2 27.0829 \;;
#X scalar rect 174 223 2 29.9025 \;;
#X scalar rect 179 223 2 32.1942 \;;
#X scalar rect 184 223 2 34.4354 \;;
#X scalar rect 189 223 2 36.8028 \;;
#X scalar rect 194 223 2 40.0689 \;;
#X scalar rect 199 223 2 42.2048 \;;
#X scalar rect 204 223 2 45.6783 \;;
#X scalar rect 209 223 2 48.8598 \;;
#X scalar rect 214 223 2 51.4926 \;;
#X scalar rect 219 223 2 53.3376 \;;
#X scalar rect 224 223 2 56.6266 \;;
#X scalar rect 229 223 2 60.2763 \;;
#X scalar rect 234 223 2 57.4894 \;;
#X scalar rect 239 223 2 52.4796 \;;
#X scalar rect 244 223 2 46.6136 \;;
#X scalar rect 249 223 2 41.2875 \;;
#X scalar rect 254 223 2 34.8316 \;;
#X scalar rect 259 223 2 28.95 \;;
#X scalar rect 264 223 2 23.0054 \;;
#X scalar rect 269 223 2 17.3007 \;;
#X scalar y-plot 39 224 1 \; 4.61533 \; 4.61533 \; 4.61533 \; 5.2755
\; 6.69462 \; 7.96239 \; 8.79618 \; 9.43516 \; 10.0063 \; 10.6139 \;
11.3625 \; 12.6283 \; 14.0405 \; 15.159 \; 15.6389 \; 16.025 \; 16.7455
\; 17.6707 \; 18.5735 \; 19.2787 \; 19.9353 \; 20.5779 \; 21.2415 \;
21.9644 \; 22.836 \; 23.7599 \; 24.7192 \; 25.6619 \; 26.5002 \; 26.9178
\; 27.3411 \; 28.1853 \; 29.5649 \; 30.9583 \; 31.7803 \; 32.4163 \;
33.2195 \; 34.392 \; 35.5159 \; 36.1587 \; 36.5724 \; 37.0619 \; 37.8649
\; 38.8453 \; 40.0947 \; 41.483 \; 42.8191 \; 43.9638 \; 44.778 \;
44.905 \; 44.4527 \; 43.8456 \; 43.6464 \; 43.4314 \; 43.0307 \; 42.3891
\; 41.6205 \; 40.73 \; 39.8096 \; 38.9715 \; 38.2788 \; 37.6278 \;
36.9294 \; 36.2438 \; 35.6582 \; 35.2385 \; 34.7771 \; 34.0476 \; 33.1335
\; 32.1772 \; 31.3011 \; 30.3851 \; 29.2873 \; 28.1108 \; 27.0815 \;
26.529 \; 26.1331 \; 25.7531 \; 25.3195 \; 24.8337 \; 24.1683 \; 23.4747
\; 22.9016 \; 22.4824 \; 22.0057 \; 21.1678 \; 20.2314 \; 19.4418 \;
18.9553 \; 18.5558 \; 18.1736 \; 17.7393 \; 17.1382 \; 16.2243 \; 15.3
\; 14.7107 \; 14.3023 \; 13.7354 \; 12.5439 \; 11.3924 \; 10.7372 \;
10.6545 \; 10.9614 \; 11.8147 \; 12.7793 \; 13.4145 \; 13.6244 \; 13.8205
\; 14.3845 \; 15.0897 \; 15.8272 \; 16.5297 \; 17.1851 \; 17.6772 \;
18.1137 \; 18.6335 \; 19.3451 \; 20.0149 \; 20.3677 \; 20.5624 \; 20.8501
\; 21.4758 \; 22.1988 \; 22.9283 \; 23.6223 \; 24.2549 \; 24.7097 \;
25.1489 \; 25.7145 \; 26.4065 \; 27.0829 \; 27.5507 \; 27.9883 \; 28.5317
\; 29.2214 \; 29.9025 \; 30.4199 \; 30.8612 \; 31.2892 \; 31.7417 \;
32.1942 \; 32.6467 \; 33.0992 \; 33.5442 \; 33.9689 \; 34.4354 \; 35.0701
\; 35.7775 \; 36.375 \; 36.6011 \; 36.8028 \; 37.2379 \; 37.9109 \;
38.6534 \; 39.3959 \; 40.0689 \; 40.504 \; 40.7057 \; 40.9318 \; 41.4996
\; 42.2048 \; 42.9294 \; 43.6081 \; 44.2868 \; 44.9927 \; 45.6783 \;
46.2639 \; 46.6836 \; 47.145 \; 47.9234 \; 48.8598 \; 49.7033 \; 50.2089
\; 50.6171 \; 51.0401 \; 51.4926 \; 51.947 \; 52.4305 \; 52.8774 \;
53.1624 \; 53.3376 \; 53.6328 \; 54.4649 \; 55.4149 \; 56.174 \; 56.6266
\; 57.0478 \; 57.6275 \; 58.3129 \; 59.1874 \; 60.2763 \; 61.0469 \;
60.7727 \; 59.8219 \; 58.6251 \; 57.4894 \; 56.3485 \; 55.3637 \; 54.4742
\; 53.551 \; 52.4796 \; 51.3196 \; 49.9917 \; 48.5859 \; 47.3071 \;
46.6136 \; 45.9774 \; 45.0091 \; 43.6354 \; 42.2477 \; 41.2875 \; 40.4134
\; 39.4004 \; 38.1184 \; 36.6589 \; 34.8316 \; 32.9692 \; 31.5172 \;
30.8438 \; 30.2226 \; 28.95 \; 27.3145 \; 25.8001 \; 24.8444 \; 23.9949
\; 23.0054 \; 21.8745 \; 20.7124 \; 19.5812 \; 18.45 \; 17.3007 \;
16.1506 \; 15.0527 \; 14.0418 \; 13.1527 \; 12.4937 \; 12.0634 \; 11.6156
\; 10.7833 \; 9.84686 \; 9.09081 \; 8.67966 \; 8.21979 \; 7.30474 \;
6.14388 \; 4.98291 \; 3.99919 \; 3.14595 \; 2.50381 \; 2.04239 \; 1.73075
\; 1.73075 \; 1.73075 \; 1.73075 \; 1.73075 \; 0 \; \;;
#X scalar r-arrow 339 123 -300 \;;
#X scalar u-arrow 39 203 -80 \;;
#X scalar y-plot 39 124 1 \; -0.000599027 \; -0.000599027 \; -0.000599027
\; -0.000599027 \; -0.000599027 \; -0.000599027 \; -0.000599027 \;
-0.000599027 \; -0.013548 \; -0.0372367 \; -0.013954 \; 0.172685 \;
0.414862 \; 0.583162 \; 0.576797 \; 0.568693 \; 0.726062 \; 0.968066
\; 1.15795 \; 1.15559 \; 1.14452 \; 1.25847 \; 1.48439 \; 1.74149 \;
1.96773 \; 2.19398 \; 2.42022 \; 2.64647 \; 2.87272 \; 3.09896 \; 3.32521
\; 3.55145 \; 3.7777 \; 4.00394 \; 4.23019 \; 4.45643 \; 4.68268 \;
4.90892 \; 5.13517 \; 5.36141 \; 5.58766 \; 5.8214 \; 6.07538 \; 6.2876
\; 6.33161 \; 6.30295 \; 6.38039 \; 6.80309 \; 7.28841 \; 7.63311 \;
7.84517 \; 8.07635 \; 8.49199 \; 8.96156 \; 9.45027 \; 9.92332 \; 10.3459
\; 10.5941 \; 10.805 \; 11.1111 \; 11.5733 \; 12.0302 \; 12.3035 \;
12.5139 \; 12.8074 \; 13.2927 \; 13.7363 \; 13.8629 \; 13.8314 \; 13.8928
\; 14.2922 \; 14.789 \; 15.2923 \; 15.76 \; 16.1664 \; 16.395 \; 16.6079
\; 16.9291 \; 17.3761 \; 17.8596 \; 18.314 \; 18.7664 \; 19.2336 \;
19.7083 \; 20.1342 \; 20.3627 \; 20.5687 \; 20.9459 \; 21.6157 \; 22.3273
\; 22.8729 \; 23.3185 \; 23.7438 \; 24.1963 \; 24.6488 \; 25.1242 \;
25.59 \; 25.9832 \; 26.1794 \; 26.4016 \; 26.873 \; 27.563 \; 28.2687
\; 28.7581 \; 29.1935 \; 29.5933 \; 30.0047 \; 30.517 \; 31.378 \;
32.3138 \; 33.0849 \; 33.5655 \; 33.9625 \; 34.4 \; 34.8525 \; 35.2956
\; 35.7216 \; 36.1912 \; 36.7878 \; 37.4711 \; 38.1783 \; 38.857 \;
39.5358 \; 40.1931 \; 40.8566 \; 41.5834 \; 42.517 \; 43.4298 \; 44.036
\; 44.4053 \; 44.9624 \; 46.3521 \; 48.0115 \; 49.6192 \; 51.0099 \;
52.312 \; 53.3258 \; 54.4185 \; 55.9846 \; 58.2958 \; 61.0037 \; 64.2363
\; 67.506 \; 70.2138 \; 71.7764 \; 72.5823 \; 73.0787 \; 72.7139 \;
70.4263 \; 64.2088 \; 57.5338 \; 53.5443 \; 52.0878 \; 50.7688 \; 46.7189
\; 42.4932 \; 39.484 \; 38.0477 \; 37.0203 \; 35.474 \; 33.8727 \;
32.4717 \; 31.3598 \; 30.2375 \; 28.6664 \; 27.0302 \; 25.8044 \; 25.3573
\; 24.9623 \; 23.9159 \; 22.5066 \; 21.2128 \; 20.4545 \; 19.8422 \;
19.229 \; 18.5655 \; 17.8387 \; 16.9051 \; 15.9923 \; 15.3317 \; 14.9059
\; 14.4487 \; 13.6051 \; 12.67 \; 11.8199 \; 11.1301 \; 10.4802 \;
9.77864 \; 9.09535 \; 8.48759 \; 7.99295 \; 7.58704 \; 7.32152 \; 7.11121
\; 6.84536 \; 6.41615 \; 5.93997 \; 5.45161 \; 4.98588 \; 4.59261 \;
4.39646 \; 4.17421 \; 3.70284 \; 3.01281 \; 2.3071 \; 1.78585 \; 1.35332
\; 1.02596 \; 0.791437 \; 0.595186 \; 0.342995 \; 0.114589 \; -0.0218084
\; -0.0358275 \; -0.00809403 \; -0.000599027 \; -0.000599027 \; -0.000599027
\; -0.000599027 \; -0.000599027 \; -0.000599027 \; -0.000599027 \;
-0.000599027 \; -0.000599027 \; -0.000599027 \; -0.000599027 \; -0.000599027
\; -0.000599027 \; -0.000599027 \; -0.000599027 \; -0.000599027 \;
-0.000599027 \; -0.000599027 \; -0.000599027 \; -0.000599027 \; -0.000599027
\; -0.000599027 \; -0.000599027 \; -0.000599027 \; -0.000599027 \;
-0.000599027 \; -0.000599027 \; -0.000599027 \; -0.000599027 \; -0.000599027
\; -0.000599027 \; -0.000599027 \; -0.000599027 \; -0.000599027 \;
-0.000599027 \; -0.000599027 \; -0.000599027 \; -0.000599027 \; -0.000599027
\; -0.000599027 \; 0 \; \;;
#X scalar r-arrow 339 23 -300 \;;
#X scalar u-arrow 39 103 -80 \;;
#X scalar rect 39 23 2 -6.14379e-05 \;;
#X scalar rect 49 23 2 -0.00352338 \;;
#X scalar rect 59 23 2 0.507032 \;;
#X scalar rect 69 23 2 2.02033 \;;
#X scalar rect 79 23 2 4.5412 \;;
#X scalar rect 89 23 2 7.74976 \;;
#X scalar rect 99 23 2 9.84467 \;;
#X scalar rect 109 23 2 9.94139 \;;
#X scalar rect 119 23 2 9.83595 \;;
#X scalar rect 139 23 2 6.41201 \;;
#X scalar rect 169 23 2 27.0603 \;;
#X scalar rect 174 23 2 34.7613 \;;
#X scalar rect 179 23 2 43.6437 \;;
#X scalar rect 184 23 2 55.5422 \;;
#X scalar rect 189 23 2 47.0534 \;;
#X scalar rect 194 23 2 37.8368 \;;
#X scalar rect 199 23 2 31.7687 \;;
#X scalar rect 204 23 2 27.4377 \;;
#X scalar rect 209 23 2 24.4371 \;;
#X scalar rect 214 23 2 21.2441 \;;
#X scalar rect 219 23 2 17.6676 \;;
#X scalar rect 224 23 2 14.0057 \;;
#X scalar rect 229 23 2 10.7064 \;;
#X scalar rect 234 23 2 8.19691 \;;
#X scalar rect 239 23 2 5.12721 \;;
#X scalar rect 244 23 2 1.84988 \;;
#X scalar rect 249 23 2 0.314698 \;;
#X scalar rect 254 23 2 -0.000463668 \;;
#X scalar rect 259 23 2 -0.000385374 \;;
#X scalar rect 264 23 2 -0.000306241 \;;
#X scalar rect 269 23 2 -0.000230301 \;;
#X scalar y-plot 39 24 1 \; -6.14379e-05 \; -6.14379e-05 \; -6.14379e-05
\; -7.02259e-05 \; -8.91168e-05 \; -0.000105993 \; -0.000117092 \;
-0.000125598 \; -0.00301257 \; -0.00878284 \; -0.00352338 \; 0.0484605
\; 0.129441 \; 0.196447 \; 0.200455 \; 0.202518 \; 0.270183 \; 0.380143
\; 0.477936 \; 0.495072 \; 0.507032 \; 0.575481 \; 0.700682 \; 0.850017
\; 0.998562 \; 1.15842 \; 1.32947 \; 1.50919 \; 1.69172 \; 1.85371
\; 2.02033 \; 2.22442 \; 2.48194 \; 2.75456 \; 2.98748 \; 3.21024 \;
3.4568 \; 3.75173 \; 4.05289 \; 4.30803 \; 4.5412 \; 4.7945 \; 5.11208
\; 5.42763 \; 5.64143 \; 5.81034 \; 6.07116 \; 6.64644 \; 7.25246 \;
7.61699 \; 7.74976 \; 7.86918 \; 8.23655 \; 8.64919 \; 9.0367 \; 9.34756
\; 9.56893 \; 9.58886 \; 9.5587 \; 9.62259 \; 9.84467 \; 10.0593 \;
10.0969 \; 10.0789 \; 10.1486 \; 10.4092 \; 10.6157 \; 10.4888 \; 10.184
\; 9.93404 \; 9.94139 \; 9.98591 \; 9.9527 \; 9.84505 \; 9.7291 \;
9.66538 \; 9.64479 \; 9.6884 \; 9.77675 \; 9.85598 \; 9.83595 \; 9.78971
\; 9.78849 \; 9.84644 \; 9.84597 \; 9.57856 \; 9.24738 \; 9.04949 \;
9.10518 \; 9.20667 \; 9.23742 \; 9.19232 \; 9.04282 \; 8.72377 \; 8.38062
\; 8.21323 \; 8.13324 \; 7.93087 \; 7.29756 \; 6.68394 \; 6.41201 \;
6.52599 \; 6.88589 \; 7.5504 \; 8.29051 \; 8.82174 \; 9.08436 \; 9.37241
\; 10.0302 \; 10.8357 \; 11.6365 \; 12.3295 \; 12.97 \; 13.5132 \;
14.0291 \; 14.6151 \; 15.3564 \; 16.0969 \; 16.6507 \; 17.1221 \; 17.6894
\; 18.5441 \; 19.5033 \; 20.4791 \; 21.4473 \; 22.4133 \; 23.3463 \;
24.2713 \; 25.1636 \; 26.0575 \; 27.0603 \; 28.3784 \; 29.8613 \; 31.4604
\; 33.1241 \; 34.7613 \; 36.0481 \; 37.3204 \; 38.927 \; 41.1202 \;
43.6437 \; 46.6023 \; 49.6532 \; 52.3391 \; 54.1815 \; 55.5422 \; 56.9529
\; 57.8116 \; 56.9279 \; 52.2247 \; 47.0534 \; 44.3084 \; 43.8821 \;
43.6086 \; 40.9007 \; 37.8368 \; 35.5391 \; 34.4169 \; 33.6735 \; 32.7146
\; 31.7687 \; 30.9775 \; 30.3898 \; 29.7583 \; 28.6617 \; 27.4377 \;
26.5292 \; 26.3059 \; 26.1522 \; 25.4696 \; 24.4371 \; 23.43 \; 22.8221
\; 22.319 \; 21.81 \; 21.2441 \; 20.5926 \; 19.6965 \; 18.7918 \; 18.1127
\; 17.6676 \; 17.2206 \; 16.4667 \; 15.6024 \; 14.7549 \; 14.0057 \;
13.2861 \; 12.5226 \; 11.7861 \; 11.1635 \; 10.7064 \; 10.2926 \; 9.88774
\; 9.45347 \; 8.918 \; 8.19691 \; 7.43797 \; 6.70714 \; 6.03559 \;
5.4653 \; 5.12721 \; 4.76042 \; 4.11358 \; 3.25289 \; 2.42539 \; 1.84988
\; 1.38272 \; 1.02616 \; 0.767436 \; 0.558783 \; 0.314698 \; 0.102909
\; -0.0190946 \; -0.0303486 \; -0.00659374 \; -0.000463668 \; -0.000438877
\; -0.000419548 \; -0.000410584 \; -0.000402315 \; -0.000385374 \;
-0.000363602 \; -0.000343444 \; -0.000330722 \; -0.000319412 \; -0.000306241
\; -0.000291187 \; -0.000275718 \; -0.000260659 \; -0.000245601 \;
-0.000230301 \; -0.000214992 \; -0.000200377 \; -0.000186921 \; -0.000175085
\; -0.000166313 \; -0.000160584 \; -0.000154623 \; -0.000143545 \;
-0.000131078 \; -0.000121014 \; -0.000115541 \; -0.000109419 \; -9.72385e-05
\; -8.17855e-05 \; -6.63311e-05 \; -5.32361e-05 \; -4.18779e-05 \;
-3.33299e-05 \; -2.71877e-05 \; -2.30392e-05 \; -2.30392e-05 \; -2.30392e-05
\; -2.30392e-05 \; -2.30392e-05 \; 0 \; \;;
#X text 268 123 frequency;
#X text 231 32 (a);
#X text 208 155 (b);
#X text 203 258 (c);
#X coords 0 342 1 341 0 0 0;
#X restore 51 61 pd fig;
#X obj 170 42 templates;
#N canvas 340 317 697 444 make-tables 1;
#N canvas 0 0 450 300 graph1 0;
#X array spectrum1 100 float 1;
#A 0 0.00769222 0.0307689 0.0538455 0.0653839 0.0769222 0.0999988 0.107691
0.123075 0.134614 0.146152 0.161537 0.176921 0.184613 0.20769 0.219228
0.238459 0.246151 0.261535 0.284612 0.299996 0.292304 0.288458 0.27692
0.261535 0.249997 0.238459 0.230767 0.215382 0.199998 0.180767 0.173075
0.165383 0.153844 0.146152 0.130768 0.123075 0.115383 0.0999988 0.0923066
0.0730761 0.0730761 0.0884605 0.0923066 0.103845 0.115383 0.123075
0.134614 0.13846 0.149998 0.161537 0.169229 0.180767 0.188459 0.199998
0.20769 0.215382 0.223074 0.230767 0.242305 0.246151 0.257689 0.269228
0.273074 0.284612 0.29615 0.307689 0.315381 0.330765 0.338458 0.34615
0.353842 0.357688 0.373073 0.380765 0.392303 0.407688 0.392303 0.373073
0.357688 0.338458 0.315381 0.303843 0.280766 0.265382 0.242305 0.211536
0.199998 0.173075 0.15769 0.13846 0.119229 0.0999988 0.0846144 0.0769222
0.0615377 0.0538455 0.034615 0.0192305 0.0115383 0.00769222;
#X coords 0 0.5 99 0 256 130 1;
#X restore 261 19 graph;
#N canvas 0 0 450 300 graph1 0;
#X array filter1 100 float 1;
#A 0 -3.99351e-06 -3.99351e-06 -3.99351e-06 -3.99351e-06 -3.99351e-06
0.00384218 0.00384218 0.00768834 0.00768834 0.0115345 0.0153807 0.0192268
0.023073 0.0269192 0.0307654 0.0346115 0.0384577 0.0423039 0.0423039
0.0499962 0.0538424 0.0615347 0.069227 0.0730732 0.0807655 0.0846117
0.0923041 0.0923041 0.0999964 0.107689 0.111535 0.119227 0.12692 0.134612
0.138458 0.149997 0.157689 0.165381 0.173074 0.17692 0.188458 0.196151
0.203843 0.219228 0.22692 0.234612 0.242305 0.253843 0.265382 0.27692
0.292305 0.299997 0.32692 0.349997 0.369228 0.411536 0.465382 0.484613
0.473075 0.365382 0.338459 0.269228 0.246151 0.219228 0.199997 0.173074
0.165381 0.142304 0.130766 0.119227 0.103843 0.0961502 0.0807655 0.069227
0.0576885 0.0499962 0.04615 0.0384577 0.0307654 0.0269192 0.0153807
0.00768834 0.00384218 -3.99351e-06 -3.99351e-06 -3.99351e-06 -3.99351e-06
-3.99351e-06 -3.99351e-06 -3.99351e-06 -3.99351e-06 -3.99351e-06 -3.99351e-06
-3.99351e-06 -3.99351e-06 -3.99351e-06 -3.99351e-06 -3.99351e-06 -3.99351e-06
-3.99351e-06;
#X coords 0 0.5 99 0 256 130 1;
#X restore 257 176 graph;
#X restore 170 63 pd make-tables;
#N canvas 398 151 859 681 xfer-to-fig 1;
#X obj 136 245 t f f;
#X obj 136 297 pack;
#X msg 23 17 \; pd-z clear;
#X msg 24 62 \; start pd-z \;;
#X obj 135 467 until;
#X obj 137 442 t b b;
#X obj 138 497 f;
#X msg 189 458 0;
#X obj 224 478 + 1;
#X obj 138 553 t f f;
#X obj 138 588 pack;
#X obj 137 419 bng 15 250 50 0 empty empty empty 0 -6 0 8 -262144 -1
-1;
#X obj 224 501 sel 255;
#X msg 138 619 \; y-plot-point \$1 \$2 \;;
#X obj 191 543 / 2.55;
#X obj 136 271 expr 75 + $f1;
#X obj 191 245 tabread4 spectrum1;
#X obj 191 566 tabread4 spectrum1;
#X obj 191 224 / 2.55;
#X obj 191 298 * 150;
#X obj 191 590 * 150;
#X msg 136 328 \; add-rect \$1 275 2 \$2 \;;
#X msg 135 378 \; add-y-plot 256 75 276 1 \;;
#X obj 379 468 until;
#X obj 381 443 t b b;
#X obj 382 498 f;
#X msg 433 459 0;
#X obj 468 479 + 1;
#X obj 382 554 t f f;
#X obj 382 589 pack;
#X obj 381 420 bng 15 250 50 0 empty empty empty 0 -6 0 8 -262144 -1
-1;
#X obj 468 502 sel 255;
#X msg 382 620 \; y-plot-point \$1 \$2 \;;
#X obj 435 544 / 2.55;
#X obj 435 591 * 150;
#X msg 378 379 \; add-y-plot 256 75 176 1 \;;
#X msg 646 583 \; y-plot-point \$1 \$2 \;;
#X msg 626 330 \; add-y-plot 256 75 76 1 \;;
#X msg 119 20 \; add-r-arrow 375 275 -300 \; add-u-arrow 75 355 -80
;
#X msg 376 21 \; add-r-arrow 375 175 -300 \; add-u-arrow 75 255 -80
;
#X obj 215 168 + 130;
#X obj 169 127 scanner 20 100;
#X obj 75 142 scanner 11 0;
#X obj 75 191 map10 0 10 20 30 40 50 60 70 80 100;
#X obj 435 567 tabread4 filter1;
#X obj 636 202 t f f;
#X obj 636 273 pack;
#X obj 636 247 expr 75 + $f1;
#X obj 689 216 tabread4 spectrum1;
#X obj 688 172 / 2.55;
#X obj 715 125 + 130;
#X obj 669 84 scanner 20 100;
#X obj 575 99 scanner 11 0;
#X obj 575 148 map10 0 10 20 30 40 50 60 70 80 100;
#X obj 734 192 tabread4 filter1;
#X obj 688 194 t f f;
#X obj 736 247 *;
#X obj 645 478 t f f;
#X obj 645 549 pack;
#X obj 698 492 tabread4 spectrum1;
#X obj 697 448 / 2.55;
#X obj 739 469 tabread4 filter1;
#X obj 697 470 t f f;
#X obj 745 523 *;
#X obj 637 415 until;
#X obj 639 390 t b b;
#X obj 636 442 f;
#X msg 688 392 0;
#X obj 724 400 + 1;
#X obj 639 367 bng 15 250 50 0 empty empty empty 0 -6 0 8 -262144 -1
-1;
#X obj 724 423 sel 255;
#X msg 636 298 \; add-rect \$1 75 2 \$2 \;;
#X msg 627 19 \; add-r-arrow 375 75 -300 \; add-u-arrow 75 155 -80
;
#X obj 736 269 * 500;
#X obj 745 545 * 500;
#X connect 0 0 15 0;
#X connect 0 1 18 0;
#X connect 1 0 21 0;
#X connect 4 0 6 0;
#X connect 5 0 4 0;
#X connect 5 1 7 0;
#X connect 6 0 8 0;
#X connect 6 0 9 0;
#X connect 7 0 6 1;
#X connect 8 0 6 1;
#X connect 8 0 12 0;
#X connect 9 0 10 0;
#X connect 9 1 14 0;
#X connect 10 0 13 0;
#X connect 11 0 5 0;
#X connect 12 0 4 1;
#X connect 14 0 17 0;
#X connect 15 0 1 0;
#X connect 16 0 19 0;
#X connect 17 0 20 0;
#X connect 18 0 16 0;
#X connect 19 0 1 1;
#X connect 20 0 10 1;
#X connect 23 0 25 0;
#X connect 24 0 23 0;
#X connect 24 1 26 0;
#X connect 25 0 27 0;
#X connect 25 0 28 0;
#X connect 26 0 25 1;
#X connect 27 0 25 1;
#X connect 27 0 31 0;
#X connect 28 0 29 0;
#X connect 28 1 33 0;
#X connect 29 0 32 0;
#X connect 30 0 24 0;
#X connect 31 0 23 1;
#X connect 33 0 44 0;
#X connect 34 0 29 1;
#X connect 40 0 0 0;
#X connect 41 1 40 0;
#X connect 42 0 43 0;
#X connect 43 0 0 0;
#X connect 44 0 34 0;
#X connect 45 0 47 0;
#X connect 45 1 49 0;
#X connect 46 0 71 0;
#X connect 47 0 46 0;
#X connect 48 0 56 0;
#X connect 49 0 55 0;
#X connect 50 0 45 0;
#X connect 51 1 50 0;
#X connect 52 0 53 0;
#X connect 53 0 45 0;
#X connect 54 0 56 1;
#X connect 55 0 48 0;
#X connect 55 1 54 0;
#X connect 56 0 73 0;
#X connect 57 0 58 0;
#X connect 57 1 60 0;
#X connect 58 0 36 0;
#X connect 59 0 63 0;
#X connect 60 0 62 0;
#X connect 61 0 63 1;
#X connect 62 0 59 0;
#X connect 62 1 61 0;
#X connect 63 0 74 0;
#X connect 64 0 66 0;
#X connect 65 0 64 0;
#X connect 65 1 67 0;
#X connect 66 0 68 0;
#X connect 66 0 57 0;
#X connect 67 0 66 1;
#X connect 68 0 66 1;
#X connect 68 0 70 0;
#X connect 69 0 65 0;
#X connect 70 0 64 1;
#X connect 73 0 46 1;
#X connect 74 0 58 1;
#X restore 170 83 pd xfer-to-fig;
#N canvas 66 9 468 394 z 1;
#X scalar r-arrow 373 216 -300 \;;
#X scalar u-arrow 73 296 -80 \;;
#X scalar rect 73 216 2 4.61533 \;;
#X scalar rect 83 216 2 11.3625 \;;
#X scalar rect 93 216 2 19.9353 \;;
#X scalar rect 103 216 2 27.3411 \;;
#X scalar rect 113 216 2 36.5724 \;;
#X scalar rect 123 216 2 44.4527 \;;
#X scalar rect 133 216 2 38.2788 \;;
#X scalar rect 143 216 2 31.3011 \;;
#X scalar rect 153 216 2 24.1683 \;;
#X scalar rect 173 216 2 10.7372 \;;
#X scalar rect 203 216 2 27.0829 \;;
#X scalar rect 208 216 2 29.9025 \;;
#X scalar rect 213 216 2 32.1942 \;;
#X scalar rect 218 216 2 34.4354 \;;
#X scalar rect 223 216 2 36.8028 \;;
#X scalar rect 228 216 2 40.0689 \;;
#X scalar rect 233 216 2 42.2048 \;;
#X scalar rect 238 216 2 45.6783 \;;
#X scalar rect 243 216 2 48.8598 \;;
#X scalar rect 248 216 2 51.4926 \;;
#X scalar rect 253 216 2 53.3376 \;;
#X scalar rect 258 216 2 56.6266 \;;
#X scalar rect 263 216 2 60.2763 \;;
#X scalar rect 268 216 2 57.4894 \;;
#X scalar rect 273 216 2 52.4796 \;;
#X scalar rect 278 216 2 46.6136 \;;
#X scalar rect 283 216 2 41.2875 \;;
#X scalar rect 288 216 2 34.8316 \;;
#X scalar rect 293 216 2 28.95 \;;
#X scalar rect 298 216 2 23.0054 \;;
#X scalar rect 303 216 2 17.3007 \;;
#X scalar y-plot 73 217 1 \; 4.61533 \; 4.61533 \; 4.61533 \; 5.2755
\; 6.69462 \; 7.96239 \; 8.79618 \; 9.43516 \; 10.0063 \; 10.6139 \;
11.3625 \; 12.6283 \; 14.0405 \; 15.159 \; 15.6389 \; 16.025 \; 16.7455
\; 17.6707 \; 18.5735 \; 19.2787 \; 19.9353 \; 20.5779 \; 21.2415 \;
21.9644 \; 22.836 \; 23.7599 \; 24.7192 \; 25.6619 \; 26.5002 \; 26.9178
\; 27.3411 \; 28.1853 \; 29.5649 \; 30.9583 \; 31.7803 \; 32.4163 \;
33.2195 \; 34.392 \; 35.5159 \; 36.1587 \; 36.5724 \; 37.0619 \; 37.8649
\; 38.8453 \; 40.0947 \; 41.483 \; 42.8191 \; 43.9638 \; 44.778 \;
44.905 \; 44.4527 \; 43.8456 \; 43.6464 \; 43.4314 \; 43.0307 \; 42.3891
\; 41.6205 \; 40.73 \; 39.8096 \; 38.9715 \; 38.2788 \; 37.6278 \;
36.9294 \; 36.2438 \; 35.6582 \; 35.2385 \; 34.7771 \; 34.0476 \; 33.1335
\; 32.1772 \; 31.3011 \; 30.3851 \; 29.2873 \; 28.1108 \; 27.0815 \;
26.529 \; 26.1331 \; 25.7531 \; 25.3195 \; 24.8337 \; 24.1683 \; 23.4747
\; 22.9016 \; 22.4824 \; 22.0057 \; 21.1678 \; 20.2314 \; 19.4418 \;
18.9553 \; 18.5558 \; 18.1736 \; 17.7393 \; 17.1382 \; 16.2243 \; 15.3
\; 14.7107 \; 14.3023 \; 13.7354 \; 12.5439 \; 11.3924 \; 10.7372 \;
10.6545 \; 10.9614 \; 11.8147 \; 12.7793 \; 13.4145 \; 13.6244 \; 13.8205
\; 14.3845 \; 15.0897 \; 15.8272 \; 16.5297 \; 17.1851 \; 17.6772 \;
18.1137 \; 18.6335 \; 19.3451 \; 20.0149 \; 20.3677 \; 20.5624 \; 20.8501
\; 21.4758 \; 22.1988 \; 22.9283 \; 23.6223 \; 24.2549 \; 24.7097 \;
25.1489 \; 25.7145 \; 26.4065 \; 27.0829 \; 27.5507 \; 27.9883 \; 28.5317
\; 29.2214 \; 29.9025 \; 30.4199 \; 30.8612 \; 31.2892 \; 31.7417 \;
32.1942 \; 32.6467 \; 33.0992 \; 33.5442 \; 33.9689 \; 34.4354 \; 35.0701
\; 35.7775 \; 36.375 \; 36.6011 \; 36.8028 \; 37.2379 \; 37.9109 \;
38.6534 \; 39.3959 \; 40.0689 \; 40.504 \; 40.7057 \; 40.9318 \; 41.4996
\; 42.2048 \; 42.9294 \; 43.6081 \; 44.2868 \; 44.9927 \; 45.6783 \;
46.2639 \; 46.6836 \; 47.145 \; 47.9234 \; 48.8598 \; 49.7033 \; 50.2089
\; 50.6171 \; 51.0401 \; 51.4926 \; 51.947 \; 52.4305 \; 52.8774 \;
53.1624 \; 53.3376 \; 53.6328 \; 54.4649 \; 55.4149 \; 56.174 \; 56.6266
\; 57.0478 \; 57.6275 \; 58.3129 \; 59.1874 \; 60.2763 \; 61.0469 \;
60.7727 \; 59.8219 \; 58.6251 \; 57.4894 \; 56.3485 \; 55.3637 \; 54.4742
\; 53.551 \; 52.4796 \; 51.3196 \; 49.9917 \; 48.5859 \; 47.3071 \;
46.6136 \; 45.9774 \; 45.0091 \; 43.6354 \; 42.2477 \; 41.2875 \; 40.4134
\; 39.4004 \; 38.1184 \; 36.6589 \; 34.8316 \; 32.9692 \; 31.5172 \;
30.8438 \; 30.2226 \; 28.95 \; 27.3145 \; 25.8001 \; 24.8444 \; 23.9949
\; 23.0054 \; 21.8745 \; 20.7124 \; 19.5812 \; 18.45 \; 17.3007 \;
16.1506 \; 15.0527 \; 14.0418 \; 13.1527 \; 12.4937 \; 12.0634 \; 11.6156
\; 10.7833 \; 9.84686 \; 9.09081 \; 8.67966 \; 8.21979 \; 7.30474 \;
6.14388 \; 4.98291 \; 3.99919 \; 3.14595 \; 2.50381 \; 2.04239 \; 1.73075
\; 1.73075 \; 1.73075 \; 1.73075 \; 1.73075 \; 0 \; \;;
#X scalar r-arrow 373 116 -300 \;;
#X scalar u-arrow 73 196 -80 \;;
#X scalar y-plot 73 117 1 \; -0.000599027 \; -0.000599027 \; -0.000599027
\; -0.000599027 \; -0.000599027 \; -0.000599027 \; -0.000599027 \;
-0.000599027 \; -0.013548 \; -0.0372367 \; -0.013954 \; 0.172685 \;
0.414862 \; 0.583162 \; 0.576797 \; 0.568693 \; 0.726062 \; 0.968066
\; 1.15795 \; 1.15559 \; 1.14452 \; 1.25847 \; 1.48439 \; 1.74149 \;
1.96773 \; 2.19398 \; 2.42022 \; 2.64647 \; 2.87272 \; 3.09896 \; 3.32521
\; 3.55145 \; 3.7777 \; 4.00394 \; 4.23019 \; 4.45643 \; 4.68268 \;
4.90892 \; 5.13517 \; 5.36141 \; 5.58766 \; 5.8214 \; 6.07538 \; 6.2876
\; 6.33161 \; 6.30295 \; 6.38039 \; 6.80309 \; 7.28841 \; 7.63311 \;
7.84517 \; 8.07635 \; 8.49199 \; 8.96156 \; 9.45027 \; 9.92332 \; 10.3459
\; 10.5941 \; 10.805 \; 11.1111 \; 11.5733 \; 12.0302 \; 12.3035 \;
12.5139 \; 12.8074 \; 13.2927 \; 13.7363 \; 13.8629 \; 13.8314 \; 13.8928
\; 14.2922 \; 14.789 \; 15.2923 \; 15.76 \; 16.1664 \; 16.395 \; 16.6079
\; 16.9291 \; 17.3761 \; 17.8596 \; 18.314 \; 18.7664 \; 19.2336 \;
19.7083 \; 20.1342 \; 20.3627 \; 20.5687 \; 20.9459 \; 21.6157 \; 22.3273
\; 22.8729 \; 23.3185 \; 23.7438 \; 24.1963 \; 24.6488 \; 25.1242 \;
25.59 \; 25.9832 \; 26.1794 \; 26.4016 \; 26.873 \; 27.563 \; 28.2687
\; 28.7581 \; 29.1935 \; 29.5933 \; 30.0047 \; 30.517 \; 31.378 \;
32.3138 \; 33.0849 \; 33.5655 \; 33.9625 \; 34.4 \; 34.8525 \; 35.2956
\; 35.7216 \; 36.1912 \; 36.7878 \; 37.4711 \; 38.1783 \; 38.857 \;
39.5358 \; 40.1931 \; 40.8566 \; 41.5834 \; 42.517 \; 43.4298 \; 44.036
\; 44.4053 \; 44.9624 \; 46.3521 \; 48.0115 \; 49.6192 \; 51.0099 \;
52.312 \; 53.3258 \; 54.4185 \; 55.9846 \; 58.2958 \; 61.0037 \; 64.2363
\; 67.506 \; 70.2138 \; 71.7764 \; 72.5823 \; 73.0787 \; 72.7139 \;
70.4263 \; 64.2088 \; 57.5338 \; 53.5443 \; 52.0878 \; 50.7688 \; 46.7189
\; 42.4932 \; 39.484 \; 38.0477 \; 37.0203 \; 35.474 \; 33.8727 \;
32.4717 \; 31.3598 \; 30.2375 \; 28.6664 \; 27.0302 \; 25.8044 \; 25.3573
\; 24.9623 \; 23.9159 \; 22.5066 \; 21.2128 \; 20.4545 \; 19.8422 \;
19.229 \; 18.5655 \; 17.8387 \; 16.9051 \; 15.9923 \; 15.3317 \; 14.9059
\; 14.4487 \; 13.6051 \; 12.67 \; 11.8199 \; 11.1301 \; 10.4802 \;
9.77864 \; 9.09535 \; 8.48759 \; 7.99295 \; 7.58704 \; 7.32152 \; 7.11121
\; 6.84536 \; 6.41615 \; 5.93997 \; 5.45161 \; 4.98588 \; 4.59261 \;
4.39646 \; 4.17421 \; 3.70284 \; 3.01281 \; 2.3071 \; 1.78585 \; 1.35332
\; 1.02596 \; 0.791437 \; 0.595186 \; 0.342995 \; 0.114589 \; -0.0218084
\; -0.0358275 \; -0.00809403 \; -0.000599027 \; -0.000599027 \; -0.000599027
\; -0.000599027 \; -0.000599027 \; -0.000599027 \; -0.000599027 \;
-0.000599027 \; -0.000599027 \; -0.000599027 \; -0.000599027 \; -0.000599027
\; -0.000599027 \; -0.000599027 \; -0.000599027 \; -0.000599027 \;
-0.000599027 \; -0.000599027 \; -0.000599027 \; -0.000599027 \; -0.000599027
\; -0.000599027 \; -0.000599027 \; -0.000599027 \; -0.000599027 \;
-0.000599027 \; -0.000599027 \; -0.000599027 \; -0.000599027 \; -0.000599027
\; -0.000599027 \; -0.000599027 \; -0.000599027 \; -0.000599027 \;
-0.000599027 \; -0.000599027 \; -0.000599027 \; -0.000599027 \; -0.000599027
\; -0.000599027 \; 0 \; \;;
#X scalar r-arrow 373 16 -300 \;;
#X scalar u-arrow 73 96 -80 \;;
#X scalar rect 73 16 2 -6.14379e-05 \;;
#X scalar rect 83 16 2 -0.00352338 \;;
#X scalar rect 93 16 2 0.507032 \;;
#X scalar rect 103 16 2 2.02033 \;;
#X scalar rect 113 16 2 4.5412 \;;
#X scalar rect 123 16 2 7.74976 \;;
#X scalar rect 133 16 2 9.84467 \;;
#X scalar rect 143 16 2 9.94139 \;;
#X scalar rect 153 16 2 9.83595 \;;
#X scalar rect 173 16 2 6.41201 \;;
#X scalar rect 203 16 2 27.0603 \;;
#X scalar rect 208 16 2 34.7613 \;;
#X scalar rect 213 16 2 43.6437 \;;
#X scalar rect 218 16 2 55.5422 \;;
#X scalar rect 223 16 2 47.0534 \;;
#X scalar rect 228 16 2 37.8368 \;;
#X scalar rect 233 16 2 31.7687 \;;
#X scalar rect 238 16 2 27.4377 \;;
#X scalar rect 243 16 2 24.4371 \;;
#X scalar rect 248 16 2 21.2441 \;;
#X scalar rect 253 16 2 17.6676 \;;
#X scalar rect 258 16 2 14.0057 \;;
#X scalar rect 263 16 2 10.7064 \;;
#X scalar rect 268 16 2 8.19691 \;;
#X scalar rect 273 16 2 5.12721 \;;
#X scalar rect 278 16 2 1.84988 \;;
#X scalar rect 283 16 2 0.314698 \;;
#X scalar rect 288 16 2 -0.000463668 \;;
#X scalar rect 293 16 2 -0.000385374 \;;
#X scalar rect 298 16 2 -0.000306241 \;;
#X scalar rect 303 16 2 -0.000230301 \;;
#X scalar y-plot 73 17 1 \; -6.14379e-05 \; -6.14379e-05 \; -6.14379e-05
\; -7.02259e-05 \; -8.91168e-05 \; -0.000105993 \; -0.000117092 \;
-0.000125598 \; -0.00301257 \; -0.00878284 \; -0.00352338 \; 0.0484605
\; 0.129441 \; 0.196447 \; 0.200455 \; 0.202518 \; 0.270183 \; 0.380143
\; 0.477936 \; 0.495072 \; 0.507032 \; 0.575481 \; 0.700682 \; 0.850017
\; 0.998562 \; 1.15842 \; 1.32947 \; 1.50919 \; 1.69172 \; 1.85371
\; 2.02033 \; 2.22442 \; 2.48194 \; 2.75456 \; 2.98748 \; 3.21024 \;
3.4568 \; 3.75173 \; 4.05289 \; 4.30803 \; 4.5412 \; 4.7945 \; 5.11208
\; 5.42763 \; 5.64143 \; 5.81034 \; 6.07116 \; 6.64644 \; 7.25246 \;
7.61699 \; 7.74976 \; 7.86918 \; 8.23655 \; 8.64919 \; 9.0367 \; 9.34756
\; 9.56893 \; 9.58886 \; 9.5587 \; 9.62259 \; 9.84467 \; 10.0593 \;
10.0969 \; 10.0789 \; 10.1486 \; 10.4092 \; 10.6157 \; 10.4888 \; 10.184
\; 9.93404 \; 9.94139 \; 9.98591 \; 9.9527 \; 9.84505 \; 9.7291 \;
9.66538 \; 9.64479 \; 9.6884 \; 9.77675 \; 9.85598 \; 9.83595 \; 9.78971
\; 9.78849 \; 9.84644 \; 9.84597 \; 9.57856 \; 9.24738 \; 9.04949 \;
9.10518 \; 9.20667 \; 9.23742 \; 9.19232 \; 9.04282 \; 8.72377 \; 8.38062
\; 8.21323 \; 8.13324 \; 7.93087 \; 7.29756 \; 6.68394 \; 6.41201 \;
6.52599 \; 6.88589 \; 7.5504 \; 8.29051 \; 8.82174 \; 9.08436 \; 9.37241
\; 10.0302 \; 10.8357 \; 11.6365 \; 12.3295 \; 12.97 \; 13.5132 \;
14.0291 \; 14.6151 \; 15.3564 \; 16.0969 \; 16.6507 \; 17.1221 \; 17.6894
\; 18.5441 \; 19.5033 \; 20.4791 \; 21.4473 \; 22.4133 \; 23.3463 \;
24.2713 \; 25.1636 \; 26.0575 \; 27.0603 \; 28.3784 \; 29.8613 \; 31.4604
\; 33.1241 \; 34.7613 \; 36.0481 \; 37.3204 \; 38.927 \; 41.1202 \;
43.6437 \; 46.6023 \; 49.6532 \; 52.3391 \; 54.1815 \; 55.5422 \; 56.9529
\; 57.8116 \; 56.9279 \; 52.2247 \; 47.0534 \; 44.3084 \; 43.8821 \;
43.6086 \; 40.9007 \; 37.8368 \; 35.5391 \; 34.4169 \; 33.6735 \; 32.7146
\; 31.7687 \; 30.9775 \; 30.3898 \; 29.7583 \; 28.6617 \; 27.4377 \;
26.5292 \; 26.3059 \; 26.1522 \; 25.4696 \; 24.4371 \; 23.43 \; 22.8221
\; 22.319 \; 21.81 \; 21.2441 \; 20.5926 \; 19.6965 \; 18.7918 \; 18.1127
\; 17.6676 \; 17.2206 \; 16.4667 \; 15.6024 \; 14.7549 \; 14.0057 \;
13.2861 \; 12.5226 \; 11.7861 \; 11.1635 \; 10.7064 \; 10.2926 \; 9.88774
\; 9.45347 \; 8.918 \; 8.19691 \; 7.43797 \; 6.70714 \; 6.03559 \;
5.4653 \; 5.12721 \; 4.76042 \; 4.11358 \; 3.25289 \; 2.42539 \; 1.84988
\; 1.38272 \; 1.02616 \; 0.767436 \; 0.558783 \; 0.314698 \; 0.102909
\; -0.0190946 \; -0.0303486 \; -0.00659374 \; -0.000463668 \; -0.000438877
\; -0.000419548 \; -0.000410584 \; -0.000402315 \; -0.000385374 \;
-0.000363602 \; -0.000343444 \; -0.000330722 \; -0.000319412 \; -0.000306241
\; -0.000291187 \; -0.000275718 \; -0.000260659 \; -0.000245601 \;
-0.000230301 \; -0.000214992 \; -0.000200377 \; -0.000186921 \; -0.000175085
\; -0.000166313 \; -0.000160584 \; -0.000154623 \; -0.000143545 \;
-0.000131078 \; -0.000121014 \; -0.000115541 \; -0.000109419 \; -9.72385e-05
\; -8.17855e-05 \; -6.63311e-05 \; -5.32361e-05 \; -4.18779e-05 \;
-3.33299e-05 \; -2.71877e-05 \; -2.30392e-05 \; -2.30392e-05 \; -2.30392e-05
\; -2.30392e-05 \; -2.30392e-05 \; 0 \; \;;
#X coords 0 394 1 393 0 0 0;
#X restore 54 89 pd z;
