#N canvas 0 0 446 157 10;
#X floatatom 226 56 0 0 0 0 - - -;
#X msg 226 34 set \$1;
#X floatatom 11 56 0 0 0 0 - - -;
#X obj 11 11 r frequency;
#X msg 11 34 set \$1;
#X obj 24 80 s frequency;
#X obj 226 11 r pitch;
#X obj 235 80 s pitch;
#X obj 226 102 mtof;
#X obj 226 126 s frequency;
#X obj 11 126 s pitch;
#X obj 11 102 ftom;
#X text 72 56 <-- set frequency;
#X text 286 57 <-- set MIDI pitch;
#X text 46 103 <-- convert frequency;
#X text 87 118 to "MIDI" pitch;
#X text 264 103 <-- convert "MIDI" pitch;
#X text 346 116 to frequency;
#X connect 0 0 7 0;
#X connect 0 0 8 0;
#X connect 1 0 0 0;
#X connect 2 0 5 0;
#X connect 2 0 11 0;
#X connect 3 0 4 0;
#X connect 4 0 2 0;
#X connect 6 0 1 0;
#X connect 8 0 9 0;
#X connect 11 0 10 0;
