#N canvas 130 225 461 240 10;
#X floatatom 79 6 5 -30 130 0 - - -;
#X floatatom 95 117 0 0 0 0 - - -;
#X text 120 6 <-- pitch;
#X text 120 119 <-- delay time;
#X text 285 204 write to delay line;
#X text 243 138 read from delay line;
#X text 108 179 add the original and the delayed signal;
#X obj 79 42 mtof;
#X msg 137 42 1;
#X obj 79 85 *~;
#X obj 79 178 +~;
#X obj 95 157 *~ 0.7;
#X text 146 159 feedback gain;
#X obj 137 84 *~;
#X obj 137 63 adsr 1 100 1000 0 1000;
#X obj 79 63 phasor~;
#X obj 95 137 delread~ G02-del 160;
#X obj 119 203 delwrite~ G02-del 2000;
#X text 77 192 |;
#X text 43 103 input;
#X text 36 117 signal;
#X text 63 204 (OUT);
#X connect 0 0 7 0;
#X connect 0 0 8 0;
#X connect 1 0 16 0;
#X connect 7 0 15 0;
#X connect 8 0 14 0;
#X connect 9 0 10 0;
#X connect 10 0 17 0;
#X connect 11 0 10 1;
#X connect 13 0 9 1;
#X connect 14 0 13 0;
#X connect 14 0 13 1;
#X connect 15 0 9 0;
#X connect 16 0 11 0;
