#N struct r-arrow float x float y float z;
#N struct u-arrow float x float y float z;
#N struct xy-plot float x float y float w array z xy-point;
#N struct xy-point float x float y;
#N struct v-seg float x float y float z float w;
#N struct seg float x float y float dx float dy float w;
#N struct h-seg float x float y float z float w;
#N struct xy-curve float x float y float w array z xy-point;
#N struct l-curve-arrow float x float y float z float z2 float z3 float
h;
#N struct circle2 float x float y float h float h2 float mh float mh2
;
#N struct vaxis float x float y float h float h-3;
#N struct d-curve-arrow float x float y float z float z2 float z3 float
h;
#N struct circle float x float y float color float h float h2;
#N struct u-curve-arrow float x float y float z float z2 float z3 float
h;
#N struct r-curve-arrow float x float y float z float z2 float z3 float
h;
#N struct l-arrow float x float y float z;
#N struct d-arrow float x float y float z;
#N struct rect float x float y float w float h;
#N struct haxis float x float y float w float w-3;
#N struct frame float x float y float w float h;
#N struct y-plot float x float y float w array z y-point;
#N struct y-point float y;
#N struct thickcircle float x float y float color float h float h2
;
#N struct times float x float y;
#N struct plus float x float y;
#N struct minus float x float y;
#N struct divide float x float y;
#N canvas 144 404 329 179 10;
#N canvas 50 22 367 230 fig 1;
#X scalar r-arrow 358 72 -300 \;;
#X scalar u-arrow 58 152 -80 \;;
#X scalar xy-plot 58 73 1 \; -1.26769e-05 -9.27093e-05 \; 0.68936 -1.27179
\; 1.09064 -2.70799 \; 1.2532 -4.17498 \; 1.25067 -5.53336 \; 1.1742
-6.65152 \; 1.12396 -7.4186 \; 1.19965 -7.75569 \; 1.49069 -7.62422
\; 2.0674 -7.03054 \; 2.97364 -6.02628 \; 4.22207 -4.70433 \; 5.79217
-3.19071 \; 7.6315 -1.63304 \; 9.66008 -0.186709 \; 11.7775 1.00007
\; 13.8724 1.80086 \; 15.8327 2.12375 \; 17.5567 1.92114 \; 18.9632
1.19542 \; 20 -9.04136e-05 \; 20.6493 -1.56505 \; 20.9306 -3.36066
\; 20.8997 -5.22232 \; 20.6441 -6.97477 \; 20.2754 -8.44903 \; 19.9191
-9.49891 \; 19.7024 -10.0158 \; 19.7426 -9.94034 \; 20.1347 -9.26933
\; 20.9421 -8.05781 \; 22.1892 -6.41522 \; 23.8581 -4.49637 \; 25.889
-2.48767 \; 28.185 -0.590086 \; 30.62 1.00007 \; 33.0505 2.1102 \;
35.3286 2.60893 \; 37.3165 2.4201 \; 38.8999 1.53188 \; 40 -8.80644e-05
\; 40.5822 -2.05584 \; 40.6608 -4.46064 \; 40.2996 -7.0001 \; 39.6069
-9.43958 \; 38.7269 -11.5462 \; 37.8267 -13.1114 \; 37.0815 -13.9722
\; 36.6571 -14.0284 \; 36.6943 -13.2547 \; 37.2938 -11.7061 \; 38.5053
-9.51569 \; 40.3203 -6.88469 \; 42.6708 -4.06616 \; 45.4333 -1.34256
\; 48.4383 1.00008 \; 51.4848 2.69952 \; 54.3578 3.54351 \; 56.8486
3.39229 \; 58.7751 2.19525 \; 60 -8.56619e-05 \; 60.4465 -3.04808 \;
60.1082 -6.71418 \; 59.0532 -10.6929 \; 57.4213 -14.6335 \; 55.4145
-18.1709 \; 53.281 -20.9599 \; 51.2938 -22.7089 \; 49.7266 -23.2107
\; 48.8277 -22.3672 \; 48.795 -20.2049 \; 49.7541 -16.8808 \; 51.7419
-12.6758 \; 54.697 -7.97709 \; 58.4586 -3.24982 \; 62.7742 1.00007
\; 67.3155 4.26877 \; 71.7022 6.09981 \; 75.5318 6.12827 \; 78.4129
4.11961 \; 80 -8.32062e-05 \; 80.0257 -6.12536 \; 78.3296 -13.9665
\; 74.8789 -23.0596 \; 69.7806 -32.7906 \; 63.2832 -42.4336 \; 55.7669
-51.1988 \; 47.7233 -58.2891 \; 39.7261 -62.959 \; 32.3928 -64.5728
\; 26.3432 -62.6567 \; 22.1546 -56.9413 \; 20.3192 -47.3903 \; 21.2063
-34.2129 \; 25.0321 -17.8598 \; 31.8394 1.00008 \; 41.4895 21.5167
\; 53.6675 42.7123 \; 67.898 63.5421 \; 83.5754 82.963 \; 100 100 \;
116.425 113.812 \; 132.102 123.746 \; 146.333 129.377 \; 158.51 130.538
\; 168.161 127.321 \; 174.968 120.076 \; 178.794 109.375 \; 179.681
95.9714 \; 177.845 80.7495 \; 173.657 64.6569 \; 167.607 48.6415 \;
160.274 33.5889 \; 152.277 20.2643 \; 144.233 9.26762 \; 136.717 1.00008
\; 130.219 -4.35182 \; 125.121 -6.81737 \; 121.67 -6.62577 \; 119.974
-4.17681 \; 120 -7.81355e-05 \; 121.587 5.29375 \; 124.468 11.0647
\; 128.298 16.6955 \; 132.684 21.6378 \; 137.226 25.4516 \; 141.541
27.8329 \; 145.303 28.629 \; 148.258 27.8404 \; 150.246 25.6109 \;
151.205 22.205 \; 151.172 17.9774 \; 150.273 13.3361 \; 148.706 8.70359
\; 146.719 4.47822 \; 144.585 1.00008 \; 142.579 -1.47604 \; 140.947
-2.7992 \; 139.892 -2.93052 \; 139.553 -1.94107 \; 140 -7.55204e-05
\; 141.225 2.64512 \; 143.151 5.69506 \; 145.642 8.82798 \; 148.515
11.73 \; 151.562 14.1235 \; 154.567 15.7909 \; 157.329 16.5923 \; 159.68
16.4748 \; 161.495 15.4738 \; 162.706 13.7063 \; 163.306 11.3568 \;
163.343 8.65747 \; 162.919 5.86489 \; 162.173 3.23512 \; 161.273 1.00008
\; 160.393 -0.65338 \; 159.7 -1.59932 \; 159.339 -1.78229 \; 159.418
-1.22016 \; 160 -7.28521e-05 \; 161.1 1.73206 \; 162.683 3.78708 \;
164.671 5.95168 \; 166.949 8.00916 \; 169.38 9.76001 \; 171.815 11.0399
\; 174.111 11.7342 \; 176.142 11.7874 \; 177.811 11.2063 \; 179.058
10.058 \; 179.865 8.46124 \; 180.257 6.57453 \; 180.298 4.57939 \;
180.081 2.66297 \; 179.725 1.00009 \; 179.356 -0.262986 \; 179.1 -1.02168
\; 179.069 -1.22182 \; 179.351 -0.863562 \; 180 -7.01305e-05 \; 181.037
1.26897 \; 182.443 2.80781 \; 184.167 4.45843 \; 186.128 6.05606 \;
188.222 7.445 \; 190.34 8.49314 \; 192.368 9.10396 \; 194.208 9.22495
\; 195.778 8.85153 \; 197.026 8.02644 \; 197.933 6.83467 \; 198.509
5.39441 \; 198.8 3.84503 \; 198.876 2.33348 \; 198.826 1.00009 \; 198.749
-0.034683 \; 198.747 -0.681384 \; 198.909 -0.889257 \; 199.311 -0.650498
\; 200 -6.73556e-05 \; 200.998 0.988533 \; 202.297 2.21095 \; 203.858
3.5426 \; 205.62 4.85081 \; 207.504 6.00787 \; 209.419 6.90292 \; 211.274
7.45224 \; 212.987 7.60685 \; 214.487 7.35647 \; 215.73 6.72981 \;
216.693 5.79112 \; 217.382 4.63345 \; 217.83 3.36915 \; 218.091 2.11895
\; 218.238 1.00009 \; 218.351 0.115347 \; 218.513 -0.456709 \; 218.803
-0.668717 \; 219.284 -0.508592 \; 220 -6.45268e-05 \; 220.973 0.800179
\; 222.198 1.80844 \; 223.649 2.92246 \; 225.276 4.03155 \; 227.014
5.02724 \; 228.788 5.81372 \; 230.522 6.31674 \; 232.144 6.49044 \;
233.594 6.32129 \; 234.829 5.82888 \; 235.828 5.06357 \; 236.594 4.10112
\; 237.149 3.03517 \; 237.539 1.96787 \; 237.822 1.00009 \; 238.068
0.221665 \; 238.348 -0.297014 \; 238.728 -0.51149 \; 239.265 -0.407124
\; 240 -6.16445e-05 \; 240.954 0.664722 \; 242.127 1.51815 \; 243.498
2.47399 \; 245.026 3.43744 \; 246.657 4.3142 \; 248.328 5.01965 \;
249.972 5.48674 \; 251.526 5.67231 \; 252.937 5.56078 \; 254.165 5.16537
\; 255.19 4.52642 \; 256.01 3.70717 \; 256.644 2.7874 \; 257.128 1.85553
\; 257.513 1.0001 \; 257.857 0.301084 \; 258.223 -0.17746 \; 258.671
-0.393534 \; 259.25 -0.330827 \; 260 -5.87076e-05 \; 260.94 0.562441
\; 262.073 1.29851 \; 263.383 2.13398 \; 264.836 2.98609 \; 266.386
3.77142 \; 267.977 4.414 \; 269.552 4.85248 \; 271.054 5.04592 \; 272.434
4.97741 \; 273.655 4.65544 \; 274.699 4.11286 \; 275.56 3.40331 \;
276.254 2.59595 \; 276.81 1.76859 \; 277.273 1.0001 \; 277.693 0.362777
\; 278.127 -0.0844506 \; 278.627 -0.301599 \; 279.239 -0.271271 \;
280 -5.57165e-05 \; 280.929 0.482342 \; 282.031 1.12622 \; 283.293
1.86686 \; 284.686 2.63094 \; 286.172 3.34367 \; 287.7 3.93598 \; 289.22
4.35113 \; 290.679 4.55006 \; 292.034 4.51492 \; 293.251 4.25061 \;
294.308 3.78405 \; 295.202 3.16138 \; 295.943 2.44332 \; 296.556 1.69918
\; 297.081 1.0001 \; 297.562 0.412157 \; 298.049 -0.00988674 \; 298.591
-0.227807 \; 299.23 -0.2234 \; 300 -5.26707e-05 \; \;;
#X scalar v-seg 58 66 10 1 \;;
#X scalar v-seg 78 66 10 1 \;;
#X scalar v-seg 98 66 10 1 \;;
#X scalar v-seg 118 66 10 1 \;;
#X scalar v-seg 138 66 10 1 \;;
#X scalar v-seg 158 66 10 1 \;;
#X scalar v-seg 178 66 10 1 \;;
#X scalar v-seg 198 66 10 1 \;;
#X scalar v-seg 218 66 10 1 \;;
#X scalar v-seg 238 66 10 1 \;;
#X scalar v-seg 258 66 10 1 \;;
#X scalar v-seg 278 66 10 1 \;;
#X scalar v-seg 298 66 10 1 \;;
#X scalar v-seg 318 66 10 1 \;;
#X scalar v-seg 338 66 10 1 \;;
#X scalar v-seg 358 66 10 1 \;;
#X text 53 62 real;
#X scalar seg 11 25 47 47 1 \;;
#X scalar h-seg 12 25 7 1 \;;
#X scalar v-seg 11 25 7 1 \;;
#X text 154 164 0;
#X text 53 166 -5;
#X text 256 164 5;
#X text 344 170 k;
#X text 23 193 imagi-;
#X text 25 204 nary;
#X coords 0 230 1 229 0 0 0;
#X restore 51 61 pd fig;
#X obj 170 42 templates;
#N canvas 16 427 468 394 z 1;
#X scalar r-arrow 375 275 -300 \;;
#X scalar u-arrow 75 355 -80 \;;
#X scalar y-plot 75 276 1 \; 8.10302e-05 \; 1.0101 \; 2.01544 \; 2.99122
\; 3.91275 \; 4.7562 \; 5.49912 \; 6.12106 \; 6.6041 \; 6.9333 \; 7.09718
\; 7.08802 \; 6.90218 \; 6.54022 \; 6.007 \; 5.31169 \; 4.4676 \; 3.49198
\; 2.40567 \; 1.23274 \; -8.09102e-05 \; -1.26395 \; -2.52853 \; -3.76274
\; -4.93541 \; -6.01608 \; -6.9757 \; -7.7874 \; -8.42717 \; -8.87449
\; -9.11293 \; -9.13064 \; -8.92078 \; -8.48177 \; -7.81753 \; -6.93751
\; -5.85661 \; -4.59504 \; -3.17795 \; -1.63504 \; 8.0817e-05 \; 1.69046
\; 3.3966 \; 5.07737 \; 6.69076 \; 8.19495 \; 9.54921 \; 10.7149 \;
11.6565 \; 12.3423 \; 12.7455 \; 12.845 \; 12.6257 \; 12.0797 \; 11.2061
\; 10.0118 \; 8.51117 \; 6.72643 \; 4.68729 \; 2.4306 \; -8.07505e-05
\; -2.55525 \; -5.18016 \; -7.8158 \; -10.3999 \; -12.8682 \; -15.1554
\; -17.1966 \; -18.9287 \; -20.2913 \; -21.2285 \; -21.6896 \; -21.6306
\; -21.0149 \; -19.8146 \; -18.0109 \; -15.5951 \; -12.5687 \; -8.94383
\; -4.74315 \; 8.07107e-05 \; 5.24243 \; 10.9308 \; 17.0033 \; 23.3898
\; 30.0134 \; 36.7913 \; 43.6363 \; 50.4581 \; 57.1649 \; 63.6646 \;
69.8671 \; 75.6847 \; 81.0349 \; 85.8406 \; 90.0326 \; 93.5495 \; 96.3401
\; 98.3633 \; 99.5893 \; 100 \; 99.5893 \; 98.3633 \; 96.3401 \; 93.5496
\; 90.0326 \; 85.8407 \; 81.0349 \; 75.6847 \; 69.867 \; 63.6646 \;
57.1649 \; 50.4582 \; 43.6363 \; 36.7914 \; 30.0134 \; 23.3898 \; 17.0033
\; 10.9308 \; 5.24237 \; 8.07107e-05 \; -4.74315 \; -8.94381 \; -12.5687
\; -15.5951 \; -18.0109 \; -19.8146 \; -21.0149 \; -21.6306 \; -21.6896
\; -21.2285 \; -20.2913 \; -18.9287 \; -17.1966 \; -15.1554 \; -12.8682
\; -10.3999 \; -7.81579 \; -5.18016 \; -2.55524 \; -8.07505e-05 \;
2.43062 \; 4.68729 \; 6.72643 \; 8.51116 \; 10.0118 \; 11.2062 \; 12.0797
\; 12.6257 \; 12.845 \; 12.7455 \; 12.3423 \; 11.6565 \; 10.7149 \;
9.54921 \; 8.19495 \; 6.69077 \; 5.07739 \; 3.39662 \; 1.69046 \; 8.0817e-05
\; -1.63504 \; -3.17796 \; -4.59505 \; -5.85661 \; -6.93751 \; -7.81753
\; -8.48178 \; -8.92078 \; -9.13064 \; -9.11293 \; -8.87449 \; -8.42718
\; -7.78741 \; -6.9757 \; -6.01608 \; -4.93543 \; -3.76275 \; -2.52854
\; -1.26392 \; -8.09102e-05 \; 1.23274 \; 2.40568 \; 3.49199 \; 4.4676
\; 5.31169 \; 6.007 \; 6.54022 \; 6.90218 \; 7.08802 \; 7.09718 \;
6.9333 \; 6.6041 \; 6.12107 \; 5.49912 \; 4.7562 \; 3.91277 \; 2.99121
\; 2.01543 \; 1.01008 \; 8.10302e-05 \; -0.990103 \; -1.93689 \; -2.81824
\; -3.61402 \; -4.30666 \; -4.88132 \; -5.32625 \; -5.63308 \; -5.79691
\; -5.81636 \; -5.69352 \; -5.43393 \; -5.04626 \; -4.54215 \; -3.93585
\; -3.24381 \; -2.48428 \; -1.67683 \; -0.84185 \; -8.11773e-05 \;
0.82795 \; 1.62235 \; 2.36436 \; 3.03681 \; 3.62445 \; 4.11436 \; 4.49613
\; 4.76217 \; 4.90779 \; 4.93128 \; 4.83392 \; 4.61989 \; 4.29613 \;
3.87214 \; 3.35968 \; 2.77254 \; 2.12607 \; 1.43685 \; 0.722276 \;
8.13515e-05 \; -0.712036 \; -1.39688 \; -2.03813 \; -2.62081 \; -3.13149
\; -3.55872 \; -3.89319 \; -4.12802 \; -4.25878 \; -4.28366 \; -4.20344
\; -4.02143 \; -3.74338 \; -3.37728 \; -2.9332 \; -2.42293 \; -1.85975
\; -1.25805 \; -0.632989 \; -8.15533e-05 \; 0.625131 \; 1.22749 \;
1.79257 \; 2.30705 \; 2.75896 \; 3.13802 \; 3.43583 \; 3.64609 \; 3.76465
\; 3.7897 \; 3.7217 \; 3.56334 \; 3.31954 \; 2.9972 \; 2.60507 \; 2.1535
\; 1.65418 \; 1.11981 \; 0.563846 \; 8.17827e-05 \; -0.557621 \; -1.0957
\; -1.60123 \; -2.0622 \; -2.46782 \; -2.80876 \; -3.07735 \; -3.26781
\; -3.37626 \; -3.4009 \; -3.34198 \; -3.20179 \; -2.98457 \; -2.69641
\; -2.34506 \; -1.93972 \; -1.49085 \; -1.00985 \; -0.508774 \; -8.20403e-05
\; \;;
#X scalar v-seg 75 269 10 1 \;;
#X scalar v-seg 95 269 10 1 \;;
#X scalar v-seg 115 269 10 1 \;;
#X scalar v-seg 135 269 10 1 \;;
#X scalar v-seg 155 269 10 1 \;;
#X scalar v-seg 175 269 10 1 \;;
#X scalar v-seg 195 269 10 1 \;;
#X scalar v-seg 215 269 10 1 \;;
#X scalar v-seg 235 269 10 1 \;;
#X scalar v-seg 255 269 10 1 \;;
#X scalar v-seg 275 269 10 1 \;;
#X scalar v-seg 295 269 10 1 \;;
#X scalar v-seg 315 269 10 1 \;;
#X scalar v-seg 335 269 10 1 \;;
#X scalar v-seg 355 269 10 1 \;;
#X scalar v-seg 375 269 10 1 \;;
#X scalar r-arrow 375 125 -300 \;;
#X scalar u-arrow 75 205 -80 \;;
#X scalar xy-plot 75 126 1 \; -1.26769e-05 -9.27093e-05 \; 0.68936
-1.27179 \; 1.09064 -2.70799 \; 1.2532 -4.17498 \; 1.25067 -5.53336
\; 1.1742 -6.65152 \; 1.12396 -7.4186 \; 1.19965 -7.75569 \; 1.49069
-7.62422 \; 2.0674 -7.03054 \; 2.97364 -6.02628 \; 4.22207 -4.70433
\; 5.79217 -3.19071 \; 7.6315 -1.63304 \; 9.66008 -0.186709 \; 11.7775
1.00007 \; 13.8724 1.80086 \; 15.8327 2.12375 \; 17.5567 1.92114 \;
18.9632 1.19542 \; 20 -9.04136e-05 \; 20.6493 -1.56505 \; 20.9306 -3.36066
\; 20.8997 -5.22232 \; 20.6441 -6.97477 \; 20.2754 -8.44903 \; 19.9191
-9.49891 \; 19.7024 -10.0158 \; 19.7426 -9.94034 \; 20.1347 -9.26933
\; 20.9421 -8.05781 \; 22.1892 -6.41522 \; 23.8581 -4.49637 \; 25.889
-2.48767 \; 28.185 -0.590086 \; 30.62 1.00007 \; 33.0505 2.1102 \;
35.3286 2.60893 \; 37.3165 2.4201 \; 38.8999 1.53188 \; 40 -8.80644e-05
\; 40.5822 -2.05584 \; 40.6608 -4.46064 \; 40.2996 -7.0001 \; 39.6069
-9.43958 \; 38.7269 -11.5462 \; 37.8267 -13.1114 \; 37.0815 -13.9722
\; 36.6571 -14.0284 \; 36.6943 -13.2547 \; 37.2938 -11.7061 \; 38.5053
-9.51569 \; 40.3203 -6.88469 \; 42.6708 -4.06616 \; 45.4333 -1.34256
\; 48.4383 1.00008 \; 51.4848 2.69952 \; 54.3578 3.54351 \; 56.8486
3.39229 \; 58.7751 2.19525 \; 60 -8.56619e-05 \; 60.4465 -3.04808 \;
60.1082 -6.71418 \; 59.0532 -10.6929 \; 57.4213 -14.6335 \; 55.4145
-18.1709 \; 53.281 -20.9599 \; 51.2938 -22.7089 \; 49.7266 -23.2107
\; 48.8277 -22.3672 \; 48.795 -20.2049 \; 49.7541 -16.8808 \; 51.7419
-12.6758 \; 54.697 -7.97709 \; 58.4586 -3.24982 \; 62.7742 1.00007
\; 67.3155 4.26877 \; 71.7022 6.09981 \; 75.5318 6.12827 \; 78.4129
4.11961 \; 80 -8.32062e-05 \; 80.0257 -6.12536 \; 78.3296 -13.9665
\; 74.8789 -23.0596 \; 69.7806 -32.7906 \; 63.2832 -42.4336 \; 55.7669
-51.1988 \; 47.7233 -58.2891 \; 39.7261 -62.959 \; 32.3928 -64.5728
\; 26.3432 -62.6567 \; 22.1546 -56.9413 \; 20.3192 -47.3903 \; 21.2063
-34.2129 \; 25.0321 -17.8598 \; 31.8394 1.00008 \; 41.4895 21.5167
\; 53.6675 42.7123 \; 67.898 63.5421 \; 83.5754 82.963 \; 100 100 \;
116.425 113.812 \; 132.102 123.746 \; 146.333 129.377 \; 158.51 130.538
\; 168.161 127.321 \; 174.968 120.076 \; 178.794 109.375 \; 179.681
95.9714 \; 177.845 80.7495 \; 173.657 64.6569 \; 167.607 48.6415 \;
160.274 33.5889 \; 152.277 20.2643 \; 144.233 9.26762 \; 136.717 1.00008
\; 130.219 -4.35182 \; 125.121 -6.81737 \; 121.67 -6.62577 \; 119.974
-4.17681 \; 120 -7.81355e-05 \; 121.587 5.29375 \; 124.468 11.0647
\; 128.298 16.6955 \; 132.684 21.6378 \; 137.226 25.4516 \; 141.541
27.8329 \; 145.303 28.629 \; 148.258 27.8404 \; 150.246 25.6109 \;
151.205 22.205 \; 151.172 17.9774 \; 150.273 13.3361 \; 148.706 8.70359
\; 146.719 4.47822 \; 144.585 1.00008 \; 142.579 -1.47604 \; 140.947
-2.7992 \; 139.892 -2.93052 \; 139.553 -1.94107 \; 140 -7.55204e-05
\; 141.225 2.64512 \; 143.151 5.69506 \; 145.642 8.82798 \; 148.515
11.73 \; 151.562 14.1235 \; 154.567 15.7909 \; 157.329 16.5923 \; 159.68
16.4748 \; 161.495 15.4738 \; 162.706 13.7063 \; 163.306 11.3568 \;
163.343 8.65747 \; 162.919 5.86489 \; 162.173 3.23512 \; 161.273 1.00008
\; 160.393 -0.65338 \; 159.7 -1.59932 \; 159.339 -1.78229 \; 159.418
-1.22016 \; 160 -7.28521e-05 \; 161.1 1.73206 \; 162.683 3.78708 \;
164.671 5.95168 \; 166.949 8.00916 \; 169.38 9.76001 \; 171.815 11.0399
\; 174.111 11.7342 \; 176.142 11.7874 \; 177.811 11.2063 \; 179.058
10.058 \; 179.865 8.46124 \; 180.257 6.57453 \; 180.298 4.57939 \;
180.081 2.66297 \; 179.725 1.00009 \; 179.356 -0.262986 \; 179.1 -1.02168
\; 179.069 -1.22182 \; 179.351 -0.863562 \; 180 -7.01305e-05 \; 181.037
1.26897 \; 182.443 2.80781 \; 184.167 4.45843 \; 186.128 6.05606 \;
188.222 7.445 \; 190.34 8.49314 \; 192.368 9.10396 \; 194.208 9.22495
\; 195.778 8.85153 \; 197.026 8.02644 \; 197.933 6.83467 \; 198.509
5.39441 \; 198.8 3.84503 \; 198.876 2.33348 \; 198.826 1.00009 \; 198.749
-0.034683 \; 198.747 -0.681384 \; 198.909 -0.889257 \; 199.311 -0.650498
\; 200 -6.73556e-05 \; 200.998 0.988533 \; 202.297 2.21095 \; 203.858
3.5426 \; 205.62 4.85081 \; 207.504 6.00787 \; 209.419 6.90292 \; 211.274
7.45224 \; 212.987 7.60685 \; 214.487 7.35647 \; 215.73 6.72981 \;
216.693 5.79112 \; 217.382 4.63345 \; 217.83 3.36915 \; 218.091 2.11895
\; 218.238 1.00009 \; 218.351 0.115347 \; 218.513 -0.456709 \; 218.803
-0.668717 \; 219.284 -0.508592 \; 220 -6.45268e-05 \; 220.973 0.800179
\; 222.198 1.80844 \; 223.649 2.92246 \; 225.276 4.03155 \; 227.014
5.02724 \; 228.788 5.81372 \; 230.522 6.31674 \; 232.144 6.49044 \;
233.594 6.32129 \; 234.829 5.82888 \; 235.828 5.06357 \; 236.594 4.10112
\; 237.149 3.03517 \; 237.539 1.96787 \; 237.822 1.00009 \; 238.068
0.221665 \; 238.348 -0.297014 \; 238.728 -0.51149 \; 239.265 -0.407124
\; 240 -6.16445e-05 \; 240.954 0.664722 \; 242.127 1.51815 \; 243.498
2.47399 \; 245.026 3.43744 \; 246.657 4.3142 \; 248.328 5.01965 \;
249.972 5.48674 \; 251.526 5.67231 \; 252.937 5.56078 \; 254.165 5.16537
\; 255.19 4.52642 \; 256.01 3.70717 \; 256.644 2.7874 \; 257.128 1.85553
\; 257.513 1.0001 \; 257.857 0.301084 \; 258.223 -0.17746 \; 258.671
-0.393534 \; 259.25 -0.330827 \; 260 -5.87076e-05 \; 260.94 0.562441
\; 262.073 1.29851 \; 263.383 2.13398 \; 264.836 2.98609 \; 266.386
3.77142 \; 267.977 4.414 \; 269.552 4.85248 \; 271.054 5.04592 \; 272.434
4.97741 \; 273.655 4.65544 \; 274.699 4.11286 \; 275.56 3.40331 \;
276.254 2.59595 \; 276.81 1.76859 \; 277.273 1.0001 \; 277.693 0.362777
\; 278.127 -0.0844506 \; 278.627 -0.301599 \; 279.239 -0.271271 \;
280 -5.57165e-05 \; 280.929 0.482342 \; 282.031 1.12622 \; 283.293
1.86686 \; 284.686 2.63094 \; 286.172 3.34367 \; 287.7 3.93598 \; 289.22
4.35113 \; 290.679 4.55006 \; 292.034 4.51492 \; 293.251 4.25061 \;
294.308 3.78405 \; 295.202 3.16138 \; 295.943 2.44332 \; 296.556 1.69918
\; 297.081 1.0001 \; 297.562 0.412157 \; 298.049 -0.00988674 \; 298.591
-0.227807 \; 299.23 -0.2234 \; 300 -5.26707e-05 \; \;;
#X scalar v-seg 75 119 10 1 \;;
#X scalar v-seg 95 119 10 1 \;;
#X scalar v-seg 115 119 10 1 \;;
#X scalar v-seg 135 119 10 1 \;;
#X scalar v-seg 155 119 10 1 \;;
#X scalar v-seg 175 119 10 1 \;;
#X scalar v-seg 195 119 10 1 \;;
#X scalar v-seg 215 119 10 1 \;;
#X scalar v-seg 235 119 10 1 \;;
#X scalar v-seg 255 119 10 1 \;;
#X scalar v-seg 275 119 10 1 \;;
#X scalar v-seg 295 119 10 1 \;;
#X scalar v-seg 315 119 10 1 \;;
#X scalar v-seg 335 119 10 1 \;;
#X scalar v-seg 355 119 10 1 \;;
#X scalar v-seg 375 119 10 1 \;;
#X coords 0 394 1 393 0 0 0;
#X restore 54 89 pd z;
#N canvas 417 268 859 681 make-fig 1;
#X msg 24 62 \; start pd-z \;;
#X obj 115 373 pack;
#X msg 115 404 \; y-plot-point \$1 \$2 \;;
#X msg 142 88 \; add-r-arrow 375 275 -300 \; add-u-arrow 75 355 -80
;
#X msg 627 19 \; add-r-arrow 375 75 -300 \; add-u-arrow 75 155 -80
;
#X msg 115 203 \; add-y-plot 301 75 276 1 \;;
#X msg 161 29 \; pd-z clear \; start pd-z;
#X obj 161 322 dirichlet 100;
#X obj 115 256 scanner 300 15;
#X obj 161 346 * 1;
#X obj 161 301 - 5;
#X obj 87 465 scanner 15 300;
#X obj 132 507 + 75;
#X msg 132 531 \; add-v-seg \$1 269 10 1;
#X obj 640 341 dirichlet 100;
#X obj 405 261 scanner 300 15;
#X obj 640 365 * 1;
#X obj 640 320 - 5;
#X obj 451 308 - 5;
#X obj 451 359 t f f;
#X obj 451 330 expr 3.14159*$f1*99/100;
#X obj 451 386 cos;
#X obj 481 386 sin;
#X msg 405 529 \; xy-plot-point \$1 \$2 \$3 \;;
#X obj 405 498 pack 0 0 0;
#X obj 450 418 *;
#X obj 498 422 *;
#X obj 364 418 t f f;
#X obj 412 441 +;
#X obj 455 443 +;
#X msg 405 208 \; add-xy-plot 301 75 126 1 \;;
#X msg 376 21 \; add-r-arrow 375 125 -300 \; add-u-arrow 75 205 -80
;
#X obj 365 569 scanner 15 300;
#X obj 410 611 + 75;
#X msg 410 635 \; add-v-seg \$1 119 10 1;
#X connect 1 0 2 0;
#X connect 7 0 9 0;
#X connect 8 0 1 0;
#X connect 8 1 10 0;
#X connect 9 0 1 1;
#X connect 10 0 7 0;
#X connect 11 1 12 0;
#X connect 12 0 13 0;
#X connect 14 0 16 0;
#X connect 15 0 27 0;
#X connect 15 1 18 0;
#X connect 15 2 17 0;
#X connect 16 0 25 1;
#X connect 16 0 26 1;
#X connect 17 0 14 0;
#X connect 18 0 20 0;
#X connect 19 0 21 0;
#X connect 19 1 22 0;
#X connect 20 0 19 0;
#X connect 21 0 25 0;
#X connect 22 0 26 0;
#X connect 24 0 23 0;
#X connect 25 0 29 0;
#X connect 26 0 29 1;
#X connect 26 0 28 1;
#X connect 27 0 24 0;
#X connect 27 1 28 0;
#X connect 28 0 24 1;
#X connect 29 0 24 2;
#X connect 32 1 33 0;
#X connect 33 0 34 0;
#X restore 170 83 pd make-fig;
