#N canvas 93 92 362 452 10;
#X obj 137 252 sampvoice;
#X obj 204 2 r note;
#X obj 204 24 unpack 0 0 0 0 0 0 0;
#X obj 182 50 t b f;
#X obj 130 75 f;
#X obj 158 75 + 1;
#X obj 136 100 mod 1e+06;
#X obj 130 128 makenote 64;
#X obj 130 160 poly 8 1;
#X obj 130 182 stripnote;
#X obj 193 206 pack 0 0 0 0 0 0 0 0;
#X obj 193 229 route 1 2 3 4 5 6 7 8;
#X text 122 431 (OUT);
#X text 53 76 counter to;
#X text 41 126 supply later;
#X text 28 161 allocate voice;
#X text 66 139 note-off;
#X text 51 184 get rid of;
#X text 64 197 note-off;
#X text 5 219 route to a voice depending;
#X text 12 231 on voice number from poly;
#X text 32 88 generate tags;
#X text 22 286 abstraction;
#X text 21 303 for each;
#X text 23 268 one "sampvoice";
#X text 23 318 voice \, each;
#X text 23 335 adding its;
#X text 24 352 own output;
#X text 22 367 to a sum (left;
#X text 21 384 inlets and;
#X text 21 400 outlets);
#X obj 137 406 sampvoice;
#X obj 137 384 sampvoice;
#X obj 137 362 sampvoice;
#X obj 137 340 sampvoice;
#X obj 137 318 sampvoice;
#X obj 137 296 sampvoice;
#X obj 137 274 sampvoice;
#X text 135 419 |;
#X connect 0 0 37 0;
#X connect 1 0 2 0;
#X connect 2 0 3 0;
#X connect 2 1 10 2;
#X connect 2 2 7 2;
#X connect 2 2 10 3;
#X connect 2 3 10 4;
#X connect 2 4 10 5;
#X connect 2 5 10 6;
#X connect 2 6 10 7;
#X connect 3 0 4 0;
#X connect 3 1 10 1;
#X connect 4 0 5 0;
#X connect 4 0 7 0;
#X connect 5 0 6 0;
#X connect 6 0 4 1;
#X connect 7 0 8 0;
#X connect 7 1 8 1;
#X connect 8 0 9 0;
#X connect 8 2 9 1;
#X connect 9 0 10 0;
#X connect 10 0 11 0;
#X connect 11 0 0 1;
#X connect 11 1 37 1;
#X connect 11 2 36 1;
#X connect 11 3 35 1;
#X connect 11 4 34 1;
#X connect 11 5 33 1;
#X connect 11 6 32 1;
#X connect 11 7 31 1;
#X connect 32 0 31 0;
#X connect 33 0 32 0;
#X connect 34 0 33 0;
#X connect 35 0 34 0;
#X connect 36 0 35 0;
#X connect 37 0 36 0;
