#N canvas 0 0 425 278 10;
#X obj 5 9 osc~ 440;
#X obj 5 147 dac~;
#X obj 5 112 *~ 0;
#X floatatom 41 85 0 0 0 0 - - -;
#X obj 28 58 dbtorms;
#X floatatom 28 34 0 0 80 0 - - -;
#X text 9 253 (a);
#X obj 115 8 osc~ 440;
#X obj 115 226 dac~;
#X obj 115 198 *~;
#X obj 131 172 line~;
#X text 172 173 <--- ramp generator;
#X msg 162 32 0.1 2000;
#X msg 162 106 0 2000;
#X msg 162 54 0.1 50;
#X msg 162 128 0 50;
#X msg 162 76 0.1;
#X msg 162 150 0;
#X text 223 32 <-- slow on;
#X text 223 55 <-- fast on;
#X text 195 74 <-- instant on;
#X text 209 106 <-- slow off;
#X text 197 129 <-- fast off;
#X text 191 152 <-- instant off;
#X text 143 199 <-- multiplier: this time;
#X text 169 215 taking a signal in;
#X text 169 231 on both sides.;
#X text 180 254 (b);
#X obj 339 10 osc~ 440;
#X obj 355 37 osc~ 550;
#X obj 356 87 osc~ 660;
#X obj 339 63 +~;
#X obj 340 112 +~;
#X text 367 254 (c);
#X obj 340 140 output~;
#X connect 0 0 2 0;
#X connect 2 0 1 0;
#X connect 2 0 1 1;
#X connect 4 0 2 1;
#X connect 4 0 3 0;
#X connect 5 0 4 0;
#X connect 7 0 9 0;
#X connect 9 0 8 0;
#X connect 9 0 8 1;
#X connect 10 0 9 1;
#X connect 12 0 10 0;
#X connect 13 0 10 0;
#X connect 14 0 10 0;
#X connect 15 0 10 0;
#X connect 16 0 10 0;
#X connect 17 0 10 0;
#X connect 28 0 31 0;
#X connect 29 0 31 1;
#X connect 30 0 32 1;
#X connect 31 0 32 0;
#X connect 32 0 34 0;
#X connect 32 0 34 1;
