#N struct frame float x float y float w float h;
#N struct h-seg float x float y float z float w;
#N struct d-arrow float x float y float z;
#N struct minus float x float y;
#N struct divide float x float y;
#N struct xy-curve float x float y float w array z xy-point;
#N struct xy-point float x float y;
#N struct seg float x float y float dx float dy float w;
#N struct l-curve-arrow float x float y float z float z2 float z3 float
h;
#N struct circle2 float x float y float h float h2 float mh float mh2
;
#N struct vaxis float x float y float h float h-3;
#N struct xy-plot float x float y float w array z xy-point;
#N struct d-curve-arrow float x float y float z float z2 float z3 float
h;
#N struct circle float x float y float color float h float h2;
#N struct u-curve-arrow float x float y float z float z2 float z3 float
h;
#N struct r-curve-arrow float x float y float z float z2 float z3 float
h;
#N struct r-arrow float x float y float z;
#N struct l-arrow float x float y float z;
#N struct u-arrow float x float y float z;
#N struct v-seg float x float y float z float w;
#N struct rect float x float y float w float h;
#N struct haxis float x float y float w float w-3;
#N struct y-plot float x float y float w array z y-point;
#N struct y-point float y;
#N struct thickcircle float x float y float color float h float h2
;
#N struct times float x float y;
#N struct plus float x float y;
#N canvas 679 25 294 185 10;
#N canvas 461 52 381 258 fig 1;
#X text 84 8 frequency;
#X scalar frame 97 77 37 19 \;;
#X text 100 164 WRAP;
#X scalar h-seg 92 104 17 1 \;;
#X text 85 -4 center;
#X scalar d-arrow 262 123 17 \;;
#X scalar frame 230 103 39 19 \;;
#X text 238 138 S/H;
#X text 267 119 trigger;
#X scalar d-arrow 239 122 38 \;;
#X text 249 103 phase;
#X text 212 18 bandwidth;
#X scalar d-arrow 259 180 16 \;;
#X text 249 47 frequency;
#X text 249 36 fundamental;
#X scalar d-arrow 235 180 45 \;;
#X scalar d-arrow 123 131 17 \;;
#X scalar frame 91 111 39 19 \;;
#X text 99 130 S/H;
#X text 128 111 trigger;
#X scalar d-arrow 100 130 37 \;;
#X text 110 95 phase;
#X scalar d-arrow 120 187 16 \;;
#X text 110 40 frequency;
#X text 110 29 fundamental;
#X scalar d-arrow 96 187 45 \;;
#X scalar d-arrow 108 96 14 \;;
#X scalar d-arrow 106 63 14 \;;
#X scalar d-arrow 92 63 41 \;;
#X scalar h-seg 107 72 23 1 \;;
#X scalar d-arrow 130 58 14 \;;
#X text 95 230 k;
#X scalar d-arrow 99 30 14 \;;
#X scalar d-arrow 250 89 14 \;;
#X text 125 199 q;
#X scalar minus 94 48 \;;
#X scalar frame 88 45 22 17 \;;
#X scalar divide 103 171 \;;
#X scalar frame 92 167 32 19 \;;
#X scalar divide 242 164 \;;
#X scalar frame 231 160 32 19 \;;
#X text 245 170 b;
#X coords 0 258 1 257 0 0 0;
#X restore 42 60 pd fig;
#X obj 42 91 templates;
