#N canvas 130 40 384 248 10;
#X floatatom 150 148 4 0 999 0 - - -;
#X text 182 149 <-- delay time;
#X obj 150 183 delread~ delay1;
#X obj 134 58 tabplay~ G01-tab;
#X obj 134 36 metro 1000;
#X obj 134 14 loadbang;
#X text 160 98 write to delay line;
#X obj 134 205 +~;
#X obj 144 114 delwrite~ delay1 1000;
#X text 215 161 (msec);
#X text 164 201 read from delay line;
#X text 132 219 |;
#X text 157 75 input signal;
#X text 118 231 (OUT);
#X connect 0 0 2 0;
#X connect 2 0 7 1;
#X connect 3 0 7 0;
#X connect 3 0 8 0;
#X connect 4 0 3 0;
#X connect 5 0 4 0;
