#N struct haxis float x float y float w float w-3;
#N struct vaxis float x float y float h float h-3;
#N struct xy-plot float x float y float w array z xy-point;
#N struct xy-point float x float y;
#N struct r-arrow float x float y float z;
#N struct y-plot float x float y float w array z y-point;
#N struct y-point float y;
#N struct xy-curve float x float y float w array z xy-point;
#N struct seg float x float y float dx float dy float w;
#N struct l-curve-arrow float x float y float z float z2 float z3 float
h;
#N struct circle2 float x float y float h float h2 float mh float mh2
;
#N struct d-curve-arrow float x float y float z float z2 float z3 float
h;
#N struct circle float x float y float color float h float h2;
#N struct u-curve-arrow float x float y float z float z2 float z3 float
h;
#N struct r-curve-arrow float x float y float z float z2 float z3 float
h;
#N struct l-arrow float x float y float z;
#N struct u-arrow float x float y float z;
#N struct d-arrow float x float y float z;
#N struct v-seg float x float y float z float w;
#N struct h-seg float x float y float z float w;
#N struct rect float x float y float w float h;
#N struct frame float x float y float w float h;
#N struct thickcircle float x float y float color float h float h2
;
#N struct divide float x float y;
#N struct minus float x float y;
#N struct plus float x float y;
#N struct times float x float y;
#N canvas 514 135 482 287 10;
#N canvas 65 383 375 303 fig 1;
#X text 287 23 (a);
#X text 163 143 (b);
#X text 280 223 (c);
#X text 12 13 1;
#X text 5 77 -1;
#X scalar haxis 48 150 100 97 \;;
#X scalar vaxis 98 115 80 77 \;;
#X scalar xy-plot 68 150 1 \; 0 30 \; 1 28.0333 \; 2 26.1333 \; 3 24.3
\; 4 22.5333 \; 5 20.8333 \; 6 19.2 \; 7 17.6333 \; 8 16.1333 \; 9
14.7 \; 10 13.3333 \; 11 12.0333 \; 12 10.8 \; 13 9.63333 \; 14 8.53333
\; 15 7.5 \; 16 6.53333 \; 17 5.63333 \; 18 4.8 \; 19 4.03333 \; 20
3.33333 \; 21 2.7 \; 22 2.13333 \; 23 1.63333 \; 24 1.2 \; 25 0.833333
\; 26 0.533333 \; 27 0.3 \; 28 0.133333 \; 29 0.0333333 \; 30 0 \;
31 0.0333333 \; 32 0.133333 \; 33 0.3 \; 34 0.533333 \; 35 0.833333
\; 36 1.2 \; 37 1.63333 \; 38 2.13333 \; 39 2.7 \; 40 3.33333 \; 41
4.03333 \; 42 4.8 \; 43 5.63333 \; 44 6.53333 \; 45 7.5 \; 46 8.53333
\; 47 9.63333 \; 48 10.8 \; 49 12.0333 \; 50 13.3333 \; 51 14.7 \;
52 16.1333 \; 53 17.6333 \; 54 19.2 \; 55 20.8333 \; 56 22.5333 \;
57 24.3 \; 58 26.1333 \; 59 28.0333 \; 60 30 \; \;;
#X scalar r-arrow 358 250 -330 \;;
#X scalar vaxis 28 210 80 77 \;;
#X scalar y-plot 28 250 1 \; -0 \; 9.38042 \; 18.0598 \; 27.3744 \;
32.0061 \; 34.4157 \; 33.2427 \; 27.8992 \; 21.4599 \; 10.5601 \; 1.44632
\; -7.72011 \; -18.8545 \; -25.5928 \; -31.4969 \; -33.2054 \; -31.6433
\; -27.7247 \; -19.4133 \; -11.4804 \; -2.74497 \; 9.01985 \; 17.0832
\; 25.6968 \; 29.9441 \; 32.0836 \; 30.9096 \; 25.8332 \; 19.7766 \;
12.2923 \; 1.07727 \; -7.44636 \; -17.7638 \; -23.9783 \; -29.3774
\; -30.8877 \; -29.3318 \; -25.6188 \; -20.0312 \; -10.4177 \; -2.29001
\; 8.6201 \; 16.0712 \; 23.9926 \; 27.8649 \; 29.748 \; 28.5843 \;
25.309 \; 18.1231 \; 11.1531 \; 0.748085 \; -7.13333 \; -16.639 \;
-22.3368 \; -27.2429 \; -28.5659 \; -27.7621 \; -23.5335 \; -18.3172
\; -9.39192 \; -1.87472 \; 8.18153 \; 15.024 \; 22.2631 \; 25.769 \;
27.3395 \; 26.2671 \; 23.1856 \; 16.4994 \; 10.0499 \; 0.458786 \;
-6.78103 \; -15.4799 \; -20.6684 \; -24.2851 \; -26.2403 \; -25.4333
\; -21.4688 \; -16.6326 \; -8.40319 \; -1.49921 \; 7.70421 \; 13.9424
\; 19.0978 \; 23.6574 \; 25.0283 \; 23.9593 \; 21.0812 \; 14.9065 \;
8.98292 \; 0.209426 \; -6.38946 \; -12.4603 \; -18.9731 \; -22.214
\; -23.9107 \; -23.112 \; -19.4247 \; -14.9774 \; -7.45143 \; -1.16348
\; 5.15619 \; 12.8264 \; 17.4649 \; 21.5305 \; 22.7125 \; 21.6612 \;
18.9967 \; 13.3445 \; 7.95265 \; 2.02087 \; -5.95894 \; -11.4218 \;
-17.2519 \; -20.1256 \; -21.5786 \; -20.7982 \; -17.4023 \; -13.3517
\; -8.3511 \; -0.867563 \; 4.81172 \; 11.6759 \; 15.8048 \; 19.3879
\; 20.3923 \; 19.3726 \; 16.9325 \; 11.8132 \; 6.95921 \; 1.63891 \;
-5.48957 \; -10.3486 \; -15.5053 \; -18.021 \; -19.2443 \; -18.4932
\; -15.402 \; -11.7564 \; -7.27967 \; -0.611533 \; 4.4279 \; 10.4916
\; 14.1174 \; 17.2311 \; 18.0676 \; 17.0947 \; 14.8883 \; 11.6052 \;
6.00252 \; 1.29667 \; -4.98124 \; -9.24067 \; -13.7328 \; -15.9005
\; -16.9075 \; -16.1974 \; -14.2968 \; -10.1915 \; -6.24465 \; -0.395409
\; 4.00499 \; 9.27384 \; 12.4037 \; 15.0603 \; 15.7397 \; 15.2464 \;
12.8654 \; 9.97688 \; 5.08305 \; 0.994161 \; -4.43431 \; -8.09803 \;
-11.9355 \; -13.7639 \; -14.5496 \; -13.9104 \; -12.2321 \; -8.65714
\; -5.24622 \; -0.219201 \; 3.5431 \; 8.02247 \; 10.664 \; 12.4778
\; 13.4091 \; 12.9432 \; 10.8639 \; 8.37841 \; 4.20096 \; 0.731477
\; -3.84892 \; -6.92133 \; -9.43317 \; -11.6125 \; -12.2288 \; -11.6337
\; -10.1872 \; -7.15398 \; -4.28436 \; -0.082947 \; 3.0422 \; 5.88822
\; 8.89817 \; 10.3627 \; 11.0757 \; 10.6485 \; 8.88409 \; 6.81012 \;
3.35627 \; 0.508651 \; -2.32194 \; -5.71081 \; -7.72607 \; -9.44662
\; -9.90422 \; -9.36765 \; -8.16284 \; -5.68231 \; -3.35949 \; -0.838235
\; 2.50256 \; 4.75283 \; 7.10716 \; 8.2312 \; 8.74042 \; 8.36251 \;
6.92659 \; 5.27206 \; 3.26824 \; 0.325698 \; -1.86726 \; -4.46653 \;
-5.99253 \; -7.26644 \; -7.57627 \; -7.11235 \; -6.15959 \; -4.77864
\; -2.47178 \; -0.568949 \; 1.92431 \; 3.58308 \; 5.29131 \; 6.08431
\; 6.40393 \; 6.08609 \; 5.33 \; 3.76483 \; 2.30089 \; 0.182664 \;
-1.37351 \; -3.18894 \; -4.2327 \; -5.07269 \; -5.2452 \; -4.86855
\; -4.17759 \; -3.20634 \; -1.62133 \; -0.339465 \; 1.30751 \; 2.37919
\; 3.45084 \; 3.92238 \; 4.06645 \; 3.81968 \; 3.30354 \; 2.2887 \;
1.37029 \; 0.0795685 \; -0.840886 \; -1.87834 \; -2.44716 \; -2.86584
\; -2.91171 \; -2.73869 \; -2.21743 \; -1.66401 \; -0.808369 \; -0.149812
\; 0.652347 \; 1.14134 \; 1.58624 \; 1.74576 \; 1.75619 \; 1.56364
\; 1.29759 \; 0.843908 \; 0.476601 \; 0.0164239 \; -0.269487 \; -0.534933
\; -0.63628 \; -0.65606 \; -0.576309 \; -0.461549 \; -0.279541 \; -0.152101
\; -0.0330697 \; \;;
#X scalar r-arrow 358 50 -330 \;;
#X scalar vaxis 28 18 80 77 \;;
#X scalar y-plot 28 50 1 \; 0 \; 2.51407 \; 9.31874 \; 21.4103 \; 29.2682
\; 33.8412 \; 31.5737 \; 22.2389 \; 13.1579 \; 3.18614 \; 0.059767
\; 1.70286 \; 10.1569 \; 18.7141 \; 28.3444 \; 31.5028 \; 28.6085 \;
21.9616 \; 10.7679 \; 3.76569 \; 0.215282 \; 2.3245 \; 8.33813 \; 18.8664
\; 25.6185 \; 29.4102 \; 27.2972 \; 19.0673 \; 11.1747 \; 4.31718 \;
0.0331576 \; 1.58423 \; 9.0158 \; 16.4274 \; 24.658 \; 27.2585 \; 24.5815
\; 18.7521 \; 11.4643 \; 3.1008 \; 0.149833 \; 2.12303 \; 7.3795 \;
16.447 \; 22.1844 \; 25.2841 \; 23.3446 \; 18.3013 \; 9.38418 \; 3.55402
\; 0.0159894 \; 1.45384 \; 7.91018 \; 14.2552 \; 21.205 \; 23.3146
\; 22.021 \; 15.8236 \; 9.58633 \; 2.52023 \; 0.100417 \; 1.9125 \;
6.44919 \; 14.1613 \; 18.9726 \; 21.3556 \; 19.7131 \; 15.3592 \; 7.77803
\; 2.88572 \; 0.00601385 \; 1.31378 \; 6.84654 \; 12.2052 \; 16.8505
\; 19.6729 \; 18.4815 \; 13.1688 \; 7.90411 \; 2.01753 \; 0.0642177
\; 1.69585 \; 5.55401 \; 10.4207 \; 15.9907 \; 17.8976 \; 16.4014 \;
12.6976 \; 6.34867 \; 2.30551 \; 0.00125313 \; 1.16643 \; 4.43598 \;
10.2851 \; 14.0989 \; 16.3349 \; 15.2618 \; 10.7805 \; 6.40924 \; 1.58639
\; 0.0386767 \; 0.759609 \; 4.70045 \; 8.71495 \; 13.2446 \; 14.7387
\; 13.406 \; 10.3107 \; 5.08788 \; 1.80699 \; 0.116684 \; 1.01454 \;
3.72738 \; 8.5037 \; 11.5725 \; 13.3038 \; 12.359 \; 8.65255 \; 5.09339
\; 1.99259 \; 0.0215047 \; 0.661503 \; 3.89502 \; 7.1369 \; 10.7398
\; 11.8813 \; 10.7228 \; 8.19168 \; 3.98722 \; 1.38373 \; 0.076744
\; 0.86101 \; 3.0598 \; 6.86895 \; 9.27871 \; 10.5812 \; 9.77136 \;
6.77774 \; 3.94891 \; 1.5141 \; 0.0106849 \; 0.560179 \; 3.14497 \;
5.69432 \; 8.48314 \; 9.32681 \; 8.34941 \; 6.33322 \; 3.84805 \; 1.02944
\; 0.048039 \; 0.708935 \; 2.43971 \; 5.38825 \; 7.22357 \; 8.16752
\; 7.49584 \; 5.84 \; 2.96764 \; 1.11416 \; 0.00446709 \; 0.458284
\; 2.45726 \; 4.39576 \; 6.48036 \; 7.07827 \; 6.64154 \; 4.72908 \;
2.84395 \; 0.738211 \; 0.0282387 \; 0.561804 \; 1.87366 \; 4.07017
\; 5.41272 \; 6.04832 \; 5.52859 \; 4.27501 \; 2.14132 \; 0.786367
\; 0.00137283 \; 0.358674 \; 1.83886 \; 3.24914 \; 4.44844 \; 5.13725
\; 4.78646 \; 3.37215 \; 2.00565 \; 0.50423 \; 0.0152874 \; 0.423263
\; 1.36871 \; 2.54242 \; 3.85286 \; 4.27268 \; 3.86697 \; 2.96509 \;
1.46227 \; 0.524449 \; 0.000196577 \; 0.264428 \; 0.990603 \; 2.26221
\; 3.06815 \; 3.50486 \; 3.23974 \; 2.25506 \; 1.32508 \; 0.321844
\; 0.00739216 \; 0.15404 \; 0.931809 \; 1.70549 \; 2.54968 \; 2.80267
\; 2.50723 \; 1.90377 \; 0.922532 \; 0.322462 \; 0.0200754 \; 0.178938
\; 0.645411 \; 1.44319 \; 1.93579 \; 2.18271 \; 1.99804 \; 1.37079
\; 0.794132 \; 0.305183 \; 0.00303083 \; 0.0996186 \; 0.569996 \; 1.02601
\; 1.5086 \; 1.64 \; 1.4453 \; 1.08401 \; 0.652439 \; 0.174563 \; 0.00924866
\; 0.105799 \; 0.366814 \; 0.799943 \; 1.05768 \; 1.17172 \; 1.0583
\; 0.811683 \; 0.404969 \; 0.15126 \; 0.00095332 \; 0.0539012 \; 0.290553
\; 0.511878 \; 0.735205 \; 0.786059 \; 0.677223 \; 0.498636 \; 0.293731
\; 0.0751061 \; 0.00329247 \; 0.0488454 \; 0.16173 \; 0.340237 \; 0.439574
\; 0.472457 \; 0.416856 \; 0.311811 \; 0.149661 \; 0.0536482 \; 0.00018089
\; 0.0202026 \; 0.100804 \; 0.171102 \; 0.234659 \; 0.24223 \; 0.214298
\; 0.140486 \; 0.0791125 \; 0.0186703 \; 0.000641245 \; 0.0121588 \;
0.0372186 \; 0.0718902 \; 0.0870765 \; 0.0881204 \; 0.0698563 \; 0.0481065
\; 0.020348 \; 0.00648994 \; 7.70698e-06 \; 0.00207494 \; 0.0081758
\; 0.0115672 \; 0.0122976 \; 0.00948949 \; 0.00608649 \; 0.00223266
\; 0.000660994 \; 3.12458e-05 \; \;;
#X text 122 154 1;
#X text 86 114 1;
#X text 57 154 -1;
#X text 14 214 1;
#X coords 0 303 1 302 0 0 0;
#X restore 30 32 pd fig;
#N canvas 249 249 875 632 put-in-graph 1;
#X obj 82 217 bng 15 250 50 0 empty empty empty 0 -6 0 8 -262144 -1
-1;
#X obj 82 239 t b b;
#X obj 154 283 0;
#X obj 23 319 f;
#X obj 60 322 + 1;
#X obj 131 283 bng 15 250 50 0 empty empty empty 0 -6 0 8 -262144 -1
-1;
#X obj 24 493 pack;
#X obj 24 520 s y-plot-point;
#X msg 22 267 1;
#X msg 60 267 0;
#X obj 82 468 snapshot~;
#X obj 23 467 t f b;
#X obj 22 292 metro 5;
#X msg 145 16 \; start pd-z \; pd dsp 1;
#X msg 15 17 \; pd-z clear;
#X obj 121 387 line~;
#X obj 120 415 *~;
#X obj 178 389 osc~ 10;
#X obj 23 348 moses 300;
#X msg 121 352 1 \, 0 1500;
#X msg 212 353 -0.25;
#X obj 345 221 bng 15 250 50 0 empty empty empty 0 -6 0 8 -262144 -1
-1;
#X obj 345 243 t b b;
#X obj 417 287 0;
#X obj 286 323 f;
#X obj 323 326 + 1;
#X obj 394 287 bng 15 250 50 0 empty empty empty 0 -6 0 8 -262144 -1
-1;
#X obj 287 497 pack;
#X obj 287 524 s y-plot-point;
#X msg 285 271 1;
#X msg 323 271 0;
#X obj 347 497 snapshot~;
#X obj 286 471 t f b;
#X obj 285 296 metro 5;
#X obj 384 391 line~;
#X obj 384 415 *~;
#X obj 441 393 osc~ 10;
#X obj 286 352 moses 300;
#X msg 384 356 1 \, 0 1500;
#X msg 475 357 -0.25;
#X obj 120 441 *~ 35;
#X obj 384 460 *~ 35;
#X obj 580 291 until;
#X obj 580 259 t b b;
#X obj 583 321 f;
#X msg 637 267 0;
#X obj 655 297 + 1;
#X obj 580 236 bng 15 250 50 0 empty empty empty 0 -6 0 8 -262144 -1
-1;
#X msg 582 475 \; xy-plot-point \$1 \$2 \$3 \;;
#X obj 582 454 pack 0 0 0;
#X obj 583 351 t f f;
#X msg 17 92 \; add-r-arrow 390 250 -330 \; add-vaxis 60 210 80 77
;
#X msg 22 169 \; add-y-plot 300 60 250 1;
#X msg 283 172 \; add-y-plot 300 60 50 1;
#X obj 384 438 *~;
#X msg 280 96 \; add-r-arrow 390 50 -330 \; add-vaxis 60 10 80 77;
#X obj 538 389 expr ($f1-30)*($f1-30)/900;
#X obj 536 414 * 30;
#X msg 579 193 \; add-xy-plot 61 100 150 1 \;;
#X obj 655 320 sel 61;
#X msg 583 121 \; add-haxis 80 150 100 97 \; add-vaxis 130 110 80 77
;
#X connect 0 0 1 0;
#X connect 1 0 8 0;
#X connect 1 0 19 0;
#X connect 1 0 20 0;
#X connect 1 1 2 0;
#X connect 2 0 3 1;
#X connect 3 0 4 0;
#X connect 3 0 18 0;
#X connect 4 0 3 1;
#X connect 5 0 9 0;
#X connect 6 0 7 0;
#X connect 8 0 12 0;
#X connect 9 0 12 0;
#X connect 10 0 6 1;
#X connect 11 0 6 0;
#X connect 11 1 10 0;
#X connect 12 0 3 0;
#X connect 15 0 16 0;
#X connect 16 0 40 0;
#X connect 17 0 16 1;
#X connect 18 0 11 0;
#X connect 18 1 5 0;
#X connect 19 0 15 0;
#X connect 20 0 17 1;
#X connect 21 0 22 0;
#X connect 22 0 29 0;
#X connect 22 0 38 0;
#X connect 22 0 39 0;
#X connect 22 1 23 0;
#X connect 23 0 24 1;
#X connect 24 0 25 0;
#X connect 24 0 37 0;
#X connect 25 0 24 1;
#X connect 26 0 30 0;
#X connect 27 0 28 0;
#X connect 29 0 33 0;
#X connect 30 0 33 0;
#X connect 31 0 27 1;
#X connect 32 0 27 0;
#X connect 32 1 31 0;
#X connect 33 0 24 0;
#X connect 34 0 35 0;
#X connect 35 0 54 0;
#X connect 35 0 54 1;
#X connect 36 0 35 1;
#X connect 37 0 32 0;
#X connect 37 1 26 0;
#X connect 38 0 34 0;
#X connect 39 0 36 1;
#X connect 40 0 10 0;
#X connect 41 0 31 0;
#X connect 42 0 44 0;
#X connect 43 0 42 0;
#X connect 43 1 45 0;
#X connect 44 0 46 0;
#X connect 44 0 50 0;
#X connect 45 0 44 1;
#X connect 46 0 44 1;
#X connect 46 0 59 0;
#X connect 47 0 43 0;
#X connect 49 0 48 0;
#X connect 50 0 49 0;
#X connect 50 1 49 1;
#X connect 50 1 56 0;
#X connect 54 0 41 0;
#X connect 56 0 57 0;
#X connect 57 0 49 2;
#X connect 59 0 42 1;
#X restore 30 118 pd put-in-graph;
#X obj 31 90 templates;
#N canvas 93 18 450 300 z 1;
#X scalar haxis 80 150 100 97 \;;
#X scalar vaxis 130 110 80 77 \;;
#X scalar xy-plot 100 150 1 \; 0 30 \; 1 28.0333 \; 2 26.1333 \; 3
24.3 \; 4 22.5333 \; 5 20.8333 \; 6 19.2 \; 7 17.6333 \; 8 16.1333
\; 9 14.7 \; 10 13.3333 \; 11 12.0333 \; 12 10.8 \; 13 9.63333 \; 14
8.53333 \; 15 7.5 \; 16 6.53333 \; 17 5.63333 \; 18 4.8 \; 19 4.03333
\; 20 3.33333 \; 21 2.7 \; 22 2.13333 \; 23 1.63333 \; 24 1.2 \; 25
0.833333 \; 26 0.533333 \; 27 0.3 \; 28 0.133333 \; 29 0.0333333 \;
30 0 \; 31 0.0333333 \; 32 0.133333 \; 33 0.3 \; 34 0.533333 \; 35
0.833333 \; 36 1.2 \; 37 1.63333 \; 38 2.13333 \; 39 2.7 \; 40 3.33333
\; 41 4.03333 \; 42 4.8 \; 43 5.63333 \; 44 6.53333 \; 45 7.5 \; 46
8.53333 \; 47 9.63333 \; 48 10.8 \; 49 12.0333 \; 50 13.3333 \; 51
14.7 \; 52 16.1333 \; 53 17.6333 \; 54 19.2 \; 55 20.8333 \; 56 22.5333
\; 57 24.3 \; 58 26.1333 \; 59 28.0333 \; 60 30 \; \;;
#X scalar r-arrow 390 250 -330 \;;
#X scalar vaxis 60 210 80 77 \;;
#X scalar y-plot 60 250 1 \; -0 \; 9.38042 \; 18.0598 \; 27.3744 \;
32.0061 \; 34.4157 \; 33.2427 \; 27.8992 \; 21.4599 \; 10.5601 \; 1.44632
\; -7.72011 \; -18.8545 \; -25.5928 \; -31.4969 \; -33.2054 \; -31.6433
\; -27.7247 \; -19.4133 \; -11.4804 \; -2.74497 \; 9.01985 \; 17.0832
\; 25.6968 \; 29.9441 \; 32.0836 \; 30.9096 \; 25.8332 \; 19.7766 \;
12.2923 \; 1.07727 \; -7.44636 \; -17.7638 \; -23.9783 \; -29.3774
\; -30.8877 \; -29.3318 \; -25.6188 \; -20.0312 \; -10.4177 \; -2.29001
\; 8.6201 \; 16.0712 \; 23.9926 \; 27.8649 \; 29.748 \; 28.5843 \;
25.309 \; 18.1231 \; 11.1531 \; 0.748085 \; -7.13333 \; -16.639 \;
-22.3368 \; -27.2429 \; -28.5659 \; -27.7621 \; -23.5335 \; -18.3172
\; -9.39192 \; -1.87472 \; 8.18153 \; 15.024 \; 22.2631 \; 25.769 \;
27.3395 \; 26.2671 \; 23.1856 \; 16.4994 \; 10.0499 \; 0.458786 \;
-6.78103 \; -15.4799 \; -20.6684 \; -24.2851 \; -26.2403 \; -25.4333
\; -21.4688 \; -16.6326 \; -8.40319 \; -1.49921 \; 7.70421 \; 13.9424
\; 19.0978 \; 23.6574 \; 25.0283 \; 23.9593 \; 21.0812 \; 14.9065 \;
8.98292 \; 0.209426 \; -6.38946 \; -12.4603 \; -18.9731 \; -22.214
\; -23.9107 \; -23.112 \; -19.4247 \; -14.9774 \; -7.45143 \; -1.16348
\; 5.15619 \; 12.8264 \; 17.4649 \; 21.5305 \; 22.7125 \; 21.6612 \;
18.9967 \; 13.3445 \; 7.95265 \; 2.02087 \; -5.95894 \; -11.4218 \;
-17.2519 \; -20.1256 \; -21.5786 \; -20.7982 \; -17.4023 \; -13.3517
\; -8.3511 \; -0.867563 \; 4.81172 \; 11.6759 \; 15.8048 \; 19.3879
\; 20.3923 \; 19.3726 \; 16.9325 \; 11.8132 \; 6.95921 \; 1.63891 \;
-5.48957 \; -10.3486 \; -15.5053 \; -18.021 \; -19.2443 \; -18.4932
\; -15.402 \; -11.7564 \; -7.27967 \; -0.611533 \; 4.4279 \; 10.4916
\; 14.1174 \; 17.2311 \; 18.0676 \; 17.0947 \; 14.8883 \; 11.6052 \;
6.00252 \; 1.29667 \; -4.98124 \; -9.24067 \; -13.7328 \; -15.9005
\; -16.9075 \; -16.1974 \; -14.2968 \; -10.1915 \; -6.24465 \; -0.395409
\; 4.00499 \; 9.27384 \; 12.4037 \; 15.0603 \; 15.7397 \; 15.2464 \;
12.8654 \; 9.97688 \; 5.08305 \; 0.994161 \; -4.43431 \; -8.09803 \;
-11.9355 \; -13.7639 \; -14.5496 \; -13.9104 \; -12.2321 \; -8.65714
\; -5.24622 \; -0.219201 \; 3.5431 \; 8.02247 \; 10.664 \; 12.4778
\; 13.4091 \; 12.9432 \; 10.8639 \; 8.37841 \; 4.20096 \; 0.731477
\; -3.84892 \; -6.92133 \; -9.43317 \; -11.6125 \; -12.2288 \; -11.6337
\; -10.1872 \; -7.15398 \; -4.28436 \; -0.082947 \; 3.0422 \; 5.88822
\; 8.89817 \; 10.3627 \; 11.0757 \; 10.6485 \; 8.88409 \; 6.81012 \;
3.35627 \; 0.508651 \; -2.32194 \; -5.71081 \; -7.72607 \; -9.44662
\; -9.90422 \; -9.36765 \; -8.16284 \; -5.68231 \; -3.35949 \; -0.838235
\; 2.50256 \; 4.75283 \; 7.10716 \; 8.2312 \; 8.74042 \; 8.36251 \;
6.92659 \; 5.27206 \; 3.26824 \; 0.325698 \; -1.86726 \; -4.46653 \;
-5.99253 \; -7.26644 \; -7.57627 \; -7.11235 \; -6.15959 \; -4.77864
\; -2.47178 \; -0.568949 \; 1.92431 \; 3.58308 \; 5.29131 \; 6.08431
\; 6.40393 \; 6.08609 \; 5.33 \; 3.76483 \; 2.30089 \; 0.182664 \;
-1.37351 \; -3.18894 \; -4.2327 \; -5.07269 \; -5.2452 \; -4.86855
\; -4.17759 \; -3.20634 \; -1.62133 \; -0.339465 \; 1.30751 \; 2.37919
\; 3.45084 \; 3.92238 \; 4.06645 \; 3.81968 \; 3.30354 \; 2.2887 \;
1.37029 \; 0.0795685 \; -0.840886 \; -1.87834 \; -2.44716 \; -2.86584
\; -2.91171 \; -2.73869 \; -2.21743 \; -1.66401 \; -0.808369 \; -0.149812
\; 0.652347 \; 1.14134 \; 1.58624 \; 1.74576 \; 1.75619 \; 1.56364
\; 1.29759 \; 0.843908 \; 0.476601 \; 0.0164239 \; -0.269487 \; -0.534933
\; -0.63628 \; -0.65606 \; -0.576309 \; -0.461549 \; -0.279541 \; -0.152101
\; -0.0330697 \; \;;
#X scalar r-arrow 390 50 -330 \;;
#X scalar vaxis 60 10 80 77 \;;
#X scalar y-plot 60 50 1 \; 0 \; 2.51407 \; 9.31874 \; 21.4103 \; 29.2682
\; 33.8412 \; 31.5737 \; 22.2389 \; 13.1579 \; 3.18614 \; 0.059767
\; 1.70286 \; 10.1569 \; 18.7141 \; 28.3444 \; 31.5028 \; 28.6085 \;
21.9616 \; 10.7679 \; 3.76569 \; 0.215282 \; 2.3245 \; 8.33813 \; 18.8664
\; 25.6185 \; 29.4102 \; 27.2972 \; 19.0673 \; 11.1747 \; 4.31718 \;
0.0331576 \; 1.58423 \; 9.0158 \; 16.4274 \; 24.658 \; 27.2585 \; 24.5815
\; 18.7521 \; 11.4643 \; 3.1008 \; 0.149833 \; 2.12303 \; 7.3795 \;
16.447 \; 22.1844 \; 25.2841 \; 23.3446 \; 18.3013 \; 9.38418 \; 3.55402
\; 0.0159894 \; 1.45384 \; 7.91018 \; 14.2552 \; 21.205 \; 23.3146
\; 22.021 \; 15.8236 \; 9.58633 \; 2.52023 \; 0.100417 \; 1.9125 \;
6.44919 \; 14.1613 \; 18.9726 \; 21.3556 \; 19.7131 \; 15.3592 \; 7.77803
\; 2.88572 \; 0.00601385 \; 1.31378 \; 6.84654 \; 12.2052 \; 16.8505
\; 19.6729 \; 18.4815 \; 13.1688 \; 7.90411 \; 2.01753 \; 0.0642177
\; 1.69585 \; 5.55401 \; 10.4207 \; 15.9907 \; 17.8976 \; 16.4014 \;
12.6976 \; 6.34867 \; 2.30551 \; 0.00125313 \; 1.16643 \; 4.43598 \;
10.2851 \; 14.0989 \; 16.3349 \; 15.2618 \; 10.7805 \; 6.40924 \; 1.58639
\; 0.0386767 \; 0.759609 \; 4.70045 \; 8.71495 \; 13.2446 \; 14.7387
\; 13.406 \; 10.3107 \; 5.08788 \; 1.80699 \; 0.116684 \; 1.01454 \;
3.72738 \; 8.5037 \; 11.5725 \; 13.3038 \; 12.359 \; 8.65255 \; 5.09339
\; 1.99259 \; 0.0215047 \; 0.661503 \; 3.89502 \; 7.1369 \; 10.7398
\; 11.8813 \; 10.7228 \; 8.19168 \; 3.98722 \; 1.38373 \; 0.076744
\; 0.86101 \; 3.0598 \; 6.86895 \; 9.27871 \; 10.5812 \; 9.77136 \;
6.77774 \; 3.94891 \; 1.5141 \; 0.0106849 \; 0.560179 \; 3.14497 \;
5.69432 \; 8.48314 \; 9.32681 \; 8.34941 \; 6.33322 \; 3.84805 \; 1.02944
\; 0.048039 \; 0.708935 \; 2.43971 \; 5.38825 \; 7.22357 \; 8.16752
\; 7.49584 \; 5.84 \; 2.96764 \; 1.11416 \; 0.00446709 \; 0.458284
\; 2.45726 \; 4.39576 \; 6.48036 \; 7.07827 \; 6.64154 \; 4.72908 \;
2.84395 \; 0.738211 \; 0.0282387 \; 0.561804 \; 1.87366 \; 4.07017
\; 5.41272 \; 6.04832 \; 5.52859 \; 4.27501 \; 2.14132 \; 0.786367
\; 0.00137283 \; 0.358674 \; 1.83886 \; 3.24914 \; 4.44844 \; 5.13725
\; 4.78646 \; 3.37215 \; 2.00565 \; 0.50423 \; 0.0152874 \; 0.423263
\; 1.36871 \; 2.54242 \; 3.85286 \; 4.27268 \; 3.86697 \; 2.96509 \;
1.46227 \; 0.524449 \; 0.000196577 \; 0.264428 \; 0.990603 \; 2.26221
\; 3.06815 \; 3.50486 \; 3.23974 \; 2.25506 \; 1.32508 \; 0.321844
\; 0.00739216 \; 0.15404 \; 0.931809 \; 1.70549 \; 2.54968 \; 2.80267
\; 2.50723 \; 1.90377 \; 0.922532 \; 0.322462 \; 0.0200754 \; 0.178938
\; 0.645411 \; 1.44319 \; 1.93579 \; 2.18271 \; 1.99804 \; 1.37079
\; 0.794132 \; 0.305183 \; 0.00303083 \; 0.0996186 \; 0.569996 \; 1.02601
\; 1.5086 \; 1.64 \; 1.4453 \; 1.08401 \; 0.652439 \; 0.174563 \; 0.00924866
\; 0.105799 \; 0.366814 \; 0.799943 \; 1.05768 \; 1.17172 \; 1.0583
\; 0.811683 \; 0.404969 \; 0.15126 \; 0.00095332 \; 0.0539012 \; 0.290553
\; 0.511878 \; 0.735205 \; 0.786059 \; 0.677223 \; 0.498636 \; 0.293731
\; 0.0751061 \; 0.00329247 \; 0.0488454 \; 0.16173 \; 0.340237 \; 0.439574
\; 0.472457 \; 0.416856 \; 0.311811 \; 0.149661 \; 0.0536482 \; 0.00018089
\; 0.0202026 \; 0.100804 \; 0.171102 \; 0.234659 \; 0.24223 \; 0.214298
\; 0.140486 \; 0.0791125 \; 0.0186703 \; 0.000641245 \; 0.0121588 \;
0.0372186 \; 0.0718902 \; 0.0870765 \; 0.0881204 \; 0.0698563 \; 0.0481065
\; 0.020348 \; 0.00648994 \; 7.70698e-06 \; 0.00207494 \; 0.0081758
\; 0.0115672 \; 0.0122976 \; 0.00948949 \; 0.00608649 \; 0.00223266
\; 0.000660994 \; 3.12458e-05 \; \;;
#X coords 0 300 1 299 0 0 0;
#X restore 31 60 pd z;
