#N struct circle2 float x float y float h float h2 float mh float mh2
;
#N struct vaxis float x float y float h float h-3;
#N struct haxis float x float y float w float w-3;
#N struct xy-curve float x float y float w array z xy-point;
#N struct xy-point float x float y;
#N struct v-seg float x float y float z float w;
#N struct h-seg float x float y float z float w;
#N struct u-arrow float x float y float z;
#N struct xy-plot float x float y float w array z xy-point;
#N struct pole float x float y float x1 float x2;
#N struct circle float x float y float color float h float h2;
#N struct seg float x float y float dx float dy float w;
#N struct l-curve-arrow float x float y float z float z2 float z3 float
h;
#N struct d-curve-arrow float x float y float z float z2 float z3 float
h;
#N struct u-curve-arrow float x float y float z float z2 float z3 float
h;
#N struct r-curve-arrow float x float y float z float z2 float z3 float
h;
#N struct r-arrow float x float y float z;
#N struct l-arrow float x float y float z;
#N struct d-arrow float x float y float z;
#N struct rect float x float y float w float h;
#N struct frame float x float y float w float h;
#N struct y-plot float x float y float w array z y-point;
#N struct y-point float y;
#N struct thickcircle float x float y float color float h float h2
;
#N struct times float x float y;
#N struct plus float x float y;
#N struct minus float x float y;
#N struct divide float x float y;
#N canvas 433 114 294 185 10;
#N canvas 203 571 414 206 fig 1;
#X scalar circle2 85 114 71 50 -71 -50 \;;
#X scalar vaxis 86 39 150 147 \;;
#X scalar haxis 6 114 160 157 \;;
#X scalar xy-curve 391 47 1 \; 0 -2 \; 2 0 \; 4 2 \; 6 0 \; 8 -2 \;
10 0 \; 12 2 \; \;;
#X scalar v-seg 394 40 7 1 \;;
#X scalar v-seg 399 40 5 1 \;;
#X text 196 153 0;
#X text 64 185 (a);
#X text 292 179 (b);
#X scalar h-seg 199 54 200 1 \;;
#X scalar u-arrow 199 174 -120 \;;
#X scalar u-arrow 399 174 -120 \;;
#X scalar xy-plot 179 14 1 \; 20 114.68 \; 24 114.601 \; 28 114.36
\; 32 113.931 \; 36 113.264 \; 40 112.278 \; 44 110.843 \; 48 108.739
\; 52 105.634 \; 56 101.061 \; 60 94.3783 \; 64 85.8053 \; 68 78.4813
\; 72 78.421 \; 76 86.0012 \; 80 94.6422 \; 84 101.365 \; 88 106.058
\; 92 109.269 \; 96 111.491 \; 100 113.074 \; 104 114.223 \; 108 115.076
\; 112 115.734 \; 116 116.243 \; 120 116.64 \; 124 116.97 \; 128 117.234
\; 132 117.451 \; 136 117.633 \; 140 117.785 \; 144 117.915 \; 148
118.025 \; 152 118.12 \; 156 118.202 \; 160 118.273 \; 164 118.334
\; 168 118.387 \; 172 118.435 \; 176 118.474 \; 180 118.51 \; 184 118.54
\; 188 118.566 \; 192 118.588 \; 196 118.607 \; 200 118.622 \; 204
118.634 \; 208 118.644 \; 212 118.655 \; 216 118.655 \; 220 118.683
\; \;;
#X scalar pole 121.814 149.299 3 -3 \;;
#X scalar circle 127 156 999 4 -4 \;;
#X scalar pole 122.814 78.299 3 -3 \;;
#X scalar circle 128 73 999 4 -4 \;;
#X coords 0 206 1 205 0 0 0;
#X restore 51 61 pd fig;
#X obj 47 89 templates;
#N canvas 589 104 566 606 hash 0;
#X coords 0 606 1 605 0 0 0;
#X restore 205 62 pd hash;
#N canvas 192 52 777 543 put-in-graph 0;
#X obj 118 171 f;
#X obj 164 172 + 1;
#X obj 57 14 bng 15 250 50 0 empty empty empty 0 -6 0 8 -262144 -1
-1;
#X obj 53 55 t b b;
#X msg 140 118 0;
#X obj 90 253 sel 1;
#X obj 152 371 pack 0 0 0;
#X msg 273 18 \; pd-xxx clear \; start pd-xxx;
#X obj 339 483 + 40;
#X obj 156 411 s xy-plot-point;
#X msg 11 87 0;
#X msg 47 86 1;
#X floatatom 337 95 5 0 0 0 - - -;
#X obj 154 279 f;
#X obj 151 216 t b f;
#X obj 152 305 t f f;
#X obj 316 175 osc~;
#X obj 313 400 env~ 8192;
#X obj 338 427 dbtorms;
#X floatatom 422 398 5 0 0 0 - - -;
#X obj 75 417 print;
#X floatatom 375 145 7 0 0 0 - - -;
#X floatatom 391 450 5 0 0 0 - - -;
#X obj 93 85 metro 250;
#X obj 152 251 del 249;
#X msg 107 29 \; pd dsp 1;
#X msg 493 344 \; add-xy-plot 101 0 0 1;
#X msg 527 426 \; start pd-xxx;
#X msg 197 115 0.125;
#X obj 473 113 loadbang;
#X obj 339 459 * 100;
#X obj 89 225 >= 50;
#X msg 426 7 \; add-h-seg 20 40 200 1 \; add-u-arrow 20 160 -120 \;
add-u-arrow 220 160 -120 \; add-xy-plot 51 0 0 1;
#X obj 182 330 expr $f1*4+20;
#X obj 337 118 expr $f1*44100/100;
#X obj 315 233 cpole~;
#X msg 473 140 0.8 0.785;
#X obj 465 169 expr $f1*cos($f2);
#X obj 471 197 expr $f1*sin($f2);
#X obj 475 223 * -1;
#X obj 315 270 cpole~;
#X obj 315 299 czero~;
#X obj 315 336 czero~;
#X obj 515 252 expr $f1*cos($f2);
#X obj 521 280 expr $f1*sin($f2);
#X obj 525 306 * -1;
#X msg 523 223 0.9 0.785;
#X connect 0 0 1 0;
#X connect 0 0 14 0;
#X connect 0 0 31 0;
#X connect 1 0 0 1;
#X connect 2 0 3 0;
#X connect 3 0 11 0;
#X connect 3 1 4 0;
#X connect 3 1 25 0;
#X connect 4 0 0 1;
#X connect 5 0 10 0;
#X connect 6 0 9 0;
#X connect 6 0 20 0;
#X connect 8 0 6 2;
#X connect 10 0 23 0;
#X connect 11 0 23 0;
#X connect 12 0 34 0;
#X connect 13 0 15 0;
#X connect 14 0 24 0;
#X connect 14 1 13 1;
#X connect 14 1 12 0;
#X connect 15 0 6 0;
#X connect 15 1 33 0;
#X connect 16 0 35 0;
#X connect 17 0 18 0;
#X connect 18 0 30 0;
#X connect 23 0 0 0;
#X connect 23 0 28 0;
#X connect 24 0 13 0;
#X connect 28 0 16 1;
#X connect 29 0 36 0;
#X connect 29 0 46 0;
#X connect 30 0 8 0;
#X connect 30 0 22 0;
#X connect 31 0 5 0;
#X connect 33 0 6 1;
#X connect 34 0 16 0;
#X connect 34 0 21 0;
#X connect 35 0 40 0;
#X connect 35 1 40 1;
#X connect 36 0 37 0;
#X connect 36 0 38 0;
#X connect 37 0 35 2;
#X connect 37 0 40 2;
#X connect 38 0 39 0;
#X connect 38 0 35 3;
#X connect 39 0 40 3;
#X connect 40 0 41 0;
#X connect 41 0 42 0;
#X connect 41 1 42 1;
#X connect 42 0 17 0;
#X connect 43 0 41 2;
#X connect 43 0 42 2;
#X connect 44 0 45 0;
#X connect 44 0 41 3;
#X connect 45 0 42 3;
#X connect 46 0 43 0;
#X connect 46 0 44 0;
#X restore 156 91 pd put-in-graph;
#N canvas 155 73 579 261 xxx 0;
#X scalar h-seg 20 40 200 1 \;;
#X scalar u-arrow 20 160 -120 \;;
#X scalar u-arrow 220 160 -120 \;;
#X scalar xy-plot 0 0 1 \; 20 114.68 \; 24 114.601 \; 28 114.36 \;
32 113.931 \; 36 113.264 \; 40 112.278 \; 44 110.843 \; 48 108.739
\; 52 105.634 \; 56 101.061 \; 60 94.3783 \; 64 85.8053 \; 68 78.4813
\; 72 78.421 \; 76 86.0012 \; 80 94.6422 \; 84 101.365 \; 88 106.058
\; 92 109.269 \; 96 111.491 \; 100 113.074 \; 104 114.223 \; 108 115.076
\; 112 115.734 \; 116 116.243 \; 120 116.64 \; 124 116.97 \; 128 117.234
\; 132 117.451 \; 136 117.633 \; 140 117.785 \; 144 117.915 \; 148
118.025 \; 152 118.12 \; 156 118.202 \; 160 118.273 \; 164 118.334
\; 168 118.387 \; 172 118.435 \; 176 118.474 \; 180 118.51 \; 184 118.54
\; 188 118.566 \; 192 118.588 \; 196 118.607 \; 200 118.622 \; 204
118.634 \; 208 118.644 \; 212 118.655 \; 216 118.655 \; 220 118.683
\; \;;
#X coords 0 261 1 260 0 0 0;
#X restore 44 119 pd xxx;
