#N struct xy-plot float x float y float w array z xy-point;
#N struct xy-point float x float y;
#N struct xy-curve float x float y float w array z xy-point;
#N struct seg float x float y float dx float dy float w;
#N struct l-curve-arrow float x float y float z float z2 float z3 float
h;
#N struct circle2 float x float y float h float h2 float mh float mh2
;
#N struct vaxis float x float y float h float h-3;
#N struct d-curve-arrow float x float y float z float z2 float z3 float
h;
#N struct circle float x float y float color float h float h2;
#N struct u-curve-arrow float x float y float z float z2 float z3 float
h;
#N struct r-curve-arrow float x float y float z float z2 float z3 float
h;
#N struct r-arrow float x float y float z;
#N struct l-arrow float x float y float z;
#N struct u-arrow float x float y float z;
#N struct d-arrow float x float y float z;
#N struct v-seg float x float y float z float w;
#N struct h-seg float x float y float z float w;
#N struct rect float x float y float w float h;
#N struct haxis float x float y float w float w-3;
#N struct frame float x float y float w float h;
#N struct y-plot float x float y float w array z y-point;
#N struct y-point float y;
#N struct thickcircle float x float y float color float h float h2
;
#N struct divide float x float y;
#N struct minus float x float y;
#N struct plus float x float y;
#N struct times float x float y;
#N canvas 743 168 482 287 10;
#N canvas 108 13 950 769 make-input-tab 0;
#X obj 207 117 until;
#X obj 263 145 f;
#X obj 309 146 + 1;
#X obj 213 47 bng 15 250 50 0 empty empty empty 0 -6 0 8 -262144 -1
-1;
#X obj 214 75 t b b;
#X msg 287 100 0;
#X obj 271 204 sel 1;
#X obj 202 206 t f f;
#X obj 308 316 expr (1*($f1-(-1)) + 0 * ((-0.5)-$f1))/0.5;
#X obj 312 344 expr (-0.5*($f1-(-0.5)) + 1 * ((-0.2)-$f1))/0.3;
#X obj 322 379 expr (0*($f1-(-0.2)) + -0.5 * ((1)-$f1))/1.2;
#X obj 106 505 tabwrite tab-orig;
#X obj 286 511 tabwrite tab-interpolated;
#X obj 536 511 tabwrite tab-bestfit;
#X obj 270 176 >= 200;
#X connect 0 0 1 0;
#X connect 1 0 2 0;
#X connect 1 0 7 0;
#X connect 1 0 14 0;
#X connect 2 0 1 1;
#X connect 3 0 4 0;
#X connect 4 0 0 0;
#X connect 4 1 5 0;
#X connect 5 0 1 1;
#X connect 6 0 0 1;
#X connect 8 0 11 0;
#X connect 9 0 11 0;
#X connect 10 0 11 0;
#X connect 14 0 6 0;
#X restore 53 33 pd make-input-tab;
#N canvas 182 248 390 399 fig 1;
#N canvas 0 0 450 300 (subpatch) 0;
#X scalar xy-plot 0 0 1 \; 0 1 \; 0.06283 0.998027 \; 0.12566 0.992115
\; 0.18849 0.982288 \; 0.25132 0.968585 \; 0.31415 0.951059 \; 0.37698
0.929781 \; 0.43981 0.904833 \; 0.50264 0.876314 \; 0.56547 0.844337
\; 0.6283 0.809028 \; 0.69113 0.770526 \; 0.75396 0.728984 \; 0.81679
0.684565 \; 0.87962 0.637444 \; 0.94245 0.587808 \; 1.00528 0.535852
\; 1.06811 0.481781 \; 1.13094 0.425809 \; 1.19377 0.368157 \; 1.2566
0.309052 \; 1.31943 0.248728 \; 1.38226 0.187421 \; 1.44509 0.125375
\; 1.50792 0.062835 \; 1.57075 4.63287e-05 \; 1.63358 -0.0627424 \;
1.69641 -0.125284 \; 1.75924 -0.18733 \; 1.82207 -0.248638 \; 1.8849
-0.308964 \; 1.94773 -0.368071 \; 2.01056 -0.425726 \; 2.07339 -0.4817
\; 2.13622 -0.535774 \; 2.19905 -0.587733 \; 2.26188 -0.637373 \; 2.32471
-0.684497 \; 2.38754 -0.72892 \; 2.45037 -0.770467 \; 2.5132 -0.808973
\; 2.57603 -0.844287 \; 2.63886 -0.876269 \; 2.70169 -0.904793 \; 2.76452
-0.929746 \; 2.82735 -0.951031 \; 2.89018 -0.968562 \; 2.95301 -0.982271
\; 3.01584 -0.992104 \; 3.07867 -0.998021 \; 3.1415 -1 \; 3.20433 -0.998033
\; 3.26716 -0.992127 \; 3.32999 -0.982306 \; 3.39282 -0.968608 \; 3.45565
-0.951088 \; 3.51848 -0.929815 \; 3.58131 -0.904872 \; 3.64414 -0.876358
\; 3.70697 -0.844387 \; 3.7698 -0.809082 \; 3.83263 -0.770585 \; 3.89546
-0.729047 \; 3.95829 -0.684632 \; 4.02112 -0.637515 \; 4.08395 -0.587883
\; 4.14678 -0.53593 \; 4.20961 -0.481862 \; 4.27244 -0.425893 \; 4.33527
-0.368243 \; 4.3981 -0.30914 \; 4.46093 -0.248817 \; 4.52376 -0.187512
\; 4.58659 -0.125467 \; 4.64942 -0.0629271 \; 4.71225 -0.000139225
\; 4.77508 0.0626497 \; 4.83791 0.125191 \; 4.90074 0.187239 \; 4.96357
0.248548 \; 5.0264 0.308876 \; 5.08923 0.367985 \; 5.15206 0.425642
\; 5.21489 0.481619 \; 5.27772 0.535695 \; 5.34055 0.587658 \; 5.40338
0.637301 \; 5.46621 0.684429 \; 5.52904 0.728857 \; 5.59187 0.770408
\; 5.6547 0.808919 \; 5.71753 0.844238 \; 5.78036 0.876225 \; 5.84319
0.904754 \; 5.90602 0.929712 \; 5.96885 0.951002 \; 6.03168 0.968539
\; 6.09451 0.982254 \; 6.15734 0.992092 \; 6.22017 0.998015 \; 6.283
1 \; \;;
#X scalar xy-plot 0 0 1 \; 0 1 \; 0.06283 0.970002 \; 0.12566 0.940003
\; 0.18849 0.910005 \; 0.25132 0.880006 \; 0.31415 0.850008 \; 0.37698
0.82001 \; 0.43981 0.790011 \; 0.50264 0.760013 \; 0.56547 0.730014
\; 0.6283 0.700016 \; 0.69113 0.670018 \; 0.75396 0.640019 \; 0.81679
0.610021 \; 0.87962 0.580022 \; 0.94245 0.550024 \; 1.00528 0.520026
\; 1.06811 0.480027 \; 1.13094 0.420029 \; 1.19377 0.36003 \; 1.2566
0.300032 \; 1.31943 0.240034 \; 1.38226 0.180035 \; 1.44509 0.120037
\; 1.50792 0.0600385 \; 1.57075 4.00692e-05 \; 1.63358 -0.0599583 \;
1.69641 -0.119957 \; 1.75924 -0.179955 \; 1.82207 -0.239954 \; 1.8849
-0.299952 \; 1.94773 -0.35995 \; 2.01056 -0.419949 \; 2.07339 -0.479947
\; 2.13622 -0.519949 \; 2.19905 -0.549952 \; 2.26188 -0.579955 \; 2.32471
-0.609958 \; 2.38754 -0.639961 \; 2.45037 -0.669965 \; 2.5132 -0.699968
\; 2.57603 -0.729971 \; 2.63886 -0.759974 \; 2.70169 -0.789978 \; 2.76452
-0.819981 \; 2.82735 -0.849984 \; 2.89018 -0.879987 \; 2.95301 -0.90999
\; 3.01584 -0.939994 \; 3.07867 -0.969997 \; 3.1415 -1 \; 3.20433 -0.970006
\; 3.26716 -0.940013 \; 3.32999 -0.910019 \; 3.39282 -0.880026 \; 3.45565
-0.850032 \; 3.51848 -0.820038 \; 3.58131 -0.790045 \; 3.64414 -0.760051
\; 3.70697 -0.730058 \; 3.7698 -0.700064 \; 3.83263 -0.670071 \; 3.89546
-0.640077 \; 3.95829 -0.610083 \; 4.02112 -0.58009 \; 4.08395 -0.550096
\; 4.14678 -0.520103 \; 4.20961 -0.480107 \; 4.27244 -0.420109 \; 4.33527
-0.360111 \; 4.3981 -0.300112 \; 4.46093 -0.240114 \; 4.52376 -0.180115
\; 4.58659 -0.120117 \; 4.64942 -0.0601185 \; 4.71225 -0.000120178
\; 4.77508 0.0598782 \; 4.83791 0.119877 \; 4.90074 0.179875 \; 4.96357
0.239874 \; 5.0264 0.299872 \; 5.08923 0.35987 \; 5.15206 0.419869
\; 5.21489 0.479867 \; 5.27772 0.519872 \; 5.34055 0.54988 \; 5.40338
0.579888 \; 5.46621 0.609896 \; 5.52904 0.639904 \; 5.59187 0.669912
\; 5.6547 0.69992 \; 5.71753 0.729928 \; 5.78036 0.759936 \; 5.84319
0.789944 \; 5.90602 0.819952 \; 5.96885 0.84996 \; 6.03168 0.879968
\; 6.09451 0.909976 \; 6.15734 0.939984 \; 6.22017 0.969992 \; 6.283
1 \; \;;
#X scalar xy-plot 0 0 1 \; 0 0.93 \; 0.06283 0.928165 \; 0.12566 0.922667
\; 0.18849 0.913528 \; 0.25132 0.900784 \; 0.31415 0.884485 \; 0.37698
0.864696 \; 0.43981 0.841494 \; 0.50264 0.814972 \; 0.56547 0.785233
\; 0.6283 0.752396 \; 0.69113 0.716589 \; 0.75396 0.677955 \; 0.81679
0.636645 \; 0.87962 0.592823 \; 0.94245 0.546661 \; 1.00528 0.498342
\; 1.06811 0.448057 \; 1.13094 0.396003 \; 1.19377 0.342386 \; 1.2566
0.287419 \; 1.31943 0.231317 \; 1.38226 0.174302 \; 1.44509 0.116599
\; 1.50792 0.0584366 \; 1.57075 4.30857e-05 \; 1.63358 -0.0583504 \;
1.69641 -0.116514 \; 1.75924 -0.174217 \; 1.82207 -0.231233 \; 1.8849
-0.287337 \; 1.94773 -0.342306 \; 2.01056 -0.395925 \; 2.07339 -0.447981
\; 2.13622 -0.498269 \; 2.19905 -0.546591 \; 2.26188 -0.592757 \; 2.32471
-0.636582 \; 2.38754 -0.677896 \; 2.45037 -0.716534 \; 2.5132 -0.752345
\; 2.57603 -0.785187 \; 2.63886 -0.81493 \; 2.70169 -0.841458 \; 2.76452
-0.864664 \; 2.82735 -0.884459 \; 2.89018 -0.900763 \; 2.95301 -0.913512
\; 3.01584 -0.922656 \; 3.07867 -0.92816 \; 3.1415 -0.93 \; 3.20433
-0.92817 \; 3.26716 -0.922678 \; 3.32999 -0.913544 \; 3.39282 -0.900805
\; 3.45565 -0.884512 \; 3.51848 -0.864728 \; 3.58131 -0.841531 \; 3.64414
-0.815013 \; 3.70697 -0.78528 \; 3.7698 -0.752446 \; 3.83263 -0.716644
\; 3.89546 -0.678014 \; 3.95829 -0.636708 \; 4.02112 -0.592889 \; 4.08395
-0.546731 \; 4.14678 -0.498415 \; 4.20961 -0.448132 \; 4.27244 -0.396081
\; 4.33527 -0.342466 \; 4.3981 -0.287501 \; 4.46093 -0.2314 \; 4.52376
-0.174386 \; 4.58659 -0.116684 \; 4.64942 -0.0585222 \; 4.71225 -0.000129479
\; 4.77508 0.0582642 \; 4.83791 0.116428 \; 4.90074 0.174132 \; 4.96357
0.23115 \; 5.0264 0.287255 \; 5.08923 0.342226 \; 5.15206 0.395847
\; 5.21489 0.447906 \; 5.27772 0.498197 \; 5.34055 0.546522 \; 5.40338
0.59269 \; 5.46621 0.636519 \; 5.52904 0.677837 \; 5.59187 0.716479
\; 5.6547 0.752295 \; 5.71753 0.785141 \; 5.78036 0.814889 \; 5.84319
0.841421 \; 5.90602 0.864633 \; 5.96885 0.884432 \; 6.03168 0.900741
\; 6.09451 0.913496 \; 6.15734 0.922646 \; 6.22017 0.928154 \; 6.283
0.93 \; \;;
#X coords 0 1 6.283 -1 300 200 1;
#X restore 14 1 graph;
#N canvas 0 0 450 300 (subpatch) 0;
#X scalar xy-plot 0 0 1 \; 0 0.07 \; 0.06283 0.0418366 \; 0.12566 0.0173361
\; 0.18849 -0.00352335 \; 0.25132 -0.0207777 \; 0.31415 -0.0344772
\; 0.37698 -0.0446864 \; 0.43981 -0.0514831 \; 0.50264 -0.0549591 \;
0.56547 -0.0552189 \; 0.6283 -0.0523799 \; 0.69113 -0.0465718 \; 0.75396
-0.0379358 \; 0.81679 -0.0266243 \; 0.87962 -0.0128005 \; 0.94245 0.00336283
\; 1.00528 0.0216834 \; 1.06811 0.0319707 \; 1.13094 0.024026 \; 1.19377
0.0176441 \; 1.2566 0.0126134 \; 1.31943 0.008717 \; 1.38226 0.00573343
\; 1.44509 0.00343771 \; 1.50792 0.00160199 \; 1.57075 -3.01647e-06
\; 1.63358 -0.00160784 \; 1.69641 -0.00344303 \; 1.75924 -0.00573795
\; 1.82207 -0.00872032 \; 1.8849 -0.0126153 \; 1.94773 -0.0176441 \;
2.01056 -0.0240238 \; 2.07339 -0.031966 \; 2.13622 -0.0216793 \; 2.19905
-0.00336039 \; 2.26188 0.0128015 \; 2.32471 0.0266241 \; 2.38754 0.0379344
\; 2.45037 0.0465697 \; 2.5132 0.0523773 \; 2.57603 0.055216 \; 2.63886
0.054956 \; 2.70169 0.05148 \; 2.76452 0.0446835 \; 2.82735 0.0344747
\; 2.89018 0.0207755 \; 2.95301 0.00352162 \; 3.01584 -0.0173372 \;
3.07867 -0.0418373 \; 3.1415 -0.07 \; 3.20433 -0.0418361 \; 3.26716
-0.017335 \; 3.32999 0.0035249 \; 3.39282 0.02078 \; 3.45565 0.0344799
\; 3.51848 0.0446892 \; 3.58131 0.0514861 \; 3.64414 0.054962 \; 3.70697
0.0552219 \; 3.7698 0.0523824 \; 3.83263 0.0465737 \; 3.89546 0.0379369
\; 3.95829 0.0266247 \; 4.02112 0.0127994 \; 4.08395 -0.0033654 \;
4.14678 -0.0216877 \; 4.20961 -0.0319753 \; 4.27244 -0.0240283 \; 4.33527
-0.0176443 \; 4.3981 -0.0126118 \; 4.46093 -0.00871383 \; 4.52376 -0.00572899
\; 4.58659 -0.00343241 \; 4.64942 -0.00159631 \; 4.71225 9.30094e-06
\; 4.77508 0.00161396 \; 4.83791 0.00344854 \; 4.90074 0.00574258 \;
4.96357 0.00872386 \; 5.0264 0.0126173 \; 5.08923 0.0176443 \; 5.15206
0.0240218 \; 5.21489 0.0319615 \; 5.27772 0.0216752 \; 5.34055 0.0033583
\; 5.40338 -0.0128022 \; 5.46621 -0.0266234 \; 5.52904 -0.0379332 \;
5.59187 -0.0465674 \; 5.6547 -0.0523748 \; 5.71753 -0.0552132 \; 5.78036
-0.054953 \; 5.84319 -0.0514771 \; 5.90602 -0.0446807 \; 5.96885 -0.0344721
\; 6.03168 -0.0207733 \; 6.09451 -0.00351977 \; 6.15734 0.0173385 \;
6.22017 0.07 \; \;;
#X coords 0 0.2 6.283 -0.2 300 140 1;
#X restore 14 240 graph;
#X text 228 2 original;
#X text 290 22 interpolated;
#X text 317 1 best fit;
#X text 318 278 error;
#X restore 304 57 pd fig;
#N canvas 215 22 1013 878 put-in-graph 0;
#X obj 38 130 until;
#X obj 94 140 f;
#X obj 140 141 + 1;
#X obj 37 102 t b b;
#X msg 116 109 0;
#X obj 95 196 sel 1;
#X msg 36 16 \; pd-graph3 clear \; start pd-graph3;
#X obj 35 329 pack 0 0 0;
#X msg 35 353 \; xy-plot-point \$1 \$2 \$3;
#X obj 37 75 r zz1;
#X obj 101 226 / 100;
#X obj 49 227 t f f;
#X obj 100 273 t f f;
#X msg 197 14 \; add-xy-plot 101 0 0 1 \; zz1 bang;
#X obj 98 167 >= 100;
#X msg 412 14 \; add-xy-plot 101 0 0 1 \; zz2 bang;
#X msg 631 15 \; add-xy-plot 101 0 0 1 \; zz3 bang;
#X obj 100 250 * 6.283;
#X obj 260 130 until;
#X obj 316 140 f;
#X obj 362 141 + 1;
#X obj 259 102 t b b;
#X msg 338 109 0;
#X obj 317 196 sel 1;
#X obj 273 443 pack 0 0 0;
#X msg 224 479 \; xy-plot-point \$1 \$2 \$3;
#X obj 323 226 / 100;
#X obj 271 227 t f f;
#X obj 320 167 >= 100;
#X obj 259 75 r zz2;
#X obj 363 304 int;
#X obj 323 275 t f f;
#X obj 323 304 -;
#X obj 323 329 pack;
#X obj 322 352 t l l l;
#X obj 291 388 * 6.283;
#X obj 116 304 expr cos($f1);
#X obj 382 416 expr $f3 * $f1 + $f4 * (1.-$f1);
#X obj 382 392 f;
#X obj 747 147 until;
#X obj 803 157 f;
#X obj 849 158 + 1;
#X obj 746 119 t b b;
#X msg 825 126 0;
#X obj 804 213 sel 1;
#X obj 744 346 pack 0 0 0;
#X msg 744 370 \; xy-plot-point \$1 \$2 \$3;
#X obj 810 243 / 100;
#X obj 758 244 t f f;
#X obj 809 290 t f f;
#X obj 807 184 >= 100;
#X obj 809 267 * 6.283;
#X obj 443 504 tabwrite tab-interp;
#X msg 438 479 \$3 \$1;
#X msg 773 434 \$3 \$1;
#X obj 778 459 tabwrite tab-bestfit;
#X obj 746 92 r zz3;
#X obj 179 654 until;
#X obj 235 664 f;
#X obj 281 665 + 1;
#X obj 178 626 t b b;
#X msg 257 633 0;
#X obj 236 720 sel 1;
#X obj 178 598 r zz4;
#X msg 22 519 \; pd-graph6 clear \; start pd-graph6;
#X obj 215 773 tabread tab-interp;
#X obj 388 774 tabread tab-bestfit;
#X obj 168 736 t f f f;
#X obj 215 798 -;
#X obj 488 689 tab;
#X msg 162 848 \; xy-plot-point \$1 \$2 \$3;
#X obj 162 822 pack 0 0 0;
#X obj 133 785 * 6.283;
#X obj 133 762 / 100;
#X obj 320 251 * 6;
#X obj 419 349 expr cos($f2*6.283/6.);
#X obj 421 381 expr cos(($f2+1.)*6.283/6.);
#X obj 239 691 >= 99;
#X msg 184 533 \; add-xy-plot 100 0 0 1 \; zz4 bang;
#X msg 546 568 \; pd-graph3 ylabel -0.2 -1 0 1 \; pd-graph6 ylabel
-0.4 -0.2 -0.1 0 0.1 0.2;
#X obj 836 316 expr 0.93*cos($f1);
#X connect 0 0 1 0;
#X connect 1 0 2 0;
#X connect 1 0 11 0;
#X connect 1 0 14 0;
#X connect 2 0 1 1;
#X connect 3 0 0 0;
#X connect 3 1 4 0;
#X connect 4 0 1 1;
#X connect 5 0 0 1;
#X connect 7 0 8 0;
#X connect 9 0 3 0;
#X connect 10 0 17 0;
#X connect 11 0 7 0;
#X connect 11 1 10 0;
#X connect 12 0 7 1;
#X connect 12 1 36 0;
#X connect 14 0 5 0;
#X connect 17 0 12 0;
#X connect 18 0 19 0;
#X connect 19 0 20 0;
#X connect 19 0 27 0;
#X connect 19 0 28 0;
#X connect 20 0 19 1;
#X connect 21 0 18 0;
#X connect 21 1 22 0;
#X connect 22 0 19 1;
#X connect 23 0 18 1;
#X connect 24 0 25 0;
#X connect 24 0 53 0;
#X connect 26 0 35 0;
#X connect 26 0 74 0;
#X connect 27 0 24 0;
#X connect 27 1 26 0;
#X connect 28 0 23 0;
#X connect 29 0 21 0;
#X connect 30 0 32 1;
#X connect 30 0 33 1;
#X connect 31 0 32 0;
#X connect 31 1 30 0;
#X connect 32 0 33 0;
#X connect 33 0 34 0;
#X connect 34 0 38 0;
#X connect 34 1 76 0;
#X connect 34 2 75 0;
#X connect 35 0 24 1;
#X connect 36 0 7 2;
#X connect 37 0 24 2;
#X connect 38 0 37 0;
#X connect 39 0 40 0;
#X connect 40 0 41 0;
#X connect 40 0 48 0;
#X connect 40 0 50 0;
#X connect 41 0 40 1;
#X connect 42 0 39 0;
#X connect 42 1 43 0;
#X connect 43 0 40 1;
#X connect 44 0 39 1;
#X connect 45 0 46 0;
#X connect 45 0 54 0;
#X connect 47 0 51 0;
#X connect 48 0 45 0;
#X connect 48 1 47 0;
#X connect 49 0 45 1;
#X connect 49 1 80 0;
#X connect 50 0 44 0;
#X connect 51 0 49 0;
#X connect 53 0 52 0;
#X connect 54 0 55 0;
#X connect 56 0 42 0;
#X connect 57 0 58 0;
#X connect 58 0 59 0;
#X connect 58 0 67 0;
#X connect 58 0 77 0;
#X connect 59 0 58 1;
#X connect 60 0 57 0;
#X connect 60 1 61 0;
#X connect 61 0 58 1;
#X connect 62 0 57 1;
#X connect 63 0 60 0;
#X connect 65 0 68 0;
#X connect 66 0 68 1;
#X connect 67 0 71 0;
#X connect 67 1 65 0;
#X connect 67 1 73 0;
#X connect 67 2 66 0;
#X connect 68 0 71 2;
#X connect 71 0 70 0;
#X connect 72 0 71 1;
#X connect 73 0 72 0;
#X connect 74 0 31 0;
#X connect 75 0 37 3;
#X connect 76 0 37 2;
#X connect 77 0 62 0;
#X connect 80 0 45 2;
#X restore 68 162 pd put-in-graph;
#X obj 322 107 templates;
#N canvas 584 62 497 484 tables 1;
#N canvas 0 0 450 300 (subpatch) 0;
#X array tab-interp 100 float 1;
#A 0 1 0.970002 0.940003 0.910005 0.880006 0.850008 0.82001 0.790011
0.760013 0.730014 0.700016 0.670018 0.640019 0.610021 0.580022 0.550024
0.520026 0.480027 0.420029 0.36003 0.300032 0.240034 0.180035 0.120037
0.0600385 4.00692e-05 -0.0599583 -0.119957 -0.179955 -0.239954 -0.299952
-0.35995 -0.419949 -0.479947 -0.519949 -0.549952 -0.579955 -0.609958
-0.639961 -0.669965 -0.699968 -0.729971 -0.759974 -0.789978 -0.819981
-0.849984 -0.879987 -0.90999 -0.939994 -0.969997 -1 -0.970006 -0.940013
-0.910019 -0.880026 -0.850032 -0.820038 -0.790045 -0.760051 -0.730058
-0.700064 -0.670071 -0.640077 -0.610083 -0.58009 -0.550096 -0.520103
-0.480107 -0.420109 -0.360111 -0.300112 -0.240114 -0.180115 -0.120117
-0.0601185 -0.000120178 0.0598782 0.119877 0.179875 0.239874 0.299872
0.35987 0.419869 0.479867 0.519872 0.54988 0.579888 0.609896 0.639904
0.669912 0.69992 0.729928 0.759936 0.789944 0.819952 0.84996 0.879968
0.909976 0.939984 1;
#X coords 0 1 99 -1 200 140 1;
#X restore 100 20 graph;
#N canvas 0 0 450 300 (subpatch) 0;
#X array tab-bestfit 100 float 1;
#A 0 0.93 0.928165 0.922667 0.913528 0.900784 0.884485 0.864696 0.841494
0.814972 0.785233 0.752396 0.716589 0.677955 0.636645 0.592823 0.546661
0.498342 0.448057 0.396003 0.342386 0.287419 0.231317 0.174302 0.116599
0.0584366 4.30857e-05 -0.0583504 -0.116514 -0.174217 -0.231233 -0.287337
-0.342306 -0.395925 -0.447981 -0.498269 -0.546591 -0.592757 -0.636582
-0.677896 -0.716534 -0.752345 -0.785187 -0.81493 -0.841458 -0.864664
-0.884459 -0.900763 -0.913512 -0.922656 -0.92816 -0.93 -0.92817 -0.922678
-0.913544 -0.900805 -0.884512 -0.864728 -0.841531 -0.815013 -0.78528
-0.752446 -0.716644 -0.678014 -0.636708 -0.592889 -0.546731 -0.498415
-0.448132 -0.396081 -0.342466 -0.287501 -0.2314 -0.174386 -0.116684
-0.0585222 -0.000129479 0.0582642 0.116428 0.174132 0.23115 0.287255
0.342226 0.395847 0.447906 0.498197 0.546522 0.59269 0.636519 0.677837
0.716479 0.752295 0.785141 0.814889 0.841421 0.864633 0.884432 0.900741
0.913496 0.922646 0.93;
#X coords 0 1 99 -1 200 140 1;
#X restore 97 177 graph;
#X restore 71 92 pd tables;
