#N struct frame float x float y float w float h;
#N struct d-arrow float x float y float z;
#N struct r-arrow float x float y float z;
#N struct xy-plot float x float y float w array z xy-point;
#N struct xy-point float x float y;
#N struct d-curve-arrow float x float y float z float z2 float z3 float
h;
#N struct circle float x float y float color float h float h2;
#N struct u-curve-arrow float x float y float z float z2 float z3 float
h;
#N struct r-curve-arrow float x float y float z float z2 float z3 float
h;
#N struct l-arrow float x float y float z;
#N struct u-arrow float x float y float z;
#N struct v-seg float x float y float z float w;
#N struct h-seg float x float y float z float w;
#N struct rect float x float y float w float h;
#N struct vaxis float x float y float h float h-3;
#N struct haxis float x float y float w float w-3;
#N struct y-plot float x float y float w array z y-point;
#N struct y-point float y;
#N canvas 687 359 294 185 10;
#N canvas 327 93 302 173 fig 1;
#X scalar frame 76 153 60 15 \;;
#X scalar d-arrow 81 77 68 \;;
#X text 80 5 a;
#X scalar r-arrow 259 11 -173 \;;
#X text 218 146 time;
#X scalar frame 76 62 60 15 \;;
#X scalar frame 104 133 153 15 \;;
#X text 108 25 b;
#X scalar frame 152 113 54 15 \;;
#X scalar frame 181 93 76 15 \;;
#X text 155 45 c;
#X text 184 65 d;
#X scalar d-arrow 110 55 73 \;;
#X scalar frame 104 39 78 15 \;;
#X scalar d-arrow 159 78 29 \;;
#X scalar frame 152 62 54 15 \;;
#X scalar frame 183 39 76 15 \;;
#X scalar d-arrow 187 55 33 \;;
#X text 3 96 voice 1...;
#X text 136 96 ..;
#X text 259 119 ...;
#X text 3 120 voice 2.......;
#X text 206 96 ..........;
#X coords 0 173 1 172 0 0 0;
#X restore 51 61 pd fig;
#X obj 52 90 templates;
