#N struct xy-plot float x float y float w array z xy-point;
#N struct xy-point float x float y;
#N struct haxis float x float y float w float w-3;
#N struct vaxis float x float y float h float h-3;
#N struct v-seg float x float y float z float w;
#N struct l-curve-arrow float x float y float z float z2 float z3 float
h;
#N struct circle2 float x float y float h float h2 float mh float mh2
;
#N struct xy-curve float x float y float w array z xy-point;
#N struct seg float x float y float dx float dy float w;
#N struct d-curve-arrow float x float y float z float z2 float z3 float
h;
#N struct circle float x float y float color float h float h2;
#N struct u-curve-arrow float x float y float z float z2 float z3 float
h;
#N struct r-curve-arrow float x float y float z float z2 float z3 float
h;
#N struct r-arrow float x float y float z;
#N struct l-arrow float x float y float z;
#N struct u-arrow float x float y float z;
#N struct d-arrow float x float y float z;
#N struct h-seg float x float y float z float w;
#N struct rect float x float y float w float h;
#N struct frame float x float y float w float h;
#N struct y-plot float x float y float w array z y-point;
#N struct y-point float y;
#N canvas 552 55 330 171 10;
#N canvas 447 209 705 564 buildit 0;
#X obj 37 191 until;
#X obj 37 166 t b b;
#X obj 68 228 f;
#X msg 84 163 0;
#X obj 142 228 + 1;
#X obj 142 255 sel 50;
#X obj 386 275 t f f;
#X obj 386 326 expr 75 + 5 * $f1;
#X obj 37 138 r add-pts-1;
#X obj 356 188 until;
#X obj 356 163 t b b;
#X obj 387 225 f;
#X msg 403 160 0;
#X obj 461 225 + 1;
#X obj 461 252 sel 50;
#X obj 68 353 expr 75 + 5 * $f1;
#X obj 356 135 r add-pts-2;
#X msg 33 10 \; pd-x1 clear;
#X msg 37 50 \; start pd-x1 \; add-haxis 50 75 300 297 \; add-vaxis
75 30 90 87 \; add-pts-1 bang;
#X msg 351 49 \; start pd-x1 \; add-haxis 50 175 300 297 \; add-vaxis
75 130 90 87 \; add-pts-2 bang;
#X obj 68 258 t f f f;
#X obj 91 377 t f f;
#X obj 134 400 expr $f1 > 2 || $f1 < -2;
#X obj 68 404 swap;
#X obj 68 429 pack 0 0 0;
#X obj 68 451 route 1 0;
#X msg 68 515 \; add-v-seg \$1 75 \$2 2;
#X msg 98 477 \; add-v-seg \$1 73 3 2;
#X obj 416 351 t f f;
#X obj 459 374 expr $f1 > 2 || $f1 < -2;
#X obj 391 380 swap;
#X obj 391 405 pack 0 0 0;
#X obj 391 427 route 1 0;
#X msg 391 491 \; add-v-seg \$1 175 \$2 2;
#X msg 421 453 \; add-v-seg \$1 173 3 2;
#X obj 416 299 expr 25 * ($f1== 5);
#X obj 14 297 expr 25 * (($i1%7) == 5) * exp(log(0.7) * (($i1-5.)/7))
;
#X connect 0 0 2 0;
#X connect 1 0 0 0;
#X connect 1 1 3 0;
#X connect 2 0 4 0;
#X connect 2 0 20 0;
#X connect 3 0 2 1;
#X connect 4 0 5 0;
#X connect 4 0 2 1;
#X connect 5 0 0 1;
#X connect 6 0 7 0;
#X connect 6 1 35 0;
#X connect 7 0 30 0;
#X connect 8 0 1 0;
#X connect 9 0 11 0;
#X connect 10 0 9 0;
#X connect 10 1 12 0;
#X connect 11 0 13 0;
#X connect 11 0 6 0;
#X connect 12 0 11 1;
#X connect 13 0 14 0;
#X connect 13 0 11 1;
#X connect 14 0 9 1;
#X connect 15 0 23 0;
#X connect 16 0 10 0;
#X connect 20 0 15 0;
#X connect 20 1 36 0;
#X connect 21 0 24 2;
#X connect 21 1 22 0;
#X connect 22 0 23 1;
#X connect 23 0 24 0;
#X connect 23 1 24 1;
#X connect 24 0 25 0;
#X connect 25 0 26 0;
#X connect 25 1 27 0;
#X connect 28 0 31 2;
#X connect 28 1 29 0;
#X connect 29 0 30 1;
#X connect 30 0 31 0;
#X connect 30 1 31 1;
#X connect 31 0 32 0;
#X connect 32 0 33 0;
#X connect 32 1 34 0;
#X connect 35 0 28 0;
#X connect 36 0 21 0;
#X restore 140 55 pd buildit;
#N canvas 62 389 430 221 fig 0;
#X text 33 27 input;
#X scalar xy-plot 101 59 1 \; 0 0 \; 0 -3 \; 4 -6 \; 12 -6 \; 16 -12
\; 20 -6 \; 28 -6 \; 32 -3 \; 32 0 \; \;;
#X text 113 175 d;
#X text 23 126 output;
#X text 333 72 n;
#X scalar haxis 50 164 300 297 \;;
#X scalar vaxis 75 119 90 87 \;;
#X scalar v-seg 75 162 3 2 \;;
#X scalar v-seg 80 162 3 2 \;;
#X scalar v-seg 85 162 3 2 \;;
#X scalar v-seg 90 162 3 2 \;;
#X scalar v-seg 95 162 3 2 \;;
#X scalar v-seg 100 164 25 2 \;;
#X scalar v-seg 105 162 3 2 \;;
#X scalar v-seg 110 162 3 2 \;;
#X scalar v-seg 115 162 3 2 \;;
#X scalar v-seg 120 162 3 2 \;;
#X scalar v-seg 125 162 3 2 \;;
#X scalar v-seg 130 162 3 2 \;;
#X scalar v-seg 135 162 3 2 \;;
#X scalar v-seg 140 162 3 2 \;;
#X scalar v-seg 145 162 3 2 \;;
#X scalar v-seg 150 162 3 2 \;;
#X scalar v-seg 155 162 3 2 \;;
#X scalar v-seg 160 162 3 2 \;;
#X scalar v-seg 165 162 3 2 \;;
#X scalar v-seg 170 162 3 2 \;;
#X scalar v-seg 175 162 3 2 \;;
#X scalar v-seg 180 162 3 2 \;;
#X scalar v-seg 185 162 3 2 \;;
#X scalar v-seg 190 162 3 2 \;;
#X scalar v-seg 195 162 3 2 \;;
#X scalar v-seg 200 162 3 2 \;;
#X scalar v-seg 205 162 3 2 \;;
#X scalar v-seg 210 162 3 2 \;;
#X scalar v-seg 215 162 3 2 \;;
#X scalar v-seg 220 162 3 2 \;;
#X scalar v-seg 225 162 3 2 \;;
#X scalar v-seg 230 162 3 2 \;;
#X scalar v-seg 235 162 3 2 \;;
#X scalar v-seg 240 162 3 2 \;;
#X scalar v-seg 245 162 3 2 \;;
#X scalar v-seg 250 162 3 2 \;;
#X scalar v-seg 255 162 3 2 \;;
#X scalar v-seg 260 162 3 2 \;;
#X scalar v-seg 265 162 3 2 \;;
#X scalar v-seg 270 162 3 2 \;;
#X scalar v-seg 275 162 3 2 \;;
#X scalar v-seg 280 162 3 2 \;;
#X scalar v-seg 285 162 3 2 \;;
#X scalar v-seg 290 162 3 2 \;;
#X scalar v-seg 295 162 3 2 \;;
#X scalar v-seg 300 162 3 2 \;;
#X scalar v-seg 305 162 3 2 \;;
#X scalar v-seg 310 162 3 2 \;;
#X scalar v-seg 315 162 3 2 \;;
#X scalar v-seg 320 162 3 2 \;;
#X scalar haxis 50 64 300 297 \;;
#X scalar vaxis 75 19 90 87 \;;
#X scalar v-seg 75 62 3 2 \;;
#X scalar v-seg 80 62 3 2 \;;
#X scalar v-seg 85 62 3 2 \;;
#X scalar v-seg 90 62 3 2 \;;
#X scalar v-seg 95 62 3 2 \;;
#X scalar v-seg 100 64 25 2 \;;
#X scalar v-seg 105 62 3 2 \;;
#X scalar v-seg 110 62 3 2 \;;
#X scalar v-seg 115 62 3 2 \;;
#X scalar v-seg 120 62 3 2 \;;
#X scalar v-seg 125 62 3 2 \;;
#X scalar v-seg 130 62 3 2 \;;
#X scalar v-seg 135 64 17.5 2 \;;
#X scalar v-seg 140 62 3 2 \;;
#X scalar v-seg 145 62 3 2 \;;
#X scalar v-seg 150 62 3 2 \;;
#X scalar v-seg 155 62 3 2 \;;
#X scalar v-seg 160 62 3 2 \;;
#X scalar v-seg 165 62 3 2 \;;
#X scalar v-seg 170 64 12.25 2 \;;
#X scalar v-seg 175 62 3 2 \;;
#X scalar v-seg 180 62 3 2 \;;
#X scalar v-seg 185 62 3 2 \;;
#X scalar v-seg 190 62 3 2 \;;
#X scalar v-seg 195 62 3 2 \;;
#X scalar v-seg 200 62 3 2 \;;
#X scalar v-seg 205 64 8.575 2 \;;
#X scalar v-seg 210 62 3 2 \;;
#X scalar v-seg 215 62 3 2 \;;
#X scalar v-seg 220 62 3 2 \;;
#X scalar v-seg 225 62 3 2 \;;
#X scalar v-seg 230 62 3 2 \;;
#X scalar v-seg 235 62 3 2 \;;
#X scalar v-seg 240 64 6.0025 2 \;;
#X scalar v-seg 245 62 3 2 \;;
#X scalar v-seg 250 62 3 2 \;;
#X scalar v-seg 255 62 3 2 \;;
#X scalar v-seg 260 62 3 2 \;;
#X scalar v-seg 265 62 3 2 \;;
#X scalar v-seg 270 62 3 2 \;;
#X scalar v-seg 275 64 4.20175 2 \;;
#X scalar v-seg 280 62 3 2 \;;
#X scalar v-seg 285 62 3 2 \;;
#X scalar v-seg 290 62 3 2 \;;
#X scalar v-seg 295 62 3 2 \;;
#X scalar v-seg 300 62 3 2 \;;
#X scalar v-seg 305 62 3 2 \;;
#X scalar v-seg 310 64 2.94122 2 \;;
#X scalar v-seg 315 62 3 2 \;;
#X scalar v-seg 320 62 3 2 \;;
#X coords 0 221 1 220 0 0 0;
#X restore 51 61 pd fig;
#X obj 140 81 templates;
#N canvas 35 57 408 221 x1 0;
#X scalar haxis 50 175 300 297 \;;
#X scalar vaxis 75 130 90 87 \;;
#X scalar v-seg 75 173 3 2 \;;
#X scalar v-seg 80 173 3 2 \;;
#X scalar v-seg 85 173 3 2 \;;
#X scalar v-seg 90 173 3 2 \;;
#X scalar v-seg 95 173 3 2 \;;
#X scalar v-seg 100 175 25 2 \;;
#X scalar v-seg 105 173 3 2 \;;
#X scalar v-seg 110 173 3 2 \;;
#X scalar v-seg 115 173 3 2 \;;
#X scalar v-seg 120 173 3 2 \;;
#X scalar v-seg 125 173 3 2 \;;
#X scalar v-seg 130 173 3 2 \;;
#X scalar v-seg 135 173 3 2 \;;
#X scalar v-seg 140 173 3 2 \;;
#X scalar v-seg 145 173 3 2 \;;
#X scalar v-seg 150 173 3 2 \;;
#X scalar v-seg 155 173 3 2 \;;
#X scalar v-seg 160 173 3 2 \;;
#X scalar v-seg 165 173 3 2 \;;
#X scalar v-seg 170 173 3 2 \;;
#X scalar v-seg 175 173 3 2 \;;
#X scalar v-seg 180 173 3 2 \;;
#X scalar v-seg 185 173 3 2 \;;
#X scalar v-seg 190 173 3 2 \;;
#X scalar v-seg 195 173 3 2 \;;
#X scalar v-seg 200 173 3 2 \;;
#X scalar v-seg 205 173 3 2 \;;
#X scalar v-seg 210 173 3 2 \;;
#X scalar v-seg 215 173 3 2 \;;
#X scalar v-seg 220 173 3 2 \;;
#X scalar v-seg 225 173 3 2 \;;
#X scalar v-seg 230 173 3 2 \;;
#X scalar v-seg 235 173 3 2 \;;
#X scalar v-seg 240 173 3 2 \;;
#X scalar v-seg 245 173 3 2 \;;
#X scalar v-seg 250 173 3 2 \;;
#X scalar v-seg 255 173 3 2 \;;
#X scalar v-seg 260 173 3 2 \;;
#X scalar v-seg 265 173 3 2 \;;
#X scalar v-seg 270 173 3 2 \;;
#X scalar v-seg 275 173 3 2 \;;
#X scalar v-seg 280 173 3 2 \;;
#X scalar v-seg 285 173 3 2 \;;
#X scalar v-seg 290 173 3 2 \;;
#X scalar v-seg 295 173 3 2 \;;
#X scalar v-seg 300 173 3 2 \;;
#X scalar v-seg 305 173 3 2 \;;
#X scalar v-seg 310 173 3 2 \;;
#X scalar v-seg 315 173 3 2 \;;
#X scalar v-seg 320 173 3 2 \;;
#X scalar haxis 50 75 300 297 \;;
#X scalar vaxis 75 30 90 87 \;;
#X scalar v-seg 75 73 3 2 \;;
#X scalar v-seg 80 73 3 2 \;;
#X scalar v-seg 85 73 3 2 \;;
#X scalar v-seg 90 73 3 2 \;;
#X scalar v-seg 95 73 3 2 \;;
#X scalar v-seg 100 75 25 2 \;;
#X scalar v-seg 105 73 3 2 \;;
#X scalar v-seg 110 73 3 2 \;;
#X scalar v-seg 115 73 3 2 \;;
#X scalar v-seg 120 73 3 2 \;;
#X scalar v-seg 125 73 3 2 \;;
#X scalar v-seg 130 73 3 2 \;;
#X scalar v-seg 135 75 17.5 2 \;;
#X scalar v-seg 140 73 3 2 \;;
#X scalar v-seg 145 73 3 2 \;;
#X scalar v-seg 150 73 3 2 \;;
#X scalar v-seg 155 73 3 2 \;;
#X scalar v-seg 160 73 3 2 \;;
#X scalar v-seg 165 73 3 2 \;;
#X scalar v-seg 170 75 12.25 2 \;;
#X scalar v-seg 175 73 3 2 \;;
#X scalar v-seg 180 73 3 2 \;;
#X scalar v-seg 185 73 3 2 \;;
#X scalar v-seg 190 73 3 2 \;;
#X scalar v-seg 195 73 3 2 \;;
#X scalar v-seg 200 73 3 2 \;;
#X scalar v-seg 205 75 8.575 2 \;;
#X scalar v-seg 210 73 3 2 \;;
#X scalar v-seg 215 73 3 2 \;;
#X scalar v-seg 220 73 3 2 \;;
#X scalar v-seg 225 73 3 2 \;;
#X scalar v-seg 230 73 3 2 \;;
#X scalar v-seg 235 73 3 2 \;;
#X scalar v-seg 240 75 6.0025 2 \;;
#X scalar v-seg 245 73 3 2 \;;
#X scalar v-seg 250 73 3 2 \;;
#X scalar v-seg 255 73 3 2 \;;
#X scalar v-seg 260 73 3 2 \;;
#X scalar v-seg 265 73 3 2 \;;
#X scalar v-seg 270 73 3 2 \;;
#X scalar v-seg 275 75 4.20175 2 \;;
#X scalar v-seg 280 73 3 2 \;;
#X scalar v-seg 285 73 3 2 \;;
#X scalar v-seg 290 73 3 2 \;;
#X scalar v-seg 295 73 3 2 \;;
#X scalar v-seg 300 73 3 2 \;;
#X scalar v-seg 305 73 3 2 \;;
#X scalar v-seg 310 75 2.94122 2 \;;
#X scalar v-seg 315 73 3 2 \;;
#X scalar v-seg 320 73 3 2 \;;
#X coords 0 221 1 220 0 0 0;
#X restore 48 87 pd x1;
