#N struct d-arrow float x float y float z;
#N struct frame float x float y float w float h;
#N struct rect float x float y float w float h;
#N struct l-arrow float x float y float z;
#N struct y-plot float x float y float w array z y-point;
#N struct y-point float y;
#N struct times float x float y;
#N struct h-seg float x float y float z float w;
#N struct v-seg float x float y float z float w;
#N struct plus float x float y;
#N struct xy-curve float x float y float w array z xy-point;
#N struct xy-point float x float y;
#N struct seg float x float y float dx float dy float w;
#N struct l-curve-arrow float x float y float z float z2 float z3 float
h;
#N struct circle2 float x float y float h float h2 float mh float mh2
;
#N struct vaxis float x float y float h float h-3;
#N struct xy-plot float x float y float w array z xy-point;
#N struct d-curve-arrow float x float y float z float z2 float z3 float
h;
#N struct circle float x float y float color float h float h2;
#N struct u-curve-arrow float x float y float z float z2 float z3 float
h;
#N struct r-curve-arrow float x float y float z float z2 float z3 float
h;
#N struct r-arrow float x float y float z;
#N struct u-arrow float x float y float z;
#N struct haxis float x float y float w float w-3;
#N struct thickcircle float x float y float color float h float h2
;
#N struct minus float x float y;
#N struct divide float x float y;
#N canvas 679 25 294 185 10;
#N canvas 179 310 377 531 fig 1;
#X scalar d-arrow 82 435 17 \;;
#X scalar frame 50 415 39 19 \;;
#X text 58 99 S/H;
#X text 88 81 trigger;
#X scalar d-arrow 59 434 38 \;;
#X text 69 64 phase;
#X scalar d-arrow 70 401 14 \;;
#X scalar frame 38 84 72 44 \;;
#X scalar rect 43 94 1 3.38338 \;;
#X scalar rect 46 94 1 4.94747 \;;
#X scalar rect 49 94 1 6.95093 \;;
#X scalar rect 52 94 1 9.38278 \;;
#X scalar rect 55 94 1 12.1688 \;;
#X scalar rect 58 94 1 15.1633 \;;
#X scalar rect 61 94 1 18.1537 \;;
#X scalar rect 64 94 1 20.8818 \;;
#X scalar rect 67 94 1 23.0779 \;;
#X scalar rect 70 94 1 24.505 \;;
#X scalar rect 73 94 1 25 \;;
#X scalar rect 76 94 1 24.505 \;;
#X scalar rect 79 94 1 23.0779 \;;
#X scalar rect 82 94 1 20.8818 \;;
#X scalar rect 85 94 1 18.1537 \;;
#X scalar rect 88 94 1 15.1633 \;;
#X scalar rect 91 94 1 12.1688 \;;
#X scalar rect 94 94 1 9.38278 \;;
#X scalar rect 97 94 1 6.95093 \;;
#X scalar rect 100 94 1 4.94747 \;;
#X scalar rect 103 94 1 3.38338 \;;
#X scalar rect 190 146 1 25 \;;
#X scalar rect 193 146 1 23.7764 \;;
#X scalar rect 196 146 1 20.2254 \;;
#X scalar frame 33 189 76 43 \;;
#X scalar rect 38 200 1 0 \;;
#X scalar rect 41 200 1 3.55787 \;;
#X scalar rect 44 200 1 7.04331 \;;
#X scalar rect 47 200 1 10.3854 \;;
#X scalar rect 50 200 1 13.516 \;;
#X scalar rect 53 200 1 16.3715 \;;
#X scalar rect 56 200 1 18.8937 \;;
#X scalar rect 59 200 1 21.0313 \;;
#X scalar rect 62 200 1 22.7408 \;;
#X scalar rect 65 200 1 23.9873 \;;
#X scalar rect 68 200 1 24.7455 \;;
#X scalar rect 71 200 1 25 \;;
#X scalar rect 74 200 1 24.7455 \;;
#X scalar rect 77 200 1 23.9873 \;;
#X scalar rect 80 200 1 22.7408 \;;
#X scalar rect 83 200 1 21.0314 \;;
#X scalar rect 86 200 1 18.8938 \;;
#X scalar rect 89 200 1 16.3716 \;;
#X scalar rect 92 200 1 13.5161 \;;
#X scalar rect 95 200 1 10.3854 \;;
#X scalar rect 98 200 1 7.04337 \;;
#X scalar rect 101 200 1 3.55793 \;;
#X text 35 30 fundamental;
#X text 35 42 frequency;
#X text 32 127 1;
#X text 31 177 0;
#X scalar d-arrow 70 233 107 \;;
#X text 30 344 0;
#X text 101 346 1;
#X scalar l-arrow 81 154 25 \;;
#X scalar d-arrow 70 164 24 \;;
#X scalar d-arrow 70 128 14 \;;
#X text 28 449 -10;
#X text 99 448 10;
#X scalar d-arrow 71 59 24 \;;
#X scalar d-arrow 71 24 14 \;;
#X text 60 506 OUT;
#X scalar frame 25 329 126 179 \;;
#X scalar frame 44 341 60 60 \;;
#X scalar y-plot 49 346 1 \; 0 \; 2.25 \; 4.5 \; 6.75 \; 9 \; 11.25
\; 13.5 \; 15.75 \; 18 \; 20.25 \; 22.5 \; 24.75 \; 27 \; 29.25 \;
31.5 \; 33.75 \; 36 \; 38.25 \; 40.5 \; 42.75 \; 0 \; 2.25 \; 4.5 \;
6.75 \; 9 \; 11.25 \; 13.5 \; 15.75 \; 18 \; 20.25 \; 22.5 \; 24.75
\; 27 \; 29.25 \; 31.5 \; 33.75 \; 36 \; 38.25 \; 40.5 \; 42.75 \;
0 \; 2.25 \; 4.5 \; 6.75 \; 9 \; 11.25 \; 13.5 \; 15.75 \; 18 \; 20.25
\; \;;
#X scalar frame 11 66 147 193 \;;
#X text 87 255 modulator;
#X text 37 4 phase generator;
#X scalar frame 173 25 191 237 \;;
#X scalar frame 61 39 20 19 \;;
#X scalar times 67 44 \;;
#X scalar frame 60 144 20 19 \;;
#X scalar times 66 149 \;;
#X scalar h-seg 71 306 153 1 \;;
#X scalar frame 183 116 76 60 \;;
#X scalar rect 199 146 1 14.6946 \;;
#X scalar rect 202 146 1 7.72545 \;;
#X scalar rect 205 146 1 3.16898e-05 \;;
#X scalar rect 208 146 1 -7.72539 \;;
#X scalar rect 211 146 1 -14.6946 \;;
#X scalar rect 214 146 1 -20.2254 \;;
#X scalar rect 217 146 1 -23.7764 \;;
#X scalar rect 220 146 1 -25 \;;
#X scalar rect 223 146 1 -23.7764 \;;
#X scalar rect 226 146 1 -20.2255 \;;
#X scalar rect 229 146 1 -14.6947 \;;
#X scalar rect 232 146 1 -7.72551 \;;
#X scalar rect 235 146 1 -9.50693e-05 \;;
#X scalar rect 238 146 1 7.72533 \;;
#X scalar rect 241 146 1 14.6945 \;;
#X scalar rect 244 146 1 20.2254 \;;
#X scalar rect 247 146 1 23.7764 \;;
#X scalar rect 250 146 1 25 \;;
#X scalar l-arrow 234 234 13 \;;
#X text 250 290 k;
#X scalar d-arrow 222 209 14 \;;
#X scalar frame 204 190 35 19 \;;
#X text 207 324 WRAP;
#X scalar d-arrow 222 176 14 \;;
#X scalar d-arrow 223 243 62 \;;
#X text 181 417 0;
#X text 251 417 1;
#X scalar frame 270 116 76 60 \;;
#X scalar rect 277 146 1 25 \;;
#X scalar rect 280 146 1 23.7764 \;;
#X scalar rect 283 146 1 20.2254 \;;
#X scalar rect 286 146 1 14.6946 \;;
#X scalar rect 289 146 1 7.72545 \;;
#X scalar rect 292 146 1 3.16898e-05 \;;
#X scalar rect 295 146 1 -7.72539 \;;
#X scalar rect 298 146 1 -14.6946 \;;
#X scalar rect 301 146 1 -20.2254 \;;
#X scalar rect 304 146 1 -23.7764 \;;
#X scalar rect 307 146 1 -25 \;;
#X scalar rect 310 146 1 -23.7764 \;;
#X scalar rect 313 146 1 -20.2255 \;;
#X scalar rect 316 146 1 -14.6947 \;;
#X scalar rect 319 146 1 -7.72551 \;;
#X scalar rect 322 146 1 -9.50693e-05 \;;
#X scalar rect 325 146 1 7.72533 \;;
#X scalar rect 328 146 1 14.6945 \;;
#X scalar rect 331 146 1 20.2254 \;;
#X scalar rect 334 146 1 23.7764 \;;
#X scalar rect 337 146 1 25 \;;
#X scalar l-arrow 321 234 12 \;;
#X scalar d-arrow 309 209 14 \;;
#X scalar frame 291 190 35 19 \;;
#X text 294 324 WRAP;
#X scalar d-arrow 309 176 14 \;;
#X text 268 418 0;
#X text 338 417 1;
#X text 334 290 k+1;
#X scalar l-arrow 233 82 12 \;;
#X scalar l-arrow 320 82 12 \;;
#X scalar d-arrow 222 91 24 \;;
#X text 247 441 p;
#X text 333 441 q;
#X scalar d-arrow 309 91 24 \;;
#X scalar d-arrow 222 57 14 \;;
#X scalar l-arrow 233 47 77 \;;
#X scalar v-seg 309 47 25 1 \;;
#X scalar l-arrow 82 47 131 \;;
#X scalar h-seg 223 254 86 1 \;;
#X scalar d-arrow 309 244 10 \;;
#X text 260 253 carrier;
#X scalar plus 217 41 \;;
#X scalar frame 212 37 20 19 \;;
#X scalar frame 212 71 20 19 \;;
#X scalar times 218 76 \;;
#X scalar frame 299 71 20 19 \;;
#X scalar times 305 75 \;;
#X scalar frame 213 223 20 19 \;;
#X scalar times 219 228 \;;
#X scalar frame 300 224 20 19 \;;
#X scalar times 306 230 \;;
#X text 107 369 b;
#X coords 0 531 1 530 0 0 0;
#X restore 42 60 pd fig;
#X obj 42 91 templates;
