#N canvas 100 17 408 202 10;
#X floatatom 284 15 0 0 100 0 - - -;
#X obj 21 121 +~;
#N canvas 0 0 600 400 delay-writer 0;
#X obj 96 107 inlet~;
#X obj 96 180 outlet~;
#X obj 116 144 delwrite~ G05-d2 1000;
#X connect 0 0 1 0;
#X connect 0 0 2 0;
#X restore 174 132 pd delay-writer;
#N canvas 0 0 307 162 delay-reader 0;
#X obj 107 33 inlet~;
#X obj 108 128 outlet~;
#X obj 125 60 inlet~;
#X obj 108 104 +~;
#X obj 125 82 vd~ G05-d2;
#X connect 0 0 3 0;
#X connect 2 0 4 0;
#X connect 3 0 1 0;
#X connect 4 0 3 1;
#X restore 184 155 pd delay-reader;
#X obj 284 37 / 44.1;
#X obj 284 59 pack 0 30;
#N canvas 0 0 450 300 pulse 0;
#X obj 64 197 outlet~;
#X obj 63 93 phasor~ 50;
#X obj 63 119 *~ 100;
#X obj 63 144 clip~ 0.75 1.25;
#X obj 64 170 cos~;
#X connect 1 0 2 0;
#X connect 2 0 3 0;
#X connect 3 0 4 0;
#X connect 4 0 0 0;
#X restore 21 45 pd pulse;
#X obj 43 71 delwrite~ G05-d1 1000;
#X obj 44 98 vd~ G05-d1;
#X obj 284 81 line~;
#N canvas 0 0 450 300 pulse 0;
#X obj 64 197 outlet~;
#X obj 63 93 phasor~ 50;
#X obj 63 119 *~ 100;
#X obj 63 144 clip~ 0.75 1.25;
#X obj 64 170 cos~;
#X connect 1 0 2 0;
#X connect 2 0 3 0;
#X connect 3 0 4 0;
#X connect 4 0 0 0;
#X restore 174 109 pd pulse;
#X text 5 143 (BAD);
#X text 173 178 (GOOD);
#X text 309 20 samples;
#X text 316 9 delay in;
#X text 61 22 (a);
#X text 201 22 (b);
#X connect 0 0 4 0;
#X connect 2 0 3 0;
#X connect 4 0 5 0;
#X connect 5 0 9 0;
#X connect 6 0 1 0;
#X connect 6 0 7 0;
#X connect 8 0 1 1;
#X connect 9 0 3 1;
#X connect 9 0 8 0;
#X connect 10 0 2 0;
