#N struct y-plot float x float y float w array z y-point;
#N struct y-point float y;
#N struct haxis float x float y float w float w-3;
#N struct vaxis float x float y float h float h-3;
#N struct d-arrow float x float y float z;
#N struct v-seg float x float y float z float w;
#N struct xy-curve float x float y float w array z xy-point;
#N struct xy-point float x float y;
#N struct seg float x float y float dx float dy float w;
#N struct l-curve-arrow float x float y float z float z2 float z3 float
h;
#N struct circle2 float x float y float h float h2 float mh float mh2
;
#N struct xy-plot float x float y float w array z xy-point;
#N struct d-curve-arrow float x float y float z float z2 float z3 float
h;
#N struct circle float x float y float color float h float h2;
#N struct u-curve-arrow float x float y float z float z2 float z3 float
h;
#N struct r-curve-arrow float x float y float z float z2 float z3 float
h;
#N struct r-arrow float x float y float z;
#N struct l-arrow float x float y float z;
#N struct u-arrow float x float y float z;
#N struct h-seg float x float y float z float w;
#N struct rect float x float y float w float h;
#N struct frame float x float y float w float h;
#N struct thickcircle float x float y float color float h float h2
;
#N struct divide float x float y;
#N struct minus float x float y;
#N struct plus float x float y;
#N struct times float x float y;
#N canvas 432 186 482 287 10;
#N canvas 126 114 263 408 fig 1;
#X scalar y-plot 51 106 1 \; 0 \; 0.871349 \; 1.74726 \; 2.91515 \;
3.79106 \; 4.95893 \; 5.83484 \; 7.00273 \; 7.87864 \; 9.04655 \; 9.92247
\; 10.7984 \; 11.9663 \; 12.8422 \; 14.0101 \; 14.886 \; 16.0539 \;
16.9298 \; 18.0977 \; 18.9736 \; 19.8495 \; 21.0174 \; 21.8933 \; 23.0612
\; 23.9371 \; 25.105 \; 25.9809 \; 27.1488 \; 28.0247 \; 28.9006 \;
30.0685 \; 30.9444 \; 32.1123 \; 32.9882 \; 34.1561 \; 35.032 \; 36.1998
\; 37.0758 \; 37.9517 \; 39.1195 \; 39.9954 \; 39.4183 \; 38.9804 \;
38.3964 \; 37.9585 \; 37.3745 \; 36.9366 \; 36.4986 \; 35.9147 \; 35.4767
\; 34.8928 \; 34.4548 \; 33.8709 \; 33.4329 \; 32.849 \; 32.4111 \;
31.9731 \; 31.3892 \; 30.9512 \; 30.3673 \; 29.9293 \; 29.3454 \; 28.9074
\; 28.3235 \; 27.8855 \; 27.4476 \; 26.8636 \; 26.4257 \; 25.8417 \;
25.4038 \; 24.8199 \; 24.3819 \; 23.798 \; 23.36 \; 22.9221 \; 22.3381
\; 21.9002 \; 21.3162 \; 20.8783 \; 20.2943 \; 20 \; 20 \; 20 \; 20
\; 20 \; 20 \; 20 \; 20 \; 20 \; 20 \; 20 \; 20 \; 20 \; 20 \; 20 \;
20 \; 20 \; 20 \; 20 \; 20 \; 20 \; 20.4357 \; 21.0196 \; 21.4576 \;
22.0415 \; 22.4795 \; 23.0634 \; 23.5014 \; 24.0853 \; 24.5233 \; 24.9612
\; 25.5451 \; 25.9831 \; 26.567 \; 27.005 \; 27.5889 \; 28.0269 \;
28.6108 \; 29.0488 \; 29.4867 \; 30.0707 \; 30.5086 \; 31.0926 \; 31.5305
\; 32.1145 \; 32.5524 \; 33.1363 \; 33.5743 \; 34.1582 \; 34.5962 \;
35.0341 \; 35.6181 \; 36.056 \; 36.64 \; 37.0779 \; 37.6619 \; 38.0998
\; 38.6838 \; 39.1217 \; 39.5597 \; 40 \; 39.5643 \; 38.9804 \; 38.5424
\; 37.9585 \; 37.5205 \; 36.9366 \; 36.4986 \; 36.0607 \; 35.4767 \;
35.0388 \; 34.4549 \; 34.0169 \; 33.433 \; 32.995 \; 32.4111 \; 31.9731
\; 31.5352 \; 30.9512 \; 30.5133 \; 29.9293 \; 29.4914 \; 28.9074 \;
28.4695 \; 27.8855 \; 27.4476 \; 27.0096 \; 26.4257 \; 25.9877 \; 25.4038
\; 24.9659 \; 24.3819 \; 23.944 \; 23.36 \; 22.9221 \; 22.4841 \; 21.9002
\; 21.4622 \; 20.8783 \; 20.4403 \; 20 \; 20 \; 20 \; 20 \; 20 \; 20
\; 20 \; 20 \; 20 \; 20 \; 20 \; 20 \; 20 \; 20 \; 20 \; 20 \; 20 \;
20 \; 20 \; 20 \; \;;
#X scalar y-plot 46 45 1 \; 0 \; 0.871349 \; 1.74726 \; 2.91515 \;
3.79106 \; 4.95893 \; 5.83484 \; 7.00273 \; 7.87864 \; 9.04655 \; 9.92247
\; 10.7984 \; 11.9663 \; 12.8422 \; 14.0101 \; 14.886 \; 16.0539 \;
16.9298 \; 18.0977 \; 18.9736 \; 19.8495 \; 21.0174 \; 21.8933 \; 23.0612
\; 23.9371 \; 25.105 \; 25.9809 \; 27.1488 \; 28.0247 \; 28.9006 \;
30.0685 \; 30.9444 \; 32.1123 \; 32.9882 \; 34.1561 \; 35.032 \; 36.1998
\; 37.0758 \; 37.9517 \; 39.1195 \; 39.9954 \; 39.4183 \; 38.9804 \;
38.3964 \; 37.9585 \; 37.3745 \; 36.9366 \; 36.4986 \; 35.9147 \; 35.4767
\; 34.8928 \; 34.4548 \; 33.8709 \; 33.4329 \; 32.849 \; 32.4111 \;
31.9731 \; 31.3892 \; 30.9512 \; 30.3673 \; 29.9293 \; 30.22 \; 30.4405
\; 30.7346 \; 30.9552 \; 31.1758 \; 31.4699 \; 31.6904 \; 31.9845 \;
32.2051 \; 32.4992 \; 32.7198 \; 33.0139 \; 33.2345 \; 33.455 \; 33.7491
\; 33.9697 \; 34.2638 \; 34.4844 \; 34.7785 \; 34.9991 \; 35.2931 \;
35.5137 \; 35.7343 \; 36.0284 \; 36.249 \; 36.5431 \; 36.7636 \; 37.0577
\; 37.2783 \; 37.5724 \; 37.793 \; 38.0136 \; 38.3077 \; 38.5282 \;
38.8223 \; 39.0429 \; 39.337 \; 39.5576 \; 39.8517 \; 40 \; 39.5643
\; 38.9804 \; 38.5424 \; 37.9585 \; 37.5205 \; 36.9366 \; 36.4986 \;
35.9147 \; 35.4767 \; 35.0388 \; 34.4549 \; 34.0169 \; 33.433 \; 32.995
\; 32.4111 \; 31.9731 \; 31.3892 \; 30.9512 \; 30.5133 \; 29.9293 \;
29.4914 \; 28.9074 \; 28.4695 \; 27.8855 \; 27.4476 \; 26.8637 \; 26.4257
\; 25.8418 \; 25.4038 \; 24.9659 \; 24.3819 \; 23.944 \; 23.36 \; 22.9221
\; 22.3381 \; 21.9002 \; 21.3162 \; 20.8783 \; 20.4403 \; 20 \; 20
\; 20 \; 20 \; 20 \; 20 \; 20 \; 20 \; 20 \; 20 \; 20 \; 20 \; 20 \;
20 \; 20 \; 20 \; 20 \; 20 \; 20 \; 20 \; 20 \; 20 \; 20 \; 20 \; 20
\; 20 \; 20 \; 20 \; 20 \; 20 \; 20 \; 20 \; 20 \; 20 \; 20 \; 20 \;
20 \; 20 \; 20 \; 20 \; 20 \; 20 \; 20 \; 20 \; 20 \; 20 \; 20 \; 20
\; 20 \; 20 \; 20 \; 20 \; 20 \; 20 \; 20 \; 20 \; 20 \; 20 \; 20 \;
20 \; \;;
#X scalar y-plot 53 218 1 \; 0 \; 0.871349 \; 1.74726 \; 2.91515 \;
3.79106 \; 4.95893 \; 5.83484 \; 7.00273 \; 7.87864 \; 9.04655 \; 9.92247
\; 10.7984 \; 11.9663 \; 12.8422 \; 14.0101 \; 14.886 \; 16.0539 \;
16.9298 \; 18.0977 \; 18.9736 \; 19.8495 \; 21.0174 \; 21.8933 \; 23.0612
\; 23.9371 \; 25.105 \; 25.9809 \; 27.1488 \; 28.0247 \; 28.9006 \;
30.0685 \; 30.9444 \; 32.1123 \; 32.9882 \; 34.1561 \; 35.032 \; 36.1998
\; 37.0758 \; 37.9517 \; 39.1195 \; 39.9954 \; 39.4183 \; 38.9804 \;
38.3964 \; 37.9585 \; 37.3745 \; 36.9366 \; 36.4986 \; 35.9147 \; 35.4767
\; 34.8928 \; 34.4548 \; 33.8709 \; 33.4329 \; 32.849 \; 32.4111 \;
31.9731 \; 31.3892 \; 30.9512 \; 30.3673 \; 29.9293 \; 29.0566 \; 28.4013
\; 27.5275 \; 26.8722 \; 26.2168 \; 25.3431 \; 24.6877 \; 23.8139 \;
23.1586 \; 22.2848 \; 21.6295 \; 20.7557 \; 20.1004 \; 19.445 \; 18.5713
\; 17.9159 \; 17.0422 \; 16.3868 \; 15.5131 \; 14.8578 \; 13.984 \;
13.3286 \; 12.6733 \; 11.7995 \; 11.1442 \; 10.2704 \; 9.61506 \; 8.74128
\; 8.08594 \; 7.21216 \; 6.55682 \; 5.90149 \; 5.0277 \; 4.37237 \;
3.49858 \; 2.84325 \; 1.96946 \; 1.31413 \; 0.440346 \; 0 \; 0 \; 0
\; 0 \; 0 \; 0 \; 0 \; 0 \; 0 \; 0 \; 0 \; 0 \; 0 \; 0 \; 0 \; 0 \;
0 \; 0 \; 0 \; 0 \; 0 \; 0 \; 0 \; 0 \; 0 \; 0 \; 0 \; 0 \; 0 \; 0
\; 0 \; 0 \; 0 \; 0 \; 0 \; 0 \; 0 \; 0 \; 0 \; 0 \; 0 \; 0 \; 0 \;
0 \; 0 \; 0 \; 0 \; 0 \; 0 \; 0 \; 0 \; 0 \; 0 \; 0 \; 0 \; 0 \; 0
\; 0 \; 0 \; 0 \; 0 \; 0 \; 0 \; 0 \; 0 \; 0 \; 0 \; 0 \; 0 \; 0 \;
0 \; 0 \; 0 \; 0 \; 0 \; 0 \; 0 \; 0 \; 0 \; 0 \; 0 \; 0 \; 0 \; 0
\; 0 \; 0 \; 0 \; 0 \; 0 \; 0 \; 0 \; 0 \; 0 \; 0 \; 0 \; 0 \; 0 \;
0 \; 0 \; 0 \; \;;
#X scalar y-plot 54 174 1 \; 0 \; 0.871349 \; 1.74726 \; 2.91515 \;
3.79106 \; 4.95893 \; 5.83484 \; 7.00273 \; 7.87864 \; 9.04655 \; 9.92247
\; 10.7984 \; 11.9663 \; 12.8422 \; 14.0101 \; 14.886 \; 16.0539 \;
16.9298 \; 18.0977 \; 18.9736 \; 19.8495 \; 19.2766 \; 18.8419 \; 18.2622
\; 17.8274 \; 17.2477 \; 16.813 \; 16.2333 \; 15.7985 \; 15.3638 \;
14.7841 \; 14.3493 \; 13.7697 \; 13.3349 \; 12.7552 \; 12.3205 \; 11.7408
\; 11.306 \; 10.8713 \; 10.2916 \; 9.85681 \; 9.27713 \; 8.84237 \;
8.26269 \; 7.8279 \; 7.24822 \; 6.81346 \; 6.3787 \; 5.79902 \; 5.36426
\; 4.78458 \; 4.34982 \; 3.77016 \; 3.3354 \; 2.75572 \; 2.32096 \;
1.88619 \; 1.30651 \; 0.871751 \; 0.292071 \; 0 \; 0 \; 0 \; 0 \; 0
\; 0 \; 0 \; 0 \; 0 \; 0 \; 0 \; 0 \; 0 \; 0 \; 0 \; 0 \; 0 \; 0 \;
0 \; 0 \; 0 \; 0 \; 0 \; 0 \; 0 \; 0 \; 0 \; 0 \; 0 \; 0 \; 0 \; 0
\; 0 \; 0 \; 0 \; 0 \; 0 \; 0 \; 0 \; 0 \; 0 \; 0 \; 0 \; 0 \; 0 \;
0 \; 0 \; 0 \; 0 \; 0 \; 0 \; 0 \; 0 \; 0 \; 0 \; 0 \; 0 \; 0 \; 0
\; 0 \; 0 \; 0 \; 0 \; 0 \; 0 \; 0 \; 0 \; 0 \; 0 \; 0 \; 0 \; 0 \;
0 \; 0 \; 0 \; 0 \; 0 \; 0 \; 0 \; 0 \; 0 \; 0 \; 0 \; 0 \; 0 \; 0
\; 0 \; 0 \; 0 \; 0 \; 0 \; 0 \; 0 \; 0 \; 0 \; 0 \; 0 \; 0 \; 0 \;
0 \; 0 \; 0 \; 0 \; 0 \; 0 \; 0 \; 0 \; 0 \; 0 \; 0 \; 0 \; 0 \; 0
\; 0 \; 0 \; 0 \; 0 \; 0 \; 0 \; 0 \; 0 \; 0 \; 0 \; 0 \; 0 \; 0 \;
0 \; 0 \; 0 \; 0 \; 0 \; 0 \; 0 \; 0 \; 0 \; 0 \; 0 \; 0 \; 0 \; 0
\; \;;
#X scalar y-plot 56 313 1 \; 0 \; 0.871349 \; 1.74726 \; 2.91515 \;
3.79106 \; 4.95893 \; 5.83484 \; 7.00273 \; 7.87864 \; 9.04655 \; 9.92247
\; 10.7984 \; 11.9663 \; 12.8422 \; 14.0101 \; 14.886 \; 16.0539 \;
16.9298 \; 18.0977 \; 18.9736 \; 19.8495 \; 21.0174 \; 21.8933 \; 23.0612
\; 23.9371 \; 25.105 \; 25.9809 \; 27.1488 \; 28.0247 \; 28.9006 \;
30.0685 \; 30.9444 \; 32.1123 \; 32.9882 \; 34.1561 \; 35.032 \; 36.1998
\; 37.0758 \; 37.9517 \; 39.1195 \; 39.9954 \; 39.4183 \; 38.9804 \;
38.3964 \; 37.9585 \; 37.3745 \; 36.9366 \; 36.4986 \; 35.9147 \; 35.4767
\; 34.8928 \; 34.4548 \; 33.8709 \; 33.4329 \; 32.849 \; 32.4111 \;
31.9731 \; 31.3892 \; 30.9512 \; 30.3673 \; 29.9293 \; 29.3454 \; 28.9074
\; 28.3235 \; 27.8855 \; 27.4476 \; 26.8636 \; 26.4257 \; 25.8417 \;
25.4038 \; 24.8199 \; 24.3819 \; 23.798 \; 23.36 \; 22.9221 \; 22.3381
\; 21.9002 \; 21.3162 \; 20.8783 \; 20.2943 \; 20 \; 20 \; 20 \; 20
\; 20 \; 20 \; 20 \; 20 \; 20 \; 20 \; 20 \; 20 \; 20 \; 20 \; 20 \;
20 \; 20 \; 20 \; 20 \; 20 \; 20 \; 20 \; 20 \; 20 \; 20 \; 20 \; 20
\; 20 \; 20 \; 20 \; 20 \; 20 \; 20 \; 20 \; 20 \; 20 \; 20 \; 20 \;
20 \; 20 \; 20 \; 20 \; 20 \; 20 \; 20 \; 20 \; 20 \; 20 \; 20 \; 20
\; 20 \; 20 \; 20 \; 20 \; 20 \; 20 \; 20 \; 20 \; 20 \; 20 \; 20 \;
19.5643 \; 18.9804 \; 18.5424 \; 17.9585 \; 17.5205 \; 16.9366 \; 16.4986
\; 16.0607 \; 15.4767 \; 15.0388 \; 14.4548 \; 14.0169 \; 13.4329 \;
12.995 \; 12.411 \; 11.9731 \; 11.5351 \; 10.9512 \; 10.5132 \; 9.92929
\; 9.49133 \; 8.90739 \; 8.46943 \; 7.88549 \; 7.44753 \; 7.00958 \;
6.42564 \; 5.98768 \; 5.40374 \; 4.96578 \; 4.38184 \; 3.94389 \; 3.35995
\; 2.922 \; 2.48404 \; 1.90009 \; 1.46214 \; 0.878198 \; 0.440243 \;
0 \; 0 \; 0 \; 0 \; 0 \; 0 \; 0 \; 0 \; 0 \; 0 \; 0 \; 0 \; 0 \; 0
\; 0 \; 0 \; 0 \; 0 \; 0 \; 0 \; \;;
#X scalar haxis 40 312 206 202 \;;
#X text 224 98 time;
#X text 6 36 (a);
#X scalar vaxis 50 280 144 138 \;;
#X text 76 -14 attack;
#X scalar d-arrow 80 343 61 \;;
#X scalar d-arrow 111 349 38 \;;
#X text 106 3 decay;
#X scalar d-arrow 146 340 29 \;;
#X text 141 20 sustain;
#X scalar d-arrow 212 331 25 \;;
#X text 193 35 release;
#X scalar haxis 38 217 206 202 \;;
#X scalar haxis 38 173 206 202 \;;
#X scalar haxis 38 106 206 202 \;;
#X scalar haxis 38 45 206 202 \;;
#X text 4 181 (b);
#X text 4 225 (c);
#X text 4 293 (d);
#X text 4 353 (e);
#X text 186 99 off;
#X scalar v-seg 197 307 10 1 \;;
#X scalar v-seg 56 308 10 1 \;;
#X text 51 98 on;
#X text 101 193 off;
#X scalar v-seg 111 213 10 1 \;;
#X scalar v-seg 53 212 10 1 \;;
#X text 46 193 on;
#X text 65 238 off;
#X scalar v-seg 74 167 10 1 \;;
#X scalar v-seg 54 167 10 1 \;;
#X text 44 238 on;
#X scalar v-seg 52 101 10 1 \;;
#X text 44 304 on;
#X scalar v-seg 152 102 10 1 \;;
#X text 142 303 on;
#X scalar v-seg 47 39 10 1 \;;
#X text 39 365 on;
#X scalar v-seg 105 39 10 1 \;;
#X text 97 365 on;
#X coords 0 408 1 407 0 0 0;
#X restore 304 57 pd fig;
#N canvas 13 185 1228 419 put-in-graph 0;
#X obj 66 84 bng 15 250 50 0 empty empty empty 0 -6 0 8 -262144 -1
-1;
#X obj 66 106 t b b;
#X obj 76 160 0;
#X obj 7 186 f;
#X obj 44 189 + 1;
#X obj 165 154 bng 15 250 50 0 empty empty empty 0 -6 0 8 -262144 -1
-1;
#X obj 7 328 pack;
#X obj 7 355 s y-plot-point;
#X msg 6 134 1;
#X msg 44 134 0;
#X obj 7 213 moses 200;
#X msg 179 13 \; add-y-plot 200 10 10 1;
#X msg 145 194 1;
#X msg 178 218 0;
#X obj 67 317 snapshot~;
#X obj 7 292 t f b;
#X msg 17 6 \; start pd-fig \; pd dsp 1;
#X obj 6 159 metro 5;
#X obj 311 87 bng 15 250 50 0 empty empty empty 0 -6 0 8 -262144 -1
-1;
#X obj 311 109 t b b;
#X obj 321 163 0;
#X obj 252 189 f;
#X obj 289 192 + 1;
#X obj 410 157 bng 15 250 50 0 empty empty empty 0 -6 0 8 -262144 -1
-1;
#X obj 252 331 pack;
#X obj 252 358 s y-plot-point;
#X msg 251 137 1;
#X msg 289 137 0;
#X obj 252 216 moses 200;
#X msg 390 197 1;
#X msg 423 221 0;
#X obj 312 320 snapshot~;
#X obj 252 295 t f b;
#X obj 251 162 metro 5;
#X obj 29 256 adsr 40 200 200 50 200;
#X obj 178 193 del 700;
#X obj 559 91 bng 15 250 50 0 empty empty empty 0 -6 0 8 -262144 -1
-1;
#X obj 559 113 t b b;
#X obj 569 167 0;
#X obj 500 193 f;
#X obj 537 196 + 1;
#X obj 658 161 bng 15 250 50 0 empty empty empty 0 -6 0 8 -262144 -1
-1;
#X obj 500 335 pack;
#X obj 500 362 s y-plot-point;
#X msg 499 141 1;
#X msg 537 141 0;
#X obj 500 220 moses 200;
#X msg 638 201 1;
#X msg 671 225 0;
#X obj 560 324 snapshot~;
#X obj 500 299 t f b;
#X obj 499 166 metro 5;
#X obj 671 200 del 100;
#X obj 423 196 del 300;
#X obj 274 259 adsr 40 200 200 50 200;
#X obj 522 263 adsr 40 200 200 50 200;
#X obj 810 83 bng 15 250 50 0 empty empty empty 0 -6 0 8 -262144 -1
-1;
#X obj 810 105 t b b;
#X obj 820 159 0;
#X obj 751 185 f;
#X obj 788 188 + 1;
#X obj 891 162 bng 15 250 50 0 empty empty empty 0 -6 0 8 -262144 -1
-1;
#X obj 751 327 pack;
#X obj 751 354 s y-plot-point;
#X msg 750 133 1;
#X msg 788 133 0;
#X obj 751 212 moses 200;
#X msg 870 198 1;
#X obj 811 316 snapshot~;
#X obj 751 291 t f b;
#X obj 750 158 metro 5;
#X obj 773 255 adsr 40 200 200 50 200;
#X msg 903 222 1;
#X obj 903 197 del 500;
#X obj 1055 89 bng 15 250 50 0 empty empty empty 0 -6 0 8 -262144 -1
-1;
#X obj 1055 111 t b b;
#X obj 1065 165 0;
#X obj 996 191 f;
#X obj 1033 194 + 1;
#X obj 1154 159 bng 15 250 50 0 empty empty empty 0 -6 0 8 -262144
-1 -1;
#X obj 996 333 pack;
#X obj 996 360 s y-plot-point;
#X msg 995 139 1;
#X msg 1033 139 0;
#X obj 996 218 moses 200;
#X msg 1107 200 1;
#X obj 1056 322 snapshot~;
#X obj 996 297 t f b;
#X obj 995 164 metro 5;
#X obj 1018 261 adsr 40 200 200 50 200;
#X msg 1140 224 1;
#X obj 1140 199 del 300;
#X obj 889 113 del 1000;
#X msg 890 135 0;
#X obj 1128 91 del 1000;
#X msg 1129 113 0;
#X connect 0 0 1 0;
#X connect 1 0 8 0;
#X connect 1 0 12 0;
#X connect 1 0 35 0;
#X connect 1 1 2 0;
#X connect 2 0 3 1;
#X connect 3 0 4 0;
#X connect 3 0 10 0;
#X connect 4 0 3 1;
#X connect 5 0 9 0;
#X connect 6 0 7 0;
#X connect 8 0 17 0;
#X connect 9 0 17 0;
#X connect 10 0 15 0;
#X connect 10 1 5 0;
#X connect 12 0 34 0;
#X connect 13 0 34 0;
#X connect 14 0 6 1;
#X connect 15 0 6 0;
#X connect 15 1 14 0;
#X connect 17 0 3 0;
#X connect 18 0 19 0;
#X connect 19 0 26 0;
#X connect 19 0 29 0;
#X connect 19 0 53 0;
#X connect 19 1 20 0;
#X connect 20 0 21 1;
#X connect 21 0 22 0;
#X connect 21 0 28 0;
#X connect 22 0 21 1;
#X connect 23 0 27 0;
#X connect 24 0 25 0;
#X connect 26 0 33 0;
#X connect 27 0 33 0;
#X connect 28 0 32 0;
#X connect 28 1 23 0;
#X connect 29 0 54 0;
#X connect 30 0 54 0;
#X connect 31 0 24 1;
#X connect 32 0 24 0;
#X connect 32 1 31 0;
#X connect 33 0 21 0;
#X connect 34 0 14 0;
#X connect 35 0 13 0;
#X connect 36 0 37 0;
#X connect 37 0 44 0;
#X connect 37 0 47 0;
#X connect 37 0 52 0;
#X connect 37 1 38 0;
#X connect 38 0 39 1;
#X connect 39 0 40 0;
#X connect 39 0 46 0;
#X connect 40 0 39 1;
#X connect 41 0 45 0;
#X connect 42 0 43 0;
#X connect 44 0 51 0;
#X connect 45 0 51 0;
#X connect 46 0 50 0;
#X connect 46 1 41 0;
#X connect 47 0 55 0;
#X connect 48 0 55 0;
#X connect 49 0 42 1;
#X connect 50 0 42 0;
#X connect 50 1 49 0;
#X connect 51 0 39 0;
#X connect 52 0 48 0;
#X connect 53 0 30 0;
#X connect 54 0 31 0;
#X connect 55 0 49 0;
#X connect 56 0 57 0;
#X connect 57 0 64 0;
#X connect 57 0 67 0;
#X connect 57 0 73 0;
#X connect 57 1 58 0;
#X connect 57 1 92 0;
#X connect 58 0 59 1;
#X connect 59 0 60 0;
#X connect 59 0 66 0;
#X connect 60 0 59 1;
#X connect 61 0 65 0;
#X connect 62 0 63 0;
#X connect 64 0 70 0;
#X connect 65 0 70 0;
#X connect 66 0 69 0;
#X connect 66 1 61 0;
#X connect 67 0 71 0;
#X connect 68 0 62 1;
#X connect 69 0 62 0;
#X connect 69 1 68 0;
#X connect 70 0 59 0;
#X connect 71 0 68 0;
#X connect 72 0 71 0;
#X connect 73 0 72 0;
#X connect 74 0 75 0;
#X connect 75 0 82 0;
#X connect 75 0 85 0;
#X connect 75 0 91 0;
#X connect 75 1 76 0;
#X connect 75 1 94 0;
#X connect 76 0 77 1;
#X connect 77 0 78 0;
#X connect 77 0 84 0;
#X connect 78 0 77 1;
#X connect 79 0 83 0;
#X connect 80 0 81 0;
#X connect 82 0 88 0;
#X connect 83 0 88 0;
#X connect 84 0 87 0;
#X connect 84 1 79 0;
#X connect 85 0 89 0;
#X connect 86 0 80 1;
#X connect 87 0 80 0;
#X connect 87 1 86 0;
#X connect 88 0 77 0;
#X connect 89 0 86 0;
#X connect 90 0 89 0;
#X connect 91 0 90 0;
#X connect 92 0 93 0;
#X connect 93 0 71 0;
#X connect 94 0 95 0;
#X connect 95 0 89 0;
#X restore 68 162 pd put-in-graph;
#X obj 322 107 templates;
