#N canvas 463 29 405 234 10;
#X obj 145 129 cos~;
#X obj 180 130 cos~;
#X obj 13 165 *~;
#X obj 64 165 *~;
#X obj 13 187 -~;
#X floatatom 145 71 5 0 0 0 - - -;
#X text 19 8 sample loop for;
#X text 19 23 test signal;
#X text 23 71 pair of allpass;
#X text 22 85 filters to make;
#X text 22 100 90 degree phase;
#X text 21 114 shifted versions;
#X text 243 97 cosine and sine waves;
#N canvas 555 154 448 326 bell-loop 0;
#X obj 18 114 /;
#X obj 18 171 +~ 1;
#X msg 18 94 44100;
#X obj 18 73 t b f;
#X obj 19 211 outlet~;
#N canvas 0 0 450 300 (subpatch) 0;
#X array \$0-array 155948 float 0;
#X coords 0 1 155947 -1 200 150 1;
#X restore 187 70 graph;
#X obj 18 54 r \$0-totsamps;
#X obj 52 152 r \$0-totsamps;
#X obj 18 152 *~;
#X obj 18 133 phasor~;
#X obj 18 190 tabread4~ \$0-array;
#X connect 0 0 9 0;
#X connect 1 0 10 0;
#X connect 2 0 0 0;
#X connect 3 0 2 0;
#X connect 3 1 0 1;
#X connect 6 0 3 0;
#X connect 7 0 8 1;
#X connect 8 0 1 0;
#X connect 9 0 8 0;
#X connect 10 0 4 0;
#X restore 14 38 pd bell-loop;
#X obj 145 91 phasor~;
#X text 91 165 <-- complex multipier;
#X text 91 179 (calculates real part);
#X text 242 110 to form the real and;
#X text 242 124 imaginary part of a;
#X text 242 138 complex sinusoid;
#X obj 13 135 hilbert~;
#X text 11 201 |;
#X text 185 71 shift frequency;
#X obj 180 110 -~ 0.25;
#X text 8 212 (OUT);
#X connect 0 0 2 1;
#X connect 1 0 3 1;
#X connect 2 0 4 0;
#X connect 3 0 4 1;
#X connect 5 0 14 0;
#X connect 13 0 20 0;
#X connect 14 0 0 0;
#X connect 14 0 23 0;
#X connect 20 0 2 0;
#X connect 20 1 3 0;
#X connect 23 0 1 0;
