#N struct haxis float x float y float w float w-3;
#N struct vaxis float x float y float h float h-3;
#N struct y-plot float x float y float w array z y-point;
#N struct y-point float y;
#N struct xy-curve float x float y float w array z xy-point;
#N struct xy-point float x float y;
#N struct seg float x float y float dx float dy float w;
#N struct l-curve-arrow float x float y float z float z2 float z3 float
h;
#N struct circle2 float x float y float h float h2 float mh float mh2
;
#N struct xy-plot float x float y float w array z xy-point;
#N struct d-curve-arrow float x float y float z float z2 float z3 float
h;
#N struct circle float x float y float color float h float h2;
#N struct u-curve-arrow float x float y float z float z2 float z3 float
h;
#N struct r-curve-arrow float x float y float z float z2 float z3 float
h;
#N struct r-arrow float x float y float z;
#N struct l-arrow float x float y float z;
#N struct u-arrow float x float y float z;
#N struct d-arrow float x float y float z;
#N struct v-seg float x float y float z float w;
#N struct h-seg float x float y float z float w;
#N struct rect float x float y float w float h;
#N struct frame float x float y float w float h;
#N struct thickcircle float x float y float color float h float h2
;
#N canvas 34 349 329 179 10;
#N canvas 174 -17 392 285 fig 1;
#X text 18 12 (a);
#X text 18 99 (b);
#X text 16 191 (c);
#X scalar haxis 21 246 350 347 \;;
#X scalar vaxis 46 206 80 77 \;;
#X scalar y-plot 46 246 1 \; 30 \; 29.4 \; 28.8 \; 28.2 \; 27.6 \;
27 \; 26.4 \; 25.8 \; 25.2 \; 24.6 \; 24 \; 23.4 \; 22.8 \; 22.2 \;
21.6 \; 21 \; 20.4 \; 19.8 \; 19.2 \; 18.6 \; 18 \; 17.4 \; 16.8 \;
16.2 \; 15.6 \; 15 \; 14.4 \; 13.8 \; 13.2 \; 12.6 \; 12 \; 11.4 \;
10.8 \; 10.2 \; 9.6 \; 9 \; 8.4 \; 7.8 \; 7.2 \; 6.6 \; 6 \; 5.4 \;
4.8 \; 4.2 \; 3.6 \; 3 \; 2.4 \; 1.8 \; 1.2 \; 0.599999 \; 0 \; -0.599999
\; -1.2 \; -1.8 \; -2.4 \; -3 \; -3.6 \; -4.2 \; -4.8 \; -5.4 \; -6
\; -6.6 \; -7.2 \; -7.8 \; -8.4 \; -9 \; -9.6 \; -10.2 \; -10.8 \;
-11.4 \; -12 \; -12.6 \; -13.2 \; -13.8 \; -14.4 \; -15 \; -15.6 \;
-16.2 \; -16.8 \; -17.4 \; -18 \; -18.6 \; -19.2 \; -19.8 \; -20.4
\; -21 \; -21.6 \; -22.2 \; -22.8 \; -23.4 \; -24 \; -24.6 \; -25.2
\; -25.8 \; -26.4 \; -27 \; -27.6 \; -28.2 \; -28.8 \; -29.4 \; -30
\; \;;
#X scalar y-plot 146 246 1 \; 30 \; 29.4 \; 28.8 \; 28.2 \; 27.6 \;
27 \; 26.4 \; 25.8 \; 25.2 \; 24.6 \; 24 \; 23.4 \; 22.8 \; 22.2 \;
21.6 \; 21 \; 20.4 \; 19.8 \; 19.2 \; 18.6 \; 18 \; 17.4 \; 16.8 \;
16.2 \; 15.6 \; 15 \; 14.4 \; 13.8 \; 13.2 \; 12.6 \; 12 \; 11.4 \;
10.8 \; 10.2 \; 9.6 \; 9 \; 8.4 \; 7.8 \; 7.2 \; 6.6 \; 6 \; 5.4 \;
4.8 \; 4.2 \; 3.6 \; 3 \; 2.4 \; 1.8 \; 1.2 \; 0.599999 \; 0 \; -0.599999
\; -1.2 \; -1.8 \; -2.4 \; -3 \; -3.6 \; -4.2 \; -4.8 \; -5.4 \; -6
\; -6.6 \; -7.2 \; -7.8 \; -8.4 \; -9 \; -9.6 \; -10.2 \; -10.8 \;
-11.4 \; -12 \; -12.6 \; -13.2 \; -13.8 \; -14.4 \; -15 \; -15.6 \;
-16.2 \; -16.8 \; -17.4 \; -18 \; -18.6 \; -19.2 \; -19.8 \; -20.4
\; -21 \; -21.6 \; -22.2 \; -22.8 \; -23.4 \; -24 \; -24.6 \; -25.2
\; -25.8 \; -26.4 \; -27 \; -27.6 \; -28.2 \; -28.8 \; -29.4 \; -30
\; \;;
#X scalar y-plot 246 246 1 \; 30 \; 29.4 \; 28.8 \; 28.2 \; 27.6 \;
27 \; 26.4 \; 25.8 \; 25.2 \; 24.6 \; 24 \; 23.4 \; 22.8 \; 22.2 \;
21.6 \; 21 \; 20.4 \; 19.8 \; 19.2 \; 18.6 \; 18 \; 17.4 \; 16.8 \;
16.2 \; 15.6 \; 15 \; 14.4 \; 13.8 \; 13.2 \; 12.6 \; 12 \; 11.4 \;
10.8 \; 10.2 \; 9.6 \; 9 \; 8.4 \; 7.8 \; 7.2 \; 6.6 \; 6 \; 5.4 \;
4.8 \; 4.2 \; 3.6 \; 3 \; 2.4 \; 1.8 \; 1.2 \; 0.599999 \; 0 \; -0.599999
\; -1.2 \; -1.8 \; -2.4 \; -3 \; -3.6 \; -4.2 \; -4.8 \; -5.4 \; -6
\; -6.6 \; -7.2 \; -7.8 \; -8.4 \; -9 \; -9.6 \; -10.2 \; -10.8 \;
-11.4 \; -12 \; -12.6 \; -13.2 \; -13.8 \; -14.4 \; -15 \; -15.6 \;
-16.2 \; -16.8 \; -17.4 \; -18 \; -18.6 \; -19.2 \; -19.8 \; -20.4
\; -21 \; -21.6 \; -22.2 \; -22.8 \; -23.4 \; -24 \; -24.6 \; -25.2
\; -25.8 \; -26.4 \; -27 \; -27.6 \; -28.2 \; -28.8 \; -29.4 \; -30
\; \;;
#X scalar haxis 21 157 350 347 \;;
#X scalar vaxis 46 117 80 77 \;;
#X scalar y-plot 46 157 1 \; -12 \; -10.5 \; -9 \; -7.5 \; -6 \; -4.5
\; -3 \; -1.5 \; -8.9407e-07 \; 1.5 \; 3 \; 4.5 \; 6 \; 7.5 \; 9 \;
10.5 \; 12 \; 13.5 \; 15 \; 16.5 \; 18 \; 19.5 \; 21 \; 22.5 \; 24
\; 25.5 \; 27 \; 28.5 \; 30 \; 30.6 \; 30 \; 29.4 \; 28.8 \; 28.2 \;
27.6 \; 27 \; 26.4 \; 25.8 \; 25.2 \; 24.6 \; 24 \; 23.4 \; 22.8 \;
22.2 \; 21.6 \; 21 \; 20.4 \; 19.8 \; 19.2 \; 18.6 \; 18 \; 17.4 \;
16.8 \; 16.2 \; 15.6 \; 15 \; 14.4 \; 13.8 \; 13.2 \; 12.6 \; 12 \;
11.4 \; 10.8 \; 10.2 \; 9.6 \; 9 \; 8.4 \; 7.8 \; 7.2 \; 6.6 \; 6 \;
5.4 \; 4.8 \; 4.2 \; 3.6 \; 3 \; 2.4 \; 1.8 \; 1.2 \; 0.599999 \; -8.9407e-07
\; -0.6 \; -1.2 \; -1.8 \; -2.4 \; -3 \; -3.6 \; -4.2 \; -4.8 \; -5.4
\; -6 \; -6.6 \; -7.2 \; -7.8 \; -8.4 \; -9 \; -9.6 \; -10.2 \; -10.8
\; -11.4 \; -12 \; \;;
#X scalar y-plot 146 157 1 \; -12 \; -10.5 \; -9 \; -7.5 \; -6 \; -4.5
\; -3 \; -1.5 \; -8.9407e-07 \; 1.5 \; 3 \; 4.5 \; 6 \; 7.5 \; 9 \;
10.5 \; 12 \; 13.5 \; 15 \; 16.5 \; 18 \; 19.5 \; 21 \; 22.5 \; 24
\; 25.5 \; 27 \; 28.5 \; 30 \; 30.6 \; 30 \; 29.4 \; 28.8 \; 28.2 \;
27.6 \; 27 \; 26.4 \; 25.8 \; 25.2 \; 24.6 \; 24 \; 23.4 \; 22.8 \;
22.2 \; 21.6 \; 21 \; 20.4 \; 19.8 \; 19.2 \; 18.6 \; 18 \; 17.4 \;
16.8 \; 16.2 \; 15.6 \; 15 \; 14.4 \; 13.8 \; 13.2 \; 12.6 \; 12 \;
11.4 \; 10.8 \; 10.2 \; 9.6 \; 9 \; 8.4 \; 7.8 \; 7.2 \; 6.6 \; 6 \;
5.4 \; 4.8 \; 4.2 \; 3.6 \; 3 \; 2.4 \; 1.8 \; 1.2 \; 0.599999 \; -8.9407e-07
\; -0.6 \; -1.2 \; -1.8 \; -2.4 \; -3 \; -3.6 \; -4.2 \; -4.8 \; -5.4
\; -6 \; -6.6 \; -7.2 \; -7.8 \; -8.4 \; -9 \; -9.6 \; -10.2 \; -10.8
\; -11.4 \; -12 \; \;;
#X scalar y-plot 246 157 1 \; -12 \; -10.5 \; -9 \; -7.5 \; -6 \; -4.5
\; -3 \; -1.5 \; -8.9407e-07 \; 1.5 \; 3 \; 4.5 \; 6 \; 7.5 \; 9 \;
10.5 \; 12 \; 13.5 \; 15 \; 16.5 \; 18 \; 19.5 \; 21 \; 22.5 \; 24
\; 25.5 \; 27 \; 28.5 \; 30 \; 30.6 \; 30 \; 29.4 \; 28.8 \; 28.2 \;
27.6 \; 27 \; 26.4 \; 25.8 \; 25.2 \; 24.6 \; 24 \; 23.4 \; 22.8 \;
22.2 \; 21.6 \; 21 \; 20.4 \; 19.8 \; 19.2 \; 18.6 \; 18 \; 17.4 \;
16.8 \; 16.2 \; 15.6 \; 15 \; 14.4 \; 13.8 \; 13.2 \; 12.6 \; 12 \;
11.4 \; 10.8 \; 10.2 \; 9.6 \; 9 \; 8.4 \; 7.8 \; 7.2 \; 6.6 \; 6 \;
5.4 \; 4.8 \; 4.2 \; 3.6 \; 3 \; 2.4 \; 1.8 \; 1.2 \; 0.599999 \; -8.9407e-07
\; -0.6 \; -1.2 \; -1.8 \; -2.4 \; -3 \; -3.6 \; -4.2 \; -4.8 \; -5.4
\; -6 \; -6.6 \; -7.2 \; -7.8 \; -8.4 \; -9 \; -9.6 \; -10.2 \; -10.8
\; -11.4 \; -12 \; \;;
#X scalar haxis 21 68 350 347 \;;
#X scalar vaxis 46 28 80 77 \;;
#X scalar y-plot 46 88 1 \; 0 \; 0 \; 0 \; 0 \; 0 \; 0 \; 0 \; 0 \;
0 \; 0 \; 0 \; 0 \; 0 \; 0 \; 0 \; 0 \; 0 \; 0 \; 0 \; 0 \; 0 \; 0
\; 0 \; 0 \; 0 \; 0 \; 0 \; 0 \; 0 \; 0 \; 0 \; \;;
#X scalar y-plot 76 61 1 \; 0 \; 0 \; 0 \; 0 \; 0 \; 0 \; 0 \; 0 \;
0 \; 0 \; 0 \; 0 \; 0 \; 0 \; 0 \; 0 \; 0 \; 0 \; 0 \; 0 \; 0 \; 0
\; 0 \; 0 \; 0 \; 0 \; 0 \; 0 \; 0 \; 0 \; 0 \; 0 \; 0 \; 0 \; 0 \;
0 \; 0 \; 0 \; 0 \; 0 \; 0 \; 0 \; 0 \; 0 \; 0 \; 0 \; 0 \; 0 \; 0
\; 0 \; 0 \; 0 \; 0 \; 0 \; 0 \; 0 \; 0 \; 0 \; 0 \; 0 \; 0 \; 0 \;
0 \; 0 \; 0 \; 0 \; 0 \; 0 \; 0 \; 0 \; 0 \; \;;
#X scalar y-plot 146 88 1 \; 0 \; 0 \; 0 \; 0 \; 0 \; 0 \; 0 \; 0 \;
0 \; 0 \; 0 \; 0 \; 0 \; 0 \; 0 \; 0 \; 0 \; 0 \; 0 \; 0 \; 0 \; 0
\; 0 \; 0 \; 0 \; 0 \; 0 \; 0 \; 0 \; 0 \; 0 \; \;;
#X scalar y-plot 176 61 1 \; 0 \; 0 \; 0 \; 0 \; 0 \; 0 \; 0 \; 0 \;
0 \; 0 \; 0 \; 0 \; 0 \; 0 \; 0 \; 0 \; 0 \; 0 \; 0 \; 0 \; 0 \; 0
\; 0 \; 0 \; 0 \; 0 \; 0 \; 0 \; 0 \; 0 \; 0 \; 0 \; 0 \; 0 \; 0 \;
0 \; 0 \; 0 \; 0 \; 0 \; 0 \; 0 \; 0 \; 0 \; 0 \; 0 \; 0 \; 0 \; 0
\; 0 \; 0 \; 0 \; 0 \; 0 \; 0 \; 0 \; 0 \; 0 \; 0 \; 0 \; 0 \; 0 \;
0 \; 0 \; 0 \; 0 \; 0 \; 0 \; 0 \; 0 \; 0 \; \;;
#X scalar y-plot 246 88 1 \; 0 \; 0 \; 0 \; 0 \; 0 \; 0 \; 0 \; 0 \;
0 \; 0 \; 0 \; 0 \; 0 \; 0 \; 0 \; 0 \; 0 \; 0 \; 0 \; 0 \; 0 \; 0
\; 0 \; 0 \; 0 \; 0 \; 0 \; 0 \; 0 \; 0 \; 0 \; \;;
#X scalar y-plot 276 61 1 \; 0 \; 0 \; 0 \; 0 \; 0 \; 0 \; 0 \; 0 \;
0 \; 0 \; 0 \; 0 \; 0 \; 0 \; 0 \; 0 \; 0 \; 0 \; 0 \; 0 \; 0 \; 0
\; 0 \; 0 \; 0 \; 0 \; 0 \; 0 \; 0 \; 0 \; 0 \; 0 \; 0 \; 0 \; 0 \;
0 \; 0 \; 0 \; 0 \; 0 \; 0 \; 0 \; 0 \; 0 \; 0 \; 0 \; 0 \; 0 \; 0
\; 0 \; 0 \; 0 \; 0 \; 0 \; 0 \; 0 \; 0 \; 0 \; 0 \; 0 \; 0 \; 0 \;
0 \; 0 \; 0 \; 0 \; 0 \; 0 \; 0 \; 0 \; 0 \; \;;
#X coords 0 285 1 284 0 0 0;
#X restore 51 61 pd fig;
#X obj 170 42 templates;
#N canvas 83 485 468 394 z 1;
#X scalar haxis 57 338 350 347 \;;
#X scalar vaxis 82 298 80 77 \;;
#X scalar y-plot 82 338 1 \; 30 \; 29.4 \; 28.8 \; 28.2 \; 27.6 \;
27 \; 26.4 \; 25.8 \; 25.2 \; 24.6 \; 24 \; 23.4 \; 22.8 \; 22.2 \;
21.6 \; 21 \; 20.4 \; 19.8 \; 19.2 \; 18.6 \; 18 \; 17.4 \; 16.8 \;
16.2 \; 15.6 \; 15 \; 14.4 \; 13.8 \; 13.2 \; 12.6 \; 12 \; 11.4 \;
10.8 \; 10.2 \; 9.6 \; 9 \; 8.4 \; 7.8 \; 7.2 \; 6.6 \; 6 \; 5.4 \;
4.8 \; 4.2 \; 3.6 \; 3 \; 2.4 \; 1.8 \; 1.2 \; 0.599999 \; 0 \; -0.599999
\; -1.2 \; -1.8 \; -2.4 \; -3 \; -3.6 \; -4.2 \; -4.8 \; -5.4 \; -6
\; -6.6 \; -7.2 \; -7.8 \; -8.4 \; -9 \; -9.6 \; -10.2 \; -10.8 \;
-11.4 \; -12 \; -12.6 \; -13.2 \; -13.8 \; -14.4 \; -15 \; -15.6 \;
-16.2 \; -16.8 \; -17.4 \; -18 \; -18.6 \; -19.2 \; -19.8 \; -20.4
\; -21 \; -21.6 \; -22.2 \; -22.8 \; -23.4 \; -24 \; -24.6 \; -25.2
\; -25.8 \; -26.4 \; -27 \; -27.6 \; -28.2 \; -28.8 \; -29.4 \; -30
\; \;;
#X scalar y-plot 182 338 1 \; 30 \; 29.4 \; 28.8 \; 28.2 \; 27.6 \;
27 \; 26.4 \; 25.8 \; 25.2 \; 24.6 \; 24 \; 23.4 \; 22.8 \; 22.2 \;
21.6 \; 21 \; 20.4 \; 19.8 \; 19.2 \; 18.6 \; 18 \; 17.4 \; 16.8 \;
16.2 \; 15.6 \; 15 \; 14.4 \; 13.8 \; 13.2 \; 12.6 \; 12 \; 11.4 \;
10.8 \; 10.2 \; 9.6 \; 9 \; 8.4 \; 7.8 \; 7.2 \; 6.6 \; 6 \; 5.4 \;
4.8 \; 4.2 \; 3.6 \; 3 \; 2.4 \; 1.8 \; 1.2 \; 0.599999 \; 0 \; -0.599999
\; -1.2 \; -1.8 \; -2.4 \; -3 \; -3.6 \; -4.2 \; -4.8 \; -5.4 \; -6
\; -6.6 \; -7.2 \; -7.8 \; -8.4 \; -9 \; -9.6 \; -10.2 \; -10.8 \;
-11.4 \; -12 \; -12.6 \; -13.2 \; -13.8 \; -14.4 \; -15 \; -15.6 \;
-16.2 \; -16.8 \; -17.4 \; -18 \; -18.6 \; -19.2 \; -19.8 \; -20.4
\; -21 \; -21.6 \; -22.2 \; -22.8 \; -23.4 \; -24 \; -24.6 \; -25.2
\; -25.8 \; -26.4 \; -27 \; -27.6 \; -28.2 \; -28.8 \; -29.4 \; -30
\; \;;
#X scalar y-plot 282 338 1 \; 30 \; 29.4 \; 28.8 \; 28.2 \; 27.6 \;
27 \; 26.4 \; 25.8 \; 25.2 \; 24.6 \; 24 \; 23.4 \; 22.8 \; 22.2 \;
21.6 \; 21 \; 20.4 \; 19.8 \; 19.2 \; 18.6 \; 18 \; 17.4 \; 16.8 \;
16.2 \; 15.6 \; 15 \; 14.4 \; 13.8 \; 13.2 \; 12.6 \; 12 \; 11.4 \;
10.8 \; 10.2 \; 9.6 \; 9 \; 8.4 \; 7.8 \; 7.2 \; 6.6 \; 6 \; 5.4 \;
4.8 \; 4.2 \; 3.6 \; 3 \; 2.4 \; 1.8 \; 1.2 \; 0.599999 \; 0 \; -0.599999
\; -1.2 \; -1.8 \; -2.4 \; -3 \; -3.6 \; -4.2 \; -4.8 \; -5.4 \; -6
\; -6.6 \; -7.2 \; -7.8 \; -8.4 \; -9 \; -9.6 \; -10.2 \; -10.8 \;
-11.4 \; -12 \; -12.6 \; -13.2 \; -13.8 \; -14.4 \; -15 \; -15.6 \;
-16.2 \; -16.8 \; -17.4 \; -18 \; -18.6 \; -19.2 \; -19.8 \; -20.4
\; -21 \; -21.6 \; -22.2 \; -22.8 \; -23.4 \; -24 \; -24.6 \; -25.2
\; -25.8 \; -26.4 \; -27 \; -27.6 \; -28.2 \; -28.8 \; -29.4 \; -30
\; \;;
#X scalar haxis 57 249 350 347 \;;
#X scalar vaxis 82 209 80 77 \;;
#X scalar y-plot 82 249 1 \; -12 \; -10.5 \; -9 \; -7.5 \; -6 \; -4.5
\; -3 \; -1.5 \; -8.9407e-07 \; 1.5 \; 3 \; 4.5 \; 6 \; 7.5 \; 9 \;
10.5 \; 12 \; 13.5 \; 15 \; 16.5 \; 18 \; 19.5 \; 21 \; 22.5 \; 24
\; 25.5 \; 27 \; 28.5 \; 30 \; 30.6 \; 30 \; 29.4 \; 28.8 \; 28.2 \;
27.6 \; 27 \; 26.4 \; 25.8 \; 25.2 \; 24.6 \; 24 \; 23.4 \; 22.8 \;
22.2 \; 21.6 \; 21 \; 20.4 \; 19.8 \; 19.2 \; 18.6 \; 18 \; 17.4 \;
16.8 \; 16.2 \; 15.6 \; 15 \; 14.4 \; 13.8 \; 13.2 \; 12.6 \; 12 \;
11.4 \; 10.8 \; 10.2 \; 9.6 \; 9 \; 8.4 \; 7.8 \; 7.2 \; 6.6 \; 6 \;
5.4 \; 4.8 \; 4.2 \; 3.6 \; 3 \; 2.4 \; 1.8 \; 1.2 \; 0.599999 \; -8.9407e-07
\; -0.6 \; -1.2 \; -1.8 \; -2.4 \; -3 \; -3.6 \; -4.2 \; -4.8 \; -5.4
\; -6 \; -6.6 \; -7.2 \; -7.8 \; -8.4 \; -9 \; -9.6 \; -10.2 \; -10.8
\; -11.4 \; -12 \; \;;
#X scalar y-plot 182 249 1 \; -12 \; -10.5 \; -9 \; -7.5 \; -6 \; -4.5
\; -3 \; -1.5 \; -8.9407e-07 \; 1.5 \; 3 \; 4.5 \; 6 \; 7.5 \; 9 \;
10.5 \; 12 \; 13.5 \; 15 \; 16.5 \; 18 \; 19.5 \; 21 \; 22.5 \; 24
\; 25.5 \; 27 \; 28.5 \; 30 \; 30.6 \; 30 \; 29.4 \; 28.8 \; 28.2 \;
27.6 \; 27 \; 26.4 \; 25.8 \; 25.2 \; 24.6 \; 24 \; 23.4 \; 22.8 \;
22.2 \; 21.6 \; 21 \; 20.4 \; 19.8 \; 19.2 \; 18.6 \; 18 \; 17.4 \;
16.8 \; 16.2 \; 15.6 \; 15 \; 14.4 \; 13.8 \; 13.2 \; 12.6 \; 12 \;
11.4 \; 10.8 \; 10.2 \; 9.6 \; 9 \; 8.4 \; 7.8 \; 7.2 \; 6.6 \; 6 \;
5.4 \; 4.8 \; 4.2 \; 3.6 \; 3 \; 2.4 \; 1.8 \; 1.2 \; 0.599999 \; -8.9407e-07
\; -0.6 \; -1.2 \; -1.8 \; -2.4 \; -3 \; -3.6 \; -4.2 \; -4.8 \; -5.4
\; -6 \; -6.6 \; -7.2 \; -7.8 \; -8.4 \; -9 \; -9.6 \; -10.2 \; -10.8
\; -11.4 \; -12 \; \;;
#X scalar y-plot 282 249 1 \; -12 \; -10.5 \; -9 \; -7.5 \; -6 \; -4.5
\; -3 \; -1.5 \; -8.9407e-07 \; 1.5 \; 3 \; 4.5 \; 6 \; 7.5 \; 9 \;
10.5 \; 12 \; 13.5 \; 15 \; 16.5 \; 18 \; 19.5 \; 21 \; 22.5 \; 24
\; 25.5 \; 27 \; 28.5 \; 30 \; 30.6 \; 30 \; 29.4 \; 28.8 \; 28.2 \;
27.6 \; 27 \; 26.4 \; 25.8 \; 25.2 \; 24.6 \; 24 \; 23.4 \; 22.8 \;
22.2 \; 21.6 \; 21 \; 20.4 \; 19.8 \; 19.2 \; 18.6 \; 18 \; 17.4 \;
16.8 \; 16.2 \; 15.6 \; 15 \; 14.4 \; 13.8 \; 13.2 \; 12.6 \; 12 \;
11.4 \; 10.8 \; 10.2 \; 9.6 \; 9 \; 8.4 \; 7.8 \; 7.2 \; 6.6 \; 6 \;
5.4 \; 4.8 \; 4.2 \; 3.6 \; 3 \; 2.4 \; 1.8 \; 1.2 \; 0.599999 \; -8.9407e-07
\; -0.6 \; -1.2 \; -1.8 \; -2.4 \; -3 \; -3.6 \; -4.2 \; -4.8 \; -5.4
\; -6 \; -6.6 \; -7.2 \; -7.8 \; -8.4 \; -9 \; -9.6 \; -10.2 \; -10.8
\; -11.4 \; -12 \; \;;
#X scalar haxis 57 160 350 347 \;;
#X scalar vaxis 82 120 80 77 \;;
#X scalar y-plot 82 180 1 \; 0 \; 0 \; 0 \; 0 \; 0 \; 0 \; 0 \; 0 \;
0 \; 0 \; 0 \; 0 \; 0 \; 0 \; 0 \; 0 \; 0 \; 0 \; 0 \; 0 \; 0 \; 0
\; 0 \; 0 \; 0 \; 0 \; 0 \; 0 \; 0 \; 0 \; 0 \; \;;
#X scalar y-plot 112 153 1 \; 0 \; 0 \; 0 \; 0 \; 0 \; 0 \; 0 \; 0
\; 0 \; 0 \; 0 \; 0 \; 0 \; 0 \; 0 \; 0 \; 0 \; 0 \; 0 \; 0 \; 0 \;
0 \; 0 \; 0 \; 0 \; 0 \; 0 \; 0 \; 0 \; 0 \; 0 \; 0 \; 0 \; 0 \; 0
\; 0 \; 0 \; 0 \; 0 \; 0 \; 0 \; 0 \; 0 \; 0 \; 0 \; 0 \; 0 \; 0 \;
0 \; 0 \; 0 \; 0 \; 0 \; 0 \; 0 \; 0 \; 0 \; 0 \; 0 \; 0 \; 0 \; 0
\; 0 \; 0 \; 0 \; 0 \; 0 \; 0 \; 0 \; 0 \; 0 \; \;;
#X scalar y-plot 182 180 1 \; 0 \; 0 \; 0 \; 0 \; 0 \; 0 \; 0 \; 0
\; 0 \; 0 \; 0 \; 0 \; 0 \; 0 \; 0 \; 0 \; 0 \; 0 \; 0 \; 0 \; 0 \;
0 \; 0 \; 0 \; 0 \; 0 \; 0 \; 0 \; 0 \; 0 \; 0 \; \;;
#X scalar y-plot 212 153 1 \; 0 \; 0 \; 0 \; 0 \; 0 \; 0 \; 0 \; 0
\; 0 \; 0 \; 0 \; 0 \; 0 \; 0 \; 0 \; 0 \; 0 \; 0 \; 0 \; 0 \; 0 \;
0 \; 0 \; 0 \; 0 \; 0 \; 0 \; 0 \; 0 \; 0 \; 0 \; 0 \; 0 \; 0 \; 0
\; 0 \; 0 \; 0 \; 0 \; 0 \; 0 \; 0 \; 0 \; 0 \; 0 \; 0 \; 0 \; 0 \;
0 \; 0 \; 0 \; 0 \; 0 \; 0 \; 0 \; 0 \; 0 \; 0 \; 0 \; 0 \; 0 \; 0
\; 0 \; 0 \; 0 \; 0 \; 0 \; 0 \; 0 \; 0 \; 0 \; \;;
#X scalar y-plot 282 180 1 \; 0 \; 0 \; 0 \; 0 \; 0 \; 0 \; 0 \; 0
\; 0 \; 0 \; 0 \; 0 \; 0 \; 0 \; 0 \; 0 \; 0 \; 0 \; 0 \; 0 \; 0 \;
0 \; 0 \; 0 \; 0 \; 0 \; 0 \; 0 \; 0 \; 0 \; 0 \; \;;
#X scalar y-plot 312 153 1 \; 0 \; 0 \; 0 \; 0 \; 0 \; 0 \; 0 \; 0
\; 0 \; 0 \; 0 \; 0 \; 0 \; 0 \; 0 \; 0 \; 0 \; 0 \; 0 \; 0 \; 0 \;
0 \; 0 \; 0 \; 0 \; 0 \; 0 \; 0 \; 0 \; 0 \; 0 \; 0 \; 0 \; 0 \; 0
\; 0 \; 0 \; 0 \; 0 \; 0 \; 0 \; 0 \; 0 \; 0 \; 0 \; 0 \; 0 \; 0 \;
0 \; 0 \; 0 \; 0 \; 0 \; 0 \; 0 \; 0 \; 0 \; 0 \; 0 \; 0 \; 0 \; 0
\; 0 \; 0 \; 0 \; 0 \; 0 \; 0 \; 0 \; 0 \; 0 \; \;;
#X coords 0 394 1 393 0 0 0;
#X restore 54 89 pd z;
#N canvas 365 283 731 566 make-fig 0;
#X msg 24 62 \; start pd-z \;;
#X obj 89 398 pack;
#X msg 89 429 \; y-plot-point \$1 \$2 \;;
#X msg 161 29 \; pd-z clear \; start pd-z;
#X msg 76 156 \; add-y-plot 101 75 100 1 \;;
#X msg 77 191 \; add-y-plot 101 175 100 1 \;;
#X msg 76 232 \; add-y-plot 101 275 100 1 \;;
#X msg 363 67 \; add-rect 175 98 2 4 \;;
#X msg 362 111 \; add-rect 275 98 2 4 \;;
#X obj 89 285 scanner 100 2;
#X obj 133 328 * -1;
#X obj 132 349 + 1;
#X msg 363 26 \; add-rect 75 98 2 4 \;;
#X obj 238 454 pack;
#X msg 238 485 \; y-plot-point \$1 \$2 \;;
#X obj 238 285 scanner 100 1;
#X obj 334 354 + 1;
#X obj 285 437 min;
#X obj 282 386 * 5;
#X obj 334 333 * -1;
#X obj 332 387 * 2;
#X obj 281 413 - 0.4;
#X obj 332 410 - 0.4;
#X obj 132 373 * 30;
#X obj 285 460 * 30;
#X msg 435 200 \; add-y-plot 31 75 120 1 \;;
#X msg 435 236 \; add-y-plot 71 105 93 1 \;;
#X msg 437 275 \; add-y-plot 31 175 120 1 \;;
#X msg 437 312 \; add-y-plot 71 205 93 1 \;;
#X msg 432 351 \; add-y-plot 31 275 120 1 \;;
#X msg 433 389 \; add-y-plot 71 305 93 1 \;;
#X msg 123 97 \; add-haxis 50 100 350 347 \; add-vaxis 75 60 80 77
;
#X connect 1 0 2 0;
#X connect 9 0 1 0;
#X connect 9 1 10 0;
#X connect 10 0 11 0;
#X connect 11 0 23 0;
#X connect 13 0 14 0;
#X connect 15 0 13 0;
#X connect 15 1 18 0;
#X connect 15 2 19 0;
#X connect 16 0 20 0;
#X connect 17 0 24 0;
#X connect 18 0 21 0;
#X connect 19 0 16 0;
#X connect 20 0 22 0;
#X connect 21 0 17 0;
#X connect 22 0 17 1;
#X connect 23 0 1 1;
#X connect 24 0 13 1;
#X restore 170 83 pd make-fig;
