#N struct haxis float x float y float w float w-3;
#N struct vaxis float x float y float h float h-3;
#N struct y-plot float x float y float w array z y-point;
#N struct y-point float y;
#N struct rect float x float y float w float h;
#N struct xy-curve float x float y float w array z xy-point;
#N struct xy-point float x float y;
#N struct seg float x float y float dx float dy float w;
#N struct l-curve-arrow float x float y float z float z2 float z3 float
h;
#N struct circle2 float x float y float h float h2 float mh float mh2
;
#N struct xy-plot float x float y float w array z xy-point;
#N struct d-curve-arrow float x float y float z float z2 float z3 float
h;
#N struct circle float x float y float color float h float h2;
#N struct u-curve-arrow float x float y float z float z2 float z3 float
h;
#N struct r-curve-arrow float x float y float z float z2 float z3 float
h;
#N struct r-arrow float x float y float z;
#N struct l-arrow float x float y float z;
#N struct u-arrow float x float y float z;
#N struct d-arrow float x float y float z;
#N struct v-seg float x float y float z float w;
#N struct h-seg float x float y float z float w;
#N struct frame float x float y float w float h;
#N struct thickcircle float x float y float color float h float h2
;
#N canvas 34 349 329 179 10;
#N canvas 70 100 383 100 fig 1;
#X scalar haxis 14 55 350 347 \;;
#X scalar vaxis 39 15 80 77 \;;
#X scalar y-plot 39 55 1 \; 20 \; 18.812 \; 17.648 \; 16.508 \; 15.392
\; 14.3 \; 13.232 \; 12.188 \; 11.168 \; 10.172 \; 9.2 \; 8.252 \;
7.328 \; 6.428 \; 5.552 \; 4.7 \; 3.872 \; 3.068 \; 2.288 \; 1.532
\; 0.8 \; 0.0920016 \; -0.592 \; -1.252 \; -1.888 \; -2.5 \; -3.088
\; -3.652 \; -4.192 \; -4.708 \; -5.2 \; -5.668 \; -6.112 \; -6.532
\; -6.928 \; -7.3 \; -7.648 \; -7.972 \; -8.272 \; -8.548 \; -8.8 \;
-9.028 \; -9.232 \; -9.412 \; -9.568 \; -9.7 \; -9.808 \; -9.892 \;
-9.952 \; -9.988 \; -10 \; -9.988 \; -9.952 \; -9.892 \; -9.808 \;
-9.7 \; -9.568 \; -9.412 \; -9.232 \; -9.028 \; -8.8 \; -8.548 \; -8.272
\; -7.972 \; -7.648 \; -7.3 \; -6.928 \; -6.532 \; -6.112 \; -5.668
\; -5.2 \; -4.708 \; -4.192 \; -3.652 \; -3.088 \; -2.5 \; -1.888 \;
-1.252 \; -0.592002 \; 0.0920016 \; 0.8 \; 1.532 \; 2.288 \; 3.068
\; 3.872 \; 4.7 \; 5.552 \; 6.428 \; 7.328 \; 8.252 \; 9.2 \; 10.172
\; 11.168 \; 12.188 \; 13.232 \; 14.3 \; 15.392 \; 16.508 \; 17.648
\; 18.812 \; 21.212 \; \;;
#X scalar y-plot 139 55 1 \; 20 \; 18.812 \; 17.648 \; 16.508 \; 15.392
\; 14.3 \; 13.232 \; 12.188 \; 11.168 \; 10.172 \; 9.2 \; 8.252 \;
7.328 \; 6.428 \; 5.552 \; 4.7 \; 3.872 \; 3.068 \; 2.288 \; 1.532
\; 0.8 \; 0.0920016 \; -0.592 \; -1.252 \; -1.888 \; -2.5 \; -3.088
\; -3.652 \; -4.192 \; -4.708 \; -5.2 \; -5.668 \; -6.112 \; -6.532
\; -6.928 \; -7.3 \; -7.648 \; -7.972 \; -8.272 \; -8.548 \; -8.8 \;
-9.028 \; -9.232 \; -9.412 \; -9.568 \; -9.7 \; -9.808 \; -9.892 \;
-9.952 \; -9.988 \; -10 \; -9.988 \; -9.952 \; -9.892 \; -9.808 \;
-9.7 \; -9.568 \; -9.412 \; -9.232 \; -9.028 \; -8.8 \; -8.548 \; -8.272
\; -7.972 \; -7.648 \; -7.3 \; -6.928 \; -6.532 \; -6.112 \; -5.668
\; -5.2 \; -4.708 \; -4.192 \; -3.652 \; -3.088 \; -2.5 \; -1.888 \;
-1.252 \; -0.592002 \; 0.0920016 \; 0.8 \; 1.532 \; 2.288 \; 3.068
\; 3.872 \; 4.7 \; 5.552 \; 6.428 \; 7.328 \; 8.252 \; 9.2 \; 10.172
\; 11.168 \; 12.188 \; 13.232 \; 14.3 \; 15.392 \; 16.508 \; 17.648
\; 18.812 \; 21.212 \; \;;
#X scalar y-plot 239 55 1 \; 20 \; 18.812 \; 17.648 \; 16.508 \; 15.392
\; 14.3 \; 13.232 \; 12.188 \; 11.168 \; 10.172 \; 9.2 \; 8.252 \;
7.328 \; 6.428 \; 5.552 \; 4.7 \; 3.872 \; 3.068 \; 2.288 \; 1.532
\; 0.8 \; 0.0920016 \; -0.592 \; -1.252 \; -1.888 \; -2.5 \; -3.088
\; -3.652 \; -4.192 \; -4.708 \; -5.2 \; -5.668 \; -6.112 \; -6.532
\; -6.928 \; -7.3 \; -7.648 \; -7.972 \; -8.272 \; -8.548 \; -8.8 \;
-9.028 \; -9.232 \; -9.412 \; -9.568 \; -9.7 \; -9.808 \; -9.892 \;
-9.952 \; -9.988 \; -10 \; -9.988 \; -9.952 \; -9.892 \; -9.808 \;
-9.7 \; -9.568 \; -9.412 \; -9.232 \; -9.028 \; -8.8 \; -8.548 \; -8.272
\; -7.972 \; -7.648 \; -7.3 \; -6.928 \; -6.532 \; -6.112 \; -5.668
\; -5.2 \; -4.708 \; -4.192 \; -3.652 \; -3.088 \; -2.5 \; -1.888 \;
-1.252 \; -0.592002 \; 0.0920016 \; 0.8 \; 1.532 \; 2.288 \; 3.068
\; 3.872 \; 4.7 \; 5.552 \; 6.428 \; 7.328 \; 8.252 \; 9.2 \; 10.172
\; 11.168 \; 12.188 \; 13.232 \; 14.3 \; 15.392 \; 16.508 \; 17.648
\; 18.812 \; 21.212 \; \;;
#X scalar rect 138 53 2 4 \;;
#X scalar rect 238 53 2 4 \;;
#X scalar rect 338 53 2 4 \;;
#X text 138 47 N;
#X text 6 18 1/12;
#X text 84 64 (N/2 \, -1/24);
#X scalar rect 88 43 2 4 \;;
#X coords 0 100 1 99 0 0 0;
#X restore 51 61 pd fig;
#X obj 170 42 templates;
#N canvas 55 539 464 288 z 1;
#X scalar haxis 14 55 350 347 \;;
#X scalar vaxis 39 15 80 77 \;;
#X scalar y-plot 39 55 1 \; 20 \; 18.812 \; 17.648 \; 16.508 \; 15.392
\; 14.3 \; 13.232 \; 12.188 \; 11.168 \; 10.172 \; 9.2 \; 8.252 \;
7.328 \; 6.428 \; 5.552 \; 4.7 \; 3.872 \; 3.068 \; 2.288 \; 1.532
\; 0.8 \; 0.0920016 \; -0.592 \; -1.252 \; -1.888 \; -2.5 \; -3.088
\; -3.652 \; -4.192 \; -4.708 \; -5.2 \; -5.668 \; -6.112 \; -6.532
\; -6.928 \; -7.3 \; -7.648 \; -7.972 \; -8.272 \; -8.548 \; -8.8 \;
-9.028 \; -9.232 \; -9.412 \; -9.568 \; -9.7 \; -9.808 \; -9.892 \;
-9.952 \; -9.988 \; -10 \; -9.988 \; -9.952 \; -9.892 \; -9.808 \;
-9.7 \; -9.568 \; -9.412 \; -9.232 \; -9.028 \; -8.8 \; -8.548 \; -8.272
\; -7.972 \; -7.648 \; -7.3 \; -6.928 \; -6.532 \; -6.112 \; -5.668
\; -5.2 \; -4.708 \; -4.192 \; -3.652 \; -3.088 \; -2.5 \; -1.888 \;
-1.252 \; -0.592002 \; 0.0920016 \; 0.8 \; 1.532 \; 2.288 \; 3.068
\; 3.872 \; 4.7 \; 5.552 \; 6.428 \; 7.328 \; 8.252 \; 9.2 \; 10.172
\; 11.168 \; 12.188 \; 13.232 \; 14.3 \; 15.392 \; 16.508 \; 17.648
\; 18.812 \; 21.212 \; \;;
#X scalar y-plot 139 55 1 \; 20 \; 18.812 \; 17.648 \; 16.508 \; 15.392
\; 14.3 \; 13.232 \; 12.188 \; 11.168 \; 10.172 \; 9.2 \; 8.252 \;
7.328 \; 6.428 \; 5.552 \; 4.7 \; 3.872 \; 3.068 \; 2.288 \; 1.532
\; 0.8 \; 0.0920016 \; -0.592 \; -1.252 \; -1.888 \; -2.5 \; -3.088
\; -3.652 \; -4.192 \; -4.708 \; -5.2 \; -5.668 \; -6.112 \; -6.532
\; -6.928 \; -7.3 \; -7.648 \; -7.972 \; -8.272 \; -8.548 \; -8.8 \;
-9.028 \; -9.232 \; -9.412 \; -9.568 \; -9.7 \; -9.808 \; -9.892 \;
-9.952 \; -9.988 \; -10 \; -9.988 \; -9.952 \; -9.892 \; -9.808 \;
-9.7 \; -9.568 \; -9.412 \; -9.232 \; -9.028 \; -8.8 \; -8.548 \; -8.272
\; -7.972 \; -7.648 \; -7.3 \; -6.928 \; -6.532 \; -6.112 \; -5.668
\; -5.2 \; -4.708 \; -4.192 \; -3.652 \; -3.088 \; -2.5 \; -1.888 \;
-1.252 \; -0.592002 \; 0.0920016 \; 0.8 \; 1.532 \; 2.288 \; 3.068
\; 3.872 \; 4.7 \; 5.552 \; 6.428 \; 7.328 \; 8.252 \; 9.2 \; 10.172
\; 11.168 \; 12.188 \; 13.232 \; 14.3 \; 15.392 \; 16.508 \; 17.648
\; 18.812 \; 21.212 \; \;;
#X scalar y-plot 269 126 1 \; 20 \; 18.812 \; 17.648 \; 16.508 \; 15.392
\; 14.3 \; 13.232 \; 12.188 \; 11.168 \; 10.172 \; 9.2 \; 8.252 \;
7.328 \; 6.428 \; 5.552 \; 4.7 \; 3.872 \; 3.068 \; 2.288 \; 1.532
\; 0.8 \; 0.0920016 \; -0.592 \; -1.252 \; -1.888 \; -2.5 \; -3.088
\; -3.652 \; -4.192 \; -4.708 \; -5.2 \; -5.668 \; -6.112 \; -6.532
\; -6.928 \; -7.3 \; -7.648 \; -7.972 \; -8.272 \; -8.548 \; -8.8 \;
-9.028 \; -9.232 \; -9.412 \; -9.568 \; -9.7 \; -9.808 \; -9.892 \;
-9.952 \; -9.988 \; -10 \; -9.988 \; -9.952 \; -9.892 \; -9.808 \;
-9.7 \; -9.568 \; -9.412 \; -9.232 \; -9.028 \; -8.8 \; -8.548 \; -8.272
\; -7.972 \; -7.648 \; -7.3 \; -6.928 \; -6.532 \; -6.112 \; -5.668
\; -5.2 \; -4.708 \; -4.192 \; -3.652 \; -3.088 \; -2.5 \; -1.888 \;
-1.252 \; -0.592002 \; 0.0920016 \; 0.8 \; 1.532 \; 2.288 \; 3.068
\; 3.872 \; 4.7 \; 5.552 \; 6.428 \; 7.328 \; 8.252 \; 9.2 \; 10.172
\; 11.168 \; 12.188 \; 13.232 \; 14.3 \; 15.392 \; 16.508 \; 17.648
\; 18.812 \; 21.212 \; \;;
#X scalar rect 138 53 2 4 \;;
#X scalar rect 338 53 2 4 \;;
#X text 30 148 comment;
#X coords 0 288 1 287 0 0 0;
#X restore 54 89 pd z;
#N canvas 249 -27 982 588 make-fig 1;
#X msg 41 25 \; start pd-z \;;
#X msg 130 19 \; pd-z clear \; start pd-z;
#X msg 371 25 \; add-haxis 50 100 350 347 \; add-vaxis 75 60 80 77
;
#X obj 63 86 r plot-segment;
#X obj 94 185 *;
#X obj 95 210 +;
#X obj 132 183 -;
#X obj 63 110 t l l l l;
#X obj 46 230 pack;
#X msg 46 261 \; y-plot-point \$1 \$2 \;;
#X obj 94 232 * 30;
#X msg 179 178 \; add-y-plot \$1 \$2 100 1 \;;
#X msg 129 161 \$4 \$3;
#X msg 137 213 \$3;
#X obj 178 127 unpack;
#X obj 227 129 + 75;
#X obj 179 149 pack;
#X msg 648 84 \; plot-segment 31 0 0.4 0.1 \;;
#X msg 648 154 \; plot-segment 41 60 0.8 0.4 \;;
#X msg 648 119 \; plot-segment 31 30 -0.2 -0.5 \;;
#X msg 359 452 \; add-rect 174 98 2 4 \;;
#X msg 359 487 \; add-rect 274 98 2 4 \;;
#X msg 649 201 \; plot-segment 31 100 0.4 0.1 \;;
#X msg 649 236 \; plot-segment 31 130 -0.2 -0.5 \;;
#X msg 649 271 \; plot-segment 41 160 0.8 0.4 \;;
#X msg 647 352 \; plot-segment 31 230 -0.2 -0.5 \;;
#X msg 647 387 \; plot-segment 41 260 0.8 0.4 \;;
#X msg 647 316 \; plot-segment 31 200 0.4 0.1 \;;
#X msg 357 531 \; add-rect 374 98 2 4 \;;
#X msg 599 22 \; add-haxis 50 100 350 347 \; add-vaxis 75 70 60 57
;
#X obj 52 347 t l l l l;
#X obj 32 505 pack;
#X msg 32 536 \; y-plot-point \$1 \$2 \;;
#X obj 81 514 * 30;
#X msg 149 369 \; add-y-plot \$1 \$2 100 1 \;;
#X obj 148 322 unpack;
#X obj 197 324 + 75;
#X obj 149 344 pack;
#X obj 52 323 r plot-para;
#X text 51 303 npts \, xloc \, phase \, amp;
#X text 66 70 npts \, xloc \, y1 \, y2;
#X obj 43 140 scanner 0 1;
#X obj 28 407 scanner 1 1;
#X obj 28 376 t f f;
#X obj 68 376 / 100;
#X msg 143 413 \$3;
#X obj 81 494 *;
#X msg 129 497 \$4;
#X obj 80 451 +;
#X msg 627 451 \; plot-para 31 0 0.7 5 \;;
#X obj 80 472 expr -0.5*($f1-0.5)*($f1-0.5) + 1./24.;
#X msg 627 486 \; plot-para 71 30 0 5 \;;
#X msg 373 104 \; plot-para 101 0 0 -8 \;;
#X msg 372 136 \; plot-para 101 100 0 -8 \;;
#X msg 368 173 \; plot-para 101 200 0 -8 \;;
#X connect 3 0 7 0;
#X connect 4 0 5 0;
#X connect 5 0 10 0;
#X connect 6 0 4 1;
#X connect 7 0 41 0;
#X connect 7 1 13 0;
#X connect 7 2 12 0;
#X connect 7 3 14 0;
#X connect 8 0 9 0;
#X connect 10 0 8 1;
#X connect 12 0 6 0;
#X connect 13 0 5 1;
#X connect 14 0 16 0;
#X connect 14 1 15 0;
#X connect 15 0 16 1;
#X connect 16 0 11 0;
#X connect 30 0 43 0;
#X connect 30 1 47 0;
#X connect 30 2 45 0;
#X connect 30 3 35 0;
#X connect 31 0 32 0;
#X connect 33 0 31 1;
#X connect 35 0 37 0;
#X connect 35 1 36 0;
#X connect 36 0 37 1;
#X connect 37 0 34 0;
#X connect 38 0 30 0;
#X connect 41 0 8 0;
#X connect 41 1 4 0;
#X connect 42 0 31 0;
#X connect 42 1 48 0;
#X connect 43 0 42 0;
#X connect 43 1 44 0;
#X connect 44 0 42 1;
#X connect 45 0 48 1;
#X connect 46 0 33 0;
#X connect 47 0 46 1;
#X connect 48 0 50 0;
#X connect 50 0 46 0;
#X restore 170 83 pd make-fig;
