#N struct haxis float x float y float w float w-3;
#N struct vaxis float x float y float h float h-3;
#N struct y-plot float x float y float w array z y-point;
#N struct y-point float y;
#N struct rect float x float y float w float h;
#N struct xy-curve float x float y float w array z xy-point;
#N struct xy-point float x float y;
#N struct seg float x float y float dx float dy float w;
#N struct l-curve-arrow float x float y float z float z2 float z3 float
h;
#N struct circle2 float x float y float h float h2 float mh float mh2
;
#N struct xy-plot float x float y float w array z xy-point;
#N struct d-curve-arrow float x float y float z float z2 float z3 float
h;
#N struct circle float x float y float color float h float h2;
#N struct u-curve-arrow float x float y float z float z2 float z3 float
h;
#N struct r-curve-arrow float x float y float z float z2 float z3 float
h;
#N struct r-arrow float x float y float z;
#N struct l-arrow float x float y float z;
#N struct u-arrow float x float y float z;
#N struct d-arrow float x float y float z;
#N struct v-seg float x float y float z float w;
#N struct h-seg float x float y float z float w;
#N struct frame float x float y float w float h;
#N struct thickcircle float x float y float color float h float h2
;
#N struct times float x float y;
#N struct plus float x float y;
#N struct minus float x float y;
#N struct divide float x float y;
#N canvas 34 349 329 179 10;
#N canvas 171 -14 394 261 fig 1;
#X text 19 28 (a);
#X text 20 114 (b);
#X text 20 188 (c);
#X scalar haxis 28 51 350 347 \;;
#X scalar vaxis 53 21 60 57 \;;
#X scalar y-plot 53 51 1 \; 3.9 \; 3.51639 \; 3.13279 \; 2.74918 \;
2.36557 \; 1.98197 \; 1.59836 \; 1.21475 \; 0.831148 \; 0.447541 \;
0.0639345 \; -0.319672 \; -0.703279 \; -1.08689 \; -1.47049 \; -1.8541
\; -2.2377 \; -2.62131 \; -3.00492 \; -3.38852 \; -3.77213 \; -4.15574
\; -4.53934 \; -4.92295 \; -5.30656 \; -5.69016 \; -6.07377 \; -6.45738
\; -6.84098 \; -7.22459 \; -7.6082 \; -7.9918 \; -8.37541 \; -8.75902
\; -9.14262 \; -9.52623 \; -9.90984 \; -10.2934 \; -10.677 \; -11.0607
\; -11.4443 \; -11.8279 \; -12.2115 \; -12.5951 \; -12.9787 \; -13.3623
\; -13.7459 \; -14.1295 \; -14.5131 \; -14.8967 \; -15.2803 \; -15.6639
\; -16.0475 \; -16.4311 \; -16.8148 \; -17.1984 \; -17.582 \; -17.9656
\; -18.3492 \; -18.7328 \; -19.5 \; \;;
#X scalar y-plot 113 51 1 \; 19.5 \; 19.1195 \; 18.739 \; 18.3585 \;
17.978 \; 17.5976 \; 17.2171 \; 16.8366 \; 16.4561 \; 16.0756 \; 15.6951
\; 15.3146 \; 14.9341 \; 14.5537 \; 14.1732 \; 13.7927 \; 13.4122 \;
13.0317 \; 12.6512 \; 12.2707 \; 11.8902 \; 11.5098 \; 11.1293 \; 10.7488
\; 10.3683 \; 9.9878 \; 9.60732 \; 9.22683 \; 8.84634 \; 8.46585 \;
8.08537 \; 7.70488 \; 7.32439 \; 6.9439 \; 6.56341 \; 6.18293 \; 5.80244
\; 5.42195 \; 5.04146 \; 4.66098 \; 3.9 \; \;;
#X scalar y-plot 153 51 1 \; 3.9 \; 3.51639 \; 3.13279 \; 2.74918 \;
2.36557 \; 1.98197 \; 1.59836 \; 1.21475 \; 0.831148 \; 0.447541 \;
0.0639345 \; -0.319672 \; -0.703279 \; -1.08689 \; -1.47049 \; -1.8541
\; -2.2377 \; -2.62131 \; -3.00492 \; -3.38852 \; -3.77213 \; -4.15574
\; -4.53934 \; -4.92295 \; -5.30656 \; -5.69016 \; -6.07377 \; -6.45738
\; -6.84098 \; -7.22459 \; -7.6082 \; -7.9918 \; -8.37541 \; -8.75902
\; -9.14262 \; -9.52623 \; -9.90984 \; -10.2934 \; -10.677 \; -11.0607
\; -11.4443 \; -11.8279 \; -12.2115 \; -12.5951 \; -12.9787 \; -13.3623
\; -13.7459 \; -14.1295 \; -14.5131 \; -14.8967 \; -15.2803 \; -15.6639
\; -16.0475 \; -16.4311 \; -16.8148 \; -17.1984 \; -17.582 \; -17.9656
\; -18.3492 \; -18.7328 \; -19.5 \; \;;
#X scalar y-plot 213 51 1 \; 19.5 \; 19.1195 \; 18.739 \; 18.3585 \;
17.978 \; 17.5976 \; 17.2171 \; 16.8366 \; 16.4561 \; 16.0756 \; 15.6951
\; 15.3146 \; 14.9341 \; 14.5537 \; 14.1732 \; 13.7927 \; 13.4122 \;
13.0317 \; 12.6512 \; 12.2707 \; 11.8902 \; 11.5098 \; 11.1293 \; 10.7488
\; 10.3683 \; 9.9878 \; 9.60732 \; 9.22683 \; 8.84634 \; 8.46585 \;
8.08537 \; 7.70488 \; 7.32439 \; 6.9439 \; 6.56341 \; 6.18293 \; 5.80244
\; 5.42195 \; 5.04146 \; 4.66098 \; 3.9 \; \;;
#X scalar y-plot 253 51 1 \; 3.9 \; 3.51639 \; 3.13279 \; 2.74918 \;
2.36557 \; 1.98197 \; 1.59836 \; 1.21475 \; 0.831148 \; 0.447541 \;
0.0639345 \; -0.319672 \; -0.703279 \; -1.08689 \; -1.47049 \; -1.8541
\; -2.2377 \; -2.62131 \; -3.00492 \; -3.38852 \; -3.77213 \; -4.15574
\; -4.53934 \; -4.92295 \; -5.30656 \; -5.69016 \; -6.07377 \; -6.45738
\; -6.84098 \; -7.22459 \; -7.6082 \; -7.9918 \; -8.37541 \; -8.75902
\; -9.14262 \; -9.52623 \; -9.90984 \; -10.2934 \; -10.677 \; -11.0607
\; -11.4443 \; -11.8279 \; -12.2115 \; -12.5951 \; -12.9787 \; -13.3623
\; -13.7459 \; -14.1295 \; -14.5131 \; -14.8967 \; -15.2803 \; -15.6639
\; -16.0475 \; -16.4311 \; -16.8148 \; -17.1984 \; -17.582 \; -17.9656
\; -18.3492 \; -18.7328 \; -19.5 \; \;;
#X scalar y-plot 313 51 1 \; 19.5 \; 19.1195 \; 18.739 \; 18.3585 \;
17.978 \; 17.5976 \; 17.2171 \; 16.8366 \; 16.4561 \; 16.0756 \; 15.6951
\; 15.3146 \; 14.9341 \; 14.5537 \; 14.1732 \; 13.7927 \; 13.4122 \;
13.0317 \; 12.6512 \; 12.2707 \; 11.8902 \; 11.5098 \; 11.1293 \; 10.7488
\; 10.3683 \; 9.9878 \; 9.60732 \; 9.22683 \; 8.84634 \; 8.46585 \;
8.08537 \; 7.70488 \; 7.32439 \; 6.9439 \; 6.56341 \; 6.18293 \; 5.80244
\; 5.42195 \; 5.04146 \; 4.66098 \; 3.9 \; \;;
#X scalar rect 152 49 2 4 \;;
#X scalar rect 252 49 2 4 \;;
#X scalar rect 352 49 2 4 \;;
#X scalar haxis 28 198 350 347 \;;
#X scalar vaxis 53 158 80 77 \;;
#X scalar y-plot 53 198 1 \; 12 \; 11.7097 \; 11.4194 \; 11.129 \;
10.8387 \; 10.5484 \; 10.2581 \; 9.96774 \; 9.67742 \; 9.3871 \; 9.09677
\; 8.80645 \; 8.51613 \; 8.22581 \; 7.93548 \; 7.64516 \; 7.35484 \;
7.06452 \; 6.77419 \; 6.48387 \; 6.19355 \; 5.90323 \; 5.6129 \; 5.32258
\; 5.03226 \; 4.74194 \; 4.45161 \; 4.16129 \; 3.87097 \; 3.58065 \;
3 \; \;;
#X scalar y-plot 83 198 1 \; -6 \; -6.29032 \; -6.58065 \; -6.87097
\; -7.16129 \; -7.45161 \; -7.74194 \; -8.03226 \; -8.32258 \; -8.6129
\; -8.90323 \; -9.19355 \; -9.48387 \; -9.77419 \; -10.0645 \; -10.3548
\; -10.6452 \; -10.9355 \; -11.2258 \; -11.5161 \; -11.8065 \; -12.0968
\; -12.3871 \; -12.6774 \; -12.9677 \; -13.2581 \; -13.5484 \; -13.8387
\; -14.129 \; -14.4194 \; -15 \; \;;
#X scalar y-plot 113 198 1 \; 24 \; 23.7073 \; 23.4146 \; 23.122 \;
22.8293 \; 22.5366 \; 22.2439 \; 21.9512 \; 21.6585 \; 21.3659 \; 21.0732
\; 20.7805 \; 20.4878 \; 20.1951 \; 19.9024 \; 19.6098 \; 19.3171 \;
19.0244 \; 18.7317 \; 18.439 \; 18.1463 \; 17.8537 \; 17.561 \; 17.2683
\; 16.9756 \; 16.6829 \; 16.3902 \; 16.0976 \; 15.8049 \; 15.5122 \;
15.2195 \; 14.9268 \; 14.6341 \; 14.3415 \; 14.0488 \; 13.7561 \; 13.4634
\; 13.1707 \; 12.878 \; 12.5854 \; 12 \; \;;
#X scalar y-plot 153 198 1 \; 12 \; 11.7097 \; 11.4194 \; 11.129 \;
10.8387 \; 10.5484 \; 10.2581 \; 9.96774 \; 9.67742 \; 9.3871 \; 9.09677
\; 8.80645 \; 8.51613 \; 8.22581 \; 7.93548 \; 7.64516 \; 7.35484 \;
7.06452 \; 6.77419 \; 6.48387 \; 6.19355 \; 5.90323 \; 5.6129 \; 5.32258
\; 5.03226 \; 4.74194 \; 4.45161 \; 4.16129 \; 3.87097 \; 3.58065 \;
3 \; \;;
#X scalar y-plot 183 198 1 \; -6 \; -6.29032 \; -6.58065 \; -6.87097
\; -7.16129 \; -7.45161 \; -7.74194 \; -8.03226 \; -8.32258 \; -8.6129
\; -8.90323 \; -9.19355 \; -9.48387 \; -9.77419 \; -10.0645 \; -10.3548
\; -10.6452 \; -10.9355 \; -11.2258 \; -11.5161 \; -11.8065 \; -12.0968
\; -12.3871 \; -12.6774 \; -12.9677 \; -13.2581 \; -13.5484 \; -13.8387
\; -14.129 \; -14.4194 \; -15 \; \;;
#X scalar y-plot 213 198 1 \; 24 \; 23.7073 \; 23.4146 \; 23.122 \;
22.8293 \; 22.5366 \; 22.2439 \; 21.9512 \; 21.6585 \; 21.3659 \; 21.0732
\; 20.7805 \; 20.4878 \; 20.1951 \; 19.9024 \; 19.6098 \; 19.3171 \;
19.0244 \; 18.7317 \; 18.439 \; 18.1463 \; 17.8537 \; 17.561 \; 17.2683
\; 16.9756 \; 16.6829 \; 16.3902 \; 16.0976 \; 15.8049 \; 15.5122 \;
15.2195 \; 14.9268 \; 14.6341 \; 14.3415 \; 14.0488 \; 13.7561 \; 13.4634
\; 13.1707 \; 12.878 \; 12.5854 \; 12 \; \;;
#X scalar y-plot 253 198 1 \; 12 \; 11.7097 \; 11.4194 \; 11.129 \;
10.8387 \; 10.5484 \; 10.2581 \; 9.96774 \; 9.67742 \; 9.3871 \; 9.09677
\; 8.80645 \; 8.51613 \; 8.22581 \; 7.93548 \; 7.64516 \; 7.35484 \;
7.06452 \; 6.77419 \; 6.48387 \; 6.19355 \; 5.90323 \; 5.6129 \; 5.32258
\; 5.03226 \; 4.74194 \; 4.45161 \; 4.16129 \; 3.87097 \; 3.58065 \;
3 \; \;;
#X scalar y-plot 283 198 1 \; -6 \; -6.29032 \; -6.58065 \; -6.87097
\; -7.16129 \; -7.45161 \; -7.74194 \; -8.03226 \; -8.32258 \; -8.6129
\; -8.90323 \; -9.19355 \; -9.48387 \; -9.77419 \; -10.0645 \; -10.3548
\; -10.6452 \; -10.9355 \; -11.2258 \; -11.5161 \; -11.8065 \; -12.0968
\; -12.3871 \; -12.6774 \; -12.9677 \; -13.2581 \; -13.5484 \; -13.8387
\; -14.129 \; -14.4194 \; -15 \; \;;
#X scalar y-plot 313 198 1 \; 24 \; 23.7073 \; 23.4146 \; 23.122 \;
22.8293 \; 22.5366 \; 22.2439 \; 21.9512 \; 21.6585 \; 21.3659 \; 21.0732
\; 20.7805 \; 20.4878 \; 20.1951 \; 19.9024 \; 19.6098 \; 19.3171 \;
19.0244 \; 18.7317 \; 18.439 \; 18.1463 \; 17.8537 \; 17.561 \; 17.2683
\; 16.9756 \; 16.6829 \; 16.3902 \; 16.0976 \; 15.8049 \; 15.5122 \;
15.2195 \; 14.9268 \; 14.6341 \; 14.3415 \; 14.0488 \; 13.7561 \; 13.4634
\; 13.1707 \; 12.878 \; 12.5854 \; 12 \; \;;
#X scalar rect 152 196 2 4 \;;
#X scalar rect 252 196 2 4 \;;
#X scalar rect 352 196 2 4 \;;
#X scalar haxis 28 119 350 347 \;;
#X scalar vaxis 53 89 60 57 \;;
#X scalar y-plot 53 119 1 \; 1.2 \; 1.30645 \; 1.4129 \; 1.51935 \;
1.62581 \; 1.73226 \; 1.83871 \; 1.94516 \; 2.05161 \; 2.15806 \; 2.26452
\; 2.37097 \; 2.47742 \; 2.58387 \; 2.69032 \; 2.79677 \; 2.90323 \;
3.00968 \; 3.11613 \; 3.22258 \; 3.32903 \; 3.43548 \; 3.54194 \; 3.64839
\; 3.75484 \; 3.86129 \; 3.96774 \; 4.07419 \; 4.18064 \; 4.2871 \;
4.5 \; \;;
#X scalar y-plot 83 119 1 \; -4.5 \; -4.41972 \; -4.33944 \; -4.25916
\; -4.17887 \; -4.09859 \; -4.01831 \; -3.93803 \; -3.85775 \; -3.77746
\; -3.69718 \; -3.6169 \; -3.53662 \; -3.45634 \; -3.37606 \; -3.29577
\; -3.21549 \; -3.13521 \; -3.05493 \; -2.97465 \; -2.89437 \; -2.81408
\; -2.7338 \; -2.65352 \; -2.57324 \; -2.49296 \; -2.41268 \; -2.33239
\; -2.25211 \; -2.17183 \; -2.09155 \; -2.01127 \; -1.93099 \; -1.8507
\; -1.77042 \; -1.69014 \; -1.60986 \; -1.52958 \; -1.4493 \; -1.36901
\; -1.28873 \; -1.20845 \; -1.12817 \; -1.04789 \; -0.967606 \; -0.887324
\; -0.807042 \; -0.726761 \; -0.646479 \; -0.566197 \; -0.485916 \;
-0.405634 \; -0.325352 \; -0.245071 \; -0.164789 \; -0.0845075 \; -0.00422537
\; 0.0760563 \; 0.156337 \; 0.23662 \; 0.316901 \; 0.397183 \; 0.477464
\; 0.557746 \; 0.638028 \; 0.718309 \; 0.798591 \; 0.878873 \; 0.959155
\; 1.03944 \; 1.2 \; \;;
#X scalar y-plot 153 119 1 \; 1.2 \; 1.30645 \; 1.4129 \; 1.51935 \;
1.62581 \; 1.73226 \; 1.83871 \; 1.94516 \; 2.05161 \; 2.15806 \; 2.26452
\; 2.37097 \; 2.47742 \; 2.58387 \; 2.69032 \; 2.79677 \; 2.90323 \;
3.00968 \; 3.11613 \; 3.22258 \; 3.32903 \; 3.43548 \; 3.54194 \; 3.64839
\; 3.75484 \; 3.86129 \; 3.96774 \; 4.07419 \; 4.18064 \; 4.2871 \;
4.5 \; \;;
#X scalar y-plot 183 119 1 \; -4.5 \; -4.41972 \; -4.33944 \; -4.25916
\; -4.17887 \; -4.09859 \; -4.01831 \; -3.93803 \; -3.85775 \; -3.77746
\; -3.69718 \; -3.6169 \; -3.53662 \; -3.45634 \; -3.37606 \; -3.29577
\; -3.21549 \; -3.13521 \; -3.05493 \; -2.97465 \; -2.89437 \; -2.81408
\; -2.7338 \; -2.65352 \; -2.57324 \; -2.49296 \; -2.41268 \; -2.33239
\; -2.25211 \; -2.17183 \; -2.09155 \; -2.01127 \; -1.93099 \; -1.8507
\; -1.77042 \; -1.69014 \; -1.60986 \; -1.52958 \; -1.4493 \; -1.36901
\; -1.28873 \; -1.20845 \; -1.12817 \; -1.04789 \; -0.967606 \; -0.887324
\; -0.807042 \; -0.726761 \; -0.646479 \; -0.566197 \; -0.485916 \;
-0.405634 \; -0.325352 \; -0.245071 \; -0.164789 \; -0.0845075 \; -0.00422537
\; 0.0760563 \; 0.156337 \; 0.23662 \; 0.316901 \; 0.397183 \; 0.477464
\; 0.557746 \; 0.638028 \; 0.718309 \; 0.798591 \; 0.878873 \; 0.959155
\; 1.03944 \; 1.2 \; \;;
#X scalar y-plot 253 119 1 \; 1.2 \; 1.30645 \; 1.4129 \; 1.51935 \;
1.62581 \; 1.73226 \; 1.83871 \; 1.94516 \; 2.05161 \; 2.15806 \; 2.26452
\; 2.37097 \; 2.47742 \; 2.58387 \; 2.69032 \; 2.79677 \; 2.90323 \;
3.00968 \; 3.11613 \; 3.22258 \; 3.32903 \; 3.43548 \; 3.54194 \; 3.64839
\; 3.75484 \; 3.86129 \; 3.96774 \; 4.07419 \; 4.18064 \; 4.2871 \;
4.5 \; \;;
#X scalar y-plot 283 119 1 \; -4.5 \; -4.41972 \; -4.33944 \; -4.25916
\; -4.17887 \; -4.09859 \; -4.01831 \; -3.93803 \; -3.85775 \; -3.77746
\; -3.69718 \; -3.6169 \; -3.53662 \; -3.45634 \; -3.37606 \; -3.29577
\; -3.21549 \; -3.13521 \; -3.05493 \; -2.97465 \; -2.89437 \; -2.81408
\; -2.7338 \; -2.65352 \; -2.57324 \; -2.49296 \; -2.41268 \; -2.33239
\; -2.25211 \; -2.17183 \; -2.09155 \; -2.01127 \; -1.93099 \; -1.8507
\; -1.77042 \; -1.69014 \; -1.60986 \; -1.52958 \; -1.4493 \; -1.36901
\; -1.28873 \; -1.20845 \; -1.12817 \; -1.04789 \; -0.967606 \; -0.887324
\; -0.807042 \; -0.726761 \; -0.646479 \; -0.566197 \; -0.485916 \;
-0.405634 \; -0.325352 \; -0.245071 \; -0.164789 \; -0.0845075 \; -0.00422537
\; 0.0760563 \; 0.156337 \; 0.23662 \; 0.316901 \; 0.397183 \; 0.477464
\; 0.557746 \; 0.638028 \; 0.718309 \; 0.798591 \; 0.878873 \; 0.959155
\; 1.03944 \; 1.2 \; \;;
#X scalar rect 152 117 2 4 \;;
#X scalar rect 252 117 2 4 \;;
#X scalar rect 352 117 2 4 \;;
#X text 149 71 N;
#X text 79 71 1;
#X text 121 70 2;
#X scalar rect 82 196 2 4 \;;
#X scalar rect 112 196 2 4 \;;
#X text 72 63 L;
#X text 114 62 L;
#X coords 0 261 1 260 0 0 0;
#X restore 51 61 pd fig;
#X obj 170 42 templates;
#N canvas 28 91 464 288 z 0;
#X scalar haxis 44 88 350 347 \;;
#X scalar vaxis 69 58 60 57 \;;
#X scalar y-plot 69 88 1 \; 3.9 \; 3.51639 \; 3.13279 \; 2.74918 \;
2.36557 \; 1.98197 \; 1.59836 \; 1.21475 \; 0.831148 \; 0.447541 \;
0.0639345 \; -0.319672 \; -0.703279 \; -1.08689 \; -1.47049 \; -1.8541
\; -2.2377 \; -2.62131 \; -3.00492 \; -3.38852 \; -3.77213 \; -4.15574
\; -4.53934 \; -4.92295 \; -5.30656 \; -5.69016 \; -6.07377 \; -6.45738
\; -6.84098 \; -7.22459 \; -7.6082 \; -7.9918 \; -8.37541 \; -8.75902
\; -9.14262 \; -9.52623 \; -9.90984 \; -10.2934 \; -10.677 \; -11.0607
\; -11.4443 \; -11.8279 \; -12.2115 \; -12.5951 \; -12.9787 \; -13.3623
\; -13.7459 \; -14.1295 \; -14.5131 \; -14.8967 \; -15.2803 \; -15.6639
\; -16.0475 \; -16.4311 \; -16.8148 \; -17.1984 \; -17.582 \; -17.9656
\; -18.3492 \; -18.7328 \; -19.5 \; \;;
#X scalar y-plot 129 88 1 \; 19.5 \; 19.1195 \; 18.739 \; 18.3585 \;
17.978 \; 17.5976 \; 17.2171 \; 16.8366 \; 16.4561 \; 16.0756 \; 15.6951
\; 15.3146 \; 14.9341 \; 14.5537 \; 14.1732 \; 13.7927 \; 13.4122 \;
13.0317 \; 12.6512 \; 12.2707 \; 11.8902 \; 11.5098 \; 11.1293 \; 10.7488
\; 10.3683 \; 9.9878 \; 9.60732 \; 9.22683 \; 8.84634 \; 8.46585 \;
8.08537 \; 7.70488 \; 7.32439 \; 6.9439 \; 6.56341 \; 6.18293 \; 5.80244
\; 5.42195 \; 5.04146 \; 4.66098 \; 3.9 \; \;;
#X scalar y-plot 169 88 1 \; 3.9 \; 3.51639 \; 3.13279 \; 2.74918 \;
2.36557 \; 1.98197 \; 1.59836 \; 1.21475 \; 0.831148 \; 0.447541 \;
0.0639345 \; -0.319672 \; -0.703279 \; -1.08689 \; -1.47049 \; -1.8541
\; -2.2377 \; -2.62131 \; -3.00492 \; -3.38852 \; -3.77213 \; -4.15574
\; -4.53934 \; -4.92295 \; -5.30656 \; -5.69016 \; -6.07377 \; -6.45738
\; -6.84098 \; -7.22459 \; -7.6082 \; -7.9918 \; -8.37541 \; -8.75902
\; -9.14262 \; -9.52623 \; -9.90984 \; -10.2934 \; -10.677 \; -11.0607
\; -11.4443 \; -11.8279 \; -12.2115 \; -12.5951 \; -12.9787 \; -13.3623
\; -13.7459 \; -14.1295 \; -14.5131 \; -14.8967 \; -15.2803 \; -15.6639
\; -16.0475 \; -16.4311 \; -16.8148 \; -17.1984 \; -17.582 \; -17.9656
\; -18.3492 \; -18.7328 \; -19.5 \; \;;
#X scalar y-plot 229 88 1 \; 19.5 \; 19.1195 \; 18.739 \; 18.3585 \;
17.978 \; 17.5976 \; 17.2171 \; 16.8366 \; 16.4561 \; 16.0756 \; 15.6951
\; 15.3146 \; 14.9341 \; 14.5537 \; 14.1732 \; 13.7927 \; 13.4122 \;
13.0317 \; 12.6512 \; 12.2707 \; 11.8902 \; 11.5098 \; 11.1293 \; 10.7488
\; 10.3683 \; 9.9878 \; 9.60732 \; 9.22683 \; 8.84634 \; 8.46585 \;
8.08537 \; 7.70488 \; 7.32439 \; 6.9439 \; 6.56341 \; 6.18293 \; 5.80244
\; 5.42195 \; 5.04146 \; 4.66098 \; 3.9 \; \;;
#X scalar y-plot 269 88 1 \; 3.9 \; 3.51639 \; 3.13279 \; 2.74918 \;
2.36557 \; 1.98197 \; 1.59836 \; 1.21475 \; 0.831148 \; 0.447541 \;
0.0639345 \; -0.319672 \; -0.703279 \; -1.08689 \; -1.47049 \; -1.8541
\; -2.2377 \; -2.62131 \; -3.00492 \; -3.38852 \; -3.77213 \; -4.15574
\; -4.53934 \; -4.92295 \; -5.30656 \; -5.69016 \; -6.07377 \; -6.45738
\; -6.84098 \; -7.22459 \; -7.6082 \; -7.9918 \; -8.37541 \; -8.75902
\; -9.14262 \; -9.52623 \; -9.90984 \; -10.2934 \; -10.677 \; -11.0607
\; -11.4443 \; -11.8279 \; -12.2115 \; -12.5951 \; -12.9787 \; -13.3623
\; -13.7459 \; -14.1295 \; -14.5131 \; -14.8967 \; -15.2803 \; -15.6639
\; -16.0475 \; -16.4311 \; -16.8148 \; -17.1984 \; -17.582 \; -17.9656
\; -18.3492 \; -18.7328 \; -19.5 \; \;;
#X scalar y-plot 329 88 1 \; 19.5 \; 19.1195 \; 18.739 \; 18.3585 \;
17.978 \; 17.5976 \; 17.2171 \; 16.8366 \; 16.4561 \; 16.0756 \; 15.6951
\; 15.3146 \; 14.9341 \; 14.5537 \; 14.1732 \; 13.7927 \; 13.4122 \;
13.0317 \; 12.6512 \; 12.2707 \; 11.8902 \; 11.5098 \; 11.1293 \; 10.7488
\; 10.3683 \; 9.9878 \; 9.60732 \; 9.22683 \; 8.84634 \; 8.46585 \;
8.08537 \; 7.70488 \; 7.32439 \; 6.9439 \; 6.56341 \; 6.18293 \; 5.80244
\; 5.42195 \; 5.04146 \; 4.66098 \; 3.9 \; \;;
#X scalar rect 168 86 2 4 \;;
#X scalar rect 268 86 2 4 \;;
#X scalar rect 368 86 2 4 \;;
#X scalar haxis 43 229 350 347 \;;
#X scalar vaxis 68 189 80 77 \;;
#X scalar y-plot 68 229 1 \; 12 \; 11.7097 \; 11.4194 \; 11.129 \;
10.8387 \; 10.5484 \; 10.2581 \; 9.96774 \; 9.67742 \; 9.3871 \; 9.09677
\; 8.80645 \; 8.51613 \; 8.22581 \; 7.93548 \; 7.64516 \; 7.35484 \;
7.06452 \; 6.77419 \; 6.48387 \; 6.19355 \; 5.90323 \; 5.6129 \; 5.32258
\; 5.03226 \; 4.74194 \; 4.45161 \; 4.16129 \; 3.87097 \; 3.58065 \;
3 \; \;;
#X scalar y-plot 98 229 1 \; -6 \; -6.29032 \; -6.58065 \; -6.87097
\; -7.16129 \; -7.45161 \; -7.74194 \; -8.03226 \; -8.32258 \; -8.6129
\; -8.90323 \; -9.19355 \; -9.48387 \; -9.77419 \; -10.0645 \; -10.3548
\; -10.6452 \; -10.9355 \; -11.2258 \; -11.5161 \; -11.8065 \; -12.0968
\; -12.3871 \; -12.6774 \; -12.9677 \; -13.2581 \; -13.5484 \; -13.8387
\; -14.129 \; -14.4194 \; -15 \; \;;
#X scalar y-plot 128 229 1 \; 24 \; 23.7073 \; 23.4146 \; 23.122 \;
22.8293 \; 22.5366 \; 22.2439 \; 21.9512 \; 21.6585 \; 21.3659 \; 21.0732
\; 20.7805 \; 20.4878 \; 20.1951 \; 19.9024 \; 19.6098 \; 19.3171 \;
19.0244 \; 18.7317 \; 18.439 \; 18.1463 \; 17.8537 \; 17.561 \; 17.2683
\; 16.9756 \; 16.6829 \; 16.3902 \; 16.0976 \; 15.8049 \; 15.5122 \;
15.2195 \; 14.9268 \; 14.6341 \; 14.3415 \; 14.0488 \; 13.7561 \; 13.4634
\; 13.1707 \; 12.878 \; 12.5854 \; 12 \; \;;
#X scalar y-plot 168 229 1 \; 12 \; 11.7097 \; 11.4194 \; 11.129 \;
10.8387 \; 10.5484 \; 10.2581 \; 9.96774 \; 9.67742 \; 9.3871 \; 9.09677
\; 8.80645 \; 8.51613 \; 8.22581 \; 7.93548 \; 7.64516 \; 7.35484 \;
7.06452 \; 6.77419 \; 6.48387 \; 6.19355 \; 5.90323 \; 5.6129 \; 5.32258
\; 5.03226 \; 4.74194 \; 4.45161 \; 4.16129 \; 3.87097 \; 3.58065 \;
3 \; \;;
#X scalar y-plot 198 229 1 \; -6 \; -6.29032 \; -6.58065 \; -6.87097
\; -7.16129 \; -7.45161 \; -7.74194 \; -8.03226 \; -8.32258 \; -8.6129
\; -8.90323 \; -9.19355 \; -9.48387 \; -9.77419 \; -10.0645 \; -10.3548
\; -10.6452 \; -10.9355 \; -11.2258 \; -11.5161 \; -11.8065 \; -12.0968
\; -12.3871 \; -12.6774 \; -12.9677 \; -13.2581 \; -13.5484 \; -13.8387
\; -14.129 \; -14.4194 \; -15 \; \;;
#X scalar y-plot 228 229 1 \; 24 \; 23.7073 \; 23.4146 \; 23.122 \;
22.8293 \; 22.5366 \; 22.2439 \; 21.9512 \; 21.6585 \; 21.3659 \; 21.0732
\; 20.7805 \; 20.4878 \; 20.1951 \; 19.9024 \; 19.6098 \; 19.3171 \;
19.0244 \; 18.7317 \; 18.439 \; 18.1463 \; 17.8537 \; 17.561 \; 17.2683
\; 16.9756 \; 16.6829 \; 16.3902 \; 16.0976 \; 15.8049 \; 15.5122 \;
15.2195 \; 14.9268 \; 14.6341 \; 14.3415 \; 14.0488 \; 13.7561 \; 13.4634
\; 13.1707 \; 12.878 \; 12.5854 \; 12 \; \;;
#X scalar y-plot 268 229 1 \; 12 \; 11.7097 \; 11.4194 \; 11.129 \;
10.8387 \; 10.5484 \; 10.2581 \; 9.96774 \; 9.67742 \; 9.3871 \; 9.09677
\; 8.80645 \; 8.51613 \; 8.22581 \; 7.93548 \; 7.64516 \; 7.35484 \;
7.06452 \; 6.77419 \; 6.48387 \; 6.19355 \; 5.90323 \; 5.6129 \; 5.32258
\; 5.03226 \; 4.74194 \; 4.45161 \; 4.16129 \; 3.87097 \; 3.58065 \;
3 \; \;;
#X scalar y-plot 298 229 1 \; -6 \; -6.29032 \; -6.58065 \; -6.87097
\; -7.16129 \; -7.45161 \; -7.74194 \; -8.03226 \; -8.32258 \; -8.6129
\; -8.90323 \; -9.19355 \; -9.48387 \; -9.77419 \; -10.0645 \; -10.3548
\; -10.6452 \; -10.9355 \; -11.2258 \; -11.5161 \; -11.8065 \; -12.0968
\; -12.3871 \; -12.6774 \; -12.9677 \; -13.2581 \; -13.5484 \; -13.8387
\; -14.129 \; -14.4194 \; -15 \; \;;
#X scalar y-plot 328 229 1 \; 24 \; 23.7073 \; 23.4146 \; 23.122 \;
22.8293 \; 22.5366 \; 22.2439 \; 21.9512 \; 21.6585 \; 21.3659 \; 21.0732
\; 20.7805 \; 20.4878 \; 20.1951 \; 19.9024 \; 19.6098 \; 19.3171 \;
19.0244 \; 18.7317 \; 18.439 \; 18.1463 \; 17.8537 \; 17.561 \; 17.2683
\; 16.9756 \; 16.6829 \; 16.3902 \; 16.0976 \; 15.8049 \; 15.5122 \;
15.2195 \; 14.9268 \; 14.6341 \; 14.3415 \; 14.0488 \; 13.7561 \; 13.4634
\; 13.1707 \; 12.878 \; 12.5854 \; 12 \; \;;
#X scalar rect 167 227 2 4 \;;
#X scalar rect 267 227 2 4 \;;
#X scalar rect 367 227 2 4 \;;
#X scalar haxis 43 150 350 347 \;;
#X scalar vaxis 68 120 60 57 \;;
#X scalar y-plot 68 150 1 \; 1.2 \; 1.30645 \; 1.4129 \; 1.51935 \;
1.62581 \; 1.73226 \; 1.83871 \; 1.94516 \; 2.05161 \; 2.15806 \; 2.26452
\; 2.37097 \; 2.47742 \; 2.58387 \; 2.69032 \; 2.79677 \; 2.90323 \;
3.00968 \; 3.11613 \; 3.22258 \; 3.32903 \; 3.43548 \; 3.54194 \; 3.64839
\; 3.75484 \; 3.86129 \; 3.96774 \; 4.07419 \; 4.18064 \; 4.2871 \;
4.5 \; \;;
#X scalar y-plot 98 150 1 \; -4.5 \; -4.41972 \; -4.33944 \; -4.25916
\; -4.17887 \; -4.09859 \; -4.01831 \; -3.93803 \; -3.85775 \; -3.77746
\; -3.69718 \; -3.6169 \; -3.53662 \; -3.45634 \; -3.37606 \; -3.29577
\; -3.21549 \; -3.13521 \; -3.05493 \; -2.97465 \; -2.89437 \; -2.81408
\; -2.7338 \; -2.65352 \; -2.57324 \; -2.49296 \; -2.41268 \; -2.33239
\; -2.25211 \; -2.17183 \; -2.09155 \; -2.01127 \; -1.93099 \; -1.8507
\; -1.77042 \; -1.69014 \; -1.60986 \; -1.52958 \; -1.4493 \; -1.36901
\; -1.28873 \; -1.20845 \; -1.12817 \; -1.04789 \; -0.967606 \; -0.887324
\; -0.807042 \; -0.726761 \; -0.646479 \; -0.566197 \; -0.485916 \;
-0.405634 \; -0.325352 \; -0.245071 \; -0.164789 \; -0.0845075 \; -0.00422537
\; 0.0760563 \; 0.156337 \; 0.23662 \; 0.316901 \; 0.397183 \; 0.477464
\; 0.557746 \; 0.638028 \; 0.718309 \; 0.798591 \; 0.878873 \; 0.959155
\; 1.03944 \; 1.2 \; \;;
#X scalar y-plot 168 150 1 \; 1.2 \; 1.30645 \; 1.4129 \; 1.51935 \;
1.62581 \; 1.73226 \; 1.83871 \; 1.94516 \; 2.05161 \; 2.15806 \; 2.26452
\; 2.37097 \; 2.47742 \; 2.58387 \; 2.69032 \; 2.79677 \; 2.90323 \;
3.00968 \; 3.11613 \; 3.22258 \; 3.32903 \; 3.43548 \; 3.54194 \; 3.64839
\; 3.75484 \; 3.86129 \; 3.96774 \; 4.07419 \; 4.18064 \; 4.2871 \;
4.5 \; \;;
#X scalar y-plot 198 150 1 \; -4.5 \; -4.41972 \; -4.33944 \; -4.25916
\; -4.17887 \; -4.09859 \; -4.01831 \; -3.93803 \; -3.85775 \; -3.77746
\; -3.69718 \; -3.6169 \; -3.53662 \; -3.45634 \; -3.37606 \; -3.29577
\; -3.21549 \; -3.13521 \; -3.05493 \; -2.97465 \; -2.89437 \; -2.81408
\; -2.7338 \; -2.65352 \; -2.57324 \; -2.49296 \; -2.41268 \; -2.33239
\; -2.25211 \; -2.17183 \; -2.09155 \; -2.01127 \; -1.93099 \; -1.8507
\; -1.77042 \; -1.69014 \; -1.60986 \; -1.52958 \; -1.4493 \; -1.36901
\; -1.28873 \; -1.20845 \; -1.12817 \; -1.04789 \; -0.967606 \; -0.887324
\; -0.807042 \; -0.726761 \; -0.646479 \; -0.566197 \; -0.485916 \;
-0.405634 \; -0.325352 \; -0.245071 \; -0.164789 \; -0.0845075 \; -0.00422537
\; 0.0760563 \; 0.156337 \; 0.23662 \; 0.316901 \; 0.397183 \; 0.477464
\; 0.557746 \; 0.638028 \; 0.718309 \; 0.798591 \; 0.878873 \; 0.959155
\; 1.03944 \; 1.2 \; \;;
#X scalar y-plot 268 150 1 \; 1.2 \; 1.30645 \; 1.4129 \; 1.51935 \;
1.62581 \; 1.73226 \; 1.83871 \; 1.94516 \; 2.05161 \; 2.15806 \; 2.26452
\; 2.37097 \; 2.47742 \; 2.58387 \; 2.69032 \; 2.79677 \; 2.90323 \;
3.00968 \; 3.11613 \; 3.22258 \; 3.32903 \; 3.43548 \; 3.54194 \; 3.64839
\; 3.75484 \; 3.86129 \; 3.96774 \; 4.07419 \; 4.18064 \; 4.2871 \;
4.5 \; \;;
#X scalar y-plot 298 150 1 \; -4.5 \; -4.41972 \; -4.33944 \; -4.25916
\; -4.17887 \; -4.09859 \; -4.01831 \; -3.93803 \; -3.85775 \; -3.77746
\; -3.69718 \; -3.6169 \; -3.53662 \; -3.45634 \; -3.37606 \; -3.29577
\; -3.21549 \; -3.13521 \; -3.05493 \; -2.97465 \; -2.89437 \; -2.81408
\; -2.7338 \; -2.65352 \; -2.57324 \; -2.49296 \; -2.41268 \; -2.33239
\; -2.25211 \; -2.17183 \; -2.09155 \; -2.01127 \; -1.93099 \; -1.8507
\; -1.77042 \; -1.69014 \; -1.60986 \; -1.52958 \; -1.4493 \; -1.36901
\; -1.28873 \; -1.20845 \; -1.12817 \; -1.04789 \; -0.967606 \; -0.887324
\; -0.807042 \; -0.726761 \; -0.646479 \; -0.566197 \; -0.485916 \;
-0.405634 \; -0.325352 \; -0.245071 \; -0.164789 \; -0.0845075 \; -0.00422537
\; 0.0760563 \; 0.156337 \; 0.23662 \; 0.316901 \; 0.397183 \; 0.477464
\; 0.557746 \; 0.638028 \; 0.718309 \; 0.798591 \; 0.878873 \; 0.959155
\; 1.03944 \; 1.2 \; \;;
#X scalar rect 167 148 2 4 \;;
#X scalar rect 267 148 2 4 \;;
#X scalar rect 367 148 2 4 \;;
#X coords 0 288 1 287 0 0 0;
#X restore 54 89 pd z;
#N canvas 377 56 982 588 make-fig 0;
#X msg 41 25 \; start pd-z \;;
#X msg 130 19 \; pd-z clear \; start pd-z;
#X msg 371 25 \; add-haxis 50 100 350 347 \; add-vaxis 75 60 80 77
;
#X obj 62 145 r plot-segment;
#X obj 93 244 *;
#X obj 94 269 +;
#X obj 131 242 -;
#X obj 62 169 t l l l l;
#X obj 45 289 pack;
#X msg 45 320 \; y-plot-point \$1 \$2 \;;
#X obj 93 291 * 30;
#X msg 181 213 \; add-y-plot \$1 \$2 100 1 \;;
#X msg 128 220 \$4 \$3;
#X msg 136 272 \$3;
#X obj 42 199 scanner 0 1;
#X obj 180 162 unpack;
#X obj 229 164 + 75;
#X obj 181 184 pack;
#X msg 368 82 \; plot-segment 31 0 0.4 0.1 \;;
#X msg 368 152 \; plot-segment 41 60 0.8 0.4 \;;
#X msg 368 117 \; plot-segment 31 30 -0.2 -0.5 \;;
#X msg 166 402 \; add-rect 174 98 2 4 \;;
#X msg 166 437 \; add-rect 274 98 2 4 \;;
#X msg 369 199 \; plot-segment 31 100 0.4 0.1 \;;
#X msg 369 234 \; plot-segment 31 130 -0.2 -0.5 \;;
#X msg 369 269 \; plot-segment 41 160 0.8 0.4 \;;
#X msg 367 350 \; plot-segment 31 230 -0.2 -0.5 \;;
#X msg 367 385 \; plot-segment 41 260 0.8 0.4 \;;
#X msg 367 314 \; plot-segment 31 200 0.4 0.1 \;;
#X msg 164 481 \; add-rect 374 98 2 4 \;;
#X msg 599 22 \; add-haxis 50 100 350 347 \; add-vaxis 75 70 60 57
;
#X msg 597 152 \; plot-segment 31 100 0.04 0.15 \;;
#X msg 596 189 \; plot-segment 71 130 -0.15 0.04 \;;
#X msg 596 227 \; plot-segment 31 200 0.04 0.15 \;;
#X msg 596 261 \; plot-segment 71 230 -0.15 0.04 \;;
#X msg 593 82 \; plot-segment 31 0 0.04 0.15 \;;
#X msg 593 117 \; plot-segment 71 30 -0.15 0.04 \;;
#X msg 609 333 \; plot-segment 61 0 0.13 -0.65 \;;
#X msg 609 368 \; plot-segment 41 60 0.65 0.13 \;;
#X msg 609 404 \; plot-segment 61 100 0.13 -0.65 \;;
#X msg 609 439 \; plot-segment 41 160 0.65 0.13 \;;
#X msg 608 475 \; plot-segment 61 200 0.13 -0.65 \;;
#X msg 608 510 \; plot-segment 41 260 0.65 0.13 \;;
#X connect 3 0 7 0;
#X connect 4 0 5 0;
#X connect 5 0 10 0;
#X connect 6 0 4 1;
#X connect 7 0 14 0;
#X connect 7 1 13 0;
#X connect 7 2 12 0;
#X connect 7 3 15 0;
#X connect 8 0 9 0;
#X connect 10 0 8 1;
#X connect 12 0 6 0;
#X connect 13 0 5 1;
#X connect 14 0 8 0;
#X connect 14 1 4 0;
#X connect 15 0 17 0;
#X connect 15 1 16 0;
#X connect 16 0 17 1;
#X connect 17 0 11 0;
#X restore 170 83 pd make-fig;
