#N struct haxis float x float y float w float w-3;
#N struct vaxis float x float y float h float h-3;
#N struct y-plot float x float y float w array z y-point;
#N struct y-point float y;
#N struct rect float x float y float w float h;
#N struct xy-curve float x float y float w array z xy-point;
#N struct xy-point float x float y;
#N struct seg float x float y float dx float dy float w;
#N struct l-curve-arrow float x float y float z float z2 float z3 float
h;
#N struct circle2 float x float y float h float h2 float mh float mh2
;
#N struct xy-plot float x float y float w array z xy-point;
#N struct d-curve-arrow float x float y float z float z2 float z3 float
h;
#N struct circle float x float y float color float h float h2;
#N struct u-curve-arrow float x float y float z float z2 float z3 float
h;
#N struct r-curve-arrow float x float y float z float z2 float z3 float
h;
#N struct r-arrow float x float y float z;
#N struct l-arrow float x float y float z;
#N struct u-arrow float x float y float z;
#N struct d-arrow float x float y float z;
#N struct v-seg float x float y float z float w;
#N struct h-seg float x float y float z float w;
#N struct frame float x float y float w float h;
#N struct thickcircle float x float y float color float h float h2
;
#N canvas 4 21 329 179 10;
#N canvas 170 272 385 112 fig 1;
#X scalar haxis 23 54 350 347 \;;
#X scalar vaxis 48 24 60 57 \;;
#X scalar y-plot 48 54 1 \; 24 \; 23.0588 \; 22.1176 \; 21.1765 \;
20.2353 \; 19.2941 \; 18.3529 \; 17.4118 \; 16.4706 \; 15.5294 \; 14.5882
\; 13.6471 \; 12.7059 \; 11.7647 \; 10.8235 \; 9.88235 \; 8.94118 \;
8 \; 7.05882 \; 6.11765 \; 5.17647 \; 4.23529 \; 3.29412 \; 2.35294
\; 1.41176 \; 0.470588 \; -0.47059 \; -1.41177 \; -2.35294 \; -3.29412
\; -4.2353 \; -5.17647 \; -6.11765 \; -7.05883 \; -8 \; -8.94118 \;
-9.88235 \; -10.8235 \; -11.7647 \; -12.7059 \; -13.6471 \; -14.5882
\; -15.5294 \; -16.4706 \; -17.4118 \; -18.3529 \; -19.2941 \; -20.2353
\; -21.1765 \; -22.1176 \; -24 \; \;;
#X scalar y-plot 98 54 1 \; -24 \; -23.0588 \; -22.1176 \; -21.1765
\; -20.2353 \; -19.2941 \; -18.3529 \; -17.4118 \; -16.4706 \; -15.5294
\; -14.5882 \; -13.6471 \; -12.7059 \; -11.7647 \; -10.8235 \; -9.88235
\; -8.94118 \; -8 \; -7.05882 \; -6.11765 \; -5.17647 \; -4.23529 \;
-3.29412 \; -2.35294 \; -1.41176 \; -0.470588 \; 0.47059 \; 1.41177
\; 2.35294 \; 3.29412 \; 4.2353 \; 5.17647 \; 6.11765 \; 7.05883 \;
8 \; 8.94118 \; 9.88235 \; 10.8235 \; 11.7647 \; 12.7059 \; 13.6471
\; 14.5882 \; 15.5294 \; 16.4706 \; 17.4118 \; 18.3529 \; 19.2941 \;
20.2353 \; 21.1765 \; 22.1176 \; 24 \; \;;
#X scalar y-plot 148 54 1 \; 24 \; 23.0588 \; 22.1176 \; 21.1765 \;
20.2353 \; 19.2941 \; 18.3529 \; 17.4118 \; 16.4706 \; 15.5294 \; 14.5882
\; 13.6471 \; 12.7059 \; 11.7647 \; 10.8235 \; 9.88235 \; 8.94118 \;
8 \; 7.05882 \; 6.11765 \; 5.17647 \; 4.23529 \; 3.29412 \; 2.35294
\; 1.41176 \; 0.470588 \; -0.47059 \; -1.41177 \; -2.35294 \; -3.29412
\; -4.2353 \; -5.17647 \; -6.11765 \; -7.05883 \; -8 \; -8.94118 \;
-9.88235 \; -10.8235 \; -11.7647 \; -12.7059 \; -13.6471 \; -14.5882
\; -15.5294 \; -16.4706 \; -17.4118 \; -18.3529 \; -19.2941 \; -20.2353
\; -21.1765 \; -22.1176 \; -24 \; \;;
#X scalar y-plot 198 54 1 \; -24 \; -23.0588 \; -22.1176 \; -21.1765
\; -20.2353 \; -19.2941 \; -18.3529 \; -17.4118 \; -16.4706 \; -15.5294
\; -14.5882 \; -13.6471 \; -12.7059 \; -11.7647 \; -10.8235 \; -9.88235
\; -8.94118 \; -8 \; -7.05882 \; -6.11765 \; -5.17647 \; -4.23529 \;
-3.29412 \; -2.35294 \; -1.41176 \; -0.470588 \; 0.47059 \; 1.41177
\; 2.35294 \; 3.29412 \; 4.2353 \; 5.17647 \; 6.11765 \; 7.05883 \;
8 \; 8.94118 \; 9.88235 \; 10.8235 \; 11.7647 \; 12.7059 \; 13.6471
\; 14.5882 \; 15.5294 \; 16.4706 \; 17.4118 \; 18.3529 \; 19.2941 \;
20.2353 \; 21.1765 \; 22.1176 \; 24 \; \;;
#X scalar y-plot 248 54 1 \; 24 \; 23.0588 \; 22.1176 \; 21.1765 \;
20.2353 \; 19.2941 \; 18.3529 \; 17.4118 \; 16.4706 \; 15.5294 \; 14.5882
\; 13.6471 \; 12.7059 \; 11.7647 \; 10.8235 \; 9.88235 \; 8.94118 \;
8 \; 7.05882 \; 6.11765 \; 5.17647 \; 4.23529 \; 3.29412 \; 2.35294
\; 1.41176 \; 0.470588 \; -0.47059 \; -1.41177 \; -2.35294 \; -3.29412
\; -4.2353 \; -5.17647 \; -6.11765 \; -7.05883 \; -8 \; -8.94118 \;
-9.88235 \; -10.8235 \; -11.7647 \; -12.7059 \; -13.6471 \; -14.5882
\; -15.5294 \; -16.4706 \; -17.4118 \; -18.3529 \; -19.2941 \; -20.2353
\; -21.1765 \; -22.1176 \; -24 \; \;;
#X scalar y-plot 298 54 1 \; -24 \; -23.0588 \; -22.1176 \; -21.1765
\; -20.2353 \; -19.2941 \; -18.3529 \; -17.4118 \; -16.4706 \; -15.5294
\; -14.5882 \; -13.6471 \; -12.7059 \; -11.7647 \; -10.8235 \; -9.88235
\; -8.94118 \; -8 \; -7.05882 \; -6.11765 \; -5.17647 \; -4.23529 \;
-3.29412 \; -2.35294 \; -1.41176 \; -0.470588 \; 0.47059 \; 1.41177
\; 2.35294 \; 3.29412 \; 4.2353 \; 5.17647 \; 6.11765 \; 7.05883 \;
8 \; 8.94118 \; 9.88235 \; 10.8235 \; 11.7647 \; 12.7059 \; 13.6471
\; 14.5882 \; 15.5294 \; 16.4706 \; 17.4118 \; 18.3529 \; 19.2941 \;
20.2353 \; 21.1765 \; 22.1176 \; 24 \; \;;
#X scalar rect 147 52 2 4 \;;
#X scalar rect 247 52 2 4 \;;
#X scalar rect 347 52 2 4 \;;
#X text 55 22 (0 \, 1);
#X text 75 84 (N/2 \, -1);
#X text 146 62 N;
#X coords 0 112 1 111 0 0 0;
#X restore 51 61 pd fig;
#X obj 170 42 templates;
#N canvas 132 519 464 288 z 1;
#X scalar haxis 50 100 350 347 \;;
#X scalar vaxis 75 70 60 57 \;;
#X scalar y-plot 75 100 1 \; 24 \; 23.0588 \; 22.1176 \; 21.1765 \;
20.2353 \; 19.2941 \; 18.3529 \; 17.4118 \; 16.4706 \; 15.5294 \; 14.5882
\; 13.6471 \; 12.7059 \; 11.7647 \; 10.8235 \; 9.88235 \; 8.94118 \;
8 \; 7.05882 \; 6.11765 \; 5.17647 \; 4.23529 \; 3.29412 \; 2.35294
\; 1.41176 \; 0.470588 \; -0.47059 \; -1.41177 \; -2.35294 \; -3.29412
\; -4.2353 \; -5.17647 \; -6.11765 \; -7.05883 \; -8 \; -8.94118 \;
-9.88235 \; -10.8235 \; -11.7647 \; -12.7059 \; -13.6471 \; -14.5882
\; -15.5294 \; -16.4706 \; -17.4118 \; -18.3529 \; -19.2941 \; -20.2353
\; -21.1765 \; -22.1176 \; -24 \; \;;
#X scalar y-plot 125 100 1 \; -24 \; -23.0588 \; -22.1176 \; -21.1765
\; -20.2353 \; -19.2941 \; -18.3529 \; -17.4118 \; -16.4706 \; -15.5294
\; -14.5882 \; -13.6471 \; -12.7059 \; -11.7647 \; -10.8235 \; -9.88235
\; -8.94118 \; -8 \; -7.05882 \; -6.11765 \; -5.17647 \; -4.23529 \;
-3.29412 \; -2.35294 \; -1.41176 \; -0.470588 \; 0.47059 \; 1.41177
\; 2.35294 \; 3.29412 \; 4.2353 \; 5.17647 \; 6.11765 \; 7.05883 \;
8 \; 8.94118 \; 9.88235 \; 10.8235 \; 11.7647 \; 12.7059 \; 13.6471
\; 14.5882 \; 15.5294 \; 16.4706 \; 17.4118 \; 18.3529 \; 19.2941 \;
20.2353 \; 21.1765 \; 22.1176 \; 24 \; \;;
#X scalar y-plot 175 100 1 \; 24 \; 23.0588 \; 22.1176 \; 21.1765 \;
20.2353 \; 19.2941 \; 18.3529 \; 17.4118 \; 16.4706 \; 15.5294 \; 14.5882
\; 13.6471 \; 12.7059 \; 11.7647 \; 10.8235 \; 9.88235 \; 8.94118 \;
8 \; 7.05882 \; 6.11765 \; 5.17647 \; 4.23529 \; 3.29412 \; 2.35294
\; 1.41176 \; 0.470588 \; -0.47059 \; -1.41177 \; -2.35294 \; -3.29412
\; -4.2353 \; -5.17647 \; -6.11765 \; -7.05883 \; -8 \; -8.94118 \;
-9.88235 \; -10.8235 \; -11.7647 \; -12.7059 \; -13.6471 \; -14.5882
\; -15.5294 \; -16.4706 \; -17.4118 \; -18.3529 \; -19.2941 \; -20.2353
\; -21.1765 \; -22.1176 \; -24 \; \;;
#X scalar y-plot 225 100 1 \; -24 \; -23.0588 \; -22.1176 \; -21.1765
\; -20.2353 \; -19.2941 \; -18.3529 \; -17.4118 \; -16.4706 \; -15.5294
\; -14.5882 \; -13.6471 \; -12.7059 \; -11.7647 \; -10.8235 \; -9.88235
\; -8.94118 \; -8 \; -7.05882 \; -6.11765 \; -5.17647 \; -4.23529 \;
-3.29412 \; -2.35294 \; -1.41176 \; -0.470588 \; 0.47059 \; 1.41177
\; 2.35294 \; 3.29412 \; 4.2353 \; 5.17647 \; 6.11765 \; 7.05883 \;
8 \; 8.94118 \; 9.88235 \; 10.8235 \; 11.7647 \; 12.7059 \; 13.6471
\; 14.5882 \; 15.5294 \; 16.4706 \; 17.4118 \; 18.3529 \; 19.2941 \;
20.2353 \; 21.1765 \; 22.1176 \; 24 \; \;;
#X scalar y-plot 275 100 1 \; 24 \; 23.0588 \; 22.1176 \; 21.1765 \;
20.2353 \; 19.2941 \; 18.3529 \; 17.4118 \; 16.4706 \; 15.5294 \; 14.5882
\; 13.6471 \; 12.7059 \; 11.7647 \; 10.8235 \; 9.88235 \; 8.94118 \;
8 \; 7.05882 \; 6.11765 \; 5.17647 \; 4.23529 \; 3.29412 \; 2.35294
\; 1.41176 \; 0.470588 \; -0.47059 \; -1.41177 \; -2.35294 \; -3.29412
\; -4.2353 \; -5.17647 \; -6.11765 \; -7.05883 \; -8 \; -8.94118 \;
-9.88235 \; -10.8235 \; -11.7647 \; -12.7059 \; -13.6471 \; -14.5882
\; -15.5294 \; -16.4706 \; -17.4118 \; -18.3529 \; -19.2941 \; -20.2353
\; -21.1765 \; -22.1176 \; -24 \; \;;
#X scalar y-plot 325 100 1 \; -24 \; -23.0588 \; -22.1176 \; -21.1765
\; -20.2353 \; -19.2941 \; -18.3529 \; -17.4118 \; -16.4706 \; -15.5294
\; -14.5882 \; -13.6471 \; -12.7059 \; -11.7647 \; -10.8235 \; -9.88235
\; -8.94118 \; -8 \; -7.05882 \; -6.11765 \; -5.17647 \; -4.23529 \;
-3.29412 \; -2.35294 \; -1.41176 \; -0.470588 \; 0.47059 \; 1.41177
\; 2.35294 \; 3.29412 \; 4.2353 \; 5.17647 \; 6.11765 \; 7.05883 \;
8 \; 8.94118 \; 9.88235 \; 10.8235 \; 11.7647 \; 12.7059 \; 13.6471
\; 14.5882 \; 15.5294 \; 16.4706 \; 17.4118 \; 18.3529 \; 19.2941 \;
20.2353 \; 21.1765 \; 22.1176 \; 24 \; \;;
#X scalar rect 174 98 2 4 \;;
#X scalar rect 274 98 2 4 \;;
#X scalar rect 374 98 2 4 \;;
#X coords 0 288 1 287 0 0 0;
#X restore 54 89 pd z;
#N canvas 413 -10 982 588 make-fig 1;
#X msg 41 25 \; start pd-z \;;
#X msg 130 19 \; pd-z clear \; start pd-z;
#X obj 63 86 r plot-segment;
#X obj 94 185 *;
#X obj 95 210 +;
#X obj 132 183 -;
#X obj 63 110 t l l l l;
#X obj 46 230 pack;
#X msg 46 261 \; y-plot-point \$1 \$2 \;;
#X obj 94 232 * 30;
#X msg 179 178 \; add-y-plot \$1 \$2 100 1 \;;
#X msg 129 161 \$4 \$3;
#X msg 137 213 \$3;
#X obj 178 127 unpack;
#X obj 227 129 + 75;
#X obj 179 149 pack;
#X msg 359 452 \; add-rect 174 98 2 4 \;;
#X msg 359 487 \; add-rect 274 98 2 4 \;;
#X msg 357 531 \; add-rect 374 98 2 4 \;;
#X msg 609 11 \; add-haxis 50 100 350 347 \; add-vaxis 75 70 60 57
;
#X obj 52 347 t l l l l;
#X obj 32 505 pack;
#X msg 32 536 \; y-plot-point \$1 \$2 \;;
#X obj 81 514 * 30;
#X msg 149 369 \; add-y-plot \$1 \$2 100 1 \;;
#X obj 148 322 unpack;
#X obj 197 324 + 75;
#X obj 149 344 pack;
#X obj 52 323 r plot-para;
#X text 51 303 npts \, xloc \, phase \, amp;
#X text 66 70 npts \, xloc \, y1 \, y2;
#X obj 43 140 scanner 0 1;
#X obj 28 407 scanner 1 1;
#X obj 28 376 t f f;
#X obj 68 376 / 100;
#X msg 143 413 \$3;
#X obj 81 494 *;
#X msg 129 497 \$4;
#X obj 80 451 +;
#X obj 80 472 expr -0.5*($f1-0.5)*($f1-0.5) + 1./24.;
#X msg 389 51 \; plot-segment 51 0 0.8 -0.8 \;;
#X msg 388 144 \; plot-segment 51 50 -0.8 0.8 \;;
#X msg 390 224 \; plot-segment 51 100 0.8 -0.8 \;;
#X msg 389 259 \; plot-segment 51 150 -0.8 0.8 \;;
#X msg 388 301 \; plot-segment 51 200 0.8 -0.8 \;;
#X msg 387 336 \; plot-segment 51 250 -0.8 0.8 \;;
#X msg 620 84 \; plot-segment 16 0 0 1 \;;
#X msg 620 119 \; plot-segment 71 15 1 -1 \;;
#X msg 620 154 \; plot-segment 16 85 -1 0 \;;
#X msg 620 198 \; plot-segment 16 100 0 1 \;;
#X msg 620 233 \; plot-segment 71 115 1 -1 \;;
#X msg 620 268 \; plot-segment 16 185 -1 0 \;;
#X msg 624 314 \; plot-segment 16 200 0 1 \;;
#X msg 624 349 \; plot-segment 71 215 1 -1 \;;
#X msg 624 384 \; plot-segment 16 285 -1 0 \;;
#X connect 2 0 6 0;
#X connect 3 0 4 0;
#X connect 4 0 9 0;
#X connect 5 0 3 1;
#X connect 6 0 31 0;
#X connect 6 1 12 0;
#X connect 6 2 11 0;
#X connect 6 3 13 0;
#X connect 7 0 8 0;
#X connect 9 0 7 1;
#X connect 11 0 5 0;
#X connect 12 0 4 1;
#X connect 13 0 15 0;
#X connect 13 1 14 0;
#X connect 14 0 15 1;
#X connect 15 0 10 0;
#X connect 20 0 33 0;
#X connect 20 1 37 0;
#X connect 20 2 35 0;
#X connect 20 3 25 0;
#X connect 21 0 22 0;
#X connect 23 0 21 1;
#X connect 25 0 27 0;
#X connect 25 1 26 0;
#X connect 26 0 27 1;
#X connect 27 0 24 0;
#X connect 28 0 20 0;
#X connect 31 0 7 0;
#X connect 31 1 3 0;
#X connect 32 0 21 0;
#X connect 32 1 38 0;
#X connect 33 0 32 0;
#X connect 33 1 34 0;
#X connect 34 0 32 1;
#X connect 35 0 38 1;
#X connect 36 0 23 0;
#X connect 37 0 36 1;
#X connect 38 0 39 0;
#X connect 39 0 36 0;
#X restore 170 83 pd make-fig;
