#N canvas 0 0 313 364 10;
#X obj 76 105 wrap~;
#X obj 76 126 -~ 0.5;
#X obj 76 84 -~;
#X obj 92 50 / 100;
#X floatatom 92 32 4 -100 100 0 - - -;
#X obj 92 255 / 100;
#X floatatom 92 237 4 -100 100 0 - - -;
#X obj 76 277 *~;
#X obj 156 105 wrap~;
#X obj 156 126 -~ 0.5;
#X obj 156 84 -~;
#X obj 172 51 / 100;
#X floatatom 172 33 4 -100 100 0 - - -;
#X obj 171 255 / 100;
#X floatatom 171 237 4 -100 100 0 - - -;
#X obj 155 277 *~;
#X obj 235 105 wrap~;
#X obj 235 126 -~ 0.5;
#X obj 235 84 -~;
#X obj 251 52 / 100;
#X floatatom 251 34 4 -100 100 0 - - -;
#X obj 251 255 / 100;
#X floatatom 251 237 4 -100 100 0 - - -;
#X obj 235 277 *~;
#X text 114 13 -- PHASES (percent) --;
#X text 82 220 AMPLITUDES (percent);
#X obj 76 299 +~;
#X obj 76 320 +~;
#X obj 23 52 phasor~;
#X floatatom 23 33 5 0 0 0 - - -;
#X text 10 13 frequency;
#X obj 76 150 *~;
#X obj 156 150 *~;
#X obj 235 150 *~;
#X obj 76 170 *~ 0.5;
#X obj 76 191 -~ 0.0833;
#X obj 156 170 *~ 0.5;
#X obj 235 170 *~ 0.5;
#X obj 156 191 -~ 0.0833;
#X obj 235 191 -~ 0.0833;
#X text 60 347 (OUT);
#X text 74 334 |;
#X connect 0 0 1 0;
#X connect 1 0 31 0;
#X connect 1 0 31 1;
#X connect 2 0 0 0;
#X connect 3 0 2 1;
#X connect 4 0 3 0;
#X connect 5 0 7 1;
#X connect 6 0 5 0;
#X connect 7 0 26 0;
#X connect 8 0 9 0;
#X connect 9 0 32 0;
#X connect 9 0 32 1;
#X connect 10 0 8 0;
#X connect 11 0 10 1;
#X connect 12 0 11 0;
#X connect 13 0 15 1;
#X connect 14 0 13 0;
#X connect 15 0 26 1;
#X connect 16 0 17 0;
#X connect 17 0 33 0;
#X connect 17 0 33 1;
#X connect 18 0 16 0;
#X connect 19 0 18 1;
#X connect 20 0 19 0;
#X connect 21 0 23 1;
#X connect 22 0 21 0;
#X connect 23 0 27 1;
#X connect 26 0 27 0;
#X connect 28 0 2 0;
#X connect 28 0 10 0;
#X connect 28 0 18 0;
#X connect 29 0 28 0;
#X connect 31 0 34 0;
#X connect 32 0 36 0;
#X connect 33 0 37 0;
#X connect 34 0 35 0;
#X connect 35 0 7 0;
#X connect 36 0 38 0;
#X connect 37 0 39 0;
#X connect 38 0 15 0;
#X connect 39 0 23 0;
