#N struct r-arrow float x float y float z;
#N struct vaxis float x float y float h float h-3;
#N struct v-seg float x float y float z float w;
#N struct seg float x float y float dx float dy float w;
#N struct rect float x float y float w float h;
#N struct xy-curve float x float y float w array z xy-point;
#N struct xy-point float x float y;
#N struct l-curve-arrow float x float y float z float z2 float z3 float
h;
#N struct circle2 float x float y float h float h2 float mh float mh2
;
#N struct xy-plot float x float y float w array z xy-point;
#N struct d-curve-arrow float x float y float z float z2 float z3 float
h;
#N struct circle float x float y float color float h float h2;
#N struct u-curve-arrow float x float y float z float z2 float z3 float
h;
#N struct r-curve-arrow float x float y float z float z2 float z3 float
h;
#N struct l-arrow float x float y float z;
#N struct u-arrow float x float y float z;
#N struct d-arrow float x float y float z;
#N struct h-seg float x float y float z float w;
#N struct haxis float x float y float w float w-3;
#N struct frame float x float y float w float h;
#N struct y-plot float x float y float w array z y-point;
#N struct y-point float y;
#N struct thickcircle float x float y float color float h float h2
;
#N canvas 10 13 329 179 10;
#N canvas 190 537 389 299 fig 1;
#X scalar r-arrow 365 52 -320 \;;
#X scalar vaxis 45 42 200 197 \;;
#X scalar v-seg 55 52 176.364 1 \;;
#X scalar v-seg 115 52 157.836 1 \;;
#X scalar v-seg 150.098 52 146.487 1 \;;
#X scalar v-seg 175 52 137.877 1 \;;
#X scalar v-seg 194.316 52 130.601 1 \;;
#X scalar v-seg 210.098 52 124.016 1 \;;
#X scalar v-seg 223.441 52 117.756 1 \;;
#X scalar v-seg 235 52 111.578 1 \;;
#X scalar v-seg 245.196 52 105.285 1 \;;
#X scalar v-seg 254.316 52 98.6924 1 \;;
#X scalar v-seg 262.566 52 91.5923 1 \;;
#X scalar v-seg 270.098 52 83.7051 1 \;;
#X scalar v-seg 277.026 52 74.5926 1 \;;
#X scalar v-seg 283.441 52 63.4342 1 \;;
#X scalar v-seg 289.413 52 48.2682 1 \;;
#X scalar v-seg 295 52 21.3901 1 \;;
#X scalar v-seg 300.248 52 0.218628 1 \;;
#X scalar v-seg 305.195 52 33.1065 1 \;;
#X scalar v-seg 309.876 52 44.3005 1 \;;
#X scalar v-seg 314.316 52 50.0294 1 \;;
#X scalar v-seg 318.539 52 53.0961 1 \;;
#X scalar v-seg 322.566 52 54.4999 1 \;;
#X scalar v-seg 326.414 52 54.6953 1 \;;
#X scalar v-seg 330.098 52 53.9089 1 \;;
#X scalar v-seg 333.631 52 52.2472 1 \;;
#X scalar v-seg 337.026 52 49.7375 1 \;;
#X scalar v-seg 340.293 52 46.3391 1 \;;
#X scalar v-seg 343.441 52 41.9318 1 \;;
#X scalar v-seg 346.479 52 36.2749 1 \;;
#X scalar v-seg 349.413 52 28.8987 1 \;;
#X scalar v-seg 352.252 52 18.7879 1 \;;
#X scalar v-seg 355 52 3.12202 1 \;;
#X scalar seg 52 229 259.316 -78.0618 1 \;;
#X scalar seg 105 242 259.316 -156.124 1 \;;
#X scalar rect 54 50 2 4 \;;
#X scalar rect 114 50 2 4 \;;
#X scalar rect 174 50 2 4 \;;
#X scalar rect 229 50 2 4 \;;
#X scalar rect 294 50 2 4 \;;
#X scalar rect 354 50 2 4 \;;
#X scalar rect 43 81 4 2 \;;
#X scalar rect 43 111 4 2 \;;
#X scalar rect 43 141 4 2 \;;
#X scalar rect 43 171 4 2 \;;
#X scalar rect 43 201 4 2 \;;
#X scalar rect 43 231 4 2 \;;
#X text 51 254 1;
#X text 111 255 2;
#X text 171 254 4;
#X text 227 254 8;
#X text 287 253 16;
#X text 347 252 32;
#X text 27 60 0;
#X text 17 90 -10;
#X text 17 120 -20;
#X text 17 150 -30;
#X text 17 180 -40;
#X text 17 210 -50;
#X text 9 24 magnitude;
#X text 338 166 2;
#X text 254 114 a/k;
#X text 316 170 b/k;
#X text 164 269 partial number (k);
#X text 7 39 (dB);
#X coords 0 299 1 298 0 0 0;
#X restore 51 61 pd fig;
#X obj 170 42 templates;
#N canvas 6 53 464 288 z 0;
#X scalar r-arrow 370 50 -320 \;;
#X scalar vaxis 50 40 200 197 \;;
#X scalar v-seg 60 50 176.364 1 \;;
#X scalar v-seg 120 50 157.836 1 \;;
#X scalar v-seg 155.098 50 146.487 1 \;;
#X scalar v-seg 180 50 137.877 1 \;;
#X scalar v-seg 199.316 50 130.601 1 \;;
#X scalar v-seg 215.098 50 124.016 1 \;;
#X scalar v-seg 228.441 50 117.756 1 \;;
#X scalar v-seg 240 50 111.578 1 \;;
#X scalar v-seg 250.196 50 105.285 1 \;;
#X scalar v-seg 259.316 50 98.6924 1 \;;
#X scalar v-seg 267.566 50 91.5923 1 \;;
#X scalar v-seg 275.098 50 83.7051 1 \;;
#X scalar v-seg 282.026 50 74.5926 1 \;;
#X scalar v-seg 288.441 50 63.4342 1 \;;
#X scalar v-seg 294.413 50 48.2682 1 \;;
#X scalar v-seg 300 50 21.3901 1 \;;
#X scalar v-seg 305.248 50 0.218628 1 \;;
#X scalar v-seg 310.195 50 33.1065 1 \;;
#X scalar v-seg 314.876 50 44.3005 1 \;;
#X scalar v-seg 319.316 50 50.0294 1 \;;
#X scalar v-seg 323.539 50 53.0961 1 \;;
#X scalar v-seg 327.566 50 54.4999 1 \;;
#X scalar v-seg 331.414 50 54.6953 1 \;;
#X scalar v-seg 335.098 50 53.9089 1 \;;
#X scalar v-seg 338.631 50 52.2472 1 \;;
#X scalar v-seg 342.026 50 49.7375 1 \;;
#X scalar v-seg 345.293 50 46.3391 1 \;;
#X scalar v-seg 348.441 50 41.9318 1 \;;
#X scalar v-seg 351.479 50 36.2749 1 \;;
#X scalar v-seg 354.413 50 28.8987 1 \;;
#X scalar v-seg 357.252 50 18.7879 1 \;;
#X scalar v-seg 360 50 3.12202 1 \;;
#X scalar seg 57 227 259.316 -78.0618 1 \;;
#X scalar seg 110 240 259.316 -156.124 1 \;;
#X scalar rect 59 48 2 4 \;;
#X scalar rect 119 48 2 4 \;;
#X scalar rect 179 48 2 4 \;;
#X scalar rect 234 48 2 4 \;;
#X scalar rect 299 48 2 4 \;;
#X scalar rect 359 48 2 4 \;;
#X scalar rect 48 79 4 2 \;;
#X scalar rect 48 109 4 2 \;;
#X scalar rect 48 139 4 2 \;;
#X scalar rect 48 169 4 2 \;;
#X scalar rect 48 199 4 2 \;;
#X scalar rect 48 229 4 2 \;;
#X coords 0 288 1 287 0 0 0;
#X restore 54 89 pd z;
#N canvas 80 227 889 603 make-fig 0;
#X msg 41 25 \; start pd-z \;;
#X msg 130 19 \; pd-z clear \; start pd-z;
#X msg 369 73 \; add-r-arrow 370 50 -320 \; add-vaxis 50 40 200 197
;
#X msg 373 127 \; add-rect 59 48 2 4 \;;
#X obj 170 150 print;
#X obj 46 181 + 1;
#X obj 46 207 t f f;
#X text 253 22 origin is (50 \, 50);
#X msg 49 445 \; add-v-seg \$1 50 \$2 1;
#X obj 49 404 pack;
#X msg 349 352 \; add-rect 48 79 4 2 \;;
#X msg 347 388 \; add-rect 48 109 4 2 \;;
#X msg 345 424 \; add-rect 48 139 4 2 \;;
#X msg 342 460 \; add-rect 48 169 4 2 \;;
#X msg 342 500 \; add-rect 48 199 4 2 \;;
#X text 254 40 1 octave is 60 horiz. units;
#X msg 373 160 \; add-rect 119 48 2 4 \;;
#X msg 372 196 \; add-rect 179 48 2 4 \;;
#X msg 371 233 \; add-rect 234 48 2 4 \;;
#X msg 372 271 \; add-rect 299 48 2 4 \;;
#X msg 373 310 \; add-rect 359 48 2 4 \;;
#X obj 46 136 scanner 31 31;
#X obj 48 247 expr 60 + 60 * log($f1) / log(2);
#X msg 341 537 \; add-rect 48 229 4 2 \;;
#X obj 117 206 expr 1/($f1*$f1);
#X floatatom 305 271 5 0 0 0 - - -;
#X obj 80 296 expr sin(2*3.14159*$f1*$f2)/($f1*$f1);
#X obj 80 373 max 0;
#X obj 81 345 expr 220 + 60 * log($f1)/log(10);
#X obj 80 320 expr abs($f1);
#X obj 602 110 t f f;
#X obj 602 84 20;
#X obj 603 64 bng 15 250 50 0 empty empty empty 0 -6 0 8 -262144 -1
-1;
#X obj 601 134 expr 60 * log($f1) / log(2);
#X obj 601 211 pack;
#X obj 623 177 expr 60 * log(1/$f1)/log(10);
#X msg 601 241 \; add-seg 60 200 \$1 \$2 1;
#X obj 594 355 t f f;
#X obj 594 329 20;
#X obj 595 309 bng 15 250 50 0 empty empty empty 0 -6 0 8 -262144 -1
-1;
#X obj 593 379 expr 60 * log($f1) / log(2);
#X obj 593 456 pack;
#X msg 593 486 \; add-seg 60 200 \$1 \$2 1;
#X obj 615 422 expr 60 * log(1/($f1*$f1))/log(10);
#X msg 306 249 0.03;
#X connect 5 0 6 0;
#X connect 6 0 22 0;
#X connect 6 1 26 0;
#X connect 9 0 8 0;
#X connect 21 0 5 0;
#X connect 22 0 9 0;
#X connect 25 0 26 1;
#X connect 26 0 29 0;
#X connect 27 0 9 1;
#X connect 28 0 27 0;
#X connect 29 0 28 0;
#X connect 30 0 33 0;
#X connect 30 1 35 0;
#X connect 31 0 30 0;
#X connect 32 0 31 0;
#X connect 33 0 34 0;
#X connect 34 0 36 0;
#X connect 35 0 34 1;
#X connect 37 0 40 0;
#X connect 37 1 43 0;
#X connect 38 0 37 0;
#X connect 39 0 38 0;
#X connect 40 0 41 0;
#X connect 41 0 42 0;
#X connect 43 0 41 1;
#X connect 44 0 25 0;
#X restore 170 83 pd make-fig;
