#N struct rect float x float y float w float h;
#N struct y-plot float x float y float w array z y-point;
#N struct y-point float y;
#N struct haxis float x float y float w float w-3;
#N struct vaxis float x float y float h float h-3;
#N struct xy-curve float x float y float w array z xy-point;
#N struct xy-point float x float y;
#N struct seg float x float y float dx float dy float w;
#N struct l-curve-arrow float x float y float z float z2 float z3 float
h;
#N struct circle2 float x float y float h float h2 float mh float mh2
;
#N struct xy-plot float x float y float w array z xy-point;
#N struct d-curve-arrow float x float y float z float z2 float z3 float
h;
#N struct circle float x float y float color float h float h2;
#N struct u-curve-arrow float x float y float z float z2 float z3 float
h;
#N struct r-curve-arrow float x float y float z float z2 float z3 float
h;
#N struct r-arrow float x float y float z;
#N struct l-arrow float x float y float z;
#N struct u-arrow float x float y float z;
#N struct d-arrow float x float y float z;
#N struct v-seg float x float y float z float w;
#N struct h-seg float x float y float z float w;
#N struct frame float x float y float w float h;
#N struct thickcircle float x float y float color float h float h2
;
#N canvas 437 163 311 399 10;
#N canvas 133 511 377 108 fig 1;
#X scalar rect 187 54 2 4 \;;
#X scalar rect 337 54 2 4 \;;
#X scalar y-plot 38 56 1 \; 22.3215 \; 22.4762 \; 22.9026 \; 23.4972
\; 24.1144 \; 24.6019 \; 24.8366 \; 24.7553 \; 24.3707 \; 23.7702 \;
23.097 \; 22.517 \; 22.1794 \; 22.1799 \; 22.5353 \; 23.1749 \; 23.9539
\; 24.6835 \; 25.1741 \; 25.2816 \; 24.9457 \; 24.2112 \; 23.2274 \;
22.222 \; 21.4549 \; 21.1597 \; 21.4849 \; 22.4463 \; 23.9029 \; 25.5619
\; 27.0142 \; 27.7955 \; 27.4642 \; 25.6806 \; 22.2733 \; 17.2811 \;
10.9605 \; 3.7568 \; -3.75635 \; -10.9601 \; -17.2808 \; -22.2731 \;
-25.6805 \; -27.4642 \; -27.7955 \; -27.0142 \; -25.562 \; -23.903
\; -22.4463 \; -21.4849 \; -21.1597 \; -21.4549 \; -22.2219 \; -23.2273
\; -24.2111 \; -24.9456 \; -25.2816 \; -25.1741 \; -24.6835 \; -23.954
\; -23.175 \; -22.5353 \; -22.18 \; -22.1794 \; -22.5169 \; -23.0969
\; -23.7701 \; -24.3706 \; -24.7553 \; -24.8366 \; -24.6019 \; -24.1144
\; -23.4972 \; -22.9026 \; -22.4762 \; -22.3215 \; -22.4761 \; -22.9026
\; -23.4971 \; -24.1144 \; -24.6018 \; -24.8366 \; -24.7553 \; -24.3707
\; -23.7702 \; -23.097 \; -22.517 \; -22.1794 \; -22.1799 \; -22.5352
\; -23.1749 \; -23.9539 \; -24.6834 \; -25.1741 \; -25.2816 \; -24.9457
\; -24.2112 \; -23.2274 \; -22.222 \; -21.4549 \; -21.1597 \; -21.4848
\; -22.4462 \; -23.9028 \; -25.5618 \; -27.0141 \; -27.7954 \; -27.4643
\; -25.6808 \; -22.2736 \; -17.2815 \; -10.9609 \; -3.75725 \; 3.7559
\; 10.9597 \; 17.2804 \; 22.2728 \; 25.6803 \; 27.4641 \; 27.7955 \;
27.0143 \; 25.5621 \; 23.9031 \; 22.4464 \; 21.485 \; 21.1598 \; 21.4548
\; 22.2219 \; 23.2272 \; 24.2111 \; 24.9456 \; 25.2816 \; 25.1741 \;
24.6835 \; 23.954 \; 23.175 \; 22.5353 \; 22.18 \; 22.1793 \; 22.5169
\; 23.0969 \; 23.7701 \; 24.3706 \; 24.7553 \; 24.8366 \; 24.6019 \;
24.1145 \; 23.4973 \; 22.9027 \; 22.4762 \; 22.3215 \; 22.4761 \; 22.9025
\; 23.4971 \; 24.1143 \; 24.6018 \; 24.8366 \; 24.7553 \; 24.3707 \;
23.7702 \; 23.097 \; 22.517 \; 22.1794 \; 22.1799 \; 22.5352 \; 23.1748
\; 23.9538 \; 24.6834 \; 25.1741 \; 25.2816 \; 24.9457 \; 24.2112 \;
23.2275 \; 22.2221 \; 21.455 \; 21.1598 \; 21.4848 \; 22.4461 \; 23.9027
\; 25.5618 \; 27.014 \; 27.7954 \; 27.4643 \; 25.6809 \; 22.2738 \;
17.2818 \; 10.9613 \; 3.75771 \; -3.75547 \; -10.9592 \; -17.2801 \;
-22.2725 \; -25.6801 \; -27.464 \; -27.7955 \; -27.0144 \; -25.5623
\; -23.9032 \; -22.4465 \; -21.485 \; -21.1597 \; -21.4548 \; -22.2218
\; -23.2272 \; -24.211 \; -24.9456 \; -25.2816 \; -25.1742 \; -24.6836
\; -23.9541 \; -23.1751 \; -22.5354 \; -22.18 \; -22.1793 \; -22.5169
\; -23.0968 \; -23.7701 \; -24.3706 \; -24.7553 \; -24.8366 \; -24.6019
\; -24.1145 \; -23.4973 \; -22.9027 \; -22.4762 \; -22.3215 \; -22.4761
\; -22.9025 \; -23.497 \; -24.1143 \; -24.6018 \; -24.8366 \; -24.7553
\; -24.3708 \; -23.7703 \; -23.0971 \; -22.5171 \; -22.1794 \; -22.1799
\; -22.5352 \; -23.1748 \; -23.9538 \; -24.6834 \; -25.174 \; -25.2817
\; -24.9458 \; -24.2113 \; -23.2276 \; -22.2222 \; -21.455 \; -21.1597
\; -21.4848 \; -22.446 \; -23.9026 \; -25.5617 \; -27.0139 \; -27.7954
\; -27.4644 \; -25.6811 \; -22.2741 \; -17.2821 \; -10.9617 \; -3.75815
\; 3.75495 \; 10.9588 \; 17.2797 \; 22.2723 \; 25.68 \; 27.464 \; 27.7955
\; 27.0144 \; 25.5624 \; 23.9033 \; 22.4465 \; 21.485 \; 21.1598 \;
21.4548 \; 22.2218 \; 23.2271 \; 24.2109 \; 24.9455 \; 25.2816 \; 25.1742
\; 24.6836 \; 23.9541 \; 23.1751 \; 22.5354 \; 22.18 \; 22.1793 \;
22.5169 \; 23.0968 \; 23.77 \; 24.3705 \; 24.7553 \; 24.8367 \; 24.602
\; 24.1145 \; 23.4973 \; 22.9028 \; 22.3215 \; \;;
#X scalar haxis 13 56 350 347 \;;
#X scalar vaxis 38 16 80 77 \;;
#X coords 0 108 1 107 0 0 0;
#X restore 51 61 pd fig;
#X obj 32 13 templates;
#N canvas 45 350 406 126 z 1;
#X scalar rect 211 67 2 4 \;;
#X scalar rect 361 67 2 4 \;;
#X scalar y-plot 62 69 1 \; 22.3215 \; 22.4762 \; 22.9026 \; 23.4972
\; 24.1144 \; 24.6019 \; 24.8366 \; 24.7553 \; 24.3707 \; 23.7702 \;
23.097 \; 22.517 \; 22.1794 \; 22.1799 \; 22.5353 \; 23.1749 \; 23.9539
\; 24.6835 \; 25.1741 \; 25.2816 \; 24.9457 \; 24.2112 \; 23.2274 \;
22.222 \; 21.4549 \; 21.1597 \; 21.4849 \; 22.4463 \; 23.9029 \; 25.5619
\; 27.0142 \; 27.7955 \; 27.4642 \; 25.6806 \; 22.2733 \; 17.2811 \;
10.9605 \; 3.7568 \; -3.75635 \; -10.9601 \; -17.2808 \; -22.2731 \;
-25.6805 \; -27.4642 \; -27.7955 \; -27.0142 \; -25.562 \; -23.903
\; -22.4463 \; -21.4849 \; -21.1597 \; -21.4549 \; -22.2219 \; -23.2273
\; -24.2111 \; -24.9456 \; -25.2816 \; -25.1741 \; -24.6835 \; -23.954
\; -23.175 \; -22.5353 \; -22.18 \; -22.1794 \; -22.5169 \; -23.0969
\; -23.7701 \; -24.3706 \; -24.7553 \; -24.8366 \; -24.6019 \; -24.1144
\; -23.4972 \; -22.9026 \; -22.4762 \; -22.3215 \; -22.4761 \; -22.9026
\; -23.4971 \; -24.1144 \; -24.6018 \; -24.8366 \; -24.7553 \; -24.3707
\; -23.7702 \; -23.097 \; -22.517 \; -22.1794 \; -22.1799 \; -22.5352
\; -23.1749 \; -23.9539 \; -24.6834 \; -25.1741 \; -25.2816 \; -24.9457
\; -24.2112 \; -23.2274 \; -22.222 \; -21.4549 \; -21.1597 \; -21.4848
\; -22.4462 \; -23.9028 \; -25.5618 \; -27.0141 \; -27.7954 \; -27.4643
\; -25.6808 \; -22.2736 \; -17.2815 \; -10.9609 \; -3.75725 \; 3.7559
\; 10.9597 \; 17.2804 \; 22.2728 \; 25.6803 \; 27.4641 \; 27.7955 \;
27.0143 \; 25.5621 \; 23.9031 \; 22.4464 \; 21.485 \; 21.1598 \; 21.4548
\; 22.2219 \; 23.2272 \; 24.2111 \; 24.9456 \; 25.2816 \; 25.1741 \;
24.6835 \; 23.954 \; 23.175 \; 22.5353 \; 22.18 \; 22.1793 \; 22.5169
\; 23.0969 \; 23.7701 \; 24.3706 \; 24.7553 \; 24.8366 \; 24.6019 \;
24.1145 \; 23.4973 \; 22.9027 \; 22.4762 \; 22.3215 \; 22.4761 \; 22.9025
\; 23.4971 \; 24.1143 \; 24.6018 \; 24.8366 \; 24.7553 \; 24.3707 \;
23.7702 \; 23.097 \; 22.517 \; 22.1794 \; 22.1799 \; 22.5352 \; 23.1748
\; 23.9538 \; 24.6834 \; 25.1741 \; 25.2816 \; 24.9457 \; 24.2112 \;
23.2275 \; 22.2221 \; 21.455 \; 21.1598 \; 21.4848 \; 22.4461 \; 23.9027
\; 25.5618 \; 27.014 \; 27.7954 \; 27.4643 \; 25.6809 \; 22.2738 \;
17.2818 \; 10.9613 \; 3.75771 \; -3.75547 \; -10.9592 \; -17.2801 \;
-22.2725 \; -25.6801 \; -27.464 \; -27.7955 \; -27.0144 \; -25.5623
\; -23.9032 \; -22.4465 \; -21.485 \; -21.1597 \; -21.4548 \; -22.2218
\; -23.2272 \; -24.211 \; -24.9456 \; -25.2816 \; -25.1742 \; -24.6836
\; -23.9541 \; -23.1751 \; -22.5354 \; -22.18 \; -22.1793 \; -22.5169
\; -23.0968 \; -23.7701 \; -24.3706 \; -24.7553 \; -24.8366 \; -24.6019
\; -24.1145 \; -23.4973 \; -22.9027 \; -22.4762 \; -22.3215 \; -22.4761
\; -22.9025 \; -23.497 \; -24.1143 \; -24.6018 \; -24.8366 \; -24.7553
\; -24.3708 \; -23.7703 \; -23.0971 \; -22.5171 \; -22.1794 \; -22.1799
\; -22.5352 \; -23.1748 \; -23.9538 \; -24.6834 \; -25.174 \; -25.2817
\; -24.9458 \; -24.2113 \; -23.2276 \; -22.2222 \; -21.455 \; -21.1597
\; -21.4848 \; -22.446 \; -23.9026 \; -25.5617 \; -27.0139 \; -27.7954
\; -27.4644 \; -25.6811 \; -22.2741 \; -17.2821 \; -10.9617 \; -3.75815
\; 3.75495 \; 10.9588 \; 17.2797 \; 22.2723 \; 25.68 \; 27.464 \; 27.7955
\; 27.0144 \; 25.5624 \; 23.9033 \; 22.4465 \; 21.485 \; 21.1598 \;
21.4548 \; 22.2218 \; 23.2271 \; 24.2109 \; 24.9455 \; 25.2816 \; 25.1742
\; 24.6836 \; 23.9541 \; 23.1751 \; 22.5354 \; 22.18 \; 22.1793 \;
22.5169 \; 23.0968 \; 23.77 \; 24.3705 \; 24.7553 \; 24.8367 \; 24.602
\; 24.1145 \; 23.4973 \; 22.9028 \; 22.3215 \; \;;
#X scalar haxis 37 69 350 347 \;;
#X scalar vaxis 62 29 80 77 \;;
#X coords 0 126 1 125 0 0 0;
#X restore 54 89 pd z;
#N canvas 581 98 644 499 make-fig 0;
#X msg 41 25 \; start pd-z \;;
#X msg 130 19 \; pd-z clear \; start pd-z;
#X obj 51 181 t l l l l;
#X obj 29 359 pack;
#X msg 29 390 \; y-plot-point \$1 \$2 \;;
#X obj 78 368 * 30;
#X msg 155 202 \; add-y-plot \$1 \$2 100 1 \;;
#X obj 147 156 unpack;
#X obj 196 158 + 75;
#X obj 148 178 pack;
#X text 50 137 npts \, xloc \, phase \, amp;
#X obj 27 241 scanner 1 1;
#X obj 27 210 t f f;
#X obj 78 348 *;
#X msg 106 347 \$4;
#X msg 462 15 \; add-haxis 50 100 350 347 \; add-vaxis 75 60 80 77
;
#X obj 51 157 r plot-sq;
#X text 221 8 comment;
#X obj 67 210 / 150;
#X msg 262 122 \; plot-sq 300 0 0 1;
#X msg 250 65 \; add-rect 374 98 2 4 \;;
#X msg 249 28 \; add-rect 224 98 2 4 \;;
#X obj 99 297 expr cos(2 * 3.14159 * $f1) - 0.3333 * cos(2 * 3.14159
* 3*$f1) + 0.2 * cos(2 * 3.14159 * 5*$f1) - 0.14285 * cos(2 * 3.14159
* 7*$f1) + 0.1111 * cos(2 * 3.14159 * 9*$f1) - 0.0909 * cos(2 * 3.14159
* 11*$f1);
#X connect 2 0 12 0;
#X connect 2 1 14 0;
#X connect 2 3 7 0;
#X connect 3 0 4 0;
#X connect 5 0 3 1;
#X connect 7 0 9 0;
#X connect 7 1 8 0;
#X connect 8 0 9 1;
#X connect 9 0 6 0;
#X connect 11 0 3 0;
#X connect 11 1 22 0;
#X connect 12 0 11 0;
#X connect 12 1 18 0;
#X connect 13 0 5 0;
#X connect 14 0 13 1;
#X connect 16 0 2 0;
#X connect 18 0 11 1;
#X connect 22 0 13 0;
#X restore 32 36 pd make-fig;
