#N struct h-seg float x float y float z float w;
#N struct d-arrow float x float y float z;
#N struct l-arrow float x float y float z;
#N struct v-seg float x float y float z float w;
#N struct frame float x float y float w float h;
#N struct y-plot float x float y float w array z y-point;
#N struct y-point float y;
#N struct rect float x float y float w float h;
#N struct times float x float y;
#N struct minus float x float y;
#N struct xy-curve float x float y float w array z xy-point;
#N struct xy-point float x float y;
#N struct seg float x float y float dx float dy float w;
#N struct l-curve-arrow float x float y float z float z2 float z3 float
h;
#N struct circle2 float x float y float h float h2 float mh float mh2
;
#N struct vaxis float x float y float h float h-3;
#N struct xy-plot float x float y float w array z xy-point;
#N struct d-curve-arrow float x float y float z float z2 float z3 float
h;
#N struct circle float x float y float color float h float h2;
#N struct u-curve-arrow float x float y float z float z2 float z3 float
h;
#N struct r-curve-arrow float x float y float z float z2 float z3 float
h;
#N struct r-arrow float x float y float z;
#N struct u-arrow float x float y float z;
#N struct haxis float x float y float w float w-3;
#N struct thickcircle float x float y float color float h float h2
;
#N struct plus float x float y;
#N struct divide float x float y;
#N canvas 679 25 294 185 10;
#N canvas 257 92 267 301 fig 1;
#X scalar h-seg 114 207 84 1 \;;
#X scalar d-arrow 109 281 14 \;;
#X scalar l-arrow 132 187 15 \;;
#X scalar d-arrow 113 66 32 \;;
#X scalar l-arrow 126 56 72 \;;
#X scalar v-seg 197 55 152 1 \;;
#X scalar h-seg 80 113 7 1 \;;
#X scalar d-arrow 113 32 14 \;;
#X text 102 269 OUT;
#X scalar frame 83 221 60 60 \;;
#X scalar y-plot 88 226 1 \; 0 \; 2.25 \; 4.5 \; 6.75 \; 9 \; 11.25
\; 13.5 \; 15.75 \; 18 \; 20.25 \; 22.5 \; 24.75 \; 27 \; 29.25 \;
31.5 \; 33.75 \; 36 \; 38.25 \; 40.5 \; 42.75 \; 0 \; 2.25 \; 4.5 \;
6.75 \; 9 \; 11.25 \; 13.5 \; 15.75 \; 18 \; 20.25 \; 22.5 \; 24.75
\; 27 \; 29.25 \; 31.5 \; 33.75 \; 36 \; 38.25 \; 40.5 \; 42.75 \;
0 \; 2.25 \; 4.5 \; 6.75 \; 9 \; 11.25 \; 13.5 \; 15.75 \; 18 \; 20.25
\; \;;
#X text 57 27 0.5;
#X text 50 65 -0.5;
#X text 73 204 -0.5;
#X text 142 204 0.5;
#X scalar h-seg 159 146 7 1 \;;
#X scalar h-seg 79 146 44 1 \;;
#X text 105 -11 f;
#X text 150 107 b/f;
#X scalar d-arrow 113 197 23 \;;
#X scalar d-arrow 113 160 17 \;;
#X scalar frame 83 99 80 60 \;;
#X scalar rect 92 129 1 -16.6675 \;;
#X scalar rect 95 129 1 -17.2679 \;;
#X scalar rect 98 129 1 -18.8787 \;;
#X scalar rect 101 129 1 -20.9717 \;;
#X scalar rect 104 129 1 -22.8003 \;;
#X scalar rect 107 129 1 -23.5696 \;;
#X scalar rect 110 129 1 -22.6193 \;;
#X scalar rect 113 129 1 -19.5797 \;;
#X scalar rect 116 129 1 -14.4666 \;;
#X scalar rect 119 129 1 -7.69379 \;;
#X scalar rect 122 129 1 -6.33764e-05 \;;
#X scalar rect 125 129 1 7.69367 \;;
#X scalar rect 128 129 1 14.4665 \;;
#X scalar rect 131 129 1 19.5796 \;;
#X scalar rect 134 129 1 22.6193 \;;
#X scalar rect 137 129 1 23.5696 \;;
#X scalar rect 140 129 1 22.8003 \;;
#X scalar rect 143 129 1 20.9717 \;;
#X scalar rect 146 129 1 18.8787 \;;
#X scalar rect 149 129 1 17.2679 \;;
#X scalar rect 152 129 1 16.6675 \;;
#X text 55 148 0.5;
#X text 49 181 -0.5;
#X scalar frame 103 177 20 19 \;;
#X scalar times 109 182 \;;
#X scalar minus 108 50 \;;
#X scalar frame 102 46 23 19 \;;
#X coords 0 301 1 300 0 0 0;
#X restore 42 60 pd fig;
#X obj 42 91 templates;
