#N canvas 0 0 485 304 10;
#X obj 71 62 / 100;
#X floatatom 71 45 4 0 100 0 - - -;
#X obj 112 62 / 100;
#X floatatom 112 45 4 0 100 0 - - -;
#X obj 11 47 phasor~;
#X floatatom 11 29 5 0 0 0 - - -;
#X text 9 11 frequency;
#X obj 55 82 *~;
#X obj 11 83 *~ -1;
#X obj 11 104 +~ 1;
#X obj 78 121 *~;
#X obj 55 142 min~;
#X text 75 27 up;
#X text 113 27 down;
#X floatatom 180 28 0 0 20 0 - - -;
#X obj 180 50 phasor~;
#X obj 179 93 *~;
#X obj 155 140 -~;
#X obj 155 187 *~;
#X floatatom 195 72 3 0 100 0 - - -;
#X obj 156 217 min~;
#X floatatom 205 100 3 0 100 0 - - -;
#X obj 205 123 / 100;
#X floatatom 191 147 3 0 100 0 - - -;
#X obj 191 170 * -1;
#X obj 156 240 clip~ 0 1;
#X text 221 73 slope of rise segment;
#X text 208 27 frequency;
#X text 237 99 Duty cycle;
#X text 248 118 make the phasor cross zero at;
#X text 247 130 the desired point of the cycle.;
#X text 230 148 slope of decay segment;
#X text 228 167 multiply by desired slope \, negating;
#X text 227 180 so that the segment points downward;
#X text 193 207 minimum of rise and decay segments;
#X text 190 221 (makes a triangle wave);
#X text 230 241 clip between 0 and 1 to make the;
#X text 155 254 |;
#X text 84 14 slopes;
#X text 231 253 sustain and silent regions.;
#X text 34 201 (a);
#X text 120 205 (b);
#X text 141 267 (OUT);
#X text 53 156 |;
#X text 39 169 (OUT);
#X connect 0 0 7 1;
#X connect 1 0 0 0;
#X connect 2 0 10 1;
#X connect 3 0 2 0;
#X connect 4 0 7 0;
#X connect 4 0 8 0;
#X connect 5 0 4 0;
#X connect 7 0 11 0;
#X connect 8 0 9 0;
#X connect 9 0 10 0;
#X connect 10 0 11 1;
#X connect 14 0 15 0;
#X connect 15 0 16 0;
#X connect 15 0 17 0;
#X connect 16 0 20 1;
#X connect 17 0 18 0;
#X connect 18 0 20 0;
#X connect 19 0 16 1;
#X connect 20 0 25 0;
#X connect 21 0 22 0;
#X connect 22 0 17 1;
#X connect 23 0 24 0;
#X connect 24 0 18 1;
