#N struct haxis float x float y float w float w-3;
#N struct vaxis float x float y float h float h-3;
#N struct y-plot float x float y float w array z y-point;
#N struct y-point float y;
#N struct rect float x float y float w float h;
#N struct xy-curve float x float y float w array z xy-point;
#N struct xy-point float x float y;
#N struct seg float x float y float dx float dy float w;
#N struct l-curve-arrow float x float y float z float z2 float z3 float
h;
#N struct circle2 float x float y float h float h2 float mh float mh2
;
#N struct xy-plot float x float y float w array z xy-point;
#N struct d-curve-arrow float x float y float z float z2 float z3 float
h;
#N struct circle float x float y float color float h float h2;
#N struct u-curve-arrow float x float y float z float z2 float z3 float
h;
#N struct r-curve-arrow float x float y float z float z2 float z3 float
h;
#N struct r-arrow float x float y float z;
#N struct l-arrow float x float y float z;
#N struct u-arrow float x float y float z;
#N struct d-arrow float x float y float z;
#N struct v-seg float x float y float z float w;
#N struct h-seg float x float y float z float w;
#N struct frame float x float y float w float h;
#N struct thickcircle float x float y float color float h float h2
;
#N struct times float x float y;
#N struct plus float x float y;
#N struct minus float x float y;
#N struct divide float x float y;
#N canvas 159 8 329 179 10;
#N canvas 63 249 384 224 fig 0;
#X text 12 23 (a);
#X scalar haxis 20 180 350 347 \;;
#X scalar vaxis 45 150 60 57 \;;
#X scalar y-plot 45 180 1 \; 0 \; 1.875 \; 3.75 \; 5.625 \; 7.5 \;
9.375 \; 11.25 \; 13.125 \; 15 \; 16.875 \; 18.75 \; 20.625 \; 22.5
\; 24.375 \; 26.25 \; 30 \; \;;
#X scalar y-plot 60 180 1 \; 30 \; 29.1549 \; 28.3099 \; 27.4648 \;
26.6197 \; 25.7746 \; 24.9296 \; 24.0845 \; 23.2394 \; 22.3944 \; 21.5493
\; 20.7042 \; 19.8592 \; 19.0141 \; 18.169 \; 17.3239 \; 16.4789 \;
15.6338 \; 14.7887 \; 13.9437 \; 13.0986 \; 12.2535 \; 11.4085 \; 10.5634
\; 9.71831 \; 8.87324 \; 8.02817 \; 7.1831 \; 6.33803 \; 5.49296 \;
4.64789 \; 3.80282 \; 2.95775 \; 2.11268 \; 1.2676 \; 0.422536 \; -0.422534
\; -1.2676 \; -2.11268 \; -2.95775 \; -3.80282 \; -4.64789 \; -5.49296
\; -6.33803 \; -7.1831 \; -8.02817 \; -8.87324 \; -9.71831 \; -10.5634
\; -11.4085 \; -12.2535 \; -13.0986 \; -13.9437 \; -14.7887 \; -15.6338
\; -16.4789 \; -17.3239 \; -18.169 \; -19.0141 \; -19.8592 \; -20.7042
\; -21.5493 \; -22.3944 \; -23.2394 \; -24.0845 \; -24.9296 \; -25.7746
\; -26.6197 \; -27.4648 \; -28.3099 \; -30 \; \;;
#X scalar y-plot 130 180 1 \; -30 \; -28.125 \; -26.25 \; -24.375 \;
-22.5 \; -20.625 \; -18.75 \; -16.875 \; -15 \; -13.125 \; -11.25 \;
-9.375 \; -7.5 \; -5.625 \; -3.75 \; 0 \; \;;
#X scalar y-plot 145 180 1 \; 0 \; 1.875 \; 3.75 \; 5.625 \; 7.5 \;
9.375 \; 11.25 \; 13.125 \; 15 \; 16.875 \; 18.75 \; 20.625 \; 22.5
\; 24.375 \; 26.25 \; 30 \; \;;
#X scalar y-plot 160 180 1 \; 30 \; 29.1549 \; 28.3099 \; 27.4648 \;
26.6197 \; 25.7746 \; 24.9296 \; 24.0845 \; 23.2394 \; 22.3944 \; 21.5493
\; 20.7042 \; 19.8592 \; 19.0141 \; 18.169 \; 17.3239 \; 16.4789 \;
15.6338 \; 14.7887 \; 13.9437 \; 13.0986 \; 12.2535 \; 11.4085 \; 10.5634
\; 9.71831 \; 8.87324 \; 8.02817 \; 7.1831 \; 6.33803 \; 5.49296 \;
4.64789 \; 3.80282 \; 2.95775 \; 2.11268 \; 1.2676 \; 0.422536 \; -0.422534
\; -1.2676 \; -2.11268 \; -2.95775 \; -3.80282 \; -4.64789 \; -5.49296
\; -6.33803 \; -7.1831 \; -8.02817 \; -8.87324 \; -9.71831 \; -10.5634
\; -11.4085 \; -12.2535 \; -13.0986 \; -13.9437 \; -14.7887 \; -15.6338
\; -16.4789 \; -17.3239 \; -18.169 \; -19.0141 \; -19.8592 \; -20.7042
\; -21.5493 \; -22.3944 \; -23.2394 \; -24.0845 \; -24.9296 \; -25.7746
\; -26.6197 \; -27.4648 \; -28.3099 \; -30 \; \;;
#X scalar y-plot 230 180 1 \; -30 \; -28.125 \; -26.25 \; -24.375 \;
-22.5 \; -20.625 \; -18.75 \; -16.875 \; -15 \; -13.125 \; -11.25 \;
-9.375 \; -7.5 \; -5.625 \; -3.75 \; 0 \; \;;
#X scalar y-plot 245 180 1 \; 0 \; 1.875 \; 3.75 \; 5.625 \; 7.5 \;
9.375 \; 11.25 \; 13.125 \; 15 \; 16.875 \; 18.75 \; 20.625 \; 22.5
\; 24.375 \; 26.25 \; 30 \; \;;
#X scalar y-plot 260 180 1 \; 30 \; 29.1549 \; 28.3099 \; 27.4648 \;
26.6197 \; 25.7746 \; 24.9296 \; 24.0845 \; 23.2394 \; 22.3944 \; 21.5493
\; 20.7042 \; 19.8592 \; 19.0141 \; 18.169 \; 17.3239 \; 16.4789 \;
15.6338 \; 14.7887 \; 13.9437 \; 13.0986 \; 12.2535 \; 11.4085 \; 10.5634
\; 9.71831 \; 8.87324 \; 8.02817 \; 7.1831 \; 6.33803 \; 5.49296 \;
4.64789 \; 3.80282 \; 2.95775 \; 2.11268 \; 1.2676 \; 0.422536 \; -0.422534
\; -1.2676 \; -2.11268 \; -2.95775 \; -3.80282 \; -4.64789 \; -5.49296
\; -6.33803 \; -7.1831 \; -8.02817 \; -8.87324 \; -9.71831 \; -10.5634
\; -11.4085 \; -12.2535 \; -13.0986 \; -13.9437 \; -14.7887 \; -15.6338
\; -16.4789 \; -17.3239 \; -18.169 \; -19.0141 \; -19.8592 \; -20.7042
\; -21.5493 \; -22.3944 \; -23.2394 \; -24.0845 \; -24.9296 \; -25.7746
\; -26.6197 \; -27.4648 \; -28.3099 \; -30 \; \;;
#X scalar y-plot 330 180 1 \; -30 \; -28.125 \; -26.25 \; -24.375 \;
-22.5 \; -20.625 \; -18.75 \; -16.875 \; -15 \; -13.125 \; -11.25 \;
-9.375 \; -7.5 \; -5.625 \; -3.75 \; 0 \; \;;
#X text 12 88 (b);
#X text 12 155 (c);
#X scalar haxis 21 112 350 347 \;;
#X scalar vaxis 46 82 60 57 \;;
#X scalar y-plot 46 112 1 \; 5.59535 \; 6.60966 \; 7.65253 \; 8.72398
\; 9.82401 \; 10.9526 \; 12.1098 \; 13.2955 \; 14.5098 \; 15.7527 \;
17.0242 \; 18.3242 \; 19.6528 \; 21.0099 \; 22.3957 \; 25.2529 \; \;
;
#X scalar y-plot 61 112 1 \; 23.81 \; 22.3957 \; 21.0099 \; 19.6528
\; 18.3242 \; 17.0241 \; 15.7527 \; 14.5098 \; 13.2955 \; 12.1098 \;
10.9526 \; 9.824 \; 8.72398 \; 7.65253 \; 6.60966 \; 5.59535 \; 4.60962
\; 3.65245 \; 2.72386 \; 1.82385 \; 0.9524 \; 0.109525 \; -0.704776
\; -1.49051 \; -2.24766 \; -2.97625 \; -3.67626 \; -4.34771 \; -4.99058
\; -5.60488 \; -6.1906 \; -6.74775 \; -7.27634 \; -7.77635 \; -8.24778
\; -8.69065 \; -9.10494 \; -9.49067 \; -9.84782 \; -10.1764 \; -10.4764
\; -10.7478 \; -10.9907 \; -11.205 \; -11.3907 \; -11.5479 \; -11.6764
\; -11.7764 \; -11.8479 \; -11.8907 \; -11.905 \; -11.8907 \; -11.8479
\; -11.7764 \; -11.6764 \; -11.5479 \; -11.3907 \; -11.205 \; -10.9907
\; -10.7478 \; -10.4764 \; -10.1764 \; -9.84782 \; -9.49067 \; -9.10495
\; -8.69065 \; -8.24778 \; -7.77635 \; -7.27634 \; -6.74775 \; -6.1906
\; -5.60488 \; -4.99058 \; -4.34771 \; -3.67626 \; -2.97625 \; -2.24766
\; -1.4905 \; -0.704774 \; 0.109528 \; 0.9524 \; 1.82385 \; 2.72386
\; 3.65245 \; 4.60962 \; 6.60966 \; \;;
#X scalar y-plot 146 112 1 \; 5.59535 \; 6.60966 \; 7.65253 \; 8.72398
\; 9.82401 \; 10.9526 \; 12.1098 \; 13.2955 \; 14.5098 \; 15.7527 \;
17.0242 \; 18.3242 \; 19.6528 \; 21.0099 \; 22.3957 \; 25.2529 \; \;
;
#X scalar y-plot 161 112 1 \; 23.81 \; 22.3957 \; 21.0099 \; 19.6528
\; 18.3242 \; 17.0241 \; 15.7527 \; 14.5098 \; 13.2955 \; 12.1098 \;
10.9526 \; 9.824 \; 8.72398 \; 7.65253 \; 6.60966 \; 5.59535 \; 4.60962
\; 3.65245 \; 2.72386 \; 1.82385 \; 0.9524 \; 0.109525 \; -0.704776
\; -1.49051 \; -2.24766 \; -2.97625 \; -3.67626 \; -4.34771 \; -4.99058
\; -5.60488 \; -6.1906 \; -6.74775 \; -7.27634 \; -7.77635 \; -8.24778
\; -8.69065 \; -9.10494 \; -9.49067 \; -9.84782 \; -10.1764 \; -10.4764
\; -10.7478 \; -10.9907 \; -11.205 \; -11.3907 \; -11.5479 \; -11.6764
\; -11.7764 \; -11.8479 \; -11.8907 \; -11.905 \; -11.8907 \; -11.8479
\; -11.7764 \; -11.6764 \; -11.5479 \; -11.3907 \; -11.205 \; -10.9907
\; -10.7478 \; -10.4764 \; -10.1764 \; -9.84782 \; -9.49067 \; -9.10495
\; -8.69065 \; -8.24778 \; -7.77635 \; -7.27634 \; -6.74775 \; -6.1906
\; -5.60488 \; -4.99058 \; -4.34771 \; -3.67626 \; -2.97625 \; -2.24766
\; -1.4905 \; -0.704774 \; 0.109528 \; 0.9524 \; 1.82385 \; 2.72386
\; 3.65245 \; 4.60962 \; 6.60966 \; \;;
#X scalar y-plot 246 112 1 \; 5.59535 \; 6.60966 \; 7.65253 \; 8.72398
\; 9.82401 \; 10.9526 \; 12.1098 \; 13.2955 \; 14.5098 \; 15.7527 \;
17.0242 \; 18.3242 \; 19.6528 \; 21.0099 \; 22.3957 \; 25.2529 \; \;
;
#X scalar y-plot 261 112 1 \; 23.81 \; 22.3957 \; 21.0099 \; 19.6528
\; 18.3242 \; 17.0241 \; 15.7527 \; 14.5098 \; 13.2955 \; 12.1098 \;
10.9526 \; 9.824 \; 8.72398 \; 7.65253 \; 6.60966 \; 5.59535 \; 4.60962
\; 3.65245 \; 2.72386 \; 1.82385 \; 0.9524 \; 0.109525 \; -0.704776
\; -1.49051 \; -2.24766 \; -2.97625 \; -3.67626 \; -4.34771 \; -4.99058
\; -5.60488 \; -6.1906 \; -6.74775 \; -7.27634 \; -7.77635 \; -8.24778
\; -8.69065 \; -9.10494 \; -9.49067 \; -9.84782 \; -10.1764 \; -10.4764
\; -10.7478 \; -10.9907 \; -11.205 \; -11.3907 \; -11.5479 \; -11.6764
\; -11.7764 \; -11.8479 \; -11.8907 \; -11.905 \; -11.8907 \; -11.8479
\; -11.7764 \; -11.6764 \; -11.5479 \; -11.3907 \; -11.205 \; -10.9907
\; -10.7478 \; -10.4764 \; -10.1764 \; -9.84782 \; -9.49067 \; -9.10495
\; -8.69065 \; -8.24778 \; -7.77635 \; -7.27634 \; -6.74775 \; -6.1906
\; -5.60488 \; -4.99058 \; -4.34771 \; -3.67626 \; -2.97625 \; -2.24766
\; -1.4905 \; -0.704774 \; 0.109528 \; 0.9524 \; 1.82385 \; 2.72386
\; 3.65245 \; 4.60962 \; 6.60966 \; \;;
#X scalar rect 145 110 2 4 \;;
#X scalar rect 245 110 2 4 \;;
#X scalar rect 345 110 2 4 \;;
#X scalar haxis 21 40 350 347 \;;
#X scalar vaxis 46 10 60 57 \;;
#X scalar rect 145 38 2 4 \;;
#X scalar rect 245 38 2 4 \;;
#X scalar rect 345 38 2 4 \;;
#X scalar y-plot 46 40 1 \; -5.59535 \; -4.60961 \; -3.65245 \; -2.72386
\; -1.82385 \; -0.9524 \; -0.109525 \; 0.704776 \; 1.49051 \; 2.24766
\; 2.97625 \; 3.67626 \; 4.34771 \; 4.99058 \; 5.60488 \; 6.1906 \;
6.74775 \; 7.27634 \; 7.77635 \; 8.24778 \; 8.69065 \; 9.10495 \; 9.49067
\; 9.84782 \; 10.1764 \; 10.4764 \; 10.7478 \; 10.9907 \; 11.205 \;
11.3907 \; 11.5479 \; 11.6764 \; 11.7764 \; 11.8479 \; 11.8907 \; 11.905
\; 11.8907 \; 11.8479 \; 11.7764 \; 11.6764 \; 11.5479 \; 11.3907 \;
11.205 \; 10.9907 \; 10.7478 \; 10.4764 \; 10.1764 \; 9.84782 \; 9.49067
\; 9.10495 \; 8.69065 \; 8.24779 \; 7.77635 \; 7.27633 \; 6.74775 \;
6.1906 \; 5.60487 \; 4.99057 \; 4.34771 \; 3.67626 \; 2.97625 \; 2.24766
\; 1.49051 \; 0.704778 \; -0.109523 \; -0.952405 \; -1.82385 \; -2.72387
\; -3.65246 \; -4.60962 \; -5.59535 \; -6.60966 \; -7.65253 \; -8.72398
\; -9.824 \; -10.9526 \; -12.1098 \; -13.2955 \; -14.5098 \; -15.7527
\; -17.0242 \; -18.3242 \; -19.6528 \; -21.0099 \; -22.3957 \; -25.2529
\; \;;
#X scalar y-plot 131 40 1 \; -23.81 \; -22.3957 \; -21.0099 \; -19.6528
\; -18.3242 \; -17.0241 \; -15.7527 \; -14.5098 \; -13.2955 \; -12.1098
\; -10.9526 \; -9.824 \; -8.72398 \; -7.65253 \; -6.60966 \; -4.60962
\; \;;
#X scalar y-plot 146 40 1 \; -5.59535 \; -4.60961 \; -3.65245 \; -2.72386
\; -1.82385 \; -0.9524 \; -0.109525 \; 0.704776 \; 1.49051 \; 2.24766
\; 2.97625 \; 3.67626 \; 4.34771 \; 4.99058 \; 5.60488 \; 6.1906 \;
6.74775 \; 7.27634 \; 7.77635 \; 8.24778 \; 8.69065 \; 9.10495 \; 9.49067
\; 9.84782 \; 10.1764 \; 10.4764 \; 10.7478 \; 10.9907 \; 11.205 \;
11.3907 \; 11.5479 \; 11.6764 \; 11.7764 \; 11.8479 \; 11.8907 \; 11.905
\; 11.8907 \; 11.8479 \; 11.7764 \; 11.6764 \; 11.5479 \; 11.3907 \;
11.205 \; 10.9907 \; 10.7478 \; 10.4764 \; 10.1764 \; 9.84782 \; 9.49067
\; 9.10495 \; 8.69065 \; 8.24779 \; 7.77635 \; 7.27633 \; 6.74775 \;
6.1906 \; 5.60487 \; 4.99057 \; 4.34771 \; 3.67626 \; 2.97625 \; 2.24766
\; 1.49051 \; 0.704778 \; -0.109523 \; -0.952405 \; -1.82385 \; -2.72387
\; -3.65246 \; -4.60962 \; -5.59535 \; -6.60966 \; -7.65253 \; -8.72398
\; -9.824 \; -10.9526 \; -12.1098 \; -13.2955 \; -14.5098 \; -15.7527
\; -17.0242 \; -18.3242 \; -19.6528 \; -21.0099 \; -22.3957 \; -25.2529
\; \;;
#X scalar y-plot 231 40 1 \; -23.81 \; -22.3957 \; -21.0099 \; -19.6528
\; -18.3242 \; -17.0241 \; -15.7527 \; -14.5098 \; -13.2955 \; -12.1098
\; -10.9526 \; -9.824 \; -8.72398 \; -7.65253 \; -6.60966 \; -4.60962
\; \;;
#X scalar y-plot 246 40 1 \; -5.59535 \; -4.60961 \; -3.65245 \; -2.72386
\; -1.82385 \; -0.9524 \; -0.109525 \; 0.704776 \; 1.49051 \; 2.24766
\; 2.97625 \; 3.67626 \; 4.34771 \; 4.99058 \; 5.60488 \; 6.1906 \;
6.74775 \; 7.27634 \; 7.77635 \; 8.24778 \; 8.69065 \; 9.10495 \; 9.49067
\; 9.84782 \; 10.1764 \; 10.4764 \; 10.7478 \; 10.9907 \; 11.205 \;
11.3907 \; 11.5479 \; 11.6764 \; 11.7764 \; 11.8479 \; 11.8907 \; 11.905
\; 11.8907 \; 11.8479 \; 11.7764 \; 11.6764 \; 11.5479 \; 11.3907 \;
11.205 \; 10.9907 \; 10.7478 \; 10.4764 \; 10.1764 \; 9.84782 \; 9.49067
\; 9.10495 \; 8.69065 \; 8.24779 \; 7.77635 \; 7.27633 \; 6.74775 \;
6.1906 \; 5.60487 \; 4.99057 \; 4.34771 \; 3.67626 \; 2.97625 \; 2.24766
\; 1.49051 \; 0.704778 \; -0.109523 \; -0.952405 \; -1.82385 \; -2.72387
\; -3.65246 \; -4.60962 \; -5.59535 \; -6.60966 \; -7.65253 \; -8.72398
\; -9.824 \; -10.9526 \; -12.1098 \; -13.2955 \; -14.5098 \; -15.7527
\; -17.0242 \; -18.3242 \; -19.6528 \; -21.0099 \; -22.3957 \; -25.2529
\; \;;
#X scalar y-plot 331 40 1 \; -23.81 \; -22.3957 \; -21.0099 \; -19.6528
\; -18.3242 \; -17.0241 \; -15.7527 \; -14.5098 \; -13.2955 \; -12.1098
\; -10.9526 \; -9.824 \; -8.72398 \; -7.65253 \; -6.60966 \; -4.60962
\; \;;
#X coords 0 224 1 223 0 0 0;
#X restore 51 61 pd fig;
#X obj 170 42 templates;
#N canvas 132 519 464 288 z 0;
#X scalar haxis 50 100 350 347 \;;
#X scalar vaxis 75 70 60 57 \;;
#X scalar rect 174 98 2 4 \;;
#X scalar rect 274 98 2 4 \;;
#X scalar rect 374 98 2 4 \;;
#X scalar y-plot 75 100 1 \; -5.59535 \; -4.60961 \; -3.65245 \; -2.72386
\; -1.82385 \; -0.9524 \; -0.109525 \; 0.704776 \; 1.49051 \; 2.24766
\; 2.97625 \; 3.67626 \; 4.34771 \; 4.99058 \; 5.60488 \; 6.1906 \;
6.74775 \; 7.27634 \; 7.77635 \; 8.24778 \; 8.69065 \; 9.10495 \; 9.49067
\; 9.84782 \; 10.1764 \; 10.4764 \; 10.7478 \; 10.9907 \; 11.205 \;
11.3907 \; 11.5479 \; 11.6764 \; 11.7764 \; 11.8479 \; 11.8907 \; 11.905
\; 11.8907 \; 11.8479 \; 11.7764 \; 11.6764 \; 11.5479 \; 11.3907 \;
11.205 \; 10.9907 \; 10.7478 \; 10.4764 \; 10.1764 \; 9.84782 \; 9.49067
\; 9.10495 \; 8.69065 \; 8.24779 \; 7.77635 \; 7.27633 \; 6.74775 \;
6.1906 \; 5.60487 \; 4.99057 \; 4.34771 \; 3.67626 \; 2.97625 \; 2.24766
\; 1.49051 \; 0.704778 \; -0.109523 \; -0.952405 \; -1.82385 \; -2.72387
\; -3.65246 \; -4.60962 \; -5.59535 \; -6.60966 \; -7.65253 \; -8.72398
\; -9.824 \; -10.9526 \; -12.1098 \; -13.2955 \; -14.5098 \; -15.7527
\; -17.0242 \; -18.3242 \; -19.6528 \; -21.0099 \; -22.3957 \; -25.2529
\; \;;
#X scalar y-plot 160 100 1 \; -23.81 \; -22.3957 \; -21.0099 \; -19.6528
\; -18.3242 \; -17.0241 \; -15.7527 \; -14.5098 \; -13.2955 \; -12.1098
\; -10.9526 \; -9.824 \; -8.72398 \; -7.65253 \; -6.60966 \; -4.60962
\; \;;
#X scalar y-plot 175 100 1 \; -5.59535 \; -4.60961 \; -3.65245 \; -2.72386
\; -1.82385 \; -0.9524 \; -0.109525 \; 0.704776 \; 1.49051 \; 2.24766
\; 2.97625 \; 3.67626 \; 4.34771 \; 4.99058 \; 5.60488 \; 6.1906 \;
6.74775 \; 7.27634 \; 7.77635 \; 8.24778 \; 8.69065 \; 9.10495 \; 9.49067
\; 9.84782 \; 10.1764 \; 10.4764 \; 10.7478 \; 10.9907 \; 11.205 \;
11.3907 \; 11.5479 \; 11.6764 \; 11.7764 \; 11.8479 \; 11.8907 \; 11.905
\; 11.8907 \; 11.8479 \; 11.7764 \; 11.6764 \; 11.5479 \; 11.3907 \;
11.205 \; 10.9907 \; 10.7478 \; 10.4764 \; 10.1764 \; 9.84782 \; 9.49067
\; 9.10495 \; 8.69065 \; 8.24779 \; 7.77635 \; 7.27633 \; 6.74775 \;
6.1906 \; 5.60487 \; 4.99057 \; 4.34771 \; 3.67626 \; 2.97625 \; 2.24766
\; 1.49051 \; 0.704778 \; -0.109523 \; -0.952405 \; -1.82385 \; -2.72387
\; -3.65246 \; -4.60962 \; -5.59535 \; -6.60966 \; -7.65253 \; -8.72398
\; -9.824 \; -10.9526 \; -12.1098 \; -13.2955 \; -14.5098 \; -15.7527
\; -17.0242 \; -18.3242 \; -19.6528 \; -21.0099 \; -22.3957 \; -25.2529
\; \;;
#X scalar y-plot 260 100 1 \; -23.81 \; -22.3957 \; -21.0099 \; -19.6528
\; -18.3242 \; -17.0241 \; -15.7527 \; -14.5098 \; -13.2955 \; -12.1098
\; -10.9526 \; -9.824 \; -8.72398 \; -7.65253 \; -6.60966 \; -4.60962
\; \;;
#X scalar y-plot 275 100 1 \; -5.59535 \; -4.60961 \; -3.65245 \; -2.72386
\; -1.82385 \; -0.9524 \; -0.109525 \; 0.704776 \; 1.49051 \; 2.24766
\; 2.97625 \; 3.67626 \; 4.34771 \; 4.99058 \; 5.60488 \; 6.1906 \;
6.74775 \; 7.27634 \; 7.77635 \; 8.24778 \; 8.69065 \; 9.10495 \; 9.49067
\; 9.84782 \; 10.1764 \; 10.4764 \; 10.7478 \; 10.9907 \; 11.205 \;
11.3907 \; 11.5479 \; 11.6764 \; 11.7764 \; 11.8479 \; 11.8907 \; 11.905
\; 11.8907 \; 11.8479 \; 11.7764 \; 11.6764 \; 11.5479 \; 11.3907 \;
11.205 \; 10.9907 \; 10.7478 \; 10.4764 \; 10.1764 \; 9.84782 \; 9.49067
\; 9.10495 \; 8.69065 \; 8.24779 \; 7.77635 \; 7.27633 \; 6.74775 \;
6.1906 \; 5.60487 \; 4.99057 \; 4.34771 \; 3.67626 \; 2.97625 \; 2.24766
\; 1.49051 \; 0.704778 \; -0.109523 \; -0.952405 \; -1.82385 \; -2.72387
\; -3.65246 \; -4.60962 \; -5.59535 \; -6.60966 \; -7.65253 \; -8.72398
\; -9.824 \; -10.9526 \; -12.1098 \; -13.2955 \; -14.5098 \; -15.7527
\; -17.0242 \; -18.3242 \; -19.6528 \; -21.0099 \; -22.3957 \; -25.2529
\; \;;
#X scalar y-plot 360 100 1 \; -23.81 \; -22.3957 \; -21.0099 \; -19.6528
\; -18.3242 \; -17.0241 \; -15.7527 \; -14.5098 \; -13.2955 \; -12.1098
\; -10.9526 \; -9.824 \; -8.72398 \; -7.65253 \; -6.60966 \; -4.60962
\; \;;
#X coords 0 288 1 287 0 0 0;
#X restore 54 89 pd z;
#N canvas 193 201 982 588 make-fig 0;
#X msg 41 25 \; start pd-z \;;
#X msg 130 19 \; pd-z clear \; start pd-z;
#X msg 797 37 \; add-haxis 50 100 350 347 \; add-vaxis 75 60 80 77
;
#X obj 63 86 r plot-segment;
#X obj 94 185 *;
#X obj 95 210 +;
#X obj 132 183 -;
#X obj 63 110 t l l l l;
#X obj 46 230 pack;
#X msg 46 261 \; y-plot-point \$1 \$2 \;;
#X obj 94 232 * 30;
#X msg 179 178 \; add-y-plot \$1 \$2 100 1 \;;
#X msg 129 161 \$4 \$3;
#X msg 137 213 \$3;
#X obj 178 127 unpack;
#X obj 227 129 + 75;
#X obj 179 149 pack;
#X msg 359 452 \; add-rect 174 98 2 4 \;;
#X msg 359 487 \; add-rect 274 98 2 4 \;;
#X msg 357 531 \; add-rect 374 98 2 4 \;;
#X msg 609 11 \; add-haxis 50 100 350 347 \; add-vaxis 75 70 60 57
;
#X obj 52 347 t l l l l;
#X obj 32 505 pack;
#X msg 32 536 \; y-plot-point \$1 \$2 \;;
#X obj 81 514 * 30;
#X msg 149 369 \; add-y-plot \$1 \$2 100 1 \;;
#X obj 148 322 unpack;
#X obj 197 324 + 75;
#X obj 149 344 pack;
#X obj 52 323 r plot-para;
#X text 51 303 npts \, xloc \, phase \, amp;
#X text 66 70 npts \, xloc \, y1 \, y2;
#X obj 43 140 scanner 0 1;
#X obj 28 407 scanner 1 1;
#X obj 28 376 t f f;
#X obj 68 376 / 100;
#X msg 143 413 \$3;
#X obj 81 494 *;
#X msg 129 497 \$4;
#X obj 80 451 +;
#X obj 80 472 expr -0.5*($f1-0.5)*($f1-0.5) + 1./24.;
#X msg 820 182 \; plot-para 101 0 0 8 \;;
#X msg 819 214 \; plot-para 101 100 0 8 \;;
#X msg 815 251 \; plot-para 101 200 0 8 \;;
#X msg 389 51 \; plot-segment 16 0 0 1 \;;
#X msg 389 86 \; plot-segment 71 15 1 -1 \;;
#X msg 389 121 \; plot-segment 16 85 -1 0 \;;
#X msg 389 165 \; plot-segment 16 100 0 1 \;;
#X msg 389 200 \; plot-segment 71 115 1 -1 \;;
#X msg 389 235 \; plot-segment 16 185 -1 0 \;;
#X msg 393 281 \; plot-segment 16 200 0 1 \;;
#X msg 393 316 \; plot-segment 71 215 1 -1 \;;
#X msg 393 351 \; plot-segment 16 285 -1 0 \;;
#X msg 602 71 \; plot-para 16 0 0.85 -9.524 \;;
#X msg 603 106 \; plot-para 86 15 0 -9.524 \;;
#X msg 603 144 \; plot-para 16 100 0.85 -9.524 \;;
#X msg 604 179 \; plot-para 86 115 0 -9.524 \;;
#X msg 604 219 \; plot-para 16 200 0.85 -9.524 \;;
#X msg 605 254 \; plot-para 86 215 0 -9.524 \;;
#X msg 613 333 \; plot-para 86 0 0.15 9.524 \;;
#X msg 612 369 \; plot-para 16 85 0 9.524 \;;
#X msg 614 405 \; plot-para 86 100 0.15 9.524 \;;
#X msg 613 441 \; plot-para 16 185 0 9.524 \;;
#X msg 615 477 \; plot-para 86 200 0.15 9.524 \;;
#X msg 614 513 \; plot-para 16 285 0 9.524 \;;
#X connect 3 0 7 0;
#X connect 4 0 5 0;
#X connect 5 0 10 0;
#X connect 6 0 4 1;
#X connect 7 0 32 0;
#X connect 7 1 13 0;
#X connect 7 2 12 0;
#X connect 7 3 14 0;
#X connect 8 0 9 0;
#X connect 10 0 8 1;
#X connect 12 0 6 0;
#X connect 13 0 5 1;
#X connect 14 0 16 0;
#X connect 14 1 15 0;
#X connect 15 0 16 1;
#X connect 16 0 11 0;
#X connect 21 0 34 0;
#X connect 21 1 38 0;
#X connect 21 2 36 0;
#X connect 21 3 26 0;
#X connect 22 0 23 0;
#X connect 24 0 22 1;
#X connect 26 0 28 0;
#X connect 26 1 27 0;
#X connect 27 0 28 1;
#X connect 28 0 25 0;
#X connect 29 0 21 0;
#X connect 32 0 8 0;
#X connect 32 1 4 0;
#X connect 33 0 22 0;
#X connect 33 1 39 0;
#X connect 34 0 33 0;
#X connect 34 1 35 0;
#X connect 35 0 33 1;
#X connect 36 0 39 1;
#X connect 37 0 24 0;
#X connect 38 0 37 1;
#X connect 39 0 40 0;
#X connect 40 0 37 0;
#X restore 170 83 pd make-fig;
