#N struct haxis float x float y float w float w-3;
#N struct vaxis float x float y float h float h-3;
#N struct y-plot float x float y float w array z y-point;
#N struct y-point float y;
#N struct xy-curve float x float y float w array z xy-point;
#N struct xy-point float x float y;
#N struct seg float x float y float dx float dy float w;
#N struct l-curve-arrow float x float y float z float z2 float z3 float
h;
#N struct circle2 float x float y float h float h2 float mh float mh2
;
#N struct xy-plot float x float y float w array z xy-point;
#N struct d-curve-arrow float x float y float z float z2 float z3 float
h;
#N struct circle float x float y float color float h float h2;
#N struct u-curve-arrow float x float y float z float z2 float z3 float
h;
#N struct r-curve-arrow float x float y float z float z2 float z3 float
h;
#N struct r-arrow float x float y float z;
#N struct l-arrow float x float y float z;
#N struct u-arrow float x float y float z;
#N struct d-arrow float x float y float z;
#N struct v-seg float x float y float z float w;
#N struct h-seg float x float y float z float w;
#N struct rect float x float y float w float h;
#N struct frame float x float y float w float h;
#N struct thickcircle float x float y float color float h float h2
;
#N canvas 34 349 329 179 10;
#N canvas 177 64 397 367 fig 1;
#X scalar haxis 23 60 350 347 \;;
#X scalar haxis 23 60 350 347 \;;
#X scalar haxis 23 60 350 347 \;;
#X scalar vaxis 48 20 80 77 \;;
#X scalar vaxis 48 20 80 77 \;;
#X scalar vaxis 48 20 80 77 \;;
#X scalar y-plot 48 90 1 \; 0 \; 0 \; 0 \; 0 \; 0 \; 0 \; 0 \; 0 \;
0 \; 0 \; 0 \; 0 \; 0 \; 0 \; 0 \; 0 \; 0 \; 0 \; 0 \; 0 \; 0 \; 0
\; 0 \; 0 \; 0 \; 0 \; 0 \; 0 \; 0 \; 0 \; 0 \; 0 \; 0 \; 0 \; 0 \;
0 \; 0 \; 0 \; 0 \; 0 \; 0 \; 0 \; 0 \; 0 \; 0 \; 0 \; 0 \; 0 \; 0
\; 0 \; 0 \; \;;
#X scalar y-plot 48 90 1 \; 0 \; 0 \; 0 \; 0 \; 0 \; 0 \; 0 \; 0 \;
0 \; 0 \; 0 \; 0 \; 0 \; 0 \; 0 \; 0 \; 0 \; 0 \; 0 \; 0 \; 0 \; 0
\; 0 \; 0 \; 0 \; 0 \; 0 \; 0 \; 0 \; 0 \; 0 \; 0 \; 0 \; 0 \; 0 \;
0 \; 0 \; 0 \; 0 \; 0 \; 0 \; 0 \; 0 \; 0 \; 0 \; 0 \; 0 \; 0 \; 0
\; 0 \; 0 \; \;;
#X scalar y-plot 48 90 1 \; 0 \; 0 \; 0 \; 0 \; 0 \; 0 \; 0 \; 0 \;
0 \; 0 \; 0 \; 0 \; 0 \; 0 \; 0 \; 0 \; 0 \; 0 \; 0 \; 0 \; 0 \; 0
\; 0 \; 0 \; 0 \; 0 \; 0 \; 0 \; 0 \; 0 \; 0 \; 0 \; 0 \; 0 \; 0 \;
0 \; 0 \; 0 \; 0 \; 0 \; 0 \; 0 \; 0 \; 0 \; 0 \; 0 \; 0 \; 0 \; 0
\; 0 \; 0 \; \;;
#X scalar y-plot 98 30 1 \; 0 \; 0 \; 0 \; 0 \; 0 \; 0 \; 0 \; 0 \;
0 \; 0 \; 0 \; 0 \; 0 \; 0 \; 0 \; 0 \; 0 \; 0 \; 0 \; 0 \; 0 \; 0
\; 0 \; 0 \; 0 \; 0 \; 0 \; 0 \; 0 \; 0 \; 0 \; 0 \; 0 \; 0 \; 0 \;
0 \; 0 \; 0 \; 0 \; 0 \; 0 \; 0 \; 0 \; 0 \; 0 \; 0 \; 0 \; 0 \; 0
\; 0 \; 0 \; \;;
#X scalar y-plot 98 30 1 \; 0 \; 0 \; 0 \; 0 \; 0 \; 0 \; 0 \; 0 \;
0 \; 0 \; 0 \; 0 \; 0 \; 0 \; 0 \; 0 \; 0 \; 0 \; 0 \; 0 \; 0 \; 0
\; 0 \; 0 \; 0 \; 0 \; 0 \; 0 \; 0 \; 0 \; 0 \; 0 \; 0 \; 0 \; 0 \;
0 \; 0 \; 0 \; 0 \; 0 \; 0 \; 0 \; 0 \; 0 \; 0 \; 0 \; 0 \; 0 \; 0
\; 0 \; 0 \; \;;
#X scalar y-plot 98 30 1 \; 0 \; 0 \; 0 \; 0 \; 0 \; 0 \; 0 \; 0 \;
0 \; 0 \; 0 \; 0 \; 0 \; 0 \; 0 \; 0 \; 0 \; 0 \; 0 \; 0 \; 0 \; 0
\; 0 \; 0 \; 0 \; 0 \; 0 \; 0 \; 0 \; 0 \; 0 \; 0 \; 0 \; 0 \; 0 \;
0 \; 0 \; 0 \; 0 \; 0 \; 0 \; 0 \; 0 \; 0 \; 0 \; 0 \; 0 \; 0 \; 0
\; 0 \; 0 \; \;;
#X scalar y-plot 148 90 1 \; 0 \; 0 \; 0 \; 0 \; 0 \; 0 \; 0 \; 0 \;
0 \; 0 \; 0 \; 0 \; 0 \; 0 \; 0 \; 0 \; 0 \; 0 \; 0 \; 0 \; 0 \; 0
\; 0 \; 0 \; 0 \; 0 \; 0 \; 0 \; 0 \; 0 \; 0 \; 0 \; 0 \; 0 \; 0 \;
0 \; 0 \; 0 \; 0 \; 0 \; 0 \; 0 \; 0 \; 0 \; 0 \; 0 \; 0 \; 0 \; 0
\; 0 \; 0 \; \;;
#X scalar y-plot 148 90 1 \; 0 \; 0 \; 0 \; 0 \; 0 \; 0 \; 0 \; 0 \;
0 \; 0 \; 0 \; 0 \; 0 \; 0 \; 0 \; 0 \; 0 \; 0 \; 0 \; 0 \; 0 \; 0
\; 0 \; 0 \; 0 \; 0 \; 0 \; 0 \; 0 \; 0 \; 0 \; 0 \; 0 \; 0 \; 0 \;
0 \; 0 \; 0 \; 0 \; 0 \; 0 \; 0 \; 0 \; 0 \; 0 \; 0 \; 0 \; 0 \; 0
\; 0 \; 0 \; \;;
#X scalar y-plot 148 90 1 \; 0 \; 0 \; 0 \; 0 \; 0 \; 0 \; 0 \; 0 \;
0 \; 0 \; 0 \; 0 \; 0 \; 0 \; 0 \; 0 \; 0 \; 0 \; 0 \; 0 \; 0 \; 0
\; 0 \; 0 \; 0 \; 0 \; 0 \; 0 \; 0 \; 0 \; 0 \; 0 \; 0 \; 0 \; 0 \;
0 \; 0 \; 0 \; 0 \; 0 \; 0 \; 0 \; 0 \; 0 \; 0 \; 0 \; 0 \; 0 \; 0
\; 0 \; 0 \; \;;
#X scalar y-plot 198 30 1 \; 0 \; 0 \; 0 \; 0 \; 0 \; 0 \; 0 \; 0 \;
0 \; 0 \; 0 \; 0 \; 0 \; 0 \; 0 \; 0 \; 0 \; 0 \; 0 \; 0 \; 0 \; 0
\; 0 \; 0 \; 0 \; 0 \; 0 \; 0 \; 0 \; 0 \; 0 \; 0 \; 0 \; 0 \; 0 \;
0 \; 0 \; 0 \; 0 \; 0 \; 0 \; 0 \; 0 \; 0 \; 0 \; 0 \; 0 \; 0 \; 0
\; 0 \; 0 \; \;;
#X scalar y-plot 198 30 1 \; 0 \; 0 \; 0 \; 0 \; 0 \; 0 \; 0 \; 0 \;
0 \; 0 \; 0 \; 0 \; 0 \; 0 \; 0 \; 0 \; 0 \; 0 \; 0 \; 0 \; 0 \; 0
\; 0 \; 0 \; 0 \; 0 \; 0 \; 0 \; 0 \; 0 \; 0 \; 0 \; 0 \; 0 \; 0 \;
0 \; 0 \; 0 \; 0 \; 0 \; 0 \; 0 \; 0 \; 0 \; 0 \; 0 \; 0 \; 0 \; 0
\; 0 \; 0 \; \;;
#X scalar y-plot 198 30 1 \; 0 \; 0 \; 0 \; 0 \; 0 \; 0 \; 0 \; 0 \;
0 \; 0 \; 0 \; 0 \; 0 \; 0 \; 0 \; 0 \; 0 \; 0 \; 0 \; 0 \; 0 \; 0
\; 0 \; 0 \; 0 \; 0 \; 0 \; 0 \; 0 \; 0 \; 0 \; 0 \; 0 \; 0 \; 0 \;
0 \; 0 \; 0 \; 0 \; 0 \; 0 \; 0 \; 0 \; 0 \; 0 \; 0 \; 0 \; 0 \; 0
\; 0 \; 0 \; \;;
#X scalar y-plot 248 90 1 \; 0 \; 0 \; 0 \; 0 \; 0 \; 0 \; 0 \; 0 \;
0 \; 0 \; 0 \; 0 \; 0 \; 0 \; 0 \; 0 \; 0 \; 0 \; 0 \; 0 \; 0 \; 0
\; 0 \; 0 \; 0 \; 0 \; 0 \; 0 \; 0 \; 0 \; 0 \; 0 \; 0 \; 0 \; 0 \;
0 \; 0 \; 0 \; 0 \; 0 \; 0 \; 0 \; 0 \; 0 \; 0 \; 0 \; 0 \; 0 \; 0
\; 0 \; 0 \; \;;
#X scalar y-plot 248 90 1 \; 0 \; 0 \; 0 \; 0 \; 0 \; 0 \; 0 \; 0 \;
0 \; 0 \; 0 \; 0 \; 0 \; 0 \; 0 \; 0 \; 0 \; 0 \; 0 \; 0 \; 0 \; 0
\; 0 \; 0 \; 0 \; 0 \; 0 \; 0 \; 0 \; 0 \; 0 \; 0 \; 0 \; 0 \; 0 \;
0 \; 0 \; 0 \; 0 \; 0 \; 0 \; 0 \; 0 \; 0 \; 0 \; 0 \; 0 \; 0 \; 0
\; 0 \; 0 \; \;;
#X scalar y-plot 248 90 1 \; 0 \; 0 \; 0 \; 0 \; 0 \; 0 \; 0 \; 0 \;
0 \; 0 \; 0 \; 0 \; 0 \; 0 \; 0 \; 0 \; 0 \; 0 \; 0 \; 0 \; 0 \; 0
\; 0 \; 0 \; 0 \; 0 \; 0 \; 0 \; 0 \; 0 \; 0 \; 0 \; 0 \; 0 \; 0 \;
0 \; 0 \; 0 \; 0 \; 0 \; 0 \; 0 \; 0 \; 0 \; 0 \; 0 \; 0 \; 0 \; 0
\; 0 \; 0 \; \;;
#X scalar y-plot 298 30 1 \; 0 \; 0 \; 0 \; 0 \; 0 \; 0 \; 0 \; 0 \;
0 \; 0 \; 0 \; 0 \; 0 \; 0 \; 0 \; 0 \; 0 \; 0 \; 0 \; 0 \; 0 \; 0
\; 0 \; 0 \; 0 \; 0 \; 0 \; 0 \; 0 \; 0 \; 0 \; 0 \; 0 \; 0 \; 0 \;
0 \; 0 \; 0 \; 0 \; 0 \; 0 \; 0 \; 0 \; 0 \; 0 \; 0 \; 0 \; 0 \; 0
\; 0 \; 0 \; \;;
#X scalar y-plot 298 30 1 \; 0 \; 0 \; 0 \; 0 \; 0 \; 0 \; 0 \; 0 \;
0 \; 0 \; 0 \; 0 \; 0 \; 0 \; 0 \; 0 \; 0 \; 0 \; 0 \; 0 \; 0 \; 0
\; 0 \; 0 \; 0 \; 0 \; 0 \; 0 \; 0 \; 0 \; 0 \; 0 \; 0 \; 0 \; 0 \;
0 \; 0 \; 0 \; 0 \; 0 \; 0 \; 0 \; 0 \; 0 \; 0 \; 0 \; 0 \; 0 \; 0
\; 0 \; 0 \; \;;
#X scalar y-plot 298 30 1 \; 0 \; 0 \; 0 \; 0 \; 0 \; 0 \; 0 \; 0 \;
0 \; 0 \; 0 \; 0 \; 0 \; 0 \; 0 \; 0 \; 0 \; 0 \; 0 \; 0 \; 0 \; 0
\; 0 \; 0 \; 0 \; 0 \; 0 \; 0 \; 0 \; 0 \; 0 \; 0 \; 0 \; 0 \; 0 \;
0 \; 0 \; 0 \; 0 \; 0 \; 0 \; 0 \; 0 \; 0 \; 0 \; 0 \; 0 \; 0 \; 0
\; 0 \; 0 \; \;;
#X scalar haxis 23 149 350 347 \;;
#X scalar haxis 23 149 350 347 \;;
#X scalar haxis 23 149 350 347 \;;
#X scalar vaxis 48 109 80 77 \;;
#X scalar vaxis 48 109 80 77 \;;
#X scalar vaxis 48 109 80 77 \;;
#X scalar y-plot 48 149 1 \; 0 \; 0 \; 0 \; 0 \; 0 \; 0 \; 0 \; 0 \;
0 \; 0 \; 0 \; 0 \; 0 \; 0 \; 0 \; 0 \; 0 \; 0 \; 0 \; 0 \; 0 \; 0
\; 0 \; 0 \; 0 \; 0 \; 0 \; 0 \; 0 \; 0 \; 0 \; 0 \; 0 \; 0 \; 0 \;
0 \; 0 \; 0 \; 0 \; 0 \; 0 \; 0 \; 0 \; 0 \; 0 \; 0 \; 0 \; 0 \; 0
\; 0 \; 0 \; \;;
#X scalar y-plot 48 149 1 \; 0 \; 0 \; 0 \; 0 \; 0 \; 0 \; 0 \; 0 \;
0 \; 0 \; 0 \; 0 \; 0 \; 0 \; 0 \; 0 \; 0 \; 0 \; 0 \; 0 \; 0 \; 0
\; 0 \; 0 \; 0 \; 0 \; 0 \; 0 \; 0 \; 0 \; 0 \; 0 \; 0 \; 0 \; 0 \;
0 \; 0 \; 0 \; 0 \; 0 \; 0 \; 0 \; 0 \; 0 \; 0 \; 0 \; 0 \; 0 \; 0
\; 0 \; 0 \; \;;
#X scalar y-plot 48 149 1 \; 30 \; 28.8 \; 27.6 \; 26.4 \; 25.2 \;
24 \; 22.8 \; 21.6 \; 20.4 \; 19.2 \; 18 \; 16.8 \; 15.6 \; 14.4 \;
13.2 \; 12 \; 10.8 \; 9.6 \; 8.4 \; 7.2 \; 6 \; 4.8 \; 3.6 \; 2.4 \;
1.2 \; 0 \; -1.2 \; -2.4 \; -3.6 \; -4.8 \; -6 \; -7.2 \; -8.4 \; -9.6
\; -10.8 \; -12 \; -13.2 \; -14.4 \; -15.6 \; -16.8 \; -18 \; -19.2
\; -20.4 \; -21.6 \; -22.8 \; -24 \; -25.2 \; -26.4 \; -27.6 \; -28.8
\; -30 \; \;;
#X scalar y-plot 98 149 1 \; 0 \; 0 \; 0 \; 0 \; 0 \; 0 \; 0 \; 0 \;
0 \; 0 \; 0 \; 0 \; 0 \; 0 \; 0 \; 0 \; 0 \; 0 \; 0 \; 0 \; 0 \; 0
\; 0 \; 0 \; 0 \; 0 \; 0 \; 0 \; 0 \; 0 \; 0 \; 0 \; 0 \; 0 \; 0 \;
0 \; 0 \; 0 \; 0 \; 0 \; 0 \; 0 \; 0 \; 0 \; 0 \; 0 \; 0 \; 0 \; 0
\; 0 \; 0 \; \;;
#X scalar y-plot 98 149 1 \; 0 \; 0 \; 0 \; 0 \; 0 \; 0 \; 0 \; 0 \;
0 \; 0 \; 0 \; 0 \; 0 \; 0 \; 0 \; 0 \; 0 \; 0 \; 0 \; 0 \; 0 \; 0
\; 0 \; 0 \; 0 \; 0 \; 0 \; 0 \; 0 \; 0 \; 0 \; 0 \; 0 \; 0 \; 0 \;
0 \; 0 \; 0 \; 0 \; 0 \; 0 \; 0 \; 0 \; 0 \; 0 \; 0 \; 0 \; 0 \; 0
\; 0 \; 0 \; \;;
#X scalar y-plot 98 149 1 \; 30 \; 28.8 \; 27.6 \; 26.4 \; 25.2 \;
24 \; 22.8 \; 21.6 \; 20.4 \; 19.2 \; 18 \; 16.8 \; 15.6 \; 14.4 \;
13.2 \; 12 \; 10.8 \; 9.6 \; 8.4 \; 7.2 \; 6 \; 4.8 \; 3.6 \; 2.4 \;
1.2 \; 0 \; -1.2 \; -2.4 \; -3.6 \; -4.8 \; -6 \; -7.2 \; -8.4 \; -9.6
\; -10.8 \; -12 \; -13.2 \; -14.4 \; -15.6 \; -16.8 \; -18 \; -19.2
\; -20.4 \; -21.6 \; -22.8 \; -24 \; -25.2 \; -26.4 \; -27.6 \; -28.8
\; -30 \; \;;
#X scalar y-plot 148 149 1 \; 0 \; 0 \; 0 \; 0 \; 0 \; 0 \; 0 \; 0
\; 0 \; 0 \; 0 \; 0 \; 0 \; 0 \; 0 \; 0 \; 0 \; 0 \; 0 \; 0 \; 0 \;
0 \; 0 \; 0 \; 0 \; 0 \; 0 \; 0 \; 0 \; 0 \; 0 \; 0 \; 0 \; 0 \; 0
\; 0 \; 0 \; 0 \; 0 \; 0 \; 0 \; 0 \; 0 \; 0 \; 0 \; 0 \; 0 \; 0 \;
0 \; 0 \; 0 \; \;;
#X scalar y-plot 148 149 1 \; 0 \; 0 \; 0 \; 0 \; 0 \; 0 \; 0 \; 0
\; 0 \; 0 \; 0 \; 0 \; 0 \; 0 \; 0 \; 0 \; 0 \; 0 \; 0 \; 0 \; 0 \;
0 \; 0 \; 0 \; 0 \; 0 \; 0 \; 0 \; 0 \; 0 \; 0 \; 0 \; 0 \; 0 \; 0
\; 0 \; 0 \; 0 \; 0 \; 0 \; 0 \; 0 \; 0 \; 0 \; 0 \; 0 \; 0 \; 0 \;
0 \; 0 \; 0 \; \;;
#X scalar y-plot 148 149 1 \; 30 \; 28.8 \; 27.6 \; 26.4 \; 25.2 \;
24 \; 22.8 \; 21.6 \; 20.4 \; 19.2 \; 18 \; 16.8 \; 15.6 \; 14.4 \;
13.2 \; 12 \; 10.8 \; 9.6 \; 8.4 \; 7.2 \; 6 \; 4.8 \; 3.6 \; 2.4 \;
1.2 \; 0 \; -1.2 \; -2.4 \; -3.6 \; -4.8 \; -6 \; -7.2 \; -8.4 \; -9.6
\; -10.8 \; -12 \; -13.2 \; -14.4 \; -15.6 \; -16.8 \; -18 \; -19.2
\; -20.4 \; -21.6 \; -22.8 \; -24 \; -25.2 \; -26.4 \; -27.6 \; -28.8
\; -30 \; \;;
#X scalar y-plot 198 149 1 \; 0 \; 0 \; 0 \; 0 \; 0 \; 0 \; 0 \; 0
\; 0 \; 0 \; 0 \; 0 \; 0 \; 0 \; 0 \; 0 \; 0 \; 0 \; 0 \; 0 \; 0 \;
0 \; 0 \; 0 \; 0 \; 0 \; 0 \; 0 \; 0 \; 0 \; 0 \; 0 \; 0 \; 0 \; 0
\; 0 \; 0 \; 0 \; 0 \; 0 \; 0 \; 0 \; 0 \; 0 \; 0 \; 0 \; 0 \; 0 \;
0 \; 0 \; 0 \; \;;
#X scalar y-plot 198 149 1 \; 0 \; 0 \; 0 \; 0 \; 0 \; 0 \; 0 \; 0
\; 0 \; 0 \; 0 \; 0 \; 0 \; 0 \; 0 \; 0 \; 0 \; 0 \; 0 \; 0 \; 0 \;
0 \; 0 \; 0 \; 0 \; 0 \; 0 \; 0 \; 0 \; 0 \; 0 \; 0 \; 0 \; 0 \; 0
\; 0 \; 0 \; 0 \; 0 \; 0 \; 0 \; 0 \; 0 \; 0 \; 0 \; 0 \; 0 \; 0 \;
0 \; 0 \; 0 \; \;;
#X scalar y-plot 198 149 1 \; 30 \; 28.8 \; 27.6 \; 26.4 \; 25.2 \;
24 \; 22.8 \; 21.6 \; 20.4 \; 19.2 \; 18 \; 16.8 \; 15.6 \; 14.4 \;
13.2 \; 12 \; 10.8 \; 9.6 \; 8.4 \; 7.2 \; 6 \; 4.8 \; 3.6 \; 2.4 \;
1.2 \; 0 \; -1.2 \; -2.4 \; -3.6 \; -4.8 \; -6 \; -7.2 \; -8.4 \; -9.6
\; -10.8 \; -12 \; -13.2 \; -14.4 \; -15.6 \; -16.8 \; -18 \; -19.2
\; -20.4 \; -21.6 \; -22.8 \; -24 \; -25.2 \; -26.4 \; -27.6 \; -28.8
\; -30 \; \;;
#X scalar y-plot 248 149 1 \; 0 \; 0 \; 0 \; 0 \; 0 \; 0 \; 0 \; 0
\; 0 \; 0 \; 0 \; 0 \; 0 \; 0 \; 0 \; 0 \; 0 \; 0 \; 0 \; 0 \; 0 \;
0 \; 0 \; 0 \; 0 \; 0 \; 0 \; 0 \; 0 \; 0 \; 0 \; 0 \; 0 \; 0 \; 0
\; 0 \; 0 \; 0 \; 0 \; 0 \; 0 \; 0 \; 0 \; 0 \; 0 \; 0 \; 0 \; 0 \;
0 \; 0 \; 0 \; \;;
#X scalar y-plot 248 149 1 \; 0 \; 0 \; 0 \; 0 \; 0 \; 0 \; 0 \; 0
\; 0 \; 0 \; 0 \; 0 \; 0 \; 0 \; 0 \; 0 \; 0 \; 0 \; 0 \; 0 \; 0 \;
0 \; 0 \; 0 \; 0 \; 0 \; 0 \; 0 \; 0 \; 0 \; 0 \; 0 \; 0 \; 0 \; 0
\; 0 \; 0 \; 0 \; 0 \; 0 \; 0 \; 0 \; 0 \; 0 \; 0 \; 0 \; 0 \; 0 \;
0 \; 0 \; 0 \; \;;
#X scalar y-plot 248 149 1 \; 30 \; 28.8 \; 27.6 \; 26.4 \; 25.2 \;
24 \; 22.8 \; 21.6 \; 20.4 \; 19.2 \; 18 \; 16.8 \; 15.6 \; 14.4 \;
13.2 \; 12 \; 10.8 \; 9.6 \; 8.4 \; 7.2 \; 6 \; 4.8 \; 3.6 \; 2.4 \;
1.2 \; 0 \; -1.2 \; -2.4 \; -3.6 \; -4.8 \; -6 \; -7.2 \; -8.4 \; -9.6
\; -10.8 \; -12 \; -13.2 \; -14.4 \; -15.6 \; -16.8 \; -18 \; -19.2
\; -20.4 \; -21.6 \; -22.8 \; -24 \; -25.2 \; -26.4 \; -27.6 \; -28.8
\; -30 \; \;;
#X scalar y-plot 298 149 1 \; 0 \; 0 \; 0 \; 0 \; 0 \; 0 \; 0 \; 0
\; 0 \; 0 \; 0 \; 0 \; 0 \; 0 \; 0 \; 0 \; 0 \; 0 \; 0 \; 0 \; 0 \;
0 \; 0 \; 0 \; 0 \; 0 \; 0 \; 0 \; 0 \; 0 \; 0 \; 0 \; 0 \; 0 \; 0
\; 0 \; 0 \; 0 \; 0 \; 0 \; 0 \; 0 \; 0 \; 0 \; 0 \; 0 \; 0 \; 0 \;
0 \; 0 \; 0 \; \;;
#X scalar y-plot 298 149 1 \; 0 \; 0 \; 0 \; 0 \; 0 \; 0 \; 0 \; 0
\; 0 \; 0 \; 0 \; 0 \; 0 \; 0 \; 0 \; 0 \; 0 \; 0 \; 0 \; 0 \; 0 \;
0 \; 0 \; 0 \; 0 \; 0 \; 0 \; 0 \; 0 \; 0 \; 0 \; 0 \; 0 \; 0 \; 0
\; 0 \; 0 \; 0 \; 0 \; 0 \; 0 \; 0 \; 0 \; 0 \; 0 \; 0 \; 0 \; 0 \;
0 \; 0 \; 0 \; \;;
#X scalar y-plot 298 149 1 \; 30 \; 28.8 \; 27.6 \; 26.4 \; 25.2 \;
24 \; 22.8 \; 21.6 \; 20.4 \; 19.2 \; 18 \; 16.8 \; 15.6 \; 14.4 \;
13.2 \; 12 \; 10.8 \; 9.6 \; 8.4 \; 7.2 \; 6 \; 4.8 \; 3.6 \; 2.4 \;
1.2 \; 0 \; -1.2 \; -2.4 \; -3.6 \; -4.8 \; -6 \; -7.2 \; -8.4 \; -9.6
\; -10.8 \; -12 \; -13.2 \; -14.4 \; -15.6 \; -16.8 \; -18 \; -19.2
\; -20.4 \; -21.6 \; -22.8 \; -24 \; -25.2 \; -26.4 \; -27.6 \; -28.8
\; -30 \; \;;
#X scalar y-plot 298 238 1 \; 0 \; 0 \; 0 \; 0 \; 0 \; 0 \; 0 \; 0
\; 0 \; 0 \; 0 \; 0 \; 0 \; 0 \; 0 \; 0 \; 0 \; 0 \; 0 \; 0 \; 0 \;
0 \; 0 \; 0 \; 0 \; 0 \; 0 \; 0 \; 0 \; 0 \; 0 \; 0 \; 0 \; 0 \; 0
\; 0 \; 0 \; 0 \; 0 \; 0 \; 0 \; 0 \; 0 \; 0 \; 0 \; 0 \; 0 \; 0 \;
0 \; 0 \; 0 \; \;;
#X scalar y-plot 298 238 1 \; 0 \; 0 \; 0 \; 0 \; 0 \; 0 \; 0 \; 0
\; 0 \; 0 \; 0 \; 0 \; 0 \; 0 \; 0 \; 0 \; 0 \; 0 \; 0 \; 0 \; 0 \;
0 \; 0 \; 0 \; 0 \; 0 \; 0 \; 0 \; 0 \; 0 \; 0 \; 0 \; 0 \; 0 \; 0
\; 0 \; 0 \; 0 \; 0 \; 0 \; 0 \; 0 \; 0 \; 0 \; 0 \; 0 \; 0 \; 0 \;
0 \; 0 \; 0 \; \;;
#X scalar y-plot 298 238 1 \; 30 \; 29.4 \; 28.8 \; 28.2 \; 27.6 \;
27 \; 26.4 \; 25.8 \; 25.2 \; 24.6 \; 24 \; 23.4 \; 22.8 \; 22.2 \;
21.6 \; 21 \; 20.4 \; 19.8 \; 19.2 \; 18.6 \; 18 \; 17.4 \; 16.8 \;
16.2 \; 15.6 \; 15 \; 14.4 \; 13.8 \; 13.2 \; 12.6 \; 12 \; 11.4 \;
10.8 \; 10.2 \; 9.6 \; 9 \; 8.4 \; 7.8 \; 7.2 \; 6.6 \; 6 \; 5.4 \;
4.8 \; 4.2 \; 3.6 \; 3 \; 2.4 \; 1.8 \; 1.2 \; 0.599999 \; 0 \; \;
;
#X scalar y-plot 298 238 1 \; 0 \; 0 \; 0 \; 0 \; 0 \; 0 \; 0 \; 0
\; 0 \; 0 \; 0 \; 0 \; 0 \; 0 \; 0 \; 0 \; 0 \; 0 \; 0 \; 0 \; 0 \;
0 \; 0 \; 0 \; 0 \; 0 \; 0 \; 0 \; 0 \; 0 \; 0 \; 0 \; 0 \; 0 \; 0
\; 0 \; 0 \; 0 \; 0 \; 0 \; 0 \; 0 \; 0 \; 0 \; 0 \; 0 \; 0 \; 0 \;
0 \; 0 \; 0 \; \;;
#X scalar y-plot 298 238 1 \; 0 \; 0 \; 0 \; 0 \; 0 \; 0 \; 0 \; 0
\; 0 \; 0 \; 0 \; 0 \; 0 \; 0 \; 0 \; 0 \; 0 \; 0 \; 0 \; 0 \; 0 \;
0 \; 0 \; 0 \; 0 \; 0 \; 0 \; 0 \; 0 \; 0 \; 0 \; 0 \; 0 \; 0 \; 0
\; 0 \; 0 \; 0 \; 0 \; 0 \; 0 \; 0 \; 0 \; 0 \; 0 \; 0 \; 0 \; 0 \;
0 \; 0 \; 0 \; \;;
#X scalar haxis 23 238 350 347 \;;
#X scalar haxis 23 238 350 347 \;;
#X scalar haxis 23 238 350 347 \;;
#X scalar vaxis 48 198 80 77 \;;
#X scalar vaxis 48 198 80 77 \;;
#X scalar vaxis 48 198 80 77 \;;
#X scalar y-plot 98 238 1 \; 0 \; 0 \; 0 \; 0 \; 0 \; 0 \; 0 \; 0 \;
0 \; 0 \; 0 \; 0 \; 0 \; 0 \; 0 \; 0 \; 0 \; 0 \; 0 \; 0 \; 0 \; 0
\; 0 \; 0 \; 0 \; 0 \; 0 \; 0 \; 0 \; 0 \; 0 \; 0 \; 0 \; 0 \; 0 \;
0 \; 0 \; 0 \; 0 \; 0 \; 0 \; 0 \; 0 \; 0 \; 0 \; 0 \; 0 \; 0 \; 0
\; 0 \; 0 \; 0 \; 0 \; 0 \; 0 \; 0 \; 0 \; 0 \; 0 \; 0 \; 0 \; 0 \;
0 \; 0 \; 0 \; 0 \; 0 \; 0 \; 0 \; 0 \; 0 \; 0 \; 0 \; 0 \; 0 \; 0
\; 0 \; 0 \; 0 \; 0 \; 0 \; 0 \; 0 \; 0 \; 0 \; 0 \; 0 \; 0 \; 0 \;
0 \; 0 \; 0 \; 0 \; 0 \; 0 \; 0 \; 0 \; 0 \; 0 \; 0 \; 0 \; \;;
#X scalar y-plot 98 238 1 \; 0 \; 0 \; 0 \; 0 \; 0 \; 0 \; 0 \; 0 \;
0 \; 0 \; 0 \; 0 \; 0 \; 0 \; 0 \; 0 \; 0 \; 0 \; 0 \; 0 \; 0 \; 0
\; 0 \; 0 \; 0 \; 0 \; 0 \; 0 \; 0 \; 0 \; 0 \; 0 \; 0 \; 0 \; 0 \;
0 \; 0 \; 0 \; 0 \; 0 \; 0 \; 0 \; 0 \; 0 \; 0 \; 0 \; 0 \; 0 \; 0
\; 0 \; 0 \; 0 \; 0 \; 0 \; 0 \; 0 \; 0 \; 0 \; 0 \; 0 \; 0 \; 0 \;
0 \; 0 \; 0 \; 0 \; 0 \; 0 \; 0 \; 0 \; 0 \; 0 \; 0 \; 0 \; 0 \; 0
\; 0 \; 0 \; 0 \; 0 \; 0 \; 0 \; 0 \; 0 \; 0 \; 0 \; 0 \; 0 \; 0 \;
0 \; 0 \; 0 \; 0 \; 0 \; 0 \; 0 \; 0 \; 0 \; 0 \; 0 \; 0 \; \;;
#X scalar y-plot 98 238 1 \; 30 \; 29.4 \; 28.8 \; 28.2 \; 27.6 \;
27 \; 26.4 \; 25.8 \; 25.2 \; 24.6 \; 24 \; 23.4 \; 22.8 \; 22.2 \;
21.6 \; 21 \; 20.4 \; 19.8 \; 19.2 \; 18.6 \; 18 \; 17.4 \; 16.8 \;
16.2 \; 15.6 \; 15 \; 14.4 \; 13.8 \; 13.2 \; 12.6 \; 12 \; 11.4 \;
10.8 \; 10.2 \; 9.6 \; 9 \; 8.4 \; 7.8 \; 7.2 \; 6.6 \; 6 \; 5.4 \;
4.8 \; 4.2 \; 3.6 \; 3 \; 2.4 \; 1.8 \; 1.2 \; 0.599999 \; 0 \; -0.599999
\; -1.2 \; -1.8 \; -2.4 \; -3 \; -3.6 \; -4.2 \; -4.8 \; -5.4 \; -6
\; -6.6 \; -7.2 \; -7.8 \; -8.4 \; -9 \; -9.6 \; -10.2 \; -10.8 \;
-11.4 \; -12 \; -12.6 \; -13.2 \; -13.8 \; -14.4 \; -15 \; -15.6 \;
-16.2 \; -16.8 \; -17.4 \; -18 \; -18.6 \; -19.2 \; -19.8 \; -20.4
\; -21 \; -21.6 \; -22.2 \; -22.8 \; -23.4 \; -24 \; -24.6 \; -25.2
\; -25.8 \; -26.4 \; -27 \; -27.6 \; -28.2 \; -28.8 \; -29.4 \; -30
\; \;;
#X scalar y-plot 198 238 1 \; 0 \; 0 \; 0 \; 0 \; 0 \; 0 \; 0 \; 0
\; 0 \; 0 \; 0 \; 0 \; 0 \; 0 \; 0 \; 0 \; 0 \; 0 \; 0 \; 0 \; 0 \;
0 \; 0 \; 0 \; 0 \; 0 \; 0 \; 0 \; 0 \; 0 \; 0 \; 0 \; 0 \; 0 \; 0
\; 0 \; 0 \; 0 \; 0 \; 0 \; 0 \; 0 \; 0 \; 0 \; 0 \; 0 \; 0 \; 0 \;
0 \; 0 \; 0 \; 0 \; 0 \; 0 \; 0 \; 0 \; 0 \; 0 \; 0 \; 0 \; 0 \; 0
\; 0 \; 0 \; 0 \; 0 \; 0 \; 0 \; 0 \; 0 \; 0 \; 0 \; 0 \; 0 \; 0 \;
0 \; 0 \; 0 \; 0 \; 0 \; 0 \; 0 \; 0 \; 0 \; 0 \; 0 \; 0 \; 0 \; 0
\; 0 \; 0 \; 0 \; 0 \; 0 \; 0 \; 0 \; 0 \; 0 \; 0 \; 0 \; 0 \; \;;
#X scalar y-plot 198 238 1 \; 0 \; 0 \; 0 \; 0 \; 0 \; 0 \; 0 \; 0
\; 0 \; 0 \; 0 \; 0 \; 0 \; 0 \; 0 \; 0 \; 0 \; 0 \; 0 \; 0 \; 0 \;
0 \; 0 \; 0 \; 0 \; 0 \; 0 \; 0 \; 0 \; 0 \; 0 \; 0 \; 0 \; 0 \; 0
\; 0 \; 0 \; 0 \; 0 \; 0 \; 0 \; 0 \; 0 \; 0 \; 0 \; 0 \; 0 \; 0 \;
0 \; 0 \; 0 \; 0 \; 0 \; 0 \; 0 \; 0 \; 0 \; 0 \; 0 \; 0 \; 0 \; 0
\; 0 \; 0 \; 0 \; 0 \; 0 \; 0 \; 0 \; 0 \; 0 \; 0 \; 0 \; 0 \; 0 \;
0 \; 0 \; 0 \; 0 \; 0 \; 0 \; 0 \; 0 \; 0 \; 0 \; 0 \; 0 \; 0 \; 0
\; 0 \; 0 \; 0 \; 0 \; 0 \; 0 \; 0 \; 0 \; 0 \; 0 \; 0 \; 0 \; \;;
#X scalar y-plot 198 238 1 \; 30 \; 29.4 \; 28.8 \; 28.2 \; 27.6 \;
27 \; 26.4 \; 25.8 \; 25.2 \; 24.6 \; 24 \; 23.4 \; 22.8 \; 22.2 \;
21.6 \; 21 \; 20.4 \; 19.8 \; 19.2 \; 18.6 \; 18 \; 17.4 \; 16.8 \;
16.2 \; 15.6 \; 15 \; 14.4 \; 13.8 \; 13.2 \; 12.6 \; 12 \; 11.4 \;
10.8 \; 10.2 \; 9.6 \; 9 \; 8.4 \; 7.8 \; 7.2 \; 6.6 \; 6 \; 5.4 \;
4.8 \; 4.2 \; 3.6 \; 3 \; 2.4 \; 1.8 \; 1.2 \; 0.599999 \; 0 \; -0.599999
\; -1.2 \; -1.8 \; -2.4 \; -3 \; -3.6 \; -4.2 \; -4.8 \; -5.4 \; -6
\; -6.6 \; -7.2 \; -7.8 \; -8.4 \; -9 \; -9.6 \; -10.2 \; -10.8 \;
-11.4 \; -12 \; -12.6 \; -13.2 \; -13.8 \; -14.4 \; -15 \; -15.6 \;
-16.2 \; -16.8 \; -17.4 \; -18 \; -18.6 \; -19.2 \; -19.8 \; -20.4
\; -21 \; -21.6 \; -22.2 \; -22.8 \; -23.4 \; -24 \; -24.6 \; -25.2
\; -25.8 \; -26.4 \; -27 \; -27.6 \; -28.2 \; -28.8 \; -29.4 \; -30
\; \;;
#X scalar y-plot 48 238 1 \; 0 \; 0 \; 0 \; 0 \; 0 \; 0 \; 0 \; 0 \;
0 \; 0 \; 0 \; 0 \; 0 \; 0 \; 0 \; 0 \; 0 \; 0 \; 0 \; 0 \; 0 \; 0
\; 0 \; 0 \; 0 \; 0 \; 0 \; 0 \; 0 \; 0 \; 0 \; 0 \; 0 \; 0 \; 0 \;
0 \; 0 \; 0 \; 0 \; 0 \; 0 \; 0 \; 0 \; 0 \; 0 \; 0 \; 0 \; 0 \; 0
\; 0 \; 0 \; \;;
#X scalar y-plot 48 238 1 \; 0 \; 0 \; 0 \; 0 \; 0 \; 0 \; 0 \; 0 \;
0 \; 0 \; 0 \; 0 \; 0 \; 0 \; 0 \; 0 \; 0 \; 0 \; 0 \; 0 \; 0 \; 0
\; 0 \; 0 \; 0 \; 0 \; 0 \; 0 \; 0 \; 0 \; 0 \; 0 \; 0 \; 0 \; 0 \;
0 \; 0 \; 0 \; 0 \; 0 \; 0 \; 0 \; 0 \; 0 \; 0 \; 0 \; 0 \; 0 \; 0
\; 0 \; 0 \; \;;
#X scalar y-plot 48 238 1 \; 0 \; -0.599999 \; -1.2 \; -1.8 \; -2.4
\; -3 \; -3.6 \; -4.2 \; -4.8 \; -5.4 \; -6 \; -6.6 \; -7.2 \; -7.8
\; -8.4 \; -9 \; -9.6 \; -10.2 \; -10.8 \; -11.4 \; -12 \; -12.6 \;
-13.2 \; -13.8 \; -14.4 \; -15 \; -15.6 \; -16.2 \; -16.8 \; -17.4
\; -18 \; -18.6 \; -19.2 \; -19.8 \; -20.4 \; -21 \; -21.6 \; -22.2
\; -22.8 \; -23.4 \; -24 \; -24.6 \; -25.2 \; -25.8 \; -26.4 \; -27
\; -27.6 \; -28.2 \; -28.8 \; -29.4 \; -30 \; \;;
#X scalar y-plot 248 238 1 \; 0 \; 0 \; 0 \; 0 \; 0 \; 0 \; 0 \; 0
\; 0 \; 0 \; 0 \; 0 \; 0 \; 0 \; 0 \; 0 \; 0 \; 0 \; 0 \; 0 \; 0 \;
0 \; 0 \; 0 \; 0 \; 0 \; 0 \; 0 \; 0 \; 0 \; 0 \; 0 \; 0 \; 0 \; 0
\; 0 \; 0 \; 0 \; 0 \; 0 \; 0 \; 0 \; 0 \; 0 \; 0 \; 0 \; 0 \; 0 \;
0 \; 0 \; 0 \; \;;
#X scalar y-plot 248 238 1 \; 0 \; 0 \; 0 \; 0 \; 0 \; 0 \; 0 \; 0
\; 0 \; 0 \; 0 \; 0 \; 0 \; 0 \; 0 \; 0 \; 0 \; 0 \; 0 \; 0 \; 0 \;
0 \; 0 \; 0 \; 0 \; 0 \; 0 \; 0 \; 0 \; 0 \; 0 \; 0 \; 0 \; 0 \; 0
\; 0 \; 0 \; 0 \; 0 \; 0 \; 0 \; 0 \; 0 \; 0 \; 0 \; 0 \; 0 \; 0 \;
0 \; 0 \; 0 \; \;;
#X scalar haxis 23 325 350 347 \;;
#X scalar vaxis 48 285 80 77 \;;
#X scalar y-plot 48 325 1 \; 30 \; 29.4 \; 28.8 \; 28.2 \; 27.6 \;
27 \; 26.4 \; 25.8 \; 25.2 \; 24.6 \; 24 \; 23.4 \; 22.8 \; 22.2 \;
21.6 \; 21 \; 20.4 \; 19.8 \; 19.2 \; 18.6 \; 18 \; 17.4 \; 16.8 \;
16.2 \; 15.6 \; 15 \; 14.4 \; 13.8 \; 13.2 \; 12.6 \; 12 \; 11.4 \;
10.8 \; 10.2 \; 9.6 \; 9 \; 8.4 \; 7.8 \; 7.2 \; 6.6 \; 6 \; 5.4 \;
4.8 \; 4.2 \; 3.6 \; 3 \; 2.4 \; 1.8 \; 1.2 \; 0.599999 \; 0 \; -0.599999
\; -1.2 \; -1.8 \; -2.4 \; -3 \; -3.6 \; -4.2 \; -4.8 \; -5.4 \; -6
\; -6.6 \; -7.2 \; -7.8 \; -8.4 \; -9 \; -9.6 \; -10.2 \; -10.8 \;
-11.4 \; -12 \; -12.6 \; -13.2 \; -13.8 \; -14.4 \; -15 \; -15.6 \;
-16.2 \; -16.8 \; -17.4 \; -18 \; -18.6 \; -19.2 \; -19.8 \; -20.4
\; -21 \; -21.6 \; -22.2 \; -22.8 \; -23.4 \; -24 \; -24.6 \; -25.2
\; -25.8 \; -26.4 \; -27 \; -27.6 \; -28.2 \; -28.8 \; -29.4 \; -30
\; \;;
#X scalar y-plot 148 325 1 \; 30 \; 29.4 \; 28.8 \; 28.2 \; 27.6 \;
27 \; 26.4 \; 25.8 \; 25.2 \; 24.6 \; 24 \; 23.4 \; 22.8 \; 22.2 \;
21.6 \; 21 \; 20.4 \; 19.8 \; 19.2 \; 18.6 \; 18 \; 17.4 \; 16.8 \;
16.2 \; 15.6 \; 15 \; 14.4 \; 13.8 \; 13.2 \; 12.6 \; 12 \; 11.4 \;
10.8 \; 10.2 \; 9.6 \; 9 \; 8.4 \; 7.8 \; 7.2 \; 6.6 \; 6 \; 5.4 \;
4.8 \; 4.2 \; 3.6 \; 3 \; 2.4 \; 1.8 \; 1.2 \; 0.599999 \; 0 \; -0.599999
\; -1.2 \; -1.8 \; -2.4 \; -3 \; -3.6 \; -4.2 \; -4.8 \; -5.4 \; -6
\; -6.6 \; -7.2 \; -7.8 \; -8.4 \; -9 \; -9.6 \; -10.2 \; -10.8 \;
-11.4 \; -12 \; -12.6 \; -13.2 \; -13.8 \; -14.4 \; -15 \; -15.6 \;
-16.2 \; -16.8 \; -17.4 \; -18 \; -18.6 \; -19.2 \; -19.8 \; -20.4
\; -21 \; -21.6 \; -22.2 \; -22.8 \; -23.4 \; -24 \; -24.6 \; -25.2
\; -25.8 \; -26.4 \; -27 \; -27.6 \; -28.2 \; -28.8 \; -29.4 \; -30
\; \;;
#X scalar y-plot 248 325 1 \; 30 \; 29.4 \; 28.8 \; 28.2 \; 27.6 \;
27 \; 26.4 \; 25.8 \; 25.2 \; 24.6 \; 24 \; 23.4 \; 22.8 \; 22.2 \;
21.6 \; 21 \; 20.4 \; 19.8 \; 19.2 \; 18.6 \; 18 \; 17.4 \; 16.8 \;
16.2 \; 15.6 \; 15 \; 14.4 \; 13.8 \; 13.2 \; 12.6 \; 12 \; 11.4 \;
10.8 \; 10.2 \; 9.6 \; 9 \; 8.4 \; 7.8 \; 7.2 \; 6.6 \; 6 \; 5.4 \;
4.8 \; 4.2 \; 3.6 \; 3 \; 2.4 \; 1.8 \; 1.2 \; 0.599999 \; 0 \; -0.599999
\; -1.2 \; -1.8 \; -2.4 \; -3 \; -3.6 \; -4.2 \; -4.8 \; -5.4 \; -6
\; -6.6 \; -7.2 \; -7.8 \; -8.4 \; -9 \; -9.6 \; -10.2 \; -10.8 \;
-11.4 \; -12 \; -12.6 \; -13.2 \; -13.8 \; -14.4 \; -15 \; -15.6 \;
-16.2 \; -16.8 \; -17.4 \; -18 \; -18.6 \; -19.2 \; -19.8 \; -20.4
\; -21 \; -21.6 \; -22.2 \; -22.8 \; -23.4 \; -24 \; -24.6 \; -25.2
\; -25.8 \; -26.4 \; -27 \; -27.6 \; -28.2 \; -28.8 \; -29.4 \; -30
\; \;;
#X text 18 9 (a);
#X text 18 94 (b);
#X text 18 181 (c);
#X text 16 273 (d);
#X coords 0 367 1 366 0 0 0;
#X restore 51 61 pd fig;
#X obj 170 42 templates;
#N canvas 83 485 468 394 z 1;
#X scalar haxis 18 53 350 347 \;;
#X scalar haxis 18 53 350 347 \;;
#X scalar haxis 18 53 350 347 \;;
#X scalar vaxis 43 13 80 77 \;;
#X scalar vaxis 43 13 80 77 \;;
#X scalar vaxis 43 13 80 77 \;;
#X scalar y-plot 43 83 1 \; 0 \; 0 \; 0 \; 0 \; 0 \; 0 \; 0 \; 0 \;
0 \; 0 \; 0 \; 0 \; 0 \; 0 \; 0 \; 0 \; 0 \; 0 \; 0 \; 0 \; 0 \; 0
\; 0 \; 0 \; 0 \; 0 \; 0 \; 0 \; 0 \; 0 \; 0 \; 0 \; 0 \; 0 \; 0 \;
0 \; 0 \; 0 \; 0 \; 0 \; 0 \; 0 \; 0 \; 0 \; 0 \; 0 \; 0 \; 0 \; 0
\; 0 \; 0 \; \;;
#X scalar y-plot 43 83 1 \; 0 \; 0 \; 0 \; 0 \; 0 \; 0 \; 0 \; 0 \;
0 \; 0 \; 0 \; 0 \; 0 \; 0 \; 0 \; 0 \; 0 \; 0 \; 0 \; 0 \; 0 \; 0
\; 0 \; 0 \; 0 \; 0 \; 0 \; 0 \; 0 \; 0 \; 0 \; 0 \; 0 \; 0 \; 0 \;
0 \; 0 \; 0 \; 0 \; 0 \; 0 \; 0 \; 0 \; 0 \; 0 \; 0 \; 0 \; 0 \; 0
\; 0 \; 0 \; \;;
#X scalar y-plot 43 83 1 \; 0 \; 0 \; 0 \; 0 \; 0 \; 0 \; 0 \; 0 \;
0 \; 0 \; 0 \; 0 \; 0 \; 0 \; 0 \; 0 \; 0 \; 0 \; 0 \; 0 \; 0 \; 0
\; 0 \; 0 \; 0 \; 0 \; 0 \; 0 \; 0 \; 0 \; 0 \; 0 \; 0 \; 0 \; 0 \;
0 \; 0 \; 0 \; 0 \; 0 \; 0 \; 0 \; 0 \; 0 \; 0 \; 0 \; 0 \; 0 \; 0
\; 0 \; 0 \; \;;
#X scalar y-plot 93 23 1 \; 0 \; 0 \; 0 \; 0 \; 0 \; 0 \; 0 \; 0 \;
0 \; 0 \; 0 \; 0 \; 0 \; 0 \; 0 \; 0 \; 0 \; 0 \; 0 \; 0 \; 0 \; 0
\; 0 \; 0 \; 0 \; 0 \; 0 \; 0 \; 0 \; 0 \; 0 \; 0 \; 0 \; 0 \; 0 \;
0 \; 0 \; 0 \; 0 \; 0 \; 0 \; 0 \; 0 \; 0 \; 0 \; 0 \; 0 \; 0 \; 0
\; 0 \; 0 \; \;;
#X scalar y-plot 93 23 1 \; 0 \; 0 \; 0 \; 0 \; 0 \; 0 \; 0 \; 0 \;
0 \; 0 \; 0 \; 0 \; 0 \; 0 \; 0 \; 0 \; 0 \; 0 \; 0 \; 0 \; 0 \; 0
\; 0 \; 0 \; 0 \; 0 \; 0 \; 0 \; 0 \; 0 \; 0 \; 0 \; 0 \; 0 \; 0 \;
0 \; 0 \; 0 \; 0 \; 0 \; 0 \; 0 \; 0 \; 0 \; 0 \; 0 \; 0 \; 0 \; 0
\; 0 \; 0 \; \;;
#X scalar y-plot 93 23 1 \; 0 \; 0 \; 0 \; 0 \; 0 \; 0 \; 0 \; 0 \;
0 \; 0 \; 0 \; 0 \; 0 \; 0 \; 0 \; 0 \; 0 \; 0 \; 0 \; 0 \; 0 \; 0
\; 0 \; 0 \; 0 \; 0 \; 0 \; 0 \; 0 \; 0 \; 0 \; 0 \; 0 \; 0 \; 0 \;
0 \; 0 \; 0 \; 0 \; 0 \; 0 \; 0 \; 0 \; 0 \; 0 \; 0 \; 0 \; 0 \; 0
\; 0 \; 0 \; \;;
#X scalar y-plot 143 83 1 \; 0 \; 0 \; 0 \; 0 \; 0 \; 0 \; 0 \; 0 \;
0 \; 0 \; 0 \; 0 \; 0 \; 0 \; 0 \; 0 \; 0 \; 0 \; 0 \; 0 \; 0 \; 0
\; 0 \; 0 \; 0 \; 0 \; 0 \; 0 \; 0 \; 0 \; 0 \; 0 \; 0 \; 0 \; 0 \;
0 \; 0 \; 0 \; 0 \; 0 \; 0 \; 0 \; 0 \; 0 \; 0 \; 0 \; 0 \; 0 \; 0
\; 0 \; 0 \; \;;
#X scalar y-plot 143 83 1 \; 0 \; 0 \; 0 \; 0 \; 0 \; 0 \; 0 \; 0 \;
0 \; 0 \; 0 \; 0 \; 0 \; 0 \; 0 \; 0 \; 0 \; 0 \; 0 \; 0 \; 0 \; 0
\; 0 \; 0 \; 0 \; 0 \; 0 \; 0 \; 0 \; 0 \; 0 \; 0 \; 0 \; 0 \; 0 \;
0 \; 0 \; 0 \; 0 \; 0 \; 0 \; 0 \; 0 \; 0 \; 0 \; 0 \; 0 \; 0 \; 0
\; 0 \; 0 \; \;;
#X scalar y-plot 143 83 1 \; 0 \; 0 \; 0 \; 0 \; 0 \; 0 \; 0 \; 0 \;
0 \; 0 \; 0 \; 0 \; 0 \; 0 \; 0 \; 0 \; 0 \; 0 \; 0 \; 0 \; 0 \; 0
\; 0 \; 0 \; 0 \; 0 \; 0 \; 0 \; 0 \; 0 \; 0 \; 0 \; 0 \; 0 \; 0 \;
0 \; 0 \; 0 \; 0 \; 0 \; 0 \; 0 \; 0 \; 0 \; 0 \; 0 \; 0 \; 0 \; 0
\; 0 \; 0 \; \;;
#X scalar y-plot 193 23 1 \; 0 \; 0 \; 0 \; 0 \; 0 \; 0 \; 0 \; 0 \;
0 \; 0 \; 0 \; 0 \; 0 \; 0 \; 0 \; 0 \; 0 \; 0 \; 0 \; 0 \; 0 \; 0
\; 0 \; 0 \; 0 \; 0 \; 0 \; 0 \; 0 \; 0 \; 0 \; 0 \; 0 \; 0 \; 0 \;
0 \; 0 \; 0 \; 0 \; 0 \; 0 \; 0 \; 0 \; 0 \; 0 \; 0 \; 0 \; 0 \; 0
\; 0 \; 0 \; \;;
#X scalar y-plot 193 23 1 \; 0 \; 0 \; 0 \; 0 \; 0 \; 0 \; 0 \; 0 \;
0 \; 0 \; 0 \; 0 \; 0 \; 0 \; 0 \; 0 \; 0 \; 0 \; 0 \; 0 \; 0 \; 0
\; 0 \; 0 \; 0 \; 0 \; 0 \; 0 \; 0 \; 0 \; 0 \; 0 \; 0 \; 0 \; 0 \;
0 \; 0 \; 0 \; 0 \; 0 \; 0 \; 0 \; 0 \; 0 \; 0 \; 0 \; 0 \; 0 \; 0
\; 0 \; 0 \; \;;
#X scalar y-plot 193 23 1 \; 0 \; 0 \; 0 \; 0 \; 0 \; 0 \; 0 \; 0 \;
0 \; 0 \; 0 \; 0 \; 0 \; 0 \; 0 \; 0 \; 0 \; 0 \; 0 \; 0 \; 0 \; 0
\; 0 \; 0 \; 0 \; 0 \; 0 \; 0 \; 0 \; 0 \; 0 \; 0 \; 0 \; 0 \; 0 \;
0 \; 0 \; 0 \; 0 \; 0 \; 0 \; 0 \; 0 \; 0 \; 0 \; 0 \; 0 \; 0 \; 0
\; 0 \; 0 \; \;;
#X scalar y-plot 243 83 1 \; 0 \; 0 \; 0 \; 0 \; 0 \; 0 \; 0 \; 0 \;
0 \; 0 \; 0 \; 0 \; 0 \; 0 \; 0 \; 0 \; 0 \; 0 \; 0 \; 0 \; 0 \; 0
\; 0 \; 0 \; 0 \; 0 \; 0 \; 0 \; 0 \; 0 \; 0 \; 0 \; 0 \; 0 \; 0 \;
0 \; 0 \; 0 \; 0 \; 0 \; 0 \; 0 \; 0 \; 0 \; 0 \; 0 \; 0 \; 0 \; 0
\; 0 \; 0 \; \;;
#X scalar y-plot 243 83 1 \; 0 \; 0 \; 0 \; 0 \; 0 \; 0 \; 0 \; 0 \;
0 \; 0 \; 0 \; 0 \; 0 \; 0 \; 0 \; 0 \; 0 \; 0 \; 0 \; 0 \; 0 \; 0
\; 0 \; 0 \; 0 \; 0 \; 0 \; 0 \; 0 \; 0 \; 0 \; 0 \; 0 \; 0 \; 0 \;
0 \; 0 \; 0 \; 0 \; 0 \; 0 \; 0 \; 0 \; 0 \; 0 \; 0 \; 0 \; 0 \; 0
\; 0 \; 0 \; \;;
#X scalar y-plot 243 83 1 \; 0 \; 0 \; 0 \; 0 \; 0 \; 0 \; 0 \; 0 \;
0 \; 0 \; 0 \; 0 \; 0 \; 0 \; 0 \; 0 \; 0 \; 0 \; 0 \; 0 \; 0 \; 0
\; 0 \; 0 \; 0 \; 0 \; 0 \; 0 \; 0 \; 0 \; 0 \; 0 \; 0 \; 0 \; 0 \;
0 \; 0 \; 0 \; 0 \; 0 \; 0 \; 0 \; 0 \; 0 \; 0 \; 0 \; 0 \; 0 \; 0
\; 0 \; 0 \; \;;
#X scalar y-plot 293 23 1 \; 0 \; 0 \; 0 \; 0 \; 0 \; 0 \; 0 \; 0 \;
0 \; 0 \; 0 \; 0 \; 0 \; 0 \; 0 \; 0 \; 0 \; 0 \; 0 \; 0 \; 0 \; 0
\; 0 \; 0 \; 0 \; 0 \; 0 \; 0 \; 0 \; 0 \; 0 \; 0 \; 0 \; 0 \; 0 \;
0 \; 0 \; 0 \; 0 \; 0 \; 0 \; 0 \; 0 \; 0 \; 0 \; 0 \; 0 \; 0 \; 0
\; 0 \; 0 \; \;;
#X scalar y-plot 293 23 1 \; 0 \; 0 \; 0 \; 0 \; 0 \; 0 \; 0 \; 0 \;
0 \; 0 \; 0 \; 0 \; 0 \; 0 \; 0 \; 0 \; 0 \; 0 \; 0 \; 0 \; 0 \; 0
\; 0 \; 0 \; 0 \; 0 \; 0 \; 0 \; 0 \; 0 \; 0 \; 0 \; 0 \; 0 \; 0 \;
0 \; 0 \; 0 \; 0 \; 0 \; 0 \; 0 \; 0 \; 0 \; 0 \; 0 \; 0 \; 0 \; 0
\; 0 \; 0 \; \;;
#X scalar y-plot 293 23 1 \; 0 \; 0 \; 0 \; 0 \; 0 \; 0 \; 0 \; 0 \;
0 \; 0 \; 0 \; 0 \; 0 \; 0 \; 0 \; 0 \; 0 \; 0 \; 0 \; 0 \; 0 \; 0
\; 0 \; 0 \; 0 \; 0 \; 0 \; 0 \; 0 \; 0 \; 0 \; 0 \; 0 \; 0 \; 0 \;
0 \; 0 \; 0 \; 0 \; 0 \; 0 \; 0 \; 0 \; 0 \; 0 \; 0 \; 0 \; 0 \; 0
\; 0 \; 0 \; \;;
#X scalar haxis 18 142 350 347 \;;
#X scalar haxis 18 142 350 347 \;;
#X scalar haxis 18 142 350 347 \;;
#X scalar vaxis 43 102 80 77 \;;
#X scalar vaxis 43 102 80 77 \;;
#X scalar vaxis 43 102 80 77 \;;
#X scalar y-plot 43 142 1 \; 0 \; 0 \; 0 \; 0 \; 0 \; 0 \; 0 \; 0 \;
0 \; 0 \; 0 \; 0 \; 0 \; 0 \; 0 \; 0 \; 0 \; 0 \; 0 \; 0 \; 0 \; 0
\; 0 \; 0 \; 0 \; 0 \; 0 \; 0 \; 0 \; 0 \; 0 \; 0 \; 0 \; 0 \; 0 \;
0 \; 0 \; 0 \; 0 \; 0 \; 0 \; 0 \; 0 \; 0 \; 0 \; 0 \; 0 \; 0 \; 0
\; 0 \; 0 \; \;;
#X scalar y-plot 43 142 1 \; 0 \; 0 \; 0 \; 0 \; 0 \; 0 \; 0 \; 0 \;
0 \; 0 \; 0 \; 0 \; 0 \; 0 \; 0 \; 0 \; 0 \; 0 \; 0 \; 0 \; 0 \; 0
\; 0 \; 0 \; 0 \; 0 \; 0 \; 0 \; 0 \; 0 \; 0 \; 0 \; 0 \; 0 \; 0 \;
0 \; 0 \; 0 \; 0 \; 0 \; 0 \; 0 \; 0 \; 0 \; 0 \; 0 \; 0 \; 0 \; 0
\; 0 \; 0 \; \;;
#X scalar y-plot 43 142 1 \; 30 \; 28.8 \; 27.6 \; 26.4 \; 25.2 \;
24 \; 22.8 \; 21.6 \; 20.4 \; 19.2 \; 18 \; 16.8 \; 15.6 \; 14.4 \;
13.2 \; 12 \; 10.8 \; 9.6 \; 8.4 \; 7.2 \; 6 \; 4.8 \; 3.6 \; 2.4 \;
1.2 \; 0 \; -1.2 \; -2.4 \; -3.6 \; -4.8 \; -6 \; -7.2 \; -8.4 \; -9.6
\; -10.8 \; -12 \; -13.2 \; -14.4 \; -15.6 \; -16.8 \; -18 \; -19.2
\; -20.4 \; -21.6 \; -22.8 \; -24 \; -25.2 \; -26.4 \; -27.6 \; -28.8
\; -30 \; \;;
#X scalar y-plot 93 142 1 \; 0 \; 0 \; 0 \; 0 \; 0 \; 0 \; 0 \; 0 \;
0 \; 0 \; 0 \; 0 \; 0 \; 0 \; 0 \; 0 \; 0 \; 0 \; 0 \; 0 \; 0 \; 0
\; 0 \; 0 \; 0 \; 0 \; 0 \; 0 \; 0 \; 0 \; 0 \; 0 \; 0 \; 0 \; 0 \;
0 \; 0 \; 0 \; 0 \; 0 \; 0 \; 0 \; 0 \; 0 \; 0 \; 0 \; 0 \; 0 \; 0
\; 0 \; 0 \; \;;
#X scalar y-plot 93 142 1 \; 0 \; 0 \; 0 \; 0 \; 0 \; 0 \; 0 \; 0 \;
0 \; 0 \; 0 \; 0 \; 0 \; 0 \; 0 \; 0 \; 0 \; 0 \; 0 \; 0 \; 0 \; 0
\; 0 \; 0 \; 0 \; 0 \; 0 \; 0 \; 0 \; 0 \; 0 \; 0 \; 0 \; 0 \; 0 \;
0 \; 0 \; 0 \; 0 \; 0 \; 0 \; 0 \; 0 \; 0 \; 0 \; 0 \; 0 \; 0 \; 0
\; 0 \; 0 \; \;;
#X scalar y-plot 93 142 1 \; 30 \; 28.8 \; 27.6 \; 26.4 \; 25.2 \;
24 \; 22.8 \; 21.6 \; 20.4 \; 19.2 \; 18 \; 16.8 \; 15.6 \; 14.4 \;
13.2 \; 12 \; 10.8 \; 9.6 \; 8.4 \; 7.2 \; 6 \; 4.8 \; 3.6 \; 2.4 \;
1.2 \; 0 \; -1.2 \; -2.4 \; -3.6 \; -4.8 \; -6 \; -7.2 \; -8.4 \; -9.6
\; -10.8 \; -12 \; -13.2 \; -14.4 \; -15.6 \; -16.8 \; -18 \; -19.2
\; -20.4 \; -21.6 \; -22.8 \; -24 \; -25.2 \; -26.4 \; -27.6 \; -28.8
\; -30 \; \;;
#X scalar y-plot 143 142 1 \; 0 \; 0 \; 0 \; 0 \; 0 \; 0 \; 0 \; 0
\; 0 \; 0 \; 0 \; 0 \; 0 \; 0 \; 0 \; 0 \; 0 \; 0 \; 0 \; 0 \; 0 \;
0 \; 0 \; 0 \; 0 \; 0 \; 0 \; 0 \; 0 \; 0 \; 0 \; 0 \; 0 \; 0 \; 0
\; 0 \; 0 \; 0 \; 0 \; 0 \; 0 \; 0 \; 0 \; 0 \; 0 \; 0 \; 0 \; 0 \;
0 \; 0 \; 0 \; \;;
#X scalar y-plot 143 142 1 \; 0 \; 0 \; 0 \; 0 \; 0 \; 0 \; 0 \; 0
\; 0 \; 0 \; 0 \; 0 \; 0 \; 0 \; 0 \; 0 \; 0 \; 0 \; 0 \; 0 \; 0 \;
0 \; 0 \; 0 \; 0 \; 0 \; 0 \; 0 \; 0 \; 0 \; 0 \; 0 \; 0 \; 0 \; 0
\; 0 \; 0 \; 0 \; 0 \; 0 \; 0 \; 0 \; 0 \; 0 \; 0 \; 0 \; 0 \; 0 \;
0 \; 0 \; 0 \; \;;
#X scalar y-plot 143 142 1 \; 30 \; 28.8 \; 27.6 \; 26.4 \; 25.2 \;
24 \; 22.8 \; 21.6 \; 20.4 \; 19.2 \; 18 \; 16.8 \; 15.6 \; 14.4 \;
13.2 \; 12 \; 10.8 \; 9.6 \; 8.4 \; 7.2 \; 6 \; 4.8 \; 3.6 \; 2.4 \;
1.2 \; 0 \; -1.2 \; -2.4 \; -3.6 \; -4.8 \; -6 \; -7.2 \; -8.4 \; -9.6
\; -10.8 \; -12 \; -13.2 \; -14.4 \; -15.6 \; -16.8 \; -18 \; -19.2
\; -20.4 \; -21.6 \; -22.8 \; -24 \; -25.2 \; -26.4 \; -27.6 \; -28.8
\; -30 \; \;;
#X scalar y-plot 193 142 1 \; 0 \; 0 \; 0 \; 0 \; 0 \; 0 \; 0 \; 0
\; 0 \; 0 \; 0 \; 0 \; 0 \; 0 \; 0 \; 0 \; 0 \; 0 \; 0 \; 0 \; 0 \;
0 \; 0 \; 0 \; 0 \; 0 \; 0 \; 0 \; 0 \; 0 \; 0 \; 0 \; 0 \; 0 \; 0
\; 0 \; 0 \; 0 \; 0 \; 0 \; 0 \; 0 \; 0 \; 0 \; 0 \; 0 \; 0 \; 0 \;
0 \; 0 \; 0 \; \;;
#X scalar y-plot 193 142 1 \; 0 \; 0 \; 0 \; 0 \; 0 \; 0 \; 0 \; 0
\; 0 \; 0 \; 0 \; 0 \; 0 \; 0 \; 0 \; 0 \; 0 \; 0 \; 0 \; 0 \; 0 \;
0 \; 0 \; 0 \; 0 \; 0 \; 0 \; 0 \; 0 \; 0 \; 0 \; 0 \; 0 \; 0 \; 0
\; 0 \; 0 \; 0 \; 0 \; 0 \; 0 \; 0 \; 0 \; 0 \; 0 \; 0 \; 0 \; 0 \;
0 \; 0 \; 0 \; \;;
#X scalar y-plot 193 142 1 \; 30 \; 28.8 \; 27.6 \; 26.4 \; 25.2 \;
24 \; 22.8 \; 21.6 \; 20.4 \; 19.2 \; 18 \; 16.8 \; 15.6 \; 14.4 \;
13.2 \; 12 \; 10.8 \; 9.6 \; 8.4 \; 7.2 \; 6 \; 4.8 \; 3.6 \; 2.4 \;
1.2 \; 0 \; -1.2 \; -2.4 \; -3.6 \; -4.8 \; -6 \; -7.2 \; -8.4 \; -9.6
\; -10.8 \; -12 \; -13.2 \; -14.4 \; -15.6 \; -16.8 \; -18 \; -19.2
\; -20.4 \; -21.6 \; -22.8 \; -24 \; -25.2 \; -26.4 \; -27.6 \; -28.8
\; -30 \; \;;
#X scalar y-plot 243 142 1 \; 0 \; 0 \; 0 \; 0 \; 0 \; 0 \; 0 \; 0
\; 0 \; 0 \; 0 \; 0 \; 0 \; 0 \; 0 \; 0 \; 0 \; 0 \; 0 \; 0 \; 0 \;
0 \; 0 \; 0 \; 0 \; 0 \; 0 \; 0 \; 0 \; 0 \; 0 \; 0 \; 0 \; 0 \; 0
\; 0 \; 0 \; 0 \; 0 \; 0 \; 0 \; 0 \; 0 \; 0 \; 0 \; 0 \; 0 \; 0 \;
0 \; 0 \; 0 \; \;;
#X scalar y-plot 243 142 1 \; 0 \; 0 \; 0 \; 0 \; 0 \; 0 \; 0 \; 0
\; 0 \; 0 \; 0 \; 0 \; 0 \; 0 \; 0 \; 0 \; 0 \; 0 \; 0 \; 0 \; 0 \;
0 \; 0 \; 0 \; 0 \; 0 \; 0 \; 0 \; 0 \; 0 \; 0 \; 0 \; 0 \; 0 \; 0
\; 0 \; 0 \; 0 \; 0 \; 0 \; 0 \; 0 \; 0 \; 0 \; 0 \; 0 \; 0 \; 0 \;
0 \; 0 \; 0 \; \;;
#X scalar y-plot 243 142 1 \; 30 \; 28.8 \; 27.6 \; 26.4 \; 25.2 \;
24 \; 22.8 \; 21.6 \; 20.4 \; 19.2 \; 18 \; 16.8 \; 15.6 \; 14.4 \;
13.2 \; 12 \; 10.8 \; 9.6 \; 8.4 \; 7.2 \; 6 \; 4.8 \; 3.6 \; 2.4 \;
1.2 \; 0 \; -1.2 \; -2.4 \; -3.6 \; -4.8 \; -6 \; -7.2 \; -8.4 \; -9.6
\; -10.8 \; -12 \; -13.2 \; -14.4 \; -15.6 \; -16.8 \; -18 \; -19.2
\; -20.4 \; -21.6 \; -22.8 \; -24 \; -25.2 \; -26.4 \; -27.6 \; -28.8
\; -30 \; \;;
#X scalar y-plot 293 142 1 \; 0 \; 0 \; 0 \; 0 \; 0 \; 0 \; 0 \; 0
\; 0 \; 0 \; 0 \; 0 \; 0 \; 0 \; 0 \; 0 \; 0 \; 0 \; 0 \; 0 \; 0 \;
0 \; 0 \; 0 \; 0 \; 0 \; 0 \; 0 \; 0 \; 0 \; 0 \; 0 \; 0 \; 0 \; 0
\; 0 \; 0 \; 0 \; 0 \; 0 \; 0 \; 0 \; 0 \; 0 \; 0 \; 0 \; 0 \; 0 \;
0 \; 0 \; 0 \; \;;
#X scalar y-plot 293 142 1 \; 0 \; 0 \; 0 \; 0 \; 0 \; 0 \; 0 \; 0
\; 0 \; 0 \; 0 \; 0 \; 0 \; 0 \; 0 \; 0 \; 0 \; 0 \; 0 \; 0 \; 0 \;
0 \; 0 \; 0 \; 0 \; 0 \; 0 \; 0 \; 0 \; 0 \; 0 \; 0 \; 0 \; 0 \; 0
\; 0 \; 0 \; 0 \; 0 \; 0 \; 0 \; 0 \; 0 \; 0 \; 0 \; 0 \; 0 \; 0 \;
0 \; 0 \; 0 \; \;;
#X scalar y-plot 293 142 1 \; 30 \; 28.8 \; 27.6 \; 26.4 \; 25.2 \;
24 \; 22.8 \; 21.6 \; 20.4 \; 19.2 \; 18 \; 16.8 \; 15.6 \; 14.4 \;
13.2 \; 12 \; 10.8 \; 9.6 \; 8.4 \; 7.2 \; 6 \; 4.8 \; 3.6 \; 2.4 \;
1.2 \; 0 \; -1.2 \; -2.4 \; -3.6 \; -4.8 \; -6 \; -7.2 \; -8.4 \; -9.6
\; -10.8 \; -12 \; -13.2 \; -14.4 \; -15.6 \; -16.8 \; -18 \; -19.2
\; -20.4 \; -21.6 \; -22.8 \; -24 \; -25.2 \; -26.4 \; -27.6 \; -28.8
\; -30 \; \;;
#X scalar y-plot 293 231 1 \; 0 \; 0 \; 0 \; 0 \; 0 \; 0 \; 0 \; 0
\; 0 \; 0 \; 0 \; 0 \; 0 \; 0 \; 0 \; 0 \; 0 \; 0 \; 0 \; 0 \; 0 \;
0 \; 0 \; 0 \; 0 \; 0 \; 0 \; 0 \; 0 \; 0 \; 0 \; 0 \; 0 \; 0 \; 0
\; 0 \; 0 \; 0 \; 0 \; 0 \; 0 \; 0 \; 0 \; 0 \; 0 \; 0 \; 0 \; 0 \;
0 \; 0 \; 0 \; \;;
#X scalar y-plot 293 231 1 \; 0 \; 0 \; 0 \; 0 \; 0 \; 0 \; 0 \; 0
\; 0 \; 0 \; 0 \; 0 \; 0 \; 0 \; 0 \; 0 \; 0 \; 0 \; 0 \; 0 \; 0 \;
0 \; 0 \; 0 \; 0 \; 0 \; 0 \; 0 \; 0 \; 0 \; 0 \; 0 \; 0 \; 0 \; 0
\; 0 \; 0 \; 0 \; 0 \; 0 \; 0 \; 0 \; 0 \; 0 \; 0 \; 0 \; 0 \; 0 \;
0 \; 0 \; 0 \; \;;
#X scalar y-plot 293 231 1 \; 30 \; 29.4 \; 28.8 \; 28.2 \; 27.6 \;
27 \; 26.4 \; 25.8 \; 25.2 \; 24.6 \; 24 \; 23.4 \; 22.8 \; 22.2 \;
21.6 \; 21 \; 20.4 \; 19.8 \; 19.2 \; 18.6 \; 18 \; 17.4 \; 16.8 \;
16.2 \; 15.6 \; 15 \; 14.4 \; 13.8 \; 13.2 \; 12.6 \; 12 \; 11.4 \;
10.8 \; 10.2 \; 9.6 \; 9 \; 8.4 \; 7.8 \; 7.2 \; 6.6 \; 6 \; 5.4 \;
4.8 \; 4.2 \; 3.6 \; 3 \; 2.4 \; 1.8 \; 1.2 \; 0.599999 \; 0 \; \;
;
#X scalar y-plot 293 231 1 \; 0 \; 0 \; 0 \; 0 \; 0 \; 0 \; 0 \; 0
\; 0 \; 0 \; 0 \; 0 \; 0 \; 0 \; 0 \; 0 \; 0 \; 0 \; 0 \; 0 \; 0 \;
0 \; 0 \; 0 \; 0 \; 0 \; 0 \; 0 \; 0 \; 0 \; 0 \; 0 \; 0 \; 0 \; 0
\; 0 \; 0 \; 0 \; 0 \; 0 \; 0 \; 0 \; 0 \; 0 \; 0 \; 0 \; 0 \; 0 \;
0 \; 0 \; 0 \; \;;
#X scalar y-plot 293 231 1 \; 0 \; 0 \; 0 \; 0 \; 0 \; 0 \; 0 \; 0
\; 0 \; 0 \; 0 \; 0 \; 0 \; 0 \; 0 \; 0 \; 0 \; 0 \; 0 \; 0 \; 0 \;
0 \; 0 \; 0 \; 0 \; 0 \; 0 \; 0 \; 0 \; 0 \; 0 \; 0 \; 0 \; 0 \; 0
\; 0 \; 0 \; 0 \; 0 \; 0 \; 0 \; 0 \; 0 \; 0 \; 0 \; 0 \; 0 \; 0 \;
0 \; 0 \; 0 \; \;;
#X scalar haxis 18 231 350 347 \;;
#X scalar haxis 18 231 350 347 \;;
#X scalar haxis 18 231 350 347 \;;
#X scalar vaxis 43 191 80 77 \;;
#X scalar vaxis 43 191 80 77 \;;
#X scalar vaxis 43 191 80 77 \;;
#X scalar y-plot 93 231 1 \; 0 \; 0 \; 0 \; 0 \; 0 \; 0 \; 0 \; 0 \;
0 \; 0 \; 0 \; 0 \; 0 \; 0 \; 0 \; 0 \; 0 \; 0 \; 0 \; 0 \; 0 \; 0
\; 0 \; 0 \; 0 \; 0 \; 0 \; 0 \; 0 \; 0 \; 0 \; 0 \; 0 \; 0 \; 0 \;
0 \; 0 \; 0 \; 0 \; 0 \; 0 \; 0 \; 0 \; 0 \; 0 \; 0 \; 0 \; 0 \; 0
\; 0 \; 0 \; 0 \; 0 \; 0 \; 0 \; 0 \; 0 \; 0 \; 0 \; 0 \; 0 \; 0 \;
0 \; 0 \; 0 \; 0 \; 0 \; 0 \; 0 \; 0 \; 0 \; 0 \; 0 \; 0 \; 0 \; 0
\; 0 \; 0 \; 0 \; 0 \; 0 \; 0 \; 0 \; 0 \; 0 \; 0 \; 0 \; 0 \; 0 \;
0 \; 0 \; 0 \; 0 \; 0 \; 0 \; 0 \; 0 \; 0 \; 0 \; 0 \; 0 \; \;;
#X scalar y-plot 93 231 1 \; 0 \; 0 \; 0 \; 0 \; 0 \; 0 \; 0 \; 0 \;
0 \; 0 \; 0 \; 0 \; 0 \; 0 \; 0 \; 0 \; 0 \; 0 \; 0 \; 0 \; 0 \; 0
\; 0 \; 0 \; 0 \; 0 \; 0 \; 0 \; 0 \; 0 \; 0 \; 0 \; 0 \; 0 \; 0 \;
0 \; 0 \; 0 \; 0 \; 0 \; 0 \; 0 \; 0 \; 0 \; 0 \; 0 \; 0 \; 0 \; 0
\; 0 \; 0 \; 0 \; 0 \; 0 \; 0 \; 0 \; 0 \; 0 \; 0 \; 0 \; 0 \; 0 \;
0 \; 0 \; 0 \; 0 \; 0 \; 0 \; 0 \; 0 \; 0 \; 0 \; 0 \; 0 \; 0 \; 0
\; 0 \; 0 \; 0 \; 0 \; 0 \; 0 \; 0 \; 0 \; 0 \; 0 \; 0 \; 0 \; 0 \;
0 \; 0 \; 0 \; 0 \; 0 \; 0 \; 0 \; 0 \; 0 \; 0 \; 0 \; 0 \; \;;
#X scalar y-plot 93 231 1 \; 30 \; 29.4 \; 28.8 \; 28.2 \; 27.6 \;
27 \; 26.4 \; 25.8 \; 25.2 \; 24.6 \; 24 \; 23.4 \; 22.8 \; 22.2 \;
21.6 \; 21 \; 20.4 \; 19.8 \; 19.2 \; 18.6 \; 18 \; 17.4 \; 16.8 \;
16.2 \; 15.6 \; 15 \; 14.4 \; 13.8 \; 13.2 \; 12.6 \; 12 \; 11.4 \;
10.8 \; 10.2 \; 9.6 \; 9 \; 8.4 \; 7.8 \; 7.2 \; 6.6 \; 6 \; 5.4 \;
4.8 \; 4.2 \; 3.6 \; 3 \; 2.4 \; 1.8 \; 1.2 \; 0.599999 \; 0 \; -0.599999
\; -1.2 \; -1.8 \; -2.4 \; -3 \; -3.6 \; -4.2 \; -4.8 \; -5.4 \; -6
\; -6.6 \; -7.2 \; -7.8 \; -8.4 \; -9 \; -9.6 \; -10.2 \; -10.8 \;
-11.4 \; -12 \; -12.6 \; -13.2 \; -13.8 \; -14.4 \; -15 \; -15.6 \;
-16.2 \; -16.8 \; -17.4 \; -18 \; -18.6 \; -19.2 \; -19.8 \; -20.4
\; -21 \; -21.6 \; -22.2 \; -22.8 \; -23.4 \; -24 \; -24.6 \; -25.2
\; -25.8 \; -26.4 \; -27 \; -27.6 \; -28.2 \; -28.8 \; -29.4 \; -30
\; \;;
#X scalar y-plot 193 231 1 \; 0 \; 0 \; 0 \; 0 \; 0 \; 0 \; 0 \; 0
\; 0 \; 0 \; 0 \; 0 \; 0 \; 0 \; 0 \; 0 \; 0 \; 0 \; 0 \; 0 \; 0 \;
0 \; 0 \; 0 \; 0 \; 0 \; 0 \; 0 \; 0 \; 0 \; 0 \; 0 \; 0 \; 0 \; 0
\; 0 \; 0 \; 0 \; 0 \; 0 \; 0 \; 0 \; 0 \; 0 \; 0 \; 0 \; 0 \; 0 \;
0 \; 0 \; 0 \; 0 \; 0 \; 0 \; 0 \; 0 \; 0 \; 0 \; 0 \; 0 \; 0 \; 0
\; 0 \; 0 \; 0 \; 0 \; 0 \; 0 \; 0 \; 0 \; 0 \; 0 \; 0 \; 0 \; 0 \;
0 \; 0 \; 0 \; 0 \; 0 \; 0 \; 0 \; 0 \; 0 \; 0 \; 0 \; 0 \; 0 \; 0
\; 0 \; 0 \; 0 \; 0 \; 0 \; 0 \; 0 \; 0 \; 0 \; 0 \; 0 \; 0 \; \;;
#X scalar y-plot 193 231 1 \; 0 \; 0 \; 0 \; 0 \; 0 \; 0 \; 0 \; 0
\; 0 \; 0 \; 0 \; 0 \; 0 \; 0 \; 0 \; 0 \; 0 \; 0 \; 0 \; 0 \; 0 \;
0 \; 0 \; 0 \; 0 \; 0 \; 0 \; 0 \; 0 \; 0 \; 0 \; 0 \; 0 \; 0 \; 0
\; 0 \; 0 \; 0 \; 0 \; 0 \; 0 \; 0 \; 0 \; 0 \; 0 \; 0 \; 0 \; 0 \;
0 \; 0 \; 0 \; 0 \; 0 \; 0 \; 0 \; 0 \; 0 \; 0 \; 0 \; 0 \; 0 \; 0
\; 0 \; 0 \; 0 \; 0 \; 0 \; 0 \; 0 \; 0 \; 0 \; 0 \; 0 \; 0 \; 0 \;
0 \; 0 \; 0 \; 0 \; 0 \; 0 \; 0 \; 0 \; 0 \; 0 \; 0 \; 0 \; 0 \; 0
\; 0 \; 0 \; 0 \; 0 \; 0 \; 0 \; 0 \; 0 \; 0 \; 0 \; 0 \; 0 \; \;;
#X scalar y-plot 193 231 1 \; 30 \; 29.4 \; 28.8 \; 28.2 \; 27.6 \;
27 \; 26.4 \; 25.8 \; 25.2 \; 24.6 \; 24 \; 23.4 \; 22.8 \; 22.2 \;
21.6 \; 21 \; 20.4 \; 19.8 \; 19.2 \; 18.6 \; 18 \; 17.4 \; 16.8 \;
16.2 \; 15.6 \; 15 \; 14.4 \; 13.8 \; 13.2 \; 12.6 \; 12 \; 11.4 \;
10.8 \; 10.2 \; 9.6 \; 9 \; 8.4 \; 7.8 \; 7.2 \; 6.6 \; 6 \; 5.4 \;
4.8 \; 4.2 \; 3.6 \; 3 \; 2.4 \; 1.8 \; 1.2 \; 0.599999 \; 0 \; -0.599999
\; -1.2 \; -1.8 \; -2.4 \; -3 \; -3.6 \; -4.2 \; -4.8 \; -5.4 \; -6
\; -6.6 \; -7.2 \; -7.8 \; -8.4 \; -9 \; -9.6 \; -10.2 \; -10.8 \;
-11.4 \; -12 \; -12.6 \; -13.2 \; -13.8 \; -14.4 \; -15 \; -15.6 \;
-16.2 \; -16.8 \; -17.4 \; -18 \; -18.6 \; -19.2 \; -19.8 \; -20.4
\; -21 \; -21.6 \; -22.2 \; -22.8 \; -23.4 \; -24 \; -24.6 \; -25.2
\; -25.8 \; -26.4 \; -27 \; -27.6 \; -28.2 \; -28.8 \; -29.4 \; -30
\; \;;
#X scalar y-plot 43 231 1 \; 0 \; 0 \; 0 \; 0 \; 0 \; 0 \; 0 \; 0 \;
0 \; 0 \; 0 \; 0 \; 0 \; 0 \; 0 \; 0 \; 0 \; 0 \; 0 \; 0 \; 0 \; 0
\; 0 \; 0 \; 0 \; 0 \; 0 \; 0 \; 0 \; 0 \; 0 \; 0 \; 0 \; 0 \; 0 \;
0 \; 0 \; 0 \; 0 \; 0 \; 0 \; 0 \; 0 \; 0 \; 0 \; 0 \; 0 \; 0 \; 0
\; 0 \; 0 \; \;;
#X scalar y-plot 43 231 1 \; 0 \; 0 \; 0 \; 0 \; 0 \; 0 \; 0 \; 0 \;
0 \; 0 \; 0 \; 0 \; 0 \; 0 \; 0 \; 0 \; 0 \; 0 \; 0 \; 0 \; 0 \; 0
\; 0 \; 0 \; 0 \; 0 \; 0 \; 0 \; 0 \; 0 \; 0 \; 0 \; 0 \; 0 \; 0 \;
0 \; 0 \; 0 \; 0 \; 0 \; 0 \; 0 \; 0 \; 0 \; 0 \; 0 \; 0 \; 0 \; 0
\; 0 \; 0 \; \;;
#X scalar y-plot 43 231 1 \; 0 \; -0.599999 \; -1.2 \; -1.8 \; -2.4
\; -3 \; -3.6 \; -4.2 \; -4.8 \; -5.4 \; -6 \; -6.6 \; -7.2 \; -7.8
\; -8.4 \; -9 \; -9.6 \; -10.2 \; -10.8 \; -11.4 \; -12 \; -12.6 \;
-13.2 \; -13.8 \; -14.4 \; -15 \; -15.6 \; -16.2 \; -16.8 \; -17.4
\; -18 \; -18.6 \; -19.2 \; -19.8 \; -20.4 \; -21 \; -21.6 \; -22.2
\; -22.8 \; -23.4 \; -24 \; -24.6 \; -25.2 \; -25.8 \; -26.4 \; -27
\; -27.6 \; -28.2 \; -28.8 \; -29.4 \; -30 \; \;;
#X scalar y-plot 243 231 1 \; 0 \; 0 \; 0 \; 0 \; 0 \; 0 \; 0 \; 0
\; 0 \; 0 \; 0 \; 0 \; 0 \; 0 \; 0 \; 0 \; 0 \; 0 \; 0 \; 0 \; 0 \;
0 \; 0 \; 0 \; 0 \; 0 \; 0 \; 0 \; 0 \; 0 \; 0 \; 0 \; 0 \; 0 \; 0
\; 0 \; 0 \; 0 \; 0 \; 0 \; 0 \; 0 \; 0 \; 0 \; 0 \; 0 \; 0 \; 0 \;
0 \; 0 \; 0 \; \;;
#X scalar y-plot 243 231 1 \; 0 \; 0 \; 0 \; 0 \; 0 \; 0 \; 0 \; 0
\; 0 \; 0 \; 0 \; 0 \; 0 \; 0 \; 0 \; 0 \; 0 \; 0 \; 0 \; 0 \; 0 \;
0 \; 0 \; 0 \; 0 \; 0 \; 0 \; 0 \; 0 \; 0 \; 0 \; 0 \; 0 \; 0 \; 0
\; 0 \; 0 \; 0 \; 0 \; 0 \; 0 \; 0 \; 0 \; 0 \; 0 \; 0 \; 0 \; 0 \;
0 \; 0 \; 0 \; \;;
#X scalar haxis 18 318 350 347 \;;
#X scalar vaxis 43 278 80 77 \;;
#X scalar y-plot 43 318 1 \; 30 \; 29.4 \; 28.8 \; 28.2 \; 27.6 \;
27 \; 26.4 \; 25.8 \; 25.2 \; 24.6 \; 24 \; 23.4 \; 22.8 \; 22.2 \;
21.6 \; 21 \; 20.4 \; 19.8 \; 19.2 \; 18.6 \; 18 \; 17.4 \; 16.8 \;
16.2 \; 15.6 \; 15 \; 14.4 \; 13.8 \; 13.2 \; 12.6 \; 12 \; 11.4 \;
10.8 \; 10.2 \; 9.6 \; 9 \; 8.4 \; 7.8 \; 7.2 \; 6.6 \; 6 \; 5.4 \;
4.8 \; 4.2 \; 3.6 \; 3 \; 2.4 \; 1.8 \; 1.2 \; 0.599999 \; 0 \; -0.599999
\; -1.2 \; -1.8 \; -2.4 \; -3 \; -3.6 \; -4.2 \; -4.8 \; -5.4 \; -6
\; -6.6 \; -7.2 \; -7.8 \; -8.4 \; -9 \; -9.6 \; -10.2 \; -10.8 \;
-11.4 \; -12 \; -12.6 \; -13.2 \; -13.8 \; -14.4 \; -15 \; -15.6 \;
-16.2 \; -16.8 \; -17.4 \; -18 \; -18.6 \; -19.2 \; -19.8 \; -20.4
\; -21 \; -21.6 \; -22.2 \; -22.8 \; -23.4 \; -24 \; -24.6 \; -25.2
\; -25.8 \; -26.4 \; -27 \; -27.6 \; -28.2 \; -28.8 \; -29.4 \; -30
\; \;;
#X scalar y-plot 143 318 1 \; 30 \; 29.4 \; 28.8 \; 28.2 \; 27.6 \;
27 \; 26.4 \; 25.8 \; 25.2 \; 24.6 \; 24 \; 23.4 \; 22.8 \; 22.2 \;
21.6 \; 21 \; 20.4 \; 19.8 \; 19.2 \; 18.6 \; 18 \; 17.4 \; 16.8 \;
16.2 \; 15.6 \; 15 \; 14.4 \; 13.8 \; 13.2 \; 12.6 \; 12 \; 11.4 \;
10.8 \; 10.2 \; 9.6 \; 9 \; 8.4 \; 7.8 \; 7.2 \; 6.6 \; 6 \; 5.4 \;
4.8 \; 4.2 \; 3.6 \; 3 \; 2.4 \; 1.8 \; 1.2 \; 0.599999 \; 0 \; -0.599999
\; -1.2 \; -1.8 \; -2.4 \; -3 \; -3.6 \; -4.2 \; -4.8 \; -5.4 \; -6
\; -6.6 \; -7.2 \; -7.8 \; -8.4 \; -9 \; -9.6 \; -10.2 \; -10.8 \;
-11.4 \; -12 \; -12.6 \; -13.2 \; -13.8 \; -14.4 \; -15 \; -15.6 \;
-16.2 \; -16.8 \; -17.4 \; -18 \; -18.6 \; -19.2 \; -19.8 \; -20.4
\; -21 \; -21.6 \; -22.2 \; -22.8 \; -23.4 \; -24 \; -24.6 \; -25.2
\; -25.8 \; -26.4 \; -27 \; -27.6 \; -28.2 \; -28.8 \; -29.4 \; -30
\; \;;
#X scalar y-plot 243 318 1 \; 30 \; 29.4 \; 28.8 \; 28.2 \; 27.6 \;
27 \; 26.4 \; 25.8 \; 25.2 \; 24.6 \; 24 \; 23.4 \; 22.8 \; 22.2 \;
21.6 \; 21 \; 20.4 \; 19.8 \; 19.2 \; 18.6 \; 18 \; 17.4 \; 16.8 \;
16.2 \; 15.6 \; 15 \; 14.4 \; 13.8 \; 13.2 \; 12.6 \; 12 \; 11.4 \;
10.8 \; 10.2 \; 9.6 \; 9 \; 8.4 \; 7.8 \; 7.2 \; 6.6 \; 6 \; 5.4 \;
4.8 \; 4.2 \; 3.6 \; 3 \; 2.4 \; 1.8 \; 1.2 \; 0.599999 \; 0 \; -0.599999
\; -1.2 \; -1.8 \; -2.4 \; -3 \; -3.6 \; -4.2 \; -4.8 \; -5.4 \; -6
\; -6.6 \; -7.2 \; -7.8 \; -8.4 \; -9 \; -9.6 \; -10.2 \; -10.8 \;
-11.4 \; -12 \; -12.6 \; -13.2 \; -13.8 \; -14.4 \; -15 \; -15.6 \;
-16.2 \; -16.8 \; -17.4 \; -18 \; -18.6 \; -19.2 \; -19.8 \; -20.4
\; -21 \; -21.6 \; -22.2 \; -22.8 \; -23.4 \; -24 \; -24.6 \; -25.2
\; -25.8 \; -26.4 \; -27 \; -27.6 \; -28.2 \; -28.8 \; -29.4 \; -30
\; \;;
#X coords 0 394 1 393 0 0 0;
#X restore 54 89 pd z;
#N canvas 265 21 982 588 make-fig 1;
#X msg 24 62 \; start pd-z \;;
#X obj 25 453 pack;
#X msg 25 484 \; y-plot-point \$1 \$2 \;;
#X msg 161 29 \; pd-z clear \; start pd-z;
#X msg 26 285 \; add-y-plot 101 275 100 1 \;;
#X obj 26 342 scanner 100 2;
#X obj 69 383 * -1;
#X obj 68 404 + 1;
#X obj 68 428 * 30;
#X msg 123 97 \; add-haxis 50 100 350 347 \; add-vaxis 75 60 80 77
;
#X msg 26 209 \; add-y-plot 101 75 100 1 \;;
#X msg 27 244 \; add-y-plot 101 175 100 1 \;;
#X msg 295 224 \; add-y-plot 101 125 100 1 \;;
#X msg 296 259 \; add-y-plot 101 225 100 1 \;;
#X msg 241 300 \; add-y-plot 51 75 100 1 \;;
#X obj 420 432 pack;
#X msg 420 463 \; y-plot-point \$1 \$2 \;;
#X obj 417 336 scanner 100 2;
#X obj 483 380 * -1;
#X obj 483 401 + 1;
#X obj 483 425 * 30;
#X obj 419 397 moses 51;
#X obj 239 452 pack;
#X msg 239 477 \; y-plot-point \$1 \$2 \;;
#X obj 238 342 scanner 100 2;
#X obj 312 385 * -1;
#X obj 311 406 + 1;
#X obj 311 430 * 30;
#X obj 239 399 moses 50;
#X obj 239 422 - 50;
#X msg 415 300 \; add-y-plot 51 325 100 1 \;;
#X obj 620 461 pack;
#X msg 620 492 \; y-plot-point \$1 \$2 \;;
#X obj 664 391 * -1;
#X obj 663 412 + 1;
#X obj 663 436 * 30;
#X obj 621 350 scanner 50 2;
#X msg 611 83 \; add-y-plot 51 75 100 1 \;;
#X msg 609 124 \; add-y-plot 51 125 100 1 \;;
#X msg 609 158 \; add-y-plot 51 175 100 1 \;;
#X msg 608 194 \; add-y-plot 51 225 100 1 \;;
#X msg 608 229 \; add-y-plot 51 275 100 1 \;;
#X msg 610 266 \; add-y-plot 51 325 100 1 \;;
#X msg 796 83 \; add-y-plot 51 75 130 1 \;;
#X msg 794 124 \; add-y-plot 51 125 70 1 \;;
#X msg 794 158 \; add-y-plot 51 175 130 1 \;;
#X msg 792 194 \; add-y-plot 51 225 70 1 \;;
#X msg 793 229 \; add-y-plot 51 275 130 1 \;;
#X msg 795 266 \; add-y-plot 51 325 70 1 \;;
#X connect 1 0 2 0;
#X connect 5 0 1 0;
#X connect 5 1 6 0;
#X connect 6 0 7 0;
#X connect 7 0 8 0;
#X connect 8 0 1 1;
#X connect 15 0 16 0;
#X connect 17 0 21 0;
#X connect 17 1 18 0;
#X connect 18 0 19 0;
#X connect 19 0 20 0;
#X connect 20 0 15 1;
#X connect 21 0 15 0;
#X connect 22 0 23 0;
#X connect 24 0 28 0;
#X connect 24 1 25 0;
#X connect 25 0 26 0;
#X connect 26 0 27 0;
#X connect 27 0 22 1;
#X connect 28 1 29 0;
#X connect 29 0 22 0;
#X connect 31 0 32 0;
#X connect 33 0 34 0;
#X connect 34 0 35 0;
#X connect 35 0 31 1;
#X connect 36 0 31 0;
#X connect 36 1 33 0;
#X restore 170 83 pd make-fig;
