#N struct rect float x float y float w float h;
#N struct haxis float x float y float w float w-3;
#N struct vaxis float x float y float h float h-3;
#N struct y-plot float x float y float w array z y-point;
#N struct y-point float y;
#N struct xy-curve float x float y float w array z xy-point;
#N struct xy-point float x float y;
#N struct seg float x float y float dx float dy float w;
#N struct l-curve-arrow float x float y float z float z2 float z3 float
h;
#N struct circle2 float x float y float h float h2 float mh float mh2
;
#N struct xy-plot float x float y float w array z xy-point;
#N struct d-curve-arrow float x float y float z float z2 float z3 float
h;
#N struct circle float x float y float color float h float h2;
#N struct u-curve-arrow float x float y float z float z2 float z3 float
h;
#N struct r-curve-arrow float x float y float z float z2 float z3 float
h;
#N struct r-arrow float x float y float z;
#N struct l-arrow float x float y float z;
#N struct u-arrow float x float y float z;
#N struct d-arrow float x float y float z;
#N struct v-seg float x float y float z float w;
#N struct h-seg float x float y float z float w;
#N struct frame float x float y float w float h;
#N struct thickcircle float x float y float color float h float h2
;
#N struct times float x float y;
#N struct plus float x float y;
#N struct minus float x float y;
#N struct divide float x float y;
#N canvas 536 141 311 399 10;
#N canvas 111 238 385 292 fig 1;
#X text 11 3 (a);
#X text 10 106 (b);
#X text 10 203 (c);
#X scalar rect 139 252 2 4 \;;
#X scalar rect 239 252 2 4 \;;
#X scalar rect 339 252 2 4 \;;
#X scalar haxis 15 254 350 347 \;;
#X scalar vaxis 40 214 80 77 \;;
#X scalar y-plot 40 254 1 \; 20.001 \; 20.1189 \; 20.4666 \; 21.0262
\; 21.7685 \; 22.6544 \; 23.6359 \; 24.6582 \; 25.6614 \; 26.583 \;
27.3604 \; 27.9324 \; 28.2427 \; 28.2408 \; 27.8849 \; 27.1432 \; 25.995
\; 24.4319 \; 22.4583 \; 20.0911 \; 17.3599 \; 14.3055 \; 10.9792 \;
7.44094 \; 3.75742 \; 7.60516e-05 \; -3.75727 \; -7.4408 \; -10.9791
\; -14.3054 \; -17.3598 \; -20.091 \; -22.4582 \; -24.4318 \; -25.9949
\; -27.1431 \; -27.8849 \; -28.2408 \; -28.2427 \; -27.9325 \; -27.3604
\; -26.5831 \; -25.6614 \; -24.6582 \; -23.636 \; -22.6545 \; -21.7686
\; -21.0262 \; -20.4666 \; -20.1189 \; -20.1189 \; \;;
#X scalar y-plot 90 254 1 \; -20.001 \; -20.1189 \; -20.4666 \; -21.0262
\; -21.7685 \; -22.6544 \; -23.6359 \; -24.6582 \; -25.6614 \; -26.583
\; -27.3604 \; -27.9324 \; -28.2427 \; -28.2408 \; -27.8849 \; -27.1432
\; -25.995 \; -24.4319 \; -22.4583 \; -20.0911 \; -17.3599 \; -14.3055
\; -10.9792 \; -7.44094 \; -3.75742 \; -7.60516e-05 \; 3.75727 \; 7.4408
\; 10.9791 \; 14.3054 \; 17.3598 \; 20.091 \; 22.4582 \; 24.4318 \;
25.9949 \; 27.1431 \; 27.8849 \; 28.2408 \; 28.2427 \; 27.9325 \; 27.3604
\; 26.5831 \; 25.6614 \; 24.6582 \; 23.636 \; 22.6545 \; 21.7686 \;
21.0262 \; 20.4666 \; 20.1189 \; 20.1189 \; \;;
#X scalar y-plot 140 254 1 \; 20.001 \; 20.1189 \; 20.4666 \; 21.0262
\; 21.7685 \; 22.6544 \; 23.6359 \; 24.6582 \; 25.6614 \; 26.583 \;
27.3604 \; 27.9324 \; 28.2427 \; 28.2408 \; 27.8849 \; 27.1432 \; 25.995
\; 24.4319 \; 22.4583 \; 20.0911 \; 17.3599 \; 14.3055 \; 10.9792 \;
7.44094 \; 3.75742 \; 7.60516e-05 \; -3.75727 \; -7.4408 \; -10.9791
\; -14.3054 \; -17.3598 \; -20.091 \; -22.4582 \; -24.4318 \; -25.9949
\; -27.1431 \; -27.8849 \; -28.2408 \; -28.2427 \; -27.9325 \; -27.3604
\; -26.5831 \; -25.6614 \; -24.6582 \; -23.636 \; -22.6545 \; -21.7686
\; -21.0262 \; -20.4666 \; -20.1189 \; -20.1189 \; \;;
#X scalar y-plot 190 254 1 \; -20.001 \; -20.1189 \; -20.4666 \; -21.0262
\; -21.7685 \; -22.6544 \; -23.6359 \; -24.6582 \; -25.6614 \; -26.583
\; -27.3604 \; -27.9324 \; -28.2427 \; -28.2408 \; -27.8849 \; -27.1432
\; -25.995 \; -24.4319 \; -22.4583 \; -20.0911 \; -17.3599 \; -14.3055
\; -10.9792 \; -7.44094 \; -3.75742 \; -7.60516e-05 \; 3.75727 \; 7.4408
\; 10.9791 \; 14.3054 \; 17.3598 \; 20.091 \; 22.4582 \; 24.4318 \;
25.9949 \; 27.1431 \; 27.8849 \; 28.2408 \; 28.2427 \; 27.9325 \; 27.3604
\; 26.5831 \; 25.6614 \; 24.6582 \; 23.636 \; 22.6545 \; 21.7686 \;
21.0262 \; 20.4666 \; 20.1189 \; 20.1189 \; \;;
#X scalar y-plot 240 254 1 \; 20.001 \; 20.1189 \; 20.4666 \; 21.0262
\; 21.7685 \; 22.6544 \; 23.6359 \; 24.6582 \; 25.6614 \; 26.583 \;
27.3604 \; 27.9324 \; 28.2427 \; 28.2408 \; 27.8849 \; 27.1432 \; 25.995
\; 24.4319 \; 22.4583 \; 20.0911 \; 17.3599 \; 14.3055 \; 10.9792 \;
7.44094 \; 3.75742 \; 7.60516e-05 \; -3.75727 \; -7.4408 \; -10.9791
\; -14.3054 \; -17.3598 \; -20.091 \; -22.4582 \; -24.4318 \; -25.9949
\; -27.1431 \; -27.8849 \; -28.2408 \; -28.2427 \; -27.9325 \; -27.3604
\; -26.5831 \; -25.6614 \; -24.6582 \; -23.636 \; -22.6545 \; -21.7686
\; -21.0262 \; -20.4666 \; -20.1189 \; -20.1189 \; \;;
#X scalar y-plot 290 254 1 \; -20.001 \; -20.1189 \; -20.4666 \; -21.0262
\; -21.7685 \; -22.6544 \; -23.6359 \; -24.6582 \; -25.6614 \; -26.583
\; -27.3604 \; -27.9324 \; -28.2427 \; -28.2408 \; -27.8849 \; -27.1432
\; -25.995 \; -24.4319 \; -22.4583 \; -20.0911 \; -17.3599 \; -14.3055
\; -10.9792 \; -7.44094 \; -3.75742 \; -7.60516e-05 \; 3.75727 \; 7.4408
\; 10.9791 \; 14.3054 \; 17.3598 \; 20.091 \; 22.4582 \; 24.4318 \;
25.9949 \; 27.1431 \; 27.8849 \; 28.2408 \; 28.2427 \; 27.9325 \; 27.3604
\; 26.5831 \; 25.6614 \; 24.6582 \; 23.636 \; 22.6545 \; 21.7686 \;
21.0262 \; 20.4666 \; 20.1189 \; 20.1189 \; \;;
#X scalar rect 139 154 2 4 \;;
#X scalar rect 239 154 2 4 \;;
#X scalar rect 339 154 2 4 \;;
#X scalar haxis 15 156 350 347 \;;
#X scalar vaxis 40 116 80 77 \;;
#X scalar y-plot 40 156 1 \; 20.001 \; 20.1189 \; 20.4666 \; 21.0262
\; 21.7685 \; 22.6544 \; 23.6359 \; 24.6582 \; 25.6614 \; 26.583 \;
27.3604 \; 27.9324 \; 28.2427 \; 28.2408 \; 27.8849 \; 27.1432 \; 25.995
\; 24.4319 \; 22.4583 \; 20.0911 \; 17.3599 \; 14.3055 \; 10.9792 \;
7.44094 \; 3.75742 \; 7.60516e-05 \; -3.75727 \; -7.4408 \; -10.9791
\; -14.3054 \; -17.3598 \; -20.091 \; -22.4582 \; -24.4318 \; -25.9949
\; -27.1431 \; -27.8849 \; -28.2408 \; -28.2427 \; -27.9325 \; -27.3604
\; -26.5831 \; -25.6614 \; -24.6582 \; -23.636 \; -22.6545 \; -21.7686
\; -21.0262 \; -20.4666 \; -20.1189 \; -20.1189 \; \;;
#X scalar y-plot 90 156 1 \; -19.9995 \; -19.9995 \; -19.9995 \; -19.9995
\; -19.9995 \; -19.9995 \; -19.9995 \; -19.9995 \; -19.9995 \; -19.9995
\; -19.9995 \; -19.9995 \; -19.9995 \; -19.9995 \; -19.9995 \; -19.9995
\; -19.9995 \; -19.9995 \; -19.9995 \; -19.9995 \; -19.9995 \; -19.9995
\; -19.9995 \; -19.9995 \; -19.9995 \; -19.9995 \; -19.9995 \; -19.9995
\; -19.9995 \; -19.9995 \; -19.9995 \; -19.9995 \; -19.9995 \; -19.9995
\; -19.9995 \; -19.9995 \; -19.9995 \; -19.9995 \; -19.9995 \; -19.9995
\; -19.9995 \; -19.9995 \; -19.9995 \; -19.9995 \; -19.9995 \; -19.9995
\; -19.9995 \; -19.9995 \; -19.9995 \; -19.9995 \; -19.9995 \; \;;
#X scalar y-plot 140 156 1 \; -20.001 \; -20.1189 \; -20.4666 \; -21.0262
\; -21.7685 \; -22.6544 \; -23.6359 \; -24.6582 \; -25.6614 \; -26.583
\; -27.3604 \; -27.9324 \; -28.2427 \; -28.2408 \; -27.8849 \; -27.1432
\; -25.995 \; -24.4319 \; -22.4583 \; -20.0911 \; -17.3599 \; -14.3055
\; -10.9792 \; -7.44094 \; -3.75742 \; -7.60516e-05 \; 3.75727 \; 7.4408
\; 10.9791 \; 14.3054 \; 17.3598 \; 20.091 \; 22.4582 \; 24.4318 \;
25.9949 \; 27.1431 \; 27.8849 \; 28.2408 \; 28.2427 \; 27.9325 \; 27.3604
\; 26.5831 \; 25.6614 \; 24.6582 \; 23.636 \; 22.6545 \; 21.7686 \;
21.0262 \; 20.4666 \; 20.1189 \; 20.1189 \; \;;
#X scalar y-plot 190 156 1 \; 20 \; 20 \; 20 \; 20 \; 20 \; 20 \; 20
\; 20 \; 20 \; 20 \; 20 \; 20 \; 20 \; 20 \; 20 \; 20 \; 20 \; 20 \;
20 \; 20 \; 20 \; 20 \; 20 \; 20 \; 20 \; 20 \; 20 \; 20 \; 20 \; 20
\; 20 \; 20 \; 20 \; 20 \; 20 \; 20 \; 20 \; 20 \; 20 \; 20 \; 20 \;
20 \; 20 \; 20 \; 20 \; 20 \; 20 \; 20 \; 20 \; 20 \; 20 \; \;;
#X scalar y-plot 240 156 1 \; 20.001 \; 20.1189 \; 20.4666 \; 21.0262
\; 21.7685 \; 22.6544 \; 23.6359 \; 24.6582 \; 25.6614 \; 26.583 \;
27.3604 \; 27.9324 \; 28.2427 \; 28.2408 \; 27.8849 \; 27.1432 \; 25.995
\; 24.4319 \; 22.4583 \; 20.0911 \; 17.3599 \; 14.3055 \; 10.9792 \;
7.44094 \; 3.75742 \; 7.60516e-05 \; -3.75727 \; -7.4408 \; -10.9791
\; -14.3054 \; -17.3598 \; -20.091 \; -22.4582 \; -24.4318 \; -25.9949
\; -27.1431 \; -27.8849 \; -28.2408 \; -28.2427 \; -27.9325 \; -27.3604
\; -26.5831 \; -25.6614 \; -24.6582 \; -23.636 \; -22.6545 \; -21.7686
\; -21.0262 \; -20.4666 \; -20.1189 \; -20.1189 \; \;;
#X scalar y-plot 290 156 1 \; -19.9995 \; -19.9995 \; -19.9995 \; -19.9995
\; -19.9995 \; -19.9995 \; -19.9995 \; -19.9995 \; -19.9995 \; -19.9995
\; -19.9995 \; -19.9995 \; -19.9995 \; -19.9995 \; -19.9995 \; -19.9995
\; -19.9995 \; -19.9995 \; -19.9995 \; -19.9995 \; -19.9995 \; -19.9995
\; -19.9995 \; -19.9995 \; -19.9995 \; -19.9995 \; -19.9995 \; -19.9995
\; -19.9995 \; -19.9995 \; -19.9995 \; -19.9995 \; -19.9995 \; -19.9995
\; -19.9995 \; -19.9995 \; -19.9995 \; -19.9995 \; -19.9995 \; -19.9995
\; -19.9995 \; -19.9995 \; -19.9995 \; -19.9995 \; -19.9995 \; -19.9995
\; -19.9995 \; -19.9995 \; -19.9995 \; -19.9995 \; -19.9995 \; \;;
#X scalar rect 139 54 2 4 \;;
#X scalar rect 239 54 2 4 \;;
#X scalar rect 339 54 2 4 \;;
#X scalar haxis 15 56 350 347 \;;
#X scalar vaxis 40 16 80 77 \;;
#X scalar y-plot 40 56 1 \; 7.60516e-05 \; 3.35752 \; 6.64114 \; 9.77953
\; 12.7059 \; 15.3604 \; 17.6917 \; 19.659 \; 21.2327 \; 22.3959 \;
23.1442 \; 23.486 \; 23.442 \; 23.044 \; 22.3338 \; 21.3619 \; 20.1846
\; 18.8631 \; 17.46 \; 16.0378 \; 14.6564 \; 13.3706 \; 12.2284 \;
11.2689 \; 10.5213 \; 9.72151 \; \;;
#X scalar y-plot 65 56 1 \; 9.9975 \; 9.5976 \; 9.1977 \; 8.7978 \;
8.3979 \; 7.998 \; 7.5981 \; 7.1982 \; 6.7983 \; 6.3984 \; 5.9985 \;
5.5986 \; 5.1987 \; 4.7988 \; 4.3989 \; 3.999 \; 3.5991 \; 3.1992 \;
2.7993 \; 2.3994 \; 1.9995 \; 1.5996 \; 1.1997 \; 0.7998 \; 0.3999
\; -0 \; -0.399901 \; -0.7998 \; -1.1997 \; -1.5996 \; -1.9995 \; -2.3994
\; -2.7993 \; -3.1992 \; -3.5991 \; -3.999 \; -4.3989 \; -4.7988 \;
-5.1987 \; -5.5986 \; -5.9985 \; -6.3984 \; -6.7983 \; -7.1982 \; -7.5981
\; -7.998 \; -8.3979 \; -8.7978 \; -9.1977 \; -9.5976 \; -10.3974 \;
\;;
#X scalar y-plot 115 56 1 \; -10.0035 \; -10.5213 \; -11.2689 \; -12.2284
\; -13.3707 \; -14.6565 \; -16.0379 \; -17.46 \; -18.8631 \; -20.1847
\; -21.3619 \; -22.3339 \; -23.044 \; -23.442 \; -23.486 \; -23.1441
\; -22.3958 \; -21.2326 \; -19.6589 \; -17.6916 \; -15.3603 \; -12.7058
\; -9.7794 \; -6.64099 \; -3.35736 \; 7.60516e-05 \; 3.35752 \; 6.64114
\; 9.77953 \; 12.7059 \; 15.3604 \; 17.6917 \; 19.659 \; 21.2327 \;
22.3959 \; 23.1442 \; 23.486 \; 23.442 \; 23.044 \; 22.3338 \; 21.3619
\; 20.1846 \; 18.8631 \; 17.46 \; 16.0378 \; 14.6564 \; 13.3706 \;
12.2284 \; 11.2689 \; 10.5213 \; 9.72151 \; \;;
#X scalar y-plot 165 56 1 \; 9.9975 \; 9.5976 \; 9.1977 \; 8.7978 \;
8.3979 \; 7.998 \; 7.5981 \; 7.1982 \; 6.7983 \; 6.3984 \; 5.9985 \;
5.5986 \; 5.1987 \; 4.7988 \; 4.3989 \; 3.999 \; 3.5991 \; 3.1992 \;
2.7993 \; 2.3994 \; 1.9995 \; 1.5996 \; 1.1997 \; 0.7998 \; 0.3999
\; -0 \; -0.399901 \; -0.7998 \; -1.1997 \; -1.5996 \; -1.9995 \; -2.3994
\; -2.7993 \; -3.1992 \; -3.5991 \; -3.999 \; -4.3989 \; -4.7988 \;
-5.1987 \; -5.5986 \; -5.9985 \; -6.3984 \; -6.7983 \; -7.1982 \; -7.5981
\; -7.998 \; -8.3979 \; -8.7978 \; -9.1977 \; -9.5976 \; -10.3974 \;
\;;
#X scalar y-plot 215 56 1 \; -10.0035 \; -10.5213 \; -11.2689 \; -12.2284
\; -13.3707 \; -14.6565 \; -16.0379 \; -17.46 \; -18.8631 \; -20.1847
\; -21.3619 \; -22.3339 \; -23.044 \; -23.442 \; -23.486 \; -23.1441
\; -22.3958 \; -21.2326 \; -19.6589 \; -17.6916 \; -15.3603 \; -12.7058
\; -9.7794 \; -6.64099 \; -3.35736 \; 7.60516e-05 \; 3.35752 \; 6.64114
\; 9.77953 \; 12.7059 \; 15.3604 \; 17.6917 \; 19.659 \; 21.2327 \;
22.3959 \; 23.1442 \; 23.486 \; 23.442 \; 23.044 \; 22.3338 \; 21.3619
\; 20.1846 \; 18.8631 \; 17.46 \; 16.0378 \; 14.6564 \; 13.3706 \;
12.2284 \; 11.2689 \; 10.5213 \; 9.72151 \; \;;
#X scalar y-plot 265 56 1 \; 9.9975 \; 9.5976 \; 9.1977 \; 8.7978 \;
8.3979 \; 7.998 \; 7.5981 \; 7.1982 \; 6.7983 \; 6.3984 \; 5.9985 \;
5.5986 \; 5.1987 \; 4.7988 \; 4.3989 \; 3.999 \; 3.5991 \; 3.1992 \;
2.7993 \; 2.3994 \; 1.9995 \; 1.5996 \; 1.1997 \; 0.7998 \; 0.3999
\; -0 \; -0.399901 \; -0.7998 \; -1.1997 \; -1.5996 \; -1.9995 \; -2.3994
\; -2.7993 \; -3.1992 \; -3.5991 \; -3.999 \; -4.3989 \; -4.7988 \;
-5.1987 \; -5.5986 \; -5.9985 \; -6.3984 \; -6.7983 \; -7.1982 \; -7.5981
\; -7.998 \; -8.3979 \; -8.7978 \; -9.1977 \; -9.5976 \; -10.3974 \;
\;;
#X scalar y-plot 315 56 1 \; -10.0035 \; -10.5213 \; -11.2689 \; -12.2284
\; -13.3707 \; -14.6565 \; -16.0379 \; -17.46 \; -18.8631 \; -20.1847
\; -21.3619 \; -22.3339 \; -23.044 \; -23.442 \; -23.486 \; -23.1441
\; -22.3958 \; -21.2326 \; -19.6589 \; -17.6916 \; -15.3603 \; -12.7058
\; -9.7794 \; -6.641 \; -3.35736 \; 3.35751 \; \;;
#X coords 0 292 1 291 0 0 0;
#X restore 51 61 pd fig;
#X obj 32 13 templates;
#N canvas 14 431 464 288 z 1;
#X scalar rect 174 98 2 4 \;;
#X scalar rect 274 98 2 4 \;;
#X scalar rect 374 98 2 4 \;;
#X scalar haxis 50 100 350 347 \;;
#X scalar vaxis 75 60 80 77 \;;
#X scalar y-plot 75 100 1 \; 7.60516e-05 \; 3.35752 \; 6.64114 \; 9.77953
\; 12.7059 \; 15.3604 \; 17.6917 \; 19.659 \; 21.2327 \; 22.3959 \;
23.1442 \; 23.486 \; 23.442 \; 23.044 \; 22.3338 \; 21.3619 \; 20.1846
\; 18.8631 \; 17.46 \; 16.0378 \; 14.6564 \; 13.3706 \; 12.2284 \;
11.2689 \; 10.5213 \; 9.72151 \; \;;
#X scalar y-plot 100 100 1 \; 9.9975 \; 9.5976 \; 9.1977 \; 8.7978
\; 8.3979 \; 7.998 \; 7.5981 \; 7.1982 \; 6.7983 \; 6.3984 \; 5.9985
\; 5.5986 \; 5.1987 \; 4.7988 \; 4.3989 \; 3.999 \; 3.5991 \; 3.1992
\; 2.7993 \; 2.3994 \; 1.9995 \; 1.5996 \; 1.1997 \; 0.7998 \; 0.3999
\; -0 \; -0.399901 \; -0.7998 \; -1.1997 \; -1.5996 \; -1.9995 \; -2.3994
\; -2.7993 \; -3.1992 \; -3.5991 \; -3.999 \; -4.3989 \; -4.7988 \;
-5.1987 \; -5.5986 \; -5.9985 \; -6.3984 \; -6.7983 \; -7.1982 \; -7.5981
\; -7.998 \; -8.3979 \; -8.7978 \; -9.1977 \; -9.5976 \; -10.3974 \;
\;;
#X scalar y-plot 150 100 1 \; -10.0035 \; -10.5213 \; -11.2689 \; -12.2284
\; -13.3707 \; -14.6565 \; -16.0379 \; -17.46 \; -18.8631 \; -20.1847
\; -21.3619 \; -22.3339 \; -23.044 \; -23.442 \; -23.486 \; -23.1441
\; -22.3958 \; -21.2326 \; -19.6589 \; -17.6916 \; -15.3603 \; -12.7058
\; -9.7794 \; -6.64099 \; -3.35736 \; 7.60516e-05 \; 3.35752 \; 6.64114
\; 9.77953 \; 12.7059 \; 15.3604 \; 17.6917 \; 19.659 \; 21.2327 \;
22.3959 \; 23.1442 \; 23.486 \; 23.442 \; 23.044 \; 22.3338 \; 21.3619
\; 20.1846 \; 18.8631 \; 17.46 \; 16.0378 \; 14.6564 \; 13.3706 \;
12.2284 \; 11.2689 \; 10.5213 \; 9.72151 \; \;;
#X scalar y-plot 200 100 1 \; 9.9975 \; 9.5976 \; 9.1977 \; 8.7978
\; 8.3979 \; 7.998 \; 7.5981 \; 7.1982 \; 6.7983 \; 6.3984 \; 5.9985
\; 5.5986 \; 5.1987 \; 4.7988 \; 4.3989 \; 3.999 \; 3.5991 \; 3.1992
\; 2.7993 \; 2.3994 \; 1.9995 \; 1.5996 \; 1.1997 \; 0.7998 \; 0.3999
\; -0 \; -0.399901 \; -0.7998 \; -1.1997 \; -1.5996 \; -1.9995 \; -2.3994
\; -2.7993 \; -3.1992 \; -3.5991 \; -3.999 \; -4.3989 \; -4.7988 \;
-5.1987 \; -5.5986 \; -5.9985 \; -6.3984 \; -6.7983 \; -7.1982 \; -7.5981
\; -7.998 \; -8.3979 \; -8.7978 \; -9.1977 \; -9.5976 \; -10.3974 \;
\;;
#X scalar y-plot 250 100 1 \; -10.0035 \; -10.5213 \; -11.2689 \; -12.2284
\; -13.3707 \; -14.6565 \; -16.0379 \; -17.46 \; -18.8631 \; -20.1847
\; -21.3619 \; -22.3339 \; -23.044 \; -23.442 \; -23.486 \; -23.1441
\; -22.3958 \; -21.2326 \; -19.6589 \; -17.6916 \; -15.3603 \; -12.7058
\; -9.7794 \; -6.64099 \; -3.35736 \; 7.60516e-05 \; 3.35752 \; 6.64114
\; 9.77953 \; 12.7059 \; 15.3604 \; 17.6917 \; 19.659 \; 21.2327 \;
22.3959 \; 23.1442 \; 23.486 \; 23.442 \; 23.044 \; 22.3338 \; 21.3619
\; 20.1846 \; 18.8631 \; 17.46 \; 16.0378 \; 14.6564 \; 13.3706 \;
12.2284 \; 11.2689 \; 10.5213 \; 9.72151 \; \;;
#X scalar y-plot 300 100 1 \; 9.9975 \; 9.5976 \; 9.1977 \; 8.7978
\; 8.3979 \; 7.998 \; 7.5981 \; 7.1982 \; 6.7983 \; 6.3984 \; 5.9985
\; 5.5986 \; 5.1987 \; 4.7988 \; 4.3989 \; 3.999 \; 3.5991 \; 3.1992
\; 2.7993 \; 2.3994 \; 1.9995 \; 1.5996 \; 1.1997 \; 0.7998 \; 0.3999
\; -0 \; -0.399901 \; -0.7998 \; -1.1997 \; -1.5996 \; -1.9995 \; -2.3994
\; -2.7993 \; -3.1992 \; -3.5991 \; -3.999 \; -4.3989 \; -4.7988 \;
-5.1987 \; -5.5986 \; -5.9985 \; -6.3984 \; -6.7983 \; -7.1982 \; -7.5981
\; -7.998 \; -8.3979 \; -8.7978 \; -9.1977 \; -9.5976 \; -10.3974 \;
\;;
#X scalar y-plot 350 100 1 \; -10.0035 \; -10.5213 \; -11.2689 \; -12.2284
\; -13.3707 \; -14.6565 \; -16.0379 \; -17.46 \; -18.8631 \; -20.1847
\; -21.3619 \; -22.3339 \; -23.044 \; -23.442 \; -23.486 \; -23.1441
\; -22.3958 \; -21.2326 \; -19.6589 \; -17.6916 \; -15.3603 \; -12.7058
\; -9.7794 \; -6.641 \; -3.35736 \; 3.35751 \; \;;
#X coords 0 288 1 287 0 0 0;
#X restore 54 89 pd z;
#N canvas 75 206 1115 813 make-fig 1;
#X msg 41 25 \; start pd-z \;;
#X msg 130 19 \; pd-z clear \; start pd-z;
#X obj 51 181 t l l l l;
#X obj 29 359 pack;
#X msg 29 390 \; y-plot-point \$1 \$2 \;;
#X obj 78 368 * 30;
#X msg 155 202 \; add-y-plot \$1 \$2 100 1 \;;
#X obj 147 156 unpack;
#X obj 196 158 + 75;
#X obj 148 178 pack;
#X text 50 137 npts \, xloc \, phase \, amp;
#X obj 27 241 scanner 1 1;
#X obj 27 210 t f f;
#X obj 67 210 / 100;
#X msg 142 247 \$3;
#X obj 78 348 *;
#X msg 106 347 \$4;
#X obj 79 285 +;
#X msg 402 13 \; add-haxis 50 100 350 347 \; add-vaxis 75 60 80 77
;
#X obj 51 157 r plot-sq;
#X obj 79 313 expr cos(2 * 3.14159 * $f1) - 0.3333 * cos(2 * 3.14159
* 3*$f1);
#X msg 238 18 \; add-rect 174 98 2 4 \;;
#X msg 239 55 \; add-rect 274 98 2 4 \;;
#X msg 240 92 \; add-rect 374 98 2 4 \;;
#X obj 39 503 t l l l l;
#X obj 16 684 pack;
#X msg 16 715 \; y-plot-point \$1 \$2 \;;
#X obj 65 693 * 30;
#X msg 136 525 \; add-y-plot \$1 \$2 100 1 \;;
#X obj 135 478 unpack;
#X obj 184 480 + 75;
#X obj 136 500 pack;
#X text 38 459 npts \, xloc \, phase \, amp;
#X obj 15 563 scanner 1 1;
#X obj 15 532 t f f;
#X obj 55 532 / 100;
#X msg 130 569 \$3;
#X obj 65 673 *;
#X msg 93 672 \$4;
#X obj 67 607 +;
#X msg 66 640 0.5;
#X obj 39 478 r plot-k;
#X text 356 429 2 stretched-out;
#X obj 679 119 t l l l l;
#X obj 656 300 pack;
#X msg 656 331 \; y-plot-point \$1 \$2 \;;
#X obj 705 309 * 30;
#X msg 783 140 \; add-y-plot \$1 \$2 100 1 \;;
#X obj 775 94 unpack;
#X obj 824 96 + 75;
#X obj 776 116 pack;
#X text 678 75 npts \, xloc \, phase \, amp;
#X obj 655 179 scanner 1 1;
#X obj 655 148 t f f;
#X obj 695 148 / 100;
#X msg 770 185 \$3;
#X obj 705 289 *;
#X msg 733 288 \$4;
#X obj 707 223 +;
#X obj 679 95 r plot-sq2;
#X msg 515 377 \; plot-sq2 50 0 0 1;
#X obj 649 423 t l l l l;
#X obj 626 604 pack;
#X msg 626 635 \; y-plot-point \$1 \$2 \;;
#X obj 675 613 * 30;
#X msg 753 444 \; add-y-plot \$1 \$2 100 1 \;;
#X obj 745 398 unpack;
#X obj 794 400 + 75;
#X obj 746 420 pack;
#X text 648 379 npts \, xloc \, phase \, amp;
#X obj 625 483 scanner 1 1;
#X obj 625 452 t f f;
#X obj 665 452 / 100;
#X msg 740 489 \$3;
#X obj 675 593 *;
#X msg 703 592 \$4;
#X obj 677 527 +;
#X obj 649 399 r plot-k2;
#X obj 677 548 expr ($f1-0.25)*1.333;
#X obj 707 244 expr cos(2 * 3.14159 * ($f1-0.25)) - 0.3333 * cos(2
* 3.14159 * 3* ($f1-0.25)) - ($f1)*1.333;
#X text 884 494 3 sawtooth;
#X msg 431 91 \; plot-sq 51 0 0 1;
#X msg 429 125 \; plot-sq 51 50 0 -1;
#X msg 431 160 \; plot-sq 51 100 0 1;
#X msg 430 194 \; plot-sq 51 150 0 -1;
#X msg 428 229 \; plot-sq 51 200 0 1;
#X msg 429 265 \; plot-sq 51 250 0 -1;
#X msg 352 451 \; plot-sq 51 0 0 1;
#X msg 352 487 \; plot-k 51 50 0 -1.3333;
#X msg 352 523 \; plot-sq 51 100 0 -1;
#X msg 352 559 \; plot-k 51 150 0 1.33333;
#X msg 352 595 \; plot-sq 51 200 0 1;
#X msg 352 631 \; plot-k 51 250 0 -1.3333;
#X msg 875 522 \; plot-sq2 26 0 0 1;
#X msg 876 557 \; plot-k2 51 25 0 -1;
#X msg 876 590 \; plot-sq2 51 75 -0.25 1;
#X msg 876 622 \; plot-k2 51 125 0 -1;
#X msg 876 656 \; plot-sq2 51 175 -0.25 1;
#X msg 876 689 \; plot-k2 51 225 0 -1;
#X msg 875 723 \; plot-sq2 26 275 -0.25 1;
#X text 437 71 1 original;
#X connect 2 0 12 0;
#X connect 2 1 16 0;
#X connect 2 2 14 0;
#X connect 2 3 7 0;
#X connect 3 0 4 0;
#X connect 5 0 3 1;
#X connect 7 0 9 0;
#X connect 7 1 8 0;
#X connect 8 0 9 1;
#X connect 9 0 6 0;
#X connect 11 0 3 0;
#X connect 11 1 17 0;
#X connect 12 0 11 0;
#X connect 12 1 13 0;
#X connect 13 0 11 1;
#X connect 14 0 17 1;
#X connect 15 0 5 0;
#X connect 16 0 15 1;
#X connect 17 0 20 0;
#X connect 19 0 2 0;
#X connect 20 0 15 0;
#X connect 24 0 34 0;
#X connect 24 1 38 0;
#X connect 24 2 36 0;
#X connect 24 3 29 0;
#X connect 25 0 26 0;
#X connect 27 0 25 1;
#X connect 29 0 31 0;
#X connect 29 1 30 0;
#X connect 30 0 31 1;
#X connect 31 0 28 0;
#X connect 33 0 25 0;
#X connect 33 1 39 0;
#X connect 34 0 33 0;
#X connect 34 1 35 0;
#X connect 35 0 33 1;
#X connect 36 0 39 1;
#X connect 37 0 27 0;
#X connect 38 0 37 1;
#X connect 39 0 40 0;
#X connect 40 0 37 0;
#X connect 41 0 24 0;
#X connect 43 0 53 0;
#X connect 43 1 57 0;
#X connect 43 2 55 0;
#X connect 43 3 48 0;
#X connect 44 0 45 0;
#X connect 46 0 44 1;
#X connect 48 0 50 0;
#X connect 48 1 49 0;
#X connect 49 0 50 1;
#X connect 50 0 47 0;
#X connect 52 0 44 0;
#X connect 52 1 58 0;
#X connect 53 0 52 0;
#X connect 53 1 54 0;
#X connect 54 0 52 1;
#X connect 55 0 58 1;
#X connect 56 0 46 0;
#X connect 57 0 56 1;
#X connect 58 0 79 0;
#X connect 59 0 43 0;
#X connect 61 0 71 0;
#X connect 61 1 75 0;
#X connect 61 2 73 0;
#X connect 61 3 66 0;
#X connect 62 0 63 0;
#X connect 64 0 62 1;
#X connect 66 0 68 0;
#X connect 66 1 67 0;
#X connect 67 0 68 1;
#X connect 68 0 65 0;
#X connect 70 0 62 0;
#X connect 70 1 76 0;
#X connect 71 0 70 0;
#X connect 71 1 72 0;
#X connect 72 0 70 1;
#X connect 73 0 76 1;
#X connect 74 0 64 0;
#X connect 75 0 74 1;
#X connect 76 0 78 0;
#X connect 77 0 61 0;
#X connect 78 0 74 0;
#X connect 79 0 56 0;
#X restore 32 36 pd make-fig;
