#N struct haxis float x float y float w float w-3;
#N struct vaxis float x float y float h float h-3;
#N struct y-plot float x float y float w array z y-point;
#N struct y-point float y;
#N struct rect float x float y float w float h;
#N struct xy-curve float x float y float w array z xy-point;
#N struct xy-point float x float y;
#N struct seg float x float y float dx float dy float w;
#N struct l-curve-arrow float x float y float z float z2 float z3 float
h;
#N struct circle2 float x float y float h float h2 float mh float mh2
;
#N struct xy-plot float x float y float w array z xy-point;
#N struct d-curve-arrow float x float y float z float z2 float z3 float
h;
#N struct circle float x float y float color float h float h2;
#N struct u-curve-arrow float x float y float z float z2 float z3 float
h;
#N struct r-curve-arrow float x float y float z float z2 float z3 float
h;
#N struct r-arrow float x float y float z;
#N struct l-arrow float x float y float z;
#N struct u-arrow float x float y float z;
#N struct d-arrow float x float y float z;
#N struct v-seg float x float y float z float w;
#N struct h-seg float x float y float z float w;
#N struct frame float x float y float w float h;
#N struct thickcircle float x float y float color float h float h2
;
#N struct times float x float y;
#N struct plus float x float y;
#N struct minus float x float y;
#N struct divide float x float y;
#N canvas 4 21 329 179 10;
#N canvas 170 272 382 127 fig 0;
#X scalar haxis 16 61 350 347 \;;
#X scalar vaxis 41 21 80 77 \;;
#X scalar y-plot 41 61 1 \; 0 \; 1.875 \; 3.75 \; 5.625 \; 7.5 \; 9.375
\; 11.25 \; 13.125 \; 15 \; 16.875 \; 18.75 \; 20.625 \; 22.5 \; 24.375
\; 26.25 \; 30 \; \;;
#X scalar y-plot 56 61 1 \; 30 \; 29.1549 \; 28.3099 \; 27.4648 \;
26.6197 \; 25.7746 \; 24.9296 \; 24.0845 \; 23.2394 \; 22.3944 \; 21.5493
\; 20.7042 \; 19.8592 \; 19.0141 \; 18.169 \; 17.3239 \; 16.4789 \;
15.6338 \; 14.7887 \; 13.9437 \; 13.0986 \; 12.2535 \; 11.4085 \; 10.5634
\; 9.71831 \; 8.87324 \; 8.02817 \; 7.1831 \; 6.33803 \; 5.49296 \;
4.64789 \; 3.80282 \; 2.95775 \; 2.11268 \; 1.2676 \; 0.422536 \; -0.422534
\; -1.2676 \; -2.11268 \; -2.95775 \; -3.80282 \; -4.64789 \; -5.49296
\; -6.33803 \; -7.1831 \; -8.02817 \; -8.87324 \; -9.71831 \; -10.5634
\; -11.4085 \; -12.2535 \; -13.0986 \; -13.9437 \; -14.7887 \; -15.6338
\; -16.4789 \; -17.3239 \; -18.169 \; -19.0141 \; -19.8592 \; -20.7042
\; -21.5493 \; -22.3944 \; -23.2394 \; -24.0845 \; -24.9296 \; -25.7746
\; -26.6197 \; -27.4648 \; -28.3099 \; -30 \; \;;
#X scalar y-plot 126 61 1 \; -30 \; -28.125 \; -26.25 \; -24.375 \;
-22.5 \; -20.625 \; -18.75 \; -16.875 \; -15 \; -13.125 \; -11.25 \;
-9.375 \; -7.5 \; -5.625 \; -3.75 \; 0 \; \;;
#X scalar y-plot 141 61 1 \; 0 \; 1.875 \; 3.75 \; 5.625 \; 7.5 \;
9.375 \; 11.25 \; 13.125 \; 15 \; 16.875 \; 18.75 \; 20.625 \; 22.5
\; 24.375 \; 26.25 \; 30 \; \;;
#X scalar y-plot 156 61 1 \; 30 \; 29.1549 \; 28.3099 \; 27.4648 \;
26.6197 \; 25.7746 \; 24.9296 \; 24.0845 \; 23.2394 \; 22.3944 \; 21.5493
\; 20.7042 \; 19.8592 \; 19.0141 \; 18.169 \; 17.3239 \; 16.4789 \;
15.6338 \; 14.7887 \; 13.9437 \; 13.0986 \; 12.2535 \; 11.4085 \; 10.5634
\; 9.71831 \; 8.87324 \; 8.02817 \; 7.1831 \; 6.33803 \; 5.49296 \;
4.64789 \; 3.80282 \; 2.95775 \; 2.11268 \; 1.2676 \; 0.422536 \; -0.422534
\; -1.2676 \; -2.11268 \; -2.95775 \; -3.80282 \; -4.64789 \; -5.49296
\; -6.33803 \; -7.1831 \; -8.02817 \; -8.87324 \; -9.71831 \; -10.5634
\; -11.4085 \; -12.2535 \; -13.0986 \; -13.9437 \; -14.7887 \; -15.6338
\; -16.4789 \; -17.3239 \; -18.169 \; -19.0141 \; -19.8592 \; -20.7042
\; -21.5493 \; -22.3944 \; -23.2394 \; -24.0845 \; -24.9296 \; -25.7746
\; -26.6197 \; -27.4648 \; -28.3099 \; -30 \; \;;
#X scalar y-plot 226 61 1 \; -30 \; -28.125 \; -26.25 \; -24.375 \;
-22.5 \; -20.625 \; -18.75 \; -16.875 \; -15 \; -13.125 \; -11.25 \;
-9.375 \; -7.5 \; -5.625 \; -3.75 \; 0 \; \;;
#X scalar y-plot 241 61 1 \; 0 \; 1.875 \; 3.75 \; 5.625 \; 7.5 \;
9.375 \; 11.25 \; 13.125 \; 15 \; 16.875 \; 18.75 \; 20.625 \; 22.5
\; 24.375 \; 26.25 \; 30 \; \;;
#X scalar y-plot 256 61 1 \; 30 \; 29.1549 \; 28.3099 \; 27.4648 \;
26.6197 \; 25.7746 \; 24.9296 \; 24.0845 \; 23.2394 \; 22.3944 \; 21.5493
\; 20.7042 \; 19.8592 \; 19.0141 \; 18.169 \; 17.3239 \; 16.4789 \;
15.6338 \; 14.7887 \; 13.9437 \; 13.0986 \; 12.2535 \; 11.4085 \; 10.5634
\; 9.71831 \; 8.87324 \; 8.02817 \; 7.1831 \; 6.33803 \; 5.49296 \;
4.64789 \; 3.80282 \; 2.95775 \; 2.11268 \; 1.2676 \; 0.422536 \; -0.422534
\; -1.2676 \; -2.11268 \; -2.95775 \; -3.80282 \; -4.64789 \; -5.49296
\; -6.33803 \; -7.1831 \; -8.02817 \; -8.87324 \; -9.71831 \; -10.5634
\; -11.4085 \; -12.2535 \; -13.0986 \; -13.9437 \; -14.7887 \; -15.6338
\; -16.4789 \; -17.3239 \; -18.169 \; -19.0141 \; -19.8592 \; -20.7042
\; -21.5493 \; -22.3944 \; -23.2394 \; -24.0845 \; -24.9296 \; -25.7746
\; -26.6197 \; -27.4648 \; -28.3099 \; -30 \; \;;
#X scalar rect 140 59 2 4 \;;
#X scalar rect 240 59 2 4 \;;
#X scalar rect 340 59 2 4 \;;
#X text 52 18 (M \, 1);
#X text 117 99 (N-M \, -1);
#X coords 0 127 1 126 0 0 0;
#X restore 51 61 pd fig;
#X obj 170 42 templates;
#N canvas 132 519 464 288 z 0;
#X scalar haxis 50 100 350 347 \;;
#X scalar vaxis 75 60 80 77 \;;
#X scalar y-plot 75 100 1 \; 0 \; 1.875 \; 3.75 \; 5.625 \; 7.5 \;
9.375 \; 11.25 \; 13.125 \; 15 \; 16.875 \; 18.75 \; 20.625 \; 22.5
\; 24.375 \; 26.25 \; 30 \; \;;
#X scalar y-plot 90 100 1 \; 30 \; 29.1549 \; 28.3099 \; 27.4648 \;
26.6197 \; 25.7746 \; 24.9296 \; 24.0845 \; 23.2394 \; 22.3944 \; 21.5493
\; 20.7042 \; 19.8592 \; 19.0141 \; 18.169 \; 17.3239 \; 16.4789 \;
15.6338 \; 14.7887 \; 13.9437 \; 13.0986 \; 12.2535 \; 11.4085 \; 10.5634
\; 9.71831 \; 8.87324 \; 8.02817 \; 7.1831 \; 6.33803 \; 5.49296 \;
4.64789 \; 3.80282 \; 2.95775 \; 2.11268 \; 1.2676 \; 0.422536 \; -0.422534
\; -1.2676 \; -2.11268 \; -2.95775 \; -3.80282 \; -4.64789 \; -5.49296
\; -6.33803 \; -7.1831 \; -8.02817 \; -8.87324 \; -9.71831 \; -10.5634
\; -11.4085 \; -12.2535 \; -13.0986 \; -13.9437 \; -14.7887 \; -15.6338
\; -16.4789 \; -17.3239 \; -18.169 \; -19.0141 \; -19.8592 \; -20.7042
\; -21.5493 \; -22.3944 \; -23.2394 \; -24.0845 \; -24.9296 \; -25.7746
\; -26.6197 \; -27.4648 \; -28.3099 \; -30 \; \;;
#X scalar y-plot 160 100 1 \; -30 \; -28.125 \; -26.25 \; -24.375 \;
-22.5 \; -20.625 \; -18.75 \; -16.875 \; -15 \; -13.125 \; -11.25 \;
-9.375 \; -7.5 \; -5.625 \; -3.75 \; 0 \; \;;
#X scalar y-plot 175 100 1 \; 0 \; 1.875 \; 3.75 \; 5.625 \; 7.5 \;
9.375 \; 11.25 \; 13.125 \; 15 \; 16.875 \; 18.75 \; 20.625 \; 22.5
\; 24.375 \; 26.25 \; 30 \; \;;
#X scalar y-plot 190 100 1 \; 30 \; 29.1549 \; 28.3099 \; 27.4648 \;
26.6197 \; 25.7746 \; 24.9296 \; 24.0845 \; 23.2394 \; 22.3944 \; 21.5493
\; 20.7042 \; 19.8592 \; 19.0141 \; 18.169 \; 17.3239 \; 16.4789 \;
15.6338 \; 14.7887 \; 13.9437 \; 13.0986 \; 12.2535 \; 11.4085 \; 10.5634
\; 9.71831 \; 8.87324 \; 8.02817 \; 7.1831 \; 6.33803 \; 5.49296 \;
4.64789 \; 3.80282 \; 2.95775 \; 2.11268 \; 1.2676 \; 0.422536 \; -0.422534
\; -1.2676 \; -2.11268 \; -2.95775 \; -3.80282 \; -4.64789 \; -5.49296
\; -6.33803 \; -7.1831 \; -8.02817 \; -8.87324 \; -9.71831 \; -10.5634
\; -11.4085 \; -12.2535 \; -13.0986 \; -13.9437 \; -14.7887 \; -15.6338
\; -16.4789 \; -17.3239 \; -18.169 \; -19.0141 \; -19.8592 \; -20.7042
\; -21.5493 \; -22.3944 \; -23.2394 \; -24.0845 \; -24.9296 \; -25.7746
\; -26.6197 \; -27.4648 \; -28.3099 \; -30 \; \;;
#X scalar y-plot 260 100 1 \; -30 \; -28.125 \; -26.25 \; -24.375 \;
-22.5 \; -20.625 \; -18.75 \; -16.875 \; -15 \; -13.125 \; -11.25 \;
-9.375 \; -7.5 \; -5.625 \; -3.75 \; 0 \; \;;
#X scalar y-plot 275 100 1 \; 0 \; 1.875 \; 3.75 \; 5.625 \; 7.5 \;
9.375 \; 11.25 \; 13.125 \; 15 \; 16.875 \; 18.75 \; 20.625 \; 22.5
\; 24.375 \; 26.25 \; 30 \; \;;
#X scalar y-plot 290 100 1 \; 30 \; 29.1549 \; 28.3099 \; 27.4648 \;
26.6197 \; 25.7746 \; 24.9296 \; 24.0845 \; 23.2394 \; 22.3944 \; 21.5493
\; 20.7042 \; 19.8592 \; 19.0141 \; 18.169 \; 17.3239 \; 16.4789 \;
15.6338 \; 14.7887 \; 13.9437 \; 13.0986 \; 12.2535 \; 11.4085 \; 10.5634
\; 9.71831 \; 8.87324 \; 8.02817 \; 7.1831 \; 6.33803 \; 5.49296 \;
4.64789 \; 3.80282 \; 2.95775 \; 2.11268 \; 1.2676 \; 0.422536 \; -0.422534
\; -1.2676 \; -2.11268 \; -2.95775 \; -3.80282 \; -4.64789 \; -5.49296
\; -6.33803 \; -7.1831 \; -8.02817 \; -8.87324 \; -9.71831 \; -10.5634
\; -11.4085 \; -12.2535 \; -13.0986 \; -13.9437 \; -14.7887 \; -15.6338
\; -16.4789 \; -17.3239 \; -18.169 \; -19.0141 \; -19.8592 \; -20.7042
\; -21.5493 \; -22.3944 \; -23.2394 \; -24.0845 \; -24.9296 \; -25.7746
\; -26.6197 \; -27.4648 \; -28.3099 \; -30 \; \;;
#X scalar rect 174 98 2 4 \;;
#X scalar rect 274 98 2 4 \;;
#X scalar rect 374 98 2 4 \;;
#X coords 0 288 1 287 0 0 0;
#X restore 54 89 pd z;
#N canvas 233 274 764 580 make-fig 0;
#X msg 41 25 \; start pd-z \;;
#X msg 130 19 \; pd-z clear \; start pd-z;
#X obj 63 86 r plot-segment;
#X obj 94 185 *;
#X obj 95 210 +;
#X obj 132 183 -;
#X obj 63 110 t l l l l;
#X obj 46 230 pack;
#X msg 46 261 \; y-plot-point \$1 \$2 \;;
#X obj 94 232 * 30;
#X msg 179 178 \; add-y-plot \$1 \$2 100 1 \;;
#X msg 129 161 \$4 \$3;
#X msg 137 213 \$3;
#X obj 178 127 unpack;
#X obj 227 129 + 75;
#X obj 179 149 pack;
#X msg 359 452 \; add-rect 174 98 2 4 \;;
#X msg 359 487 \; add-rect 274 98 2 4 \;;
#X msg 357 531 \; add-rect 374 98 2 4 \;;
#X obj 52 347 t l l l l;
#X obj 32 505 pack;
#X msg 32 536 \; y-plot-point \$1 \$2 \;;
#X obj 81 514 * 30;
#X msg 149 369 \; add-y-plot \$1 \$2 100 1 \;;
#X obj 148 322 unpack;
#X obj 197 324 + 75;
#X obj 149 344 pack;
#X obj 52 323 r plot-para;
#X text 51 303 npts \, xloc \, phase \, amp;
#X text 66 70 npts \, xloc \, y1 \, y2;
#X obj 43 140 scanner 0 1;
#X obj 28 407 scanner 1 1;
#X obj 28 376 t f f;
#X obj 68 376 / 100;
#X msg 143 413 \$3;
#X obj 81 494 *;
#X msg 129 497 \$4;
#X obj 80 451 +;
#X obj 80 472 expr -0.5*($f1-0.5)*($f1-0.5) + 1./24.;
#X msg 388 88 \; plot-segment 16 0 0 1 \;;
#X msg 388 123 \; plot-segment 71 15 1 -1 \;;
#X msg 388 158 \; plot-segment 16 85 -1 0 \;;
#X msg 388 202 \; plot-segment 16 100 0 1 \;;
#X msg 388 237 \; plot-segment 71 115 1 -1 \;;
#X msg 388 272 \; plot-segment 16 185 -1 0 \;;
#X msg 392 318 \; plot-segment 16 200 0 1 \;;
#X msg 392 353 \; plot-segment 71 215 1 -1 \;;
#X msg 392 388 \; plot-segment 16 285 -1 0 \;;
#X msg 377 15 \; add-haxis 50 100 350 347 \; add-vaxis 75 60 80 77
;
#X connect 2 0 6 0;
#X connect 3 0 4 0;
#X connect 4 0 9 0;
#X connect 5 0 3 1;
#X connect 6 0 30 0;
#X connect 6 1 12 0;
#X connect 6 2 11 0;
#X connect 6 3 13 0;
#X connect 7 0 8 0;
#X connect 9 0 7 1;
#X connect 11 0 5 0;
#X connect 12 0 4 1;
#X connect 13 0 15 0;
#X connect 13 1 14 0;
#X connect 14 0 15 1;
#X connect 15 0 10 0;
#X connect 19 0 32 0;
#X connect 19 1 36 0;
#X connect 19 2 34 0;
#X connect 19 3 24 0;
#X connect 20 0 21 0;
#X connect 22 0 20 1;
#X connect 24 0 26 0;
#X connect 24 1 25 0;
#X connect 25 0 26 1;
#X connect 26 0 23 0;
#X connect 27 0 19 0;
#X connect 30 0 7 0;
#X connect 30 1 3 0;
#X connect 31 0 20 0;
#X connect 31 1 37 0;
#X connect 32 0 31 0;
#X connect 32 1 33 0;
#X connect 33 0 31 1;
#X connect 34 0 37 1;
#X connect 35 0 22 0;
#X connect 36 0 35 1;
#X connect 37 0 38 0;
#X connect 38 0 35 0;
#X restore 170 83 pd make-fig;
