#N canvas 245 121 423 312 10;
#X obj 64 138 wrap~;
#X obj 17 111 -~ 0.5;
#X obj 64 158 -~ 0.5;
#X text 68 112 remove DC bias;
#X obj 17 185 +~;
#X obj 47 185 -~;
#X obj 17 89 phasor~;
#X text 118 149 out of;
#X text 120 164 phase;
#X text 118 134 1/2 cycle;
#X text 76 185 sum and difference;
#X text 71 90 sawtooth wave;
#X obj 226 113 wrap~;
#X obj 226 135 -~ 0.5;
#X obj 226 91 -~;
#X obj 257 50 / 100;
#X floatatom 257 29 4 -100 100 0 - - -;
#X obj 241 200 / 100;
#X floatatom 241 179 4 -100 100 0 - - -;
#X obj 225 222 *~;
#X obj 289 114 wrap~;
#X obj 289 136 -~ 0.5;
#X obj 289 92 -~;
#X obj 305 51 / 100;
#X floatatom 305 30 4 -100 100 0 - - -;
#X obj 304 201 / 100;
#X floatatom 304 180 4 -100 100 0 - - -;
#X obj 288 223 *~;
#X obj 350 115 wrap~;
#X obj 350 137 -~ 0.5;
#X obj 350 93 -~;
#X obj 366 52 / 100;
#X floatatom 366 31 4 -100 100 0 - - -;
#X obj 365 202 / 100;
#X floatatom 365 181 4 -100 100 0 - - -;
#X obj 349 224 *~;
#X text 245 9 -- PHASES (percent) --;
#X text 247 163 AMPLITUDES (percent);
#X obj 225 244 +~;
#X obj 225 266 +~;
#X obj 201 50 phasor~;
#X text 82 218 (a);
#X text 295 263 (b);
#X text 223 280 |;
#X text 209 292 (OUT);
#X connect 0 0 2 0;
#X connect 1 0 0 0;
#X connect 1 0 4 0;
#X connect 1 0 5 0;
#X connect 2 0 4 1;
#X connect 2 0 5 1;
#X connect 6 0 1 0;
#X connect 12 0 13 0;
#X connect 13 0 19 0;
#X connect 14 0 12 0;
#X connect 15 0 14 1;
#X connect 16 0 15 0;
#X connect 17 0 19 1;
#X connect 18 0 17 0;
#X connect 19 0 38 0;
#X connect 20 0 21 0;
#X connect 21 0 27 0;
#X connect 22 0 20 0;
#X connect 23 0 22 1;
#X connect 24 0 23 0;
#X connect 25 0 27 1;
#X connect 26 0 25 0;
#X connect 27 0 38 1;
#X connect 28 0 29 0;
#X connect 29 0 35 0;
#X connect 30 0 28 0;
#X connect 31 0 30 1;
#X connect 32 0 31 0;
#X connect 33 0 35 1;
#X connect 34 0 33 0;
#X connect 35 0 39 1;
#X connect 38 0 39 0;
#X connect 40 0 14 0;
#X connect 40 0 22 0;
#X connect 40 0 30 0;
