#N canvas 164 94 381 297 10;
#X obj 295 131 sqrt;
#X text 16 12 trigger;
#X obj 10 211 *~;
#X obj 145 202 line~;
#X obj 145 224 *~;
#X obj 145 246 *~;
#X msg 145 180 0 \$1;
#X obj 295 153 sqrt;
#X obj 10 33 r trigger;
#X obj 295 87 float \$1;
#X obj 161 138 r duration;
#X obj 26 124 r frequency;
#X obj 145 70 t b b;
#X obj 10 237 throw~ sum;
#X obj 10 55 bng 15 250 50 0 empty empty empty 0 -6 0 8 -262144 -1
-1;
#X msg 295 175 \$1 5;
#X obj 145 92 del 5;
#X obj 295 109 * 0.1;
#X obj 10 167 + \$4;
#X obj 145 114 float \$2;
#X obj 145 158 *;
#X text 171 159 actual duration;
#X obj 10 103 float \$3;
#X obj 10 145 *;
#X obj 10 189 osc~;
#X text 44 170 plus detune;
#X text 10 258 add to global;
#X text 30 272 summing bus;
#X text 94 23 arguments:;
#X text 27 75 relative;
#X text 39 87 frequency;
#X text 43 143 times global;
#X text 60 156 frequency;
#X text 295 67 ATTACK;
#X text 190 92 DECAY;
#X text 210 108 relative;
#X text 224 120 duration;
#X text 176 228 quartic amplitude;
#X text 194 241 curve;
#X text 172 4 \$1 amplitude \; \$2 relative duration \; \$3 relative
frequency \; \$4 detune;
#X text 293 194 attack time;
#X text 313 208 5 msec;
#X connect 0 0 7 0;
#X connect 2 0 13 0;
#X connect 3 0 4 0;
#X connect 3 0 4 1;
#X connect 4 0 5 0;
#X connect 4 0 5 1;
#X connect 5 0 2 1;
#X connect 6 0 3 0;
#X connect 7 0 15 0;
#X connect 8 0 14 0;
#X connect 9 0 17 0;
#X connect 10 0 20 1;
#X connect 11 0 23 1;
#X connect 12 0 16 0;
#X connect 12 1 9 0;
#X connect 14 0 12 0;
#X connect 14 0 22 0;
#X connect 15 0 3 0;
#X connect 16 0 19 0;
#X connect 17 0 0 0;
#X connect 18 0 24 0;
#X connect 19 0 20 0;
#X connect 20 0 6 0;
#X connect 22 0 23 0;
#X connect 23 0 18 0;
#X connect 24 0 2 0;
