#N canvas 135 3 237 240 10;
#X obj 25 56 inlet;
#X obj 25 114 outlet;
#X obj 76 116 outlet;
#X obj 25 89 + \$1;
#X obj 76 88 - \$1;
#X connect 0 0 3 0;
#X connect 0 0 4 0;
#X connect 3 0 1 0;
#X connect 4 0 2 0;
