#N canvas 0 0 450 300 10;
#X obj 116 140 f;
#X obj 150 140 + 1;
#X obj 0 48 t b b;
#X obj 74 195 sel 1;
#X obj 45 78 until;
#X obj 0 16 bng 15 250 50 0 empty empty empty 0 -6 0 8 -262144 -1 -1
;
#X obj 141 196 t f f f;
#X obj 167 226 / \$1;
#X obj 73 167 >= \$1;
#X obj 205 227 / \$1;
#X obj 166 249 * \$2;
#X obj 205 249 * \$2;
#X obj 117 274 outlet;
#X obj 165 276 outlet;
#X obj 217 278 outlet;
#X msg 140 69 0;
#X obj 215 4 inlet;
#X obj 215 51 t b f;
#X obj 317 48 inlet;
#X obj 215 27 f \$1;
#X connect 0 0 1 0;
#X connect 0 0 8 0;
#X connect 0 0 6 0;
#X connect 1 0 0 1;
#X connect 2 0 4 0;
#X connect 2 1 15 0;
#X connect 3 0 4 1;
#X connect 4 0 0 0;
#X connect 5 0 2 0;
#X connect 6 0 12 0;
#X connect 6 1 7 0;
#X connect 6 2 9 0;
#X connect 7 0 10 0;
#X connect 8 0 3 0;
#X connect 9 0 11 0;
#X connect 10 0 13 0;
#X connect 11 0 14 0;
#X connect 15 0 0 1;
#X connect 16 0 19 0;
#X connect 17 0 2 0;
#X connect 17 1 8 1;
#X connect 17 1 7 1;
#X connect 17 1 9 1;
#X connect 18 0 10 1;
#X connect 18 0 11 1;
#X connect 19 0 17 0;
#X coords 0 0 1 1 50 35 1 0 0;
