#N canvas 447 261 683 701 10;
#X obj 305 442 dac~;
#X obj 336 298 osc~ 220;
#X floatatom 334 253 5 0 0 0 - - -;
#X obj 333 217 mtof;
#X floatatom 331 184 5 0 0 0 - - -;
#X obj 329 147 r goba;
#X obj 282 145 s goba;
#X floatatom 282 111 5 0 0 0 - - -;
#X obj 303 357 *~;
#X obj 304 391 *~ 0.5;
#X obj 131 347 snapshot~;
#X floatatom 131 370 5 0 0 0 - - -;
#X obj 141 320 metro 100;
#X msg 131 145 1 1000;
#X msg 159 250 stop;
#X msg 151 189 0;
#X obj 131 276 vline~;
#X text 186 143 ramp up;
#X msg 140 167 0 1000;
#X text 186 166 ramp down;
#X text 186 188 jump down;
#X obj 141 298 loadbang;
#X text 332 358 try changing this from a sum (+) to a multiply (*)
;
#X connect 1 0 8 1;
#X connect 2 0 1 0;
#X connect 3 0 2 0;
#X connect 4 0 3 0;
#X connect 5 0 4 0;
#X connect 7 0 6 0;
#X connect 8 0 9 0;
#X connect 9 0 0 0;
#X connect 9 0 0 1;
#X connect 10 0 11 0;
#X connect 12 0 10 0;
#X connect 13 0 16 0;
#X connect 14 0 16 0;
#X connect 15 0 16 0;
#X connect 16 0 10 0;
#X connect 16 0 8 0;
#X connect 18 0 16 0;
#X connect 21 0 12 0;
