#N canvas 939 139 692 655 10;
#X obj 218 447 dac~;
#X obj 246 234 osc~ 220;
#X floatatom 246 207 5 0 0 0 - - -;
#X obj 243 153 mtof;
#X floatatom 241 120 5 0 0 0 - - -;
#X obj 239 83 r goba;
#X obj 192 81 s goba;
#X floatatom 192 37 5 0 0 0 - - -;
#X obj 217 396 *~ 0.5;
#X obj 41 283 snapshot~;
#X floatatom 41 306 5 0 0 0 - - -;
#X obj 51 256 metro 100;
#X msg 41 81 1 1000;
#X msg 69 186 stop;
#X msg 61 125 0;
#X obj 41 212 vline~;
#X text 96 79 ramp up;
#X msg 50 103 0 1000;
#X text 96 102 ramp down;
#X text 96 124 jump down;
#X obj 51 234 loadbang;
#X obj 216 362 *~;
#X obj 247 330 +~;
#X obj 317 234 osc~ 220;
#X obj 383 235 osc~ 220;
#X obj 447 234 osc~ 220;
#X obj 315 177 * 2;
#X obj 447 173 * 4;
#X obj 386 177 * 3;
#X floatatom 317 207 5 0 0 0 - - -;
#X floatatom 385 206 5 0 0 0 - - -;
#X floatatom 449 205 5 0 0 0 - - -;
#X obj 478 256 tgl 15 0 empty empty empty 17 7 0 10 -262144 -1 -1 0
1;
#X obj 453 280 *~;
#X obj 403 258 tgl 15 0 empty empty empty 17 7 0 10 -262144 -1 -1 0
1;
#X obj 378 282 *~;
#X obj 343 261 tgl 15 0 empty empty empty 17 7 0 10 -262144 -1 -1 0
1;
#X obj 318 285 *~;
#X text 500 257 overtones ON/OFF;
#X text 517 206 overtones;
#X text 165 208 fundamental;
#X connect 1 0 22 0;
#X connect 2 0 1 0;
#X connect 3 0 2 0;
#X connect 3 0 26 0;
#X connect 3 0 28 0;
#X connect 3 0 27 0;
#X connect 4 0 3 0;
#X connect 5 0 4 0;
#X connect 7 0 6 0;
#X connect 8 0 0 0;
#X connect 8 0 0 1;
#X connect 9 0 10 0;
#X connect 11 0 9 0;
#X connect 12 0 15 0;
#X connect 13 0 15 0;
#X connect 14 0 15 0;
#X connect 15 0 9 0;
#X connect 15 0 21 0;
#X connect 17 0 15 0;
#X connect 20 0 11 0;
#X connect 21 0 8 0;
#X connect 22 0 21 1;
#X connect 23 0 37 0;
#X connect 24 0 35 0;
#X connect 25 0 33 0;
#X connect 26 0 29 0;
#X connect 27 0 31 0;
#X connect 28 0 30 0;
#X connect 29 0 23 0;
#X connect 30 0 24 0;
#X connect 31 0 25 0;
#X connect 32 0 33 1;
#X connect 33 0 22 0;
#X connect 34 0 35 1;
#X connect 35 0 22 0;
#X connect 36 0 37 1;
#X connect 37 0 22 0;
