#N canvas 1122 23 463 521 10;
#X obj 177 389 dac~;
#X obj 169 245 osc~ 220;
#X floatatom 167 200 5 0 0 0 - - -;
#X obj 166 164 mtof;
#X floatatom 164 131 5 0 0 0 - - -;
#X obj 170 301 *~ 0.1;
#X connect 1 0 5 0;
#X connect 2 0 1 0;
#X connect 3 0 2 0;
#X connect 4 0 3 0;
#X connect 5 0 0 0;
#X connect 5 0 0 1;
